<svg width="291" height="127" viewBox="0 0 291 127" fill="none" xmlns="http://www.w3.org/2000/svg">
<path d="M284.596 63.1127C288.118 74.0541 290.564 86.0071 287.486 96.4303C284.475 106.628 276.008 115.859 256.484 121.067C245.537 123.987 224.803 124.972 201.21 124.707C177.707 124.443 151.635 122.945 130.18 121.008C96.8576 117.998 79.3317 114.438 65.3074 111.589C63.0735 111.136 60.9285 110.7 58.8226 110.287C44.9566 107.571 32.8476 105.875 8.79193 106.636C18.0264 101.571 23.4582 97.6359 26.5538 93.3883C30.5019 87.9711 30.5011 82.2383 30.5 74.3892C30.5 74.26 30.5 74.1303 30.5 74.0001C30.5 71.0478 30.2917 67.8011 30.0709 64.4346L30.0516 64.1404C29.8351 60.8413 29.6098 57.4071 29.5388 53.8894C29.3924 46.6391 29.9089 39.1907 32.4417 32.248C34.9571 25.353 39.4896 18.8776 47.5298 13.5846C55.5884 8.27957 67.259 4.10592 84.1241 2.00001C110.645 2.00581 140.202 3.8712 171.581 5.85161C183.124 6.58007 194.913 7.32409 206.888 7.99685C226.835 9.11748 242.791 12.3415 255.463 20.4663C268.075 28.5521 277.693 41.6643 284.596 63.1127Z" stroke="#FFB620" stroke-width="4"/>
<path d="M88.4262 35.93C89.0062 36.09 89.5762 36.31 90.1362 36.59C90.7162 36.85 91.2162 37.29 91.6362 37.91C92.0762 38.51 92.3762 39.15 92.5362 39.83C92.7162 40.51 92.8162 41.19 92.8362 41.87C92.8362 42.21 92.8262 42.57 92.8062 42.95C92.8062 43.33 92.7762 43.72 92.7162 44.12C92.6562 44.52 92.5562 44.91 92.4162 45.29C92.2762 45.67 92.0862 46.02 91.8462 46.34C91.6062 46.66 91.3362 46.93 91.0362 47.15C90.7362 47.35 90.4362 47.52 90.1362 47.66C89.8362 47.8 89.5362 47.9 89.2362 47.96C88.9562 48.02 88.6962 48.06 88.4562 48.08C87.9362 48.12 87.4562 48.14 87.0162 48.14C86.5762 48.12 86.1762 48.15 85.8162 48.23C85.4562 48.31 85.1862 48.46 85.0062 48.68C84.8462 48.88 84.7362 49.11 84.6762 49.37C84.6162 49.63 84.5862 49.91 84.5862 50.21C84.6062 50.49 84.6162 50.74 84.6162 50.96C84.6362 51.48 84.6662 51.91 84.7062 52.25C84.7462 52.59 84.7762 52.89 84.7962 53.15C84.8362 53.41 84.8662 53.65 84.8862 53.87C84.9062 54.07 84.8962 54.29 84.8562 54.53C84.8162 54.93 84.6362 55.26 84.3162 55.52C83.9962 55.76 83.4462 55.9 82.6662 55.94C82.0462 55.98 81.5962 55.95 81.3162 55.85C81.0562 55.75 80.8662 55.64 80.7462 55.52C80.5862 55.36 80.4462 55.19 80.3262 55.01C80.2062 54.83 80.1162 54.53 80.0562 54.11C80.0162 53.69 80.0162 53.1 80.0562 52.34C80.0962 51.56 80.2062 50.49 80.3862 49.13C80.4862 47.67 80.5362 46.49 80.5362 45.59C80.5362 44.67 80.5162 43.93 80.4762 43.37C80.4362 42.79 80.3762 42.34 80.2962 42.02C80.2162 41.7 80.1462 41.41 80.0862 41.15C79.9862 40.71 79.9062 40.31 79.8462 39.95C79.7862 39.57 79.7762 39.06 79.8162 38.42C79.8762 37.82 79.9962 37.34 80.1762 36.98C80.3762 36.62 80.6262 36.35 80.9262 36.17C81.2462 35.97 81.6162 35.84 82.0362 35.78C82.4562 35.72 82.9162 35.69 83.4162 35.69C83.7762 35.69 84.1762 35.69 84.6162 35.69C85.0762 35.67 85.5262 35.67 85.9662 35.69C86.4262 35.69 86.8662 35.71 87.2862 35.75C87.7262 35.79 88.1062 35.85 88.4262 35.93ZM88.2162 43.91C88.4962 43.65 88.6862 43.34 88.7862 42.98C88.8862 42.6 88.9062 42.19 88.8462 41.75C88.8062 41.35 88.7262 40.98 88.6062 40.64C88.4862 40.3 88.1562 40.01 87.6162 39.77C87.3762 39.65 87.0662 39.58 86.6862 39.56C86.3062 39.52 85.9462 39.53 85.6062 39.59C85.2062 39.65 84.9162 39.8 84.7362 40.04C84.5762 40.26 84.4762 40.52 84.4362 40.82C84.3962 41.12 84.3962 41.43 84.4362 41.75C84.4762 42.07 84.5162 42.35 84.5562 42.59C84.6562 43.27 84.8262 43.75 85.0662 44.03C85.3262 44.29 85.6862 44.45 86.1462 44.51C86.5862 44.55 86.9762 44.52 87.3162 44.42C87.6562 44.3 87.9562 44.13 88.2162 43.91ZM103.358 51.26C103.938 51.12 104.498 51.05 105.038 51.05C105.578 51.03 106.068 51.07 106.508 51.17C106.968 51.27 107.348 51.42 107.648 51.62C107.948 51.82 108.148 52.06 108.248 52.34C108.428 52.9 108.498 53.37 108.458 53.75C108.438 54.11 108.338 54.52 108.158 54.98C107.958 55.44 107.518 55.75 106.838 55.91C106.178 56.05 105.318 56.05 104.258 55.91C103.358 55.79 102.438 55.78 101.498 55.88C100.558 55.96 99.5484 56 98.4684 56C97.3484 56 96.5684 55.84 96.1284 55.52C95.7084 55.2 95.4884 54.69 95.4684 53.99C95.4484 53.49 95.4484 53.08 95.4684 52.76C95.5084 52.44 95.5584 52.16 95.6184 51.92C95.6984 51.68 95.7884 51.44 95.8884 51.2C95.9884 50.96 96.0884 50.66 96.1884 50.3C96.3484 49.72 96.4284 49.14 96.4284 48.56C96.4484 47.98 96.4784 47.31 96.5184 46.55C96.5384 46.19 96.5584 45.88 96.5784 45.62C96.5984 45.34 96.6084 45.09 96.6084 44.87C96.6284 44.63 96.6284 44.39 96.6084 44.15C96.6084 43.89 96.5984 43.59 96.5784 43.25C96.5384 42.81 96.4984 42.45 96.4584 42.17C96.4184 41.89 96.3784 41.65 96.3384 41.45C96.2984 41.23 96.2484 41.04 96.1884 40.88C96.1284 40.72 96.0684 40.54 96.0084 40.34C95.9084 39.94 95.8084 39.59 95.7084 39.29C95.6084 38.97 95.5584 38.52 95.5584 37.94C95.5384 37.36 95.7284 36.89 96.1284 36.53C96.5484 36.17 97.1484 35.94 97.9284 35.84C98.7084 35.72 99.4784 35.69 100.238 35.75C100.998 35.79 101.818 35.83 102.698 35.87C103.138 35.87 103.598 35.86 104.078 35.84C104.578 35.8 105.038 35.78 105.458 35.78C105.898 35.78 106.278 35.83 106.598 35.93C106.918 36.01 107.128 36.17 107.228 36.41C107.408 36.81 107.518 37.31 107.558 37.91C107.618 38.49 107.528 39.07 107.288 39.65C107.188 39.87 106.998 40.04 106.718 40.16C106.438 40.28 106.098 40.35 105.698 40.37C105.298 40.37 104.858 40.34 104.378 40.28C103.898 40.2 103.408 40.08 102.908 39.92C101.928 39.62 101.258 39.6 100.898 39.86C100.558 40.12 100.408 40.68 100.448 41.54C100.488 42.38 100.618 42.96 100.838 43.28C101.058 43.6 101.458 43.76 102.038 43.76C102.338 43.76 102.688 43.77 103.088 43.79C103.488 43.79 103.878 43.81 104.258 43.85C104.638 43.89 104.968 43.96 105.248 44.06C105.548 44.16 105.728 44.31 105.788 44.51C105.888 44.79 105.948 45.11 105.968 45.47C105.988 45.81 105.948 46.18 105.848 46.58C105.728 46.98 105.328 47.29 104.648 47.51C103.988 47.73 103.198 47.76 102.278 47.6C101.798 47.52 101.418 47.65 101.138 47.99C100.878 48.33 100.668 48.91 100.508 49.73C100.348 50.55 100.488 51.09 100.928 51.35C101.368 51.59 102.178 51.56 103.358 51.26ZM131.212 50.87C131.252 51.17 131.292 51.54 131.332 51.98C131.392 52.42 131.412 52.87 131.392 53.33C131.372 53.77 131.292 54.18 131.152 54.56C131.012 54.94 130.782 55.21 130.462 55.37C129.942 55.63 129.282 55.8 128.482 55.88C127.682 55.94 126.842 55.96 125.962 55.94C125.102 55.9 124.272 55.85 123.472 55.79C122.672 55.73 122.022 55.7 121.522 55.7C120.342 55.74 119.222 55.8 118.162 55.88C117.102 55.94 116.092 55.97 115.132 55.97C114.452 55.95 113.842 55.9 113.302 55.82C112.782 55.74 112.382 55.47 112.102 55.01C111.722 54.41 111.532 53.82 111.532 53.24C111.552 52.66 111.612 52.04 111.712 51.38C111.732 51.16 111.772 50.73 111.832 50.09C111.912 49.43 111.982 48.71 112.042 47.93C112.122 47.15 112.182 46.37 112.222 45.59C112.262 44.81 112.272 44.19 112.252 43.73C112.192 42.53 112.062 41.49 111.862 40.61C111.682 39.71 111.572 38.94 111.532 38.3C111.512 37.7 111.622 37.19 111.862 36.77C112.102 36.35 112.432 36.06 112.852 35.9C113.772 35.58 114.632 35.67 115.432 36.17C115.732 36.35 115.952 36.58 116.092 36.86C116.252 37.12 116.362 37.4 116.422 37.7C116.482 37.98 116.512 38.27 116.512 38.57C116.512 38.85 116.502 39.11 116.482 39.35C116.462 39.59 116.432 39.98 116.392 40.52C116.372 41.04 116.342 41.64 116.302 42.32C116.262 42.98 116.222 43.68 116.182 44.42C116.162 45.16 116.142 45.87 116.122 46.55C116.122 47.21 116.122 47.8 116.122 48.32C116.142 48.84 116.182 49.21 116.242 49.43C116.302 49.83 116.382 50.15 116.482 50.39C116.582 50.61 116.702 50.78 116.842 50.9C117.002 51.02 117.162 51.1 117.322 51.14C117.502 51.18 117.702 51.2 117.922 51.2C118.162 51.2 118.382 51.15 118.582 51.05C118.782 50.93 118.992 50.65 119.212 50.21C119.392 49.85 119.502 49.38 119.542 48.8C119.602 48.2 119.632 47.58 119.632 46.94C119.632 46.28 119.612 45.65 119.572 45.05C119.552 44.43 119.532 43.91 119.512 43.49C119.472 42.65 119.432 41.97 119.392 41.45C119.352 40.91 119.302 40.46 119.242 40.1C119.202 39.74 119.162 39.43 119.122 39.17C119.082 38.91 119.052 38.62 119.032 38.3C118.992 37.7 119.052 37.21 119.212 36.83C119.372 36.43 119.662 36.15 120.082 35.99C120.222 35.93 120.412 35.88 120.652 35.84C120.892 35.8 121.132 35.78 121.372 35.78C121.632 35.78 121.872 35.79 122.092 35.81C122.332 35.83 122.512 35.87 122.632 35.93C123.152 36.21 123.482 36.53 123.622 36.89C123.782 37.25 123.842 37.75 123.802 38.39C123.762 39.03 123.692 39.89 123.592 40.97C123.512 42.05 123.442 43.24 123.382 44.54C123.322 45.82 123.312 46.82 123.352 47.54C123.392 48.26 123.432 48.88 123.472 49.4C123.512 49.84 123.682 50.24 123.982 50.6C124.282 50.96 124.602 51.15 124.942 51.17C125.422 51.19 125.792 51.1 126.052 50.9C126.312 50.7 126.492 50.38 126.592 49.94C126.692 49.48 126.732 48.88 126.712 48.14C126.692 47.4 126.662 46.49 126.622 45.41C126.602 44.83 126.572 44.23 126.532 43.61C126.512 42.99 126.482 42.38 126.442 41.78C126.402 41.18 126.362 40.62 126.322 40.1C126.282 39.58 126.232 39.12 126.172 38.72C126.112 38.22 126.122 37.71 126.202 37.19C126.302 36.65 126.552 36.28 126.952 36.08C127.332 35.9 127.762 35.79 128.242 35.75C128.742 35.71 129.242 35.76 129.742 35.9C130.922 36.2 131.462 37 131.362 38.3C131.322 38.94 131.202 39.82 131.002 40.94C130.822 42.04 130.712 43.24 130.672 44.54C130.612 45.6 130.602 46.47 130.642 47.15C130.682 47.83 130.742 48.4 130.822 48.86C130.902 49.32 130.972 49.7 131.032 50C131.112 50.3 131.172 50.59 131.212 50.87ZM148.898 38.54C148.838 38.96 148.778 39.76 148.718 40.94C148.678 42.12 148.608 43.79 148.508 45.95C148.448 47.11 148.458 48.24 148.538 49.34C148.618 50.42 148.718 51.53 148.838 52.67C148.918 53.37 148.918 53.94 148.838 54.38C148.758 54.8 148.618 55.14 148.418 55.4C148.218 55.66 147.958 55.84 147.638 55.94C147.318 56.04 146.948 56.09 146.528 56.09C145.668 56.11 145.048 56 144.668 55.76C144.288 55.52 144.058 55.02 143.978 54.26C143.898 53.62 143.868 52.72 143.888 51.56C143.908 50.38 144.058 48.93 144.338 47.21C144.938 43.77 144.818 42.9 143.978 44.6C143.578 45.46 143.168 46.39 142.748 47.39C142.348 48.39 141.928 49.47 141.488 50.63C140.688 52.93 140.078 54.4 139.658 55.04C139.438 55.36 139.148 55.62 138.788 55.82C138.428 56 137.868 56.07 137.108 56.03C135.848 55.99 135.098 55.71 134.858 55.19C134.718 54.93 134.618 54.53 134.558 53.99C134.518 53.45 134.518 52.8 134.558 52.04C134.598 51.28 134.658 50.43 134.738 49.49C134.838 48.53 134.908 47.47 134.948 46.31C134.988 45.15 134.988 43.96 134.948 42.74C134.908 41.5 134.828 40.22 134.708 38.9C134.648 38.24 134.638 37.71 134.678 37.31C134.718 36.91 134.818 36.6 134.978 36.38C135.138 36.14 135.358 35.99 135.638 35.93C135.938 35.85 136.308 35.81 136.748 35.81C137.588 35.81 138.208 35.98 138.608 36.32C139.028 36.66 139.268 37.28 139.328 38.18C139.408 39.1 139.388 40.16 139.268 41.36C139.148 42.54 138.928 44 138.608 45.74C138.268 47.52 138.168 48.56 138.308 48.86C138.468 49.14 138.878 48.55 139.538 47.09C140.178 45.63 140.768 44.33 141.308 43.19C141.868 42.05 142.368 41.05 142.808 40.19C143.248 39.35 143.628 38.66 143.948 38.12C144.268 37.56 144.538 37.15 144.758 36.89C144.978 36.63 145.208 36.42 145.448 36.26C145.688 36.08 146.008 35.95 146.408 35.87C146.828 35.81 147.238 35.8 147.638 35.84C148.058 35.88 148.368 36.01 148.568 36.23C148.768 36.43 148.878 36.76 148.898 37.22C148.938 37.66 148.938 38.1 148.898 38.54ZM179.164 51.47C179.284 51.91 179.384 52.33 179.464 52.73C179.564 53.11 179.614 53.46 179.614 53.78C179.634 54.1 179.584 54.39 179.464 54.65C179.364 54.91 179.164 55.14 178.864 55.34C178.264 55.74 177.724 55.94 177.244 55.94C176.784 55.92 176.414 55.86 176.134 55.76C175.914 55.68 175.714 55.54 175.534 55.34C175.374 55.12 175.234 54.87 175.114 54.59C175.014 54.31 174.934 54.02 174.874 53.72C174.814 53.4 174.774 53.1 174.754 52.82C174.714 52.22 174.644 51.65 174.544 51.11C174.444 50.57 174.304 50.09 174.124 49.67C173.944 49.25 173.724 48.91 173.464 48.65C173.204 48.37 172.914 48.2 172.594 48.14C172.294 48.08 172.064 48.12 171.904 48.26C171.764 48.4 171.644 48.55 171.544 48.71C171.364 49.07 171.264 49.54 171.244 50.12C171.244 50.7 171.254 51.31 171.274 51.95C171.294 52.57 171.294 53.18 171.274 53.78C171.254 54.38 171.124 54.89 170.884 55.31C170.724 55.59 170.484 55.78 170.164 55.88C169.844 55.96 169.384 56 168.784 56C168.224 55.98 167.774 55.9 167.434 55.76C167.114 55.62 166.874 55.34 166.714 54.92C166.654 54.74 166.614 54.51 166.594 54.23C166.594 53.93 166.604 53.61 166.624 53.27C166.664 52.91 166.704 52.55 166.744 52.19C166.804 51.81 166.854 51.45 166.894 51.11C166.934 50.59 166.974 50.17 167.014 49.85C167.074 49.51 167.124 49.13 167.164 48.71C167.204 46.71 167.164 44.95 167.044 43.43C166.944 41.89 166.854 40.65 166.774 39.71C166.694 38.77 166.684 38.02 166.744 37.46C166.824 36.9 166.944 36.5 167.104 36.26C167.184 36.12 167.324 36.02 167.524 35.96C167.724 35.88 167.944 35.83 168.184 35.81C168.444 35.77 168.704 35.75 168.964 35.75C169.244 35.75 169.504 35.75 169.744 35.75C170.224 35.77 170.564 35.87 170.764 36.05C170.984 36.23 171.124 36.54 171.184 36.98C171.224 37.36 171.244 37.81 171.244 38.33C171.264 38.83 171.244 39.41 171.184 40.07C171.164 40.23 171.154 40.42 171.154 40.64C171.154 40.86 171.154 41.08 171.154 41.3C171.154 41.52 171.154 41.73 171.154 41.93C171.174 42.11 171.194 42.26 171.214 42.38C171.274 42.48 171.334 42.55 171.394 42.59C171.474 42.61 171.594 42.55 171.754 42.41C171.914 42.25 172.084 42.05 172.264 41.81C172.464 41.55 172.654 41.28 172.834 41C173.034 40.7 173.194 40.41 173.314 40.13C173.554 39.61 173.814 39.06 174.094 38.48C174.374 37.88 174.644 37.38 174.904 36.98C175.164 36.6 175.414 36.34 175.654 36.2C175.894 36.04 176.214 35.93 176.614 35.87C176.894 35.81 177.284 35.82 177.784 35.9C178.284 35.98 178.754 36.26 179.194 36.74C179.454 37.02 179.584 37.31 179.584 37.61C179.604 37.91 179.534 38.22 179.374 38.54C179.214 38.86 178.994 39.19 178.714 39.53C178.434 39.85 178.144 40.19 177.844 40.55C177.604 40.83 177.314 41.15 176.974 41.51C176.634 41.85 176.304 42.2 175.984 42.56C175.664 42.92 175.384 43.26 175.144 43.58C174.904 43.9 174.774 44.17 174.754 44.39C174.734 44.63 174.784 44.81 174.904 44.93C175.044 45.05 175.244 45.2 175.504 45.38C175.764 45.56 176.074 45.81 176.434 46.13C176.814 46.45 177.234 46.94 177.694 47.6C178.194 48.28 178.534 48.97 178.714 49.67C178.894 50.35 179.044 50.95 179.164 51.47ZM192.025 44.6C192.165 44.68 192.345 44.78 192.565 44.9C192.785 45 193.015 45.13 193.255 45.29C193.495 45.43 193.725 45.6 193.945 45.8C194.165 45.98 194.355 46.2 194.515 46.46C194.795 46.92 195.005 47.51 195.145 48.23C195.285 48.95 195.335 49.71 195.295 50.51C195.255 51.23 195.115 51.94 194.875 52.64C194.655 53.32 194.255 53.96 193.675 54.56C193.275 54.96 192.805 55.29 192.265 55.55C191.745 55.81 191.105 55.94 190.345 55.94C190.025 55.94 189.605 55.95 189.085 55.97C188.585 55.99 188.045 56 187.465 56C186.905 56 186.345 55.99 185.785 55.97C185.245 55.95 184.785 55.9 184.405 55.82C184.025 55.76 183.695 55.63 183.415 55.43C183.135 55.23 182.905 54.99 182.725 54.71C182.545 54.41 182.405 54.09 182.305 53.75C182.225 53.41 182.185 53.06 182.185 52.7C182.205 52.16 182.235 51.72 182.275 51.38C182.335 51.02 182.385 50.72 182.425 50.48C182.485 50.22 182.545 49.99 182.605 49.79C182.665 49.59 182.735 49.37 182.815 49.13C182.935 48.71 183.015 48.2 183.055 47.6C183.095 46.98 183.105 46.35 183.085 45.71C183.085 45.07 183.055 44.47 182.995 43.91C182.955 43.33 182.895 42.87 182.815 42.53C182.715 42.07 182.635 41.55 182.575 40.97C182.535 40.39 182.495 39.81 182.455 39.23C182.395 38.47 182.415 37.84 182.515 37.34C182.615 36.82 182.865 36.47 183.265 36.29C183.785 36.07 184.355 35.92 184.975 35.84C185.595 35.76 186.295 35.72 187.075 35.72C187.635 35.72 188.105 35.73 188.485 35.75C188.865 35.75 189.215 35.77 189.535 35.81C189.855 35.85 190.155 35.92 190.435 36.02C190.735 36.12 191.065 36.26 191.425 36.44C192.145 36.8 192.655 37.23 192.955 37.73C193.275 38.23 193.475 38.79 193.555 39.41C193.655 40.03 193.605 40.68 193.405 41.36C193.205 42.04 192.815 42.62 192.235 43.1C191.795 43.46 191.575 43.76 191.575 44C191.575 44.22 191.725 44.42 192.025 44.6ZM187.195 39.26C186.915 39.5 186.725 39.81 186.625 40.19C186.545 40.57 186.545 41 186.625 41.48C186.725 42.08 186.935 42.45 187.255 42.59C187.595 42.73 187.965 42.78 188.365 42.74C188.705 42.7 189.015 42.6 189.295 42.44C189.575 42.28 189.795 41.91 189.955 41.33C190.115 40.75 190.125 40.27 189.985 39.89C189.845 39.51 189.615 39.24 189.295 39.08C188.955 38.92 188.585 38.85 188.185 38.87C187.805 38.89 187.475 39.02 187.195 39.26ZM190.705 50.96C190.985 50.5 191.125 50.05 191.125 49.61C191.145 49.15 191.085 48.73 190.945 48.35C190.805 47.99 190.625 47.74 190.405 47.6C190.185 47.46 189.945 47.35 189.685 47.27C189.445 47.19 189.135 47.16 188.755 47.18C188.375 47.18 188.015 47.28 187.675 47.48C187.335 47.66 187.095 47.99 186.955 48.47C186.835 48.95 186.775 49.48 186.775 50.06C186.795 50.46 186.855 50.78 186.955 51.02C187.075 51.26 187.215 51.45 187.375 51.59C187.555 51.71 187.745 51.8 187.945 51.86C188.145 51.9 188.345 51.92 188.545 51.92C188.985 51.96 189.385 51.93 189.745 51.83C190.105 51.71 190.425 51.42 190.705 50.96ZM212.56 38.54C212.5 38.96 212.44 39.76 212.38 40.94C212.34 42.12 212.27 43.79 212.17 45.95C212.11 47.11 212.12 48.24 212.2 49.34C212.28 50.42 212.38 51.53 212.5 52.67C212.58 53.37 212.58 53.94 212.5 54.38C212.42 54.8 212.28 55.14 212.08 55.4C211.88 55.66 211.62 55.84 211.3 55.94C210.98 56.04 210.61 56.09 210.19 56.09C209.33 56.11 208.71 56 208.33 55.76C207.95 55.52 207.72 55.02 207.64 54.26C207.56 53.62 207.53 52.72 207.55 51.56C207.57 50.38 207.72 48.93 208 47.21C208.6 43.77 208.48 42.9 207.64 44.6C207.24 45.46 206.83 46.39 206.41 47.39C206.01 48.39 205.59 49.47 205.15 50.63C204.35 52.93 203.74 54.4 203.32 55.04C203.1 55.36 202.81 55.62 202.45 55.82C202.09 56 201.53 56.07 200.77 56.03C199.51 55.99 198.76 55.71 198.52 55.19C198.38 54.93 198.28 54.53 198.22 53.99C198.18 53.45 198.18 52.8 198.22 52.04C198.26 51.28 198.32 50.43 198.4 49.49C198.5 48.53 198.57 47.47 198.61 46.31C198.65 45.15 198.65 43.96 198.61 42.74C198.57 41.5 198.49 40.22 198.37 38.9C198.31 38.24 198.3 37.71 198.34 37.31C198.38 36.91 198.48 36.6 198.64 36.38C198.8 36.14 199.02 35.99 199.3 35.93C199.6 35.85 199.97 35.81 200.41 35.81C201.25 35.81 201.87 35.98 202.27 36.32C202.69 36.66 202.93 37.28 202.99 38.18C203.07 39.1 203.05 40.16 202.93 41.36C202.81 42.54 202.59 44 202.27 45.74C201.93 47.52 201.83 48.56 201.97 48.86C202.13 49.14 202.54 48.55 203.2 47.09C203.84 45.63 204.43 44.33 204.97 43.19C205.53 42.05 206.03 41.05 206.47 40.19C206.91 39.35 207.29 38.66 207.61 38.12C207.93 37.56 208.2 37.15 208.42 36.89C208.64 36.63 208.87 36.42 209.11 36.26C209.35 36.08 209.67 35.95 210.07 35.87C210.49 35.81 210.9 35.8 211.3 35.84C211.72 35.88 212.03 36.01 212.23 36.23C212.43 36.43 212.54 36.76 212.56 37.22C212.6 37.66 212.6 38.1 212.56 38.54ZM225.666 45.56C226.066 45.72 226.456 45.93 226.836 46.19C227.236 46.45 227.606 46.89 227.946 47.51C228.246 48.09 228.426 48.69 228.486 49.31C228.566 49.91 228.566 50.54 228.486 51.2C228.446 51.6 228.386 51.96 228.306 52.28C228.226 52.58 228.116 52.87 227.976 53.15C227.836 53.41 227.656 53.67 227.436 53.93C227.216 54.19 226.946 54.45 226.626 54.71C226.146 55.11 225.536 55.41 224.796 55.61C224.076 55.81 223.346 55.93 222.606 55.97C221.866 56.01 221.166 55.98 220.506 55.88C219.866 55.78 219.366 55.63 219.006 55.43C218.246 54.99 217.566 54.5 216.966 53.96C216.386 53.4 215.996 52.81 215.796 52.19C215.636 51.71 215.586 51.24 215.646 50.78C215.706 50.3 215.926 49.89 216.306 49.55C216.486 49.37 216.716 49.24 216.996 49.16C217.296 49.06 217.596 49.01 217.896 49.01C218.196 49.01 218.476 49.07 218.736 49.19C219.016 49.31 219.246 49.49 219.426 49.73C219.606 49.97 219.816 50.22 220.056 50.48C220.296 50.72 220.566 50.94 220.866 51.14C221.186 51.32 221.536 51.45 221.916 51.53C222.296 51.61 222.716 51.6 223.176 51.5C223.496 51.44 223.746 51.26 223.926 50.96C224.126 50.64 224.236 50.3 224.256 49.94C224.296 49.58 224.246 49.23 224.106 48.89C223.986 48.53 223.776 48.27 223.476 48.11C223.176 47.89 222.826 47.73 222.426 47.63C222.046 47.51 221.626 47.39 221.166 47.27C220.686 47.15 220.296 46.96 219.996 46.7C219.716 46.44 219.566 46.02 219.546 45.44C219.506 44.92 219.546 44.53 219.666 44.27C219.806 44.01 220.136 43.77 220.656 43.55C221.036 43.39 221.386 43.28 221.706 43.22C222.026 43.16 222.356 43.05 222.696 42.89C222.916 42.79 223.116 42.68 223.296 42.56C223.496 42.44 223.656 42.3 223.776 42.14C223.916 41.96 224.006 41.75 224.046 41.51C224.106 41.27 224.106 40.97 224.046 40.61C223.986 40.21 223.776 39.93 223.416 39.77C223.076 39.61 222.706 39.55 222.306 39.59C221.926 39.63 221.586 39.73 221.286 39.89C221.006 40.05 220.736 40.23 220.476 40.43C220.236 40.63 219.986 40.82 219.726 41C219.466 41.18 219.186 41.31 218.886 41.39C218.386 41.49 217.976 41.51 217.656 41.45C217.356 41.37 217.016 41.13 216.636 40.73C216.376 40.41 216.226 40.03 216.186 39.59C216.146 39.15 216.226 38.72 216.426 38.3C216.626 37.9 216.996 37.53 217.536 37.19C218.096 36.85 218.666 36.57 219.246 36.35C219.626 36.19 220.056 36.07 220.536 35.99C221.016 35.89 221.486 35.82 221.946 35.78C222.426 35.74 222.876 35.73 223.296 35.75C223.716 35.77 224.076 35.81 224.376 35.87C224.876 36.01 225.376 36.2 225.876 36.44C226.396 36.66 226.846 37.04 227.226 37.58C227.586 38.1 227.816 38.63 227.916 39.17C228.036 39.69 228.096 40.21 228.096 40.73C228.096 41.23 228.006 41.74 227.826 42.26C227.666 42.78 227.436 43.2 227.136 43.52C226.856 43.8 226.586 44.01 226.326 44.15C226.086 44.27 225.766 44.41 225.366 44.57C224.626 44.83 224.726 45.16 225.666 45.56ZM79.0673 70.71C79.2273 70.91 79.3373 71.18 79.3973 71.52C79.4773 71.86 79.5173 72.22 79.5173 72.6C79.5373 72.96 79.5273 73.31 79.4873 73.65C79.4673 73.99 79.4373 74.27 79.3973 74.49C79.3573 74.71 79.3073 75.14 79.2473 75.78C79.1873 76.4 79.1273 77.1 79.0673 77.88C79.0073 78.64 78.9573 79.4 78.9173 80.16C78.8973 80.92 78.8973 81.53 78.9173 81.99C78.9773 83.19 79.0873 84.22 79.2473 85.08C79.4073 85.94 79.5273 86.67 79.6073 87.27C79.6673 87.87 79.5673 88.41 79.3073 88.89C79.0473 89.37 78.6973 89.67 78.2573 89.79C77.8973 89.91 77.4873 89.97 77.0273 89.97C76.5673 89.97 76.1473 89.85 75.7673 89.61C75.4073 89.35 75.1273 88.94 74.9273 88.38C74.7273 87.82 74.6873 87.04 74.8073 86.04C74.9073 85.26 74.9973 84.35 75.0773 83.31C75.1573 82.25 75.1973 81.2 75.1973 80.16C75.2173 79.1 75.1873 78.12 75.1073 77.22C75.0473 76.32 74.9173 75.63 74.7173 75.15C74.5773 74.83 74.3573 74.6 74.0573 74.46C73.7573 74.32 73.4373 74.26 73.0973 74.28C72.7573 74.3 72.4273 74.39 72.1073 74.55C71.7873 74.71 71.5373 74.94 71.3573 75.24C71.1573 75.58 71.0273 76.21 70.9673 77.13C70.9073 78.03 70.8873 79.07 70.9073 80.25C70.9473 81.41 71.0173 82.61 71.1173 83.85C71.2173 85.09 71.3273 86.21 71.4473 87.21C71.5473 88.01 71.5173 88.59 71.3573 88.95C71.1973 89.31 70.9473 89.57 70.6073 89.73C70.2273 89.91 69.8173 90 69.3773 90C68.9373 90 68.5173 89.95 68.1173 89.85C67.5373 89.71 67.1273 89.45 66.8873 89.07C66.6673 88.67 66.5673 88.15 66.5873 87.51C66.5873 87.33 66.6073 87 66.6473 86.52C66.7073 86.04 66.7673 85.51 66.8273 84.93C66.9073 84.35 66.9773 83.75 67.0373 83.13C67.0973 82.51 67.1373 81.97 67.1573 81.51C67.1573 80.49 67.1473 79.62 67.1273 78.9C67.1273 78.16 67.1173 77.53 67.0973 77.01C67.0773 76.47 67.0473 76.02 67.0073 75.66C66.9873 75.3 66.9673 74.97 66.9473 74.67C66.8873 74.09 66.8273 73.5 66.7673 72.9C66.7273 72.28 66.7273 71.8 66.7673 71.46C66.8073 70.96 67.0573 70.58 67.5173 70.32C67.9973 70.06 68.5473 69.9 69.1673 69.84C69.5473 69.78 69.9873 69.77 70.4873 69.81C70.9873 69.83 71.5173 69.86 72.0773 69.9C72.6573 69.92 73.2473 69.94 73.8473 69.96C74.4673 69.96 75.0773 69.92 75.6773 69.84C76.2373 69.76 76.6973 69.74 77.0573 69.78C77.4373 69.8 77.7573 69.86 78.0173 69.96C78.2773 70.04 78.4873 70.15 78.6473 70.29C78.8073 70.43 78.9473 70.57 79.0673 70.71ZM92.8392 71.61C93.4792 72.33 93.9792 73.12 94.3392 73.98C94.7192 74.82 94.9792 75.7 95.1192 76.62C95.2792 77.54 95.3492 78.48 95.3292 79.44C95.3292 80.38 95.2692 81.3 95.1492 82.2C95.0492 82.96 94.9292 83.63 94.7892 84.21C94.6692 84.77 94.5192 85.29 94.3392 85.77C94.1592 86.23 93.9492 86.65 93.7092 87.03C93.4692 87.39 93.1892 87.74 92.8692 88.08C92.5492 88.42 92.2392 88.72 91.9392 88.98C91.6392 89.22 91.3192 89.42 90.9792 89.58C90.6592 89.72 90.2992 89.83 89.8992 89.91C89.5192 89.97 89.0692 90 88.5492 90C87.9892 90 87.4992 89.94 87.0792 89.82C86.6592 89.68 86.2792 89.5 85.9392 89.28C85.6192 89.04 85.3192 88.76 85.0392 88.44C84.7592 88.12 84.4792 87.76 84.1992 87.36C83.5792 86.48 83.0992 85.51 82.7592 84.45C82.4392 83.39 82.2392 82.31 82.1592 81.21C82.0992 80.09 82.1492 78.98 82.3092 77.88C82.4692 76.76 82.7292 75.71 83.0892 74.73C83.3292 74.07 83.6492 73.42 84.0492 72.78C84.4692 72.14 84.9592 71.58 85.5192 71.1C86.0792 70.62 86.6992 70.26 87.3792 70.02C88.0792 69.76 88.8292 69.68 89.6292 69.78C90.7892 69.92 91.8592 70.53 92.8392 71.61ZM90.3492 83.61C90.6892 83.27 90.9292 82.7 91.0692 81.9C91.2092 81.1 91.2792 80.03 91.2792 78.69C91.2792 77.43 91.0792 76.52 90.6792 75.96C90.2992 75.4 89.8392 75.07 89.2992 74.97C88.2392 74.77 87.4192 75.49 86.8392 77.13C86.5592 77.97 86.3892 78.75 86.3292 79.47C86.2892 80.17 86.3192 80.86 86.4192 81.54C86.5792 82.92 87.1192 83.8 88.0392 84.18C88.4592 84.36 88.8592 84.4 89.2392 84.3C89.6192 84.18 89.9892 83.95 90.3492 83.61ZM110.08 90.06C108.88 90.08 108.06 89.84 107.62 89.34C107.18 88.84 107.04 88.12 107.2 87.18C107.42 85.84 107.51 84.6 107.47 83.46C107.43 82.32 107.39 81.24 107.35 80.22C107.33 79.76 107.3 79.27 107.26 78.75C107.22 78.21 107.16 77.69 107.08 77.19C107.02 76.69 106.94 76.24 106.84 75.84C106.76 75.44 106.66 75.13 106.54 74.91C106.34 74.57 106.15 74.41 105.97 74.43C105.79 74.43 105.59 74.56 105.37 74.82C105.15 75.12 104.95 75.6 104.77 76.26C104.61 76.92 104.47 77.73 104.35 78.69C104.31 78.97 104.25 79.4 104.17 79.98C104.11 80.54 104.03 81.19 103.93 81.93C103.85 82.67 103.76 83.47 103.66 84.33C103.58 85.19 103.52 86.04 103.48 86.88C103.46 87.18 103.42 87.5 103.36 87.84C103.32 88.16 103.24 88.46 103.12 88.74C103.02 89 102.88 89.23 102.7 89.43C102.52 89.63 102.29 89.76 102.01 89.82C101.83 89.86 101.6 89.9 101.32 89.94C101.04 89.98 100.74 90 100.42 90C100.12 90 99.8201 89.97 99.5201 89.91C99.2201 89.83 98.9601 89.7 98.7401 89.52C98.4401 89.28 98.2101 89.04 98.0501 88.8C97.9101 88.54 97.8401 88.26 97.8401 87.96C97.8601 87.66 97.9401 87.31 98.0801 86.91C98.2201 86.49 98.4301 85.99 98.7101 85.41C99.0301 84.69 99.3001 83.97 99.5201 83.25C99.7601 82.51 99.9801 81.71 100.18 80.85C100.38 79.99 100.59 79.03 100.81 77.97C101.03 76.91 101.29 75.69 101.59 74.31C101.89 73.21 102.23 72.35 102.61 71.73C103.01 71.11 103.52 70.6 104.14 70.2C104.36 70.06 104.63 69.95 104.95 69.87C105.29 69.79 105.64 69.76 106 69.78C106.36 69.78 106.71 69.84 107.05 69.96C107.39 70.06 107.69 70.24 107.95 70.5C108.27 70.82 108.58 71.29 108.88 71.91C109.2 72.53 109.5 73.24 109.78 74.04C110.08 74.84 110.35 75.7 110.59 76.62C110.85 77.54 111.09 78.45 111.31 79.35C111.53 80.25 111.72 81.11 111.88 81.93C112.04 82.75 112.17 83.47 112.27 84.09C112.43 85.11 112.53 85.99 112.57 86.73C112.61 87.47 112.55 88.09 112.39 88.59C112.25 89.07 111.99 89.43 111.61 89.67C111.25 89.91 110.74 90.04 110.08 90.06ZM126.424 69.69C127.024 69.69 127.464 69.83 127.744 70.11C128.044 70.39 128.264 70.78 128.404 71.28C128.444 71.44 128.474 71.77 128.494 72.27C128.514 72.77 128.514 73.33 128.494 73.95C128.474 74.55 128.444 75.17 128.404 75.81C128.364 76.43 128.314 76.95 128.254 77.37C127.954 79.45 127.524 81.27 126.964 82.83C126.424 84.37 125.874 85.55 125.314 86.37C125.034 86.79 124.744 87.2 124.444 87.6C124.144 87.98 123.804 88.33 123.424 88.65C123.064 88.97 122.654 89.25 122.194 89.49C121.734 89.71 121.224 89.85 120.664 89.91C119.744 90.01 119.044 89.97 118.564 89.79C118.104 89.59 117.694 89.35 117.334 89.07C117.074 88.87 116.804 88.58 116.524 88.2C116.264 87.82 116.064 87.42 115.924 87C115.784 86.56 115.764 86.12 115.864 85.68C115.964 85.22 116.254 84.81 116.734 84.45C117.034 84.23 117.324 84.1 117.604 84.06C117.884 84 118.134 84.01 118.354 84.09C118.574 84.15 118.764 84.26 118.924 84.42C119.104 84.58 119.244 84.75 119.344 84.93C119.524 85.25 119.734 85.45 119.974 85.53C120.234 85.61 120.504 85.61 120.784 85.53C121.064 85.43 121.334 85.26 121.594 85.02C121.854 84.78 122.074 84.51 122.254 84.21C122.414 83.95 122.474 83.74 122.434 83.58C122.414 83.4 122.324 83.27 122.164 83.19C122.024 83.09 121.844 83.01 121.624 82.95C121.404 82.89 121.184 82.83 120.964 82.77C120.284 82.59 119.624 82.3 118.984 81.9C118.344 81.48 117.764 80.88 117.244 80.1C116.744 79.32 116.324 78.33 115.984 77.13C115.664 75.93 115.484 74.46 115.444 72.72C115.444 72.16 115.494 71.66 115.594 71.22C115.694 70.78 115.964 70.44 116.404 70.2C116.784 70 117.214 69.89 117.694 69.87C118.194 69.85 118.644 69.98 119.044 70.26C119.284 70.44 119.454 70.68 119.554 70.98C119.674 71.28 119.754 71.62 119.794 72C119.834 72.36 119.854 72.75 119.854 73.17C119.854 73.57 119.864 73.95 119.884 74.31C119.904 74.99 119.984 75.64 120.124 76.26C120.284 76.88 120.474 77.44 120.694 77.94C120.934 78.42 121.214 78.83 121.534 79.17C121.854 79.49 122.194 79.7 122.554 79.8C122.814 79.88 123.024 79.88 123.184 79.8C123.344 79.72 123.514 79.54 123.694 79.26C123.934 78.88 124.064 78.33 124.084 77.61C124.104 76.87 124.084 76.09 124.024 75.27C123.984 74.43 123.954 73.62 123.934 72.84C123.914 72.04 123.994 71.38 124.174 70.86C124.354 70.36 124.624 70.05 124.984 69.93C125.344 69.79 125.824 69.71 126.424 69.69ZM144.352 71.58C144.372 71.9 144.382 72.2 144.382 72.48C144.382 72.76 144.362 73.07 144.322 73.41C144.302 73.73 144.262 74.11 144.202 74.55C144.142 74.99 144.072 75.54 143.992 76.2C143.912 76.84 143.842 77.48 143.782 78.12C143.742 78.76 143.712 79.37 143.692 79.95C143.672 80.51 143.662 81.03 143.662 81.51C143.662 81.99 143.682 82.41 143.722 82.77C143.742 83.09 143.772 83.39 143.812 83.67C143.852 83.93 143.892 84.2 143.932 84.48C143.972 84.74 144.022 85.01 144.082 85.29C144.142 85.57 144.202 85.89 144.262 86.25C144.342 86.59 144.372 86.97 144.352 87.39C144.332 87.79 144.262 88.17 144.142 88.53C144.042 88.89 143.872 89.2 143.632 89.46C143.412 89.72 143.132 89.88 142.792 89.94C142.312 90.02 141.812 90.04 141.292 90C140.772 89.94 140.332 89.79 139.972 89.55C139.232 89.09 139.032 88.04 139.372 86.4C139.532 85.64 139.602 84.92 139.582 84.24C139.562 83.56 139.472 83.06 139.312 82.74C139.232 82.58 139.112 82.46 138.952 82.38C138.812 82.3 138.652 82.25 138.472 82.23C138.292 82.19 138.102 82.17 137.902 82.17C137.702 82.15 137.512 82.14 137.332 82.14C137.092 82.14 136.712 82.14 136.192 82.14C135.672 82.14 135.122 82.07 134.542 81.93C133.982 81.79 133.452 81.55 132.952 81.21C132.452 80.85 132.102 80.31 131.902 79.59C131.722 78.99 131.592 78.35 131.512 77.67C131.452 76.99 131.412 76.32 131.392 75.66C131.372 75 131.372 74.38 131.392 73.8C131.412 73.22 131.442 72.74 131.482 72.36C131.522 71.9 131.582 71.51 131.662 71.19C131.742 70.85 132.002 70.53 132.442 70.23C132.822 69.95 133.302 69.82 133.882 69.84C134.462 69.84 134.962 69.97 135.382 70.23C135.782 70.49 135.992 70.91 136.012 71.49C136.052 72.07 135.962 72.73 135.742 73.47C135.542 74.13 135.452 74.77 135.472 75.39C135.512 75.99 135.582 76.52 135.682 76.98C135.782 77.46 135.982 77.83 136.282 78.09C136.582 78.33 136.882 78.47 137.182 78.51C137.482 78.55 137.862 78.55 138.322 78.51C138.802 78.45 139.162 78.31 139.402 78.09C139.722 77.81 139.892 77.38 139.912 76.8C139.932 76.22 139.882 75.37 139.762 74.25C139.642 73.13 139.592 72.24 139.612 71.58C139.652 70.92 139.822 70.48 140.122 70.26C140.402 70.04 140.712 69.9 141.052 69.84C141.392 69.78 141.842 69.78 142.402 69.84C142.962 69.9 143.412 70.07 143.752 70.35C144.112 70.63 144.312 71.04 144.352 71.58ZM162.228 72.54C162.168 72.96 162.108 73.76 162.048 74.94C162.008 76.12 161.938 77.79 161.838 79.95C161.778 81.11 161.788 82.24 161.868 83.34C161.948 84.42 162.048 85.53 162.168 86.67C162.248 87.37 162.248 87.94 162.168 88.38C162.088 88.8 161.948 89.14 161.748 89.4C161.548 89.66 161.288 89.84 160.968 89.94C160.648 90.04 160.278 90.09 159.858 90.09C158.998 90.11 158.378 90 157.998 89.76C157.618 89.52 157.388 89.02 157.308 88.26C157.228 87.62 157.198 86.72 157.218 85.56C157.238 84.38 157.388 82.93 157.668 81.21C158.268 77.77 158.148 76.9 157.308 78.6C156.908 79.46 156.498 80.39 156.078 81.39C155.678 82.39 155.258 83.47 154.818 84.63C154.018 86.93 153.408 88.4 152.988 89.04C152.768 89.36 152.478 89.62 152.118 89.82C151.758 90 151.198 90.07 150.438 90.03C149.178 89.99 148.428 89.71 148.188 89.19C148.048 88.93 147.948 88.53 147.888 87.99C147.848 87.45 147.848 86.8 147.888 86.04C147.928 85.28 147.988 84.43 148.068 83.49C148.168 82.53 148.238 81.47 148.278 80.31C148.318 79.15 148.318 77.96 148.278 76.74C148.238 75.5 148.158 74.22 148.038 72.9C147.978 72.24 147.968 71.71 148.008 71.31C148.048 70.91 148.148 70.6 148.308 70.38C148.468 70.14 148.688 69.99 148.968 69.93C149.268 69.85 149.638 69.81 150.078 69.81C150.918 69.81 151.538 69.98 151.938 70.32C152.358 70.66 152.598 71.28 152.658 72.18C152.738 73.1 152.718 74.16 152.598 75.36C152.478 76.54 152.258 78 151.938 79.74C151.598 81.52 151.498 82.56 151.638 82.86C151.798 83.14 152.208 82.55 152.868 81.09C153.508 79.63 154.098 78.33 154.638 77.19C155.198 76.05 155.698 75.05 156.138 74.19C156.578 73.35 156.958 72.66 157.278 72.12C157.598 71.56 157.868 71.15 158.088 70.89C158.308 70.63 158.538 70.42 158.778 70.26C159.018 70.08 159.338 69.95 159.738 69.87C160.158 69.81 160.568 69.8 160.968 69.84C161.388 69.88 161.698 70.01 161.898 70.23C162.098 70.43 162.208 70.76 162.228 71.22C162.268 71.66 162.268 72.1 162.228 72.54ZM192.944 70.71C193.104 70.91 193.214 71.18 193.274 71.52C193.354 71.86 193.394 72.22 193.394 72.6C193.414 72.96 193.404 73.31 193.364 73.65C193.344 73.99 193.314 74.27 193.274 74.49C193.234 74.71 193.184 75.14 193.124 75.78C193.064 76.4 193.004 77.1 192.944 77.88C192.884 78.64 192.834 79.4 192.794 80.16C192.774 80.92 192.774 81.53 192.794 81.99C192.854 83.19 192.964 84.22 193.124 85.08C193.284 85.94 193.404 86.67 193.484 87.27C193.544 87.87 193.444 88.41 193.184 88.89C192.924 89.37 192.574 89.67 192.134 89.79C191.774 89.91 191.364 89.97 190.904 89.97C190.444 89.97 190.024 89.85 189.644 89.61C189.284 89.35 189.004 88.94 188.804 88.38C188.604 87.82 188.564 87.04 188.684 86.04C188.784 85.26 188.874 84.35 188.954 83.31C189.034 82.25 189.074 81.2 189.074 80.16C189.094 79.1 189.064 78.12 188.984 77.22C188.924 76.32 188.794 75.63 188.594 75.15C188.454 74.83 188.234 74.6 187.934 74.46C187.634 74.32 187.314 74.26 186.974 74.28C186.634 74.3 186.304 74.39 185.984 74.55C185.664 74.71 185.414 74.94 185.234 75.24C185.034 75.58 184.904 76.21 184.844 77.13C184.784 78.03 184.764 79.07 184.784 80.25C184.824 81.41 184.894 82.61 184.994 83.85C185.094 85.09 185.204 86.21 185.324 87.21C185.424 88.01 185.394 88.59 185.234 88.95C185.074 89.31 184.824 89.57 184.484 89.73C184.104 89.91 183.694 90 183.254 90C182.814 90 182.394 89.95 181.994 89.85C181.414 89.71 181.004 89.45 180.764 89.07C180.544 88.67 180.444 88.15 180.464 87.51C180.464 87.33 180.484 87 180.524 86.52C180.584 86.04 180.644 85.51 180.704 84.93C180.784 84.35 180.854 83.75 180.914 83.13C180.974 82.51 181.014 81.97 181.034 81.51C181.034 80.49 181.024 79.62 181.004 78.9C181.004 78.16 180.994 77.53 180.974 77.01C180.954 76.47 180.924 76.02 180.884 75.66C180.864 75.3 180.844 74.97 180.824 74.67C180.764 74.09 180.704 73.5 180.644 72.9C180.604 72.28 180.604 71.8 180.644 71.46C180.684 70.96 180.934 70.58 181.394 70.32C181.874 70.06 182.424 69.9 183.044 69.84C183.424 69.78 183.864 69.77 184.364 69.81C184.864 69.83 185.394 69.86 185.954 69.9C186.534 69.92 187.124 69.94 187.724 69.96C188.344 69.96 188.954 69.92 189.554 69.84C190.114 69.76 190.574 69.74 190.934 69.78C191.314 69.8 191.634 69.86 191.894 69.96C192.154 70.04 192.364 70.15 192.524 70.29C192.684 70.43 192.824 70.57 192.944 70.71ZM204.676 69.93C205.256 70.09 205.826 70.31 206.386 70.59C206.966 70.85 207.466 71.29 207.886 71.91C208.326 72.51 208.626 73.15 208.786 73.83C208.966 74.51 209.066 75.19 209.086 75.87C209.086 76.21 209.076 76.57 209.056 76.95C209.056 77.33 209.026 77.72 208.966 78.12C208.906 78.52 208.806 78.91 208.666 79.29C208.526 79.67 208.336 80.02 208.096 80.34C207.856 80.66 207.586 80.93 207.286 81.15C206.986 81.35 206.686 81.52 206.386 81.66C206.086 81.8 205.786 81.9 205.486 81.96C205.206 82.02 204.946 82.06 204.706 82.08C204.186 82.12 203.706 82.14 203.266 82.14C202.826 82.12 202.426 82.15 202.066 82.23C201.706 82.31 201.436 82.46 201.256 82.68C201.096 82.88 200.986 83.11 200.926 83.37C200.866 83.63 200.836 83.91 200.836 84.21C200.856 84.49 200.866 84.74 200.866 84.96C200.886 85.48 200.916 85.91 200.956 86.25C200.996 86.59 201.026 86.89 201.046 87.15C201.086 87.41 201.116 87.65 201.136 87.87C201.156 88.07 201.146 88.29 201.106 88.53C201.066 88.93 200.886 89.26 200.566 89.52C200.246 89.76 199.696 89.9 198.916 89.94C198.296 89.98 197.846 89.95 197.566 89.85C197.306 89.75 197.116 89.64 196.996 89.52C196.836 89.36 196.696 89.19 196.576 89.01C196.456 88.83 196.366 88.53 196.306 88.11C196.266 87.69 196.266 87.1 196.306 86.34C196.346 85.56 196.456 84.49 196.636 83.13C196.736 81.67 196.786 80.49 196.786 79.59C196.786 78.67 196.766 77.93 196.726 77.37C196.686 76.79 196.626 76.34 196.546 76.02C196.466 75.7 196.396 75.41 196.336 75.15C196.236 74.71 196.156 74.31 196.096 73.95C196.036 73.57 196.026 73.06 196.066 72.42C196.126 71.82 196.246 71.34 196.426 70.98C196.626 70.62 196.876 70.35 197.176 70.17C197.496 69.97 197.866 69.84 198.286 69.78C198.706 69.72 199.166 69.69 199.666 69.69C200.026 69.69 200.426 69.69 200.866 69.69C201.326 69.67 201.776 69.67 202.216 69.69C202.676 69.69 203.116 69.71 203.536 69.75C203.976 69.79 204.356 69.85 204.676 69.93ZM204.466 77.91C204.746 77.65 204.936 77.34 205.036 76.98C205.136 76.6 205.156 76.19 205.096 75.75C205.056 75.35 204.976 74.98 204.856 74.64C204.736 74.3 204.406 74.01 203.866 73.77C203.626 73.65 203.316 73.58 202.936 73.56C202.556 73.52 202.196 73.53 201.856 73.59C201.456 73.65 201.166 73.8 200.986 74.04C200.826 74.26 200.726 74.52 200.686 74.82C200.646 75.12 200.646 75.43 200.686 75.75C200.726 76.07 200.766 76.35 200.806 76.59C200.906 77.27 201.076 77.75 201.316 78.03C201.576 78.29 201.936 78.45 202.396 78.51C202.836 78.55 203.226 78.52 203.566 78.42C203.906 78.3 204.206 78.13 204.466 77.91ZM226.358 72.54C226.298 72.96 226.238 73.76 226.178 74.94C226.138 76.12 226.068 77.79 225.968 79.95C225.908 81.11 225.918 82.24 225.998 83.34C226.078 84.42 226.178 85.53 226.298 86.67C226.378 87.37 226.378 87.94 226.298 88.38C226.218 88.8 226.078 89.14 225.878 89.4C225.678 89.66 225.418 89.84 225.098 89.94C224.778 90.04 224.408 90.09 223.988 90.09C223.128 90.11 222.508 90 222.128 89.76C221.748 89.52 221.518 89.02 221.438 88.26C221.358 87.62 221.328 86.72 221.348 85.56C221.368 84.38 221.518 82.93 221.798 81.21C222.398 77.77 222.278 76.9 221.438 78.6C221.038 79.46 220.628 80.39 220.208 81.39C219.808 82.39 219.388 83.47 218.948 84.63C218.148 86.93 217.538 88.4 217.118 89.04C216.898 89.36 216.608 89.62 216.248 89.82C215.888 90 215.328 90.07 214.568 90.03C213.308 89.99 212.558 89.71 212.318 89.19C212.178 88.93 212.078 88.53 212.018 87.99C211.978 87.45 211.978 86.8 212.018 86.04C212.058 85.28 212.118 84.43 212.198 83.49C212.298 82.53 212.368 81.47 212.408 80.31C212.448 79.15 212.448 77.96 212.408 76.74C212.368 75.5 212.288 74.22 212.168 72.9C212.108 72.24 212.098 71.71 212.138 71.31C212.178 70.91 212.278 70.6 212.438 70.38C212.598 70.14 212.818 69.99 213.098 69.93C213.398 69.85 213.768 69.81 214.208 69.81C215.048 69.81 215.668 69.98 216.068 70.32C216.488 70.66 216.728 71.28 216.788 72.18C216.868 73.1 216.848 74.16 216.728 75.36C216.608 76.54 216.388 78 216.068 79.74C215.728 81.52 215.628 82.56 215.768 82.86C215.928 83.14 216.338 82.55 216.998 81.09C217.638 79.63 218.228 78.33 218.768 77.19C219.328 76.05 219.828 75.05 220.268 74.19C220.708 73.35 221.088 72.66 221.408 72.12C221.728 71.56 221.998 71.15 222.218 70.89C222.438 70.63 222.668 70.42 222.908 70.26C223.148 70.08 223.468 69.95 223.868 69.87C224.288 69.81 224.698 69.8 225.098 69.84C225.518 69.88 225.828 70.01 226.028 70.23C226.228 70.43 226.338 70.76 226.358 71.22C226.398 71.66 226.398 72.1 226.358 72.54ZM239.465 79.56C239.865 79.72 240.255 79.93 240.635 80.19C241.035 80.45 241.405 80.89 241.745 81.51C242.045 82.09 242.225 82.69 242.285 83.31C242.365 83.91 242.365 84.54 242.285 85.2C242.245 85.6 242.185 85.96 242.105 86.28C242.025 86.58 241.915 86.87 241.775 87.15C241.635 87.41 241.455 87.67 241.235 87.93C241.015 88.19 240.745 88.45 240.425 88.71C239.945 89.11 239.335 89.41 238.595 89.61C237.875 89.81 237.145 89.93 236.405 89.97C235.665 90.01 234.965 89.98 234.305 89.88C233.665 89.78 233.165 89.63 232.805 89.43C232.045 88.99 231.365 88.5 230.765 87.96C230.185 87.4 229.795 86.81 229.595 86.19C229.435 85.71 229.385 85.24 229.445 84.78C229.505 84.3 229.725 83.89 230.105 83.55C230.285 83.37 230.515 83.24 230.795 83.16C231.095 83.06 231.395 83.01 231.695 83.01C231.995 83.01 232.275 83.07 232.535 83.19C232.815 83.31 233.045 83.49 233.225 83.73C233.405 83.97 233.615 84.22 233.855 84.48C234.095 84.72 234.365 84.94 234.665 85.14C234.985 85.32 235.335 85.45 235.715 85.53C236.095 85.61 236.515 85.6 236.975 85.5C237.295 85.44 237.545 85.26 237.725 84.96C237.925 84.64 238.035 84.3 238.055 83.94C238.095 83.58 238.045 83.23 237.905 82.89C237.785 82.53 237.575 82.27 237.275 82.11C236.975 81.89 236.625 81.73 236.225 81.63C235.845 81.51 235.425 81.39 234.965 81.27C234.485 81.15 234.095 80.96 233.795 80.7C233.515 80.44 233.365 80.02 233.345 79.44C233.305 78.92 233.345 78.53 233.465 78.27C233.605 78.01 233.935 77.77 234.455 77.55C234.835 77.39 235.185 77.28 235.505 77.22C235.825 77.16 236.155 77.05 236.495 76.89C236.715 76.79 236.915 76.68 237.095 76.56C237.295 76.44 237.455 76.3 237.575 76.14C237.715 75.96 237.805 75.75 237.845 75.51C237.905 75.27 237.905 74.97 237.845 74.61C237.785 74.21 237.575 73.93 237.215 73.77C236.875 73.61 236.505 73.55 236.105 73.59C235.725 73.63 235.385 73.73 235.085 73.89C234.805 74.05 234.535 74.23 234.275 74.43C234.035 74.63 233.785 74.82 233.525 75C233.265 75.18 232.985 75.31 232.685 75.39C232.185 75.49 231.775 75.51 231.455 75.45C231.155 75.37 230.815 75.13 230.435 74.73C230.175 74.41 230.025 74.03 229.985 73.59C229.945 73.15 230.025 72.72 230.225 72.3C230.425 71.9 230.795 71.53 231.335 71.19C231.895 70.85 232.465 70.57 233.045 70.35C233.425 70.19 233.855 70.07 234.335 69.99C234.815 69.89 235.285 69.82 235.745 69.78C236.225 69.74 236.675 69.73 237.095 69.75C237.515 69.77 237.875 69.81 238.175 69.87C238.675 70.01 239.175 70.2 239.675 70.44C240.195 70.66 240.645 71.04 241.025 71.58C241.385 72.1 241.615 72.63 241.715 73.17C241.835 73.69 241.895 74.21 241.895 74.73C241.895 75.23 241.805 75.74 241.625 76.26C241.465 76.78 241.235 77.2 240.935 77.52C240.655 77.8 240.385 78.01 240.125 78.15C239.885 78.27 239.565 78.41 239.165 78.57C238.425 78.83 238.525 79.16 239.465 79.56Z" fill="#FFB620"/>
</svg>
