<svg width="179" height="124" viewBox="0 0 179 124" fill="none" xmlns="http://www.w3.org/2000/svg">
<g opacity="0.5">
<path d="M173.637 60.2785C172.578 59.3755 170.165 59.1701 168.8 59.8685C167.576 60.4946 166.33 61.0832 165.115 61.73C162.414 63.1638 159.971 62.2976 157.777 60.701C156.888 60.0548 156.429 58.8201 155.872 58C156.594 56.9486 157.106 56.2035 157.475 55.6665C156.682 52.2703 153.969 50.7776 151.864 48.7529C152.258 48.0462 152.519 47.4896 152.862 46.9833C153.804 45.5855 153.631 44.3626 153.177 42.6817C152.614 40.5857 151.298 38.8697 150.867 36.7733C150.465 34.8207 149.848 34.3409 148.098 34.8289C145.561 35.5323 143.085 36.4552 140.568 37.2353C136.276 38.5663 132.052 40.3443 127.658 41.0633C120.915 42.1704 114.239 43.4824 107.594 45.0343C106.093 45.3875 104.48 45.7501 102.994 45.5529C99.695 45.111 96.5121 45.1693 93.3641 46.33C92.8105 46.533 92.1141 46.5197 91.5201 46.4088C88.9528 45.938 86.5693 46.6464 84.2484 47.5493C82.3144 48.3022 80.3532 48.4727 78.3144 48.4393C74.9043 48.381 71.5273 48.4626 68.1697 49.3769C66.5904 49.808 64.7246 49.8386 63.1438 49.439C60.9584 48.8865 58.8381 48.9454 56.6819 49.1286C53.2939 49.4215 49.9113 49.8209 46.5272 50.1598C45.9119 50.2217 45.2297 50.3784 44.6758 50.1927C41.8144 49.2294 38.8826 49.2633 35.9244 49.3635C35.1704 49.387 34.4055 49.1084 33.6419 48.9724C31.977 48.676 30.3071 48.4051 28.6496 48.0689C28.258 47.991 27.9121 47.6917 27.0611 47.2349C29.1897 46.0343 30.9168 45.5374 33.0111 45.8515C35.1381 46.1735 37.3188 46.1559 39.4756 46.2793C40.4037 46.334 41.3775 46.2101 42.2527 46.4438C46.2564 47.5081 50.3378 47.0647 54.2897 46.6072C58.9161 46.0721 63.4597 45.0554 68.1545 45.8126C68.892 45.933 69.6876 45.6385 70.4607 45.5884C72.0067 45.4846 73.5866 45.189 75.0972 45.3876C78.0492 45.7693 80.9739 45.4366 83.9077 45.4703C92.4945 45.5645 100.746 43.2157 109.193 42.3125C112.704 40.5474 116.489 39.7936 120.337 39.2555C120.789 39.193 121.205 38.9265 121.649 38.7825C123.559 38.1635 125.474 37.5619 127.387 36.9462C131.515 35.611 135.858 34.7038 139.719 32.8169C143.635 30.904 147.819 30.9228 151.839 29.914C152.154 29.8344 152.593 30.2363 153.146 30.4969C152.609 31.5792 152.106 32.5197 151.692 33.4955C151.615 33.6802 151.818 34.1126 152.019 34.2563C152.209 34.3903 152.737 34.3962 152.812 34.2722C153.46 33.2306 154.088 32.1692 154.624 31.0691C155.135 30.0174 156.907 29.8841 156.658 28.3004C154.078 26.9499 151.727 25.1811 148.707 24.9691C148.319 24.9407 147.778 24.5615 147.624 24.2071C146.818 22.3701 144.154 22.7524 143.517 20.6661C143.408 20.3043 142.461 19.9803 141.922 20.0145C140.695 20.0918 139.449 20.2918 138.266 20.6329C134.09 21.8328 129.95 23.1582 125.77 24.3372C124.446 24.7113 123.03 25.004 121.674 24.9458C119.756 24.8631 117.996 25.1914 116.229 25.8878C113.885 26.8139 111.462 26.916 108.951 26.0589C115.054 24.8446 120.511 21.9441 126.273 19.8881C129.736 18.6548 133.509 18.2799 137.162 17.6191C137.875 17.4884 138.675 17.8033 139.429 17.9508C142.217 18.4995 142.438 18.3741 143.246 15.5755C143.498 14.7059 143.714 13.8251 143.896 13.1396C143.027 11.5788 141.723 11.5876 140.496 11.5828C137.86 11.5742 135.198 11.9243 132.59 11.6566C127.303 11.1128 122.045 11.4189 116.776 11.6544C115.071 11.7287 113.37 11.9024 111.663 11.9947C110.229 12.0714 108.782 11.9565 107.867 10.6885C106.445 8.72459 104.662 8.46662 102.531 9.24674C102.105 9.40342 101.615 9.42288 101.152 9.43643C99.3814 9.49479 97.7117 9.65525 97.0173 11.7206C96.8975 12.08 96.3896 12.4467 95.9915 12.5476C93.7713 13.1176 91.6061 14.0931 88.8447 13.6884C88.2437 11.9093 87.8336 10.4103 87.2272 8.99527C86.5492 7.40441 85.0655 6.75781 83.3926 7.2644C80.4086 8.16902 77.4789 9.16895 75.6436 12.0068C74.7338 13.4125 73.2896 14.139 71.6778 14.0949C68.4717 14.0018 65.6081 15.2387 62.6382 16.0994C56.6709 17.8301 50.6335 19.2779 44.4166 19.6388C41.2263 19.8225 38.3085 20.5362 35.6505 22.3158C35.0122 22.7433 34.2845 23.0393 33.5887 23.3754C30.7401 24.7501 29.6263 27.3031 30.445 30.5403C30.5926 31.1128 30.6389 31.7115 30.6994 32.0951C29.2884 34.2486 26.8634 33.6448 25.1088 34.7109C24.8712 35.9252 24.6415 37.1067 24.4544 38.0707C23.1362 38.9828 22.0473 39.7367 21.1741 40.3407C21.1442 42.2936 23.4267 42.4708 23.2124 44.3071C22.721 44.6155 22.1999 44.9085 21.7118 45.2558C21.2405 45.591 20.8059 45.9802 20.4886 46.2384C20.6045 48.0579 22.8088 47.9385 23.0528 49.4122C21.9329 50.0082 21.0113 50.5022 19.8811 51.1026C20.6262 52.342 21.2382 53.3536 22.0906 54.7695C21.251 55.606 20.3315 56.4243 19.5498 57.3559C19.3388 57.6052 19.5382 58.2019 19.5459 58.5079C20.6657 59.6662 22.4859 58.4877 23.3994 59.9519C21.771 63.0471 20.8183 66.2071 21.6892 69.686C21.9353 70.671 21.5567 71.4763 20.9142 72.2394C20.5382 72.6914 20.3499 73.299 20.041 73.9131C20.5402 74.9412 21.1306 75.8655 21.4469 76.8803C21.778 77.9438 22.9247 78.7825 22.6133 80.3952C20.4264 79.7394 18.5033 79.1686 16.5829 78.5869C15.5477 78.2737 14.5391 77.8086 13.4833 77.6327C9.99007 77.0465 7.41592 78.5053 6.00614 81.7427C5.47611 82.9564 5.7089 83.9532 6.82549 84.5163C8.75711 85.4893 10.656 86.5399 12.9863 86.3494C14.2044 86.2479 15.4822 86.3911 16.6873 86.6473C20.959 87.5466 22.2895 89.7356 21.2697 94.0173C21.1275 94.6211 20.9132 95.2166 20.8244 95.8195C20.0168 101.235 22.6533 103.907 26.891 105.811C31.6159 107.914 34.6055 106.649 39.7296 108.835C40.451 112.701 43.5653 114.431 47.0317 114.909C82.0017 119.723 118.761 115.236 146.076 104.77C150.626 103.026 153.682 100.2 154.646 95.3347C154.824 94.4321 155.028 93.538 155.21 92.6849C157.235 91.6105 159.096 90.4928 161.063 89.623C162.59 88.9467 163.302 87.6536 164.36 86.4816C170.043 80.1819 162.838 71.7252 169.768 69.7325C172.135 69.0468 176.896 63.0593 173.637 60.2785ZM45.9573 44.8159C45.901 44.8242 45.8222 44.6489 45.754 44.5583C46.0052 44.4911 46.2548 44.4061 46.5121 44.3704C46.5649 44.3624 46.6437 44.5377 46.7119 44.6283C46.4605 44.692 46.2147 44.7803 45.9573 44.8159ZM52.0563 42.5679C46.4101 42.5889 40.7662 42.5099 34.5011 42.4648C35.2985 41.8065 35.5798 41.373 35.9049 41.3388C37.4376 41.1612 38.981 41.0683 40.5219 40.9899C41.7613 40.9294 43.0901 41.2146 44.2262 40.8561C47.7906 39.7284 51.2673 40.6725 54.7798 40.9754C54.884 40.9846 54.971 41.1734 55.614 41.8723C54.1273 42.1744 53.0936 42.5636 52.0563 42.5679ZM57.532 43.9232C57.406 43.9515 57.251 43.8468 57.1082 43.8016C57.2393 43.6196 57.3553 43.2997 57.5072 43.2835C57.9277 43.2377 58.3618 43.3121 59.4123 43.3815C58.3857 43.6845 57.9625 43.8267 57.532 43.9232ZM66.4102 41.2226C65.5208 41.4179 64.5844 41.3925 62.9024 41.5326C67.703 39.7921 71.8119 38.6939 76.1533 38.6747C76.9161 38.6717 77.7108 38.5378 78.4394 38.2953C80.7051 37.5432 82.982 37.6103 85.3253 37.7895C86.922 37.9097 88.5527 37.5813 90.1725 37.4214C90.22 37.3925 90.271 37.3633 90.3185 37.3344C90.3829 37.3361 90.4472 37.3379 90.5115 37.3397C90.9022 37.1503 91.2932 36.9644 91.684 36.7749C91.7288 36.9709 91.7772 37.1665 91.822 37.3625C91.3862 37.3524 90.9471 37.3462 90.5115 37.3397C90.4705 37.3609 90.426 37.3825 90.3846 37.4002C90.3138 37.4061 90.2433 37.4155 90.1725 37.4214C86.4082 39.7032 82.2512 40.5664 77.9314 40.4591C74.0548 40.3648 70.2157 40.378 66.4102 41.2226ZM148.635 27.6992C149.121 28.7855 148.339 29.0681 147.628 29.2664C144.052 30.2631 140.456 31.1795 136.886 32.2006C135.249 32.6686 133.688 33.3941 132.05 33.855C126.845 35.3226 121.624 36.7237 116.408 38.1387C115.962 38.2615 115.427 38.1847 115.042 38.3986C110.712 40.7739 105.698 40.4249 101.142 41.8955C100.264 42.179 99.326 42.3498 98.4053 42.4265C92.2231 42.9486 86.0345 43.4355 79.8485 43.9115C79.0797 43.9719 78.2517 44.0481 77.5385 43.8329C74.77 43.0009 72.015 43.2304 69.2406 43.6968C68.9839 43.7396 68.6852 43.5362 68.1325 43.3648C70.0645 42.1591 71.9404 41.8638 73.9848 42.1785C77.5681 42.7322 81.0909 42.3461 84.5559 41.3515C88.7247 40.1592 92.8837 38.9357 97.0619 37.7711C97.9437 37.5265 98.9068 37.2751 99.7895 37.3835C102.004 37.6483 104.12 37.3615 106.226 36.744C106.671 36.6142 107.135 36.4009 107.579 36.428C114.503 36.8426 121.012 34.5961 127.675 33.3422C130.118 32.882 132.397 31.9399 134.741 31.1491C139.249 29.6184 143.8 28.0484 148.635 27.6992ZM130.948 25.1182C131.062 25.0731 131.199 25.0937 131.327 25.0867C131.324 25.1867 131.35 25.3593 131.308 25.377C131.198 25.429 131.058 25.4121 130.927 25.423C130.935 25.3082 130.91 25.1321 130.948 25.1182ZM127.274 26.3049C127.331 26.2966 127.411 26.4433 127.481 26.5194C127.234 26.5864 126.987 26.6711 126.734 26.71C126.678 26.7183 126.598 26.5716 126.527 26.4955C126.774 26.425 127.021 26.3403 127.274 26.3049ZM124.604 29.4333C127.958 28.2661 131.465 27.4748 134.723 26.0874C137.546 24.886 140.388 24.6742 143.331 24.7251C143.559 24.7275 143.787 25.0615 144.592 25.6969C143.092 26.4422 142.052 27.1386 140.908 27.4906C135.002 29.316 129.13 31.2849 123.133 32.7542C116.997 34.2601 103.488 35.642 99.6857 35.6235C99.3812 34.7504 100.122 34.4355 100.611 34.4447C105.209 34.5146 109.198 31.9716 113.671 31.4814C117.356 31.0782 121.052 30.6705 124.604 29.4333ZM104.2 11.6928C105.753 11.756 112.329 17.9402 103.394 17.1691C102.841 17.1224 100.026 17.2285 98.9935 12.5008C100.038 10.4028 103.202 10.585 104.2 11.6928ZM82.8109 9.69828C84.2096 9.58178 86.6095 11.0399 86.7984 15.9198C84.9962 18.6836 76.6675 20.0619 74.1984 16.1028C75.545 14.2471 80.24 9.91241 82.8109 9.69828ZM41.2566 22.0271C41.9958 21.8265 42.7914 21.7888 43.5616 21.746C50.5836 21.3751 57.3695 19.7972 64.0599 17.7567C66.5741 16.991 69.0747 16.1481 71.6827 16.5941C73.2262 19.8422 73.415 20.0547 76.342 20.3921C77.5587 20.5296 78.8252 20.4954 80.0377 20.3267C82.1875 20.0229 84.3125 19.5499 86.448 19.1617C87.572 18.9575 88.3178 18.3641 89.0381 17.4234C90.9646 14.9096 93.9447 15.2426 96.6356 15.1433C97.7339 15.1017 98.453 16.2435 98.6778 17.4014C98.9374 18.7205 98.7615 20.247 100.616 20.9376C101.216 20.3492 101.849 19.7295 102.677 18.9189C103.27 19.0228 104.04 19.0656 104.747 19.2955C108.805 20.6157 109.122 20.8352 111.247 17.5312C113.289 14.3517 115.817 13.7026 119.35 13.4903C125.275 13.1323 131.071 13.8405 137.545 14.1642C136.643 14.8989 136.261 15.4014 135.765 15.5746C134.598 15.9821 133.392 16.3642 132.171 16.5193C127.648 17.0887 123.495 18.8109 119.324 20.4954C114.253 22.5437 109.02 23.8389 103.555 24.3333C101.581 24.512 99.566 25.0257 97.7279 25.7742C94.7893 26.9675 91.7959 27.4592 88.6608 27.5777C86.5105 27.6606 84.3693 28.0671 82.2278 28.3417C81.9209 28.3816 81.6167 28.5816 81.3255 28.5524C78.037 28.2415 74.8827 29.1995 71.6636 29.5069C66.732 29.9747 61.7816 30.3015 56.8299 30.4429C55.0299 30.493 52.9852 30.2603 51.4369 29.4373C46.6094 26.8727 41.5908 25.868 36.1936 26.4816C35.9746 26.507 35.72 26.1894 35.2219 25.8601C36.6694 23.6322 38.8678 22.6718 41.2566 22.0271ZM105.116 26.9346C103.02 29.1665 101.427 29.3884 98.5139 27.8482C100.573 26.2005 102.756 26.2932 105.116 26.9346ZM85.1076 29.9525C85.0598 30.0634 85.0415 30.229 84.9597 30.275C84.8405 30.342 84.6747 30.3201 84.5298 30.3358C84.5894 30.1525 84.6493 29.9728 84.7089 29.7896C84.842 29.8462 84.9748 29.8993 85.1076 29.9525ZM67.7845 32.0799C67.6898 32.1841 67.6107 32.3476 67.4956 32.3785C67.3841 32.4092 67.2365 32.3074 67.1011 32.2652C67.2029 32.1605 67.3044 32.0522 67.4062 31.9474C67.531 31.9905 67.6597 32.0368 67.7845 32.0799ZM47.9173 30.7609C44.7967 32.0798 42.1168 30.2991 39.1632 29.8997C39.3554 29.3382 39.4165 28.8731 39.5363 28.856C42.5049 28.4519 45.3029 28.9962 47.9173 30.7609ZM36.4503 32.5183C38.2855 32.5473 40.1788 32.4609 41.9399 32.8847C44.9996 33.6175 48.0523 33.7947 51.1116 33.2796C53.5272 32.8716 55.6577 33.3645 58.2509 34.8743C53.2964 34.9375 48.8664 35.0926 44.4419 35.0118C41.6778 34.9604 38.9181 34.5769 36.1655 34.2785C35.7949 34.238 35.4674 33.816 34.7438 33.3058C35.5187 32.9346 35.9897 32.5103 36.4503 32.5183ZM33.0201 35.4283C37.3505 36.9039 41.8958 36.807 46.338 37.4426C47.5396 37.6135 48.8085 37.3937 50.0402 37.284C50.9641 37.2034 51.9507 36.7183 52.7872 36.9161C58.1227 38.1725 63.2801 36.3488 68.4489 35.8184C73.7909 35.2701 79.2979 35.1181 84.4813 33.2637C86.3822 32.5847 88.3608 32.2809 90.4333 32.4613C91.6399 32.564 92.9138 32.3188 94.1133 32.0371C98.4881 31.0059 103.018 30.6429 107.233 28.9297C107.923 28.6477 108.761 28.7454 109.525 28.6212C112.272 28.1748 115.019 27.7108 117.769 27.2535C118.937 27.06 120.152 26.4132 121.19 27.5248C121.321 28.4659 120.56 28.5756 120.046 28.6933C118.237 29.1043 116.417 29.5162 114.58 29.7227C111.793 30.0333 109.131 30.8718 106.425 31.4288C102.337 32.2685 98.4033 33.6266 94.3478 34.4672C90.2817 35.3086 86.1873 36.4947 81.9327 35.7579C76.8205 37.0965 71.442 36.564 66.3215 38.1885C63.7368 39.0064 60.7953 38.795 58.0079 38.8489C55.9965 38.888 53.9445 38.7808 51.9768 38.4027C49.4769 37.9264 47.0666 37.8419 44.6205 38.6125C43.8943 38.8406 43.0796 38.9477 42.3221 38.886C39.5075 38.6569 36.7552 38.961 33.989 39.4837C32.0898 39.8416 30.2363 39.7214 29.1882 37.6693C30.7597 35.1744 31.1817 34.8041 33.0201 35.4283ZM157.181 63.3108C156.67 63.8062 156.329 64.3374 155.848 64.5628C153.185 65.8009 150.517 67.0428 147.792 68.1398C143.197 69.9916 138.553 71.7262 133.939 73.5296C131.629 74.4352 129.261 75.0745 126.856 75.6956C120.685 77.2865 114.209 76.9843 108.11 78.8936C107.669 79.0302 107.181 79.1706 106.739 79.1184C100.483 78.4128 94.5002 80.7332 88.3121 80.7565C87.7134 80.76 87.1144 80.76 86.4655 80.7606C86.5555 80.4286 86.5596 80.1787 86.636 80.1545C90.7662 78.8834 94.8757 77.5356 99.0427 76.4076C101.574 75.7225 104.193 75.3547 106.779 74.8897C107.53 74.7558 108.31 74.7408 109.079 74.7302C110.931 74.6972 112.782 74.7035 114.634 74.6847C115.101 74.6815 115.601 74.515 116.021 74.6369C120.537 75.9402 124.502 74.1908 128.505 72.506C130.214 71.7861 131.953 71.0957 133.743 70.6186C140.352 68.8486 146.54 65.9514 152.907 63.5419C154.159 63.0704 155.477 62.4222 157.181 63.3108ZM80.7435 78.0744C79.6106 77.83 78.3296 78.3325 77.1103 78.4198C76.2599 78.4835 75.3991 78.4233 73.7616 78.4135C75.1702 77.0018 76.293 76.5695 77.3665 76.1877C82.8925 74.2085 88.5252 72.6126 94.3439 71.75C97.7427 71.2459 101.061 71.3974 104.578 73.4756C103.295 73.9462 102.466 74.4788 101.61 74.5215C97.3811 74.7382 93.4844 76.3714 89.4286 77.294C86.5553 77.9434 83.7678 78.7246 80.7435 78.0744ZM81.8892 80.6996C80.6513 80.9061 79.8528 81.0368 78.344 81.2873C79.6419 79.6174 80.4882 79.5897 81.8892 80.6996ZM74.2532 80.5904C74.1579 80.6446 74.0596 80.7491 73.9666 80.7461C73.8737 80.7432 73.786 80.6328 73.6951 80.5691C73.794 80.5145 73.8929 80.4171 73.9891 80.4162C74.0817 80.4157 74.1658 80.5263 74.2532 80.5904ZM150.949 62.7673C145.464 64.4614 140.49 67.4573 134.824 68.7492C131.224 69.5697 127.813 71.2194 124.289 72.4044C121.157 73.4568 117.967 73.9043 113.909 72.349C115.285 71.7958 115.956 71.4582 116.666 71.2493C121.571 69.8175 126.426 68.2614 131.409 67.0476C137.854 65.4768 144.117 63.1509 150.463 61.1676C151.162 60.9489 151.895 60.8522 152.655 60.689C152.775 62.2123 151.686 62.5419 150.949 62.7673ZM38.7409 58.0073C42.5481 59.2377 46.5787 59.8969 50.6539 59.6787C54.5199 59.4743 58.4098 59.3429 62.2587 59.2327C66.3888 59.1169 70.5602 58.6839 74.7808 59.2701C79.2322 59.887 83.7407 58.8341 88.16 57.9097C90.2451 57.4722 92.3205 56.6611 95.0657 57.4701C94.2727 58.0531 93.8876 58.5238 93.4128 58.6453C92.2151 58.9483 90.9662 59.3233 89.756 59.2637C84.3751 59.0023 79.3251 60.6174 74.1929 61.8008C73.4372 61.9743 72.6891 62.3254 71.9339 62.3348C66.0575 62.4178 60.1507 63.1629 54.318 62.0156C51.8239 61.5245 49.4561 61.1798 47.0018 62.108C45.367 62.7291 43.6805 62.6449 41.9678 62.16C38.1081 61.0695 34.2209 60.0775 30.1957 59.0115C33.0254 57.1962 35.6408 57.0033 38.7409 58.0073ZM29.86 55.0673C30.6712 54.9605 31.4827 54.8573 32.2904 54.7508C32.3137 54.9877 32.337 55.2247 32.3603 55.4616C31.5494 55.5292 30.7385 55.5967 29.924 55.6646C29.904 55.4666 29.8836 55.265 29.86 55.0673ZM96.7901 59.5514C98.2662 59.079 100.05 58.7522 101.901 59.8709C101.371 60.3144 101.108 60.7001 100.76 60.8039C96.5864 62.0715 92.3562 62.9123 87.9508 62.8905C85.7893 62.8816 83.6298 63.3253 81.4606 63.481C80.454 63.5542 79.4342 63.4252 77.3134 63.3487C78.8154 62.5889 79.2897 62.2035 79.8132 62.11C81.3382 61.8403 82.8809 61.612 84.4234 61.5085C88.6033 61.221 92.7438 60.844 96.7901 59.5514ZM76.4894 65.6137C79.7035 65.1178 82.9413 64.7769 86.1728 64.4043C87.2428 64.2795 88.3412 64.1524 89.4073 64.2383C92.5562 64.5002 95.5611 64.0181 98.5643 63.0442C101.356 62.1378 104.192 61.1777 107.226 61.8521C114.064 60.3483 121.209 61.832 127.988 59.7056C130.351 58.9633 132.885 58.6523 135.111 57.6326C137.388 56.5907 139.777 56.0316 142.098 55.2108C145.086 54.1489 145.663 54.1365 150.06 54.8328C149.902 55.0707 149.797 55.436 149.576 55.5257C147.288 56.4758 144.982 57.3952 142.672 58.2972C139.357 59.5931 135.716 59.9284 132.576 61.7517C132.189 61.9765 131.691 62.0429 131.237 62.1057C126.348 62.791 121.467 63.5577 116.563 64.1052C111.013 64.7279 105.444 65.1632 99.8803 65.6587C94.9431 66.102 89.9721 66.3093 85.0667 67.0067C80.4819 67.656 75.9596 68.7564 71.4296 69.7649C69.2766 70.2437 67.1626 70.4626 64.9716 70.1423C62.6545 69.8076 60.372 69.716 58.1366 70.79C56.7653 71.4498 55.2202 71.4786 53.4837 71.0492C54.5053 69.6591 55.8129 69.6892 56.9979 69.6191C59.6662 69.461 62.098 68.5204 64.6288 67.7819C68.4688 66.6669 72.5148 66.2265 76.4894 65.6137ZM126.132 58.2271C130.946 54.3389 140.723 51.5493 149.728 51.7477C148.359 52.1755 147.877 52.4617 147.401 52.4478C145.497 52.4032 143.731 52.8142 142.039 53.6967C141.223 54.1248 140.328 54.4276 139.446 54.7079C136.208 55.737 132.98 56.7903 129.712 57.7079C128.597 58.0254 127.471 58.7182 126.132 58.2271ZM148.852 49.4031C143.386 49.4483 138.265 51.3618 133.081 52.9061C129.981 53.831 126.836 54.9095 124.041 56.4937C120.438 58.5338 116.743 58.9057 112.823 58.462C111.329 58.2905 109.714 58.5 108.028 57.1C109.672 55.683 111.366 55.5668 113.046 55.3093C117.93 54.5709 122.75 53.6239 127.453 51.9984C130.5 50.946 133.754 50.5002 136.894 49.7145C138.843 49.2277 140.775 48.6603 142.68 48.0345C145.418 47.1326 148.128 46.1438 151.076 45.1138C151.192 47.1473 149.708 47.9947 148.852 49.4031ZM146.802 36.7375C147.035 36.8357 147.272 36.9337 147.504 37.032C147.313 37.2191 147.145 37.5077 146.921 37.5584C146.728 37.603 146.477 37.3707 146.251 37.2612C146.436 37.0889 146.617 36.9133 146.802 36.7375ZM141.881 38.702C142.129 38.6314 142.376 38.5645 142.425 38.5497C142.394 38.563 142.174 38.6598 141.954 38.7566C141.79 38.8914 141.627 39.0263 141.563 39.0779C141.612 39.0168 141.741 38.8563 141.881 38.702ZM87.8284 48.4491C91.7153 48.3679 95.4928 46.8445 99.2434 47.2666C104.7 47.8818 109.623 46.2416 114.734 45.0993C118.798 44.1903 122.92 43.5474 127.033 42.8804C129.939 42.4101 132.864 42.0916 135.52 40.6652C135.875 40.4752 136.382 40.572 137.182 40.5054C136.664 41.0905 136.452 41.5396 136.114 41.6748C132.545 43.0987 129.152 45.0786 125.133 45.1139C124.388 45.1224 123.589 45.3779 122.919 45.7225C120.095 47.1737 117.063 47.551 113.949 47.8317C110.417 48.1509 106.924 48.8554 103.4 49.2631C101.26 49.5126 99.0925 49.522 96.9375 49.6337C96.3199 49.6673 95.6975 49.6443 95.0822 49.7062C90.4729 50.19 85.8689 50.6947 81.259 51.1713C81.022 51.1946 80.7659 51.0306 80.1692 50.8449C82.9139 49.9353 85.3579 48.498 87.8284 48.4491ZM47.273 54.191C51.7912 54.1107 56.2456 53.6933 60.6091 52.442C61.3439 52.231 62.1619 52.0773 62.9079 52.1721C67.9677 52.8168 73.108 51.9857 78.143 53.0176C78.7453 53.1421 79.3786 53.2962 79.9797 53.2354C84.2803 52.8131 88.586 52.4081 92.8716 51.8479C94.7059 51.6096 96.4611 51.1496 98.3801 51.3713C99.8526 51.541 101.405 50.9946 102.925 50.8002C106.15 50.3925 109.37 49.9639 112.6 49.6199C116.308 49.2256 120.022 48.9162 123.39 47.0989C129.264 46.681 134.289 43.745 139.574 41.6041C143.047 40.1987 146.608 39.9271 150.598 39.798C150.051 42.3502 148.981 43.969 146.811 44.9306C143.104 46.5765 139.267 47.7234 135.262 48.3565C133.583 48.6211 131.864 48.832 130.256 49.351C124.2 51.296 118.069 52.9084 111.763 53.8223C111.154 53.9122 110.54 54.0846 109.976 54.3242C105.216 56.3394 100.223 55.7747 95.2983 55.511C93.7402 55.4268 92.2775 55.3739 90.7253 55.6601C87.3713 56.2746 83.988 56.7525 80.5957 57.1206C77.8357 57.4183 75.06 57.8705 72.2759 57.0648C71.4101 56.816 70.4322 56.8903 69.5079 56.9245C63.4872 57.1586 57.4709 57.4457 51.4496 57.6727C46.7328 57.8516 45.6151 57.6167 41.439 55.7253C43.2996 54.4328 45.3077 54.2264 47.273 54.191ZM31.073 50.3666C34.4252 51.2711 37.7848 51.2802 41.1772 51.3399C41.7414 51.35 42.2967 51.7673 42.8246 51.9836C42.7222 53.1509 41.9066 53.2902 41.1741 53.3583C40.254 53.4421 39.3127 53.442 38.3953 53.3437C35.0133 52.98 31.641 52.6048 28.2339 53.0526C27.8352 53.1037 27.3893 52.8021 26.4141 52.4804C27.7314 50.4024 29.5702 49.9604 31.073 50.3666ZM33.0564 61.7648C35.6134 62.4111 38.1656 63.0864 40.698 63.824C43.1428 64.5367 45.5563 64.7885 48.0095 63.8889C49.5112 63.3395 51.0539 63.3679 52.5984 63.7599C56.1026 64.6482 59.6419 64.8455 63.2269 64.3508C63.7979 64.2711 64.4034 64.4346 66.1091 64.5778C61.0115 67.8478 56.2022 67.685 51.6513 68.1425C47.6873 68.5404 43.4755 68.6166 39.6476 67.6946C35.0885 66.5982 30.5811 64.8377 26.2339 62.3473C28.9048 61.1514 30.1717 61.0352 33.0564 61.7648ZM26.9535 66.149C28.1787 66.2181 29.426 66.2532 30.617 66.5106C31.6664 66.737 32.6685 67.2098 33.6756 67.6144C37.8395 69.275 41.9436 71.201 46.6494 69.9925C47.0962 69.8768 47.6799 70.2917 48.2004 70.4623C45.4761 71.5307 42.8303 72.3858 40.0712 71.5388C37.5574 70.7676 35.0943 69.8353 32.6002 69.0019C30.5904 68.3313 28.5661 67.7012 26.5294 67.0508C26.7286 66.617 26.8532 66.1431 26.9535 66.149ZM31.0164 70.2784C32.0235 70.683 33.0463 71.0613 34.0295 71.5214C38.3705 73.5524 42.8697 74.1868 47.616 73.335C49.2741 73.0365 51.0051 72.9707 52.6913 73.0514C54.882 73.1541 56.9851 72.9754 59.1484 72.5349C61.3994 72.0765 63.7619 71.9296 66.0598 72.0342C67.9604 72.1219 69.6985 71.8844 71.5364 71.4318C76.7943 70.131 82.1075 69.0645 87.4085 67.9384C88.1619 67.7793 88.9542 67.7026 89.7235 67.7348C96.4037 68.0128 103.014 66.9738 109.655 66.6096C112.427 66.4572 115.164 65.7621 117.935 65.4243C121.927 64.9349 125.931 64.5479 129.927 64.101C130.693 64.0158 131.61 64.1035 132.187 63.7131C136.645 60.6854 142.255 60.7886 146.892 58.2345C147.901 57.6798 149.255 57.7489 151.207 57.3901C150.489 58.4341 150.294 59.0529 149.893 59.2433C147.649 60.3037 145.427 61.4978 143.068 62.1971C138.165 63.6467 133.166 64.7584 128.233 66.1176C124.051 67.2718 119.814 68.3343 115.775 69.883C111.048 71.6923 106.315 71.3734 101.575 70.5915C98.1477 70.0283 94.8258 69.5313 91.5116 70.9234C91.3703 70.9815 91.2142 71.0337 91.0613 71.0393C85.0344 71.2418 79.7126 74.0455 74.0613 75.6323C70.1312 76.7369 66.1852 77.0941 62.1222 76.4733C60.143 76.1711 58.1149 76.094 56.108 76.1007C53.7803 76.1091 51.4494 76.2498 49.132 76.4678C44.3911 76.9126 39.8677 75.9451 35.4119 74.5048C33.0521 73.7422 30.7174 72.8955 28.395 72.0264C27.8542 71.8254 27.4039 71.3851 26.4298 70.7352C28.314 69.6833 29.6552 69.7321 31.0164 70.2784ZM61.973 80.761C61.7207 80.8569 61.4645 81.0351 61.2205 81.0162C61.0446 81.0023 60.89 80.73 60.7271 80.5724C60.9797 80.48 61.2291 80.3915 61.4817 80.2991C61.6443 80.4532 61.8068 80.6072 61.973 80.761ZM56.158 77.9007C49.1867 80.3355 49.1867 80.3355 46.1474 79.3763C46.1249 79.2356 46.0426 79.0606 46.0951 78.9635C46.1601 78.844 46.3359 78.7295 46.474 78.718C49.7023 78.4348 52.9321 78.1694 56.158 77.9007ZM42.4602 78.603C41.096 79.305 40.1154 78.9196 38.9519 77.7935C40.5289 77.2913 41.534 77.4999 42.4602 78.603ZM25.8764 73.2523C28.8836 74.2106 32.2105 74.4256 34.6711 76.7416C34.7287 76.7475 34.7894 76.7496 34.847 76.7555C34.8942 76.8086 34.9453 76.8649 34.9925 76.9181C35.2277 77.0019 35.4628 77.0857 35.6945 77.1698C35.5847 77.2217 35.4168 77.3463 35.3787 77.3173C35.2368 77.1972 35.1149 77.0612 34.9889 76.9183C34.919 76.8921 34.8494 76.8694 34.7794 76.8431C34.7443 76.8068 34.7027 76.7782 34.6676 76.7419C32.259 76.5503 29.8423 76.4306 27.4524 76.1198C26.2735 75.9648 24.9792 75.7517 24.2894 74.5327C24.4116 73.5598 25.0997 73.0032 25.8764 73.2523ZM37.7682 80.0635C36.9222 80.5654 36.7032 80.8048 36.4822 80.8053C33.5458 80.8253 30.6043 80.8706 27.6691 80.7763C26.8109 80.748 26.3816 80.0456 26.6363 78.9939C30.4147 77.0961 33.6332 79.8624 37.7682 80.0635ZM151.975 96.0635C150.893 98.6104 149.301 100.683 146.451 101.954C121.766 112.963 77.1718 117.045 51.0872 113.213C48.9392 112.896 45.3394 112.957 44.418 110.884C43.6502 109.158 45.4969 108.983 46.1549 108.835C46.7534 108.7 47.3808 108.569 47.9854 108.594C50.6229 108.709 53.2581 108.839 55.8855 109.048C63.2976 109.636 87.0429 109.655 101.025 107.866C121.509 105.247 143.637 98.7833 147.35 96.2669C148.244 95.6611 149.235 95.1793 150.23 94.7577C150.588 94.6066 151.205 94.6515 151.499 94.8766C151.807 95.1077 152.101 95.7714 151.975 96.0635ZM164.432 74.117C165.179 76.9714 164.747 83.5933 160.178 86.7122C156.471 89.2067 150.194 93.0028 142.009 96.316C133.661 99.6926 106.902 105.779 98.0523 106.042C80.9122 108.14 61.6531 107.787 61.0358 107.738C54.2349 107.21 47.4171 106.865 40.6425 106.096C36.503 105.628 32.3747 104.738 28.3595 103.621C24.158 102.452 22.2743 98.9292 23.0276 94.6161C23.1335 94.0047 23.3156 93.4084 23.447 92.802C24.2566 88.9942 23.1689 86.981 19.4892 85.6116C17.2852 84.7933 15.0039 84.4591 12.6311 84.5248C11.4251 84.5575 10.165 84.3273 9.00476 83.9675C7.69074 83.56 7.41697 81.8998 8.4212 80.9425C9.97078 79.4692 11.7853 78.6941 13.9324 79.2997C15.2727 79.6801 16.6085 80.1358 17.8635 80.7337C21.3133 82.3825 24.9456 82.8395 28.7277 82.8276C34.9267 82.8069 41.1292 82.957 47.3276 83.0148C48.5658 83.0258 49.8084 82.9615 51.0478 82.9011C52.7525 82.8197 54.4637 82.5595 56.1578 82.6502C59.2705 82.8188 62.3187 82.7289 65.3741 81.9539C67.6508 81.3756 69.9746 81.6206 72.3002 82.1008C74.1035 82.4748 75.9829 82.5643 77.8322 82.6349C80.4615 82.7368 83.1125 82.8868 85.7315 82.6937C89.591 82.4114 93.4599 82.0286 97.2601 81.3341C99.7188 80.8868 102.099 80.3499 104.622 80.6781C105.671 80.8154 106.798 80.7358 107.839 80.5171C112.094 79.635 116.358 78.9412 120.7 78.5011C125.311 78.0315 129.862 76.9393 134.168 75.0402C139.272 72.7895 144.498 70.8852 149.846 69.2524C154.136 67.9394 158.266 66.1086 162.474 64.5244C164.769 63.6593 169.078 61.1896 171.595 61.7073C172.855 62.1515 174.602 63.8173 170.102 66.5919C168.101 68.3024 163.759 69.6803 164.432 74.117Z" fill="white"/>
</g>
</svg>
