<svg width="106" height="134" viewBox="0 0 106 134" fill="none" xmlns="http://www.w3.org/2000/svg">
<path d="M99.5866 73.9776C98.2762 69.806 96.5748 65.7059 93.28 62.4988C90.6161 59.9081 89.5338 56.6455 89.9945 52.9131C90.1059 52.0079 90.1135 51.0861 90.2072 50.1792C90.6199 46.2078 90.7112 44.7276 91.4538 41.4094C93.1532 41.5191 94.6258 41.7205 96.0955 41.6891C100.203 41.6098 103.499 40.2223 105.139 36.0491C105.853 34.2333 105.867 33.7737 104.488 32.4952C102.704 30.8415 100.976 29.129 99.2131 27.4527C98.1332 26.423 97.7319 25.1723 97.9459 23.718C98.0826 22.8131 98.3679 21.92 98.4068 21.0148C98.5143 18.5357 98.2971 15.9667 96.6719 14.0709C94.9329 12.0468 93.2083 9.70806 90.0827 9.54485C89.647 9.52324 89.1524 9.3354 88.8144 9.06032C86.0007 6.77632 82.4469 6.2277 79.2319 4.88541C76.491 3.73927 73.7791 3.17438 70.795 4.13702C68.6091 4.842 66.1872 5.0886 64.093 3.90041C60.2209 1.70201 55.9219 1.66972 51.7226 1.02583C49.0307 0.611898 47.1206 1.81247 46.0738 3.96708C44.9599 6.26108 43.8628 8.81377 43.7706 11.2902C43.6598 14.2285 42.3734 16.2028 40.4843 18.0112C38.9462 19.4825 37.2163 20.7588 35.6023 22.1566C34.3455 23.2446 33.1027 24.3586 32.4991 26.037C33.7518 28.7781 36.9163 29.3081 38.3643 31.2632C37.2011 35.1514 36.1335 38.7928 35.0203 42.4169C34.2172 45.0286 32.5643 46.9802 30.1192 48.1765C27.9369 49.2449 25.734 50.2854 23.4735 51.1674C17.2656 53.579 11.4938 56.5197 7.99753 62.5981C7.54954 63.3808 6.84872 64.0155 6.27098 64.7233C2.0684 69.8801 -0.483416 75.5633 0.600569 82.4177C0.696133 83.0188 0.674659 83.6357 0.703389 84.2422C1.04171 90.9242 3.29498 97.0556 6.17926 102.992C6.57127 103.801 7.10161 104.609 7.75318 105.217C10.7331 108.011 13.2457 111.422 17.7797 112.655C18.2169 116.015 19.4164 118.704 21.828 120.491C27.4876 124.684 33.4759 128.288 40.5164 129.767C42.4434 130.169 44.3536 130.737 46.2003 131.42C53.9289 134.294 61.7231 134.187 69.5572 132.008C71.3312 131.517 73.118 130.765 74.0667 129.096C74.9175 127.596 76.2746 127.154 77.6861 126.555C82.6339 124.455 87.307 121.928 90.6312 117.491C91.0837 116.887 91.6469 116.349 92.2178 115.845C95.2329 113.192 97.6409 109.988 99.6009 106.574C102.602 101.351 104.575 95.6762 103.366 89.52C102.337 84.2874 101.181 79.0532 99.5866 73.9776ZM96.8151 29.1089C97.9943 30.4727 99.3896 31.6474 100.662 32.9304C102.796 35.0872 102.494 37.4065 99.8866 38.877C97.9684 39.9592 95.9865 40.4788 93.8108 39.5996C91.8419 38.804 90.5613 37.4642 90.9964 35.489C91.4951 33.2284 91.0066 31.4334 89.9862 29.5264C89.6995 28.9949 90.0849 28.1065 90.1542 27.4387C92.9706 26.3462 95.0242 27.0402 96.8151 29.1089ZM80.2521 34.7859C79.9279 36.1239 79.0895 36.9276 77.8531 37.2934C76.6962 37.6358 75.5003 37.9267 74.3026 38.0539C72.0286 38.2905 69.956 37.9748 69.3692 35.5634C67.0018 35.0219 64.9531 34.5539 62.8668 34.0783C62.017 30.0626 61.3448 26.3863 64.618 23.4157C71.5944 24.1402 84.9699 26.8045 87.692 28.0501C87.6344 30.1564 87.149 32.421 88.4531 34.5179C88.9549 35.3239 88.1379 36.7465 87.2115 37.1904C85.6671 37.9315 84.0776 38.3148 82.341 37.3967C82.1759 35.7927 82.0131 34.2292 81.8526 32.6701C80.1964 32.8523 80.443 34.0023 80.2521 34.7859ZM50.3393 4.12343C53.7624 2.90441 56.9322 3.42871 60.144 4.56351C61.2912 4.96832 62.3684 5.55874 63.5106 5.98018C65.993 6.90039 68.5325 7.2905 71.124 6.45319C73.7327 5.60656 76.0782 6.25752 78.649 7.05197C82.8911 8.36455 86.7129 10.5733 90.8584 12.0635C93.9764 13.1848 96.1772 16.7422 96.1863 19.8976C96.1915 21.9393 95.2173 23.0031 92.9051 23.2826C92.7582 22.5139 92.708 21.6763 92.4191 20.9339C92.2235 20.437 91.7379 19.8315 91.2799 19.7271C90.8286 19.6247 90.1692 19.9999 89.7514 20.3424C89.4387 20.6004 89.4072 21.178 89.1641 21.5546C87.8286 23.6084 86.108 24.9019 83.474 24.4038C78.0952 23.3781 72.7117 22.3799 67.3359 21.3442C67.0685 21.2932 66.8465 21.0057 66.3417 20.6337C66.5088 19.9299 66.8553 19.0987 66.8527 18.2717C66.8472 17.5996 66.592 16.5992 66.1286 16.3555C65.6396 16.1005 64.6818 16.4191 64.0928 16.7647C63.3333 17.2079 62.734 17.9273 62.0511 18.5384C60.3448 18.0279 58.7058 17.668 57.1687 17.0524C53.6661 15.6421 53.2932 15.0957 52.4242 11.0598C50.9435 10.7038 50.9271 12.2607 49.9783 12.9734C49.5692 12.851 48.9692 12.773 48.4765 12.506C46.0577 11.1917 45.869 10.6352 46.5222 8.18524C47.065 6.10451 48.1894 4.8899 50.3393 4.12343ZM61.4034 24.313C60.023 26.8316 58.5891 29.3234 57.1338 31.8015C55.3438 34.8535 52.9308 35.4579 49.8604 33.6081C48.0649 32.5237 46.3185 31.3599 44.0785 29.9324C46.0315 25.6209 47.8397 21.6358 49.7658 17.3779C50.7082 17.341 51.8531 16.966 52.6977 17.3165C55.8614 18.6362 59.3988 19.3248 62.0483 22.2301C61.8383 22.932 61.7455 23.6905 61.4034 24.313ZM37.2325 27.5002C35.6678 26.9524 35.1417 25.5375 36.1416 24.3147C36.62 23.7331 37.152 23.1783 37.7336 22.7C40.4131 20.4903 43.3442 18.566 45.3731 15.6362C45.5654 15.3567 46.5905 15.2974 46.907 15.5479C47.2593 15.8236 47.4455 16.6185 47.3341 17.0998C47.2102 17.6353 46.7537 18.18 46.2981 18.5401C44.9515 19.6013 44.7793 21.0246 44.9168 22.479C43.0629 24.182 41.6417 25.5289 40.1705 26.8245C39.3364 27.5534 38.3807 27.9017 37.2325 27.5002ZM68.1574 130.049C64.6757 131.258 61.1799 131.799 57.412 131.433C52.8201 130.987 48.3501 130.436 44.1005 128.495C42.7489 127.876 41.1215 127.89 39.6557 127.484C37.8953 126.997 36.1613 126.409 34.448 125.777C33.9324 125.587 33.5263 125.103 33.0728 124.753C38.3803 124.649 43.3755 124.995 48.2254 126.529C50.08 127.113 52.1095 127.209 54.0696 127.368C58.4689 127.731 62.8755 127.973 67.2735 128.328C67.7724 128.369 68.2369 128.827 68.7186 129.094C68.45 129.568 68.3595 129.979 68.1574 130.049ZM97.6334 106.21C94.5802 111.207 90.657 115.527 86.5643 119.59C84.1477 121.987 80.752 123.453 77.6673 125.103C75.6912 126.161 73.4565 125.539 71.4449 124.959C70.3875 124.654 69.4795 124.419 68.3757 124.596C67.5155 124.733 66.5899 124.533 65.698 124.425C62.6903 124.062 59.7684 123.666 56.7823 125.023C54.6801 125.981 52.2307 125.629 50.0374 124.893C43.7406 122.781 37.1626 122.469 30.6606 121.673C28.6825 121.429 26.7219 121.393 25.3674 119.513C24.9965 118.996 23.8773 119.067 23.3898 118.577C22.3355 117.522 21.3393 116.358 20.5988 115.079C20.3434 114.636 20.745 113.597 21.1479 113.061C21.419 112.7 22.2562 112.567 22.785 112.652C23.517 112.774 24.198 113.198 24.8982 113.498C28.2589 114.935 31.605 116.396 34.9799 117.797C35.8178 118.146 36.7202 118.485 37.6095 118.541C40.3872 118.716 42.9888 119.407 45.5422 120.526C46.4107 120.905 47.6067 120.723 48.6002 120.528C48.9387 120.462 49.2499 119.591 49.308 119.058C49.3368 118.817 48.7092 118.237 48.4066 118.256C44.6801 118.478 41.2995 116.756 37.658 116.355C35.3567 116.102 33.0841 114.686 31.0058 113.445C27.5409 111.376 23.4864 110.974 19.9173 109.229C19.4745 109.013 18.7195 109.247 18.179 109.455C16.7203 110.019 15.4142 109.697 14.3543 108.71C12.4585 106.943 10.6444 105.085 8.86262 103.204C8.35044 102.663 7.99641 101.945 7.66436 101.262C4.78173 95.308 3.02418 89.0821 2.43783 82.4419C1.87532 76.1095 3.64624 70.7109 7.55077 65.8599C8.50789 64.6713 9.45801 63.4698 10.3433 62.2308C13.678 57.5645 18.2694 54.778 23.6321 52.9869C26.3695 52.0736 28.9846 50.7941 31.6659 49.7046C33.4577 48.9723 35.2662 48.2813 37.3907 47.442C40.0276 43.3279 39.0039 37.9556 40.6203 33.0978C42.7244 32.4843 44.5494 33.0701 46.3209 34.0168C47.937 34.8772 49.5365 35.7688 51.1609 36.6135C52.446 37.2842 53.7769 37.4867 55.0962 36.7109C56.218 36.05 57.2938 36.2088 58.5645 36.3461C61.9556 36.712 65.0662 37.6643 68.0403 39.315C70.4119 40.6297 73.0849 40.3314 75.6697 40.3038C79.4579 40.263 83.2456 40.1387 86.94 40.0481C88.1253 41.6094 87.5433 43.1675 87.3412 44.6181C87.0237 46.8786 86.4016 49.0914 86.0212 51.3439C85.8494 52.3543 85.5199 53.7342 86.0073 54.3946C88.1044 57.2325 88.5346 61.003 91.1578 63.4874C94.1342 66.3056 95.6863 70.0205 97.1944 73.628C99.6127 79.4138 100.901 85.5973 101.454 91.8289C101.912 96.9705 100.34 101.776 97.6334 106.21Z" fill="#3F8D3F"/>
</svg>
