<svg width="650" height="598" viewBox="0 0 650 598" fill="none" xmlns="http://www.w3.org/2000/svg">
<path d="M536.622 347.765C535.465 358.75 526.957 366.857 517.62 365.873C508.283 364.889 501.652 355.186 502.81 344.201C503.967 333.217 505.514 324.376 514.851 325.36C524.188 326.344 537.78 336.78 536.622 347.765Z" fill="white"/>
<path d="M557.054 342.212C547.027 342.794 534.808 339.922 530.97 344.152C527.131 348.382 526.309 359.75 527.984 362.943C532.144 367.084 551.868 369.113 551.868 369.113" fill="white"/>
<path d="M555.952 342.606C565.25 346.401 570.087 350.978 572.35 356.222C574.613 361.467 574.091 366.417 568.472 369.267C563.195 371.839 552.154 369.737 552.154 369.737" fill="white"/>
<path d="M555.952 342.606C565.25 346.401 570.087 350.978 572.35 356.222C574.613 361.467 574.091 366.417 568.472 369.267C563.195 371.839 552.154 369.737 552.154 369.737" stroke="#1D1D1B" stroke-width="2.33352" stroke-miterlimit="10" stroke-linecap="round" stroke-linejoin="round"/>
<path d="M237.479 155.431C235.998 148.705 234.175 142.256 232.009 136.083L229.958 131.8C229.958 131.8 213.361 143.817 178.625 137.966C143.889 132.115 138.013 101.775 148.341 80.9629C158.668 60.1512 185.133 55.4316 185.133 55.4316C185.133 55.4316 193.573 22.8452 242.169 18.8936C294.235 14.6819 303.824 39.4697 303.824 39.4697C303.824 39.4697 331.251 22.65 368.413 38.1421C405.575 53.6342 390.718 87.7344 373.031 95.2562C355.344 102.778 333.082 103.248 333.082 103.248C333.082 103.248 349.413 129.372 355.095 143.736C360.777 158.101 237.479 155.431 237.479 155.431Z" fill="white"/>
<path d="M372.999 95.5651C383.829 90.7621 393.846 75.862 390.982 61.4815C385.721 66.8714 379.597 71.5446 372.708 74.5729C356.633 81.6389 338.312 80.3339 323.689 70.6585C323.689 70.6585 317.434 76.5694 298.38 79.2542C287.843 81.2724 276.981 80.4405 266.754 76.547C260.173 85.5521 251.867 93.1239 241.932 98.3341C226.346 106.703 190.532 117.007 168.972 101.908C158.697 95.5067 153.063 83.6501 154.644 71.6153C152.152 74.4812 149.97 77.3798 148.373 80.653C138.046 101.465 143.612 131.773 178.348 137.624C213.085 143.474 230.707 130.627 230.707 130.627C230.707 130.627 231.896 134.194 234.142 142.565C235.721 148.363 237.479 155.431 237.479 155.431C237.479 155.431 249.335 155.742 265.621 155.581C266.842 152.894 267.168 149.8 266.534 146.917C263.929 136.005 261.457 111.967 261.457 111.967C264.437 110.404 267.141 108.499 269.568 106.252C272.988 103.484 275.578 99.6899 277.239 95.7978C277.239 95.7978 282.988 97.6551 299.583 97.5268C308.654 97.5442 317.856 96.3238 326.569 93.8006L329.743 102.27L333.326 103.899L333.358 103.589C333.358 103.589 355.588 103.429 372.999 95.5651Z" fill="#E6F2FC"/>
<path d="M188.903 120.591C188.903 120.591 209.258 129.306 236.848 116.884C264.437 104.461 270.188 88.4857 270.188 88.4857" stroke="#1D1D1B" stroke-width="2.33352" stroke-linecap="round" stroke-linejoin="round"/>
<path d="M312.226 54.7465C312.226 54.7465 311.591 45.9197 298.711 34.5508" stroke="#1D1D1B" stroke-width="2.33352" stroke-linecap="round" stroke-linejoin="round"/>
<path d="M237.479 155.43C237.479 155.43 235.054 145.789 233.133 140.268C232.189 137.352 230.935 134.405 229.649 131.766C229.649 131.766 213.052 143.783 178.316 137.932C143.58 132.082 138.013 101.773 148.341 80.9617C158.669 60.15 185.133 55.4304 185.133 55.4304C185.133 55.4304 193.606 22.5345 242.17 18.8924C285.066 15.5916 303.824 39.4685 303.824 39.4685C303.824 39.4685 331.251 22.6488 368.413 38.1409C405.575 53.6329 390.718 87.7331 373.031 95.2549C355.344 102.777 333.082 103.246 333.082 103.246C333.082 103.246 349.413 129.37 355.095 143.735C360.777 158.099 237.479 155.43 237.479 155.43Z" stroke="#1D1D1B" stroke-width="2.33352" stroke-miterlimit="10"/>
<path fill-rule="evenodd" clip-rule="evenodd" d="M421.676 366.939C426.04 367.086 436.659 361.322 446.073 355.119C458.532 346.733 472.262 338.169 472.262 338.169C472.262 338.169 479.035 357.028 486.166 366.54C493.298 376.051 496.669 376.72 496.669 376.72C483.199 394.697 467.482 410.248 449.484 423.681C431.21 436.773 419.484 441.169 404.73 438.675C388.119 435.986 378.676 412.778 377.716 407.045C376.756 401.313 373.23 330.861 373.085 323.337C372.939 315.813 373.493 310.553 373.493 310.553L385.285 305.538C385.252 305.848 411.741 366.205 421.676 366.939Z" fill="#E9E9E9"/>
<path d="M403.014 342.134C393.848 325.212 385.284 305.538 385.284 305.538L369.747 310.471C371.831 314.444 372.922 318.939 373.084 323.337C373.1 326.154 373.652 338.726 374.627 353.221C378.357 350.485 382.673 348.124 386.924 346.382C392.103 344.738 397.591 343.126 403.014 342.134Z" fill="#004E96"/>
<path d="M425.485 366.399C424.182 366.888 422.912 367.067 421.674 366.936C419.818 366.741 417.261 364.281 414.216 360.519C407.392 362.928 400.845 365.68 394.542 369.083C387.93 372.453 381.871 376.507 375.78 380.871C376.576 394.095 377.291 405.121 377.715 407.042C378.675 412.775 388.118 435.983 404.729 438.672C415.493 440.432 424.483 438.251 436.095 431.966C430.674 421.071 426.864 409.719 424.667 397.912C422.958 387.407 423.448 376.822 425.485 366.399Z" fill="#004E96"/>
<path d="M486.167 366.54C479.035 357.028 472.263 338.168 472.263 338.168C472.263 338.168 458.533 346.733 446.074 355.119C445.274 365.672 447.944 375.964 453.252 384.971C457.729 392.951 464.845 399.646 473.183 403.653C481.864 395.495 489.715 386.311 496.67 376.719C496.98 376.752 493.332 375.742 486.167 366.54Z" fill="#004E96"/>
<path d="M428.092 365.425C424.835 366.646 421.334 367.215 417.555 367.443C415.357 367.524 413.5 367.328 411.367 366.791" stroke="#1D1D1B" stroke-width="2.33352" stroke-linecap="round" stroke-linejoin="round"/>
<path d="M421.674 366.938C426.039 367.086 436.658 361.322 446.071 355.118C458.531 346.732 472.261 338.168 472.261 338.168C472.261 338.168 479.033 357.027 486.165 366.539C493.297 376.051 496.668 376.719 496.668 376.719C483.198 394.696 467.48 410.247 449.483 423.681C431.209 436.772 419.483 441.168 404.729 438.674C388.118 435.985 378.675 412.777 377.715 407.045C376.754 401.312 371.617 331.316 371.471 323.792C371.618 319.427 370.495 315.242 368.411 311.268L384.664 305.472C384.974 305.505 411.74 366.204 421.674 366.938Z" stroke="#1D1D1B" stroke-width="2.33352" stroke-miterlimit="10"/>
<path d="M96.0634 630.465C89.109 634.112 83.5387 639.47 79.7271 645.951C75.0684 654.533 71.8915 663.896 69.9524 673.391C69.6423 679.302 69.9184 685.589 71.188 691.354C80.1771 695.117 89.541 698.294 99.312 700.575C109.148 702.237 128.332 704.259 142.094 701.329C155.856 698.399 168.689 695.372 182.859 685.602C194.976 677.493 227.632 649.649 227.632 649.649C227.632 649.649 243.252 635.027 239.231 622.714C235.21 610.402 226.497 606.981 220.064 611.621C213.631 616.262 199.152 620.055 183.484 632.169C177.018 637.119 160.52 642.264 152.28 643.272C141.775 644.981 131.222 644.182 121.207 641.249C112.429 638.447 104.059 634.749 96.0634 630.465Z" fill="#E9E9E9"/>
<path d="M224.006 609.847C225.732 611.281 204.38 620.919 197.735 624.599C191.09 628.279 171.579 641.24 157.231 643.795C143.502 646.415 140.31 647.017 130.473 645.355C119.741 643.285 109.205 639.359 99.4506 633.951C87.6281 627.387 80.1375 621.279 72.1092 617.304C64.0808 613.33 48.6105 605.755 35.1408 617.788C24.7821 627.021 24.0973 633.519 24.7155 639.528C26.9452 651.026 32.7416 661.336 41.3395 668.812C52.6729 680.018 66.4331 688.976 81.1383 694.906C96.1855 700.559 112.894 702.32 132.095 701.215C147.241 699.995 162.061 695.926 175.628 688.908C182.273 685.228 220.89 654.258 224.473 649.943C228.056 645.627 231.672 646.947 229.456 650.155C227.241 653.363 189.96 683.536 184.618 686.727C168.901 696.334 151.344 702.618 133.316 704.472C121.607 705.741 92.2116 702.643 79.2977 697.528C66.3839 692.413 45.5888 678.958 39.2221 671.092C32.8554 663.225 22.0597 649.886 22.4843 639.919C22.648 632.428 23.056 625.588 32.3234 617.804C38.2032 612.48 53.5453 603.459 73.0541 614.275C92.5629 625.091 98.1644 631.313 105.916 634.946C114.563 638.985 123.65 641.82 132.867 643.417C144.87 645.308 163.631 639.464 172.752 636.045C181.253 632.561 185.146 628.278 198.811 620.332C212.475 612.387 222.589 608.447 224.006 609.847Z" fill="#1D1D1B"/>
<path fill-rule="evenodd" clip-rule="evenodd" d="M349.557 810.793C349.557 810.793 350.085 758.288 350.493 751.449C351.717 730.929 356.723 674.516 358.06 661.83C359.103 651.929 366.437 612.03 367.138 602.405C367.84 592.78 343.786 592.435 329.373 595.609C289.668 604.252 287.076 619.935 283.525 629.885C280.886 637.116 284.124 656.854 285.05 674.785C286.057 694.914 285.385 733.95 285.042 746.115C284.698 758.281 285.587 812.186 285.587 812.186C295.668 814.5 306.156 815.918 316.741 816.408C345.338 818.17 349.557 810.793 349.557 810.793Z" fill="#E9E9E9"/>
<path fill-rule="evenodd" clip-rule="evenodd" d="M367.466 599.31C370.007 598.952 367.025 612.403 365.362 622.24C362.494 637.58 356.282 699.497 355.043 711.255C353.152 729.202 352.107 750.992 351.568 765.014C350.947 776.837 351.692 811.33 351.692 811.33C351.692 811.33 342.978 819.797 321.189 818.752C310.603 818.262 299.773 817.121 289.351 815.084C288.732 815.019 285.149 813.39 285.214 812.771C285.15 807.446 284.273 786.079 283.737 776.324C283.364 765.022 284.118 722.239 283.679 711.556C283.241 700.873 280.562 634.264 280.171 632.033C279.781 629.802 283.494 630.193 283.445 633.63C283.395 637.066 285.623 666.396 285.948 675.191C286.272 683.985 287.619 721.67 287.374 732.907C287.128 744.144 286.423 783.49 286.829 794.483C287.219 802.658 287.332 810.491 288.716 812.201C290.1 813.912 315.88 815.69 323.029 816.13C330.178 816.571 347.718 813.414 348.289 810.971C348.859 808.528 348.261 769.671 348.865 755.03C349.323 744.754 357.508 661.145 358.747 649.387C359.986 637.629 361.424 600.237 367.466 599.31Z" fill="#1D1D1B"/>
<path fill-rule="evenodd" clip-rule="evenodd" d="M154.815 800.28C154.815 800.28 168.355 751.963 170.31 745.286C176.175 725.255 187.989 669.56 189.326 656.874C190.369 646.972 198.29 595.56 199.301 585.968C200.312 576.376 220.455 590.074 234.737 594.082C272.454 604.314 274.748 621.137 276.18 631.3C277.254 638.921 264.141 665.384 259.464 683.037C254.283 702.514 240.762 741.76 238.252 753.697C235.743 765.634 219.906 820.906 219.906 820.906C219.906 820.906 209.239 824.162 187.808 819.713C163.657 814.352 154.815 800.28 154.815 800.28Z" fill="#E9E9E9"/>
<path fill-rule="evenodd" clip-rule="evenodd" d="M196.76 598.214C194.48 596.097 192.164 624.01 190.811 633.879C188.562 649.285 182.108 692.717 179.663 704.036C175.508 722.682 169.545 743.641 165.912 757.337C162.474 769.176 152.715 799.433 152.715 799.433C160.613 810.59 172.305 818.392 185.789 821.065C203.947 823.917 213.051 823.625 217.546 822.534C219.467 822.111 221.177 820.727 222.334 818.659C223.817 813.496 230.024 793.189 232.272 783.727C234.993 772.751 247.213 728.049 250.211 717.415C253.209 706.78 276.326 638.824 276.864 636.69C277.304 635.485 277.776 633.971 276.815 634.182C275.235 634.329 273.867 635.436 273.362 637.26C272.075 640.566 263.538 668.136 260.427 676.881C257.38 685.007 247.524 716.193 244.493 727.136C241.088 738.666 229.699 784.395 226.669 795.338C224.306 802.911 220.754 818.805 219.077 819.88C217.399 820.954 200.918 822.972 183.672 817.4C171.556 813.62 156.721 802.984 156.673 800.476C156.624 797.968 168.142 762.89 172.427 748.95C181.258 718.595 190.286 662.606 192.144 650.914C194.002 639.221 199.902 601.048 196.76 598.214Z" fill="#1D1D1B"/>
<path fill-rule="evenodd" clip-rule="evenodd" d="M268.053 634.197C278.02 634.622 294.078 630.683 319.632 616.794C326.619 612.838 360.786 615.187 366.145 602.924C375.642 581.087 383.071 558.092 388.057 534.528C393.272 508.797 397.851 486.128 395.136 449.55C393.754 430.008 388.515 390.661 384.478 375.531C380.229 359.441 376.259 325.859 368.411 311.266C356.151 288.074 305.503 287.742 275.033 288.911C246.142 289.934 230.342 315.175 222.637 331.883C213.58 352.515 216.977 406.372 214.743 430.54C213.096 449.138 208.24 471.465 204.997 487.391C202.39 500.257 195.628 525.824 190.121 548.395C187.139 561.847 186.6 575.869 188.259 589.809C190.049 608.457 258.087 633.773 268.053 634.197Z" fill="#E9E9E9"/>
<path fill-rule="evenodd" clip-rule="evenodd" d="M198.318 515.159C198.318 515.159 206.623 519.476 238.314 527.508C264.468 534.644 297.25 541.228 327.72 546.003C364.655 551.773 384.507 550.423 384.507 550.423C384.507 550.423 380.858 561.302 379.033 566.741C375.074 577.586 370.008 593.008 370.138 591.771C338.674 593.46 307.227 592.024 276.073 587.802C245.88 583.369 216.079 575.222 187.906 563.493C187.906 563.493 190.562 547.192 193.593 536.248C196.118 527.128 198.318 515.159 198.318 515.159Z" fill="#004E96"/>
<path fill-rule="evenodd" clip-rule="evenodd" d="M214.433 436.451C214.433 436.451 233.601 435.655 273.549 439.552C302.358 442.275 323.366 444.802 349.765 446.645C376.163 448.489 395.868 451.504 395.868 451.504C395.868 451.504 396.405 461.259 396.029 473.734C395.474 484.938 394.707 495.182 394.707 495.182C379.594 496.092 364.302 495.732 349.107 494.444C320.608 491.753 302.792 488.624 263.105 482.252C244.947 479.399 226.854 475.928 209.233 470.943C209.233 470.943 210.912 457.98 212.526 451.58C213.357 446.662 213.911 441.401 214.433 436.451Z" fill="#004E96"/>
<path fill-rule="evenodd" clip-rule="evenodd" d="M215.435 358.655C215.435 358.655 246.134 355.32 259.7 354.247C278.315 352.767 297.45 352.281 316.113 353.309C338.18 354.696 359.84 356.979 381.678 360.532C382.264 366.851 383.468 373.235 385.291 379.684C387.049 386.752 388.156 394.064 388.985 401.035C388.985 401.035 380.713 396.409 332.101 391.599C307.315 389.299 272.757 390.663 264.646 390.434C247.807 389.911 231.016 391.896 214.893 396.454C214.893 396.454 216.589 380.364 216.541 371.912C216.411 367.205 215.435 358.655 215.435 358.655Z" fill="#004E96"/>
<path d="M369.975 314.248C373.183 316.463 375.673 331.43 378.294 339.215C380.671 346.348 381.826 356.169 384.496 366.461C387.589 378.676 391.201 403.773 392.779 415.515C397.205 450.708 397.789 462.971 397.137 475.104C395.716 503.424 391.202 531.419 383.658 558.468C381.198 566.969 376.018 580.502 371.75 591.315C368.296 600.337 365.934 607.909 364.484 606.818C363.035 605.727 374.813 574.118 380.32 557.491C387.635 532.607 392.198 507.121 393.7 480.999C394.711 465.463 393.606 446.262 390.157 419.618C388.432 406.296 385.226 386.249 380.994 367.031C379.236 359.963 378.228 351.722 374.581 338.824C372.237 331.381 366.767 312.033 369.975 314.248Z" fill="#1D1D1B"/>
<path d="M230.276 315.794C224.478 323.318 215.877 339.618 215.255 363.33C214.486 397.351 215.086 412.431 214.744 418.652C213.618 438.244 207.426 467.313 204.378 481.383C198.252 509.833 194.08 531.606 191.62 540.107C189.16 548.608 183.975 597.806 182.735 615.508C182.637 616.437 187.116 612.529 186.987 607.822C186.565 594.012 193.573 545.319 194.747 540.124C198.234 524.848 205.549 494.021 207.749 482.051C210.52 467.639 215.376 445.312 216.697 423.864C217.431 413.93 217.891 379.877 217.828 362.663C217.733 345.758 223.239 329.131 233.436 315.502C237.801 309.704 258.518 291.239 252.427 295.603C244.316 301.318 236.726 308.027 230.276 315.794Z" fill="#1D1D1B"/>
<path d="M403.367 130.99C404.539 131.739 404.181 135.143 404.001 139.817C403.821 144.491 403.805 147.618 403.413 151.331C402.924 155.972 402.581 162.193 401.881 165.874C401.115 170.173 400.055 177.257 397.123 181.328C393.442 186.572 380.823 172.727 380.514 166.751C380.596 163.005 382.225 159.422 384.749 156.247C386.183 154.521 387.681 152.176 390.304 148.072C392.926 143.969 394.05 142.21 397.422 136.934C400.794 131.658 402.162 130.55 403.367 130.99Z" fill="#F4ACBB"/>
<path d="M368.937 143.006C371.51 142.338 377.341 140.45 382.52 138.806C386.396 137.65 389.995 136.152 393.627 134.345C395.614 133.303 399.279 131.186 400.109 132.212C400.939 133.238 397.829 136.039 395.89 139.589C393.544 144.035 390.922 148.138 387.713 151.867C385.189 155.043 381.865 162.827 378.869 161.572C375.873 160.318 368.594 155.171 367.096 151.572C365.533 148.591 366.364 143.673 368.937 143.006Z" fill="#004E96"/>
<path d="M366.916 144.356C369.457 143.998 372.34 143.363 374.913 142.695C379.44 141.295 383.658 139.863 387.909 138.121C393.121 136.167 396.851 133.432 397.404 134.116C397.958 134.8 395.775 137.698 392.436 142.665C389.097 147.632 386.849 151.149 384.292 154.634C382.858 156.36 381.735 158.119 380.611 159.877C379.796 161.669 380.627 162.695 382.402 160.692C384.177 158.689 385.057 156.279 386.898 153.657C388.738 151.035 393.787 144.684 395.351 141.721C397.257 138.48 399.44 135.582 402.176 133.367C403.381 133.807 402.712 143.122 402.386 146.216C402.06 149.311 401.505 160.515 400.576 166.361C400.087 171.003 398.979 175.579 396.943 180.057C395.819 181.816 396.649 182.842 397.643 182.321C398.636 181.8 399.451 180.009 400.998 174.227C402.139 169.342 403.003 164.114 403.525 159.164C403.916 155.45 404.552 146.445 404.911 143.041C405.269 139.637 405.531 131.218 403.74 130.403C402.567 129.654 400.58 130.696 397.942 131.982C395.336 132.959 391.085 134.701 388.137 135.955L377.714 139.862C371.916 141.441 366.868 141.848 365.565 142.336C364.262 142.824 365.646 144.535 366.916 144.356Z" fill="#1D1D1B"/>
<path d="M223.192 181.145C219.984 178.93 216.434 176.991 212.819 175.672C209.269 173.733 201.062 168.488 196.648 165.833L183.442 157.559C183.442 157.559 183.914 161.988 184.581 164.562C186.258 169.431 187.935 174.301 190.263 178.926C191.761 182.525 194.024 187.77 196.141 191.434C198.99 197.053 202.214 202.086 205.747 207.151C207.441 208.894 210.193 209.496 212.457 208.796C216.74 206.745 220.535 203.391 222.848 199.254C224.168 195.639 224.868 191.959 225.26 188.246C224.592 185.672 224.202 183.441 223.192 181.145Z" fill="#F4ACBB"/>
<path d="M220.293 178.961C217.362 177.088 209.578 173.765 206.061 171.517C202.543 169.269 191.958 162.835 189.89 161.679C187.822 160.522 186.063 159.398 184.647 157.997C184.403 157.346 184.5 156.418 186.08 156.271C187.66 156.125 192.985 156.06 199.825 156.468C206.665 156.876 216.453 156.031 222.364 156.341C228.276 156.651 231.403 156.668 233.878 156.929C236.354 157.189 239.251 165.316 237.085 171.032C234.918 176.748 231.709 180.477 228.859 180.803C225.667 181.405 222.606 180.769 220.293 178.961Z" fill="#004E96"/>
<path d="M234.841 156.717C235.362 157.71 233.44 158.133 230.655 157.84C226.633 157.416 215.086 157.138 211.65 157.088C208.214 157.039 186.082 156.271 186.016 156.89C189.778 159.789 193.849 162.721 197.985 165.034C206.746 170.963 223.21 178.017 223.975 179.662C224.741 181.307 222.819 181.73 221.923 181.323C219.855 180.166 218.096 179.042 215.996 178.195C213.895 177.348 195.347 166.32 193.311 164.854C188.622 161.857 185.511 158.714 184.86 158.958C184.208 159.202 184.908 161.466 185.755 165.31C186.601 169.153 188.751 172.508 189.972 175.765C191.193 179.023 198.112 193.518 200.017 196.221C201.922 198.925 204.006 202.899 205.358 204.918C206.709 206.938 207.849 207.997 207.751 208.925C207.654 209.853 207.344 209.821 205.862 209.039C204.38 208.257 200.001 199.348 198.34 197.296C194.627 190.96 191.257 184.348 188.538 177.492C187.594 174.576 184.208 165.147 183.817 162.915C183.085 160.961 183.003 158.762 183.199 156.906C185.186 155.864 187.417 155.473 189.616 155.392C192.124 155.344 200.543 155.605 205.559 155.508C210.575 155.411 221.535 155.315 224.662 155.331C227.789 155.348 231.502 155.739 232.74 155.87C233.978 156 234.32 155.723 234.841 156.717Z" fill="#1D1D1B"/>
<path fill-rule="evenodd" clip-rule="evenodd" d="M366.673 143.705C366.673 143.705 370.613 147.875 375.205 151.8C379.732 156.345 383.575 161.442 387.418 166.54L394.696 177.632L404.466 191.801C404.466 191.801 412.721 205.498 415.733 209.57C418.745 213.642 423.451 225.401 425.535 229.375C428.074 234.961 429.995 240.482 431.232 246.557C432.046 250.709 430.498 256.491 428.886 256.946C427.274 257.402 423.675 252.956 423.675 252.956C423.675 252.956 421.264 258.02 420.075 260.398C416.915 266.635 413.136 272.807 408.771 278.604C401.604 287.234 393.884 295.181 385.024 302.068C377.564 307.54 357.874 313.286 347.989 315.06C332.68 317.827 310.955 316.163 292.976 314.581C279.638 313.488 252.279 305.912 238.616 301.969C234.073 300.552 239.332 312.995 236.645 311.773C230.961 309.297 226.027 305.648 222.119 301.169C220.393 299.736 211.063 290.306 211.063 290.306C211.063 290.306 209.172 302.308 208.097 300.63C205.004 294.36 202.252 287.813 200.12 281.331L197.075 271.624L191.831 279.832C191.831 279.832 191.326 275.711 191.001 272.861C190.871 268.155 191.083 263.171 191.573 258.53C191.931 255.126 194.474 236.936 196.754 233.109C199.035 229.282 205.535 212.134 206.789 209.138C208.044 206.141 220.065 187.072 224.072 178.735C225.668 175.462 220.881 173.393 224.594 167.84C227.249 163.427 230.149 159.665 233.944 156.311C237.331 153.852 253.976 144.343 261.208 141.038C273.618 136.089 286.761 133.094 300.017 131.988C312.313 131.094 324.755 131.779 336.757 133.67C347.18 135.707 357.162 138.949 366.673 143.705Z" fill="#004E96"/>
<path fill-rule="evenodd" clip-rule="evenodd" d="M365.955 144.568C358.236 140.626 349.768 137.857 341.202 136.016C327.441 133.001 313.142 132.12 298.957 133.128C286.971 134.055 274.822 136.529 263.682 141.299C250.555 147.111 233.503 157.516 232.509 158.037C230.588 158.46 232.119 155.806 235.441 153.966C239.448 151.572 250.685 145.874 260.278 140.94C270.799 136.105 281.776 132.882 293.209 131.271C317.181 129.417 325.259 129.955 340.534 133.442C349.41 135.316 358.155 138.428 366.183 142.402C368.561 143.592 367.437 145.35 365.955 144.568Z" fill="#1D1D1B"/>
<path fill-rule="evenodd" clip-rule="evenodd" d="M388.347 166.637C389.096 165.465 391.18 169.439 392.157 172.045C393.134 174.651 398.605 182.11 401.552 186.801C403.734 189.846 412.298 203.576 414.692 207.583C418.958 214.602 422.572 221.866 425.536 229.374C427.457 234.895 430.127 239.244 430.436 245.22C430.809 250.578 429.441 257.63 428.268 256.881C426.233 255.415 424.23 253.639 422.536 251.897C422.536 251.897 418.692 258.687 417.161 261.342C415.63 263.996 400.856 288.406 387.501 296.384C374.145 304.363 334.928 320.253 311.005 318.67C295.468 317.659 279.786 315.067 264.95 310.375C256.172 307.573 247.33 305.39 238.422 303.825C235.946 303.564 239.788 314.607 237.378 313.727C227.64 311.136 212.659 292.976 211.666 293.497C210.672 294.018 210.248 303.985 209.287 304.196C207.707 304.343 203.327 295.434 201.341 290.532C199.42 285.011 196.408 274.995 196.408 274.995C196.408 274.995 193.216 281.541 191.05 281.313C188.884 281.085 190.384 260.907 190.776 257.194C192.438 247.358 195.029 237.619 197.587 228.19C201.545 217.345 206.4 206.906 212.15 196.875C216.71 189.221 221.288 178.441 223.356 179.597C224.529 180.346 219.349 187.935 217.378 191.794C215.472 195.035 209.722 205.066 207.279 210.44C204.835 215.814 201.414 224.526 198.873 230.829C196.136 238.987 194.327 247.244 193.447 255.598C192.86 261.168 191.49 274.164 192.972 274.946C194.454 275.727 195.546 268.334 197.06 268.806C198.575 269.279 197.842 273.269 201.082 281.119C204.321 288.969 206.356 296.379 207.838 297.161C209.32 297.943 208.882 287.259 209.81 287.357C210.738 287.455 214.418 294.1 223.081 300.957C226.533 303.824 230.751 308.336 234.952 310.03C236.467 310.502 233.455 300.486 236.859 300.845C244.904 301.693 262.117 307.574 267.246 309.366C281.773 314.025 296.836 316.551 312.096 317.221C334.945 317.126 373.82 301.513 384.846 294.853C401.524 285.035 413.675 264.729 416.054 259.973C419.246 253.427 421.169 247.06 422.993 247.565C424.817 248.07 426.966 251.425 427.894 251.523C428.823 251.62 429.133 245.709 427.667 241.8C426.202 237.891 423.825 230.758 421.595 225.204C418.29 217.973 414.643 211.019 410.686 204.032C406.388 197.322 399.321 187.191 396.308 183.119C390.251 175.285 387.598 167.81 388.347 166.637Z" fill="#1D1D1B"/>
<path d="M313.459 218.188C314.291 207.326 311.964 196.756 306.721 187.131C302.243 179.15 294.834 175.241 289.199 175.273C281.952 175.761 274.639 182.811 273.969 198.071C273.332 213.021 277.712 221.93 284.144 229.178C290.576 236.425 311.942 241.493 313.459 218.188Z" fill="#1D1D1B"/>
<path d="M303.083 230.548C307.709 228.22 311.227 224.523 311.798 216.136C312.32 205.241 309.097 194.265 302.828 185.47C297.536 179.281 292.879 175.974 286.022 178.693C276.902 182.112 275.597 194.489 277.045 207.468C278.233 216.979 280.61 224.113 286.44 228.168C291.406 231.508 297.464 233.397 303.083 230.548Z" fill="white"/>
<path d="M276.769 195.237C277.714 192.208 280.483 189.684 283.675 189.082C289.44 187.813 295.433 190.321 298.657 195.354C303.053 201.136 305.121 208.237 304.68 215.386C304.809 231.981 289.142 232.207 284.892 228.005C280.707 223.184 277.89 217.256 276.686 210.871C275.595 206.376 274.228 201.54 276.769 195.237Z" fill="url(#paint0_radial_2595_71731)"/>
<path d="M296.62 217.665C297.76 212.78 297.044 207.699 294.342 203.659C292.469 200.646 289.196 199.05 285.694 199.62C281.851 200.466 279.473 205.221 279.749 211.507C279.944 215.595 281.409 219.504 284.242 222.305C287.418 224.83 292.157 224.391 294.681 221.215C296.017 220.418 296.489 218.903 296.62 217.665Z" fill="#1D1D1B"/>
<path d="M283.351 198.12C285.484 198.658 287.177 200.401 287.568 202.632C287.926 205.173 287.046 207.583 284.994 209.244C282.665 210.563 279.913 209.96 278.219 208.217C274.588 204.08 277.846 196.915 283.351 198.12Z" fill="#F9FBFE"/>
<path d="M276.215 212.387C278.494 220.448 281.489 227.647 287.075 231.051C292.66 234.456 305.853 228.024 305.545 216.103C305.416 205.453 303.658 198.384 298.023 192.472C293.871 187.342 286.852 185.663 280.892 188.789C275.549 191.981 273.024 201.1 276.215 212.387ZM278.006 213.201C276.639 208.364 274.555 204.39 276.477 198.023C277.145 194.652 279.328 191.753 282.308 190.19C287.487 188.546 293.236 190.403 296.867 194.54C301.263 200.322 303.673 207.146 303.509 214.637C304.11 229.718 290.723 232.061 285.512 228.071C280.301 224.08 279.373 218.038 278.006 213.201Z" fill="black"/>
<path d="M383.39 213.67C384.808 203.182 383.132 192.368 378.54 182.499C374.226 172.971 369.634 169.046 363.315 169.631C355.726 170.396 349.634 180.704 349.681 195.1C349.631 204.481 350.216 216.744 355.41 223.861C360.604 230.979 380.309 233.994 383.39 213.67Z" fill="#1D1D1B"/>
<path d="M378.13 225.004C381.306 221.584 381.698 217.871 381.634 206.601C381.961 197.563 379.812 188.264 375.335 180.283C371.313 173.915 367.649 170.087 361.444 172.562C353.594 175.802 350.807 193.341 351.766 205.018C352.401 213.845 356.015 221.109 360.982 224.448C365.948 227.787 374.612 228.7 378.13 225.004Z" fill="white"/>
<path d="M358.95 181.372C363.999 180.966 368.688 183.963 371.049 188.279C374.485 194.272 375.901 201.617 374.532 208.669C373.261 214.792 367.544 218.569 361.421 217.298C360.802 217.233 360.493 217.201 359.907 216.826C354.744 215.343 350.006 209.838 350.577 201.451C351.588 191.859 350.986 182.723 358.95 181.372Z" fill="url(#paint1_radial_2595_71731)"/>
<path d="M368.8 203.684C369.224 199.662 367.791 195.443 365.333 192.056C362.809 189.287 360.122 188.065 357.451 189.661C354.78 191.256 354.046 195.246 355.218 201.94C355.934 207.021 356.667 208.975 359.875 211.191C363.327 214.057 368.799 209.628 368.8 203.684Z" fill="#1D1D1B"/>
<path d="M359.809 199.921C361.861 198.261 362.464 195.508 361.454 193.212C360.478 190.606 357.791 189.384 355.185 190.361C353.882 190.85 352.856 191.68 352.416 192.885C350.917 195.23 351.52 198.422 353.865 199.921C355.623 201.045 358.099 201.306 359.809 199.921Z" fill="#F9FBFE"/>
<path d="M349.176 202.867C348.963 207.851 350.982 212.444 354.744 215.343C357.3 217.802 365.313 218.96 369.905 216.941C373.57 214.824 375.85 210.997 375.997 206.633C377.09 199.239 375.087 191.52 370.381 185.705C367.434 181.014 361.686 179.157 356.474 181.111C351.881 183.13 348.363 192.77 349.176 202.867ZM351.716 202.509C351.799 192.82 351.442 184.335 358.2 182.544C362.076 181.388 368.004 184.516 370.609 189.483C374.077 195.167 375.216 202.17 373.571 208.88C371.729 217.446 365.166 217.38 360.281 216.239C355.395 215.099 351.585 209.691 351.716 202.509Z" fill="black"/>
<path fill-rule="evenodd" clip-rule="evenodd" d="M213.605 272.114C214.094 273.417 219.941 268.401 220.462 269.395C220.983 270.388 220.071 273.108 219.566 274.932C219.207 278.335 219.158 281.772 219.727 285.273C220.329 288.465 220.753 290.387 221.648 290.794C222.544 291.201 224.597 283.596 226.421 284.101C227.658 284.232 228.586 290.274 229.595 292.57C231.614 297.163 234.285 301.512 237.297 305.583C239.267 307.668 241.612 309.167 244.332 310.079C244.951 310.144 244.072 306.61 245 306.708C245.928 306.806 254.608 310.536 258.223 311.856C268.515 315.131 278.905 317.477 289.637 319.546C306.623 321.649 323.804 321.896 341.148 320.595C352.174 319.88 362.776 317.243 373.166 313.645C377.45 311.593 393.509 301.71 396.066 298.225C398.591 295.05 401.392 292.216 404.161 289.693C405.089 289.79 405.544 297.347 406.13 297.722C406.717 298.096 409.339 293.993 410.121 292.511C411.717 289.237 413.314 285.964 414.633 282.349C415.513 279.939 415.383 275.232 416.312 275.33C417.24 275.428 418.037 282.708 419.34 282.219C420.643 281.731 423.82 272.367 424.488 268.996C425.156 265.625 425.385 257.515 426.557 258.264C427.73 259.013 433.136 267.092 433.331 265.235C433.527 263.379 433.936 250.594 429.946 243.917C426.999 239.226 423.71 234.812 420.079 230.676C416.35 227.467 412.279 224.535 407.801 222.499C402.736 220.088 396.955 218.54 391.418 217.644C387.705 217.252 383.959 217.17 380.148 217.707C380.116 218.017 368.406 219.286 352.609 220.749C340.281 221.953 328.164 224.118 315.901 224.702C301.13 225.336 292.71 225.074 291.472 224.944C285.219 224.91 278.9 225.496 273.102 227.075C267.956 228.41 261.539 229.924 256.327 231.877C250.122 234.352 243.852 237.445 238.135 241.223C232.728 245.033 227.598 249.185 223.021 254.022C218.998 259.542 215.87 265.469 213.605 272.114Z" fill="white"/>
<path fill-rule="evenodd" clip-rule="evenodd" d="M306.049 226.168C297.792 224.36 289.063 224.065 280.48 225.351C270.009 226.75 251.719 231.08 243.266 237.072C236.182 241.957 229.374 247.184 223.119 253.095C216.832 259.315 211.619 273.157 212.45 274.183C213.28 275.209 218.264 269.477 219.062 270.813C219.86 272.148 219.339 271.155 218.475 276.382C217.872 279.135 218.165 282.294 218.8 285.177C219.125 288.027 220.492 292.864 222.349 293.059C224.206 293.255 226.291 285.34 226.812 286.334C227.333 287.327 230.035 297.311 233.39 301.106C235.539 304.461 238.372 307.262 241.89 309.51C243.648 310.634 246.27 312.475 247.231 312.263C248.192 312.051 247.313 308.517 247.313 308.517C247.313 308.517 249.967 310.048 254.136 312.052C263.191 315.196 272.62 317.754 282.146 319.384C288.888 320.72 311.965 324.404 325.873 323.053C341.051 321.524 348.819 322.03 362.646 318.482C371.945 316.333 380.789 312.572 388.59 306.824C395.024 302.184 403.249 292.413 403.868 292.479C404.487 292.544 404.421 299.107 405.593 299.856C406.766 300.605 409.763 295.916 411.636 292.984C413.982 288.539 415.823 279.973 416.996 280.722C418.168 281.471 417.565 284.223 419.422 284.419C421.278 284.615 424.357 276.179 425.367 272.531C426.85 267.369 426.883 261.115 428.154 260.936C428.772 261.002 432.012 268.852 433.625 268.396C436.23 267.419 434.799 251.312 432.292 245.417C429.166 239.456 425.046 234.016 419.901 229.406C414.38 225.383 408.485 221.946 402.151 219.714C395.783 217.792 388.666 217.042 381.973 218.214C377.445 219.614 376.045 221.03 376.908 221.747C377.771 222.464 380.198 220.217 383.699 219.647C388.78 218.931 394.04 219.485 399.235 220.659C405.912 222.614 412.149 225.774 417.637 230.106C422.229 234.032 426.104 238.82 429.328 243.853C431.803 250.058 433.007 256.442 433.251 263.038C432.843 263.933 428.057 255.92 426.444 256.376C424.832 256.832 424.62 261.815 424.701 264.014C424.782 266.212 421.833 279.355 419.943 279.468C419.015 279.37 418.462 272.742 416.883 272.889C415.303 273.035 413.608 283.181 412.288 286.796C411.311 290.134 409.47 292.756 407.32 295.345C406.392 295.247 406.8 288.408 405.285 287.935C403.119 287.707 400.334 293.358 395.138 298.129C387.174 305.424 378.135 311.041 368.053 314.671C357.63 318.579 349.455 318.969 338.022 320.58C326.589 322.19 307.063 320.446 298.399 319.532C286.951 318.326 275.6 316.191 264.656 313.161C258.598 311.271 252.606 308.762 246.955 305.977C246.955 305.977 244.301 304.446 243.063 304.315C241.825 304.185 243.665 307.507 243.014 307.751C239.464 305.813 236.321 302.979 234.514 299.347C232.185 294.722 229.857 290.096 228.18 285.227C228.001 283.956 227.92 281.758 226.308 282.214C224.695 282.669 222.496 288.695 221.6 288.287C220.705 287.88 220.542 283.483 220.494 280.975C219.892 277.783 220.25 274.379 221.228 271.041C222.108 268.631 222.922 266.84 220.349 267.507C217.776 268.174 216.033 269.868 215.479 269.184C214.926 268.5 221.36 257.915 224.845 254.528C230.139 248.829 236.295 243.846 242.664 239.824C253.592 234.093 265.285 230.007 277.711 227.875C286.636 226.312 295.707 226.33 304.925 227.927C307.709 228.22 307.873 226.673 306.049 226.168Z" fill="#1D1D1B"/>
<path fill-rule="evenodd" clip-rule="evenodd" d="M301.126 249.113C301.126 249.113 303.536 249.992 312.965 252.55C316.613 253.561 323.111 254.245 325.896 254.539C329.918 254.963 334.006 254.768 337.817 254.231C341.074 253.01 344.055 251.447 346.791 249.232C346.791 249.232 354.819 253.207 356.952 253.745C359.086 254.282 367.587 256.742 367.587 256.742C367.587 256.742 363.742 263.533 362.244 265.878C360.745 268.223 356.868 275.323 353.806 280.632C351.835 284.491 348.919 291.38 345.222 293.806C341.899 295.646 337.779 296.15 334.506 294.554C327.243 292.224 320.811 284.976 317.799 280.904C314.233 276.148 311.318 271.148 308.746 265.872C305.929 259.943 302.77 254.292 298.927 249.194L301.126 249.113Z" fill="#790B19"/>
<path fill-rule="evenodd" clip-rule="evenodd" d="M329.821 273.725C331.498 272.65 333.42 272.227 335.211 273.041C338.55 274.019 341.823 275.615 344.037 278.352C346.594 280.811 348.743 284.166 350.274 287.456C349.573 291.136 347.081 294.002 343.824 295.223C339.329 296.314 334.72 295.515 330.926 292.926C326.447 290.889 322.442 287.339 319.739 283.299C316.726 279.228 313.747 274.847 311.109 270.189C312.786 269.114 314.431 268.349 316.63 268.267C319.48 267.942 322.265 268.236 324.61 269.734C326.336 271.167 328.404 272.324 329.821 273.725Z" fill="#F191A3"/>
<path fill-rule="evenodd" clip-rule="evenodd" d="M286.472 227.859C289.502 222.859 299.648 218.61 299.648 218.61C299.648 218.61 305.234 216.07 308.834 214.572C314.387 212.342 320.218 210.453 326.016 208.874C330.478 208.093 335.217 207.654 339.891 207.834C354.809 208.78 355.476 211.353 359.433 212.396C364.384 212.918 369.27 214.058 374.09 215.818C378.226 218.131 381.988 221.03 385.407 224.206C388.208 227.317 390.325 230.982 391.481 234.858C392.604 239.043 391.838 243.343 389.899 246.893C387.994 250.133 384.883 252.934 381.283 254.432C377 256.483 372.196 257.541 367.278 256.71C362.669 255.911 358.093 254.803 353.891 253.109C351.481 252.23 348.794 251.008 346.449 249.509C344.055 251.447 341.384 253.043 338.778 254.019C333.632 255.354 327.997 255.386 322.493 254.18C316.337 253.219 310.555 251.671 305.979 250.563C300.784 249.39 296.518 248.314 296.518 248.314C294.694 247.809 292.968 246.376 292.202 244.731C291.291 241.506 283.442 232.858 286.472 227.859Z" fill="white"/>
<path fill-rule="evenodd" clip-rule="evenodd" d="M366.968 256.679C367.685 255.816 369.199 256.288 368.45 257.46C366.984 259.496 365.518 261.532 364.329 263.909C363.14 266.287 359.019 272.735 358.106 275.455C357.194 278.174 351.509 287.587 350.288 290.274C349.066 292.961 346.981 294.931 344.375 295.908C341.46 296.852 338.643 296.868 335.581 296.232C331.347 294.848 327.487 292.877 324.377 289.733C317.913 282.795 312.165 274.993 308.029 266.736C306.287 262.485 304.203 258.511 301.777 254.814C300.702 253.137 299.042 251.084 298.521 250.091C297.446 248.413 299.335 248.3 300.068 250.254C300.8 252.208 302.559 253.332 304.431 256.345C306.548 260.01 308.632 263.984 310.407 267.925C312.979 273.202 316.236 277.925 319.834 282.372C323.677 287.469 328.888 291.46 334.539 294.246C338.398 296.217 342.861 295.435 346.281 292.667C349.18 288.906 351.526 284.46 353.562 279.982C355.94 275.227 357.846 271.986 359.003 269.918C360.159 267.85 366.251 257.542 366.968 256.679Z" fill="#1D1D1B"/>
<path fill-rule="evenodd" clip-rule="evenodd" d="M311.694 270.563C313.339 269.797 314.951 269.342 316.873 268.918C319.104 268.528 320.961 268.723 323.061 269.571C325.129 270.727 327.165 272.193 328.859 273.936C330.585 275.369 331.577 280.792 333.809 280.402C336.04 280.011 331.203 275.434 330.992 274.473C330.878 272.584 335.454 273.692 337.278 274.197C339.379 275.045 341.447 276.201 343.173 277.634C345.664 280.713 347.846 283.758 349.686 287.081C350.517 288.107 351.51 287.586 350.712 286.25C348.628 282.276 345.893 278.547 342.815 275.094C340.535 272.976 337.506 272.031 334.722 271.738C333.174 271.575 331.562 272.031 329.982 272.177C329.364 272.112 326.872 269.034 324.739 268.496C322.948 267.681 320.814 267.144 318.616 267.225C316.108 267.273 313.844 267.973 311.515 269.292C310.798 270.155 311.042 270.807 311.694 270.563Z" fill="#1D1D1B"/>
<path fill-rule="evenodd" clip-rule="evenodd" d="M296.681 246.768C300.932 245.026 302.479 245.189 302.104 245.775C301.73 246.361 300.182 246.198 298.163 247.55C297.479 248.103 303.016 249 306.354 249.977C310.93 251.085 315.848 251.916 320.457 252.715C327.541 253.774 334.935 254.866 340.863 252.049C346.791 249.233 347.834 245.276 348.665 246.302C349.495 247.328 348.062 249.054 348.062 249.054C350.716 250.585 353.712 251.839 356.741 252.784C362.213 254.299 368.857 256.564 373.939 255.848C379.948 255.23 385.6 252.071 389.248 247.137C392.245 242.447 392.555 236.536 388.355 228.897C384.268 223.148 378.813 218.506 372.233 215.622C367.967 214.547 363.635 214.091 359.205 214.562C354.873 214.106 351.42 217.183 351.273 221.548C351.094 226.222 351.533 230.961 351.011 235.912C350.554 240.244 349.496 241.383 348.291 240.944C347.086 240.504 349.822 238.289 349.709 230.456C349.546 226.059 350.965 215.571 349.467 211.972C347.969 208.372 339.207 208.388 335.152 208.273C328.524 208.826 322.107 210.34 315.935 212.505C309.762 214.67 303.834 217.487 298.182 220.646C293.866 223.007 288.085 227.403 287.254 226.377C286.424 225.351 289.844 222.583 295.805 219.457C301.424 216.607 307.352 213.791 313.248 211.283C318.525 208.711 324.29 207.441 330.299 206.823C336.96 205.961 343.767 206.678 350.444 208.633C355.574 210.425 354.385 212.803 357.886 212.233C362.691 211.175 367.332 211.664 371.876 213.082C379.139 215.412 385.522 220.151 389.853 226.552C392.589 230.282 394.266 235.151 393.776 239.793C392.945 244.711 390.6 249.157 386.837 252.202C383.45 254.66 379.508 256.435 375.046 257.216C370.893 258.03 361.431 255.781 356.302 253.989C353.273 253.044 350.618 251.513 347.996 249.673C345.57 251.92 342.589 253.483 339.365 254.394C333.974 255.078 328.649 255.142 323.079 254.555C317.233 253.626 311.419 252.388 305.67 250.531L297.756 248.445C296.86 248.038 295.899 248.25 295.215 248.803C294.189 249.634 292.511 250.708 292.919 249.813C293.326 248.917 293.701 248.331 296.681 246.768Z" fill="#1D1D1B"/>
<path d="M178.069 288.705C190.74 281.281 203.932 274.849 217.678 269.102C233.133 261.971 249.387 256.175 265.82 251.65C285.754 246.555 297.594 244.048 297.594 244.048C297.594 244.048 298.522 244.146 298.555 243.837C298.587 243.527 298.311 243.185 297.692 243.12C297.073 243.055 285.542 245.594 265.299 250.656C248.557 255.149 232.303 260.945 216.847 268.076C203.134 273.514 189.6 280.222 176.929 287.647C176.587 287.923 176.522 288.542 177.108 288.917C177.043 289.536 177.694 289.292 178.069 288.705Z" fill="#1D1D1B"/>
<path d="M164.75 254.765C165.059 254.798 200.677 246.35 226.669 243.145C239.681 241.387 252.596 240.558 265.722 240.69C286.372 240.676 297.577 241.231 297.577 241.231C297.886 241.264 298.228 240.987 298.57 240.71C298.603 240.401 298.326 240.059 298.017 240.026C287.154 239.194 276.259 238.672 265.266 239.078C253.068 239.044 240.463 239.905 228.379 241.76C206.784 244.803 185.71 248.84 164.538 253.804C164.196 254.081 163.48 254.944 163.789 254.977C164.098 255.009 164.44 254.732 164.75 254.765Z" fill="#1D1D1B"/>
<path d="M299.858 237.404C300.168 237.437 300.477 237.469 300.51 237.16C300.543 236.85 300.575 236.541 300.298 236.199C300.298 236.199 283.606 231.311 267.158 227.075C252.534 223.344 237.47 220.818 222.309 219.22C187.344 215.535 168.925 215.158 168.274 215.403C167.964 215.37 167.59 215.956 167.866 216.298C168.143 216.64 168.453 216.673 168.762 216.706C168.762 216.706 187.523 216.806 222.178 220.458C237.34 222.055 252.094 224.549 266.718 228.28C282.89 232.174 299.549 237.371 299.858 237.404Z" fill="#1D1D1B"/>
<path d="M479.32 274.149C479.662 273.872 479.727 273.253 479.451 272.911C479.451 272.911 464.029 261.9 450.237 253.251C438.479 246.068 425.598 240.643 412.147 237.661C402.066 235.347 391.611 233.62 381.433 232.234C380.814 232.169 380.439 232.755 380.716 233.097C380.651 233.716 381.237 234.091 381.579 233.814C391.79 234.89 401.936 236.585 411.674 239.176C424.816 242.125 437.73 247.24 449.178 254.391C462.971 263.04 477.806 273.676 478.115 273.709C478.701 274.084 479.011 274.116 479.32 274.149Z" fill="#1D1D1B"/>
<path d="M478.317 236.188C478.627 236.22 478.969 235.943 478.969 235.943C479.001 235.634 479.034 235.325 478.724 235.292C478.724 235.292 478.724 235.292 478.415 235.259C467.846 231.643 456.87 228.922 445.829 226.82C430.7 224.912 415.407 224.552 399.952 225.739C384.465 227.236 379.807 229.873 379.497 229.841C379.188 229.808 378.846 230.085 379.122 230.427C379.399 230.769 379.676 231.111 380.018 230.834C380.018 230.834 384.676 228.196 400.164 226.7C415.31 225.48 430.569 226.15 445.389 228.025C457.082 229.883 467.716 232.88 478.317 236.188Z" fill="#1D1D1B"/>
<path d="M379.79 227.057C386.631 221.521 394.269 217.32 402.428 214.113C411.891 210.417 421.874 207.715 432.004 206.592C439.935 205.551 448.355 205.812 456.367 206.97C456.677 207.002 457.019 206.725 457.051 206.416C457.084 206.107 456.807 205.765 456.498 205.732C448.485 204.575 440.066 204.313 431.825 205.322C421.663 206.754 411.402 209.114 401.907 213.119C393.748 216.326 386.077 220.837 378.927 226.34C378.617 226.308 378.796 227.578 379.79 227.057Z" fill="#1D1D1B"/>
<path fill-rule="evenodd" clip-rule="evenodd" d="M345.4 306.965C343.006 308.903 340.026 310.466 336.866 310.758C334.016 311.084 327.665 311.979 327.209 310.366C326.753 308.754 332.941 309.406 336.101 309.114C340.531 308.642 346.834 305.239 345.4 306.965Z" fill="#1D1D1B"/>
<path fill-rule="evenodd" clip-rule="evenodd" d="M249.637 203.329C250.566 203.427 250.028 205.56 251.803 209.502C252.812 211.798 255.059 214.225 254.31 215.397C253.56 216.57 250.613 211.879 250.223 209.648C249.832 207.417 248.058 203.475 249.637 203.329Z" fill="#1D1D1B"/>
<path fill-rule="evenodd" clip-rule="evenodd" d="M260.566 191.653C259.947 191.588 259.181 195.887 259.36 197.158C259.311 200.594 259.88 204.095 260.45 207.597C261.394 210.512 263.006 216 264.048 217.987C265.09 219.974 265.578 221.277 266.572 220.756C267.565 220.235 265.383 217.19 264.96 215.268C264.537 213.346 263.007 210.056 262.372 207.174C261.77 203.982 261.167 200.789 260.875 197.63C260.484 195.399 261.494 191.751 260.566 191.653Z" fill="#1D1D1B"/>
<path fill-rule="evenodd" clip-rule="evenodd" d="M387.968 191.001C388.619 190.756 390.427 194.388 391.257 195.414C391.745 196.717 392.201 198.33 392.348 199.909C392.559 200.87 392.575 203.688 391.647 203.59C390.719 203.492 390.947 201.326 390.768 200.056C390.621 198.476 390.508 196.587 389.71 195.251C388.912 193.916 387.316 191.245 387.968 191.001Z" fill="#1D1D1B"/>
<path d="M348.603 235.032C352.349 235.113 363.001 229.04 365.754 223.699C367.692 220.149 367.188 216.029 364.696 212.95C361.163 207.885 355.545 204.79 343.9 205.44C337.337 205.374 331.311 209.119 327.907 214.705C326.311 217.978 326.815 222.098 329.339 224.867C334.012 230.991 345.167 234.982 348.603 235.032Z" fill="#1D1D1B"/>
<path d="M340.266 213.192C340.103 214.739 344.109 218.289 348.848 217.85C353.588 217.411 355.396 215.099 355.282 213.21C354.891 210.979 352.579 209.171 347.628 208.649C342.954 208.469 340.185 210.993 340.266 213.192Z" fill="white"/>
<path d="M291.059 145.748C292.101 147.735 289.821 151.562 287.052 154.086C284.593 156.643 281.889 158.548 278.599 160.078C275.993 161.055 273.078 161.999 270.831 159.572C268.584 157.145 271.581 152.456 275.132 148.45C277.591 145.893 280.604 144.021 284.138 143.142C287.607 142.882 289.708 143.729 291.059 145.748Z" fill="#1D1D1B"/>
<path d="M368.885 158.329C366.589 159.338 363.771 159.354 361.394 158.165C358.984 157.285 356.639 155.787 354.326 153.979C352.633 152.236 350.076 149.777 351.266 147.399C352.455 145.021 356.917 144.24 362.014 146.342C365.353 147.319 368.251 149.502 369.814 152.482C371.345 155.772 370.253 157.221 368.885 158.329Z" fill="#1D1D1B"/>
<path d="M343.856 155.379L324.134 155.49C324.134 155.49 331.253 138.408 329.527 131.03C326.532 117.887 312.428 127.038 309.529 130.8C306.629 134.561 294.692 132.052 294.692 132.052C294.692 132.052 295.132 130.847 293.504 128.485C291.143 124.169 289.466 119.3 288.408 114.495C286.618 107.737 284.974 102.558 292.042 94.8554C304.03 82.0401 323.264 80.6255 322.14 82.3842C321.016 84.143 311.732 89.1089 305.249 103.13C299.58 115.36 299.335 126.597 300.849 127.069C302.364 127.542 302.071 118.438 314.857 106.958C326.649 95.9995 336.811 94.5676 347.918 96.051C355.93 97.2082 367.932 105.043 367.932 105.043L357.328 119.568C353.322 116.018 348.535 113.949 343.34 112.776C335.018 111.586 331.142 112.742 330.116 113.572C329.09 114.403 332.38 112.872 338.079 118.166C342.264 122.987 344.738 129.192 345.014 135.478C346.186 142.171 345.469 148.979 343.856 155.379Z" fill="#1D1D1B"/>
<path fill-rule="evenodd" clip-rule="evenodd" d="M375.739 312.977C384.708 349.588 391.755 386.623 395.919 424.292C402.508 483.491 411.643 628.368 401.738 657.046C391.833 685.723 231.86 680.753 198.07 659.985C114.694 608.024 202.213 469.265 202.213 469.265C202.213 469.265 232.473 461.191 248.584 424.095C264.695 386.998 258.532 311.888 258.532 311.888L271.136 316.971C272.552 324.316 273.317 331.905 273.772 339.462C274.389 351.415 274.648 366.773 274.648 366.773C274.648 366.773 296.649 368.779 330.116 368.864C360.147 368.9 372.671 365.84 372.671 365.84C371.89 355.433 370.491 344.962 368.473 334.425C366.113 324.164 364.599 317.748 364.599 317.748L375.739 312.977Z" fill="white"/>
<path d="M224.128 121.8C227.661 126.865 230.511 132.484 232.399 138.314" stroke="#1D1D1B" stroke-width="2.33352" stroke-miterlimit="10"/>
<path d="M188.015 48.8517C186.012 53.0206 184.594 57.5641 184.138 61.896C183.91 64.0619 183.714 65.9184 184.105 68.1496" stroke="#1D1D1B" stroke-width="2.33352" stroke-linecap="round" stroke-linejoin="round"/>
<path d="M396.442 425.286C391.968 387.584 384.986 349.931 375.708 313.287L361.376 318.66C361.376 318.66 363.134 325.728 365.804 336.021C367.854 346.248 369.221 357.029 370.002 367.436C370.002 367.436 360.67 369.894 330.639 369.858C297.172 369.772 279.812 368.256 279.812 368.256C279.812 368.256 279.553 352.898 278.936 340.945C278.481 333.388 277.716 325.799 276.3 318.454L259.055 312.882C259.055 312.882 265.218 387.992 249.107 425.089C232.996 462.185 201.124 470.715 201.124 470.715C201.124 470.715 190.361 457.066 180.067 471.624C152.083 511.537 120.116 636.753 198.593 660.979C236.456 672.791 392.356 686.717 402.261 658.04C412.166 629.362 403.34 484.517 396.442 425.286ZM385.618 649.716C383.858 660.48 360.83 665.249 337.753 667.51C314.676 669.771 266.649 671.28 232.337 661.407C198.024 651.533 180.878 633.145 179.905 600.818C178.786 560.967 197.927 512.927 197.927 512.927L223.092 484.919L244.737 466.551C256.074 453.98 264.511 439.226 269.334 423.153C273.456 410.76 276.03 398.204 277.709 385.241C297.854 387.051 318.439 387.657 338.536 386.959C365.57 385.74 372.573 384.601 372.573 384.601C372.573 384.601 380.175 410.431 385.88 501.761C391.601 595.909 387.688 638.984 385.618 649.716Z" fill="#FCC513"/>
<path d="M375.741 312.978C384.71 349.589 391.757 386.623 395.921 424.292C402.51 483.491 411.645 628.369 401.74 657.046C391.835 685.724 234.55 676.031 198.072 659.986C113.506 622.291 158.532 515.658 179.986 469.426C190.036 448.272 202.215 469.266 202.215 469.266C202.215 469.266 232.475 461.192 248.277 424.063C264.078 386.933 258.534 311.889 258.534 311.889L275.779 317.461C275.779 317.461 277.602 329.854 278.252 341.498C278.902 353.143 279.291 367.262 279.291 367.262C279.291 367.262 296.651 368.779 330.118 368.864C360.149 368.901 369.481 366.443 369.481 366.443C369.481 366.443 367.659 348.105 365.283 335.027C364.323 329.295 363.02 323.839 361.409 318.35L375.741 312.978Z" stroke="#1D1D1B" stroke-width="2.33352" stroke-miterlimit="10"/>
<path d="M262.065 316.955C262.065 316.955 268.638 367.392 259.172 406.753C249.803 445.186 235.112 453.962 235.112 453.962" stroke="#F3941F" stroke-width="2.33352" stroke-linecap="round" stroke-linejoin="round" stroke-dasharray="3.11 3.11"/>
<path d="M372.743 317.668C382.705 359.702 389.442 402.648 393.02 445.887C400.841 540.881 402.057 585.748 402.057 585.748" stroke="#F3941F" stroke-width="2.33352" stroke-linecap="round" stroke-linejoin="round" stroke-dasharray="3.11 3.11"/>
<path d="M188.532 631.76C188.532 631.76 153.34 618.353 168.527 545.493C173.709 520.072 188.843 480.37 200.537 470.339C211.206 461.139 215.714 486.643 230.03 478.453C244.72 469.677 245.617 464.14 245.617 464.14C245.617 464.14 245.451 489.464 240.149 560.55C234.848 631.635 234.211 646.586 227.404 645.868C220.596 645.151 188.532 631.76 188.532 631.76Z" fill="#E6F2FC"/>
<path d="M281.533 405.354C279.22 409.491 255.646 621.314 259.896 625.516C264.146 629.719 277.613 635.518 278.396 628.092C279.179 620.666 281.094 540.15 284.049 479.454C287.004 418.758 285.312 399.183 281.533 405.354Z" fill="#E6F2FC"/>
<path fill-rule="evenodd" clip-rule="evenodd" d="M243.94 459.27C247.718 464.987 250.502 471.225 252.602 478.016C254.229 486.322 256.98 498.813 250.773 513.177C244.567 527.54 236.407 536.691 225.528 538.986C214.649 541.281 203.982 538.593 199.781 530.954C197.355 527.257 196.606 522.485 198.024 517.942C195.272 517.339 192.992 515.222 192.357 512.339C191.999 509.798 191.983 506.981 192.896 504.261C190.648 501.835 189.427 498.577 189.786 495.174C190.487 491.493 192.425 487.943 194.95 484.768C194.95 484.768 202.931 474.346 208.925 470.91C215.944 466.644 223.485 463.372 230.993 460.409C234.869 459.253 239.299 458.781 243.94 459.27Z" fill="white"/>
<path fill-rule="evenodd" clip-rule="evenodd" d="M241.691 456.847C243.06 455.74 245.274 458.476 247.635 462.792C249.996 467.108 255.239 476.734 255.742 486.798C256.246 496.863 255.121 510.51 249.094 520.199C243.067 529.888 237.057 536.451 229.581 539.104C221.797 541.725 213.068 541.431 205.316 537.798C201.212 535.176 197.858 531.381 196.491 526.544C195.856 523.661 195.53 520.811 195.857 517.717C193.446 516.837 191.509 514.443 190.841 511.87C190.483 509.329 190.744 506.854 191.624 504.444C189.067 501.985 187.879 498.418 188.58 494.737C189.004 490.715 190.942 487.165 194.02 484.674C196.072 483.013 199.134 483.648 197.766 484.755C196.398 485.863 191.805 487.882 191.251 493.142C190.827 497.164 191.608 501.627 192.536 501.724C193.464 501.822 195.908 496.448 201.022 495.423C204.214 494.821 207.683 494.561 211.119 494.61C212.666 494.773 214.571 497.476 213.024 497.313C211.477 497.15 205.321 496.189 202.031 497.719C198.432 499.217 195.63 502.05 194.897 506.04C194.441 510.372 194.668 514.15 196.769 514.998C198.87 515.845 197.746 511.659 202.746 508.745C206.411 506.628 210.287 505.472 214.652 505.619C217.094 506.19 218.332 506.32 218.202 507.558C218.071 508.795 216.833 508.665 214.016 508.681C211.199 508.697 205.189 509.315 203.414 511.318C199.961 514.395 198.478 519.558 199.878 524.085C202.011 530.567 204.47 533.955 208.362 535.617C215.006 537.881 222.497 538.045 229.289 535.945C236.145 533.226 245.087 522.592 247.873 516.942C252.662 507.122 254.455 496.048 253.088 485.267C251.477 473.834 248.449 466.945 246.511 464.551C240.665 457.678 241.691 456.847 241.691 456.847Z" fill="#1D1D1B"/>
<path fill-rule="evenodd" clip-rule="evenodd" d="M225.953 517.133C224.797 519.201 219.781 513.354 217.257 510.585C214.799 507.198 212.682 503.533 211.526 499.657C210.615 496.432 209.589 491.318 210.68 489.869C211.772 488.42 212.602 489.446 212.651 491.954C212.846 496.042 214.002 499.918 215.532 503.208C217.372 506.53 219.554 509.576 222.11 512.035C223.739 514.397 226.8 515.032 225.953 517.133Z" fill="#1D1D1B"/>
<path fill-rule="evenodd" clip-rule="evenodd" d="M205.412 415.166C206.324 418.391 224.676 437.219 228.339 441.047C233.387 446.585 243.01 459.175 243.01 459.175C239.166 465.965 234.736 472.381 229.719 478.423C224.181 483.47 217.781 487.802 211.136 491.481C211.136 491.481 181.4 476.772 174.772 471.381C164.725 462.813 155.362 453.692 146.683 444.017C140.903 436.525 136.181 427.893 133.071 418.806C130.939 412.324 134.002 401.071 138.123 394.622C144.655 383.109 153.255 372.753 163.548 364.139C181.432 348.816 201.465 330.904 209.234 325.466C217.003 320.028 224.756 311.772 233.306 310.796C262.425 307.607 254.556 331.807 251.054 338.32C246.704 346.935 257.386 358.385 255.187 364.41C252.45 372.569 233.802 386.247 226.244 392.646C218.687 399.045 204.42 409.743 205.412 415.166Z" fill="#E9E9E9"/>
<path fill-rule="evenodd" clip-rule="evenodd" d="M192.053 482.587L172.218 468.921C182.642 465.013 192.365 458.842 200.704 450.961C207.268 445.083 213.278 438.52 218.669 431.893L230.377 442.512L243.143 457.936C243.143 457.936 241.921 466.568 230.031 478.455C224.737 484.154 217.962 489.071 210.764 492.067L192.053 482.587Z" fill="#004E96"/>
<path fill-rule="evenodd" clip-rule="evenodd" d="M210.82 405.411C210.82 405.411 202.875 391.747 195.319 386.257C181.966 376.403 177.862 373.781 165.664 373.746C152.848 373.647 152.44 374.543 152.44 374.543C152.44 374.543 138.009 392.732 134.686 400.516C127.095 419.113 144.501 440.971 144.501 440.971C144.501 440.971 149.584 428.366 174.632 422.246C187.775 419.251 201.389 420.686 213.652 426.045C213.652 426.045 204.81 417.918 205.673 412.69C206.309 409.628 208.149 407.007 210.82 405.411Z" fill="#004E96"/>
<path fill-rule="evenodd" clip-rule="evenodd" d="M257.076 370.241L229.047 389.813C226.881 383.64 223.755 377.679 219.912 372.581C214.441 365.122 207.602 358.77 199.639 354.176C193.402 351.016 186.725 349.061 179.885 348.653L209.707 323.952C218.501 323.627 227.035 325.778 234.721 330.029C252.927 341.333 258.349 352.229 258.349 352.229L257.076 370.241Z" fill="#004E96"/>
<path fill-rule="evenodd" clip-rule="evenodd" d="M226.712 311.038C217.331 316.933 208.194 323.478 199.92 330.741C186.174 342.432 167.671 357.689 159.3 365.88C149.218 375.455 133.109 394.719 132.081 407.437C130.663 423.869 134.196 428.935 145.724 444.228C155.103 456.167 165.916 466.379 178.471 474.898C190.961 484.036 208.776 493.109 210.698 492.686C217.766 490.928 228.532 480.799 233.109 475.963C237.002 471.68 246.172 458.881 244.202 456.796C238.698 449.646 232.852 442.773 226.355 436.144C220.102 430.166 207.629 417.902 206.717 414.677C206.017 412.413 211.897 407.089 214.356 404.532C220.301 398.589 226.491 393.297 233.266 388.379C247.191 377.958 258.185 371.608 258.625 370.403C259.065 369.198 259.537 367.683 256.899 368.97C248.918 373.447 241.182 378.576 234.032 384.08C226.198 390.137 209.65 404.662 210.643 404.141C208.559 406.111 206.751 408.424 204.91 411.045C204.193 411.908 204.129 406.583 203.103 407.413C201.327 409.416 202.272 412.332 203.835 415.312C208.035 422.95 208.996 422.739 216.943 430.459C220.053 433.603 226.241 440.199 232.184 446.144C235.881 449.662 239.202 453.766 241.531 458.392C242.654 462.577 216.74 491.758 210.128 489.184C201.172 485.112 192.622 480.144 184.138 474.557C178.927 470.566 160.673 456.754 153.72 448.512C148.461 442.014 137.567 429.603 135.402 417.486C132.603 402.487 139.216 393.172 150.064 379.298C156.481 371.84 163.795 364.789 171.352 358.39C177.916 352.512 182.981 348.978 192.623 340.609C203.666 330.822 207.021 328.673 213.861 323.137C221.044 317.324 228.78 312.195 237.005 308.369C244.79 305.748 235.784 305.111 226.712 311.038Z" fill="#1D1D1B"/>
<path opacity="0.18" d="M229.805 311.365C246.496 322.197 265.061 330.098 284.359 334.009C315.317 340.087 356.472 332.535 362.888 331.022C373.181 328.352 382.432 323.695 390.95 317.085L386.049 307.182C386.049 307.182 373.166 319.59 329.781 321.588C286.705 323.619 255.096 311.841 245.375 306.123C243.306 304.967 246.677 311.579 246.677 311.579L238.746 306.676L229.805 311.365Z" fill="#1D1D1B"/>
<path d="M527.761 363.726C527.761 363.726 526.786 343.287 523.856 335.47C520.926 327.652 516.105 325.893 512.131 327.977C508.157 330.061 506.267 336.119 506.088 340.793C505.908 345.467 509.262 349.262 509.262 349.262C509.262 349.262 514.278 349.165 520.385 353.563C526.834 357.684 526.458 364.214 527.761 363.726C529.064 363.237 540.399 362.555 546.603 366.024C552.808 369.494 559.516 377.084 561.584 384.184C563.342 391.253 555.996 398.613 547.805 396.185C541.747 394.295 522.694 385.092 522.694 385.092C510.447 382.55 499.878 378.933 496.67 376.718C493.462 374.503 486.672 370.658 480.338 356.538C472.963 340.431 472.572 338.2 472.572 338.2C472.572 338.2 472.443 327.549 477.965 319.684C483.519 311.509 484.514 299.099 486.193 292.08C487.871 285.062 494.891 274.851 503.946 277.996C513 281.14 516.452 289.951 517.558 297.263C518.665 304.575 510.667 318.124 510.667 318.124C510.667 318.124 522.914 314.722 536.073 314.544C549.231 314.367 561.787 316.941 568.773 324.873C575.758 332.805 570.677 339.465 567.045 341.273C563.413 343.08 556.231 342.949 556.231 342.949C546.215 340.016 536.363 341.481 534.994 342.588" fill="white"/>
<path d="M527.761 363.726C527.761 363.726 526.786 343.287 523.856 335.47C520.926 327.652 516.105 325.893 512.131 327.977C508.157 330.061 506.267 336.119 506.088 340.793C505.908 345.467 509.262 349.262 509.262 349.262C509.262 349.262 514.278 349.165 520.385 353.563C526.834 357.684 526.458 364.214 527.761 363.726ZM527.761 363.726C529.064 363.237 540.399 362.555 546.603 366.024C552.808 369.494 559.516 377.084 561.584 384.184C563.342 391.253 555.996 398.613 547.805 396.185C541.747 394.295 522.694 385.092 522.694 385.092C510.447 382.55 499.878 378.933 496.67 376.718C493.462 374.503 486.672 370.658 480.338 356.538C472.963 340.431 472.572 338.2 472.572 338.2C472.572 338.2 472.443 327.549 477.965 319.684C483.519 311.509 484.514 299.099 486.193 292.08C487.871 285.062 494.891 274.851 503.946 277.996C513 281.14 516.452 289.951 517.558 297.263C518.665 304.575 510.667 318.124 510.667 318.124C510.667 318.124 522.914 314.722 536.073 314.544C549.231 314.367 561.787 316.941 568.773 324.873C575.758 332.805 570.677 339.465 567.045 341.273C563.413 343.08 556.231 342.949 556.231 342.949C546.215 340.016 536.363 341.481 534.994 342.588" stroke="#1D1D1B" stroke-width="2.33352" stroke-miterlimit="10" stroke-linecap="round" stroke-linejoin="round"/>
<path d="M530.792 329.005C532.257 332.914 534.276 337.506 534.715 342.246C535.301 348.564 534.372 354.411 534.372 354.411" stroke="#1D1D1B" stroke-width="2.33352" stroke-miterlimit="10" stroke-linecap="round" stroke-linejoin="round"/>
<defs>
<radialGradient id="paint0_radial_2595_71731" cx="0" cy="0" r="1" gradientUnits="userSpaceOnUse" gradientTransform="translate(289.949 209.61) rotate(6.01591) scale(18.0991)">
<stop stop-color="#ABC80E"/>
<stop offset="0.36" stop-color="#ABC80E"/>
<stop offset="0.4" stop-color="#ABC80E"/>
<stop offset="1" stop-color="#006D28"/>
</radialGradient>
<radialGradient id="paint1_radial_2595_71731" cx="0" cy="0" r="1" gradientUnits="userSpaceOnUse" gradientTransform="translate(363.169 199.618) rotate(6.01591) scale(15.441)">
<stop stop-color="#ABC80E"/>
<stop offset="0.36" stop-color="#ABC80E"/>
<stop offset="0.4" stop-color="#ABC80E"/>
<stop offset="1" stop-color="#006D28"/>
</radialGradient>
</defs>
</svg>
