<svg width="169" height="339" viewBox="0 0 169 339" fill="none" xmlns="http://www.w3.org/2000/svg">
<g opacity="0.4" clip-path="url(#clip0_2561_67338)">
<path d="M138.171 302.266L137.136 301.925L141.478 236.815L141.87 236.706L142.045 233.652L141.159 233.327L141.858 223.875L142.959 223.603L143.8 223.161L142.548 219.113L140.128 218.061C140.128 218.061 140.441 213.64 140.687 212.825C140.932 212.009 140.565 208.905 140.386 208.196C140.208 207.486 138.543 207.538 138.543 207.538L138.085 195.985L98.052 193.167L101.487 149.437L102.524 149.016L101.047 147.088C101.047 147.088 103.621 122.21 103.707 122.147C104.982 121.664 105 120.824 105.278 119.631C105.7 119.479 106.072 119.214 106.353 118.864C106.634 118.515 106.813 118.095 106.871 117.65C107.405 117.707 108.382 116.43 108.382 116.43L109.287 115.835L109.034 113.895L108.101 113.335L108.19 111.756L108.878 111.036L108.482 109.763L109.227 102.784L110.186 102.354L110.082 100.501L109.623 99.0709L107.563 71.4199L108.027 64.6096C108.174 64.5743 108.305 64.4945 108.404 64.3814C108.503 64.2682 108.564 64.1272 108.579 63.9777C108.587 63.8479 108.558 63.7184 108.495 63.6045C108.432 63.4906 108.338 63.3969 108.224 63.3343C108.11 63.2716 107.981 63.2427 107.851 63.2507C107.721 63.2588 107.596 63.3036 107.491 63.3799C107.386 63.4561 107.304 63.5608 107.256 63.6816C107.208 63.8024 107.195 63.9345 107.218 64.0623C107.242 64.1902 107.302 64.3087 107.391 64.404C107.479 64.4992 107.593 64.5674 107.719 64.6005L107.285 71.5649L105.365 77.5132L103.251 48.205L103.769 41.1146C103.909 41.074 104.033 40.9924 104.125 40.8806C104.218 40.7688 104.275 40.6318 104.289 40.4873C104.295 40.3577 104.265 40.2289 104.201 40.116C104.137 40.003 104.043 39.9104 103.928 39.8489C103.814 39.7875 103.685 39.7596 103.556 39.7685C103.426 39.7775 103.302 39.8229 103.197 39.8996C103.093 39.9762 103.012 40.0809 102.964 40.2016C102.916 40.3223 102.904 40.454 102.928 40.5815C102.952 40.7089 103.012 40.827 103.1 40.9219C103.189 41.0168 103.302 41.0848 103.428 41.1179L102.962 47.4198L97.3176 69.1438L95.0566 53.349L95.694 47.3749L96.3273 46.8708L96.3715 42.8105L93.4119 42.4947L90.8049 25.1068L90.814 19.2166L90.8416 18.9575C91.1782 18.9499 91.5008 18.8218 91.7508 18.5964C92.0009 18.371 92.1617 18.0634 92.204 17.7294C92.2464 17.3955 92.1675 17.0574 91.9816 16.7768C91.7958 16.4961 91.5154 16.2915 91.1914 16.2001L92.0874 9.36441L92.2622 9.06548L93.1235 9.25264L92.6816 8.483L93.2759 7.8239L92.3962 7.80944L92.1188 6.98589L91.6818 7.73323L90.8101 7.56878L91.252 8.33842L90.6577 8.99752L91.547 8.99712L91.7424 9.62137L90.9096 16.1621C90.555 16.143 90.2063 16.259 89.9337 16.4865C89.6611 16.7141 89.4847 17.0364 89.4401 17.3888C89.3955 17.7411 89.4859 18.0972 89.6932 18.3855C89.9004 18.6739 90.2092 18.8731 90.5574 18.9431L90.4275 20.1599L90.4825 20.1657L89.6823 24.987L76.6319 24.4443L76.6938 19.2505L76.7616 18.6146C77.0982 18.607 77.4208 18.4788 77.6708 18.2535C77.9208 18.0281 78.0817 17.7204 78.124 17.3865C78.1664 17.0526 78.0875 16.7145 77.9016 16.4338C77.7158 16.1532 77.4353 15.9485 77.1114 15.8572L77.9662 9.18383L78.3564 8.50295L79.2248 8.69881L78.7812 7.94486L79.3834 7.2866L78.4941 7.287L78.2167 6.46345L77.7797 7.21079L76.9106 7.02279L77.3525 7.79244L76.7581 8.45153L77.6482 8.44328L77.7235 8.70538L76.8209 15.8262C76.4732 15.8149 76.1337 15.9331 75.8681 16.1577C75.6025 16.3823 75.4296 16.6975 75.383 17.0422C75.3363 17.387 75.4192 17.7368 75.6155 18.0239C75.8119 18.3111 76.1078 18.5152 76.4459 18.5968L75.3107 24.5495L68.188 41.749C67.5862 41.6416 66.9776 41.5767 66.3668 41.5547C66.2391 41.6339 66.1336 41.7442 66.06 41.8751C65.9863 42.006 65.9469 42.1534 65.9454 42.3037L66.7305 42.3874L66.5315 45.7405L58.5733 65.2645L58.934 62.405C59.0723 62.3625 59.1952 62.2805 59.2875 62.169C59.3798 62.0575 59.4375 61.9215 59.4535 61.7777C59.4598 61.6481 59.4293 61.5194 59.3655 61.4064C59.3017 61.2934 59.2072 61.2008 59.093 61.1394C58.9787 61.0779 58.8494 61.05 58.72 61.0589C58.5906 61.0679 58.4663 61.1133 58.3617 61.19C58.257 61.2666 58.1762 61.3714 58.1285 61.492C58.0809 61.6127 58.0684 61.7444 58.0926 61.8719C58.1167 61.9993 58.1764 62.1174 58.2649 62.2123C58.3533 62.3072 58.4668 62.3752 58.5922 62.4083L58.095 66.325L55.5771 72.5113L51.6716 70.7926L50.3437 45.657L51.303 38.1532C51.4464 38.1168 51.5752 38.0374 51.6722 37.9258C51.7693 37.8141 51.8299 37.6754 51.846 37.5284C51.8539 37.3985 51.8247 37.2691 51.7619 37.1552C51.699 37.0413 51.6051 36.9476 51.4911 36.8849C51.3771 36.8223 51.2476 36.7933 51.1178 36.8014C50.988 36.8095 50.8631 36.8543 50.7577 36.9305C50.6523 37.0068 50.5708 37.1114 50.5225 37.2323C50.4743 37.3531 50.4614 37.4851 50.4853 37.613C50.5091 37.7409 50.5688 37.8593 50.6574 37.9546C50.746 38.0499 50.8598 38.118 50.9856 38.1511L50.1453 44.7625L42.1172 72.6077L40.1489 75.2798L41.3426 77.7096L40.6065 84.61L39.7653 85.0522L40.0908 86.3176C40.0908 86.3176 39.9429 88.374 39.7919 89.1201C38.2218 88.9526 38.6405 89.7912 38.6405 89.7912C38.6633 90.6392 38.8833 91.4703 39.2831 92.2185C39.6828 92.9667 40.2513 93.6116 40.9436 94.102C40.9555 94.5731 41.1077 95.03 41.3807 95.4141C41.6537 95.7982 42.0351 96.0922 42.4761 96.2583C41.6455 98.3134 43.3313 99.0332 43.3313 99.0332L40.354 126.941L39.132 127.604L40.7695 129.446L33.5537 197.084L30.805 209.899L22.4206 216.301L23.5006 217.639L22.5408 226.635L23.3001 227.407L22.9441 230.744C22.5948 230.857 22.2255 230.896 21.8601 230.858C21.0481 231.994 21.9136 233.929 21.9136 233.929L16.7604 236.983L15.08 236.883L15.3675 237.835L14.7775 238.304L16.4447 239.943L16.0745 243.413L15.2106 243.622L15.1779 243.928C15.1831 244.569 14.9799 245.194 14.599 245.709C11.6488 247.538 12.0521 251.646 10.9696 253.904C9.45297 256.585 9.8772 256.701 9.8772 256.701L13.9201 257.133L11.7662 275.164L9.14908 276.997L10.3879 277.589L8.10882 298.283L3.34826 301.602L4.13181 302.146L2.2767 323.107L9.63992 323.821L10.2015 325.032L19.0094 325.972L21.2645 325.673L42.4601 327.934L43.3306 328.408L50.4272 329.165L52.4705 328.692L69.6625 330.526L70.6573 331.323L79.9049 332.31L81.4054 331.938L86.5145 332.944L133.145 337.918L136.631 305.246L137.983 304.771L138.171 302.266ZM106.135 102.962C106.135 102.962 106.391 101.307 107.199 101.623C107.623 101.97 108.219 104.265 107.491 108.935C107.403 109.084 105.506 108.191 105.506 108.191L106.135 102.962ZM42.2634 83.5164C42.2634 83.5164 41.6894 83.8363 41.2805 84.0229C41.3583 81.8796 42.1781 77.767 42.8016 77.2063C43.4751 77.8895 42.2634 83.5164 42.2634 83.5164ZM103.218 80.7379C103.218 80.7379 104.247 83.301 103.307 87.3452C102.939 87.2265 101.543 86.6886 101.543 86.6886C101.543 86.6886 102.012 79.8391 103.218 80.7379ZM98.4977 81.8222C98.4977 81.8222 98.8649 79.8686 99.863 79.8163C100.695 79.905 100.642 81.8922 100.609 82.1984L100.156 86.4453L98.0044 86.446L98.4977 81.8222ZM84.974 192.288C84.4118 194.507 85.8452 194.914 86.0275 195.14C85.7758 195.732 85.7289 196.391 85.8941 197.012C86.0593 197.634 86.4273 198.183 86.9396 198.572C86.7768 199.535 87.0024 200.524 87.5672 201.322C87.5672 201.322 87.2164 206.247 87.185 206.839C87.1536 207.431 86.553 207.256 86.369 208.237C86.185 209.217 87.3652 210.36 87.3652 210.36L86.6901 218.846C86.6901 218.846 87.1311 211.661 87.1841 210.42C86.7042 209.961 86.3671 209.374 86.2134 208.728C85.9497 207.851 86.9911 206.945 86.9911 206.945C86.9911 206.945 87.3135 202.732 87.4282 201.434C86.4523 199.568 86.7579 199.084 86.728 198.62C85.1998 196.869 85.7177 195.885 85.8318 195.262C84.4106 194.443 84.7645 192.615 84.7996 192.285C84.3305 190.878 87.9723 191.496 87.9723 191.496C87.9723 191.496 87.7211 191.47 87.6917 191.522C84.2785 191.142 85.0583 192.019 84.974 192.288ZM96.7574 80.1995C97.2591 80.4833 96.9726 81.7548 96.9726 81.7548L96.4625 86.5356L94.7635 87.577L95.3054 82.4979C95.3054 82.4979 95.4783 79.9837 96.7574 80.1995ZM89.0921 82.9863C89.0921 82.9863 90.0498 80.4843 91.8711 80.6786C92.4866 80.7021 93.0688 80.9644 93.4941 81.41C93.9194 81.8556 94.1544 82.4494 94.1492 83.0653L93.6467 87.7755L88.6223 87.3903L89.0921 82.9863ZM82.8203 82.2378C82.8203 82.2378 83.8945 80.0579 85.5755 80.0784C86.5479 80.341 87.8416 81.9081 87.7176 83.0699L87.2319 87.6231L82.2776 87.3248L82.8203 82.2378ZM85.9449 42.1586L85.3563 46.9311L80.0094 46.7417L80.3703 41.945L83.2824 39.8024L85.9449 42.1586ZM80.8089 87.3983L75.8714 86.9431L76.389 82.0916C76.389 82.0916 77.0408 79.6284 79.2548 79.7138C80.2361 79.8184 81.353 81.6287 81.2324 82.7592C81.1118 83.8896 80.801 87.3975 80.801 87.3975L80.8089 87.3983ZM82.334 39.2407L80.074 41.0003C80.074 41.0003 78.9246 39.7185 78.0703 38.9446C78.7051 38.4921 79.4775 38.2742 80.2552 38.3283C81.033 38.3823 81.7678 38.7048 82.334 39.2407ZM74.0012 41.8848L77.0245 39.4444L79.4986 41.7806L79.0595 46.6404L73.5317 46.3603L74.0012 41.8848ZM75.0694 82.1811L74.5518 87.0325L69.3068 86.6318L69.8411 81.6233C69.8411 81.6233 70.9245 79.357 72.7533 79.4806C73.9463 79.7588 75.1824 81.1213 75.0694 82.1811ZM63.5835 81.3368C63.5835 81.3368 64.3052 78.889 66.52 78.9665C67.1862 79.1964 68.3765 80.2443 68.4293 81.163C68.4822 82.0817 67.8381 86.7053 67.8381 86.7053L63.0651 86.1961L63.5835 81.3368ZM71.3402 98.4564C76.702 99.0284 80.6272 103.465 80.1046 108.363C79.582 113.262 74.8092 116.77 69.4475 116.198C64.0858 115.626 60.1874 111.161 60.71 106.262C61.2326 101.364 65.9785 97.8844 71.3402 98.4564ZM73.3547 121.696C73.2032 123.117 71.1803 124.068 68.8331 123.818C66.4858 123.568 64.7092 122.211 64.8608 120.79C65.0124 119.369 67.0361 118.41 69.3833 118.66C71.7305 118.911 73.5038 120.299 73.3547 121.696ZM60.2783 78.5309C60.8116 78.7985 61.268 79.1976 61.6044 79.6905C61.9407 80.1834 62.146 80.7539 62.2008 81.3481L61.6715 86.3094L56.8748 85.9486L57.2759 80.775C57.2759 80.775 57.9933 78.3665 60.2783 78.5309ZM51.4303 80.199C51.4303 80.199 52.3804 77.7677 53.809 78.0709C54.3647 78.2035 54.8566 78.5262 55.1993 78.9833C55.5421 79.4404 55.7141 80.003 55.6856 80.5736C55.6268 81.8694 55.1279 85.8019 55.1279 85.8019L50.8482 85.655L51.4303 80.199ZM49.2801 77.3575C50.1011 78.2947 50.0781 81.4125 49.3107 84.959C48.8716 84.8328 47.3266 84.2074 47.3266 84.2074C47.3266 84.2074 47.7192 76.8814 49.2801 77.3575ZM43.614 83.732C43.614 83.732 43.8136 77.5445 45.537 76.4977C46.3505 77.5055 46.6741 79.5328 45.8981 83.9042C45.1331 83.9155 44.3686 83.8579 43.614 83.732ZM55.7118 189.579L63.2167 167.458L63.4731 166.692L67.3272 190.922L70.4246 191.657L86.6737 220.488L70.2626 191.91L67.1669 191.158L63.3381 167.511L55.9585 189.574L31.2015 209.457L55.7118 189.579ZM20.7825 241.628C20.6868 242.079 19.6983 245.093 20.0233 245.843C19.8214 245.883 19.613 245.878 19.4138 245.825L19.273 248.113L18.8667 248.125L18.6767 251.32C18.8503 251.331 19.0239 251.299 19.1824 251.228C19.3409 251.156 19.4795 251.047 19.586 250.909C19.7792 251.033 19.7732 252.057 20.1047 252.298C19.7138 252.697 19.4476 253.201 19.3386 253.749C19.2359 254.191 18.3585 254.303 18.1825 254.539C18.0065 254.774 18.3669 255.638 18.1859 255.921C18.0049 256.203 17.682 256.327 17.7489 256.668C17.8158 257.008 18.6313 257.477 18.3424 257.803C18.0535 258.13 17.7914 258.205 17.7849 258.712C17.7784 259.22 18.0365 260.224 17.8627 260.364C17.7597 260.43 17.6787 260.525 17.63 260.637C17.5813 260.749 17.567 260.874 17.5891 260.994C17.6585 261.311 17.7872 262.039 17.7872 262.039L18.1028 262.43C18.1028 262.43 17.1015 262.736 17.5726 263.604L18.0533 263.862L17.3902 273.724L17.3793 273.826L16.8552 273.976L16.6826 275.593L18.0739 275.948L17.5875 280.954C17.5875 280.954 16.3945 280.676 15.9887 281.577C15.5829 282.479 13.5116 286.116 13.5116 286.116L13.79 287.377L9.78008 323.177L13.6091 287.286L13.2046 286.092C13.2046 286.092 15.1708 282.546 15.4814 282.015C15.7921 281.485 15.9746 280.742 17.401 280.767C17.5442 279.425 17.825 276.049 17.825 276.049L16.4438 275.6L16.6213 273.935L17.2139 273.665L17.8677 263.89C17.8677 263.89 17.1898 263.77 17.3839 262.917C17.4418 262.7 17.5811 262.513 17.7731 262.395C17.671 262.162 17.2586 260.966 17.4827 260.578C17.7068 260.189 17.8483 260.053 17.7576 259.638C17.6668 259.224 17.3867 258.574 17.7911 258.133C18.1954 257.692 18.2537 257.667 18.0004 257.362C17.7471 257.057 17.4242 256.586 17.7165 256.228C18.0087 255.87 18.1813 255.666 18.0547 255.216C17.928 254.766 17.6831 254.382 18.1019 254.252C18.5207 254.122 19.0657 254.149 19.1186 253.876C19.1714 253.604 19.0511 252.797 19.4345 252.552C19.8179 252.307 19.7943 252.083 19.6489 251.734C19.5035 251.385 19.7474 251.331 19.5113 251.386L18.6152 251.6L18.6895 248.074C18.6895 248.074 18.782 247.878 19.1666 247.919C19.2093 247.518 19.2466 245.68 19.2466 245.68C19.2466 245.68 19.7423 245.797 19.8665 245.675C19.803 245.303 19.3921 245.061 20.56 241.779C20.4057 241.588 20.2216 241.156 20.369 240.965C20.5164 240.774 21.5619 241.021 21.5619 241.021L22.5147 235.215L21.6741 241.16L20.5672 241.042C20.5672 241.042 20.3854 241.332 20.8139 241.632L20.7825 241.628ZM41.453 255.362C41.1387 255.479 40.8401 255.376 40.8625 255.91C40.8698 256.399 40.791 256.885 40.6299 257.346C40.2503 257.706 39.8304 258.021 39.3786 258.285C39.3786 258.285 40.3453 257.856 40.2967 258.311C40.161 258.807 40.1326 259.327 40.2136 259.835C40.4052 260.6 40.5265 261.381 40.576 262.168C40.5191 262.702 40.5191 262.702 40.1155 262.913C39.7119 263.124 39.3923 263.217 39.5714 263.696C39.7505 264.176 40.3625 264.17 40.4631 264.641C40.5636 265.112 39.6951 271.84 39.6951 271.84L33.3123 271.238L36.0249 245.811C36.0249 245.811 36.464 240.951 40.3828 240.909C41.4039 241.401 42.2327 242.218 42.739 243.232C42.8399 243.775 42.2062 245.399 42.3068 245.87C42.4074 246.341 41.7578 248.114 41.726 248.412C41.6941 248.71 41.0182 248.646 41.0182 248.646C41.0182 248.646 39.9987 250.761 40.7488 251.841C41.0401 251.946 41.3525 251.98 41.6594 251.938C41.817 251.876 41.5146 253.296 41.5146 253.296C41.5146 253.296 40.4137 253.568 41.1487 254.567C41.5329 254.91 41.8064 255.249 41.4844 255.365L41.453 255.362ZM49.006 240.678C48.6049 240.865 48.5404 241.469 48.6109 242.223C48.6813 242.977 48.2618 243.337 47.9612 243.996C47.6607 244.655 48.1605 245.7 48.1203 246.077C48.1089 246.185 48.0601 246.286 47.9824 246.361C47.9048 246.437 47.8031 246.484 47.6949 246.492L47.1279 251.807L46.8517 252.238C46.5763 252.661 47.3113 253.661 47.061 253.848C46.8107 254.036 46.6979 254.349 46.1546 254.903C45.6112 255.456 46.2066 255.829 46.4418 255.783C46.6769 255.737 46.9437 256.138 46.7624 256.349C46.5812 256.56 46.498 258.084 46.1269 258.735C46.0137 258.893 45.9559 259.084 45.9624 259.279C45.9689 259.473 46.0394 259.66 46.1629 259.81L46.0768 262.032L45.5433 262.047C45.0011 262.068 45.0123 263.451 45.0123 263.451L43.9288 263.486C43.9288 263.486 45.1866 245.296 45.5382 240.959C45.8897 236.621 47.5618 234.196 48.2148 233.805C49.5864 234.642 49.3006 238.065 49.3006 238.065C49.3006 238.065 49.4385 240.493 49.0374 240.681L49.006 240.678ZM49.5932 263.9L51.551 240.489C51.551 240.489 52.2844 234.358 55.5285 234.164C56.3052 234.326 58.3401 236.536 57.8469 241.16C57.3536 245.784 55.4964 264.681 55.4964 264.681L49.5932 263.9ZM62.977 265.709L59.0837 264.992C59.0837 264.992 60.4773 256.32 59.4445 255.209C59.073 254.375 59.6601 253.859 59.4734 253.45C59.2868 253.041 59.6464 253.317 59.8357 252.956C60.0175 252.394 60.1303 251.811 60.1716 251.222C60.2035 250.923 60.5062 249.574 60.2 249.541C59.8939 249.509 60.4644 247.807 60.1124 247.46C59.7605 247.113 61.0645 239.28 61.0645 239.28C61.0645 239.28 61.9626 235.922 63.6287 235.338C64.4108 236.004 65.008 236.86 65.3627 237.824C65.7174 238.789 65.8176 239.828 65.6537 240.842L62.977 265.709ZM68.9932 270.416L70.4895 248.948C70.4895 248.948 70.8857 245.235 72.9624 244.448C73.683 245.136 75.126 245.751 74.6812 249.919C74.2365 254.088 72.9122 270.818 72.9122 270.818L68.9932 270.416ZM71.5057 220.966L70.502 218.914L62.2281 216.912L51.2925 215.896L45.088 216.973L46.1938 218.44L46.2973 218.586L23.4213 216.448L23.6206 216.366L46.071 218.475L44.9335 216.932L51.3469 215.759L62.3514 216.798L70.6497 218.795L71.6386 220.837L87.4273 222.355L71.5057 220.966ZM80.6258 331.283L83.723 294.139L84.1777 288.463L81.0184 285.926L86.5688 224.82L86.7181 226.249L81.1616 285.775L84.4549 288.246L80.9136 330.52L80.6258 331.283ZM88.4124 190.051L88.3665 189.736L96.0225 192.395L88.4124 190.051ZM114.378 295.329L106.787 294.519L107.799 282.575C108.09 279.843 111.048 278.015 112.133 277.972C115.592 279.262 115.296 283.525 115.296 283.525L114.378 295.329ZM113.184 263.8L112.768 263.756L109.581 263.416L109.902 259.806L113.051 260.063L112.738 263.737L113.382 263.806L113.696 260.123L116.498 260.351L116.178 264.096L113.184 263.8ZM113.827 251.523L113.487 255.456L110.338 255.2L110.688 251.323L113.827 251.523ZM110.789 249.786L111.139 245.909L114.29 246.142L113.957 250.005L110.789 249.786ZM113.432 256.046L113.137 259.476L109.989 259.22L110.291 255.79L113.432 256.046ZM114.126 255.493L114.466 251.559L117.265 251.747L116.925 255.68L114.126 255.493ZM116.871 256.334L116.577 259.756L113.783 259.529L114.077 256.099L116.871 256.334ZM114.596 250.049L114.936 246.187L117.717 246.396L117.386 250.243L114.596 250.049ZM119.56 231.873L115.221 231.537L115.6 227.242L119.865 227.523L119.56 231.873ZM119.906 226.916L115.656 226.637L116.027 222.492L120.198 222.763L119.906 226.916ZM120.244 222.188L116.072 221.918L116.441 217.797L120.532 218.074L120.244 222.188ZM120.911 212.732L120.637 216.561L116.579 216.279L116.873 212.404L120.911 212.732ZM113.697 231.462L109.57 231.141L109.942 226.917L114.074 227.183L113.697 231.462ZM108.728 255.703L108.419 259.124L105.688 258.904L105.981 255.481L108.728 255.703ZM106.039 254.868L106.366 251.053L109.125 251.244L108.777 255.097L106.039 254.868ZM108.369 259.738L108.051 263.316L105.335 263.027L105.64 259.494L108.369 259.738ZM114.138 226.578L110.006 226.312L110.369 222.167L114.509 222.434L114.138 226.578ZM114.554 221.859L110.423 221.585L110.793 217.448L114.923 217.73L114.554 221.859ZM115.399 212.374L115.061 216.212L110.924 215.922L111.271 212.076L115.399 212.374ZM109.592 245.895L109.248 249.788L106.49 249.597L106.83 245.663L109.592 245.895ZM105.717 251.039L105.39 254.847L102.422 254.61L102.761 250.835L105.717 251.039ZM102.891 249.316L103.247 245.384L106.186 245.603L105.845 249.536L102.891 249.316ZM105.34 255.461L105.039 258.882L102.064 258.636L102.373 255.216L105.34 255.461ZM104.99 259.488L104.686 263.005L101.703 262.687L102.018 259.219L104.99 259.488ZM105.92 211.696L109.75 211.97L109.402 215.823L105.556 215.556L105.92 211.696ZM105.41 217.072L109.272 217.341L108.901 221.486L105.014 221.23L105.41 217.072ZM104.957 221.843L108.845 222.091L108.481 226.245L104.539 225.983L104.957 221.843ZM104.509 226.559L108.451 226.821L108.082 231.029L104.144 230.728L104.509 226.559ZM98.7151 282.138C98.7151 282.138 98.9976 277.777 102.671 277.351C104.72 277.57 106.194 281.022 106.008 282.765C105.822 284.508 104.99 294.391 104.99 294.391L97.7915 293.623L98.7151 282.138ZM95.0832 332.405C95.0832 332.405 96.6484 320.115 97.1729 313.263C97.8907 306.535 103.221 303.237 105.993 303.748C111.935 304.905 112.551 313.864 112.551 313.864L110.501 334.05L95.0832 332.405Z" fill="white"/>
</g>
<defs>
<clipPath id="clip0_2561_67338">
<rect width="134.212" height="324.95" fill="white" transform="translate(35.4258 0.938477) rotate(6.0895)"/>
</clipPath>
</defs>
</svg>
