<svg width="357" height="327" viewBox="0 0 357 327" fill="none" xmlns="http://www.w3.org/2000/svg">
<g filter="url(#filter0_d_2882_35679)">
<path d="M49.1103 193.1C49.1103 199.753 53.6948 205.146 59.3501 205.146C65.0053 205.146 69.5898 199.753 69.5898 193.1C69.5898 186.446 69.2217 181.053 63.5665 181.053C57.9112 181.053 49.1103 186.446 49.1103 193.1Z" fill="white"/>
<path d="M37.2223 188.484C43.1917 189.466 50.6926 188.516 52.7249 191.292C54.7571 194.068 54.5319 200.93 53.3272 202.737C50.5736 204.955 38.6308 204.925 38.6308 204.925" fill="white"/>
<path d="M37.8577 188.789C32.048 190.476 28.8621 192.912 27.1754 195.911C25.4887 198.909 25.4887 201.908 28.6747 203.969C31.6732 205.843 38.4199 205.281 38.4199 205.281" fill="white"/>
<path d="M37.8577 188.789C32.048 190.476 28.8621 192.912 27.1754 195.911C25.4887 198.909 25.4887 201.908 28.6747 203.969C31.6732 205.843 38.4199 205.281 38.4199 205.281" stroke="#1D1D1B" stroke-width="1.40557" stroke-miterlimit="10" stroke-linecap="round" stroke-linejoin="round"/>
<path d="M240.446 96.772C241.758 92.8364 243.258 89.0882 244.944 85.5274L246.444 83.0911C246.444 83.0911 255.627 91.3371 276.804 90.0253C297.981 88.7134 303.416 70.9095 298.543 57.7909C293.671 44.6723 278.116 40.1745 278.116 40.1745C278.116 40.1745 275.117 20.1217 246.256 14.6868C215.334 8.87714 208.025 23.1202 208.025 23.1202C208.025 23.1202 192.657 11.3135 169.418 18.2476C146.18 25.1817 152.926 46.5464 163.047 52.1686C173.167 57.7909 186.473 59.4776 186.473 59.4776C186.473 59.4776 175.041 74.0955 170.73 82.3415C166.42 90.5875 240.446 96.772 240.446 96.772Z" fill="white"/>
<path d="M163.046 52.3558C156.861 48.795 151.801 39.2371 154.425 30.8037C157.236 34.3645 160.61 37.5504 164.545 39.7993C173.728 45.0468 184.785 45.4216 194.156 40.549C194.156 40.549 197.529 44.4846 208.774 47.2957C214.958 49.1698 221.517 49.3572 227.889 47.6705C231.263 53.4802 235.761 58.5403 241.383 62.2884C250.191 68.2855 270.993 76.7189 284.862 69.0352C291.421 65.8492 295.544 59.1025 295.357 51.7935C296.669 53.6676 297.793 55.5417 298.543 57.6032C303.415 70.7218 298.168 88.5257 276.991 89.8376C255.813 91.1494 246.068 82.3412 246.068 82.3412C246.068 82.3412 245.131 84.4027 243.257 89.2753C241.945 92.6487 240.446 96.7717 240.446 96.7717C240.446 96.7717 233.324 96.2095 223.579 95.085C223.017 93.3983 223.017 91.5242 223.579 89.8376C225.828 83.4657 228.826 69.2226 228.826 69.2226C227.14 68.0981 225.64 66.7863 224.329 65.287C222.455 63.4129 221.143 60.9766 220.393 58.5403C220.393 58.5403 216.832 59.2899 206.9 58.1654C201.465 57.6032 196.03 56.2913 190.97 54.2298L188.534 59.1025L186.285 59.8521V59.6647C186.285 59.6647 172.979 58.1654 163.046 52.3558Z" fill="#E6F2FC"/>
<path d="M271.744 78.9682C271.744 78.9682 259 82.9037 243.258 73.7207C227.516 64.5377 225.079 54.605 225.079 54.605" stroke="#1D1D1B" stroke-width="1.40557" stroke-linecap="round" stroke-linejoin="round"/>
<path d="M202.028 31.7411C202.028 31.7411 202.965 26.4937 211.398 20.4966" stroke="#1D1D1B" stroke-width="1.40557" stroke-linecap="round" stroke-linejoin="round"/>
<path d="M240.446 96.7715C240.446 96.7715 242.507 91.1492 244.007 87.9633C244.756 86.2766 245.693 84.5899 246.63 83.0906C246.63 83.0906 255.813 91.3366 276.991 90.0248C298.168 88.7129 303.415 70.9091 298.543 57.7904C293.67 44.6718 278.115 40.174 278.115 40.174C278.115 40.174 275.116 19.9338 246.255 14.6863C220.768 10.0011 208.024 23.1197 208.024 23.1197C208.024 23.1197 192.657 11.313 169.418 18.2471C146.179 25.1812 152.926 46.5459 163.046 52.1682C173.166 57.7904 186.472 59.4771 186.472 59.4771C186.472 59.4771 175.04 74.095 170.73 82.341C166.419 90.587 240.446 96.7715 240.446 96.7715Z" stroke="#1D1D1B" stroke-width="1.40557" stroke-miterlimit="10"/>
<path fill-rule="evenodd" clip-rule="evenodd" d="M116.756 211.842C114.132 211.654 108.135 207.531 102.888 203.221C95.9536 197.411 88.2698 191.414 88.2698 191.414C88.2698 191.414 83.0223 202.284 78.1497 207.531C73.2771 212.779 71.2156 212.966 71.2156 212.966C78.1497 224.585 86.5831 234.893 96.5158 244.076C106.636 253.072 113.383 256.445 122.378 255.883C132.498 255.321 139.62 242.015 140.557 238.641C141.494 235.268 148.053 193.288 148.616 188.79C149.178 184.293 149.178 181.107 149.178 181.107L142.431 177.358C142.431 177.546 122.753 212.029 116.756 211.842Z" fill="#E9E9E9"/>
<path d="M129.501 198.161C136.06 188.603 142.432 177.358 142.432 177.358L151.428 181.294C149.928 183.543 148.991 186.167 148.617 188.79C148.429 190.477 147.305 197.973 145.805 206.594C143.744 204.72 141.308 203.033 138.871 201.722C135.873 200.41 132.687 199.098 129.501 198.161Z" fill="#004E96"/>
<path d="M114.508 211.278C115.258 211.653 116.007 211.84 116.757 211.84C117.882 211.84 119.568 210.528 121.63 208.467C125.565 210.341 129.313 212.402 132.874 214.839C136.622 217.275 139.996 220.086 143.369 223.085C142.057 230.956 140.933 237.515 140.558 238.64C139.621 242.013 132.499 255.319 122.379 255.881C115.82 256.256 110.573 254.382 104.013 249.884C107.949 243.7 110.947 237.14 113.009 230.206C114.696 224.022 115.07 217.65 114.508 211.278Z" fill="#004E96"/>
<path d="M78.1487 207.531C83.0214 202.284 88.2688 191.414 88.2688 191.414C88.2688 191.414 95.9526 197.411 102.887 203.221C102.699 209.593 100.45 215.59 96.7022 220.65C93.5163 225.148 88.831 228.708 83.5836 230.583C78.8984 225.148 74.7754 219.151 71.2146 212.966C71.0272 212.966 73.2761 212.591 78.1487 207.531Z" fill="#004E96"/>
<path d="M113.009 210.529C114.883 211.466 116.944 212.029 119.193 212.403C120.505 212.591 121.63 212.591 122.941 212.403" stroke="#1D1D1B" stroke-width="1.40557" stroke-linecap="round" stroke-linejoin="round"/>
<path d="M116.755 211.842C114.132 211.654 108.135 207.531 102.887 203.221C95.9531 197.411 88.2693 191.414 88.2693 191.414C88.2693 191.414 83.0218 202.284 78.1492 207.531C73.2766 212.779 71.2151 212.966 71.2151 212.966C78.1492 224.585 86.5826 234.893 96.5153 244.076C106.635 253.072 113.382 256.445 122.378 255.883C132.498 255.321 139.619 242.015 140.556 238.641C141.493 235.268 148.99 193.663 149.552 189.165C149.739 186.541 150.677 184.105 152.176 181.856L142.805 177.358C142.618 177.358 122.753 212.029 116.755 211.842Z" stroke="#1D1D1B" stroke-width="1.40557" stroke-miterlimit="10"/>
<path fill-rule="evenodd" clip-rule="evenodd" d="M191.908 381.633C185.911 381.258 176.541 377.885 162.11 367.952C158.175 365.141 137.56 364.391 135.123 356.708C130.813 343.027 127.814 328.784 126.315 314.353C124.816 298.611 123.504 284.743 127.44 263.003C129.501 251.384 135.123 228.145 138.497 219.337C142.057 209.966 146.555 190.101 152.178 181.855C160.986 168.736 191.346 171.735 209.525 174.359C226.766 176.795 234.638 192.912 238.198 203.407C242.321 216.338 236.886 248.385 236.699 263.003C236.512 274.248 238.011 287.929 238.948 297.674C239.698 305.545 242.134 321.287 244.008 335.156C244.945 343.402 244.383 351.835 242.509 360.081C240.26 371.138 197.905 382.008 191.908 381.633Z" fill="#E9E9E9"/>
<path fill-rule="evenodd" clip-rule="evenodd" d="M241.195 314.729C241.195 314.729 235.947 316.791 216.457 319.602C200.34 322.225 180.287 324.099 161.733 325.037C139.244 326.161 127.438 324.099 127.438 324.099C127.438 324.099 128.937 330.846 129.687 334.22C131.373 340.966 133.435 350.524 133.435 349.774C152.176 352.773 171.104 353.898 190.032 353.335C208.398 352.586 226.764 349.587 244.381 344.34C244.381 344.34 243.819 334.407 242.694 327.66C241.757 322.038 241.195 314.729 241.195 314.729Z" fill="#004E96"/>
<path fill-rule="evenodd" clip-rule="evenodd" d="M236.51 266.564C236.51 266.564 225.078 264.877 200.902 264.69C183.473 264.502 170.73 264.69 154.8 264.127C138.87 263.565 126.876 264.127 126.876 264.127C126.876 264.127 125.939 269.937 125.377 277.433C125.002 284.18 124.814 290.365 124.814 290.365C133.81 291.864 142.993 292.614 152.176 292.801C169.418 292.988 180.288 292.239 204.463 290.927C215.52 290.365 226.578 289.428 237.447 287.553C237.447 287.553 237.26 279.682 236.698 275.747C236.51 272.748 236.51 269.562 236.51 266.564Z" fill="#004E96"/>
<path fill-rule="evenodd" clip-rule="evenodd" d="M240.822 219.899C240.822 219.899 222.644 215.963 214.585 214.464C203.528 212.403 192.096 210.903 180.851 210.341C167.545 209.779 154.427 209.779 141.121 210.529C140.371 214.277 139.247 218.025 137.747 221.773C136.248 225.896 135.124 230.207 134.187 234.33C134.187 234.33 139.434 232.081 168.857 232.268C183.85 232.455 204.465 235.454 209.338 235.829C219.458 236.578 229.39 238.827 238.761 242.576C238.761 242.576 238.761 232.83 239.323 227.77C239.698 224.959 240.822 219.899 240.822 219.899Z" fill="#004E96"/>
<path d="M151.053 183.542C148.991 184.667 146.555 193.475 144.494 197.973C142.619 202.096 141.308 207.906 139.059 213.903C136.435 221.024 132.687 235.83 131 242.764C126.127 263.566 125.003 270.875 124.628 278.184C123.691 295.238 124.628 312.292 127.439 328.972C128.376 334.219 130.625 342.653 132.499 349.399C133.999 355.022 134.936 359.707 135.873 359.145C136.81 358.583 131.75 338.905 129.501 328.597C126.69 313.23 125.565 297.675 126.315 281.932C126.69 272.562 128.564 261.13 132.312 245.387C134.186 237.516 137.372 225.709 141.12 214.465C142.619 210.342 143.744 205.469 146.742 197.973C148.617 193.663 153.114 182.418 151.053 183.542Z" fill="#1D1D1B"/>
<path d="M234.636 193.288C237.634 198.16 241.757 208.468 240.633 222.711C238.946 243.138 237.634 252.134 237.447 255.882C236.885 267.689 238.759 285.493 239.696 294.114C241.57 311.543 242.694 324.849 243.631 330.096C244.568 335.344 244.568 365.142 244.194 375.824C244.194 376.386 241.757 373.763 242.132 370.951C243.257 362.705 242.132 333.095 241.757 329.909C240.633 320.538 238.196 301.61 237.634 294.301C236.885 285.493 235.385 271.812 235.948 258.881C236.135 252.884 238.009 232.456 239.134 222.149C240.258 212.029 238.009 201.721 232.762 192.913C230.513 189.165 219.268 176.796 222.642 179.794C227.139 183.73 231.262 188.228 234.636 193.288Z" fill="#1D1D1B"/>
<path d="M142.618 71.6589C141.868 72.0338 141.868 74.0953 141.681 76.9064C141.493 79.7175 141.306 81.5916 141.306 83.8405C141.306 86.6517 141.118 90.3998 141.306 92.6488C141.493 95.2725 141.681 99.5829 143.18 102.207C145.054 105.58 153.487 98.0836 154.05 94.5228C154.237 92.2739 153.487 90.025 152.176 87.9635C151.426 86.8391 150.676 85.3398 149.364 82.7161C148.053 80.0924 147.49 78.9679 145.804 75.5945C144.117 72.2212 143.367 71.4715 142.618 71.6589Z" fill="#F4ACBB"/>
<path d="M162.484 81.0299C160.985 80.4677 157.612 78.9684 154.613 77.6566C152.364 76.7195 150.303 75.5951 148.241 74.2832C147.117 73.5336 145.055 72.0343 144.493 72.5965C143.931 73.1587 145.618 75.0328 146.555 77.2817C147.679 80.0929 148.991 82.7166 150.678 85.1529C151.99 87.2144 153.489 92.0871 155.363 91.5248C157.237 90.9626 161.922 88.3389 163.047 86.2774C164.171 84.5907 163.984 81.5921 162.484 81.0299Z" fill="#004E96"/>
<path d="M163.61 81.9664C162.11 81.5916 160.424 81.0294 158.924 80.4672C156.301 79.3427 153.864 78.2182 151.428 76.9064C148.429 75.4071 146.368 73.533 145.993 73.9078C145.618 74.2827 146.743 76.1568 148.429 79.3427C150.116 82.5287 151.241 84.7776 152.552 87.0265C153.302 88.1509 153.864 89.2754 154.427 90.3998C154.801 91.5243 154.239 92.0865 153.302 90.7747C152.365 89.4628 151.99 87.9635 151.053 86.2768C150.116 84.5902 147.492 80.4672 146.743 78.5931C145.806 76.5316 144.681 74.6575 143.182 73.1582C142.432 73.3456 142.245 78.9679 142.245 80.842C142.245 82.7161 141.87 89.4628 142.058 93.0236C142.058 95.8347 142.432 98.6458 143.369 101.457C143.932 102.581 143.369 103.144 142.807 102.769C142.245 102.394 141.87 101.27 141.308 97.7088C140.933 94.7103 140.746 91.5243 140.746 88.5257C140.746 86.2768 140.933 80.842 140.933 78.7805C140.933 76.719 141.308 71.6589 142.432 71.2841C143.182 70.9093 144.306 71.6589 145.806 72.596C147.305 73.3456 149.741 74.6575 151.428 75.5945L157.425 78.5931C160.798 79.9049 163.797 80.4672 164.547 80.842C165.296 81.2168 164.359 82.1538 163.61 81.9664Z" fill="#1D1D1B"/>
<path d="M247.381 113.077C249.443 111.952 251.692 111.015 253.941 110.453C256.19 109.516 261.437 106.892 264.248 105.581L272.682 101.458C272.682 101.458 272.119 104.081 271.557 105.581C270.245 108.392 268.933 111.203 267.247 113.827C266.122 115.888 264.436 118.887 262.936 120.948C260.875 124.134 258.626 126.945 256.19 129.756C255.065 130.693 253.379 130.881 252.067 130.319C249.63 128.819 247.569 126.57 246.444 123.947C245.882 121.698 245.695 119.449 245.695 117.2C246.257 115.701 246.632 114.389 247.381 113.077Z" fill="#F4ACBB"/>
<path d="M249.255 111.952C251.129 111.015 256.002 109.515 258.251 108.391C260.499 107.266 267.246 104.08 268.558 103.518C269.87 102.956 270.994 102.394 271.931 101.644C272.119 101.269 272.119 100.707 271.182 100.52C270.245 100.332 267.059 99.9575 262.936 99.7701C258.813 99.5827 253.003 98.4582 249.442 98.2708C245.882 98.0834 244.007 97.896 242.508 97.896C241.009 97.896 238.76 102.581 239.697 106.142C240.634 109.703 242.321 112.139 244.007 112.514C245.882 113.076 247.756 112.889 249.255 111.952Z" fill="#004E96"/>
<path d="M241.945 97.7085C241.57 98.2707 242.694 98.6456 244.381 98.6456C246.817 98.6456 253.751 99.2078 255.813 99.3952C257.874 99.5826 271.181 100.52 271.181 100.894C268.744 102.394 266.12 103.893 263.497 105.017C257.874 108.016 247.567 111.202 247.005 112.139C246.443 113.076 247.567 113.451 248.129 113.263C249.441 112.701 250.566 112.139 251.877 111.764C253.189 111.389 264.996 105.955 266.308 105.205C269.306 103.706 271.368 102.019 271.743 102.206C272.118 102.394 271.555 103.706 270.806 105.955C270.056 108.203 268.557 110.078 267.62 111.952C266.683 113.826 261.623 122.072 260.311 123.571C258.999 125.07 257.5 127.319 256.563 128.444C255.626 129.568 254.876 130.13 254.876 130.693C254.876 131.255 255.063 131.255 256 130.88C256.937 130.505 260.123 125.445 261.248 124.321C263.872 120.76 266.308 117.012 268.369 113.076C269.119 111.389 271.743 105.955 272.118 104.643C272.68 103.518 272.867 102.206 272.867 101.082C271.743 100.332 270.431 99.9574 269.119 99.77C267.62 99.5826 262.56 99.2078 259.561 98.833C256.563 98.4581 250.003 97.7085 248.129 97.5211C246.255 97.3337 244.006 97.3337 243.257 97.3337C242.507 97.3337 242.32 97.1463 241.945 97.7085Z" fill="#1D1D1B"/>
<path fill-rule="evenodd" clip-rule="evenodd" d="M163.797 81.5918C163.797 81.5918 161.174 83.8407 158.175 85.9022C155.177 88.3385 152.553 91.1497 149.929 93.9608L144.869 100.145L138.122 108.016C138.122 108.016 132.313 115.7 130.251 117.949C128.19 120.198 124.629 126.945 123.13 129.194C121.256 132.38 119.756 135.566 118.632 139.126C117.882 141.563 118.444 145.123 119.381 145.498C120.318 145.873 122.755 143.437 122.755 143.437C122.755 143.437 123.879 146.623 124.441 148.122C125.941 152.058 127.815 155.993 130.064 159.741C133.812 165.364 137.935 170.611 142.808 175.296C146.931 179.045 158.363 183.73 164.172 185.416C173.168 188.04 186.286 188.415 197.156 188.602C205.215 188.79 222.082 185.979 230.515 184.479C233.326 183.917 229.391 191.039 231.077 190.476C234.638 189.352 237.824 187.478 240.448 185.042C241.572 184.292 247.757 179.232 247.757 179.232C247.757 179.232 248.131 186.541 248.881 185.604C251.13 182.043 253.192 178.295 254.878 174.547L257.314 168.924L259.938 174.172C259.938 174.172 260.5 171.736 260.875 170.049C261.25 167.238 261.438 164.239 261.438 161.428C261.438 159.367 261.063 148.309 259.938 145.873C258.814 143.437 256.003 132.754 255.44 130.88C254.878 129.006 248.881 116.825 247.007 111.577C246.257 109.516 249.256 108.579 247.382 105.018C246.07 102.207 244.571 99.7705 242.509 97.5216C240.635 95.8349 231.265 89.0882 227.142 86.6519C220.02 82.9037 212.336 80.2799 204.465 78.7807C197.156 77.4688 189.66 77.094 182.351 77.4688C175.979 78.031 169.794 79.3429 163.797 81.5918Z" fill="#004E96"/>
<path fill-rule="evenodd" clip-rule="evenodd" d="M164.172 82.1543C169.045 80.2803 174.292 79.1558 179.54 78.5936C187.973 77.6565 196.594 78.0313 205.027 79.5306C212.149 80.8425 219.27 83.0914 225.642 86.6522C233.139 90.9626 242.697 98.2715 243.259 98.6463C244.383 99.0212 243.634 97.3345 241.76 96.0226C239.511 94.3359 233.139 90.2129 227.704 86.6522C221.707 83.0914 215.335 80.4677 208.588 78.781C194.345 76.1573 189.472 75.9698 180.102 77.0943C174.667 77.6565 169.232 78.9684 164.172 80.8425C162.673 81.4047 163.235 82.5292 164.172 82.1543Z" fill="#1D1D1B"/>
<path fill-rule="evenodd" clip-rule="evenodd" d="M149.365 93.9609C148.99 93.2113 147.491 95.4602 146.741 96.9595C145.992 98.4587 142.244 102.582 140.182 105.205C138.683 106.892 132.686 114.576 130.999 116.825C128.001 120.76 125.377 124.883 123.128 129.194C121.629 132.38 119.755 134.816 119.192 138.377C118.63 141.563 119.005 145.873 119.755 145.498C121.066 144.749 122.378 143.812 123.503 142.875C123.503 142.875 125.377 147.185 126.126 148.872C126.876 150.558 134.185 166.113 141.681 171.736C149.178 177.358 171.667 189.352 186.097 189.914C195.468 190.289 205.026 189.727 214.209 187.853C219.644 186.728 225.078 185.979 230.513 185.604C232.013 185.604 229.014 191.976 230.513 191.601C236.51 190.664 246.631 180.731 247.193 181.106C247.755 181.481 247.38 187.478 247.942 187.665C248.879 187.853 252.065 182.793 253.565 179.982C255.064 176.796 257.5 170.986 257.5 170.986C257.5 170.986 258.999 175.109 260.311 175.109C261.623 175.109 261.998 162.927 261.998 160.679C261.623 154.681 260.686 148.684 259.749 142.875C258.062 136.128 255.814 129.569 253.002 123.197C250.754 118.324 248.692 111.577 247.38 112.14C246.631 112.514 249.254 117.387 250.191 119.823C251.128 121.885 253.939 128.257 255.064 131.63C256.188 135.003 257.688 140.438 258.812 144.374C259.937 149.434 260.499 154.494 260.499 159.554C260.499 162.927 260.499 170.799 259.562 171.173C258.625 171.548 258.437 167.05 257.5 167.238C256.563 167.425 256.751 169.862 254.314 174.359C251.878 178.857 250.191 183.168 249.254 183.542C248.317 183.917 249.254 177.545 248.692 177.545C248.13 177.545 245.506 181.294 239.884 184.854C237.635 186.354 234.824 188.79 232.2 189.54C231.263 189.727 233.699 183.917 231.638 183.917C226.765 183.917 216.083 186.354 212.897 187.103C203.901 188.977 194.718 189.54 185.535 188.977C171.854 187.478 149.553 175.671 143.368 170.986C133.998 164.052 128.001 151.121 126.876 148.122C125.377 143.999 124.627 140.064 123.503 140.251C122.378 140.438 120.879 142.312 120.317 142.312C119.755 142.312 119.942 138.752 121.066 136.503C122.191 134.254 124.065 130.131 125.752 126.945C128.188 122.822 130.812 118.886 133.623 114.951C136.621 111.203 141.494 105.58 143.556 103.331C147.679 99.021 149.74 94.7105 149.365 93.9609Z" fill="#1D1D1B"/>
<path d="M190.97 129.568C191.157 123.009 193.219 116.824 196.967 111.389C200.153 106.892 204.838 105.018 208.212 105.392C212.522 106.142 216.458 110.827 215.895 120.01C215.333 129.006 212.147 134.066 207.837 138.002C203.526 141.937 190.408 143.624 190.97 129.568Z" fill="#1D1D1B"/>
<path d="M196.405 137.627C193.781 135.94 191.907 133.504 192.095 128.444C192.469 121.885 195.093 115.513 199.404 110.64C202.964 107.267 205.963 105.58 209.898 107.642C215.146 110.265 215.146 117.762 213.459 125.446C212.147 131.068 210.273 135.191 206.525 137.252C203.339 138.939 199.591 139.689 196.405 137.627Z" fill="white"/>
<path d="M214.399 118.136C214.024 116.262 212.524 114.576 210.65 114.013C207.277 112.889 203.529 114.013 201.28 116.825C198.281 120.011 196.595 124.133 196.407 128.444C195.283 138.377 204.653 139.501 207.464 137.252C210.276 134.628 212.337 131.255 213.461 127.507C214.399 124.883 215.523 122.072 214.399 118.136Z" fill="url(#paint0_radial_2882_35679)"/>
<path d="M201.09 130.318C200.716 127.32 201.465 124.321 203.339 122.072C204.651 120.386 206.713 119.636 208.774 120.198C211.023 120.948 212.147 123.946 211.585 127.695C211.21 130.131 210.086 132.38 208.212 133.879C206.15 135.191 203.339 134.629 202.027 132.567C201.278 132.005 201.09 131.068 201.09 130.318Z" fill="#1D1D1B"/>
<path d="M210.273 119.448C208.961 119.636 207.836 120.573 207.462 121.885C207.087 123.384 207.461 124.883 208.586 126.008C209.898 126.945 211.584 126.757 212.709 125.82C215.145 123.571 213.646 119.073 210.273 119.448Z" fill="#F9FBFE"/>
<path d="M213.646 128.445C211.772 133.13 209.523 137.253 205.963 138.94C202.402 140.626 194.905 135.941 195.842 128.819C196.592 122.448 198.091 118.325 201.84 115.139C204.651 112.327 208.961 111.765 212.334 114.014C215.333 116.263 216.27 121.885 213.646 128.445ZM212.522 128.819C213.646 126.008 215.146 123.759 214.396 119.824C214.209 117.762 213.084 115.888 211.397 114.764C208.399 113.452 204.838 114.202 202.402 116.45C199.403 119.636 197.529 123.572 197.154 128.07C195.842 137.065 203.714 139.314 207.087 137.253C210.46 135.191 211.397 131.631 212.522 128.819Z" fill="black"/>
<path d="M149.366 122.447C149.179 116.075 150.865 109.703 154.239 104.081C157.425 98.646 160.423 96.5845 164.171 97.3342C168.669 98.2712 171.668 104.831 170.731 113.451C170.168 119.074 169.044 126.383 165.483 130.318C161.922 134.254 149.928 134.816 149.366 122.447Z" fill="#1D1D1B"/>
<path d="M151.801 129.568C150.115 127.319 150.115 125.07 150.864 118.324C151.239 112.889 153.113 107.454 156.299 102.956C159.11 99.3954 161.547 97.3339 165.107 99.208C169.605 101.644 170.167 112.327 168.856 119.261C167.919 124.508 165.295 128.631 162.109 130.318C158.923 132.005 153.675 132.005 151.801 129.568Z" fill="white"/>
<path d="M166.044 104.643C163.046 104.081 160.047 105.58 158.361 108.016C155.924 111.39 154.613 115.7 154.987 120.01C155.362 123.759 158.548 126.382 162.296 126.008C162.671 126.008 162.859 126.008 163.233 125.82C166.419 125.258 169.605 122.259 169.793 117.199C169.793 111.39 170.73 105.955 166.044 104.643Z" fill="url(#paint1_radial_2882_35679)"/>
<path d="M158.736 117.386C158.736 114.95 159.861 112.514 161.547 110.64C163.234 109.14 164.921 108.578 166.42 109.703C167.919 110.827 168.107 113.263 166.982 117.199C166.233 120.197 165.67 121.322 163.609 122.446C161.36 123.946 158.361 120.947 158.736 117.386Z" fill="#1D1D1B"/>
<path d="M164.359 115.701C163.235 114.576 163.047 112.889 163.797 111.578C164.547 110.078 166.233 109.516 167.733 110.266C168.482 110.64 169.044 111.203 169.232 111.952C169.982 113.452 169.419 115.326 167.92 116.075C166.796 116.638 165.296 116.638 164.359 115.701Z" fill="#F9FBFE"/>
<path d="M170.542 118.136C170.355 121.135 168.856 123.758 166.419 125.258C164.733 126.569 159.86 126.757 157.236 125.258C155.175 123.758 154.05 121.322 154.238 118.698C154.05 114.2 155.737 109.703 158.923 106.517C160.984 103.893 164.545 103.143 167.544 104.643C170.167 106.142 171.667 112.139 170.542 118.136ZM169.043 117.761C169.605 111.952 170.355 106.891 166.419 105.392C164.17 104.455 160.422 105.954 158.548 108.766C156.112 111.951 154.987 116.074 155.549 120.197C156.112 125.445 160.047 125.82 163.046 125.445C166.044 125.07 168.668 122.072 169.043 117.761Z" fill="black"/>
<path fill-rule="evenodd" clip-rule="evenodd" d="M247.381 168.175C247.006 168.924 243.82 165.551 243.445 166.113C243.07 166.675 243.445 168.362 243.633 169.486C243.633 171.548 243.445 173.609 242.883 175.671C242.321 177.545 241.946 178.669 241.384 178.857C240.822 179.044 240.072 174.359 238.947 174.546C238.198 174.546 237.261 178.107 236.511 179.419C235.012 182.043 233.138 184.479 231.076 186.728C229.764 187.852 228.265 188.602 226.578 188.977C226.204 188.977 226.953 186.915 226.391 186.915C225.829 186.915 220.394 188.602 218.145 189.164C211.773 190.476 205.401 191.226 198.842 191.788C188.534 191.975 178.227 191.038 167.919 189.164C161.36 188.04 155.176 185.791 149.179 182.98C146.742 181.481 137.747 174.546 136.435 172.298C135.123 170.236 133.624 168.362 132.124 166.675C131.562 166.675 130.812 171.173 130.438 171.36C130.063 171.548 128.751 168.924 128.376 167.987C127.626 165.926 126.877 163.864 126.315 161.615C125.94 160.116 126.315 157.305 125.752 157.305C125.19 157.305 124.253 161.615 123.503 161.24C122.754 160.866 121.442 155.056 121.255 152.994C121.067 150.933 121.442 146.06 120.692 146.435C119.943 146.81 116.195 151.308 116.195 150.183C116.195 149.059 116.757 141.375 119.568 137.627C121.629 135.003 123.878 132.567 126.315 130.318C128.751 128.631 131.375 127.132 134.186 126.195C137.372 125.07 140.933 124.508 144.306 124.321C146.555 124.321 148.804 124.508 151.053 125.07C151.053 125.258 157.987 126.757 167.357 128.631C174.666 130.13 181.788 132.192 189.097 133.316C197.905 134.628 202.965 135.003 203.715 135.003C207.463 135.378 211.211 136.128 214.584 137.439C217.583 138.564 221.331 139.876 224.33 141.375C227.89 143.249 231.451 145.498 234.637 148.122C237.636 150.745 240.447 153.557 242.883 156.743C244.945 160.303 246.444 164.052 247.381 168.175Z" fill="white"/>
<path fill-rule="evenodd" clip-rule="evenodd" d="M194.906 134.816C199.966 134.254 205.214 134.629 210.274 135.941C216.458 137.44 227.141 141.188 231.826 145.311C235.762 148.685 239.51 152.246 242.883 156.181C246.257 160.304 248.505 168.925 247.943 169.487C247.381 170.049 244.757 166.301 244.195 167.051C243.633 167.8 244.008 167.238 244.195 170.424C244.382 172.111 244.008 173.985 243.445 175.672C243.071 177.358 241.946 180.169 240.822 180.169C239.697 180.169 238.948 175.297 238.573 175.859C238.198 176.421 235.949 182.231 233.7 184.292C232.201 186.167 230.327 187.666 228.078 188.79C226.953 189.352 225.267 190.29 224.704 190.102C224.142 189.915 224.892 187.853 224.892 187.853C224.892 187.853 223.205 188.603 220.581 189.54C214.959 190.852 209.15 191.789 203.34 192.164C199.217 192.538 185.161 193.288 176.915 191.601C167.92 189.727 163.234 189.54 155.176 186.541C149.741 184.667 144.681 181.856 140.37 177.921C136.81 174.735 132.499 168.363 132.124 168.363C131.75 168.363 131.375 172.298 130.625 172.673C129.875 173.048 128.376 170.049 127.439 168.175C126.315 165.364 125.752 160.117 125.003 160.491C124.253 160.866 124.441 162.553 123.316 162.553C122.192 162.553 120.88 157.306 120.505 155.057C119.943 151.871 120.318 148.123 119.568 147.935C119.193 147.935 116.757 152.433 115.82 152.058C114.321 151.308 116.195 141.751 118.069 138.377C120.318 135.004 123.129 132.005 126.502 129.569C130.063 127.508 133.811 125.821 137.747 124.884C141.682 124.134 145.993 124.134 149.928 125.259C152.552 126.383 153.302 127.32 152.739 127.695C152.177 128.07 150.865 126.57 148.804 126.008C145.805 125.259 142.619 125.259 139.433 125.633C135.31 126.383 131.375 127.882 127.814 130.131C124.815 132.193 122.192 134.816 119.943 137.628C118.069 141.188 116.944 144.937 116.382 148.872C116.569 149.434 119.943 144.937 120.88 145.311C121.817 145.686 121.629 148.685 121.442 149.997C121.255 151.308 122.192 159.367 123.316 159.554C123.878 159.554 124.628 155.619 125.565 155.806C126.502 155.994 126.877 162.178 127.439 164.427C127.814 166.489 128.751 168.175 129.875 169.862C130.438 169.862 130.625 165.739 131.562 165.552C132.874 165.552 134.186 169.112 136.997 172.298C141.307 177.171 146.367 181.106 152.177 183.918C158.174 186.916 163.047 187.666 169.794 189.352C176.54 191.039 188.347 191.227 193.595 191.227C200.529 191.227 207.463 190.664 214.21 189.54C217.958 188.79 221.706 187.666 225.267 186.354C225.267 186.354 226.953 185.604 227.703 185.604C228.453 185.604 227.141 187.478 227.516 187.666C229.765 186.729 231.826 185.23 233.138 183.168C234.825 180.544 236.511 177.921 237.823 175.109C238.011 174.36 238.198 173.048 239.135 173.423C240.072 173.798 241.009 177.546 241.571 177.358C242.134 177.171 242.508 174.547 242.696 173.048C243.258 171.174 243.258 169.112 242.883 167.051C242.508 165.552 242.134 164.427 243.633 164.989C245.132 165.552 246.069 166.676 246.444 166.301C246.819 165.926 243.633 159.18 241.759 156.931C238.948 153.183 235.574 149.809 232.013 146.998C225.829 142.875 219.082 139.689 211.773 137.628C206.526 136.128 201.091 135.566 195.469 135.941C193.782 135.941 193.782 135.004 194.906 134.816Z" fill="#1D1D1B"/>
<path fill-rule="evenodd" clip-rule="evenodd" d="M196.407 148.871C196.407 148.871 194.908 149.246 189.098 150.183C186.849 150.558 182.913 150.558 181.227 150.558C178.79 150.558 176.354 150.183 174.105 149.621C172.231 148.684 170.544 147.559 169.045 146.06C169.045 146.06 163.985 147.934 162.673 148.122C161.361 148.309 156.114 149.246 156.114 149.246C156.114 149.246 157.988 153.556 158.738 155.056C159.487 156.555 161.361 161.053 162.861 164.426C163.798 166.862 165.11 171.173 167.171 172.86C169.045 174.171 171.481 174.734 173.543 173.984C178.041 173.047 182.351 169.111 184.413 166.862C186.849 164.239 188.911 161.428 190.785 158.429C192.846 155.056 195.095 151.87 197.719 149.059L196.407 148.871Z" fill="#790B19"/>
<path fill-rule="evenodd" clip-rule="evenodd" d="M177.664 161.803C176.727 161.053 175.602 160.679 174.478 161.053C172.416 161.428 170.355 162.178 168.856 163.677C167.169 164.989 165.67 166.863 164.545 168.737C164.733 170.986 166.044 172.86 167.918 173.797C170.542 174.734 173.353 174.547 175.79 173.235C178.601 172.298 181.225 170.424 183.099 168.175C185.16 165.926 187.222 163.49 189.096 160.866C188.159 160.116 187.222 159.554 185.91 159.367C184.223 158.992 182.536 158.992 181.037 159.742C179.913 160.491 178.601 161.053 177.664 161.803Z" fill="#F191A3"/>
<path fill-rule="evenodd" clip-rule="evenodd" d="M206.525 137.065C205.026 133.879 199.216 130.693 199.216 130.693C199.216 130.693 196.03 128.819 193.969 127.694C190.783 126.008 187.409 124.508 184.036 123.197C181.412 122.447 178.601 121.885 175.79 121.697C166.794 121.323 166.232 122.822 163.796 123.197C160.797 123.197 157.799 123.571 154.8 124.321C152.176 125.446 149.74 126.945 147.491 128.631C145.617 130.318 144.118 132.38 143.181 134.629C142.244 137.065 142.431 139.689 143.368 141.938C144.305 143.999 145.992 145.873 148.053 146.998C150.49 148.497 153.301 149.434 156.299 149.246C159.111 149.059 161.922 148.684 164.545 147.935C166.045 147.56 167.731 146.998 169.231 146.248C170.542 147.56 172.042 148.684 173.541 149.434C176.54 150.558 179.913 150.933 183.286 150.558C187.034 150.371 190.595 149.809 193.406 149.434C196.592 149.059 199.216 148.684 199.216 148.684C200.341 148.497 201.465 147.747 202.027 146.81C202.777 144.936 208.024 140.251 206.525 137.065Z" fill="white"/>
<path fill-rule="evenodd" clip-rule="evenodd" d="M156.487 149.247C156.112 148.685 155.175 148.872 155.55 149.622C156.3 150.934 157.049 152.246 157.612 153.745C158.174 155.244 160.235 159.367 160.61 161.054C160.985 162.74 163.796 168.738 164.358 170.424C164.921 172.111 166.045 173.423 167.544 174.172C169.231 174.922 170.918 175.109 172.792 174.922C175.416 174.36 177.852 173.423 179.913 171.736C184.224 167.988 188.159 163.677 191.158 158.992C192.47 156.556 193.969 154.307 195.656 152.246C196.405 151.309 197.53 150.184 197.905 149.622C198.654 148.685 197.53 148.497 196.968 149.622C196.405 150.746 195.281 151.308 193.969 152.995C192.47 155.057 190.971 157.306 189.659 159.554C187.785 162.553 185.536 165.177 183.099 167.613C180.476 170.424 177.102 172.486 173.541 173.798C171.105 174.735 168.481 173.985 166.607 172.111C165.108 169.675 163.984 166.863 163.047 164.052C161.922 161.054 160.985 158.992 160.423 157.68C159.861 156.369 156.862 149.809 156.487 149.247Z" fill="#1D1D1B"/>
<path fill-rule="evenodd" clip-rule="evenodd" d="M188.722 161.053C187.785 160.491 186.847 160.116 185.723 159.741C184.411 159.366 183.287 159.366 181.975 159.741C180.663 160.303 179.351 161.053 178.227 161.99C177.102 162.739 176.165 165.925 174.853 165.551C173.541 165.176 176.727 162.739 176.915 162.177C177.102 161.053 174.291 161.428 173.167 161.615C171.855 161.99 170.543 162.552 169.418 163.302C167.732 164.988 166.232 166.675 164.921 168.549C164.358 169.111 163.796 168.737 164.358 167.987C165.858 165.738 167.732 163.677 169.793 161.802C171.293 160.678 173.167 160.303 174.853 160.303C175.79 160.303 176.727 160.678 177.664 160.865C178.039 160.865 179.726 159.179 181.038 158.991C182.162 158.616 183.474 158.429 184.786 158.616C186.285 158.804 187.597 159.366 188.909 160.303C189.284 160.865 189.096 161.24 188.722 161.053Z" fill="#1D1D1B"/>
<path fill-rule="evenodd" clip-rule="evenodd" d="M199.217 147.747C196.781 146.435 195.844 146.435 196.031 146.81C196.219 147.185 197.156 147.185 198.28 148.122C198.655 148.497 195.281 148.684 193.22 149.059C190.409 149.434 187.41 149.621 184.599 149.809C180.289 149.996 175.791 150.184 172.418 148.122C169.044 146.061 168.669 143.624 168.107 144.186C167.545 144.749 168.295 145.873 168.295 145.873C166.608 146.623 164.734 147.185 162.86 147.56C159.486 148.122 155.363 149.059 152.365 148.309C148.804 147.56 145.618 145.311 143.744 142.125C142.245 139.126 142.432 135.566 145.431 131.255C148.242 128.069 151.803 125.633 155.926 124.321C158.549 123.946 161.173 123.946 163.797 124.509C166.42 124.509 168.295 126.57 168.107 129.194C167.92 132.005 167.358 134.816 167.358 137.815C167.358 140.438 167.92 141.188 168.669 141.001C169.419 140.813 167.92 139.314 168.482 134.629C168.857 132.005 168.669 125.633 169.794 123.571C170.918 121.51 176.166 122.072 178.602 122.26C182.538 123.009 186.286 124.321 189.847 126.008C193.407 127.694 196.781 129.756 199.967 132.005C202.403 133.692 205.589 136.69 206.151 136.128C206.713 135.566 204.839 133.692 201.466 131.443C198.28 129.381 194.907 127.32 191.533 125.446C188.535 123.571 185.161 122.447 181.601 121.697C177.665 120.76 173.542 120.76 169.419 121.51C166.233 122.26 166.795 123.759 164.734 123.197C161.923 122.26 159.112 122.26 156.3 122.822C151.803 123.759 147.68 126.195 144.681 129.756C142.807 131.817 141.495 134.629 141.495 137.44C141.682 140.438 142.807 143.249 144.868 145.311C146.743 146.998 148.991 148.309 151.615 149.059C154.051 149.809 159.861 149.059 163.047 148.309C164.921 147.935 166.608 147.185 168.295 146.248C169.606 147.747 171.293 148.872 173.167 149.621C176.353 150.371 179.539 150.746 182.912 150.746C186.473 150.558 190.034 150.184 193.595 149.434L198.467 148.684C199.03 148.497 199.592 148.684 199.967 149.059C200.529 149.621 201.466 150.371 201.279 149.809C201.091 149.247 200.904 148.872 199.217 147.747Z" fill="#1D1D1B"/>
<path d="M267.619 180.356C260.498 175.109 253.002 170.423 245.13 166.113C236.322 160.866 226.952 156.368 217.394 152.62C205.774 148.309 198.84 146.06 198.84 146.06C198.84 146.06 198.278 146.06 198.278 145.873C198.278 145.685 198.466 145.498 198.84 145.498C199.215 145.498 205.962 147.747 217.769 152.057C227.514 155.806 236.884 160.303 245.693 165.551C253.564 169.674 261.248 174.546 268.369 179.794C268.556 179.981 268.556 180.356 268.182 180.544C268.182 180.918 267.807 180.731 267.619 180.356Z" fill="#1D1D1B"/>
<path d="M277.742 160.866C277.555 160.866 256.752 153.557 241.385 149.996C233.701 148.122 226.017 146.81 218.146 146.061C205.777 144.749 199.03 144.374 199.03 144.374C198.843 144.374 198.656 144.187 198.468 143.999C198.468 143.812 198.656 143.625 198.843 143.625C205.402 143.812 211.962 144.187 218.521 145.124C225.83 145.873 233.326 147.185 240.448 149.059C253.192 152.245 265.561 155.994 277.93 160.304C278.117 160.491 278.492 161.054 278.304 161.054C278.117 161.054 277.93 160.866 277.742 160.866Z" fill="#1D1D1B"/>
<path d="M197.905 141.938C197.717 141.938 197.53 141.938 197.53 141.75C197.53 141.563 197.53 141.375 197.717 141.188C197.717 141.188 208.025 139.314 218.145 137.815C227.141 136.503 236.324 135.94 245.507 135.94C266.684 135.94 277.741 136.877 278.116 137.065C278.303 137.065 278.491 137.44 278.303 137.627C278.116 137.815 277.928 137.815 277.741 137.815C277.741 137.815 266.496 136.69 245.507 136.69C236.324 136.69 227.328 137.252 218.332 138.564C208.4 139.876 198.092 141.938 197.905 141.938Z" fill="#1D1D1B"/>
<path d="M88.0834 152.62C87.8959 152.432 87.8959 152.057 88.0834 151.87C88.0834 151.87 98.016 146.248 106.824 141.937C114.321 138.377 122.379 135.94 130.625 135.003C136.81 134.254 143.182 133.879 149.366 133.691C149.741 133.691 149.928 134.066 149.741 134.254C149.741 134.628 149.366 134.816 149.179 134.628C142.994 134.628 136.81 135.003 130.813 135.94C122.754 136.877 114.695 139.126 107.386 142.687C98.5783 146.997 89.0204 152.432 88.833 152.432C88.4582 152.62 88.2708 152.62 88.0834 152.62Z" fill="#1D1D1B"/>
<path d="M91.0803 129.943C90.8929 129.943 90.7055 129.755 90.7055 129.755C90.7055 129.568 90.7055 129.381 90.8929 129.381C90.8929 129.381 90.8929 129.381 91.0803 129.381C97.6396 127.881 104.386 126.944 111.133 126.382C120.316 126.195 129.499 126.944 138.682 128.631C147.865 130.505 150.489 132.379 150.676 132.379C150.864 132.379 151.051 132.567 150.864 132.754C150.676 132.941 150.489 133.129 150.302 132.941C150.302 132.941 147.678 131.067 138.495 129.193C129.499 127.507 120.316 126.944 111.32 127.132C104.199 127.507 97.6396 128.631 91.0803 129.943Z" fill="#1D1D1B"/>
<path d="M150.678 130.693C146.93 126.945 142.619 123.947 137.934 121.51C132.499 118.699 126.69 116.45 120.693 115.138C116.007 114.014 110.947 113.639 106.075 113.826C105.887 113.826 105.7 113.639 105.7 113.452C105.7 113.264 105.887 113.077 106.075 113.077C110.947 112.889 116.007 113.264 120.88 114.389C126.877 115.888 132.874 117.949 138.309 120.948C142.994 123.384 147.305 126.57 151.24 130.318C151.428 130.318 151.24 131.068 150.678 130.693Z" fill="#1D1D1B"/>
<path fill-rule="evenodd" clip-rule="evenodd" d="M166.233 180.731C167.545 182.043 169.231 183.167 171.106 183.542C172.792 183.917 176.54 184.854 176.915 183.917C177.29 182.98 173.542 182.98 171.668 182.605C169.044 182.043 165.483 179.606 166.233 180.731Z" fill="#1D1D1B"/>
<path fill-rule="evenodd" clip-rule="evenodd" d="M230.14 124.696C229.578 124.696 229.765 126.008 228.453 128.257C227.703 129.568 226.204 130.88 226.579 131.63C226.954 132.38 229.015 129.756 229.39 128.444C229.765 127.132 231.077 124.883 230.14 124.696Z" fill="#1D1D1B"/>
<path fill-rule="evenodd" clip-rule="evenodd" d="M224.329 117.012C224.704 117.012 224.891 119.636 224.704 120.386C224.516 122.447 223.954 124.509 223.392 126.57C222.642 128.257 221.33 131.443 220.581 132.567C219.831 133.692 219.456 134.441 218.894 134.066C218.332 133.692 219.831 132.005 220.206 130.88C220.581 129.756 221.705 127.882 222.268 126.195C222.83 124.321 223.392 122.447 223.767 120.573C224.142 119.261 223.767 117.012 224.329 117.012Z" fill="#1D1D1B"/>
<path fill-rule="evenodd" clip-rule="evenodd" d="M148.054 108.578C147.679 108.391 146.367 110.452 145.805 111.015C145.43 111.764 145.055 112.701 144.868 113.638C144.681 114.201 144.493 115.887 145.055 115.887C145.618 115.887 145.618 114.575 145.805 113.826C145.992 112.889 146.18 111.764 146.742 111.015C147.304 110.265 148.429 108.766 148.054 108.578Z" fill="#1D1D1B"/>
<path d="M168.855 137.439C166.606 137.252 160.609 132.942 159.297 129.568C158.36 127.319 158.922 124.883 160.609 123.196C163.045 120.385 166.606 118.886 173.54 120.01C177.476 120.385 180.849 123.009 182.536 126.57C183.285 128.631 182.723 131.067 181.036 132.567C177.85 135.94 170.916 137.627 168.855 137.439Z" fill="#1D1D1B"/>
<path d="M175.228 124.883C175.228 125.82 172.605 127.694 169.794 127.132C166.982 126.569 166.045 125.07 166.233 123.946C166.608 122.634 168.107 121.697 171.105 121.697C173.917 121.884 175.416 123.571 175.228 124.883Z" fill="white"/>
<path d="M208.962 87.5887C208.212 88.7132 209.337 91.1495 210.836 92.8362C212.148 94.5229 213.647 95.8347 215.521 96.9592C217.02 97.7088 218.707 98.4585 220.206 97.1466C221.706 95.8347 220.206 92.8362 218.332 90.2125C217.02 88.5258 215.334 87.2139 213.272 86.4643C211.211 86.0895 209.899 86.4643 208.962 87.5887Z" fill="#1D1D1B"/>
<path d="M161.548 90.2123C162.86 90.9619 164.547 91.1493 166.046 90.5871C167.545 90.2123 169.044 89.4626 170.544 88.5256C171.668 87.5885 173.355 86.2767 172.793 84.7774C172.23 83.2781 169.607 82.5285 166.421 83.4655C164.359 83.8403 162.485 84.9648 161.361 86.6515C160.236 88.5256 160.798 89.4626 161.548 90.2123Z" fill="#1D1D1B"/>
<path d="M176.729 90.0252L188.535 91.3371C188.535 91.3371 185.349 80.6548 186.849 76.3444C189.472 68.6606 197.344 75.0325 198.843 77.4688C200.342 79.9051 207.651 79.1555 207.651 79.1555C207.651 79.1555 207.464 78.4059 208.588 77.094C210.275 74.6577 211.587 71.8466 212.524 69.0354C214.023 65.0998 215.335 62.1013 211.587 57.0412C205.215 48.6078 193.783 46.5463 194.345 47.6708C194.907 48.7952 200.155 52.356 203.153 61.1642C205.777 68.848 205.215 75.5947 204.278 75.7821C203.341 75.9696 204.09 70.5347 197.156 62.8509C190.784 55.542 184.787 54.0427 178.04 54.2301C173.168 54.4175 165.484 58.3531 165.484 58.3531L170.919 67.7236C173.543 65.8495 176.541 64.9124 179.727 64.5376C184.787 64.3502 187.036 65.2872 187.598 65.8495C188.16 66.4117 186.286 65.2872 182.538 68.0984C179.727 70.7221 177.853 74.2829 177.291 78.0311C176.166 81.9666 176.166 86.0896 176.729 90.0252Z" fill="#1D1D1B"/>
<path fill-rule="evenodd" clip-rule="evenodd" d="M147.68 182.417C139.996 203.782 133.437 225.522 128.565 247.823C120.881 282.869 106.263 369.077 110.386 386.881C114.509 404.685 210.65 411.806 232.202 401.499C285.426 375.636 241.76 286.992 241.76 286.992C241.76 286.992 224.143 280.245 216.834 257.006C209.525 233.768 217.959 189.164 217.959 189.164L210.087 191.413C208.776 195.724 207.839 200.221 207.089 204.719C205.964 211.841 204.84 221.024 204.84 221.024C204.84 221.024 191.534 220.836 171.481 218.775C153.49 216.901 146.181 214.277 146.181 214.277C147.305 208.093 148.805 201.908 150.679 195.724C152.74 189.726 154.052 185.978 154.052 185.978L147.68 182.417Z" fill="white"/>
<path d="M250.566 77.4688C248.13 80.2799 246.069 83.4658 244.569 86.8392" stroke="#1D1D1B" stroke-width="1.40557" stroke-miterlimit="10"/>
<path d="M276.803 36.0508C277.741 38.6745 278.303 41.4856 278.303 44.1094C278.303 45.4212 278.303 46.5457 277.928 47.8576" stroke="#1D1D1B" stroke-width="1.40557" stroke-linecap="round" stroke-linejoin="round"/>
<path d="M128.187 248.386C133.247 226.084 139.806 203.97 147.677 182.605L155.923 186.728C155.923 186.728 154.424 190.851 152.175 196.849C150.301 202.846 148.802 209.218 147.677 215.402C147.677 215.402 153.112 217.464 171.103 219.338C191.156 221.399 201.651 221.587 201.651 221.587C201.651 221.587 202.776 212.404 203.9 205.282C204.65 200.784 205.587 196.286 206.899 191.976L217.581 189.727C217.581 189.727 209.148 234.33 216.456 257.569C223.765 280.808 242.319 287.929 242.319 287.929C242.319 287.929 249.628 280.433 254.875 289.803C269.118 315.478 280.363 392.504 231.824 402.061C208.398 406.747 114.131 405.247 110.008 387.444C105.885 369.64 120.316 283.432 128.187 248.386ZM120.503 383.508C120.878 390.067 134.371 394.378 148.052 397.189C161.733 400 190.407 403.936 211.584 400.187C232.761 396.439 244.193 386.507 246.817 367.203C250.003 343.402 241.569 313.417 241.569 313.417L228.263 295.051L216.456 282.682C210.459 274.436 206.336 265.065 204.462 255.133C202.776 247.449 202.026 239.765 201.839 231.894C189.657 231.707 177.288 230.77 165.294 229.083C149.177 226.647 145.054 225.522 145.054 225.522C145.054 225.522 138.869 240.515 129.686 294.863C120.316 350.899 119.941 376.949 120.503 383.508Z" fill="#FCC513"/>
<path d="M147.679 182.417C139.995 203.782 133.435 225.522 128.563 247.823C120.879 282.869 106.261 369.077 110.384 386.881C114.507 404.685 209.336 408.808 232.2 401.499C285.237 384.257 264.997 317.539 255.064 288.491C250.379 275.185 241.758 286.992 241.758 286.992C241.758 286.992 224.141 280.245 217.02 257.006C209.898 233.768 217.957 189.164 217.957 189.164L207.275 191.413C207.275 191.413 205.401 198.722 204.276 205.656C203.152 212.59 202.027 221.024 202.027 221.024C202.027 221.024 191.532 220.836 171.479 218.775C153.488 216.901 148.053 214.839 148.053 214.839C148.053 214.839 150.302 203.97 152.551 196.286C153.488 192.912 154.613 189.726 155.925 186.54L147.679 182.417Z" stroke="#1D1D1B" stroke-width="1.40557" stroke-miterlimit="10"/>
<path d="M215.521 191.976C215.521 191.976 208.4 221.774 211.586 245.95C214.772 269.563 223.018 275.748 223.018 275.748" stroke="#F3941F" stroke-width="1.40557" stroke-linecap="round" stroke-linejoin="round" stroke-dasharray="1.87 1.87"/>
<path d="M149.178 185.417C140.557 209.967 133.81 235.267 128.938 260.942C118.255 317.352 114.694 344.152 114.694 344.152" stroke="#F3941F" stroke-width="1.40557" stroke-linecap="round" stroke-linejoin="round" stroke-dasharray="1.87 1.87"/>
<path d="M239.697 385.194C239.697 385.194 261.624 379.384 257.126 334.781C255.627 319.226 249.068 294.488 242.696 287.741C236.886 281.556 232.576 296.549 224.517 290.739C216.271 284.555 216.084 281.182 216.084 281.182C216.084 281.182 214.584 296.362 213.273 339.278C211.961 382.195 211.398 391.191 215.521 391.191C219.644 391.191 239.697 385.194 239.697 385.194Z" fill="#E6F2FC"/>
<path d="M198.279 243.701C199.403 246.324 200.153 374.699 197.342 376.948C194.531 379.197 186.097 381.821 186.097 377.323C186.097 372.825 190.033 324.474 192.094 287.929C194.156 251.384 196.405 239.765 198.279 243.701Z" fill="#E6F2FC"/>
<path fill-rule="evenodd" clip-rule="evenodd" d="M217.395 278.371C214.772 281.557 212.71 285.117 211.024 289.053C209.524 293.926 207.088 301.235 209.899 310.23C212.71 319.226 217.021 325.223 223.393 327.284C229.765 329.346 236.324 328.409 239.322 324.098C241.009 322.037 241.759 319.226 241.196 316.415C242.883 316.227 244.382 315.103 244.945 313.416C245.319 311.917 245.507 310.23 245.132 308.543C246.631 307.232 247.568 305.357 247.568 303.296C247.381 301.047 246.444 298.798 245.132 296.737C245.132 296.737 241.009 289.99 237.636 287.554C233.7 284.555 229.39 282.119 225.079 279.87C222.83 278.933 220.207 278.371 217.395 278.371Z" fill="white"/>
<path fill-rule="evenodd" clip-rule="evenodd" d="M218.895 277.061C218.145 276.311 216.646 277.81 214.959 280.247C213.273 282.683 209.524 288.118 208.587 294.115C207.65 300.112 207.463 308.358 210.462 314.542C213.46 320.727 216.646 325.037 220.956 327.099C225.454 329.16 230.702 329.535 235.574 327.849C238.198 326.537 240.447 324.475 241.571 321.664C242.134 319.977 242.508 318.291 242.508 316.417C244.008 316.042 245.32 314.73 245.882 313.231C246.257 311.731 246.257 310.232 245.882 308.733C247.569 307.421 248.506 305.359 248.318 303.111C248.318 300.674 247.381 298.425 245.694 296.739C244.57 295.614 242.696 295.802 243.446 296.551C244.195 297.301 246.819 298.8 246.819 301.986C246.819 304.422 246.069 307.046 245.507 307.046C244.945 307.046 243.82 303.673 240.822 302.736C238.948 302.174 236.886 301.799 234.825 301.611C233.888 301.611 232.576 303.111 233.513 303.111C234.45 303.111 238.198 302.923 240.072 304.048C242.134 305.172 243.633 307.046 243.82 309.482C243.82 312.106 243.446 314.355 242.134 314.73C240.822 315.105 241.759 312.668 238.948 310.607C236.886 309.108 234.637 308.171 232.014 307.983C230.514 308.171 229.765 308.171 229.765 308.92C229.765 309.67 230.514 309.67 232.201 309.857C233.888 310.045 237.448 310.794 238.385 312.106C240.26 314.168 240.822 317.354 239.697 319.977C238.011 323.726 236.324 325.6 233.888 326.349C229.765 327.286 225.267 326.912 221.331 325.225C217.396 323.163 212.71 316.229 211.399 312.668C209.15 306.484 208.775 299.737 210.274 293.365C211.961 286.619 214.21 282.683 215.522 281.371C219.457 277.623 218.895 277.061 218.895 277.061Z" fill="#1D1D1B"/>
<path fill-rule="evenodd" clip-rule="evenodd" d="M224.517 314.167C225.08 315.479 228.453 312.293 230.14 310.794C231.826 308.919 233.326 306.858 234.263 304.609C235.012 302.735 235.949 299.736 235.387 298.799C234.825 297.862 234.263 298.425 234.075 299.924C233.7 302.36 232.763 304.609 231.639 306.483C230.327 308.357 228.828 310.044 227.141 311.356C226.017 312.668 224.143 312.855 224.517 314.167Z" fill="#1D1D1B"/>
<path fill-rule="evenodd" clip-rule="evenodd" d="M243.258 254.383C242.509 256.257 230.327 266.377 227.891 268.439C224.517 271.437 217.958 278.372 217.958 278.372C219.832 282.682 222.081 286.805 224.705 290.741C227.703 294.114 231.264 297.112 235.012 299.736C235.012 299.736 253.753 292.802 258.064 289.991C264.623 285.493 270.807 280.62 276.617 275.373C280.553 271.25 283.926 266.377 286.362 261.13C288.049 257.382 286.925 250.448 284.863 246.325C281.677 239.016 277.179 232.269 271.557 226.459C261.812 216.152 250.942 204.158 246.632 200.409C242.321 196.661 238.198 191.226 233.138 190.102C215.897 186.354 219.083 201.346 220.769 205.469C222.831 210.904 215.709 217.089 216.646 220.837C217.771 225.897 228.078 235.267 232.201 239.578C236.324 243.888 244.195 251.197 243.258 254.383Z" fill="#E9E9E9"/>
<path fill-rule="evenodd" clip-rule="evenodd" d="M247.004 295.613L259.748 288.679C253.751 285.68 248.316 281.37 243.818 276.122C240.258 272.187 237.072 267.876 234.26 263.566L226.577 269.188L217.956 277.622C217.956 277.622 218.143 282.869 224.515 290.74C227.326 294.488 231.074 297.862 235.197 300.111L247.004 295.613Z" fill="#004E96"/>
<path fill-rule="evenodd" clip-rule="evenodd" d="M240.635 248.198C240.635 248.198 246.257 240.514 251.13 237.703C259.751 232.643 262.374 231.331 269.683 232.081C277.367 232.831 277.554 233.393 277.554 233.393C277.554 233.393 285.051 245.2 286.55 250.072C289.923 261.692 278.117 273.686 278.117 273.686C278.117 273.686 275.868 265.815 261.25 260.567C253.566 257.943 245.32 257.943 237.636 260.38C237.636 260.38 243.446 256.069 243.259 252.883C243.071 251.009 242.134 249.323 240.635 248.198Z" fill="#004E96"/>
<path fill-rule="evenodd" clip-rule="evenodd" d="M215.146 224.21L230.701 237.704C232.388 234.143 234.637 230.769 237.26 227.958C241.009 223.835 245.506 220.462 250.566 218.213C254.502 216.714 258.625 215.964 262.748 216.152L246.443 199.472C241.196 198.722 235.949 199.472 231.076 201.534C219.457 207.156 215.521 213.34 215.521 213.34L215.146 224.21Z" fill="#004E96"/>
<path fill-rule="evenodd" clip-rule="evenodd" d="M237.072 190.664C242.32 194.787 247.38 199.285 251.878 204.157C259.374 212.028 269.494 222.336 273.992 227.771C279.427 234.143 287.86 246.699 287.673 254.383C287.485 264.315 285.049 267.127 277.178 275.56C270.806 282.119 263.684 287.554 255.626 291.865C247.567 296.55 236.323 300.86 235.198 300.485C231.075 298.986 225.265 292.239 222.829 289.053C220.768 286.242 216.082 277.996 217.394 276.872C221.142 272.936 225.078 269.188 229.388 265.627C233.511 262.441 241.757 255.882 242.507 254.008C243.069 252.696 239.883 249.135 238.572 247.449C235.386 243.513 232.012 239.952 228.264 236.579C220.58 229.457 214.396 224.96 214.208 224.21C214.021 223.46 213.834 222.523 215.333 223.46C219.831 226.646 224.141 230.207 228.077 233.955C232.387 238.078 241.383 247.823 240.82 247.449C241.945 248.761 242.882 250.26 243.819 251.946C244.194 252.509 244.569 249.323 245.131 249.885C246.068 251.197 245.318 252.884 244.194 254.57C241.195 258.881 240.633 258.693 235.386 262.816C233.324 264.503 229.201 268.064 225.266 271.25C222.829 273.124 220.58 275.373 218.894 277.996C217.957 280.433 231.637 299.548 235.76 298.424C241.383 296.55 246.818 294.114 252.252 291.302C255.626 289.241 267.433 282.119 272.118 277.622C275.679 274.061 282.987 267.314 285.049 260.192C287.673 251.384 284.299 245.387 278.677 236.392C275.304 231.519 271.368 226.834 267.245 222.523C263.684 218.588 260.873 216.151 255.626 210.529C249.629 203.97 247.755 202.47 244.006 198.722C240.071 194.787 235.76 191.226 231.075 188.415C226.577 186.353 232.012 186.541 237.072 190.664Z" fill="#1D1D1B"/>
<path opacity="0.18" d="M235.199 190.664C224.517 196.099 212.898 199.66 201.091 200.784C182.162 202.471 157.987 195.349 154.239 194.037C148.241 191.788 142.994 188.415 138.309 183.917L141.87 178.295C141.87 178.295 148.804 186.541 174.666 190.477C200.341 194.412 220.019 189.352 226.204 186.541C227.515 185.979 225.079 189.727 225.079 189.727L230.139 187.291L235.199 190.664Z" fill="#1D1D1B"/>
<path d="M53.4105 203.22C53.4105 203.22 55.2846 191.038 57.5335 186.54C59.7824 182.043 62.7809 181.293 65.0299 182.792C67.2788 184.292 68.0284 188.04 67.841 190.851C67.6536 193.662 65.4047 195.724 65.4047 195.724C65.4047 195.724 62.4061 195.349 58.4705 197.598C54.3475 199.659 54.1601 203.595 53.4105 203.22C52.6609 202.845 45.9142 201.721 41.9786 203.407C38.043 205.094 33.5451 209.217 31.8585 213.34C30.3592 217.463 34.2948 222.336 39.3548 221.399C43.103 220.649 55.0972 216.339 55.0972 216.339C62.5936 215.589 69.1529 214.09 71.2144 212.965C73.2759 211.841 77.5863 209.967 82.2715 201.908C87.7064 192.725 88.0812 191.413 88.0812 191.413C88.0812 191.413 88.8308 185.041 86.0197 179.981C83.2086 174.734 83.3959 167.237 82.8337 162.927C82.2715 158.617 78.7107 152.057 73.0885 153.369C67.4662 154.681 64.8425 159.741 63.718 164.051C62.5935 168.362 66.5291 176.983 66.5291 176.983C66.5291 176.983 59.4076 174.171 51.5364 173.234C43.6652 172.297 35.9815 173.047 31.2962 177.357C26.611 181.668 29.2347 185.978 31.2962 187.29C33.3577 188.602 37.6682 188.977 37.6682 188.977C43.8526 187.852 49.6623 189.352 50.412 190.101" fill="white"/>
<path d="M53.4105 203.22C53.4105 203.22 55.2846 191.038 57.5335 186.54C59.7824 182.043 62.7809 181.293 65.0299 182.792C67.2788 184.292 68.0284 188.04 67.841 190.851C67.6536 193.662 65.4047 195.724 65.4047 195.724C65.4047 195.724 62.4061 195.349 58.4705 197.598C54.3475 199.659 54.1601 203.595 53.4105 203.22ZM53.4105 203.22C52.6609 202.845 45.9142 201.721 41.9786 203.407C38.043 205.094 33.5451 209.217 31.8585 213.34C30.3592 217.463 34.2948 222.336 39.3548 221.399C43.103 220.649 55.0972 216.339 55.0972 216.339C62.5936 215.589 69.1529 214.09 71.2144 212.965C73.2759 211.841 77.5863 209.967 82.2715 201.908C87.7064 192.725 88.0812 191.413 88.0812 191.413C88.0812 191.413 88.8308 185.041 86.0197 179.981C83.2086 174.734 83.3959 167.237 82.8337 162.927C82.2715 158.617 78.7107 152.057 73.0885 153.369C67.4662 154.681 64.8425 159.741 63.718 164.051C62.5935 168.362 66.5291 176.983 66.5291 176.983C66.5291 176.983 59.4076 174.171 51.5364 173.234C43.6652 172.297 35.9815 173.047 31.2962 177.357C26.611 181.668 29.2347 185.978 31.2962 187.29C33.3577 188.602 37.6682 188.977 37.6682 188.977C43.8526 187.852 49.6623 189.352 50.412 190.101" stroke="#1D1D1B" stroke-width="1.40557" stroke-miterlimit="10" stroke-linecap="round" stroke-linejoin="round"/>
<path d="M53.7871 182.23C52.6627 184.479 51.1634 187.103 50.6012 189.914C49.8515 193.662 50.0389 197.223 50.0389 197.223" stroke="#1D1D1B" stroke-width="1.40557" stroke-miterlimit="10" stroke-linecap="round" stroke-linejoin="round"/>
</g>
<defs>
<filter id="filter0_d_2882_35679" x="-18.0702" y="0.925871" width="374.976" height="551.168" filterUnits="userSpaceOnUse" color-interpolation-filters="sRGB">
<feFlood flood-opacity="0" result="BackgroundImageFix"/>
<feColorMatrix in="SourceAlpha" type="matrix" values="0 0 0 0 0 0 0 0 0 0 0 0 0 0 0 0 0 0 127 0" result="hardAlpha"/>
<feOffset dy="6.02339"/>
<feGaussianBlur stdDeviation="9.03509"/>
<feComposite in2="hardAlpha" operator="out"/>
<feColorMatrix type="matrix" values="0 0 0 0 0.352292 0 0 0 0 0.578129 0 0 0 0 0.741667 0 0 0 0.1 0"/>
<feBlend mode="normal" in2="BackgroundImageFix" result="effect1_dropShadow_2882_35679"/>
<feBlend mode="normal" in="SourceGraphic" in2="effect1_dropShadow_2882_35679" result="shape"/>
</filter>
<radialGradient id="paint0_radial_2882_35679" cx="0" cy="0" r="1" gradientUnits="userSpaceOnUse" gradientTransform="translate(205.597 125.914) rotate(180) scale(10.9018)">
<stop stop-color="#ABC80E"/>
<stop offset="0.36" stop-color="#ABC80E"/>
<stop offset="0.4" stop-color="#ABC80E"/>
<stop offset="1" stop-color="#006D28"/>
</radialGradient>
<radialGradient id="paint1_radial_2882_35679" cx="0" cy="0" r="1" gradientUnits="userSpaceOnUse" gradientTransform="translate(162.365 115.307) rotate(180) scale(9.30074)">
<stop stop-color="#ABC80E"/>
<stop offset="0.36" stop-color="#ABC80E"/>
<stop offset="0.4" stop-color="#ABC80E"/>
<stop offset="1" stop-color="#006D28"/>
</radialGradient>
</defs>
</svg>
