<svg width="117" height="265" viewBox="0 0 117 265" fill="none" xmlns="http://www.w3.org/2000/svg">
<path d="M54.1264 35.6821H62.446C62.201 55.7917 62.8633 75.955 64.2605 96.0198C66.6556 131.442 74.2403 165.253 85.7988 198.823C90.3351 211.898 95.0891 224.973 100.832 237.574C105.212 247.192 110.484 256.39 116.582 265.049H91.3603C85.6929 247.837 80.2917 230.534 75.1567 213.142C70.0851 196.084 64.8865 179.027 61.2575 161.593C58.1456 146.692 56.6758 131.63 55.7595 116.461C54.3169 92.4311 53.945 68.33 54.0901 44.2647C54.0629 41.4188 54.0811 38.5549 54.1264 35.6821Z" fill="#ACDDF7"/>
<path d="M62.4189 35.6833H54.0993C54.3443 55.7929 53.682 75.9562 52.2848 96.021C49.8806 131.443 42.3049 165.254 30.7465 198.824C26.2102 211.899 21.4562 224.975 15.7041 237.576C11.3389 247.192 6.08161 256.389 -0.000488281 265.051H25.2213C30.8886 247.838 36.2929 230.535 41.434 213.143C46.4965 196.103 51.7132 179.046 55.3422 161.612C58.4451 146.711 59.8785 131.649 60.8312 116.48C62.2828 92.4501 62.6457 68.3491 62.5096 44.2838C62.4824 41.42 62.4642 38.5561 62.4189 35.6833Z" fill="#ACDDF7"/>
<path d="M77.4787 155.605H39.0564V159.704H77.4787V155.605Z" fill="#ACDDF7"/>
<path d="M92.6945 200.561H23.8609V204.66H92.6945V200.561Z" fill="#ACDDF7"/>
<path d="M36.6162 229.109C36.6162 229.109 42.6404 215.345 58.2724 215.237C73.9045 215.13 79.9287 229.109 79.9287 229.109L81.7432 222.773L77.5154 202.117L39.0839 202.583C39.0839 202.583 37.0517 219.121 36.6434 220.016C36.2351 220.911 36.6162 229.109 36.6162 229.109Z" fill="#ACDDF7"/>
<path d="M42.3683 210.018L39.7464 218.798C41.2725 216.615 43.2595 214.783 45.571 213.428C48.4591 211.777 51.5858 210.57 54.8431 209.848L42.3683 210.018Z" fill="#ACDDF7"/>
<path d="M74.1858 210.018L76.7987 218.798C75.2746 216.616 73.2909 214.784 70.9832 213.428C68.0916 211.777 64.962 210.57 61.702 209.848L74.1858 210.018Z" fill="#ACDDF7"/>
<path d="M69.2504 157.664H48.3744V169.934H69.2504V157.664Z" fill="#ACDDF7"/>
<path d="M65.6213 25.9545H50.9328V37.0251H65.6213V25.9545Z" fill="#ACDDF7"/>
<path d="M62.5185 22.482H54.0266V30.0891H62.5185V22.482Z" fill="#ACDDF7"/>
<path d="M58.2724 24.2711C58.0318 24.2711 57.801 24.1768 57.6309 24.009C57.4607 23.8411 57.3651 23.6135 57.3651 23.3761V0.894952C57.3651 0.657596 57.4607 0.429961 57.6309 0.262125C57.801 0.0942893 58.0318 0 58.2724 0C58.513 0 58.7438 0.0942893 58.9139 0.262125C59.0841 0.429961 59.1796 0.657596 59.1796 0.894952V23.3761C59.1796 23.6135 59.0841 23.8411 58.9139 24.009C58.7438 24.1768 58.513 24.2711 58.2724 24.2711Z" fill="#ACDDF7"/>
<path d="M73.2878 160.198H43.3483C43.2287 160.195 43.1147 160.148 43.0301 160.064C42.9455 159.981 42.897 159.868 42.8946 159.75C42.8946 159.632 42.9424 159.518 43.0275 159.434C43.1126 159.35 43.228 159.303 43.3483 159.303H73.2878C73.4081 159.303 73.5235 159.35 73.6085 159.434C73.6936 159.518 73.7414 159.632 73.7414 159.75C73.7414 159.869 73.6936 159.983 73.6085 160.067C73.5235 160.151 73.4081 160.198 73.2878 160.198Z" fill="#ACDDF7"/>
<path d="M86.8608 205.106H29.7035C29.5832 205.106 29.4678 205.059 29.3828 204.975C29.2977 204.891 29.2499 204.777 29.2499 204.659C29.2499 204.54 29.2977 204.426 29.3828 204.342C29.4678 204.258 29.5832 204.211 29.7035 204.211H86.8608C86.9811 204.211 87.0965 204.258 87.1815 204.342C87.2666 204.426 87.3144 204.54 87.3144 204.659C87.3144 204.777 87.2666 204.891 87.1815 204.975C87.0965 205.059 86.9811 205.106 86.8608 205.106Z" fill="#ACDDF7"/>
<path d="M61.911 37.4734H54.8797C54.7594 37.4734 54.644 37.4262 54.559 37.3423C54.4739 37.2584 54.4261 37.1446 54.4261 37.0259C54.4284 36.9079 54.477 36.7954 54.5615 36.712C54.6461 36.6286 54.7601 36.5807 54.8797 36.5784H61.911C62.0313 36.5784 62.1467 36.6256 62.2317 36.7095C62.3168 36.7934 62.3646 36.9072 62.3646 37.0259C62.3646 37.0847 62.3529 37.1428 62.3301 37.1971C62.3073 37.2514 62.2739 37.3008 62.2317 37.3423C62.1896 37.3839 62.1396 37.4168 62.0846 37.4393C62.0295 37.4618 61.9705 37.4734 61.911 37.4734Z" fill="#ACDDF7"/>
<path d="M61.911 26.4025H54.8797C54.7594 26.4025 54.644 26.3554 54.559 26.2714C54.4739 26.1875 54.4261 26.0737 54.4261 25.955C54.4261 25.8364 54.4739 25.7225 54.559 25.6386C54.644 25.5547 54.7594 25.5076 54.8797 25.5076H61.911C62.0313 25.5076 62.1467 25.5547 62.2317 25.6386C62.3168 25.7225 62.3646 25.8364 62.3646 25.955C62.3646 26.0737 62.3168 26.1875 62.2317 26.2714C62.1467 26.3554 62.0313 26.4025 61.911 26.4025Z" fill="#ACDDF7"/>
<path d="M58.3997 143.666C58.2794 143.666 58.164 143.619 58.0789 143.535C57.9939 143.451 57.9461 143.337 57.9461 143.219V37.0235C57.9461 36.9048 57.9939 36.791 58.0789 36.7071C58.164 36.6232 58.2794 36.576 58.3997 36.576C58.5193 36.5783 58.6333 36.6262 58.7179 36.7096C58.8024 36.7931 58.851 36.9056 58.8533 37.0235V143.192C58.857 143.253 58.848 143.314 58.8269 143.371C58.8058 143.429 58.773 143.481 58.7305 143.526C58.688 143.57 58.6367 143.605 58.5798 143.63C58.5229 143.654 58.4616 143.666 58.3997 143.666Z" fill="#ACDDF7"/>
</svg>
