<svg width="152" height="110" viewBox="0 0 152 110" fill="none" xmlns="http://www.w3.org/2000/svg">
<path d="M150.703 81.8413C150.123 80.7044 148.151 79.6829 146.75 79.7953C145.493 79.8957 144.232 79.957 142.975 80.0779C140.184 80.3438 138.419 78.7521 137.121 76.6294C136.596 75.7701 136.64 74.563 136.457 73.6728C137.437 73.0358 138.132 72.5845 138.633 72.2592C139.155 69.1042 137.381 66.8871 136.309 64.4331C136.891 63.9728 137.307 63.5928 137.775 63.2844C139.064 62.4314 139.347 61.3348 139.553 59.7518C139.812 57.7786 139.3 55.863 139.671 53.936C140.017 52.1411 139.662 51.5177 138.009 51.3168C135.613 51.0216 133.191 50.9337 130.786 50.7107C126.683 50.3306 122.481 50.3535 118.507 49.4195C112.407 47.9893 106.291 46.7561 100.118 45.7368C98.7228 45.5091 97.2287 45.2496 96.0398 44.5609C93.4004 43.028 90.684 41.9596 87.61 41.8373C87.0698 41.8148 86.4846 41.559 86.0204 41.2564C84.0113 39.9561 81.7437 39.7191 79.4608 39.6688C77.5582 39.6274 75.8372 39.0831 74.1221 38.3388C71.2542 37.0919 68.3652 35.9751 65.2002 35.5705C63.7112 35.381 62.12 34.7517 60.9214 33.8581C59.2644 32.6227 57.4478 31.928 55.5572 31.3259C52.5847 30.3843 49.5794 29.5347 46.594 28.6333C46.0511 28.4697 45.4182 28.3628 45.0143 28.0111C42.9289 26.1903 40.4338 25.1894 37.893 24.2354C37.2461 23.9906 36.6961 23.4861 36.097 23.1026C34.7909 22.267 33.4717 21.451 32.1858 20.5842C31.8815 20.3807 31.6937 20.0058 31.1333 19.32C33.3578 19.0506 34.9952 19.2362 36.6587 20.2377C38.3472 21.2574 40.2005 22.0083 41.984 22.8703C42.7508 23.2424 43.6192 23.4795 44.2784 23.9848C47.2958 26.2922 50.9085 27.35 54.4164 28.3503C58.523 29.5217 62.7284 30.2561 66.4391 32.5461C67.0214 32.9071 67.7987 32.937 68.4711 33.1661C69.817 33.6211 71.259 33.9255 72.4687 34.6242C74.8351 35.9842 77.4292 36.7294 79.9022 37.7883C87.1422 40.8835 94.9561 41.7917 102.428 43.9929C106.022 43.731 109.492 44.4215 112.941 45.3174C113.345 45.4228 113.791 45.3434 114.218 45.3775C116.053 45.5238 117.886 45.6865 119.723 45.8369C123.688 46.1558 127.685 46.9123 131.618 46.67C135.607 46.4251 139.144 47.9103 142.904 48.4676C143.198 48.5105 143.429 49.0054 143.806 49.4204C142.971 50.1484 142.215 50.7684 141.521 51.4494C141.391 51.5787 141.411 52.0164 141.531 52.2087C141.644 52.3887 142.09 52.5792 142.197 52.5007C143.111 51.8459 144.016 51.1675 144.857 50.4239C145.659 49.7127 147.207 50.222 147.551 48.7929C145.84 46.7431 144.47 44.4193 141.987 43.1792C141.669 43.0191 141.343 42.5078 141.337 42.1534C141.3 40.3146 138.909 39.703 139.102 37.712C139.137 37.3675 138.449 36.7605 137.98 36.6001C136.914 36.2346 135.788 35.9666 134.666 35.8397C130.708 35.3898 126.736 35.0586 122.781 34.5892C121.528 34.4412 120.226 34.1917 119.098 33.6662C117.502 32.9225 115.897 32.5829 114.155 32.552C111.845 32.5134 109.756 31.7488 107.931 30.1413C113.527 31.256 119.167 30.7154 124.769 30.9974C128.136 31.1689 131.463 32.1764 134.79 32.8996C135.439 33.0393 136.006 33.5869 136.593 33.9767C138.762 35.4204 138.993 35.3919 140.661 33.3052C141.179 32.6572 141.671 31.9867 142.066 31.47C141.879 29.8432 140.771 29.3926 139.733 28.9577C137.504 28.0247 135.125 27.3862 133.011 26.2437C128.724 23.9266 124.162 22.3391 119.617 20.6885C118.147 20.1526 116.645 19.7025 115.167 19.1811C113.925 18.7424 112.74 18.1372 112.41 16.7418C111.895 14.5789 110.476 13.7343 108.397 13.6466C107.981 13.6298 107.559 13.4741 107.163 13.3232C105.642 12.7507 104.172 12.3003 102.858 13.8058C102.63 14.0681 102.071 14.2004 101.699 14.1461C99.6181 13.8492 97.4416 13.9151 95.2448 12.6026C95.3605 10.8846 95.5396 9.47088 95.5229 8.05945C95.5072 6.47387 94.4776 5.40516 92.8828 5.24679C90.0376 4.96511 87.205 4.78324 84.654 6.54237C83.3897 7.41357 81.9113 7.52171 80.5616 6.9184C77.8787 5.71365 75.0188 5.75568 72.2011 5.44174C66.5389 4.81212 60.9169 3.91824 55.5244 2.04072C52.7577 1.07601 50.0356 0.655834 47.1594 1.22975C46.4686 1.36774 45.7483 1.36285 45.0409 1.40315C42.1454 1.5672 40.3054 3.33854 39.8621 6.36796C39.786 6.90466 39.615 7.42806 39.5315 7.77422C37.5802 9.10278 35.7382 7.73971 33.8777 8.0265C33.25 8.97157 32.6406 9.8917 32.1435 10.6425C30.7067 10.9521 29.5196 11.2083 28.5679 11.4133C27.8568 13.0569 29.7279 14.0085 28.9015 15.4886C28.3771 15.5773 27.8328 15.6424 27.2974 15.7652C26.7805 15.8836 26.2756 16.0606 25.9163 16.1679C25.3755 17.7498 27.2845 18.4227 26.9736 19.7566C25.8157 19.8682 24.8617 19.9629 23.6935 20.0746C23.8893 21.386 24.0525 22.4578 24.2773 23.9564C23.2724 24.3701 22.2062 24.7402 21.2169 25.2548C20.9506 25.3919 20.91 25.9673 20.8091 26.2292C21.3508 27.6035 23.3063 27.2445 23.5659 28.8055C21.0997 30.8553 19.183 33.1973 18.6991 36.4498C18.5616 37.3705 17.9581 37.9196 17.1459 38.3403C16.6688 38.5912 16.2959 39.0397 15.8185 39.4513C15.8804 40.4975 16.0559 41.4876 15.9674 42.4583C15.8743 43.4753 16.5511 44.5884 15.721 45.845C14.099 44.5216 12.6706 43.3628 11.2482 42.1957C10.4814 41.5669 9.79047 40.8188 8.95796 40.299C6.20501 38.5758 3.51241 38.9074 1.18145 41.1544C0.306297 41.9963 0.15341 42.9223 0.901434 43.7914C2.19584 45.2938 3.43524 46.8505 5.47595 47.5075C6.54335 47.8493 7.57532 48.4193 8.50611 49.0595C11.8084 51.3213 12.1666 53.6427 9.7993 56.9112C9.46679 57.3726 9.07619 57.8018 8.78922 58.2812C6.20333 62.5848 7.49808 65.774 10.4188 68.8749C13.6825 72.3149 16.659 72.2931 20.2312 75.9449C19.4847 79.4724 21.5149 82.0316 24.2831 83.6537C52.2123 100.012 84.9234 109.119 111.734 109.847C116.201 109.967 119.782 108.647 122.307 104.865C122.775 104.163 123.261 103.477 123.715 102.818C125.807 102.62 127.776 102.326 129.748 102.28C131.279 102.244 132.336 101.399 133.643 100.777C140.669 97.4373 137.537 87.7444 144.106 88.49C146.351 88.7438 152.487 85.3411 150.703 81.8413ZM47.9879 23.907C47.9373 23.8942 47.9321 23.718 47.9062 23.6174C48.1425 23.6486 48.3838 23.6643 48.6143 23.7244C48.6618 23.7362 48.667 23.9123 48.6929 24.013C48.4576 23.9787 48.2153 23.9661 47.9879 23.907ZM53.9433 24.1447C49.1535 22.1797 44.4008 20.1308 39.1101 17.8924C40.0167 17.6148 40.4071 17.3465 40.6946 17.4317C42.0551 17.8195 43.3949 18.2828 44.7277 18.7575C45.7987 19.1416 46.824 19.8497 47.9122 19.945C51.3273 20.2416 53.9406 22.2622 56.8092 23.7522C56.8943 23.7966 56.9017 23.9871 57.2009 24.8048C55.8356 24.5386 54.8233 24.5052 53.9433 24.1447ZM58.1052 27.2155C57.9885 27.1952 57.8941 27.0521 57.789 26.9637C57.9639 26.8555 58.1745 26.6253 58.3089 26.6649C58.6811 26.7739 59.0226 26.9893 59.8881 27.417C58.909 27.3121 58.5037 27.285 58.1052 27.2155ZM66.5734 28.0459C65.7515 27.899 64.9674 27.5486 63.4935 27.0766C68.1709 27.2882 72.0367 27.801 75.7207 29.3092C76.3678 29.5746 77.0879 29.7402 77.7902 29.7907C79.9734 29.9493 81.8784 30.8057 83.8003 31.7804C85.1105 32.4429 86.607 32.7374 88.0351 33.1708C88.0855 33.163 88.139 33.1562 88.1894 33.1484C88.2432 33.1725 88.2971 33.1966 88.351 33.2207C88.7484 33.1974 89.1449 33.1773 89.5424 33.1541C89.5115 33.3358 89.4838 33.5185 89.453 33.7002C89.0874 33.5386 88.7176 33.3792 88.351 33.2207C88.3088 33.2243 88.2635 33.2269 88.2223 33.2274C88.1602 33.2075 88.0972 33.1907 88.0351 33.1708C84.0455 33.7816 80.2213 33.053 76.6001 31.4451C73.3497 30.0039 70.0924 28.6699 66.5734 28.0459ZM140.967 45.4663C140.997 46.5571 140.236 46.5218 139.564 46.4401C136.185 46.0288 132.818 45.542 129.435 45.1534C127.885 44.9749 126.307 45.0409 124.758 44.8562C119.834 44.2715 114.92 43.6248 110.005 42.9915C109.584 42.9387 109.158 42.6862 108.757 42.7321C104.255 43.2232 100.13 41.1669 95.7554 40.8126C94.9117 40.7443 94.0574 40.5596 93.2507 40.3013C87.831 38.5725 82.4182 36.8116 77.0115 35.0425C76.3391 34.8237 75.6111 34.5974 75.0825 34.1647C73.0298 32.4878 70.6157 31.7147 68.102 31.1354C67.8695 31.0815 67.6879 30.8044 67.28 30.4651C69.3398 30.1224 71.0324 30.531 72.6535 31.5154C75.4941 33.2428 78.6135 34.1529 81.8977 34.5272C85.8474 34.9813 89.7998 35.4055 93.7477 35.8864C94.5804 35.9889 95.4845 36.1142 96.194 36.5159C97.9771 37.518 99.8697 38.018 101.87 38.2345C102.293 38.281 102.761 38.2631 103.128 38.4422C108.846 41.2246 115.148 41.6077 121.232 42.8856C123.464 43.3538 125.724 43.3559 127.988 43.5095C132.344 43.796 136.749 44.0675 140.967 45.4663ZM126.892 37.0722C127.004 37.074 127.113 37.1397 127.224 37.1786C127.187 37.2625 127.147 37.4175 127.106 37.418C126.995 37.4234 126.882 37.3598 126.767 37.3231C126.812 37.2246 126.855 37.0706 126.892 37.0722ZM123.364 36.7842C123.415 36.797 123.431 36.9493 123.464 37.0385C123.231 37.0083 122.993 36.9936 122.764 36.9376C122.714 36.9248 122.698 36.7725 122.665 36.6832C122.899 36.7104 123.136 36.7282 123.364 36.7842ZM120.004 38.4962C123.255 38.6855 126.503 39.2468 129.75 39.2157C132.563 39.1896 135.045 40.0083 137.519 41.0847C137.712 41.1669 137.787 41.5297 138.246 42.3507C136.714 42.4553 135.588 42.6798 134.496 42.5763C128.853 42.0485 123.187 41.6538 117.592 40.7926C111.866 39.9133 99.9384 36.3398 96.7242 34.9888C96.7729 34.1423 97.5106 34.1356 97.9218 34.3152C101.792 35.9892 106.063 35.236 110.024 36.3916C113.288 37.3443 116.561 38.2968 120.004 38.4962ZM108.951 16.3046C110.244 16.9034 113.643 24.451 106.346 20.6599C105.894 20.4262 103.472 19.5275 104.258 15.1607C105.879 13.7536 108.494 15.0189 108.951 16.3046ZM91.5344 7.10712C92.76 7.49963 94.2807 9.57746 92.727 13.7771C90.23 15.4851 82.6915 13.7278 81.9904 9.50736C83.7827 8.40839 89.2785 6.38468 91.5344 7.10712ZM52.0092 2.95397C52.7057 3.04362 53.3928 3.29104 54.0602 3.52529C60.1381 5.67704 66.4399 6.72362 72.8233 7.34472C75.2217 7.57913 77.6358 7.74328 79.6882 9.03689C79.8548 12.3301 79.9402 12.5764 82.3009 13.89C83.2831 14.4338 84.3678 14.8496 85.4541 15.1325C87.3817 15.6301 89.3476 15.9757 91.2928 16.3968C92.3165 16.6186 93.1565 16.3779 94.097 15.8341C96.6115 14.3814 99.0187 15.71 101.333 16.5708C102.278 16.9213 102.486 18.1409 102.27 19.2006C102.026 20.409 101.341 21.6402 102.67 22.8764C103.384 22.5887 104.138 22.2862 105.124 21.8902C105.59 22.1866 106.227 22.4933 106.745 22.9364C109.718 25.4793 109.91 25.7769 112.87 23.7244C115.716 21.7485 118.085 22.0863 121.153 23.1474C126.297 24.9248 130.957 27.5601 136.327 30.1076C135.305 30.4134 134.805 30.7047 134.325 30.6774C133.192 30.6125 132.037 30.5128 130.949 30.2155C126.917 29.1091 122.795 29.1094 118.67 29.0716C113.656 29.0257 108.768 28.285 103.967 26.7848C102.231 26.2427 100.344 25.9703 98.5247 25.9589C95.6167 25.9376 92.9086 25.3029 90.2116 24.3024C88.3611 23.6174 86.4048 23.2098 84.4945 22.6904C84.2205 22.6163 83.8926 22.679 83.6562 22.5519C80.98 21.1338 77.9719 20.8376 75.1373 19.9674C70.796 18.6318 66.4882 17.1701 62.2445 15.5511C60.7022 14.9613 59.0521 14.0463 58.0297 12.8054C54.8413 8.93794 50.9434 6.32459 46.1564 4.94892C45.9621 4.89352 45.8579 4.53514 45.5517 4.08127C47.5591 2.70568 49.7595 2.66113 52.0092 2.95397ZM104.374 29.5393C101.815 30.6937 100.388 30.3222 98.4612 27.9946C100.785 27.319 102.6 28.1672 104.374 29.5393ZM86.367 25.0691C86.2875 25.1462 86.2139 25.28 86.1285 25.2903C86.004 25.3052 85.8712 25.2284 85.743 25.1908C85.8578 25.0565 85.9717 24.9254 86.0865 24.7911C86.1803 24.8827 86.2732 24.9774 86.367 25.0691ZM70.9482 20.7846C70.8314 20.8395 70.707 20.9502 70.5986 20.936C70.4933 20.9229 70.4041 20.7848 70.3042 20.7015C70.4272 20.6485 70.5512 20.5924 70.6743 20.5395C70.7649 20.6198 70.8545 20.7032 70.9482 20.7846ZM54.5828 12.6937C51.4764 12.7149 49.8318 10.2656 47.4704 8.89007C47.8303 8.48191 48.0454 8.10946 48.1529 8.13704C50.8102 8.83412 52.9891 10.2777 54.5828 12.6937ZM44.254 10.1522C45.7982 10.8212 47.4322 11.4129 48.775 12.3903C51.1093 14.0855 53.6327 15.3076 56.4048 15.9457C58.5941 16.4484 60.2256 17.614 61.8918 19.8035C57.6731 18.1172 53.8665 16.6928 50.1472 15.0706C47.8241 14.0564 45.6213 12.7625 43.3946 11.5431C43.0949 11.3786 42.9657 10.9062 42.532 10.2199C43.3187 10.1777 43.8667 9.98365 44.254 10.1522ZM40.3257 11.4155C43.4753 14.1861 47.3592 15.7002 50.8987 17.7985C51.8564 18.3652 53.0084 18.6246 54.0902 18.9642C54.901 19.2205 55.9069 19.156 56.5461 19.6173C60.624 22.5552 65.6328 22.8216 70.197 24.1875C74.9143 25.599 79.6322 27.4042 84.6737 27.6537C86.5223 27.7462 88.3049 28.1837 89.9969 29.0642C90.9828 29.575 92.1479 29.8147 93.2629 29.9973C97.3304 30.6602 101.295 31.9436 105.466 31.9726C106.15 31.9758 106.826 32.3532 107.516 32.5161C110 33.1029 112.489 33.6742 114.979 34.2527C116.036 34.4988 117.293 34.3779 117.781 35.6838C117.562 36.5272 116.879 36.3528 116.402 36.2719C114.725 35.9847 113.039 35.6945 111.411 35.2243C108.941 34.5085 106.392 34.2841 103.904 33.8055C100.147 33.0813 96.3383 32.8502 92.6081 32.1379C88.8686 31.4227 84.9841 30.9895 81.6392 28.8714C76.839 28.21 72.4704 25.8701 67.5628 25.4479C65.0863 25.233 62.6691 24.0209 60.2893 23.0877C58.5719 22.4146 56.8714 21.6031 55.3376 20.5919C53.3874 19.3105 51.3755 18.3925 49.0331 18.1863C48.3379 18.1244 47.6102 17.929 46.9903 17.6107C44.6868 16.4283 42.2488 15.7194 39.7222 15.1907C37.9879 14.8269 36.4602 14.0742 36.2931 11.968C38.5013 10.4036 38.9887 10.2381 40.3257 11.4155ZM135.699 78.6338C135.092 78.8739 134.617 79.204 134.131 79.2263C131.44 79.3395 128.744 79.4548 126.051 79.4269C121.508 79.3816 116.965 79.22 112.424 79.1273C110.15 79.0831 107.92 78.7931 105.665 78.4746C99.8785 77.6548 94.4999 75.1249 88.6638 74.6003C88.2419 74.561 87.7797 74.5088 87.4229 74.309C82.3719 71.5145 76.4899 71.379 71.2404 69.2257C70.732 69.0184 70.2246 68.808 69.6748 68.5806C69.8676 68.331 69.9589 68.1208 70.0321 68.1271C73.9767 68.5009 77.9308 68.8025 81.8564 69.3104C84.2413 69.6192 86.5884 70.2272 88.9417 70.7413C89.6256 70.8919 90.2913 71.153 90.9466 71.4142C92.5263 72.0364 94.092 72.6918 95.6677 73.3264C96.0643 73.4876 96.5459 73.5221 96.859 73.7729C100.226 76.4626 104.199 76.3734 108.181 76.3521C109.881 76.3424 111.597 76.3684 113.281 76.5927C119.5 77.4146 125.759 77.1336 131.998 77.3288C133.221 77.3648 134.569 77.2798 135.699 78.6338ZM65.7726 64.2929C64.8988 63.6881 63.6374 63.6639 62.5739 63.3096C61.8312 63.0649 61.1233 62.7116 59.7398 62.1283C61.4286 61.4272 62.5314 61.4554 63.5748 61.509C68.9503 61.7732 74.2818 62.3995 79.5131 63.7122C82.569 64.4788 85.3261 65.7723 87.5758 68.7678C86.3233 68.7156 85.4339 68.8756 84.694 68.6113C81.0362 67.3098 77.1622 67.3247 73.403 66.6819C70.7412 66.2228 68.1027 65.9047 65.7726 64.2929ZM65.8211 66.9188C64.7001 66.659 63.9778 66.4893 62.6119 66.1716C64.2976 65.213 65.0232 65.4898 65.8211 66.9188ZM59.3917 64.1447C59.2919 64.1573 59.172 64.2112 59.0943 64.1761C59.0166 64.1409 58.9811 64.0167 58.9265 63.9308C59.0294 63.9193 59.1473 63.8715 59.2291 63.9045C59.3037 63.9387 59.3392 64.0629 59.3917 64.1447ZM130.612 75.985C125.37 75.4937 120.105 76.2844 114.853 75.3892C111.515 74.8197 108.047 75.0194 104.646 74.7855C101.624 74.577 98.7649 73.8359 95.8732 71.0932C97.2334 71.1081 97.9201 71.0577 98.5949 71.1301C103.252 71.6397 107.911 72.0267 112.558 72.7487C118.568 73.6812 124.69 73.9108 130.762 74.4593C131.43 74.5194 132.085 74.6951 132.786 74.8239C132.35 76.1551 131.316 76.0499 130.612 75.985ZM37.2431 32.546C40.0358 34.9251 43.2182 36.8988 46.7466 38.1451C50.0929 39.3296 53.4338 40.5843 56.7325 41.8426C60.2713 43.1949 63.9566 44.293 67.3257 46.2717C70.8794 48.3574 75.0678 49.0488 79.1356 49.8178C81.0553 50.1795 83.0981 50.2213 85.1392 51.8705C84.2628 52.0859 83.7713 52.3493 83.3265 52.2855C82.2055 52.1215 81.0161 52.0006 80.012 51.5251C75.5461 49.4141 70.7016 49.0087 65.939 48.2087C65.2379 48.0903 64.481 48.125 63.8381 47.8678C58.8316 45.8744 53.5668 44.4312 49.0294 41.4112C47.0894 40.1194 45.2049 38.9958 42.8001 38.9202C41.1973 38.8722 39.7984 38.2086 38.5181 37.1965C35.6318 34.9174 32.6877 32.7121 29.6526 30.3956C32.6869 29.8518 34.9689 30.61 37.2431 32.546ZM30.7534 26.937C31.478 27.1314 32.2016 27.3289 32.9231 27.5224C32.8596 27.7313 32.7962 27.9401 32.7327 28.149C32.0221 27.9215 31.3116 27.6939 30.5979 27.4654C30.6504 27.2906 30.703 27.1158 30.7534 26.937ZM85.8648 54.2411C87.2809 54.3593 88.9068 54.709 90.0818 56.3066C89.4771 56.4961 89.1182 56.7301 88.7871 56.6959C84.8072 56.304 80.929 55.5307 77.2052 53.9653C75.3775 53.1986 73.3926 52.8161 71.5006 52.1862C70.6224 51.8947 69.8039 51.4273 68.0344 50.6177C69.5735 50.5016 70.1105 50.3418 70.5867 50.4464C71.9731 50.7535 73.36 51.1019 74.7028 51.5559C78.3483 52.7781 81.9867 53.916 85.8648 54.2411ZM66.5451 52.2448C69.4417 52.9535 72.3038 53.8016 75.1718 54.6209C76.1219 54.891 77.0968 55.169 77.9697 55.6162C80.5449 56.9438 83.2593 57.5907 86.1451 57.8204C88.8276 58.0329 91.5675 58.2159 93.9001 59.8524C100.22 60.9801 105.751 64.7458 112.24 65.3254C114.502 65.5264 116.757 66.153 119.001 66.0709C121.295 65.9881 123.515 66.3534 125.769 66.4731C128.673 66.6232 129.166 66.8152 132.646 68.9492C132.428 69.095 132.211 69.3676 131.992 69.366C129.72 69.3671 127.445 69.3363 125.171 69.289C121.908 69.2224 118.707 68.2278 115.407 68.6697C115 68.724 114.556 68.6056 114.148 68.4991C109.767 67.3629 105.363 66.298 101.017 65.0397C96.0981 63.6182 91.2283 62.0313 86.3416 60.4971C82.0041 59.1388 77.7208 57.5686 73.321 56.4367C69.2096 55.3766 64.9928 54.7206 60.8017 53.9839C58.81 53.6334 56.9425 53.0764 55.1992 52.0357C53.3542 50.9386 51.453 50.0594 49.1825 50.1842C47.7893 50.2614 46.4705 49.7433 45.1504 48.7697C46.5039 47.951 47.6008 48.4357 48.6292 48.7925C50.9447 49.5956 53.3349 49.6529 55.7377 49.9161C59.3818 50.3202 62.9635 51.368 66.5451 52.2448ZM111.187 63.4214C116.63 61.8187 125.89 62.889 133.448 66.2195C132.138 66.1011 131.629 66.1741 131.231 65.9954C129.634 65.2888 127.994 65.0166 126.251 65.1701C125.409 65.246 124.545 65.1883 123.699 65.1158C120.596 64.8506 117.491 64.6091 114.401 64.2386C113.345 64.1161 112.147 64.3106 111.187 63.4214ZM133.528 63.9291C128.883 62.0479 123.873 61.8701 118.94 61.3576C115.989 61.0524 112.947 60.8617 110.023 61.2218C106.255 61.6847 102.995 60.7021 99.8306 58.9497C98.6254 58.2798 97.1834 57.8898 96.2474 56.1122C98.137 55.4891 99.6132 55.9858 101.126 56.3574C105.522 57.4472 109.938 58.3378 114.492 58.6126C117.442 58.7911 120.355 59.5562 123.29 59.9934C125.112 60.2656 126.948 60.4634 128.781 60.6024C131.417 60.8 134.06 60.9141 136.919 61.0771C136.303 62.8402 134.749 63.0337 133.528 63.9291ZM136.241 52.4783C136.404 52.6433 136.57 52.8093 136.732 52.9743C136.505 53.0656 136.261 53.2509 136.053 53.2152C135.874 53.1854 135.743 52.9005 135.59 52.7281C135.804 52.6463 136.023 52.5623 136.241 52.4783ZM131.383 52.4141C131.617 52.4412 131.851 52.4715 131.897 52.4761C131.866 52.4764 131.646 52.4811 131.425 52.4858C131.239 52.5426 131.053 52.5994 130.982 52.6208C131.043 52.5892 131.209 52.4986 131.383 52.4141ZM82.177 41.6882C85.4978 42.9843 89.2324 43.0206 92.2609 44.6952C96.6668 47.1326 101.413 47.4721 106.143 48.2993C109.904 48.9565 113.621 49.8595 117.339 50.7388C119.965 51.361 122.555 52.1187 125.305 51.843C125.673 51.8067 126.068 52.0668 126.77 52.2914C126.125 52.6051 125.788 52.911 125.454 52.9067C121.931 52.8597 118.362 53.3449 114.945 51.9634C114.312 51.7091 113.545 51.645 112.857 51.7016C109.955 51.9389 107.255 51.1939 104.518 50.338C101.414 49.368 98.2087 48.7382 95.0802 47.8458C93.1799 47.3057 91.3411 46.5525 89.4765 45.8904C88.9415 45.702 88.4225 45.4639 87.8796 45.3003C83.8056 44.0914 79.7288 42.9021 75.6567 41.6869C75.4479 41.6235 75.2885 41.3945 74.8484 41.0278C77.4915 41.2243 80.0632 40.8641 82.177 41.6882ZM45.8101 32.3097C49.6652 33.8283 53.5846 35.0391 57.72 35.5116C58.4164 35.5909 59.1632 35.748 59.7618 36.0902C63.8212 38.4131 68.4668 39.5143 72.3692 42.1565C72.8356 42.4735 73.3178 42.8264 73.8483 42.986C77.6393 44.1385 81.4285 45.3075 85.2551 46.338C86.8925 46.7803 88.5407 47.007 90.0882 47.8687C91.2758 48.5296 92.7822 48.6117 94.1384 48.9811C97.0132 49.7683 99.8909 50.5359 102.748 51.379C106.027 52.347 109.282 53.3894 112.772 53.0328C117.894 54.7415 123.182 54.0195 128.409 54.0618C131.845 54.0913 134.956 55.1117 138.381 56.4035C137.022 58.3732 135.547 59.3684 133.371 59.4209C129.653 59.5133 126 59.1371 122.386 58.2669C120.871 57.9015 119.341 57.4765 117.797 57.3515C111.984 56.8721 106.225 56.0849 100.563 54.6444C100.015 54.5066 99.4352 54.4372 98.8726 54.4418C94.1333 54.4772 90.1028 52.2456 86.0242 50.2928C84.734 49.6744 83.5136 49.1159 82.0984 48.8132C79.0418 48.1559 76.0083 47.3726 73.0057 46.4931C70.5634 45.7759 68.0536 45.1843 65.9784 43.5241C65.3325 43.0093 64.478 42.7289 63.6832 42.4333C58.5014 40.5172 53.3047 38.6477 48.125 36.7254C44.067 35.2206 43.2028 34.629 40.3298 31.5605C42.3596 31.1192 44.133 31.6495 45.8101 32.3097ZM33.4316 23.3814C35.9533 25.3248 38.7957 26.5122 41.6481 27.7541C42.1224 27.9608 42.4463 28.5092 42.8174 28.8779C42.3207 29.8307 41.581 29.6622 40.9367 29.4627C40.1279 29.2105 39.3306 28.8799 38.5881 28.4745C35.8512 26.9788 33.1267 25.4767 30.0836 24.6595C29.728 24.5627 29.4562 24.1507 28.7431 23.5357C30.5877 22.2414 32.3003 22.5128 33.4316 23.3814ZM31.1088 33.7323C33.0476 35.1777 34.9722 36.6459 36.8582 38.1599C38.6786 39.6222 40.6345 40.683 43.0282 40.7825C44.4931 40.8445 45.7898 41.4103 46.9604 42.2847C49.6164 44.2677 52.545 45.6777 55.7553 46.5176C56.2669 46.6507 56.7223 47.0018 58.1167 47.7221C52.6508 48.7017 48.6344 46.8748 44.6191 45.6642C41.1219 44.6092 37.5276 43.1947 34.6092 41.0695C31.1327 38.5398 27.9331 35.4658 25.1256 31.8298C27.8078 31.7548 28.9206 32.1044 31.1088 33.7323ZM24.399 35.3056C25.4125 35.7944 26.4567 36.2623 27.3751 36.8985C28.1843 37.4587 28.8671 38.2111 29.5781 38.9075C32.5218 41.7763 35.3216 44.8488 39.7318 45.4778C40.1509 45.5367 40.4995 46.0931 40.8805 46.4204C38.1978 46.3686 35.6565 46.1637 33.6171 44.4774C31.7586 42.9414 29.9998 41.2868 28.18 39.705C26.7131 38.4313 25.2198 37.1867 23.7231 35.9205C24.0452 35.62 24.3161 35.2654 24.399 35.3056ZM26.3912 40.2269C27.1022 40.9233 27.8356 41.6029 28.5068 42.3379C31.4704 45.5826 35.0585 47.6999 39.3777 48.6452C40.887 48.9746 42.3763 49.5268 43.7761 50.1873C45.5956 51.0436 47.4397 51.6308 49.4267 52.0174C51.4943 52.4196 53.5469 53.1248 55.4565 54.0203C57.0356 54.7621 58.5912 55.1713 60.3067 55.4334C65.2171 56.178 70.0919 57.1405 74.9774 58.0482C75.6713 58.1781 76.3693 58.3914 77.0096 58.6888C82.5702 61.2701 88.5336 62.7112 94.2865 64.7349C96.688 65.5793 99.2508 65.9519 101.716 66.6389C105.269 67.6262 108.797 68.7046 112.338 69.7292C113.017 69.9262 113.763 70.3223 114.389 70.1944C119.228 69.1954 123.944 71.253 128.768 70.7179C129.818 70.6024 130.94 71.1363 132.72 71.5182C131.744 72.15 131.362 72.6058 130.955 72.6261C128.683 72.7364 126.381 72.9676 124.137 72.7314C119.475 72.2373 114.851 71.4233 110.196 70.8426C106.248 70.3514 102.286 69.7635 98.3209 69.6568C93.6816 69.5292 89.7845 67.597 86.0445 65.2702C83.3395 63.5897 80.7005 62.0022 77.4045 62.0174C77.2643 62.017 77.1138 62.0064 76.9823 61.9575C71.8064 60.0125 66.3142 60.5184 60.9703 59.8778C57.2536 59.4333 53.7859 58.3502 50.5625 56.3976C48.9923 55.4465 47.3015 54.669 45.5993 53.9699C43.6247 53.1596 41.601 52.4602 39.5617 51.8311C35.3899 50.5429 31.8983 48.135 28.63 45.3503C26.899 43.8757 25.2189 42.3386 23.5571 40.7869C23.1695 40.4268 22.9427 39.8957 22.3459 39.0032C24.3112 38.7739 25.4301 39.2862 26.3912 40.2269ZM48.9304 59.9768C48.683 59.9694 48.4035 60.0304 48.2034 59.9287C48.0593 59.8552 48.024 59.5702 47.9414 59.3795C48.1878 59.39 48.4301 59.4026 48.6764 59.4131C48.7601 59.6007 48.8437 59.7882 48.9304 59.9768ZM45.0096 55.5121C38.2498 55.1263 38.2498 55.1263 36.0122 53.2465C36.0427 53.1194 36.0344 52.9423 36.113 52.8785C36.21 52.8001 36.3991 52.7649 36.5201 52.8036C39.354 53.6975 42.1797 54.6059 45.0096 55.5121ZM33.1608 51.2967C31.7588 51.4122 31.0636 50.7414 30.4736 49.379C31.9856 49.5074 32.7636 50.0371 33.1608 51.2967ZM20.9932 40.9409C23.2038 42.8086 25.9462 44.159 27.2171 46.9847C27.2637 47.0099 27.3145 47.033 27.3612 47.0582C27.3825 47.1198 27.406 47.1855 27.4273 47.2471C27.5971 47.4006 27.7668 47.5542 27.9335 47.7068C27.8223 47.7122 27.6363 47.7587 27.6142 47.7209C27.5362 47.5693 27.4807 47.4113 27.4242 47.2461C27.3742 47.1993 27.3232 47.1555 27.2732 47.1087C27.2562 47.0657 27.231 47.0268 27.214 46.9837C25.2412 45.9756 23.2362 45.0256 21.3211 43.9231C20.377 43.3778 19.3556 42.7428 19.1994 41.468C19.6445 40.6869 20.4198 40.4562 20.9932 40.9409ZM28.6738 50.8861C27.7809 51.0141 27.5114 51.1399 27.324 51.0628C24.8298 50.0485 22.3225 49.0539 19.8694 47.9433C19.1525 47.6179 19.0355 46.8723 19.6206 46.0709C23.4864 45.7934 25.242 49.2636 28.6738 50.8861ZM119.789 104.544C117.978 106.322 115.902 107.518 113.041 107.594C88.267 108.25 49.062 96.047 28.3138 83.6411C26.6057 82.6185 23.5353 81.406 23.4829 79.3263C23.4387 77.5947 25.0644 78.0948 25.6736 78.201C26.228 78.2964 26.8053 78.406 27.3088 78.6391C29.5023 79.6632 31.6886 80.6986 33.8407 81.7984C39.9123 84.8992 60.018 93.254 72.4887 96.649C90.7606 101.628 111.775 103.921 115.802 103.096C116.772 102.897 117.78 102.837 118.771 102.829C119.128 102.827 119.635 103.082 119.804 103.376C119.979 103.675 119.998 104.341 119.789 104.544ZM138.045 90.3329C137.676 93.0132 134.985 98.47 130.02 99.5075C126.004 100.318 119.354 101.33 111.258 101.261C103.002 101.19 78.1985 96.9484 70.6107 94.0633C55.3562 89.8212 39.1678 82.7586 38.6619 82.5008C33.087 79.6651 27.4335 76.9787 21.9655 73.9481C18.6237 72.0979 15.4395 69.8944 12.4308 67.5384C9.28267 65.0728 8.92429 61.4274 11.0769 58.0388C11.3814 57.5582 11.745 57.117 12.0692 56.6495C14.0922 53.7085 13.8779 51.6215 11.2421 49.1694C9.66265 47.7022 7.84769 46.6181 5.81483 45.8405C4.78182 45.4446 3.79542 44.8071 2.939 44.095C1.96915 43.2883 2.32027 41.786 3.50701 41.3279C5.3369 40.6241 7.14603 40.6048 8.75192 41.8717C9.75355 42.6646 10.725 43.5197 11.578 44.4669C13.921 47.0749 16.8371 48.7375 20.0448 50.0555C25.3026 52.2149 30.5034 54.5203 35.7332 56.7459C36.7781 57.19 37.8532 57.572 38.9241 57.956C40.3966 58.4857 41.9374 58.8663 43.3405 59.538C45.9177 60.7739 48.5312 61.7682 51.3913 62.1847C53.5227 62.4944 55.4049 63.518 57.2061 64.7414C58.6021 65.6914 60.1626 66.4272 61.7042 67.1364C63.8954 68.1461 66.0882 69.2041 68.3743 69.9602C71.7424 71.0765 75.1539 72.1109 78.6165 72.8572C80.8561 73.3418 83.0605 73.7227 85.0825 74.8869C85.9228 75.3715 86.9056 75.6999 87.8639 75.8802C91.7779 76.6274 95.633 77.537 99.4652 78.689C103.535 79.9104 107.774 80.5836 112.088 80.4873C117.202 80.3733 122.296 80.5954 127.4 81.0904C131.495 81.4851 135.636 81.3847 139.756 81.5204C142.004 81.5938 146.52 81.0149 148.471 82.3375C149.382 83.1562 150.277 85.1807 145.491 85.9503C143.197 86.6935 139.032 86.3347 138.045 90.3329Z" fill="#3F8D3F"/>
</svg>
