<svg width="128" height="184" viewBox="0 0 128 184" fill="none" xmlns="http://www.w3.org/2000/svg">
<g opacity="0.3" clip-path="url(#clip0_2561_66228)">
<path fill-rule="evenodd" clip-rule="evenodd" d="M90.7393 136.182C83.5218 116.136 80.0269 95.0127 80.3148 67.2206L76.8399 54.3924C58.9167 48.8755 67.2121 48.8755 49.309 54.3857L45.8341 67.2139C46.1019 95.0127 42.6271 116.136 35.4096 136.175H32.3364V151.983H32.7114V183.765H93.3371V151.983H93.8192V136.182H90.7393ZM60.7177 90.8415C60.6825 90.5127 60.7169 90.1802 60.8186 89.8656C60.9203 89.551 61.0871 89.2613 61.3081 89.0154C61.5292 88.7694 61.7994 88.5728 62.1015 88.4381C62.4035 88.3035 62.7304 88.2339 63.0611 88.2339C63.3917 88.2339 63.7187 88.3035 64.0207 88.4381C64.3227 88.5728 64.593 88.7694 64.814 89.0154C65.035 89.2613 65.2018 89.551 65.3035 89.8656C65.4052 90.1802 65.4396 90.5127 65.4044 90.8415V95.9701H60.7177V90.8415ZM60.7177 106.18C60.7796 105.602 61.0532 105.067 61.4858 104.678C61.9184 104.29 62.4795 104.075 63.0611 104.075C63.6427 104.075 64.2037 104.29 64.6363 104.678C65.0689 105.067 65.3425 105.602 65.4044 106.18V111.309H60.7177V106.18ZM60.7177 123.066C60.7796 122.488 61.0532 121.953 61.4858 121.564C61.9184 121.175 62.4795 120.96 63.0611 120.96C63.6427 120.96 64.2037 121.175 64.6363 121.564C65.0689 121.953 65.3425 122.488 65.4044 123.066V128.194H60.7177V123.066ZM58.361 151.983V144.692C58.361 143.442 58.8576 142.243 59.7415 141.359C60.6255 140.475 61.8244 139.978 63.0745 139.978C64.3245 139.978 65.5234 140.475 66.4074 141.359C67.2913 142.243 67.7879 143.442 67.7879 144.692V151.983H58.361Z" fill="white"/>
<path fill-rule="evenodd" clip-rule="evenodd" d="M68.4503 61.1487L76.6118 52.9738L85.9049 62.2668L127.141 20.9904L114.313 8.16895L73.0767 49.4386L65.7119 58.4773C66.9148 58.9939 67.8734 59.9525 68.39 61.1554L68.4503 61.1487ZM80.8834 55.1229L85.7643 50.2153L87.9268 52.3779L83.0192 57.2721L80.8834 55.1229ZM110.805 29.4934L105.924 34.3743L103.775 32.2117L108.655 27.3308L110.805 29.4934ZM109.466 26.4872L114.346 21.6064L116.496 23.7689L111.615 28.6498L109.466 26.4872ZM105.114 35.2179L100.233 40.0987L98.0702 37.9362L102.951 33.0553L105.114 35.2179ZM99.3959 40.9356L94.515 45.8232L92.3524 43.6606L97.2333 38.7798L99.3959 40.9356ZM93.6714 46.6668L88.7638 51.5544L86.6012 49.3918L91.482 44.5109L93.6714 46.6668ZM85.9718 60.1712L83.8093 58.0086L88.6901 53.1211L90.8527 55.2836L85.9718 60.1712ZM91.6896 54.4467L89.527 52.2841L94.4079 47.3966L96.5437 49.5458L91.6896 54.4467ZM97.4141 48.7223L95.2448 46.5597L100.132 41.6721L102.295 43.8347L97.4141 48.7223ZM103.105 42.9978L100.942 40.8419L105.823 35.9544L107.986 38.1169L103.105 42.9978ZM108.823 37.2733L106.66 35.1107L111.541 30.2232L113.704 32.3858L108.823 37.2733ZM114.541 31.5489L112.378 29.3863L117.259 24.4987L119.421 26.6613L114.541 31.5489ZM125.146 20.9368L120.265 25.8244L118.102 23.6618L122.983 18.7743L125.146 20.9368ZM122.247 18.078L117.366 22.9588L115.203 20.7561L120.084 15.8752L122.247 18.078ZM117.165 12.9829L119.328 15.1454L114.487 20.0263L112.324 17.8704L117.165 12.9829ZM111.441 18.7073L113.603 20.8699L108.722 25.7507L106.56 23.5949L111.441 18.7073ZM105.723 24.4318L107.885 26.5944L103.025 31.4685L100.862 29.3059L105.723 24.4318ZM100.025 30.1295L102.188 32.292L97.3069 37.1796L95.1444 35.017L100.025 30.1295ZM94.3074 35.8539L96.47 38.0165L91.5892 42.8974L89.4199 40.7415L94.3074 35.8539ZM88.583 41.5784L90.7456 43.741L85.8647 48.6218L83.6887 46.4927L88.583 41.5784ZM82.8652 47.3029L85.0278 49.4922L80.1469 54.3731L77.9844 52.2239L82.8652 47.3029Z" fill="white"/>
<path fill-rule="evenodd" clip-rule="evenodd" d="M61.4877 58.5234L53.2793 50.3887L62.5255 41.0555L21.075 0L8.30713 12.8884L49.7576 53.9439L58.8297 61.235C59.0879 60.6197 59.4631 60.0603 59.9344 59.588C60.3844 59.1431 60.9105 58.7825 61.4877 58.5234ZM55.395 46.1104L50.4941 41.2496L52.6433 39.0803L57.5777 43.9411L55.395 46.1104ZM29.645 16.303L34.5526 21.1571L32.4034 23.333L27.4958 18.4723L29.645 16.303ZM26.6522 17.6421L21.7446 12.788L23.9004 10.612L28.788 15.4661L26.6522 17.6421ZM35.3962 22.0007L40.3039 26.8615L38.1614 29.024L33.247 24.17L35.3962 22.0007ZM41.1475 27.6984L46.0484 32.5591L43.8992 34.7284L38.9916 29.8609L41.1475 27.6984ZM46.8652 33.3827L51.7729 38.2434L49.6237 40.4194L44.7161 35.5586L46.8652 33.3827ZM60.4299 41.0287L58.2807 43.1979L53.3731 38.3372L55.5289 36.1545L60.4299 41.0287ZM54.6853 35.331L52.5295 37.4936L47.6285 32.6328L49.7777 30.4568L54.6853 35.331ZM48.9341 29.64L46.7849 31.8093L41.8773 26.9485L44.0264 24.7725L48.9341 29.64ZM43.1828 23.9423L41.0337 26.1116L36.1528 21.2575L38.3087 19.0815L43.1828 23.9423ZM37.4383 18.2513L35.2824 20.4206L30.3815 15.5598L32.5307 13.3906L37.4383 18.2513ZM31.687 12.5536L29.5379 14.7296L24.6302 9.87554L26.7794 7.69288L31.687 12.5536ZM21.0349 2.00858L25.9358 6.86266L23.7866 9.03863L18.879 4.17116L21.0349 2.00858ZM18.1492 4.91434L23.0568 9.76841L20.9009 11.9444L15.9933 7.08361L18.1492 4.91434ZM13.1143 9.99605L15.2635 7.82009L20.1712 12.6809L18.022 14.8568L13.1143 9.99605ZM18.8589 15.687L21.0148 13.5178L25.9224 18.3785L23.7665 20.5478L18.8589 15.687ZM24.6101 21.3847L26.7794 19.2155L31.667 24.103L29.5178 26.2455L24.6101 21.3847ZM30.3614 27.0824L32.5106 24.9064L37.4182 29.7672L35.269 31.9365L30.3614 27.0824ZM36.1059 32.8069L38.2618 30.6376L43.1695 35.485L41.0136 37.6609L36.1059 32.8069ZM41.8572 38.5046L44.0131 36.3286L48.914 41.1894L46.7648 43.3586L41.8572 38.5046ZM47.6084 44.1888L49.7576 42.0196L54.6652 46.867L52.5161 49.0362L47.6084 44.1888Z" fill="white"/>
<path fill-rule="evenodd" clip-rule="evenodd" d="M58.8639 65.4322L50.6622 73.567L41.4093 64.2739L-0.000976563 105.343L12.7736 118.218L54.1906 77.1155L61.5554 68.1103C60.9537 67.8512 60.4063 67.481 59.9419 67.019C59.4853 66.5631 59.1195 66.0246 58.8639 65.4322ZM46.404 71.4111L41.5098 76.2786L39.3539 74.1093L44.2548 69.2418L46.404 71.4111ZM16.3757 96.9067L21.2766 92.0459L23.4325 94.2152L18.5249 99.0894L16.3757 96.9067ZM17.6813 99.9129L12.7803 104.78L10.6311 102.611L15.5321 97.7503L17.6813 99.9129ZM22.1135 91.209L27.0212 86.3683L29.1704 88.5376L24.2694 93.4051L22.1135 91.209ZM27.8581 85.5114L32.759 80.6439L34.9149 82.8132L30.014 87.7074L27.8581 85.5114ZM33.6026 79.807L38.5036 74.9462L40.6595 77.1155L35.7585 81.9762L33.6026 79.807ZM41.3625 66.3361L43.5183 68.5053L38.6174 73.3661L36.4615 71.1968L41.3625 66.3361ZM35.6179 72.0338L37.7738 74.203L32.8728 79.0705L30.717 76.9012L35.6179 72.0338ZM29.8734 77.7381L32.0292 79.9074L27.1283 84.7682L24.9724 82.5989L29.8734 77.7381ZM24.102 83.4358L26.2579 85.6051L21.357 90.4726L19.2011 88.2966L24.102 83.4358ZM18.3642 89.1335L20.5134 91.3028L15.6124 96.1702L13.4565 94.001L18.3642 89.1335ZM12.6196 94.8379L14.7688 97.0071L9.86787 101.868L7.71868 99.6987L12.6196 94.8379ZM2.00761 105.403L6.90855 100.536L9.05774 102.705L4.1501 107.572L2.00761 105.403ZM4.89327 108.309L9.79422 103.441L11.9501 105.617L7.04246 110.471L4.89327 108.309ZM9.93482 113.39L7.77894 111.215L12.6799 106.354L14.8358 108.523L9.93482 113.39ZM15.6794 107.686L13.5235 105.517L18.4244 100.656L20.5803 102.825L15.6794 107.686ZM21.4239 101.988L19.2747 99.8192L24.1757 94.9517L26.3316 97.121L21.4239 101.988ZM27.1685 96.2841L25.0193 94.1148L29.9202 89.254L32.0694 91.4233L27.1685 96.2841ZM32.913 90.5864L30.7638 88.4171L35.6648 83.5563L37.8006 85.6988L32.913 90.5864ZM38.6576 84.8887L36.5017 82.7194L41.4093 77.852L43.5183 80.0212L38.6576 84.8887ZM44.4021 79.1843L42.2329 76.995L47.1338 72.1342L49.2897 74.3168L44.4021 79.1843Z" fill="white"/>
<path fill-rule="evenodd" clip-rule="evenodd" d="M68.4652 65.418C67.9539 66.6244 66.9935 67.5848 65.7871 68.0961L73.8817 76.3246L64.5083 85.544L105.45 127.102L118.372 114.381L77.4302 72.8229L68.4652 65.418ZM71.7124 80.5828L76.5598 85.5038L74.3838 87.653L69.5365 82.732L71.7124 80.5828ZM97.1009 110.712L92.2535 105.784L94.4027 103.641L99.2501 108.562L97.1009 110.712ZM100.114 109.413L104.954 114.334L102.779 116.476L97.9311 111.562L100.114 109.413ZM91.4099 104.947L86.5625 100.033L88.7385 97.8834L93.5859 102.804L91.4099 104.947ZM85.7256 99.1823L80.8783 94.2679L83.0609 92.1187L87.9083 97.0398L85.7256 99.1823ZM80.048 93.4176L75.2007 88.5033L77.3766 86.3541L82.224 91.2751L80.048 93.4176ZM66.6173 85.6042L68.7933 83.4617L73.6474 88.3761L71.4714 90.5186L66.6173 85.6042ZM72.2949 91.3689L74.4776 89.2264L79.3183 94.1474L77.1423 96.2899L72.2949 91.3689ZM77.9725 97.1335L80.1552 94.991L85.0026 99.9054L82.8199 102.055L77.9725 97.1335ZM83.6568 102.898L85.8328 100.756L90.6802 105.67L88.5042 107.792L83.6568 102.898ZM89.3344 108.663L91.5104 106.52L96.3577 111.435L94.1818 113.584L89.3344 108.663ZM95.012 114.427L97.1947 112.285L102.035 117.199L99.8594 119.348L95.012 114.427ZM105.537 125.14L100.69 120.219L102.872 118.076L107.72 122.991L105.537 125.14ZM108.456 122.261L103.615 117.347L105.785 115.157L110.632 120.078L108.456 122.261ZM113.558 117.239L111.375 119.389L106.535 114.468L108.711 112.318L113.558 117.239ZM107.874 111.475L105.698 113.624L100.85 108.703L103.033 106.554L107.874 111.475ZM102.196 105.71L100.02 107.859L95.1727 102.938L97.3486 100.796L102.196 105.71ZM96.5184 99.9455L94.3425 102.095L89.4951 97.1737L91.671 95.0312L96.5184 99.9455ZM90.8408 94.1809L88.6582 96.3301L83.8175 91.409L85.9935 89.2666L90.8408 94.1809ZM85.1565 88.3761L82.9806 90.5253L78.1332 85.6042L80.3159 83.4617L85.1565 88.3761ZM77.303 84.7606L72.4556 79.8396L74.6316 77.6971L79.4789 82.6114L77.303 84.7606Z" fill="white"/>
<path fill-rule="evenodd" clip-rule="evenodd" d="M61.5557 68.1106C62.2206 68.4019 62.9387 68.5523 63.6647 68.5523C64.3906 68.5523 65.1087 68.4019 65.7737 68.1106L63.4772 65.7739L61.5557 68.1106Z" fill="white"/>
<path fill-rule="evenodd" clip-rule="evenodd" d="M68.4646 65.421C68.764 64.7488 68.9187 64.0211 68.9187 63.2852C68.9187 62.5493 68.764 61.8216 68.4646 61.1494L66.1279 63.4861L68.4646 65.421Z" fill="white"/>
<path fill-rule="evenodd" clip-rule="evenodd" d="M65.7465 58.4771C65.0729 58.1865 64.3459 58.0406 63.6124 58.0487C62.8789 58.0567 62.1553 58.2186 61.4883 58.5239L63.8316 60.8405L65.7465 58.4771Z" fill="white"/>
<path fill-rule="evenodd" clip-rule="evenodd" d="M58.8303 61.2349C58.5406 61.8967 58.3911 62.6114 58.3911 63.3338C58.3911 64.0563 58.5406 64.7709 58.8303 65.4328L61.1468 63.1296L58.8303 61.2349Z" fill="white"/>
<path fill-rule="evenodd" clip-rule="evenodd" d="M64.1528 61.8642L65.1906 62.7212L65.4584 62.4534L63.8314 60.8398L63.0815 61.7571L63.664 62.3396L64.1528 61.8642Z" fill="white"/>
<path fill-rule="evenodd" clip-rule="evenodd" d="M62.2184 62.8213L63.0821 61.7567L62.8277 61.4956L61.1807 63.1293L62.1113 63.8724L62.6938 63.2966L62.2184 62.8213Z" fill="white"/>
<path fill-rule="evenodd" clip-rule="evenodd" d="M64.6157 63.2965L65.0977 63.7852L64.2407 64.8364L64.5018 65.0975L66.1154 63.484L65.1915 62.7207L64.6157 63.2965Z" fill="white"/>
<path fill-rule="evenodd" clip-rule="evenodd" d="M63.1883 64.7434L62.1104 63.873L61.856 64.1275L63.4762 65.7678L64.2395 64.8372L63.6637 64.2614L63.1883 64.7434Z" fill="white"/>
<path fill-rule="evenodd" clip-rule="evenodd" d="M62.6943 63.2978L63.6651 64.2619L64.6159 63.2978L63.6651 62.3403L62.6943 63.2978Z" fill="white"/>
</g>
<defs>
<clipPath id="clip0_2561_66228">
<rect width="127.143" height="183.739" fill="white"/>
</clipPath>
</defs>
</svg>
