<svg width="526" height="617" viewBox="0 0 526 617" fill="none" xmlns="http://www.w3.org/2000/svg">
<path d="M28.5642 138.675C43.0411 124.312 32.25 93.1926 60.9379 95.5484C71.9951 96.1944 76.6687 81.1474 87.9919 82.1734C95.7054 82.7813 103.153 86.163 109.612 90.3427C111.246 91.5207 111.93 91.2167 112.424 89.2788C113.488 82.6673 118.352 77.8417 121.392 72.1801C122.569 69.7482 123.671 67.3164 125.495 65.3026C130.245 59.147 137.084 58.1971 144 56.1452C145.482 55.3093 145.71 54.2834 145.672 52.8775C144.836 37.1846 147.686 15.6402 165.354 10.5866C171.32 8.95271 177.323 7.31881 183.289 5.76092C194.764 2.45517 209.317 -5.29626 218.968 5.64694C226.264 13.7403 227.936 25.2535 235.155 33.4609C239.905 39.0085 245.262 44.1381 249.822 49.8757C250.81 51.1296 251.342 52.8775 250.848 54.5494C243.515 70.5842 217.259 62.4528 203.883 59.527C199.704 58.4631 195.752 56.6772 191.686 55.1953C189.901 54.5493 188.913 54.8913 188.115 56.5252C187.431 57.8931 185.607 60.5149 187.165 61.6168C192.902 65.9105 191.876 75.5618 190.281 81.6794C189.217 84.9851 188.343 86.2011 184.239 84.6812C183.099 83.9972 182.073 83.3513 180.629 83.4652C180.667 84.1112 180.477 84.9092 180.781 85.4031C185.417 92.6226 189.824 99.9561 195.524 106.454C205.669 120.057 217.562 132.178 231.165 142.361C235.421 146.123 240.209 140.575 244.692 139.739C247.01 138.941 248.872 138.029 249.404 135.407C252.406 130.696 256.662 126.744 261.411 123.78C279.878 112.305 331.44 107.48 326.349 140.841C325.475 143.577 325.133 146.123 326.653 148.706C331.858 171.125 325.741 210.186 297.129 211.668C294.165 212.048 291.961 214.366 289.757 216.228C283.944 220.749 277.636 224.435 270.721 227.019C267.187 227.665 273.456 231.312 274.672 232.566C281.626 237.696 288.959 242.332 296.255 246.967C302.714 250.273 310.01 255.783 309.136 263.914C307.578 273.983 301.574 284.053 293.443 290.208C284.894 296.022 275.356 291.044 266.997 287.434C257.156 283.217 247.39 276.833 236.865 275.085C237.017 276.035 236.865 277.023 237.701 277.669C245.756 287.206 258.03 290.854 268.745 296.44C269.619 296.858 270.265 296.896 271.215 296.554C279.004 295.604 286.261 301.531 292.721 305.331C300.51 314.982 306.172 326.496 312.252 337.287C329.312 362.707 348.957 386.455 370.539 408.152C385.016 423.123 400.861 436.384 416.782 449.797C425.369 456.902 434.451 463.324 443.684 469.555C445.432 470.885 447.218 471.075 449.08 470.847C458.427 469.175 467.85 467.389 477.198 470.201C479.895 470.923 482.707 471.455 485.519 471.645C495.626 472.785 505.657 468.681 515.651 470.087C523.364 471.569 525.796 479.7 525.036 486.616C523.364 498.319 509.533 500.029 500.3 502.461C500.566 502.955 500.718 503.563 501.136 503.867C505.619 506.868 508.887 511.048 512.573 514.848C516.867 521.649 521.806 529.021 520.4 537.57C519.374 543.84 512.079 553.491 505.392 552.351C504.404 552.275 503.416 552.275 503.302 553.643C502.656 557.823 500.186 561.774 497.07 564.434C491.105 566.752 485.139 567.398 479.439 563.636C478.337 562.914 477.35 563.256 477.084 564.396C472.486 580.279 454.589 579.823 448.472 565.08C443.798 553.415 440.986 540.952 433.957 530.351C428.143 521.421 424.267 510.782 417.618 502.575C386.232 481.182 359.444 453.558 333.644 426.048C331.592 438.739 327.641 450.974 323.157 462.982C311.796 504.437 299.94 545.854 290.441 587.764C287.667 606.231 292.379 624.812 293.671 643.279C295.305 659.009 296.711 674.778 297.319 690.585C296.711 695.297 300.244 705.936 293.557 706.772C291.961 707.038 290.403 707.342 288.807 707.57C286.261 707.95 286.262 707.912 285.73 710.381C284.134 717.905 280.714 724.593 276.192 730.634C270.493 737.968 263.273 744.807 254.648 748.645C253.318 749.177 252.824 750.013 252.862 751.419C252.596 763.692 253.052 775.965 254.154 788.162C256.054 801.309 257.954 814.456 261.981 827.147C262.361 828.667 263.159 829.465 264.565 829.807C273.304 831.555 283.032 832.961 288.237 841.092C292.987 847.096 297.547 857.621 290.023 863.206C287.135 865.79 282.994 866.74 280.866 870.16C280.638 870.502 280.182 870.768 279.802 870.958C271.937 875.479 262.855 875.138 254.154 876.163C241.463 878.253 227.328 876.467 216.195 869.666C209.127 863.966 209.393 851.541 207.721 843.144C204.871 817.002 202.44 790.67 204.073 764.376C204.035 759.018 204.111 753.47 205.783 748.341C208.063 740.247 215.131 735.118 219.5 728.24C223.984 721.553 226.454 713.611 227.252 705.594C227.328 704.302 226.796 703.922 225.77 703.694C217.904 702.022 210.343 699.324 202.668 697.045C201.946 696.817 201.528 696.589 200.882 697.387C194.574 705.632 187.963 713.763 180.439 720.983C169.268 732.078 155.665 740.247 141.758 747.467C140.39 748.227 139.022 748.835 138.908 750.811C136.932 758.372 135.033 766.086 133.285 773.761C129.637 793.064 124.203 812.29 124.051 832.049C123.937 834.747 123.899 834.784 126.483 835.81C136.856 839.952 145.14 846.412 150.003 856.747C155.019 866.816 153.385 881.825 139.972 882.319C139.06 882.281 137.996 882.547 137.312 883.079C134.653 885.131 131.689 885.625 128.497 885.473C122.721 886.461 116.87 884.295 111.284 883.573C102.013 884.029 93.2355 879.203 85.2181 875.024C78.7206 871.832 78.3026 864.346 76.4407 858.153C74.7309 852.301 73.933 846.184 73.325 840.104C70.9692 797.357 82.0263 754.04 97.6052 714.295C101.557 704.15 111.74 700.046 119.948 694.119C124.849 690.129 129.523 685.987 133.323 680.782C149.205 656.995 157.071 627.738 163.15 600.114C148.18 606.459 132.145 610.449 115.692 610.905C112.728 611.475 106.611 608.701 110.296 605.433C112.5 603.115 115.882 601.747 117.25 598.822C113.45 597.682 109.346 599.658 105.471 599.354C91.6017 597.986 76.6688 594.68 65.8396 585.371C64.3577 584.345 59.228 579.329 58.5441 582.863C57.6701 595.63 41.5972 600.304 32.3639 592.97C26.1324 588.714 20.8888 582.369 19.2169 574.845C19.1409 574.313 18.343 573.592 17.773 573.44C14.1252 573.06 10.1356 572.908 7.13379 570.476C-8.17908 558.659 5.1579 538.9 18.381 532.251C21.9527 530.997 23.0167 530.237 20.5849 526.931C15.1893 514.278 25.2585 500.903 38.8615 502.043C41.2933 502.119 41.6353 501.663 41.2933 499.269C40.9513 495.393 40.0394 491.366 40.6853 487.49C43.1552 480.422 49.8047 493.721 53.5664 493.835C54.1744 488.326 51.5906 482.512 51.8946 476.889C51.9706 471.721 52.6165 466.515 53.1484 461.348C54.0603 454.394 54.0983 447.175 56.8341 440.639C57.0241 440.145 57.8981 439.575 58.4301 439.613C60.4059 440.297 60.5199 443.261 61.4698 444.895C63.6357 448.429 76.0228 481.296 78.6446 474.419C91.9817 429.848 117.06 389.153 144.494 351.84C152.359 341.276 160.453 330.941 169.876 321.708C170.37 321.214 171.092 320.682 170.56 319.618C168.394 315.324 169.838 311.639 173.144 308.751C177.133 305.293 181.389 302.139 185.569 298.948C187.659 297.352 190.091 297.048 192.408 298.378C193.586 299.062 193.738 298.378 194.042 297.58C196.17 290.018 191.8 282.229 186.937 276.833C183.897 273.375 180.135 270.526 176.183 268.018C171.244 265.168 165.506 267.866 160.225 268.018C154.525 267.752 147.8 271.362 143.088 267.03C128.155 258.822 115.464 244.232 111.284 227.513C110.03 222.421 112.196 217.595 114.02 212.922C118.998 201.143 124.963 189.212 125.419 176.179C125.571 164.323 123.633 152.468 118.96 141.563C118.618 140.651 118.2 139.587 116.718 139.587C109.688 137.687 102.545 136.053 95.3253 134.875C94.2614 134.686 93.3115 134.686 92.7036 135.863C86.9659 146.845 76.7828 154.71 66.4095 161.094C57.1382 166.793 46.2329 166.071 35.9357 164.361C28.4882 162.955 17.887 159.384 20.1668 149.884C23.0166 146.161 25.7904 142.437 28.5642 138.675ZM122.417 77.5757C120.518 78.9056 112.006 97.4482 117.668 94.4464C126.939 86.0871 141.188 88.5949 150.611 95.3204C153.195 97.2963 155.247 93.7245 156.995 92.2426C159.655 89.6968 150.611 83.1233 148.56 81.4134C141.758 75.2579 129.105 67.9244 122.417 77.5757ZM159.237 86.1631C160.529 87.607 161.669 89.1648 161.935 91.1787C162.086 92.3186 162.77 92.5086 163.53 91.7867C166.798 88.6709 171.092 89.3928 174.93 88.5569C176.184 88.8988 179.375 90.0388 178.387 87.6829C173.486 78.7536 176.259 86.429 171.434 87.037C166 87.455 161.972 83.6172 157.527 83.3513C157.489 84.5672 158.515 85.2891 159.237 86.1631ZM142.366 61.1609C137.236 60.7809 131.385 63.5927 128.953 68.0384C129.067 68.2664 129.599 68.4944 129.903 68.4564C137.35 67.8484 143.24 73.32 149.32 76.7017C155.551 78.8296 162.314 79.7036 168.242 82.7813C169.8 83.5033 170.598 83.1613 171.168 81.5274C172.65 77.3857 174.284 72.3701 170.408 70.4322C161.821 65.6446 152.245 61.9968 142.366 61.1609ZM198.45 33.5369C200.426 30.6111 215.017 15.8302 217.829 19.2879C218.284 20.3519 217.638 21.0738 216.727 21.6438C211.635 24.7216 207.113 28.6732 203.655 33.4609C199.97 38.4005 196.474 43.4922 192.978 48.5838C191.876 50.1797 192.104 50.5977 194.042 51.3576C208.215 56.5632 223.452 60.4389 238.613 59.489C243.097 59.109 248.758 54.4734 245.034 49.8377C243.249 47.5579 241.273 45.43 239.259 43.3782C232.457 36.3487 227.404 28.2173 223.224 19.44C219.234 10.5866 212.471 0.441292 201.338 3.89904C189.33 7.43278 177.361 11.1945 165.316 14.6523C152.891 18.604 150.535 33.2709 150.117 44.5941C149.965 46.8359 149.813 49.0778 149.699 51.3576C149.585 53.3715 149.889 53.5995 151.979 53.6375C161.593 53.4095 171.13 54.6633 180.173 58.0451C182.073 58.691 182.415 58.6151 183.403 56.8292C187.925 48.7738 192.674 40.7944 198.45 33.5369ZM183.783 80.3495C187.773 83.0853 187.089 73.738 187.507 71.2682C188.381 63.9727 180.743 62.5668 175.082 60.591C168.014 58.3491 160.947 57.2852 154.259 57.2852C153.765 57.2852 153.233 57.7791 152.739 58.0831C154.943 60.401 158.857 59.983 161.555 61.5789C166.646 64.9606 177.589 66.7465 176.943 74.3459C176.07 78.4116 181.275 78.4876 183.783 80.3495ZM227.974 144.565C220.64 139.587 214.941 132.71 208.025 127.352C212.015 134.078 213.117 141.601 213.687 149.276C215.663 148.745 231.735 147.795 227.974 144.565ZM307.464 128.34C300.51 116.941 282.044 123.438 272.658 127.01C270.189 128.074 268.365 130.088 268.137 133.052C268.137 142.931 286.717 132.634 292.303 132.52C295.495 131 310.048 134.42 307.464 128.34ZM300.32 207.032C313.544 205.094 319.053 192.479 321.979 180.776C324.373 170.973 325.437 159.954 322.017 150.53C316.089 156.61 310.276 162.69 302.524 166.565C300.51 167.667 300.51 167.971 301.27 170.213C305.146 181.802 305.982 194.607 299.371 205.436C298.725 206.652 299.029 207.108 300.32 207.032ZM271.861 303.735C258.79 292.716 236.979 291.234 231.355 272.767C226.454 270.83 221.248 269.728 216.119 268.55C213.193 268.132 209.925 266.726 207.151 268.056C228.962 292.716 218.474 315.362 214.105 343.974C215.321 346.064 216.157 348.496 217.638 350.358C221.058 352.372 222.73 355.905 225.086 358.869C227.632 362.099 230.102 365.405 232.533 368.748C233.141 369.584 233.635 369.698 234.585 369.242C251 361.605 268.365 357.045 286.147 353.968C287.515 353.322 291.923 354.12 290.973 351.84C285.578 336.717 279.84 321.708 274.178 306.661C273.722 305.369 272.849 304.609 271.861 303.735ZM321.447 358.185C321.333 358.299 321.333 358.337 321.447 358.451C321.561 358.337 321.561 358.261 321.447 358.185ZM477.958 551.249C478.11 552.845 478.185 554.441 478.147 556.075C478.261 560.292 483.999 561.052 487.153 562.116C495.93 564.928 501.896 553.833 499.464 546.12C498.476 539.09 494.334 533.276 490.421 527.501C489.965 526.741 489.661 526.171 488.711 526.931C484.493 530.275 480.199 533.581 475.944 536.886C474.158 538.292 473.968 538.634 475.222 540.534C477.426 543.802 477.578 547.563 477.958 551.249ZM415.642 496.571C418.378 498.091 421.152 499.763 422.672 502.613C428.979 513.898 435.249 525.183 441.442 536.582C445.812 546.613 448.13 558.051 454.437 567.17C459.187 574.466 470.472 573.668 472.828 564.434C474.728 556.873 474.918 547.981 470.928 541.066C470.32 540.078 467.66 539.204 467.356 538.102C467.508 537.456 468.192 536.506 468.8 536.392C476.172 534.188 481.377 528.033 487.419 523.587C489.167 522.599 490.611 518.382 492.89 519.483C493.878 520.167 493.346 521.117 492.89 521.915C491.75 524.043 491.75 524.005 493.422 525.715C498.666 531.149 501.858 537.646 503.188 545.056C503.758 548.247 506.569 549.805 509.343 548.019C514.853 544.448 518.349 538.786 516.715 531.719C514.625 521.535 507.215 513.974 499.464 507.514C497.222 505.728 494.714 504.247 492.206 502.803C490.573 502.233 488.825 503.905 487.457 504.665C486.659 505.083 485.519 505.463 485.063 504.475C484.303 501.701 487.533 499.345 490.041 498.927C497.754 497.711 505.847 498.167 513.105 494.937C519.602 492.163 523.63 483.956 519.868 477.117C518.083 474.001 513.941 473.165 510.635 473.241C501.478 474.115 492.282 475.711 483.011 475.255C474.88 474.153 466.938 471.075 458.617 472.937C453.981 473.051 449.156 475.445 444.596 474.533C442.354 473.241 440.226 471.835 438.022 470.467C427.763 475.293 421.798 484.754 415.528 493.683C414.806 494.747 414.654 495.583 415.642 496.571ZM334.024 418.905C333.986 420.235 334.29 421.071 335.278 422.097C358.798 447.517 383.8 471.493 411.12 492.847C412.222 493.075 412.83 492.733 413.324 491.594C416.212 485.476 421.76 481.03 426.053 475.901C428.333 472.747 432.665 471.265 434.489 468.719C391.818 437.789 354.391 400.096 321.789 358.983C327.526 378.438 335.468 398.234 334.024 418.905ZM213.915 854.201C215.435 858.153 214.979 863.662 218.816 866.208C229.456 872.212 242.185 873.542 254.192 872.554C256.244 872.364 256.7 871.718 257.08 869.628C258.22 863.32 252.9 855.759 248.112 853.631C246.63 853.251 245.642 852.377 244.997 850.971C252.178 847.096 262.361 862.37 261.183 869.058C261.183 870.882 261.601 871.49 263.387 871.3C268.973 870.16 279.27 870.54 279.802 863.054C279.916 855.911 274.976 849.223 269.011 845.69C267.909 845.196 266.883 844.132 267.111 842.878C269.277 841.054 272.734 843.6 274.444 845.158C278.966 849.489 282.348 854.467 283.412 860.775C283.64 863.054 285.198 862.142 286.375 861.117C290.441 857.963 291.201 856.063 289.605 851.161C286.679 842.308 280.752 836.798 271.329 835.202C256.852 832.201 259.131 831.137 255.788 818.028C254.952 817.534 254.23 817.61 253.508 818.294C249.594 821.258 244.389 822.207 239.639 823.119C230.292 824.563 220.754 824.677 211.559 822.207C210.723 822.017 210.229 822.169 209.773 822.777C211.141 833.189 211.331 843.866 213.915 854.201ZM223.68 729.038C219.766 735.65 213.041 740.247 210.343 747.543C207.759 760.31 208.101 773.761 207.835 786.794C209.203 787.972 207.531 789.758 207.949 791.43C208.633 791.962 208.671 792.531 208.101 793.139C207.949 795.685 208.253 798.193 208.101 800.739C208.823 801.119 208.861 801.879 208.291 802.449C208.291 803.171 208.253 803.893 208.253 804.615C208.975 805.109 209.013 805.679 208.443 806.325C208.519 810.048 208.785 813.772 208.975 817.458C210.647 819.472 213.573 820.042 216.005 820.384C227.366 821.485 239.335 821.181 250.126 817.04C251.874 816.28 254.496 816.28 254.686 813.43C249.48 792.494 248.264 770.987 249.138 749.481C249.556 744.579 256.244 744.009 259.359 741.121C270.303 733.788 277.826 722.085 281.436 709.546C281.74 708.52 281.474 708.102 280.372 708.178C264.755 709.508 249.1 707.95 233.711 705.214C231.583 704.872 231.508 704.872 231.242 707.114C230.368 715.055 227.898 722.275 223.68 729.038ZM236.105 701.832C254.534 705.29 273.304 705.518 291.847 703.162C293.329 703.048 293.747 702.402 293.709 700.996C293.291 680.288 291.543 659.655 289.263 639.061C288.085 621.582 283.64 603.913 286.641 586.435C290.935 566.524 296.521 546.917 301.612 527.235C307.502 505.539 313.202 483.804 319.319 462.184C327.526 440.677 334.1 417.043 327.754 394.169C321.143 364.531 309.592 336.603 292.645 311.335C291.429 309.283 289.795 307.725 287.667 306.661C282.994 304.685 278.586 301.493 273.722 300.239C277.142 301.835 277.902 305.179 279.004 308.181C284.78 323.76 290.441 339.339 296.179 354.917C296.711 356.323 295.951 356.323 295.039 356.475C281.664 358.375 268.517 361.187 255.674 365.253C248.074 367.647 240.665 370.534 233.559 374.106C232.419 374.676 231.963 374.486 231.242 373.536C226.834 367.685 222.768 362.023 218.17 356.285C219.956 363.429 222.692 370.192 226.454 376.538C227.024 377.374 226.758 377.754 225.922 378.248C222.996 380.11 220.108 382.01 217.335 384.061C215.967 385.315 215.739 382.807 214.979 382.048C211.787 376.5 211.369 375.778 205.745 373.004C207.987 379.312 211.673 385.277 214.713 391.319C215.093 392.041 215.549 392.231 216.195 391.737C217.41 390.787 217.676 391.661 217.866 392.573C228.164 429.088 230.444 467.161 229.912 504.968C233.179 503.525 235.915 501.131 238.955 499.231C239.715 498.699 240.437 498.129 241.349 498.927C241.615 500.143 240.703 500.637 239.943 501.207C233.863 505.576 227.48 509.414 220.754 512.682C213.307 516.254 205.935 520.015 198.336 523.283C195.144 524.651 192.94 526.247 191.838 529.553C191.192 531.491 190.167 533.315 189.217 535.1C188.571 536.316 189.255 536.278 190.09 536.278C201.376 536.468 212.737 536.126 223.984 534.986C207.911 583.243 192.142 631.575 175.652 679.68C175.234 680.82 175.841 680.972 176.525 681.314C195.144 691.193 215.321 698.184 236.105 701.832ZM220.146 373.498C219.082 374.372 218.094 375.284 217.069 376.12C217.41 377.07 217.677 377.716 217.943 378.362C220.222 377.64 223.262 375.36 220.146 373.498ZM185.227 534.758C187.887 530.275 188.571 523.511 193.548 521.003C198.716 519.065 198.602 519.065 200.996 514.012C210.229 494.253 216.043 472.443 212.927 450.557C209.621 426.808 199.704 403.896 186.785 383.871C186.101 382.883 185.265 382.921 184.353 383.681C175.955 390.369 168.356 397.892 161.593 406.252C141.112 429.924 127.737 458.916 121.201 489.466C119.568 497.369 117.82 505.272 116.3 513.176C116.186 514.202 116.794 515.57 117.516 516.406C133.285 534.302 153.233 550.489 176.335 557.443C177.741 557.595 179.109 557.899 179.793 556.303C182.377 551.211 184.999 546.12 187.583 541.028C187.925 540.306 188.305 539.888 187.089 539.432C185.227 538.71 184.429 536.582 185.227 534.758ZM77.0867 822.853C76.9348 833.569 78.3026 867.234 88.5619 872.06C94.9074 875.404 101.519 878.633 108.776 879.089C115.692 879.013 111.398 866.626 111.36 862.333C110.98 859.901 109.574 858.077 107.371 856.937C106.345 856.595 105.851 855.075 105.927 854.201C106.497 852.947 108.89 852.757 109.84 853.745C116.072 858.913 116.756 867.348 116.718 874.91C116.87 876.619 114.438 879.469 117.25 879.963C122.683 880.875 136.058 883.801 137.35 876.277C138.908 869.286 135.64 862.409 130.967 857.355C130.891 856.709 130.701 855.607 131.005 855.455C131.537 855.151 132.601 855.075 133.057 855.417C139.098 860.091 142.214 867.88 141.34 875.555C141.074 877.531 141.568 877.873 143.468 877.303C153.879 873.504 147.154 859.179 143.088 852.453C139.136 844.55 130.511 842.08 123.291 838.242C121.658 837.406 120.1 836.456 120.062 834.291C119.606 829.503 120.176 824.715 120.252 819.928C119.682 819.776 118.96 819.32 118.58 819.548C108.32 823.499 96.8833 822.321 86.2441 820.839C83.8882 820.497 81.6084 819.814 79.3666 819.092C78.2647 818.75 77.6947 819.168 77.1248 819.928C77.1248 820.953 77.0867 821.903 77.0867 822.853ZM161.175 625.686C152.207 652.322 144.608 683.138 119.378 699.172C116.11 701.414 112.69 703.504 109.346 705.67C101.177 711.597 98.6691 722.351 95.3253 731.356C95.7433 731.964 95.5914 732.344 94.8694 732.572C93.7295 736.752 92.2856 740.855 91.3357 745.073C91.8297 746.137 91.2597 746.859 90.4998 747.467C89.7018 749.861 90.3098 752.672 88.4859 754.686C87.536 758.752 85.978 762.628 85.3321 766.769C85.826 767.377 85.5601 767.795 84.9142 768.023C84.8762 768.251 84.8382 768.441 84.8382 768.669C85.2562 769.391 85.1801 769.923 84.3821 770.303C84.2682 771.557 83.7362 772.735 83.6982 774.027C84.1162 774.711 84.0782 775.281 83.2423 775.661C81.7224 782.994 79.7465 790.252 79.1006 797.775C79.4806 798.573 79.5186 799.295 78.6446 799.827C77.9607 802.563 79.0625 807.502 77.6186 809.44C77.4666 811.188 77.3527 812.974 77.2007 814.722C77.6187 815.14 77.9987 815.862 78.5306 815.938C84.0023 817.002 89.4358 818.104 94.9454 818.978C99.771 819.396 122.531 820.156 121.05 812.822C120.556 812.1 120.746 811.454 121.467 811.15C121.543 810.428 121.619 809.706 121.695 808.984C121.239 808.3 121.316 807.73 122.113 807.351C122.189 806.743 122.227 806.173 122.303 805.565C121.923 804.767 121.847 804.045 122.759 803.513C122.797 803.057 122.873 802.563 122.911 802.107C122.455 801.423 122.531 800.853 123.329 800.435C123.671 797.623 124.621 794.925 125.077 792.152C124.659 791.43 124.697 790.86 125.533 790.518C128.725 776.953 130.929 763.084 135.108 749.747C134.918 748.607 134.424 747.429 135.678 746.555C144.798 740.095 155.665 735.878 164.632 728.848C175.538 721.135 184.847 711.75 193.13 701.338C194.232 699.932 195.334 698.488 196.398 697.045C197.614 695.411 197.462 695.145 195.676 694.309C188.533 691.041 181.427 687.811 174.322 684.467C171.586 683.176 170.864 681.352 171.852 678.502C187.469 632.525 203.086 586.587 218.702 540.61C219.158 539.546 218.702 539.394 217.79 539.432C215.017 539.584 212.281 539.698 209.507 539.812C204.112 539.964 198.716 540.306 193.32 540.192C192.332 540.154 191.952 540.762 191.61 541.446C176.791 567.778 168.128 596.466 161.175 625.686ZM77.4667 587.878C91.9057 594.376 107.864 596.542 123.329 592.894C125.001 592.4 126.521 591.488 128.345 592.134C128.155 593.274 128.383 594.642 127.205 595.288C123.557 598.936 118.466 601.557 115.692 605.851C122.721 608.283 164.822 599.734 166 591.716C168.432 583.167 170.788 574.617 175.12 566.752C175.841 565.156 178.083 562.078 175.196 561.584C153.043 555.315 133.779 540.876 118.846 523.701C113.678 515.494 114.856 525.487 113.906 529.401C113.982 529.439 114.058 529.439 114.096 529.439C114.172 531.415 111.816 535.328 114.856 535.784C121.923 536.81 127.889 540.116 132.867 545.094C147.42 562.762 123.329 576.669 106.573 574.237C103.495 574.541 98.8592 570.514 97.1873 574.465C92.7416 582.901 85.1802 585.523 76.2888 586.625C76.6688 587.005 76.9727 587.688 77.4667 587.878ZM75.4529 481.562C69.0693 471.227 63.7497 460.436 58.886 449.417C55.2383 466.857 53.2624 487.11 62.5337 503.145C63.0657 503.867 63.6737 504.703 62.8378 505.576C62.0398 506.412 61.0899 506.108 60.368 505.539C55.6183 501.891 51.2866 497.787 47.0309 493.607C46.4989 493.151 45.701 493.075 45.0551 492.847C44.5231 495.583 45.511 498.357 45.6629 501.093C45.7769 502.309 46.3469 502.955 47.5628 503.145C54.4023 504.247 60.4819 507.666 66.7134 510.516C67.8154 511.048 68.4613 510.782 68.6133 509.604C69.7152 500.713 73.515 492.619 75.7568 484.032C75.9088 483.272 75.8329 482.246 75.4529 481.562ZM74.123 503.677C73.591 506.108 73.135 508.578 72.527 511.01C71.9571 513.176 71.8811 513.29 73.781 514.696C79.1006 518.571 84.0402 522.903 88.3339 527.919C89.3598 529.591 97.4532 537.38 92.2856 537.228C81.2284 527.083 71.1591 514.962 56.4162 509.604C42.2812 503.297 17.6971 503.943 24.2706 525.525C29.3242 541.256 47.6009 543.232 61.7358 543.308C64.9656 543.08 65.5736 547.07 61.7739 547.336C49.1208 547.639 34.8718 545.892 26.0565 535.822C24.9166 534.568 23.8526 534.264 22.1428 534.682C8.65375 537.304 -4.07538 562.61 12.7194 568.69C22.9407 571.654 32.212 567.512 40.2674 561.204C41.2553 560.558 42.2812 560.216 43.1931 561.28C43.8391 562.04 43.5732 563.522 42.5092 564.396C37.4936 568.424 32.4019 572.224 25.7144 572.87C22.2946 573.174 22.2947 573.972 23.5486 577.011C26.9684 583.699 33.2 589.436 40.3055 591.868C47.2589 593.844 53.9844 589.056 54.4024 581.875C54.8583 577.581 52.9584 573.705 52.0845 569.678C52.0465 568.082 53.7184 567.284 54.8203 568.348C57.4801 571.274 57.2901 576.099 61.1278 577.809C71.5391 583.623 88.7898 584.877 93.9954 571.73C94.5274 570.514 93.7295 569.944 92.8936 569.412C91.3357 568.386 89.7778 567.398 88.2199 566.334C87.27 565.954 86.624 564.32 87.004 563.56C87.3839 563.104 88.2959 562.99 88.9799 562.876C91.5637 563.94 94.2615 565.384 96.6933 566.79C106.079 572.224 118.2 571.046 127.281 565.688C143.354 552.237 124.317 538.748 109.46 538.938C106.459 538.558 102.849 539.432 100.911 536.658C102.659 534.872 105.015 535.328 107.294 535.366C109.156 535.442 109.384 535.062 109.612 533.201C109.992 529.591 110.638 525.981 111.17 522.371C103.913 510.06 90.6517 502.347 76.0988 502.575C75.1868 502.575 74.5789 502.879 74.123 503.677ZM171.206 325.926C149.851 348.268 131.993 374.106 116.604 400.894C97.9852 430.95 83.7743 463.628 75.6808 497.977C75.7568 499.877 77.1248 499.649 78.4167 499.725C90.3858 500.067 102.887 506.07 109.65 516.14C110.068 516.71 110.828 518.002 111.36 516.672C111.474 516.406 111.778 516.254 112.006 516.026C112.044 513.708 112.614 511.542 112.88 509.262C112.424 508.54 112.5 507.97 113.298 507.59C113.602 505.31 114.248 503.107 114.552 500.827C114.134 500.105 114.172 499.535 114.97 499.193C116.148 494.025 117.478 488.858 118.732 483.652C118.314 482.588 118.808 481.866 119.606 481.22C129.599 436.953 157.147 396.752 195.03 371.712C195.752 371.256 196.626 370.686 197.234 371.636C197.842 372.624 197.31 373.46 196.474 374.106C194.422 375.664 192.37 377.222 190.356 378.78C188.989 379.844 188.875 380.452 189.976 381.63C195.106 387.253 198.374 393.941 201.338 400.818C208.595 417.347 215.511 434.218 217.41 452.342C220.64 474.495 213.117 495.507 204.985 515.646C211.901 513.062 218.36 508.882 225.086 505.653C225.542 505.425 225.96 504.665 225.96 504.171C226.53 472.329 225.2 440.145 218.208 408.95C217.296 404.998 216.271 401.084 215.283 397.17C215.055 396.258 214.789 395.612 213.687 395.271C212.927 395.043 212.167 394.245 211.787 393.523C205.175 383.529 202.212 371.408 195.068 361.871C187.089 350.548 179.603 338.921 173.638 326.382C172.802 324.9 172.802 324.52 171.206 325.926ZM192.218 304.039C191.648 301.683 189.711 300.771 187.773 302.253C183.403 305.711 178.919 309.055 174.74 312.779C167.596 316.958 203.997 372.13 211.217 373.764C212.205 374.258 213.003 374.448 213.725 373.46C215.435 371.446 219.31 370.154 219.234 367.229C213.155 344.962 196.74 326.914 192.218 304.039ZM194.688 280.063C198.868 286.598 201.186 295.49 196.816 302.519C196.094 303.583 196.094 304.571 196.474 305.597C200.312 317.566 205.631 328.851 211.597 339.909C214.903 330.143 215.093 319.238 217.562 309.131C221.134 292.602 212.129 276.605 200.008 266.004C196.322 266.308 192.636 265.738 188.951 265.738C188.039 266.65 187.089 266.422 186.101 265.89C184.999 265.852 183.859 265.776 182.757 265.738C182.681 266.232 182.567 266.688 182.491 267.182C187.583 270.45 191.42 275.009 194.688 280.063ZM97.7952 131.456C104.711 131.912 111.208 134.23 117.896 135.825C120.897 136.319 120.822 131 121.885 128.986C122.303 127.352 121.392 126.212 120.1 125.262C113.108 120.665 106.877 115.003 100.265 110.063C98.8592 116.219 98.6691 122.602 96.0473 128.492C94.9454 130.848 95.2493 131.304 97.7952 131.456ZM26.5884 156.648C39.9634 163.639 57.8981 163.069 70.1332 153.874C80.5824 146.351 89.5878 136.471 93.2356 123.894C100.645 104.782 86.814 93.1546 110.752 113.179C120.859 122.07 132.791 122.374 122.911 138.067C122.341 139.093 122.227 139.891 122.645 140.955C124.203 145.097 125.989 149.2 127.129 153.494C131.993 170.897 129.675 189.478 121.657 205.588C118.542 212.542 114.134 220.331 116.072 228.159C118.694 237.316 123.329 245.295 130.169 251.945C134.919 256.581 140.314 260.456 145.824 264.104C147.23 265.054 148.674 265.434 150.383 265.016C153.803 264.56 157.261 264.37 160.681 263.762C162.239 263.686 163.91 263.458 164.936 262.166C147.344 252.059 130.891 232.908 136.476 211.25C138.452 199.471 147.23 189.857 159.237 188.186C161.061 189.022 163.302 188.072 165.278 188.072C165.506 188.034 165.696 187.654 165.886 187.464C169.648 187.578 173.334 188.3 177.095 188.11C177.095 188.3 177.133 188.49 177.133 188.68C168.508 189.857 158.553 187.35 151.295 193.201C135.83 202.549 134.121 225.271 143.658 239.444C144 240.014 144.456 240.47 144.722 241.04C148.825 246.701 154.069 251.527 159.617 255.745C162.353 257.835 165.506 259.696 167.368 262.66C178.045 262.85 188.799 261.14 199.514 262.394C215.967 263.762 232.837 268.322 248.492 274.667C260.803 278.923 271.823 287.472 284.894 289.106C295.799 287.358 302.03 276.301 304.652 266.498C308.3 254.567 294.203 250.995 286.603 245.599C279.27 241.002 272.392 235.834 266.313 229.679C265.553 228.919 264.983 228.691 263.995 228.957C263.121 229.527 257.954 229.451 259.701 230.857C263.729 234.542 268.099 237.848 272.62 240.926C279.346 245.827 287.477 249.019 293.177 255.137C301.08 265.852 281.778 272.881 273.532 270.564C237.397 263.496 206.771 240.47 179.413 216.912C175.918 213.91 172.612 210.642 169.306 207.374C167.406 205.36 165.582 208.02 163.872 208.856C162.998 209.388 162.011 209.73 161.251 208.742C158.971 204.182 177.855 197.609 181.389 198.863C183.441 198.939 183.327 202.207 181.313 202.207C179.755 202.359 178.121 201.979 176.715 202.929C203.694 223.105 241.007 234.732 273.57 221.395C293.215 214.442 307.008 192.745 297.547 172.645C296.939 171.087 295.913 170.441 294.165 170.061C277.294 165.843 260.917 156.876 249.746 143.387C248.568 141.943 248.454 142.019 246.744 142.817C232.457 149.011 215.701 158.206 200.388 150.074C199.932 148.516 198.374 148.972 197.386 148.402C185.949 139.853 175.613 127.922 170.712 114.509C172.042 112.951 172.65 113.407 174.018 112.761C177.817 108.581 183.897 109.645 187.849 111.887C198.906 118.233 204.757 128.188 207.911 140.081C208.481 142.247 208.785 144.451 207.835 146.693C206.847 148.858 209.469 149.087 211.027 149.049C212.205 141.107 207.189 133.66 206.505 126.06C205.821 125.566 205.973 124.16 204.643 124.388C203.77 120.855 200.236 119.107 198.222 116.219C194.536 111.849 192.028 106.758 187.849 102.73C186.785 101.058 185.113 101.476 183.593 101.438C178.273 100.678 172.878 100.45 167.748 102.274C162.428 104.098 162.657 97.2583 160.947 94.1805C160.529 94.5225 160.111 94.8644 159.693 95.2064C149.965 106.264 149.661 96.0043 139.896 94.4085C133.209 92.9266 124.887 92.3186 120.024 98.0562C119.682 98.5501 119.568 99.4241 120.594 99.6901C121.201 100.488 121.847 101.4 121.657 102.464C118.846 105.466 113.906 97.6383 111.17 96.3843C101.329 88.9369 85.9781 80.2735 76.1368 92.2426C72.907 95.0164 69.9432 98.2082 65.6495 99.1961C61.9258 99.918 57.9741 99.8421 54.1364 100.032C43.0792 100.374 43.4971 114.281 40.5713 122.146C38.5955 130.278 35.4417 137.725 29.5141 143.843C26.7403 147.225 21.3068 153 26.5884 156.648ZM238.993 235.758C247.542 243.776 255.864 252.249 262.133 262.166C262.779 263.154 263.463 263.99 264.717 264.256C272.658 266.498 281.322 269.082 288.579 263.572C290.251 262.432 291.999 260.038 290.479 258.062C286.489 253.351 280.41 251.071 275.47 247.499C267.719 242.902 261.259 236.632 254.306 230.895C246.934 230.971 239.677 231.008 232.153 230.059C234.661 232.11 236.865 233.896 238.993 235.758ZM231.811 234.96C227.746 231.996 224.402 227.703 219.158 226.981C203.085 223.029 188.685 214.86 174.208 207.45C174.626 209.616 177.247 210.566 178.691 212.124C186.405 218.317 193.928 224.739 201.3 231.35C218.664 242.636 235.763 254.757 255.636 261.482C260.461 260.076 234.851 236.86 231.811 234.96ZM185.721 126.972C186.025 126.06 185.075 125.262 183.441 125.186C183.175 125.452 182.415 125.908 182.225 126.516C181.997 127.352 183.745 129.366 184.505 129.29C185.949 129.1 185.417 127.732 185.721 126.972ZM187.279 122.678C196.208 125.756 200.046 134.686 204.681 142.019C205.251 131.798 189.255 109.151 177.627 114.129C173.524 116.219 177.209 119.487 178.767 122.07C179.489 123.172 180.325 123.514 181.541 122.83C183.403 121.766 185.303 121.994 187.279 122.678ZM188.419 128.834C188.533 130.924 196.664 139.587 196.474 134.382C196.284 132.824 188.077 123.818 188.419 128.834ZM197.728 139.511C198.488 141.107 200.578 148.783 202.402 144.717C200.92 142.589 200.654 138.599 197.994 138.105C197.88 138.599 197.576 139.131 197.728 139.511Z" fill="#1D1D1B"/>
<path d="M175.651 679.605C178.235 672.309 180.705 664.938 183.213 657.604C184.353 660.872 186.48 662.772 190.052 663C191.42 663.076 192.788 663.608 194.118 664.064C196.474 664.9 197.652 664.52 198.487 662.126C199.969 657.984 201.337 653.767 202.667 649.549C215.092 610.108 228.581 570.819 239.525 531.036C223.414 535.671 206.809 536.697 190.052 536.165C189.216 536.165 188.532 536.203 189.178 534.987C190.128 533.164 191.154 531.34 191.8 529.44C192.902 526.172 195.106 524.538 198.298 523.17C212.546 516.635 227.175 510.365 239.942 501.132C240.702 500.562 241.614 500.068 241.348 498.852C241.006 477.27 238.157 455.573 236.675 433.953C235.155 422.516 236.371 410.205 232.989 399.223C228.771 393.41 223.908 388.09 220.146 381.973C222.084 380.681 223.984 379.351 225.96 378.173C226.757 377.679 227.061 377.299 226.492 376.463C222.692 370.118 219.994 363.392 218.208 356.21C222.806 361.948 226.909 367.648 231.279 373.461C231.963 374.411 232.457 374.601 233.597 374.031C240.702 370.421 248.112 367.572 255.711 365.178C268.554 361.074 281.701 358.262 295.076 356.4C296.026 356.286 296.748 356.248 296.216 354.843C290.479 339.264 284.817 323.647 279.042 308.106C277.94 305.104 277.18 301.76 273.76 300.165C278.624 301.38 283.031 304.61 287.705 306.586C289.833 307.65 291.467 309.208 292.683 311.26C312.897 342.873 329.084 379.275 330.338 417.196C329.54 432.813 324.79 447.594 319.357 462.109C313.239 483.729 307.54 505.464 301.65 527.16C296.558 546.881 290.973 566.449 286.679 586.36C283.677 603.838 288.123 621.507 289.301 638.986C290.859 654.071 292.417 669.156 293.139 684.317C293.443 689.826 293.519 695.374 293.747 700.921C293.823 702.327 293.405 702.973 291.885 703.087C261.297 707.229 229.949 703.011 201.071 692.22C192.674 689.066 184.467 685.419 176.563 681.163C175.841 680.897 175.233 680.745 175.651 679.605Z" fill="white"/>
<path d="M171.964 189.935C179.791 190.619 187.049 187.618 192.14 181.652C202.248 177.738 191.456 154.408 200.348 150.038C203.692 151.672 207.111 152.85 210.835 153.23C211.671 153.952 212.545 154.028 213.457 153.382C225.35 152.736 235.989 147.607 246.704 142.781C248.452 142.021 248.566 141.907 249.706 143.351C260.877 156.84 277.216 165.845 294.125 170.025C295.873 170.405 296.899 171.051 297.507 172.609C306.93 192.709 293.137 214.444 273.53 221.359C240.967 234.696 203.654 223.069 176.676 202.893C178.081 201.981 179.715 202.323 181.273 202.171C183.325 202.209 183.363 198.865 181.349 198.827C180.209 198.713 179.031 198.599 177.891 198.789C174.282 199.321 159.235 204.374 161.173 208.706C163.871 211.328 166.492 204.336 169.228 207.338C189.823 226.945 212.355 245.335 237.927 258.064C249.478 262.928 260.877 268.97 273.493 270.528C288.919 273.263 305.714 259.774 285.804 249.249C276.76 243.626 267.527 238.116 259.699 230.82C259.054 230.251 259.092 229.909 260.041 229.757C262.131 229.757 264.563 227.743 266.311 229.605C275.81 239.332 287.513 246.323 299.217 253.049C313.276 261.37 299.293 283.219 288.425 288.386C283.144 290.362 277.444 287.398 272.543 285.498C241.195 269.616 206.313 258.026 170.786 262.89C168.05 261.218 165.466 259.28 162.579 257.837C161.667 257.077 160.565 256.431 159.615 255.709C154.105 251.491 148.862 246.665 144.72 241.004C144.454 240.434 143.998 239.94 143.656 239.408C135.601 225.045 136.171 202.589 151.293 193.165C151.407 193.165 151.483 193.127 151.559 193.051C158.019 190.163 165.01 189.631 171.964 189.935ZM256.926 176.294C261.561 176.484 261.295 169.987 257.116 169.607C252.176 169.607 251.758 175.839 256.926 176.294ZM246.742 194.875C249.706 195.103 250.884 188.948 247.312 188.796C243.665 189.024 242.905 194.191 246.742 194.875ZM230.974 179.904C235.837 180.398 235.723 174.129 231.582 173.711C227.326 173.825 225.958 179.22 230.974 179.904Z" fill="#EFCA69"/>
<path d="M177.514 571.501C181.731 561.28 186.557 551.325 191.725 541.522C192.067 540.838 192.447 540.23 193.435 540.268C201.566 540.344 209.735 539.888 217.905 539.508C218.817 539.47 219.273 539.622 218.817 540.686C203.2 586.624 187.583 632.601 171.966 678.577C170.978 681.465 171.7 683.251 174.436 684.543C181.541 687.887 188.647 691.155 195.79 694.384C197.614 695.22 197.728 695.486 196.512 697.12C195.448 698.564 194.347 700.008 193.245 701.414C184.961 711.825 175.69 721.21 164.747 728.924C155.779 735.953 144.912 740.171 135.793 746.63C134.539 747.504 134.995 748.682 135.223 749.822C131.081 763.159 128.839 776.99 125.648 790.593C124.812 790.935 124.774 791.505 125.192 792.227C124.736 795.001 123.786 797.699 123.444 800.511C122.646 800.891 122.57 801.46 123.026 802.182C122.95 802.638 122.912 803.132 122.874 803.588C121.962 804.12 122 804.842 122.418 805.64C122.342 806.248 122.304 806.856 122.228 807.426C121.43 807.806 121.354 808.376 121.81 809.06C121.734 809.782 121.658 810.504 121.582 811.226C120.86 811.53 120.67 812.138 121.164 812.898C122.646 820.193 99.8474 819.471 95.0597 819.053C89.5881 818.179 84.1166 817.077 78.645 816.013C78.151 815.899 77.771 815.215 77.3151 814.798C77.4671 813.05 77.581 811.264 77.733 809.516C79.1769 807.578 78.037 802.638 78.759 799.903C79.6329 799.371 79.5949 798.649 79.2149 797.851C79.8609 790.327 81.8367 783.07 83.3566 775.736C84.1926 775.394 84.2305 774.824 83.8126 774.103C83.8506 772.811 84.4205 771.671 84.4965 770.379C85.2944 769.999 85.3705 769.429 84.9526 768.745C84.9906 768.517 84.9905 768.327 85.0285 768.099C85.6745 767.871 85.9024 767.453 85.4464 766.845C86.0924 762.703 87.6503 758.828 88.6003 754.762C90.4241 752.748 89.8162 749.936 90.6141 747.542C91.3741 746.896 91.944 746.213 91.4501 745.149C92.4 740.931 93.8438 736.827 94.9838 732.648C95.6677 732.458 95.8577 732.04 95.4397 731.432C98.7455 722.426 101.291 711.673 109.461 705.745C112.804 703.58 116.186 701.49 119.492 699.248C136.705 688.457 146.204 669.8 152.664 651.143C163.341 625.267 166.305 597.073 177.514 571.501Z" fill="#BA6E22"/>
<path d="M173.562 326.461C180.515 342.267 191.497 355.566 200.198 370.233C203.276 378.365 207.418 386.002 211.711 393.564C212.129 394.286 212.889 395.084 213.611 395.312C214.713 395.616 214.979 396.299 215.207 397.211C216.195 401.163 217.221 405.039 218.133 408.991C225.124 440.148 226.454 472.332 225.884 504.212C225.884 504.706 225.466 505.465 225.01 505.693C218.285 508.923 211.825 513.141 204.91 515.687C213.041 495.548 220.565 474.536 217.335 452.383C215.435 434.221 208.557 417.388 201.262 400.859C198.298 393.982 195.03 387.294 189.901 381.671C188.799 380.455 188.913 379.847 190.281 378.821C192.295 377.225 194.346 375.705 196.398 374.147C197.272 373.501 197.804 372.627 197.158 371.677C196.55 370.727 195.676 371.297 194.954 371.753C157.109 396.793 129.523 436.994 119.53 481.261C118.732 481.869 118.238 482.629 118.656 483.693C117.44 488.861 116.072 494.066 114.894 499.234C114.096 499.614 114.02 500.184 114.476 500.868C114.172 503.148 113.488 505.352 113.222 507.631C112.424 508.011 112.348 508.581 112.804 509.303C112.538 511.583 111.968 513.749 111.93 516.067C111.702 516.295 111.399 516.447 111.285 516.713C110.791 518.081 109.993 516.713 109.575 516.181C102.811 506.111 90.31 500.07 78.3409 499.766C74.7312 500.032 75.6432 497.638 76.2891 495.13C85.9784 454.739 105.395 417.73 127.395 382.696C140.808 362.976 154.373 342.989 171.168 326.005C172.802 324.523 172.802 324.903 173.562 326.461Z" fill="#BA6E22"/>
<path d="M29.5523 143.807C35.4798 137.652 38.6336 130.242 40.6095 122.111C43.4973 114.245 43.1173 100.338 54.1365 99.9964C57.9742 99.8065 61.8879 99.8824 65.6496 99.1605C69.9433 98.1726 72.9072 94.9808 76.1369 92.207C85.9782 80.2379 101.329 88.9012 111.17 96.3487C111.55 96.6147 111.93 96.8806 112.31 97.1846C112.272 98.2106 112.918 98.4385 113.754 98.4385C114.476 99.1225 115.236 99.8065 115.958 100.49C115.958 101.516 116.566 101.744 117.44 101.744C118.732 102.77 119.91 103.454 121.734 103.188C121.81 101.858 121.582 100.642 120.632 99.6545C120.176 98.1346 121.658 97.4126 122 96.1967C122.836 96.2727 123.557 96.1967 123.595 95.1328C124.013 94.9428 124.431 94.7148 124.811 94.5248C126.065 95.1328 126.863 94.4108 127.623 93.5749C131.043 92.9669 134.501 93.6509 137.958 93.8789C138.186 94.6008 138.604 94.7908 139.174 94.1829C140.694 94.5628 141.644 95.5887 143.202 96.1207C141.112 96.9186 139.098 96.5387 137.046 96.2727C135.261 97.0707 133.475 97.8686 132.981 100.034C131.879 100.338 131.347 101.174 131.651 102.238C131.499 102.504 131.385 102.732 131.233 102.998C129.637 103.378 130.549 104.86 130.131 105.962C128.497 107.824 128.117 114.169 129.523 116.145C129.561 117.893 129.143 119.679 130.891 120.819C131.461 124.011 136.514 125.759 139.364 124.695C137.54 130.622 136.705 135.562 137.882 141.755C138.452 145.327 138.908 149.241 141.15 152.205C144.038 161.476 149.548 170.557 156.919 177.017C165.24 184.274 179.831 185.566 185.455 174.433C197.614 154.37 162.961 98.2866 141.568 123.023C140.352 123.365 139.858 123.403 140.352 121.769C140.922 117.019 140.694 112.194 143.696 108.052C144.988 105.962 146.66 103.834 148.522 102.39C148.788 101.098 149.738 100.68 150.801 100.338C152.017 100.224 153.575 101.516 153.917 99.7685C156.007 98.4766 158.173 97.1087 159.693 95.1328C162.277 95.1328 160.643 99.0085 162.847 99.9584C162.961 100.224 163.113 100.49 163.227 100.718C162.733 102.96 166.912 104.366 167.786 102.2C169.838 101.706 171.928 102.01 173.752 100.756C177.058 100.87 180.363 100.87 183.631 101.364C184.695 102.542 186.481 102.238 187.925 102.656C188.989 103.91 190.053 105.164 191.117 106.418C191.497 108.736 189.369 107.33 188.229 106.874C182.985 104.138 177.742 103.986 172.574 106.988C170.332 108.28 168.774 112.46 170.712 114.397C175.614 127.81 185.911 139.742 197.386 148.291C197.424 149.203 197.234 149.887 196.398 150.533C194.65 151.901 194.46 154.142 194.308 156.08C194.232 159.614 193.548 163.68 194.346 167.024C194.08 170.595 194.84 174.661 192.826 177.739C188.913 181.272 185.265 185.566 179.945 186.706C171.624 188.112 163.189 185.832 155.247 189.214C138.832 193.166 133.171 213.38 136.477 228.161C139.82 243.132 152.435 254.379 165.012 262.055C163.986 263.347 162.315 263.574 160.757 263.65C157.337 264.258 153.879 264.448 150.459 264.904C148.75 265.322 147.344 264.942 145.9 263.992C140.39 260.307 135.033 256.469 130.245 251.833C123.405 245.146 118.77 237.204 116.148 228.047C114.21 220.182 118.618 212.43 121.734 205.477C129.789 189.366 132.069 170.785 127.205 153.383C126.065 149.127 124.279 145.023 122.722 140.843C122.342 139.78 122.455 138.982 122.987 137.956C132.829 122.225 120.936 121.959 110.828 113.067C106.611 109.838 102.583 106.342 98.4032 102.998C97.0733 102.01 95.7054 102.314 95.7814 104.214C96.8073 117.361 92.2858 130.964 84.0024 141.185C74.5031 151.749 62.3058 161.78 47.3349 161.172C36.1258 160.83 14.7333 158.474 29.5523 143.807Z" fill="#BA6E22"/>
<path d="M107.371 517.013C108.814 518.685 110.676 520.091 111.208 522.333C110.676 525.943 110.03 529.514 109.65 533.162C109.46 535.024 109.194 535.404 107.333 535.328C105.053 535.29 102.659 534.796 100.949 536.62C102.887 539.394 106.497 538.52 109.498 538.9C124.279 538.71 143.392 552.161 127.319 565.65C118.238 571.007 106.117 572.185 96.7312 566.752C94.2614 565.346 91.5636 563.902 89.0178 562.838C88.3339 562.99 87.422 563.066 87.042 563.522C86.662 564.282 87.27 565.916 88.2579 566.296C89.8158 567.36 91.3736 568.348 92.9315 569.374C93.7675 569.944 94.5654 570.475 94.0335 571.691C88.7899 584.838 71.5771 583.585 61.1659 577.771C57.3282 576.023 57.4801 571.235 54.8583 568.31C51.9705 566.448 51.7045 570.324 52.8064 572.223C57.2521 581.913 52.6925 594.756 40.3434 591.868C33.2379 589.436 27.0063 583.699 23.5866 577.011C22.3327 574.009 22.3327 573.211 25.7524 572.869C32.478 572.261 37.5696 568.424 42.5473 564.396C45.0171 562.344 42.5852 559.304 40.2674 561.204C32.212 567.512 22.9407 571.653 12.7194 568.69C7.62779 567.436 4.66402 563.028 4.77802 557.746C5.006 547.487 12.0735 537.456 22.1047 534.682C23.7766 534.264 24.8785 534.53 26.0184 535.822C34.8338 545.891 49.0827 547.639 61.7358 547.335C65.5355 547.069 64.9276 543.079 61.6978 543.307C47.5628 543.231 29.2482 541.256 24.2326 525.487C17.6591 503.942 42.2052 503.258 56.3782 509.604C71.1211 514.962 81.1524 527.083 92.2476 537.228C100.227 537.418 76.2888 515.759 73.781 514.696C71.8811 513.29 71.9571 513.214 72.527 511.01C73.8189 508.464 72.6411 502.878 76.1748 502.536C88.8659 502.384 99.0871 507.552 107.371 517.013ZM82.8244 554.137C77.4287 548.171 68.6134 550.907 62.6098 553.605C57.5942 555.239 54.3644 558.962 56.3022 564.13C61.7359 576.935 80.8104 574.389 84.6101 562.116C85.712 559.57 84.8762 556.037 82.8244 554.137Z" fill="#EFCA69"/>
<path d="M423.014 483.346C426.889 477.798 432.095 473.581 438.099 470.427C440.986 471.833 443.494 474.948 446.876 474.796C455.957 473.429 465.229 470.883 474.348 473.505C481.491 476.012 489.091 475.328 496.5 474.796C504.024 474.758 514.397 469.895 519.869 477.114C523.592 483.954 519.603 492.161 513.105 494.935C505.848 498.165 497.754 497.709 490.041 498.925C487.571 499.343 484.265 501.737 485.063 504.472C486.355 506.296 488.521 503.636 489.927 503.104C490.649 502.8 491.713 502.458 492.245 502.762C494.752 504.206 497.26 505.688 499.502 507.474C511.243 516.175 526.442 537.226 509.381 547.979C506.608 549.765 503.796 548.207 503.226 545.015C501.896 537.606 498.704 531.108 493.461 525.675C491.789 523.965 491.789 524.003 492.929 521.875C493.347 521.077 493.878 520.127 492.929 519.443C490.649 518.341 489.205 522.559 487.457 523.547C481.415 527.993 476.21 534.148 468.838 536.352C468.23 536.466 467.508 537.416 467.394 538.062C467.318 538.404 468.344 539.05 468.914 539.506C471.764 540.912 472.79 544.407 473.512 547.219C474.082 552.881 474.652 558.884 472.866 564.394C470.51 573.627 459.225 574.463 454.475 567.13C448.168 558.048 445.85 546.611 441.48 536.542C434.147 524.269 428.637 510.514 419.898 499.229C418.644 498.165 417.086 497.443 415.68 496.531C414.73 495.543 414.882 494.707 415.718 493.605C418.188 490.261 420.43 486.652 423.014 483.346ZM458.807 522.863C461.809 526.891 467.242 527.993 471.726 525.865C475.906 523.889 477.464 520.241 478.604 516.213C480.883 510.096 479.212 503.484 473.208 500.331C470.054 498.621 466.938 499.343 463.899 500.407C455.121 503.256 453.563 515.264 458.807 522.863Z" fill="#EFCA69"/>
<path d="M285.462 336.605C287.362 341.659 289.11 346.751 290.972 351.804C291.314 352.792 291.124 353.172 290.136 353.286C270.985 356.288 252.253 361 234.584 369.207C233.634 369.663 233.14 369.549 232.532 368.713C230.1 365.407 227.63 362.064 225.085 358.834C222.729 355.87 221.057 352.336 217.637 350.322C216.155 348.461 215.319 346.029 214.104 343.939C218.511 315.327 228.922 292.681 207.15 268.02C209.962 266.653 213.192 268.058 216.117 268.514C221.247 269.654 226.453 270.794 231.354 272.732C236.978 291.237 258.75 292.681 271.859 303.7C272.809 304.574 273.721 305.334 274.177 306.626C277.939 316.657 281.701 326.612 285.462 336.605Z" fill="#EFCA69"/>
<path d="M321.94 360.239C321.826 359.859 321.826 359.403 321.75 358.985C354.352 400.098 391.779 437.792 434.45 468.721C432.664 471.267 428.294 472.749 426.014 475.903C421.759 481.07 416.173 485.478 413.285 491.596C412.829 492.736 412.183 493.077 411.081 492.85C397.402 481.792 383.951 470.431 370.956 458.614C358.607 446.911 347.17 434.258 335.277 422.099C334.289 421.111 333.985 420.237 334.023 418.907C335.239 398.768 328.21 379.162 321.94 360.239Z" fill="#BA6E22"/>
<path d="M180.136 58.0461C171.092 54.6643 161.555 53.4105 151.942 53.6385C149.852 53.6005 149.548 53.3724 149.662 51.3586C149.814 49.1168 149.928 46.8749 150.08 44.5951C150.498 33.2719 152.854 18.605 165.279 14.6533C177.324 11.1955 189.293 7.43378 201.3 3.90004C212.433 0.442289 219.159 10.5876 223.186 19.4409C227.366 28.2183 232.458 36.3497 239.221 43.3792C241.235 45.469 243.211 47.5969 244.997 49.8387C250.126 58.0461 237.245 60.5539 231.47 59.718C218.627 58.768 206.012 56.0323 194.005 51.3586C192.067 50.6366 191.839 50.1807 192.941 48.5848C199.286 39.9594 204.454 29.9662 213.497 23.7726C214.865 22.3667 218.513 21.6828 217.829 19.2889C217.335 18.073 216.347 18.643 215.511 18.947C200.35 26.9264 191.687 42.5053 183.403 56.7922C182.339 58.6161 181.997 58.692 180.136 58.0461Z" fill="#BA6E22"/>
<path d="M97.1859 574.393C98.8578 570.479 103.531 574.469 106.571 574.165C123.29 576.596 147.418 562.689 132.865 545.021C127.926 540.043 121.96 536.737 114.855 535.711C111.815 535.217 114.171 531.38 114.095 529.366C114.019 529.366 113.943 529.366 113.905 529.328C114.893 525.452 113.677 515.383 118.844 523.628C133.777 540.841 153.042 555.28 175.194 561.511C178.12 562.043 175.84 565.121 175.118 566.679C170.786 574.545 168.431 583.094 165.999 591.643C164.935 599.623 122.72 608.21 115.691 605.778C118.464 601.485 123.556 598.863 127.204 595.215C128.382 594.569 128.154 593.201 128.344 592.061C127.622 591.985 126.9 591.719 126.216 591.871C122.074 593.353 117.59 593.847 113.221 594.379C100.796 595.253 86.6227 593.353 76.2875 586.514C85.1788 585.488 92.7403 582.828 97.1859 574.393Z" fill="#BA6E22"/>
<path d="M239.6 531.074C228.657 570.857 215.13 610.146 202.743 649.587C201.375 653.805 200.007 657.985 198.563 662.165C197.727 664.558 196.549 664.938 194.193 664.102C192.864 663.608 191.496 663.115 190.128 663.038C186.518 662.849 184.428 660.911 183.288 657.643C196.777 616.72 210.608 575.873 224.059 534.95C229.189 533.734 234.318 531.834 239.6 531.074Z" fill="#C0E4FA"/>
<path d="M232.988 399.261C236.37 410.204 235.154 422.553 236.674 433.99C238.155 455.573 241.005 477.307 241.347 498.89C240.435 498.092 239.713 498.7 238.953 499.194C235.914 501.093 233.178 503.487 229.91 504.931C230.442 467.162 228.124 429.089 217.865 392.535C217.637 391.623 217.371 390.749 216.193 391.699C215.585 392.193 215.091 392.003 214.711 391.281C211.671 385.24 208.024 379.274 205.744 372.967C211.709 375.627 212.773 377.982 215.927 383.72C216.611 385.658 218.967 382.428 220.145 382.048C223.906 388.128 228.77 393.447 232.988 399.261Z" fill="#C0E4FA"/>
<path d="M186.063 265.852C187.051 266.384 188.001 266.612 188.913 265.7C192.598 265.7 196.284 266.27 199.97 265.966C212.091 276.605 221.096 292.564 217.525 309.093C215.093 319.2 214.903 330.105 211.559 339.871C205.594 328.814 200.274 317.528 196.436 305.559C196.056 304.533 196.056 303.583 196.778 302.481C203.998 289.524 193.016 274.477 182.415 267.106C182.491 266.612 182.605 266.118 182.681 265.662C183.821 265.776 184.923 265.814 186.063 265.852Z" fill="#BA6E22"/>
<path d="M236.141 230.359C242.145 231.613 248.376 230.587 254.304 230.929C256.356 232.563 258.484 234.159 260.307 236.02C268.097 243.62 277.748 248.825 286.791 254.715C288.577 256.121 291.579 258.059 290.895 260.681C285.272 269.762 273.226 266.798 264.677 264.29C263.423 264.024 262.739 263.188 262.093 262.2C254.038 249.813 243.627 239.44 232.151 230.093C233.747 230.169 234.963 230.131 236.141 230.359Z" fill="#BA6E22"/>
<path d="M210.192 345.34C214.181 352.255 217.069 359.551 219.235 367.188C219.349 370.114 215.435 371.406 213.725 373.42C200.616 352.787 187.621 332.079 179.414 308.824C182.681 307.19 189.977 297.083 192.181 303.999C195.563 318.78 202.782 332.307 210.192 345.34Z" fill="white"/>
<path d="M253.926 256.692C254.572 257.87 258.143 260.758 255.673 261.442C235.801 254.716 218.702 242.595 201.337 231.31C193.966 224.698 186.443 218.277 178.729 212.083C177.285 210.525 174.663 209.576 174.245 207.41C175.233 207.334 175.993 207.904 176.791 208.436C191.306 217.441 207.227 223.634 223.528 228.384C234.585 236.744 245.338 245.711 253.926 256.692Z" fill="#EB665F"/>
<path d="M301.766 200.649C305.641 190.465 304.501 180.282 301.234 170.213C300.512 167.971 300.512 167.667 302.488 166.565C310.239 162.727 316.091 156.61 321.98 150.53C326.996 166.375 322.892 185.488 313.849 199.433C310.391 204.068 305.299 205.626 300.322 207.032C296.902 207.26 301.652 202.168 301.766 200.649Z" fill="#EFCA69"/>
<path d="M66.7126 510.515C60.4811 507.665 54.4015 504.246 47.562 503.144C46.3841 502.954 45.8141 502.308 45.6621 501.092C45.4722 498.318 44.5223 495.582 45.0543 492.846C45.7002 493.074 46.5361 493.15 47.0301 493.606C51.2858 497.786 55.6175 501.928 60.3672 505.538C61.0511 506.107 62.039 506.411 62.837 505.575C63.6729 504.701 63.0649 503.866 62.5329 503.144C53.2616 487.071 55.2375 466.856 58.8852 449.416C61.621 453.367 62.3049 458.345 64.6608 462.449C68.0805 468.908 71.8803 475.178 75.4521 481.561C75.832 482.245 75.9459 483.309 75.718 484.069C73.4761 492.618 69.7145 500.75 68.5746 509.641C68.4606 510.781 67.8146 511.047 66.7126 510.515Z" fill="#BA6E22"/>
<path d="M475.982 536.886C480.238 533.581 484.493 530.275 488.749 526.931C489.699 526.171 489.965 526.741 490.459 527.501C496.083 535.709 503.112 546.348 498.476 556.455C495.095 564.738 486.355 562.952 480.2 559.457C477.046 557.937 478.566 554.023 477.958 551.249C477.578 547.564 477.426 543.802 475.26 540.534C474.006 538.634 474.196 538.292 475.982 536.886Z" fill="#EFCA69"/>
<path d="M143.468 77.4192C148.218 81.1049 153.195 84.6007 156.957 89.3503C159.199 91.7822 155.171 93.834 153.689 95.4299C152.739 96.1899 151.637 96.1138 150.649 95.3539C141.226 88.6284 126.977 86.1206 117.706 94.48C117.364 94.784 116.566 95.0879 116.452 94.9739C115.426 93.948 115.654 92.7321 116.148 91.5162C119.644 76.5833 128.459 66.666 143.468 77.4192Z" fill="#804D1C"/>
<path d="M170.447 70.3937C174.322 72.3316 172.688 77.3472 171.206 81.4889C170.637 83.1228 169.839 83.4647 168.281 82.7428C162.315 79.665 155.59 78.7911 149.358 76.6633C143.278 73.2815 137.389 67.8479 129.942 68.4179C127.168 67.9619 131.195 65.5681 131.917 64.6941C142.557 56.0307 159.769 65.3021 170.447 70.3937Z" fill="#804D1C"/>
<path d="M199.514 350.737C204.073 358.412 209.507 365.556 213.763 373.421C208.481 377.107 196.816 357.272 193.7 353.283C186.101 342.073 179.109 330.484 173.98 317.907C171.89 313.499 176.715 311.258 179.451 308.864C185.189 323.227 191.23 337.59 199.514 350.737Z" fill="#C0E4FA"/>
<path d="M305.715 131.758C301.269 132.328 296.634 131.682 292.302 132.518C286.755 132.632 268.022 142.891 268.136 133.05C268.364 130.086 270.188 128.072 272.658 127.008C282.043 123.436 300.51 116.901 307.463 128.338C308.261 130.086 307.577 131.492 305.715 131.758Z" fill="white"/>
<path d="M99.696 112.38C99.734 111.582 100.038 110.822 100.19 110.062C106.801 115.002 113.033 120.663 120.025 125.261C121.354 126.211 122.266 127.313 121.81 128.985C120.784 130.999 120.86 136.28 117.821 135.824C111.133 134.228 104.636 131.91 97.7201 131.454C95.1743 131.34 94.9083 130.847 95.9343 128.491C98.2141 123.361 98.822 117.851 99.696 112.38Z" fill="#BA6E22"/>
<path d="M176.944 74.3818C177.59 66.7444 166.685 64.9586 161.555 61.5768C158.857 59.9809 154.944 60.3989 152.74 58.0811C153.234 57.8151 153.728 57.2831 154.26 57.2831C163.303 57.2071 173.524 59.4869 182.302 63.2107C186.747 64.8445 187.431 67.2764 187.469 71.2281C187.089 73.7359 187.735 83.0452 183.746 80.3094C181.276 78.4855 176.07 78.4095 176.944 74.3818Z" fill="#804D1C"/>
<path d="M178.806 122.072C177.248 119.488 173.562 116.22 177.666 114.13C182.035 111.775 187.089 114.776 190.509 117.436C197.12 122.604 201.604 129.785 204.302 137.727C204.226 138.525 204.644 139.513 203.428 139.854C198.868 132.407 192.067 119.678 181.579 122.87C180.326 123.516 179.49 123.212 178.806 122.072Z" fill="white"/>
<path d="M175.614 108.128C184.163 104.822 191.876 111.51 198.26 116.183C200.502 118.729 202.478 121.503 204.567 124.163C204.567 124.239 204.605 124.315 204.681 124.353C208.253 131.99 211.559 140.578 211.065 149.051C209.507 149.089 206.885 148.861 207.873 146.695C208.785 144.453 208.519 142.211 207.949 140.084C204.796 128.19 198.944 118.235 187.887 111.89C183.935 109.61 177.893 108.584 174.056 112.764C173.676 113.181 172.802 113.105 172.156 113.257C171.89 110.978 173.296 109.002 175.614 108.128Z" fill="#EFCA69"/>
<path d="M227.441 146.69C222.958 148.058 218.322 148.704 213.686 149.274C213.002 142.244 212.508 135.063 208.747 128.907C209.241 128.907 209.772 128.945 210.266 128.945C215.928 134.379 221.552 139.926 228.011 144.562C229.227 145.512 228.657 146.31 227.441 146.69Z" fill="#BA6E22"/>
<path d="M158.59 83.2736C162.846 84.5275 171.851 90.5311 174.435 84.4516C174.967 83.1596 175.499 83.0836 176.183 84.0716C176.829 85.2875 180.439 89.3532 177.247 89.1632C176.487 89.0492 175.765 88.7832 174.891 88.5932C171.053 89.4292 166.798 88.7072 163.492 91.823C162.732 92.5449 162.048 92.355 161.896 91.2151C161.782 87.7953 158.134 86.3134 157.489 83.3876C157.868 83.3116 158.248 83.1976 158.59 83.2736Z" fill="#BA6E22"/>
<path d="M170.142 113.975C168.052 104.4 182.073 103.032 188.191 106.908C189.293 107.402 191.459 108.769 191.079 106.452C193.776 108.731 194.84 112.341 197.158 115.001C190.509 111.239 183.859 104.666 175.614 108.086C173.296 108.959 171.89 110.935 172.118 113.177C171.624 113.595 171.168 114.013 170.712 114.431C170.484 114.317 170.218 114.165 170.142 113.975Z" fill="black"/>
<path d="M198.867 150.717C192.749 159.039 201.869 176.441 192.179 181.685C193.661 179.747 195.675 178.227 195.713 175.567C196.245 169.412 196.017 162.876 195.333 156.949C194.307 159.495 194.953 164.054 194.307 167.132C193.547 163.788 194.193 159.723 194.269 156.189C194.459 154.213 194.611 151.971 196.359 150.641C197.195 149.957 197.385 149.311 197.347 148.399C198.335 149.007 199.893 148.513 200.349 150.071C199.855 150.261 199.095 150.299 198.867 150.717ZM196.511 151.515C196.093 152.237 195.675 152.997 195.257 153.757C195.485 154.137 195.637 154.365 195.789 154.631C196.663 153.909 196.625 152.655 196.967 151.629C196.853 151.591 196.549 151.477 196.511 151.515Z" fill="black"/>
<path d="M190.281 127.506C191.686 128.912 199.704 134.954 195.296 136.017C193.054 135.941 184.581 126.404 190.281 127.506Z" fill="white"/>
<path d="M202.401 144.718C202.097 145.25 201.755 146.009 201.603 145.971C201.033 145.819 200.312 145.554 200.084 145.136C199.324 142.894 197.196 140.538 197.994 138.144C200.654 138.562 200.919 142.59 202.401 144.718Z" fill="#0072B9"/>
<path d="M148.559 102.423C148.483 102.765 147.875 102.993 147.533 103.297C150.307 98.7373 144.455 98.1294 141.377 96.6855C141.947 96.5335 142.479 96.3815 143.239 96.1535C141.947 95.5835 140.998 95.1276 139.896 94.3677C144.341 94.6717 147.343 98.1673 150.801 100.371C149.775 100.751 148.825 101.131 148.559 102.423Z" fill="black"/>
<path d="M220.261 377.146C219.577 377.678 218.741 377.982 217.943 378.324C217.677 377.678 217.449 377.032 217.069 376.082C218.057 375.208 219.083 374.296 220.147 373.461C220.185 373.423 220.451 373.613 220.603 373.727C221.895 375.018 221.781 376.158 220.261 377.146Z" fill="#EFCA69"/>
<path d="M184.505 129.254C183.745 129.33 181.959 127.316 182.225 126.48C182.415 125.872 183.175 125.416 183.441 125.15C185.113 125.226 186.063 126.062 185.721 126.936C185.417 127.734 185.949 129.102 184.505 129.254Z" fill="#0072B9"/>
<path d="M170.711 262.925C169.571 262.811 168.431 262.735 167.329 262.659C166.227 260.645 164.213 259.43 162.542 257.91C165.391 259.278 168.013 261.215 170.711 262.925Z" fill="black"/>
<path d="M203.617 121.918C204.111 122.526 204.263 123.4 204.567 124.198C203.047 122.222 201.527 120.246 200.007 118.271C201.185 119.486 202.477 120.626 203.617 121.918Z" fill="black"/>
<path d="M161.213 96.4215C160.985 95.4715 160.567 95.1295 159.693 95.1675C160.111 94.8256 160.529 94.4836 160.947 94.1416C161.973 95.9275 162.239 98.0174 162.847 99.9932C161.441 99.2333 161.555 97.6754 161.213 96.4215Z" fill="black"/>
<path d="M204.263 137.725C204.681 139.169 205.099 140.536 204.681 142.056C204.149 141.372 203.541 140.764 203.389 139.852C204.605 139.51 204.187 138.523 204.263 137.725Z" fill="#0072B9"/>
<path d="M164.974 103.15C163.948 102.846 162.96 102.2 163.188 100.794C164.366 102.352 165.848 102.96 167.748 102.276C167.178 103.644 166 103.416 164.974 103.15Z" fill="black"/>
<path d="M168.927 101.932C170.523 101.552 172.119 101.211 173.715 100.831C172.195 101.591 170.675 102.274 168.927 101.932Z" fill="black"/>
<path d="M183.593 101.435C185.15 101.473 186.822 101.055 187.886 102.727C186.442 102.309 184.656 102.613 183.593 101.435Z" fill="black"/>
<path d="M206.505 126.059C206.467 126.705 206.429 127.351 206.391 127.997C205.821 126.781 205.213 125.565 204.605 124.387C205.973 124.159 205.821 125.565 206.505 126.059Z" fill="black"/>
<path d="M120.63 99.6926C118.464 98.7047 121.086 97.0328 121.998 96.2349C121.656 97.4508 120.174 98.1727 120.63 99.6926Z" fill="black"/>
<path d="M199.476 262.354C200.616 262.43 201.794 262.506 202.934 262.582C201.718 263.152 200.578 263.152 199.476 262.354Z" fill="black"/>
<path d="M208.026 127.353C208.748 127.885 209.508 128.417 210.23 128.949C209.736 128.911 209.204 128.911 208.71 128.911C208.52 128.379 208.254 127.847 208.026 127.353Z" fill="black"/>
<path d="M124.85 94.5593C125.8 94.2173 126.75 93.9134 127.662 93.6094C126.902 94.4453 126.104 95.2053 124.85 94.5593Z" fill="black"/>
<path d="M210.838 153.228C211.712 153.266 212.586 153.342 213.459 153.38C212.548 154.064 211.674 153.949 210.838 153.228Z" fill="black"/>
<path d="M115.958 100.527C116.452 100.945 116.946 101.363 117.44 101.781C116.566 101.781 115.92 101.515 115.958 100.527Z" fill="black"/>
<path d="M121.998 96.2324C122.53 95.8904 123.062 95.5104 123.594 95.1685C123.518 96.2324 122.834 96.3464 121.998 96.2324Z" fill="black"/>
<path d="M152.357 100.528C152.889 100.3 153.421 100.034 153.915 99.8057C153.687 100.642 153.269 101.136 152.357 100.528Z" fill="black"/>
<path d="M112.308 97.1836C112.802 97.6016 113.296 98.0195 113.752 98.4375C112.916 98.4375 112.27 98.2095 112.308 97.1836Z" fill="black"/>
<path d="M120.821 103.183C121.087 102.917 121.391 102.689 121.657 102.423C121.657 102.689 121.695 102.917 121.695 103.183C121.391 103.183 121.125 103.183 120.821 103.183Z" fill="black"/>
<path d="M137.997 93.9126C138.377 94.0266 138.795 94.1026 139.213 94.2166C138.605 94.7865 138.225 94.6345 137.997 93.9126Z" fill="black"/>
<path d="M321.371 358.301C321.371 358.263 321.447 358.225 321.447 358.188C321.561 358.263 321.561 358.34 321.447 358.454C321.409 358.416 321.371 358.377 321.371 358.301Z" fill="#BA6E22"/>
<path d="M194.877 157.445C194.877 157.255 195.143 157.103 195.295 156.913C195.979 162.84 196.245 169.376 195.675 175.531C195.523 177.355 194.839 178.837 193.471 180.053C191.191 182.599 188.911 185.335 185.644 186.55C183.592 187.652 181.084 189.02 178.766 187.88C179.222 187.576 179.716 187.348 179.868 186.778C185.226 185.639 188.835 181.307 192.749 177.811C193.623 177.659 194.231 177.355 193.623 176.367C193.699 175.987 193.737 175.607 193.813 175.265C195.029 174.505 194.763 173.555 194.193 172.529C194.079 167.476 194.839 162.498 194.877 157.445Z" fill="#1D1D1B"/>
<path d="M179.868 186.818C179.716 187.35 179.222 187.616 178.766 187.92C182.072 189.478 185.15 186.514 188.151 185.412C177.74 193.961 163.035 186.78 151.56 193.05C158.704 187.198 168.621 189.896 177.132 188.642C177.132 188.452 177.094 188.262 177.094 188.072C173.713 188.224 170.369 187.73 167.025 187.464C171.091 186.97 175.612 187.73 179.868 186.818Z" fill="black"/>
<path d="M257.157 169.603C261.337 169.983 261.565 176.519 256.967 176.291C251.761 175.835 252.179 169.603 257.157 169.603Z" fill="#1D1D1B"/>
<path d="M231.583 173.668C235.725 174.086 235.801 180.394 230.975 179.862C225.96 179.216 227.328 173.82 231.583 173.668Z" fill="#1D1D1B"/>
<path d="M247.352 188.796C250.923 188.948 249.746 195.141 246.782 194.875C242.906 194.192 243.666 189.024 247.352 188.796Z" fill="#1D1D1B"/>
<path d="M140.542 232.183C140.846 233.133 141.112 234.121 141.378 235.109C136.058 225.458 136.59 211.475 142.366 202.204C138.414 212.045 136.932 221.886 140.542 232.183Z" fill="black"/>
<path d="M147.533 103.301C146.013 104.669 144.873 106.417 143.771 108.127C141.149 112.383 139.971 117.17 139.477 122.072C138.185 127.24 133.36 122.566 130.966 120.856C128.914 115.156 129.142 107.785 131.726 102.313C132.942 99.5776 135.678 98.2857 137.919 96.4999C140.655 96.4239 143.163 97.1838 145.595 98.3617C148.597 99.7296 148.787 100.338 147.533 103.301Z" fill="#1D1D1B"/>
<path d="M138.414 137.309C138.262 135.409 138.034 133.433 138.832 131.686C139.288 133.053 138.528 134.877 139.668 135.371C139.668 135.637 139.668 135.903 139.706 136.169C139.022 136.701 139.098 137.081 139.896 137.347C140.2 139.437 140.504 141.527 140.77 143.579C140.314 144.833 140.656 145.859 141.606 146.732C145.14 158.208 150.839 170.481 161.25 177.206C170.066 182.716 182.871 180.284 184.885 168.467C187.469 152.812 179.071 136.397 167.71 125.948C166.038 124.618 164.708 122.604 162.694 121.692C162.77 121.008 162.77 120.362 163.758 120.932C179.071 129.824 188.836 149.088 187.773 166.757C186.481 183.59 168.622 187.086 157.033 177.054C145.672 167.061 139.326 152.204 138.414 137.309Z" fill="#1D1D1B"/>
<path d="M139.442 122.07C139.86 119.297 140.126 116.447 141.076 113.749C140.734 116.409 141 119.259 140.392 121.804C139.898 123.438 140.43 123.4 141.607 123.058C140.771 125.376 138.226 128.036 139.214 130.468C140.088 129.404 140.582 128.112 141.303 126.934C140.734 129.746 140.202 132.558 139.632 135.369C138.454 134.837 139.252 133.052 138.796 131.684C137.39 138.371 139.29 145.781 141.19 152.278C137.086 144.793 135.946 134.268 139.214 126.212C139.404 125.794 139.328 125.262 139.366 124.768C136.516 125.794 131.462 124.084 130.892 120.893C133.324 122.602 138.15 127.238 139.442 122.07Z" fill="black"/>
<path d="M154.487 117.702C155.019 117.74 155.551 117.968 156.083 118.082C155.741 118.462 155.361 118.804 155.019 119.184C154.259 119.184 153.499 119.184 152.739 119.222C152.321 118.538 152.093 118.804 151.941 119.374C145.786 120.78 141.834 124.997 139.25 130.507C138.566 129.747 139.174 128.569 139.402 127.733C141.264 121.198 147.876 117.474 154.487 117.702Z" fill="#1D1D1B"/>
<path d="M162.657 121.653C160.225 120.475 157.793 119.373 155.057 119.145C155.399 118.765 155.779 118.424 156.121 118.044C151.752 116.6 147.61 119.145 143.696 120.855C143.886 120.551 144 120.057 144.304 119.905C147.116 118.424 149.966 116.98 153.272 116.828C158.135 116.866 163.455 118.614 166.533 122.261C165.393 122.109 162.505 119.373 162.657 121.653Z" fill="black"/>
<path d="M130.168 105.999C129.978 109.38 129.75 112.8 129.56 116.182C128.192 114.244 128.572 107.898 130.168 105.999Z" fill="black"/>
<path d="M165.847 187.426C165.657 187.654 165.467 187.996 165.239 188.034C163.263 188.034 160.984 188.983 159.198 188.148C161.363 187.502 163.567 187.084 165.847 187.426Z" fill="black"/>
<path d="M137.084 96.3117C137.274 96.2357 137.616 96.4257 137.882 96.4637C136.248 97.6796 134.653 98.8576 133.019 100.073C133.551 97.9076 135.299 97.1097 137.084 96.3117Z" fill="black"/>
<path d="M129.598 116.905C130.054 118.235 130.472 119.527 130.928 120.856C129.522 119.869 129.408 118.425 129.598 116.905Z" fill="black"/>
<path d="M193.815 175.267C193.929 174.355 194.081 173.443 194.195 172.531C194.727 173.519 195.031 174.507 193.815 175.267Z" fill="black"/>
<path d="M131.688 102.312C131.384 101.248 131.916 100.412 133.018 100.108C132.6 100.83 132.144 101.552 131.688 102.312Z" fill="black"/>
<path d="M131.271 103.036C130.967 103.682 130.662 104.29 130.358 104.936C130.093 104.024 130.283 103.34 131.271 103.036Z" fill="black"/>
<path d="M192.75 177.848C193.054 177.354 193.32 176.86 193.624 176.404C194.232 177.392 193.624 177.696 192.75 177.848Z" fill="black"/>
<path d="M71.0048 572.604C65.6472 573.022 58.5038 570.363 56.2999 564.131C55.426 561.661 55.464 557.785 58.2378 555.924C63.5194 552.96 68.839 550.262 75.3745 550.756C80.7321 550.224 86.9256 556.684 84.6078 562.117C82.024 568.121 77.9583 572.072 71.0048 572.604Z" fill="#EFCA69" stroke="#1D1D1B" stroke-width="4.17666"/>
<path d="M463.937 500.371C472.79 495.849 482.442 505.652 478.984 514.696C477.882 519.217 476.438 523.625 471.726 525.829C455.616 532.896 449.612 504.74 463.937 500.371ZM461.809 520.699C467.775 526.779 475.602 520.623 476.438 513.936C476.742 508.806 474.842 505.728 471.612 503.41C468.193 501.245 463.253 504.094 461.049 507.02C458.503 511.238 458.465 516.747 461.809 520.699Z" fill="#1D1D1B"/>
<path d="M196.284 154.138C196.132 154.328 195.98 154.48 195.828 154.632C195.676 154.404 195.524 154.138 195.296 153.758C195.828 153.15 196.132 151.25 197.006 151.63C196.74 152.466 196.626 153.34 196.284 154.138Z" fill="#1D1D1B"/>
<path d="M142.327 125.111C149.015 116.828 161.288 118.006 167.672 125.947C180.971 136.244 197.727 175.077 172.687 180.017C151.447 181.651 133.626 142.058 142.327 125.111ZM145.709 147.909C148.521 155.585 152.549 162.614 157.716 168.922C163.91 177.623 177.665 180.663 181.009 167.82C182.528 160.41 181.882 153.153 178.691 146.124C174.701 137.08 169.267 128.075 160.3 123.249C152.283 118.994 143.467 124.465 143.125 135.598C143.125 138.372 143.999 143.198 145.709 147.909Z" fill="#EFCA69"/>
<path d="M140.731 143.577C140.997 144.641 141.301 145.667 141.567 146.73C140.655 145.857 140.313 144.831 140.731 143.577Z" fill="black"/>
<path d="M139.669 136.128C139.745 136.508 139.783 136.926 139.859 137.306C139.061 137.04 138.985 136.66 139.669 136.128Z" fill="black"/>
<path d="M152.74 119.185C152.474 119.261 152.208 119.299 151.942 119.337C152.094 118.805 152.322 118.539 152.74 119.185Z" fill="black"/>
<path d="M466.823 503.069C468.495 502.385 470.167 502.423 471.611 503.411C476.513 506.527 478.413 514.012 473.967 519.484C471.497 523.664 464.962 524.348 461.808 520.662C456.792 514.886 459.3 505.007 466.823 503.069Z" fill="#EFCA69"/>
<path d="M160.337 123.285C174.776 132.101 184.427 151.023 181.045 167.856C177.664 180.661 163.947 177.659 157.753 168.958C150.534 160.257 143.428 146.464 143.2 135.673C143.466 124.501 152.319 119.03 160.337 123.285ZM168.582 172.036C170.824 174.278 174.624 172.188 175.042 169.376C175.46 165.728 175.992 160.371 173.18 157.711C172.192 158.699 170.9 159.497 171.66 161.055C172.344 164.626 172.154 167.97 169.152 170.592C168.81 170.934 168.43 171.884 168.582 172.036ZM166.454 151.631C167.67 153.113 168.924 154.557 170.976 154.633C172.306 150.491 168.012 146.844 165.467 143.956C161.211 141.41 165.011 150.795 166.454 151.631ZM152.813 155.659C153.041 156.039 153.535 156.267 153.915 156.571C154.029 156.153 154.257 155.735 154.257 155.317C154.029 152.201 156.043 149.808 158.779 148.63C161.287 147.718 159.235 145.172 159.881 143.234C160.185 141.41 159.843 140.916 157.981 140.802C151.066 140.536 149.508 150.795 152.813 155.659ZM147.646 142.132C147.76 142.588 148.14 142.968 148.406 143.424C148.824 143.082 149.432 142.854 149.66 142.436C152.661 137.116 158.437 136.508 163.985 139.32C170.064 142.322 173.902 147.756 176.448 153.873C176.562 154.101 176.942 154.177 177.17 154.329C176.714 144.108 167.67 128.301 156.955 125.565C146.886 123.019 145.366 134.989 147.646 142.132Z" fill="#1D1D1B"/>
<path d="M156.994 125.566C167.899 128.682 173.332 140.347 176.79 150.188C176.41 150.796 175.84 151.252 175.118 150.91C171.394 141.943 156.5 131.19 149.66 142.399C149.432 142.817 148.824 143.083 148.406 143.387C144.758 136.623 146.506 122.83 156.994 125.566Z" fill="white"/>
<path d="M151.448 146.731C152.208 143.235 154.677 140.575 157.983 140.803C159.845 140.917 160.187 141.449 159.883 143.235C159.731 144.147 159.693 145.173 159.997 146.047C160.947 148.745 157.223 148.897 155.969 150.568C154.107 152.126 154.601 154.52 153.955 156.572C150.84 154.368 150.992 149.999 151.448 146.731Z" fill="#0072B9"/>
<path d="M171.662 161.095C170.902 159.537 172.232 158.739 173.182 157.751C175.994 160.411 175.462 165.769 175.044 169.417C174.626 172.228 170.826 174.318 168.584 172.076C168.432 171.924 168.812 170.974 169.154 170.67C172.194 168.011 172.384 164.667 171.662 161.095Z" fill="#0072B9"/>
<path d="M165.507 143.917C168.015 146.805 172.346 150.453 171.017 154.594C166.761 153.872 163.911 148.857 163.531 144.639C163.607 143.461 164.519 142.967 165.507 143.917Z" fill="white"/>
<path d="M176.297 150.797C176.487 150.645 176.639 150.455 176.791 150.227C176.905 151.595 177.817 153.039 177.171 154.331C175.879 153.799 175.803 152.089 175.119 150.949C175.575 151.101 175.993 151.063 176.297 150.797Z" fill="#0072B9"/>
</svg>
