<svg width="89" height="217" viewBox="0 0 89 217" fill="none" xmlns="http://www.w3.org/2000/svg">
<g opacity="0.4" clip-path="url(#clip0_2561_66243)">
<path fill-rule="evenodd" clip-rule="evenodd" d="M58.8345 184.207C58.6758 185.914 58.5106 187.621 58.3616 189.328C58.3569 189.382 58.3734 189.436 58.4077 189.479C58.442 189.521 58.4916 189.549 58.5462 189.557L59.9262 189.758C59.9809 189.766 60.0304 189.794 60.0647 189.837C60.099 189.879 60.1155 189.933 60.1108 189.987C59.5882 195.739 59.0645 201.488 58.5398 207.236L57.568 217.867C57.5563 217.996 57.4974 218.116 57.402 218.206C57.3067 218.296 57.1815 218.348 57.0497 218.354C51.0571 218.583 44.9835 218.711 38.9098 218.739C38.8338 218.739 38.7587 218.723 38.6893 218.692C38.6199 218.661 38.5576 218.617 38.5065 218.562C38.4554 218.506 38.4165 218.441 38.3922 218.37C38.368 218.3 38.3589 218.224 38.3656 218.15C38.8256 213.802 39.2834 209.449 39.7391 205.093C40.3481 199.29 40.9603 193.486 41.5758 187.681C41.5786 187.653 41.5873 187.626 41.6012 187.602C41.6151 187.577 41.634 187.555 41.6567 187.538C41.6785 187.52 41.7039 187.507 41.7312 187.499C41.7586 187.491 41.7873 187.49 41.8155 187.494L43.1792 187.634C43.2075 187.637 43.2362 187.634 43.2636 187.626C43.2909 187.618 43.3163 187.605 43.3384 187.587C43.3604 187.569 43.3786 187.547 43.3919 187.523C43.4051 187.498 43.4132 187.471 43.4156 187.443C43.597 185.742 43.7752 184.019 43.9566 182.318C44.5688 176.442 59.3787 178.382 58.841 184.229L58.8345 184.207ZM21.8875 180.385C21.6802 182.086 21.4761 183.79 21.2656 185.481C21.2591 185.535 21.2316 185.585 21.1888 185.62C21.146 185.655 21.0911 185.672 21.0356 185.669L19.6427 185.576C19.5872 185.573 19.5324 185.59 19.4896 185.625C19.4468 185.66 19.4192 185.71 19.4127 185.764C18.7001 191.497 18.0101 197.229 17.304 202.962C16.695 207.892 16.0903 212.82 15.49 217.746C15.4794 217.819 15.4852 217.894 15.507 217.965C15.5288 218.036 15.5661 218.101 15.6163 218.156C15.6637 218.214 15.7234 218.26 15.7912 218.292C15.859 218.324 15.9331 218.341 16.0083 218.341C21.9944 218.57 28.0616 218.698 34.1481 218.726C34.2825 218.727 34.4124 218.679 34.5124 218.59C34.6124 218.502 34.6754 218.38 34.6891 218.249L36.15 204.726C36.7784 198.924 37.4057 193.121 38.032 187.318C38.0356 187.291 38.0335 187.263 38.0257 187.236C38.018 187.209 38.0048 187.184 37.9869 187.162C37.969 187.14 37.9469 187.122 37.9218 187.109C37.8967 187.096 37.8692 187.088 37.8409 187.086L36.4772 186.946C36.4198 186.939 36.3675 186.91 36.3314 186.866C36.313 186.845 36.2995 186.82 36.2917 186.793C36.2838 186.766 36.2819 186.738 36.286 186.71C36.4739 185.006 36.665 183.286 36.8464 181.589C37.491 175.7 22.5937 174.57 21.8875 180.388V180.385ZM16.4391 180.095C16.2285 181.786 16.0212 183.455 15.7912 185.127C15.7876 185.156 15.7901 185.186 15.7984 185.213C15.8068 185.241 15.8209 185.267 15.8398 185.29C15.8588 185.312 15.8825 185.331 15.9093 185.344C15.9361 185.357 15.9654 185.365 15.9953 185.366L16.7501 185.42C16.78 185.422 16.8093 185.429 16.8361 185.442C16.8628 185.455 16.8865 185.474 16.9055 185.497C16.9245 185.519 16.9386 185.545 16.9469 185.573C16.9553 185.601 16.9577 185.63 16.9541 185.659C16.2642 191.35 15.5483 197.083 14.8486 202.78C14.2299 207.752 13.6047 212.752 12.986 217.73C12.9698 217.863 12.9026 217.986 12.798 218.073C12.6934 218.16 12.5592 218.204 12.4224 218.198C8.39708 218.017 4.42466 217.789 0.505158 217.513C0.431012 217.509 0.358512 217.49 0.292567 217.457C0.226622 217.423 0.168769 217.376 0.122925 217.319C0.0737589 217.264 0.0373063 217.199 0.0160615 217.128C-0.00518328 217.058 -0.0107189 216.984 -0.000166601 216.911C0.67036 211.886 1.35384 206.844 2.02761 201.819C2.77588 196.229 3.53063 190.672 4.27566 185.07C4.28288 185.017 4.31012 184.968 4.35205 184.933C4.39399 184.898 4.4476 184.88 4.50241 184.882C4.78098 184.882 5.05632 184.908 5.33814 184.911C5.39148 184.911 5.44309 184.892 5.48312 184.857C5.52315 184.823 5.5488 184.775 5.55517 184.723C5.76896 183.083 5.99895 181.427 6.20302 179.767C6.9772 174.089 17.1679 174.325 16.4391 180.099V180.095ZM74.289 186.783C74.1465 188.452 74.0137 190.121 73.8841 191.767C73.8799 191.819 73.8949 191.871 73.9265 191.912C73.9581 191.954 74.0041 191.983 74.0558 191.994C74.3312 192.048 74.6097 192.096 74.8915 192.14C74.9447 192.149 74.9926 192.178 75.026 192.219C75.0595 192.261 75.0762 192.313 75.073 192.366C74.6195 197.991 74.1692 203.589 73.7222 209.214C73.5062 211.804 73.3 214.399 73.1035 217C73.0937 217.128 73.0375 217.247 72.9453 217.337C72.8531 217.428 72.7311 217.482 72.6014 217.491C68.6786 217.768 64.6846 217.997 60.6485 218.179C60.5711 218.183 60.4936 218.17 60.4215 218.142C60.3493 218.114 60.2842 218.071 60.2304 218.016C60.1766 217.961 60.1355 217.896 60.1099 217.824C60.0842 217.752 60.0746 217.675 60.0816 217.599C60.3797 214.242 60.6809 210.879 60.9822 207.532C61.5004 201.799 62.0058 196.067 62.5176 190.357C62.5189 190.327 62.5269 190.299 62.5409 190.273C62.5549 190.247 62.5746 190.224 62.5986 190.207C62.6219 190.188 62.6489 190.175 62.6779 190.167C62.707 190.159 62.7373 190.158 62.767 190.162L63.5347 190.287C63.5644 190.291 63.5948 190.29 63.6238 190.282C63.6529 190.275 63.6799 190.261 63.7031 190.242C63.7269 190.224 63.7465 190.202 63.7605 190.176C63.7745 190.15 63.7826 190.122 63.7841 190.092C63.9299 188.395 64.0789 186.72 64.2279 185.041C64.7462 179.264 74.7425 181.089 74.289 186.799V186.783ZM81.4867 132.961C71.0595 129.197 58.8119 126.591 46.4508 125.318C34.0898 124.044 21.5474 124.088 10.5728 125.636C10.5254 125.644 10.4765 125.636 10.4345 125.613C10.3925 125.59 10.3601 125.553 10.3428 125.509C10.3237 125.465 10.3201 125.417 10.3324 125.371C10.3448 125.326 10.3724 125.285 10.4108 125.257C11.0115 124.821 11.6642 124.46 12.3544 124.181C12.389 124.166 12.4192 124.143 12.4419 124.113C12.4646 124.083 12.4791 124.049 12.4839 124.012C12.7787 121.814 13.0832 119.598 13.378 117.381C13.7019 114.954 14.0258 112.505 14.3498 110.056C14.3555 110.009 14.3777 109.965 14.4125 109.932C14.4473 109.899 14.4927 109.879 14.5409 109.875L14.8648 109.83C14.9113 109.823 14.9542 109.801 14.9869 109.768C15.0196 109.734 15.0405 109.691 15.0462 109.645C15.1369 108.938 15.2341 108.228 15.3345 107.521C15.6584 105.018 19.1471 104.492 18.8135 107.021C18.7195 107.687 18.6385 108.375 18.5478 109.047C18.5429 109.08 18.5462 109.114 18.5575 109.145C18.5688 109.177 18.5877 109.205 18.6126 109.228C18.6368 109.251 18.666 109.268 18.6981 109.278C18.7301 109.288 18.7641 109.291 18.7973 109.285H18.888C18.9211 109.28 18.9549 109.283 18.9869 109.293C19.0189 109.303 19.0481 109.32 19.0722 109.342C19.0964 109.365 19.1148 109.393 19.1261 109.424C19.1375 109.455 19.1413 109.488 19.1374 109.521C18.8135 111.958 18.4895 114.416 18.1883 116.846C17.9421 118.716 17.6894 120.588 17.453 122.442C17.4477 122.475 17.4509 122.509 17.4622 122.54C17.4735 122.572 17.4926 122.601 17.5178 122.623C17.5424 122.646 17.5723 122.663 17.605 122.673C17.6377 122.682 17.6722 122.684 17.7056 122.677C18.0749 122.614 18.4539 122.544 18.8394 122.483C18.8861 122.478 18.9295 122.457 18.9624 122.424C18.9954 122.391 19.016 122.348 19.0208 122.302C19.267 120.429 19.5002 118.56 19.7464 116.665C20.0703 114.17 20.3942 111.676 20.7181 109.184C20.7238 109.136 20.7459 109.092 20.7806 109.058C20.8154 109.025 20.8608 109.004 20.9093 108.999C21.0226 108.999 21.1328 108.973 21.2332 108.954C21.2797 108.947 21.3226 108.925 21.3553 108.892C21.388 108.858 21.4088 108.816 21.4146 108.77C21.5053 108.059 21.596 107.33 21.6899 106.601C22.0139 104.053 26.5099 103.629 26.1795 106.203C26.0921 106.903 26.0079 107.604 25.9204 108.305C25.9163 108.335 25.919 108.367 25.9286 108.397C25.9381 108.426 25.9541 108.454 25.9755 108.477C25.997 108.5 26.0237 108.518 26.0535 108.529C26.0832 108.541 26.1152 108.546 26.1472 108.543H26.2962C26.3275 108.542 26.3589 108.547 26.3881 108.558C26.4172 108.57 26.4434 108.588 26.4646 108.61C26.4866 108.633 26.503 108.66 26.5125 108.69C26.5221 108.72 26.5245 108.751 26.5197 108.782C26.1957 111.276 25.888 113.786 25.59 116.279C25.36 118.072 25.1397 119.846 24.9227 121.617C24.9172 121.648 24.9196 121.68 24.9298 121.71C24.94 121.74 24.9576 121.767 24.981 121.789C25.0026 121.812 25.0293 121.83 25.059 121.842C25.0887 121.853 25.1208 121.858 25.1527 121.856C25.7746 121.814 26.4031 121.786 27.0444 121.76C27.0961 121.758 27.1453 121.738 27.1833 121.704C27.2213 121.669 27.2456 121.623 27.2517 121.572C27.472 119.776 27.6858 117.977 27.8996 116.18C28.2235 113.633 28.5183 111.107 28.8325 108.572C28.8393 108.522 28.8637 108.476 28.9016 108.441C28.9394 108.407 28.9884 108.387 29.0398 108.384H29.3281C29.3798 108.382 29.429 108.362 29.467 108.328C29.505 108.293 29.5293 108.247 29.5354 108.196C29.6261 107.457 29.7136 106.731 29.8043 106.008C30.1282 103.413 35.5961 103.298 35.2916 105.916C35.1976 106.642 35.1167 107.352 35.0324 108.075C35.0275 108.105 35.0295 108.135 35.0385 108.164C35.0475 108.193 35.0632 108.219 35.0843 108.241C35.104 108.264 35.1288 108.283 35.1568 108.296C35.1849 108.308 35.2154 108.315 35.2462 108.314H35.4114C35.4421 108.313 35.4725 108.319 35.5005 108.331C35.5286 108.343 35.5535 108.361 35.5734 108.384C35.5939 108.406 35.6094 108.433 35.6189 108.461C35.6284 108.49 35.6317 108.52 35.6285 108.55C35.3326 111.098 35.0357 113.639 34.7377 116.174C34.5304 117.954 34.3263 119.735 34.1125 121.515C34.1088 121.545 34.1116 121.575 34.1207 121.604C34.1297 121.632 34.1449 121.659 34.165 121.681C34.1852 121.704 34.21 121.722 34.2378 121.735C34.2656 121.747 34.2957 121.754 34.3263 121.754C35.2009 121.77 36.0852 121.802 36.9792 121.837C37.034 121.838 37.0872 121.819 37.1285 121.784C37.1699 121.748 37.1963 121.699 37.2027 121.646C37.4068 119.853 37.6077 118.06 37.8182 116.231C38.1162 113.652 38.4045 111.091 38.7025 108.534C38.7074 108.482 38.7322 108.433 38.7719 108.399C38.8115 108.364 38.8631 108.345 38.9163 108.346H39.1884C39.2421 108.346 39.2937 108.326 39.3337 108.291C39.3736 108.256 39.3991 108.207 39.4054 108.155C39.4897 107.416 39.5674 106.69 39.6549 105.948C39.9594 103.327 46.3893 103.741 46.0913 106.387C46.0135 107.12 45.9326 107.856 45.8581 108.572C45.8534 108.628 45.871 108.684 45.9072 108.728C45.9434 108.772 45.9954 108.801 46.0524 108.808L46.2532 108.824C46.2828 108.825 46.3118 108.832 46.3385 108.845C46.3652 108.858 46.389 108.875 46.4087 108.897C46.4274 108.919 46.4414 108.944 46.4497 108.972C46.4581 108.999 46.4607 109.028 46.4573 109.056C46.182 111.626 45.9066 114.196 45.6281 116.741C45.4337 118.553 45.2394 120.365 45.0418 122.155C45.0382 122.184 45.0407 122.212 45.0491 122.24C45.0574 122.267 45.0715 122.293 45.0903 122.314C45.1079 122.336 45.1299 122.355 45.155 122.368C45.1801 122.381 45.2077 122.389 45.2361 122.391L48.1741 122.709C48.203 122.713 48.2323 122.71 48.2602 122.702C48.2881 122.694 48.3139 122.68 48.3361 122.661C48.3802 122.626 48.4081 122.574 48.4138 122.518C48.5985 120.725 48.7961 118.913 48.9872 117.104C49.2528 114.556 49.5184 111.986 49.7905 109.419C49.7931 109.39 49.802 109.362 49.8165 109.337C49.8311 109.312 49.8509 109.29 49.8747 109.273C49.8978 109.255 49.9243 109.241 49.9527 109.234C49.9811 109.226 50.0108 109.224 50.0399 109.228L50.2408 109.257C50.2697 109.26 50.2989 109.258 50.3268 109.249C50.3546 109.241 50.3805 109.227 50.4027 109.209C50.4249 109.192 50.4431 109.17 50.4565 109.145C50.4699 109.121 50.478 109.094 50.4805 109.066C50.5582 108.349 50.636 107.614 50.7072 106.878C50.989 104.234 57.3671 105.142 57.1048 107.766C57.0303 108.512 56.9525 109.235 56.8813 109.977C56.8761 110.029 56.8908 110.081 56.9225 110.124C56.9542 110.166 57.0006 110.195 57.0529 110.206L57.3186 110.263C57.3705 110.275 57.4166 110.304 57.4481 110.346C57.4797 110.388 57.4946 110.44 57.4902 110.493C57.2376 113.04 56.9882 115.617 56.7355 118.2C56.5476 120.018 56.3695 121.814 56.1945 123.614C56.188 123.667 56.203 123.721 56.2363 123.764C56.2696 123.807 56.3185 123.835 56.3727 123.843C57.2505 123.993 58.1187 124.142 58.9868 124.305C59.016 124.311 59.0463 124.311 59.0755 124.305C59.1047 124.298 59.1319 124.285 59.1552 124.267C59.1804 124.25 59.2013 124.228 59.2165 124.202C59.2316 124.176 59.2406 124.147 59.2427 124.117C59.4176 122.333 59.5904 120.549 59.761 118.763C60.0071 116.216 60.2469 113.668 60.4963 111.12C60.4981 111.09 60.507 111.06 60.5221 111.034C60.5373 111.007 60.5583 110.984 60.5837 110.967C60.6083 110.95 60.6363 110.938 60.6658 110.932C60.6954 110.926 60.7259 110.926 60.7554 110.932L60.9271 110.967C60.9568 110.972 60.9873 110.972 61.0167 110.965C61.0462 110.959 61.0739 110.946 61.0982 110.928C61.1225 110.911 61.1428 110.888 61.158 110.863C61.1731 110.837 61.1828 110.809 61.1862 110.779C61.2575 110.053 61.3255 109.343 61.3968 108.617C61.6462 105.989 66.9748 107.219 66.7286 109.824C66.6671 110.55 66.5958 111.276 66.531 112.021C66.5263 112.072 66.54 112.122 66.5697 112.164C66.5994 112.205 66.6431 112.235 66.693 112.247L66.9716 112.317C67.0215 112.33 67.0652 112.36 67.0948 112.401C67.1245 112.443 67.1382 112.493 67.1335 112.543C66.9176 115.091 66.6865 117.639 66.4403 120.187C66.2784 121.992 66.1132 123.796 65.9447 125.601C65.94 125.651 65.9537 125.702 65.9834 125.743C66.0131 125.785 66.0568 125.814 66.1067 125.827C66.7351 125.983 67.3441 126.146 67.9401 126.308C67.9707 126.316 68.0026 126.317 68.0339 126.313C68.0651 126.308 68.095 126.296 68.1215 126.279C68.1483 126.261 68.1706 126.238 68.1868 126.21C68.2031 126.183 68.2129 126.152 68.2154 126.12C68.3806 124.343 68.5394 122.566 68.7046 120.767C68.9216 118.263 69.1419 115.741 69.3718 113.241C69.3731 113.21 69.382 113.179 69.3977 113.152C69.4135 113.125 69.4358 113.102 69.4626 113.085C69.4885 113.067 69.5182 113.054 69.5496 113.049C69.581 113.043 69.6132 113.045 69.644 113.053L69.78 113.088C69.8105 113.097 69.8426 113.099 69.874 113.094C69.9055 113.089 69.9353 113.077 69.9614 113.059C69.9868 113.041 70.0081 113.018 70.0237 112.991C70.0394 112.964 70.049 112.934 70.0521 112.903C70.119 112.198 70.1817 111.495 70.24 110.792C70.47 108.209 74.7749 109.537 74.5579 112.098C74.4866 112.83 74.4219 113.563 74.3668 114.279C74.363 114.324 74.3742 114.37 74.3987 114.408C74.4232 114.447 74.4598 114.476 74.5028 114.493C74.6097 114.534 74.7166 114.569 74.8268 114.604C74.874 114.618 74.9147 114.649 74.9418 114.689C74.969 114.73 74.981 114.779 74.9758 114.827L74.3279 122.34C74.1692 124.251 74.004 126.123 73.8518 127.999C73.8475 128.046 73.8591 128.093 73.8849 128.133C73.9107 128.173 73.9492 128.203 73.9943 128.219C74.3538 128.353 74.7069 128.486 75.0503 128.627C75.0799 128.643 75.1134 128.652 75.1475 128.652C75.1815 128.652 75.215 128.643 75.2446 128.627C75.275 128.61 75.3006 128.586 75.3193 128.557C75.338 128.528 75.349 128.495 75.3515 128.461C75.5102 126.604 75.6755 124.728 75.8309 122.849C76.0318 120.4 76.2326 117.951 76.4367 115.483C76.4396 115.45 76.4501 115.419 76.4675 115.391C76.4848 115.363 76.5086 115.339 76.5368 115.321C76.565 115.304 76.5969 115.293 76.6301 115.289C76.6633 115.286 76.6969 115.29 76.7282 115.301L76.8222 115.337C76.8538 115.349 76.8879 115.353 76.9216 115.35C76.9554 115.346 76.9879 115.335 77.0165 115.317C77.0451 115.3 77.0688 115.275 77.0857 115.246C77.1026 115.217 77.1122 115.185 77.1137 115.152C77.1623 114.477 77.2271 113.789 77.2789 113.117C77.4959 110.569 80.7838 111.801 80.5765 114.317C80.5246 115.029 80.4706 115.739 80.4145 116.448C80.4098 116.495 80.4214 116.541 80.4473 116.581C80.4731 116.62 80.5118 116.65 80.557 116.665L80.881 116.786C80.9258 116.801 80.9642 116.831 80.99 116.87C81.0158 116.909 81.0276 116.956 81.0235 117.002C80.8291 119.467 80.6283 121.929 80.4274 124.368C80.259 126.598 80.0744 128.827 79.8995 131.037C79.8965 131.075 79.9036 131.112 79.9201 131.145C79.9366 131.179 79.9619 131.208 79.9934 131.228C80.6077 131.643 81.1689 132.128 81.6648 132.674C81.6977 132.709 81.7174 132.754 81.7208 132.802C81.7242 132.849 81.7111 132.897 81.6836 132.936C81.6561 132.975 81.6159 133.004 81.5695 133.018C81.5232 133.032 81.4734 133.03 81.4284 133.012L81.4867 132.961ZM84.9592 87.2279C75.8892 81.9412 63.8198 78.5303 51.5948 77.266C39.3698 76.0016 26.8339 76.8933 16.844 80.2023C16.797 80.218 16.746 80.2174 16.6995 80.2006C16.6529 80.1838 16.6136 80.1518 16.5881 80.1099C16.562 80.0686 16.5513 80.0197 16.5578 79.9715C16.5643 79.9233 16.5876 79.8788 16.6237 79.8456C17.2067 79.3042 17.8438 78.8219 18.5252 78.4061C18.5517 78.3891 18.5742 78.3667 18.591 78.3403C18.6078 78.3139 18.6185 78.2841 18.6223 78.2532C18.9139 76.0972 19.2054 73.9379 19.4937 71.7563C19.8176 69.32 20.1416 66.906 20.4655 64.4696C20.4702 64.4283 20.4875 64.3894 20.5153 64.3581C20.5431 64.3268 20.58 64.3046 20.621 64.2945L21 64.1925C21.0416 64.1819 21.079 64.1593 21.1073 64.1275C21.1356 64.0956 21.1535 64.0562 21.1587 64.0142C21.2559 63.3008 21.3466 62.5874 21.4373 61.8931C21.7612 59.4122 25.2013 58.3612 24.8612 60.8645C24.7802 61.5173 24.6895 62.183 24.6085 62.839C24.6036 62.8743 24.6083 62.9102 24.6219 62.9431C24.6355 62.9761 24.6577 63.005 24.6862 63.0269C24.7137 63.0507 24.7471 63.0667 24.783 63.0735C24.8189 63.0802 24.8559 63.0773 24.8903 63.0651C24.925 63.0542 24.962 63.052 24.9978 63.0587C25.0336 63.0655 25.067 63.081 25.0951 63.1039C25.1232 63.1267 25.145 63.1562 25.1584 63.1895C25.1719 63.2228 25.1766 63.2589 25.1721 63.2944C24.8482 65.7117 24.5437 68.1289 24.223 70.5461C23.9898 72.336 23.7533 74.129 23.5266 75.8997C23.5211 75.9352 23.5251 75.9714 23.5381 76.0049C23.5512 76.0384 23.5729 76.068 23.6011 76.0908C23.629 76.1137 23.6622 76.1295 23.6978 76.1367C23.7334 76.1439 23.7703 76.1424 23.8052 76.1322C24.1582 76.0239 24.5275 75.9188 24.8968 75.8137C24.9379 75.8032 24.9746 75.7804 25.0019 75.7485C25.0292 75.7165 25.0457 75.677 25.049 75.6354C25.2844 73.8052 25.522 71.9729 25.7617 70.1385C26.0856 67.6575 26.4095 65.1512 26.7335 62.667C26.7377 62.6266 26.7541 62.5882 26.7807 62.557C26.8072 62.5258 26.8427 62.5031 26.8825 62.4919C27.0056 62.4537 27.1319 62.4154 27.2615 62.3836C27.3041 62.3744 27.3427 62.3522 27.3718 62.3202C27.4009 62.2882 27.419 62.248 27.4234 62.2052L27.702 60.0269C28.0259 57.4791 32.4086 56.5682 32.088 59.1415C31.9973 59.8337 31.9109 60.5248 31.8288 61.2148C31.8249 61.2475 31.8287 61.2807 31.8401 61.3117C31.8514 61.3427 31.8698 61.3707 31.894 61.3935C31.9181 61.4164 31.9473 61.4334 31.9793 61.4433C32.0113 61.4531 32.0451 61.4556 32.0782 61.4505H32.1495C32.1827 61.4448 32.2168 61.447 32.2489 61.457C32.281 61.467 32.3103 61.4844 32.3341 61.5078C32.3592 61.5306 32.3785 61.559 32.3903 61.5905C32.4021 61.6221 32.4062 61.6559 32.4022 61.6893C32.0977 64.1702 31.7835 66.6735 31.4725 69.1544C31.2457 70.9187 31.0384 72.6576 30.8246 74.4061C30.821 74.4386 30.8248 74.4715 30.8359 74.5023C30.8471 74.5332 30.8651 74.5612 30.8888 74.5842C30.9125 74.6071 30.9412 74.6245 30.9727 74.6351C31.0043 74.6456 31.0378 74.649 31.0708 74.6449C31.6604 74.5653 32.2661 74.4984 32.8848 74.4379C32.934 74.4326 32.9799 74.4111 33.0151 74.3771C33.0504 74.343 33.0729 74.2982 33.0792 74.25C33.293 72.4697 33.5165 70.6671 33.727 68.8678C34.038 66.32 34.3479 63.7796 34.6567 61.2466C34.6622 61.1987 34.6842 61.154 34.7189 61.1199C34.7536 61.0857 34.799 61.0642 34.8478 61.0587C34.9515 61.0587 35.0551 61.0333 35.1717 61.0142C35.2183 61.0069 35.2611 60.9849 35.2939 60.9516C35.3266 60.9183 35.3474 60.8754 35.3531 60.8294C35.4438 60.1001 35.5378 59.3708 35.6155 58.6383C35.9394 56.0427 41.2356 55.5937 40.9247 58.2339C40.8404 58.9377 40.7595 59.6415 40.6752 60.3613C40.6705 60.3924 40.6734 60.4242 40.6835 60.4541C40.6936 60.484 40.7108 60.5111 40.7335 60.5333C40.7548 60.5561 40.7809 60.5739 40.8101 60.5855C40.8392 60.597 40.8706 60.6021 40.902 60.6001H41.0283C41.0597 60.5982 41.0911 60.6032 41.1203 60.6148C41.1494 60.6264 41.1755 60.6442 41.1968 60.667C41.2193 60.6887 41.2363 60.7153 41.2464 60.7446C41.2565 60.7739 41.2595 60.8051 41.2551 60.8358C40.9527 63.3836 40.6536 65.9219 40.3578 68.4506C40.1505 70.2499 39.9367 72.0493 39.7294 73.8264C39.7267 73.8568 39.7304 73.8875 39.7405 73.9164C39.7505 73.9453 39.7665 73.9718 39.7875 73.9943C39.8086 74.0168 39.8341 74.0347 39.8626 74.0469C39.8911 74.0591 39.9218 74.0654 39.9529 74.0653C40.7983 74.043 41.6405 74.0653 42.4925 74.0653C42.5469 74.0664 42.5997 74.0473 42.6405 74.0119C42.6813 73.9766 42.7071 73.9274 42.7127 73.8742C42.92 72.0557 43.1274 70.2149 43.3379 68.3773C43.6294 65.7945 43.9242 63.2339 44.2222 60.6734C44.2276 60.6232 44.2512 60.5766 44.2887 60.5421C44.3262 60.5076 44.375 60.4875 44.4263 60.4855H44.6952C44.7471 60.4828 44.7964 60.4622 44.8344 60.4272C44.8723 60.3922 44.8964 60.3452 44.9025 60.2944C44.9835 59.5523 45.0677 58.8262 45.1551 58.081C45.4531 55.4376 51.6337 55.7593 51.3616 58.3835C51.2838 59.1129 51.1964 59.8453 51.1186 60.5747C51.115 60.6036 51.1175 60.6329 51.1258 60.6608C51.1342 60.6887 51.1483 60.7147 51.1672 60.7371C51.1869 60.7588 51.2108 60.7765 51.2375 60.789C51.2642 60.8016 51.2931 60.8088 51.3227 60.8103H51.4976C51.5267 60.8127 51.555 60.821 51.5806 60.8347C51.6063 60.8484 51.6287 60.8672 51.6466 60.8899C51.6654 60.9112 51.6794 60.936 51.6878 60.9629C51.6961 60.9898 51.6987 61.0181 51.6952 61.046C51.4134 63.5938 51.1316 66.1735 50.8562 68.7467C50.6619 70.579 50.4632 72.4113 50.2602 74.2436C50.2565 74.272 50.2589 74.3009 50.2672 74.3283C50.2756 74.3558 50.2898 74.3812 50.3088 74.4029C50.3265 74.4254 50.3491 74.4439 50.3748 74.4571C50.4005 74.4703 50.4288 74.4779 50.4578 74.4793C51.394 74.5589 52.3269 74.6576 53.2598 74.7691C53.2883 74.7727 53.3173 74.7706 53.345 74.7631C53.3727 74.7555 53.3986 74.7426 53.4212 74.7251C53.4438 74.7076 53.4627 74.6859 53.4767 74.6612C53.4906 74.6365 53.4995 74.6093 53.5027 74.5812C53.6971 72.7468 53.8903 70.9124 54.0825 69.078C54.3514 66.5047 54.6235 63.9314 54.8988 61.3772C54.9005 61.3492 54.9083 61.3219 54.9217 61.2972C54.9352 61.2724 54.9539 61.2509 54.9766 61.2339C54.9988 61.2155 55.0247 61.2018 55.0526 61.1936C55.0804 61.1854 55.1097 61.1828 55.1385 61.1861L55.3167 61.2116C55.3455 61.2161 55.375 61.2147 55.4033 61.2076C55.4316 61.2004 55.4581 61.1876 55.4811 61.17C55.5042 61.1524 55.5234 61.1303 55.5374 61.1052C55.5515 61.08 55.5601 61.0523 55.5629 61.0237C55.6406 60.2912 55.7184 59.5619 55.7896 58.8517C56.0617 56.2052 62.1839 57.1542 61.9183 59.8071C61.8438 60.5555 61.7758 61.2817 61.7013 62.0365C61.6966 62.0869 61.7103 62.1374 61.74 62.1788C61.7696 62.2202 61.8133 62.2499 61.8632 62.2626L62.1191 62.3295C62.1685 62.3427 62.2114 62.3727 62.2404 62.4141C62.2695 62.4554 62.2827 62.5055 62.2779 62.5556C62.0284 65.1225 61.7725 67.7085 61.5166 70.2722C61.3417 72.113 61.1506 73.957 60.9724 75.7787C60.968 75.8308 60.983 75.8828 61.0146 75.925C61.0461 75.9671 61.0922 75.9966 61.1441 76.008C61.9766 76.1704 62.8059 76.3265 63.6286 76.5303C63.6589 76.5379 63.6905 76.539 63.7213 76.5335C63.752 76.528 63.7812 76.516 63.8068 76.4984C63.8322 76.4802 63.8535 76.4568 63.8691 76.4299C63.8848 76.403 63.8944 76.3732 63.8975 76.3424C64.0659 74.5589 64.2376 72.7595 64.4125 70.957C64.6587 68.4092 64.9114 65.8614 65.1511 63.3135C65.1541 63.2823 65.1641 63.2522 65.1804 63.2252C65.1966 63.1982 65.2187 63.1751 65.245 63.1575C65.2708 63.1389 65.3007 63.1266 65.3322 63.1216C65.3638 63.1166 65.3961 63.1191 65.4264 63.1288L65.5398 63.1575C65.5697 63.1665 65.6014 63.1686 65.6323 63.1636C65.6632 63.1586 65.6925 63.1467 65.718 63.1288C65.7443 63.1112 65.7664 63.0881 65.7826 63.0611C65.7989 63.0341 65.8089 63.004 65.8119 62.9728C65.8832 62.2498 65.9512 61.546 66.0192 60.8422C66.2751 58.2148 71.364 59.7148 71.1243 62.3199C71.0628 63.0524 70.9915 63.7849 70.9235 64.5333C70.9194 64.5815 70.9319 64.6296 70.9589 64.67C70.9859 64.7104 71.0259 64.7408 71.0725 64.7562L71.3543 64.8486C71.4009 64.863 71.4412 64.8926 71.4683 64.9326C71.4954 64.9726 71.5077 65.0205 71.5033 65.0683C71.2668 67.6161 71.0271 70.164 70.8004 72.7118C70.6384 74.5175 70.4764 76.3233 70.3145 78.1099C70.3092 78.1583 70.3212 78.207 70.3484 78.2476C70.3756 78.2883 70.4162 78.3184 70.4635 78.3329C71.053 78.5208 71.6296 78.7087 72.1965 78.9093C72.2279 78.9201 72.2614 78.9237 72.2944 78.9198C72.3274 78.9159 72.359 78.9046 72.3869 78.8867C72.4148 78.8689 72.4381 78.845 72.4551 78.8169C72.472 78.7887 72.4822 78.7572 72.4848 78.7246C72.6435 76.9762 72.8087 75.2213 72.961 73.4538C73.1812 70.9633 73.4047 68.4537 73.6088 65.9601C73.6114 65.9272 73.6218 65.8953 73.6393 65.8671C73.6567 65.8389 73.6807 65.8151 73.7092 65.7977C73.7381 65.7804 73.7706 65.7698 73.8042 65.7665C73.8378 65.7632 73.8718 65.7673 73.9036 65.7785L73.9748 65.8072C74.0063 65.82 74.0406 65.8249 74.0744 65.8216C74.1084 65.8182 74.1409 65.8067 74.1692 65.7881C74.1979 65.7709 74.222 65.7472 74.2395 65.7189C74.257 65.6906 74.2673 65.6587 74.2696 65.6257C74.3312 64.9346 74.3895 64.2403 74.451 63.546C74.6713 60.9632 78.7722 62.7467 78.5519 65.3072C78.4968 66.0461 78.4353 66.7626 78.3705 67.4983C78.3664 67.5408 78.3757 67.5834 78.3971 67.6205C78.4186 67.6575 78.4511 67.6871 78.4904 67.7053C78.607 67.7626 78.7204 67.8263 78.837 67.89C78.8742 67.9093 78.9047 67.9389 78.9249 67.9752C78.9451 68.0114 78.9539 68.0527 78.9503 68.0939C78.7366 70.5875 78.513 73.1035 78.3025 75.5971C78.1535 77.4379 77.998 79.2777 77.836 81.1163C77.8316 81.1584 77.8404 81.2008 77.8613 81.2378C77.8821 81.2748 77.914 81.3047 77.9527 81.3233C78.296 81.4985 78.6297 81.6673 78.9471 81.8456C78.9792 81.8635 79.0155 81.8729 79.0524 81.8729C79.0893 81.8729 79.1255 81.8635 79.1577 81.8456C79.1903 81.8294 79.218 81.8049 79.2379 81.7747C79.2578 81.7445 79.2693 81.7096 79.271 81.6737C79.4265 79.8997 79.5755 78.1036 79.7278 76.3074C79.9318 73.8774 80.1262 71.4506 80.3335 69.0206C80.3364 68.9854 80.3484 68.9514 80.3682 68.9219C80.388 68.8924 80.4151 68.8683 80.4469 68.8518C80.479 68.834 80.5153 68.8246 80.5522 68.8246C80.5891 68.8246 80.6253 68.834 80.6574 68.8518C80.6896 68.8697 80.7258 68.8791 80.7627 68.8791C80.7996 68.8791 80.8359 68.8697 80.868 68.8518C80.9007 68.8356 80.9283 68.8111 80.9483 68.7809C80.9682 68.7507 80.9796 68.7158 80.9814 68.6799C81.0364 68.0238 81.0915 67.3518 81.1466 66.6989C81.3604 64.183 84.483 65.9123 84.2789 68.406C84.2271 69.1034 84.1591 69.82 84.1105 70.5398C84.1065 70.581 84.1151 70.6224 84.1353 70.6588C84.1556 70.6951 84.1864 70.7247 84.2239 70.7436L84.5834 70.9219C84.6217 70.9409 84.6534 70.9708 84.6742 71.0078C84.695 71.0447 84.704 71.0869 84.7 71.1289C84.5089 73.578 84.3113 76.0048 84.117 78.4539C83.9388 80.645 83.7671 82.817 83.5987 84.9858C83.5951 85.017 83.5991 85.0485 83.6103 85.0779C83.6216 85.1073 83.6398 85.1335 83.6635 85.1546C84.2382 85.7015 84.7588 86.3008 85.2183 86.9444C85.2613 86.9824 85.2871 87.0357 85.2901 87.0924C85.2932 87.1491 85.2732 87.2048 85.2345 87.247C85.1959 87.2892 85.1417 87.3146 85.084 87.3176C85.0263 87.3206 84.9697 87.3009 84.9268 87.2629L84.9592 87.2279ZM19.9828 57.6606C29.4447 53.3293 41.9709 51.9694 54.157 53.2274C66.3431 54.4854 78.309 58.3772 86.6533 64.546C86.694 64.5752 86.7437 64.5895 86.7939 64.5866C86.8441 64.5837 86.8917 64.5637 86.9286 64.5301C86.9661 64.4971 86.9905 64.4522 86.9976 64.4033C87.0047 64.3544 86.9941 64.3046 86.9675 64.2626C86.533 63.5809 86.0422 62.9354 85.5001 62.3326C85.4807 62.3111 85.4661 62.2858 85.4571 62.2584C85.4482 62.231 85.4452 62.202 85.4483 62.1734C85.6167 60.0237 85.7917 57.8485 85.9633 55.6765C86.1577 53.2465 86.3456 50.8134 86.5399 48.4025C86.5432 48.3649 86.5362 48.327 86.5197 48.2929C86.5032 48.2588 86.4777 48.2295 86.446 48.2082L86.067 47.9662C86.0324 47.9464 86.0043 47.9173 85.9859 47.8823C85.9676 47.8473 85.9597 47.8079 85.9633 47.7688C86.0217 47.0522 86.0864 46.3515 86.1415 45.6318C86.3423 43.1572 83.3007 41.1222 83.0934 43.6381C83.0286 44.4025 82.9638 45.1668 82.9055 45.9311L82.6269 45.7496C82.5945 45.7309 82.5576 45.721 82.52 45.721C82.4824 45.721 82.4455 45.7309 82.4131 45.7496C82.379 45.7647 82.3498 45.7888 82.3287 45.8191C82.3076 45.8494 82.2953 45.8849 82.2933 45.9216C82.0892 48.3197 81.8884 50.7401 81.6875 53.1351C81.5385 54.9058 81.3992 56.6574 81.2502 58.409C81.2472 58.4455 81.2345 58.4805 81.2135 58.5106C81.1925 58.5408 81.1638 58.5651 81.1304 58.581C81.098 58.5998 81.0611 58.6097 81.0235 58.6097C80.9859 58.6097 80.949 58.5998 80.9166 58.581C80.5927 58.3835 80.2687 58.1797 79.9448 57.9855C79.9091 57.9658 79.88 57.9364 79.861 57.9008C79.842 57.8651 79.834 57.8248 79.8379 57.7848C79.9934 55.9631 80.1467 54.1425 80.2979 52.323C80.5084 49.8261 80.7319 47.3293 80.9457 44.8292C80.9493 44.7915 80.9425 44.7536 80.926 44.7194C80.9094 44.6852 80.8838 44.656 80.8518 44.635L80.4696 44.377C80.4381 44.3555 80.4132 44.3262 80.3972 44.292C80.3813 44.2579 80.3749 44.2201 80.3789 44.1827C80.4404 43.4598 80.5052 42.7368 80.57 41.9916C80.787 39.4438 76.8027 37.3864 76.5727 39.9693C76.5144 40.6572 76.4529 41.3419 76.3946 42.0298C76.3925 42.0632 76.3819 42.0956 76.3638 42.124C76.3456 42.1524 76.3206 42.1758 76.2909 42.1922C76.2604 42.2079 76.2265 42.216 76.1921 42.216C76.1577 42.216 76.1238 42.2079 76.0933 42.1922L76.048 42.1731C76.018 42.1575 75.9847 42.1494 75.9508 42.1494C75.9169 42.1494 75.8835 42.1575 75.8536 42.1731C75.8238 42.1905 75.7986 42.2146 75.78 42.2434C75.7614 42.2721 75.75 42.3048 75.7467 42.3387C75.52 44.8271 75.2975 47.3155 75.0794 49.8038C74.9207 51.5714 74.7555 53.307 74.6065 55.065C74.6044 55.0985 74.5938 55.1308 74.5757 55.1592C74.5576 55.1876 74.5325 55.211 74.5028 55.2275C74.4729 55.2431 74.4395 55.2512 74.4057 55.2512C74.3718 55.2512 74.3384 55.2431 74.3085 55.2275C73.7578 55.0077 73.2007 54.7911 72.6241 54.5905C72.5786 54.575 72.5398 54.5448 72.514 54.505C72.4881 54.4651 72.4767 54.4178 72.4815 54.3708C72.65 52.5841 72.8055 50.7752 72.9739 48.9567C73.2071 46.4089 73.4436 43.8611 73.6768 41.3132C73.6814 41.2691 73.6716 41.2247 73.6489 41.1864C73.6262 41.1481 73.5918 41.1178 73.5505 41.0999L73.2266 40.9597C73.1848 40.9414 73.1498 40.9106 73.1266 40.8718C73.1034 40.833 73.093 40.788 73.097 40.7432C73.1683 40.0075 73.2395 39.2718 73.3076 38.5138C73.5473 35.9087 68.575 34.2622 68.3191 36.8864C68.2511 37.5903 68.1798 38.31 68.1183 39.017C68.1152 39.0482 68.1052 39.0784 68.089 39.1054C68.0728 39.1323 68.0507 39.1555 68.0243 39.1731C67.9984 39.1914 67.9687 39.2037 67.9373 39.2092C67.9059 39.2147 67.8737 39.2133 67.8429 39.2049L67.7425 39.1763C67.712 39.1673 67.6799 39.1652 67.6485 39.1701C67.617 39.1751 67.5872 39.187 67.5611 39.2049C67.5348 39.2226 67.5127 39.2457 67.4964 39.2727C67.4802 39.2996 67.4702 39.3298 67.4672 39.361C67.2242 41.9088 66.9716 44.4566 66.7286 46.9694C66.558 48.7719 66.3853 50.5766 66.2103 52.3835C66.2084 52.4141 66.1991 52.4439 66.1834 52.4704C66.1676 52.497 66.1458 52.5195 66.1196 52.5363C66.0947 52.5553 66.0656 52.5683 66.0347 52.5744C66.0038 52.5805 65.9719 52.5794 65.9415 52.5714C65.1414 52.3739 64.3218 52.1956 63.5153 52.014C63.4636 52.0026 63.4179 51.973 63.3869 51.9308C63.3558 51.8885 63.3416 51.8366 63.3468 51.7847C63.5347 49.9408 63.7193 48.0936 63.9007 46.2273C64.1534 43.6604 64.4082 41.0935 64.6652 38.5266C64.6701 38.4766 64.6568 38.4264 64.6278 38.3851C64.5987 38.3437 64.5558 38.3137 64.5065 38.3005L64.2506 38.2304C64.2019 38.2165 64.1597 38.1863 64.1313 38.145C64.1029 38.1037 64.0901 38.0539 64.0951 38.0043C64.1664 37.275 64.2409 36.5266 64.3121 35.775C64.5777 33.1507 58.5948 32.1475 58.313 34.7718C58.2353 35.5011 58.164 36.2336 58.0863 36.9629C58.0843 36.9919 58.0757 37.0202 58.0611 37.0456C58.0465 37.0709 58.0264 37.0927 58.002 37.1094C57.9793 37.1278 57.9527 37.141 57.9241 37.1482C57.8956 37.1553 57.8658 37.1562 57.8368 37.1508L57.6814 37.1285C57.6521 37.1228 57.622 37.1232 57.593 37.1298C57.5639 37.1364 57.5366 37.149 57.5129 37.1667C57.4893 37.1847 57.4696 37.2073 57.4551 37.233C57.4407 37.2588 57.4317 37.2871 57.4287 37.3164C57.1631 39.8865 56.891 42.4534 56.6221 45.0012C56.4278 46.8547 56.2269 48.7114 56.0391 50.5459C56.0361 50.5743 56.0274 50.6019 56.0135 50.6271C55.9996 50.6522 55.9807 50.6744 55.9581 50.6924C55.9119 50.7271 55.8539 50.743 55.7961 50.7369C54.8848 50.6265 53.9746 50.5321 53.0654 50.4535C53.0366 50.4511 53.0085 50.4431 52.9829 50.4299C52.9572 50.4167 52.9345 50.3986 52.9161 50.3766C52.8977 50.3546 52.8839 50.3293 52.8756 50.302C52.8674 50.2747 52.8647 50.2461 52.8678 50.2178C53.0622 48.3834 53.2662 46.5299 53.4671 44.6732C53.7457 42.1254 54.0145 39.5584 54.2963 36.9915C54.3001 36.9624 54.2974 36.9328 54.2885 36.9048C54.2795 36.8767 54.2645 36.8509 54.2445 36.8291C54.2253 36.8068 54.2015 36.7887 54.1747 36.7761C54.1479 36.7635 54.1187 36.7566 54.089 36.7559H53.9368C53.9071 36.7539 53.8781 36.7461 53.8516 36.7329C53.825 36.7198 53.8014 36.7015 53.7821 36.6793C53.7627 36.657 53.7481 36.6312 53.7391 36.6034C53.7301 36.5755 53.7268 36.5461 53.7295 36.517C53.8137 35.7877 53.8914 35.0584 53.9692 34.3291C54.2607 31.6825 48.1871 31.4628 47.8891 34.087C47.8016 34.8323 47.7174 35.5616 47.6364 36.3164C47.6318 36.3666 47.609 36.4136 47.5721 36.4486C47.5353 36.4837 47.4868 36.5046 47.4356 36.5075H47.1667C47.1155 36.5103 47.067 36.5312 47.0301 36.5663C46.9933 36.6013 46.9705 36.6483 46.9659 36.6985C46.6744 39.2623 46.3796 41.826 46.0848 44.412C45.8689 46.2528 45.6529 48.0936 45.437 49.9344C45.4307 49.9862 45.4057 50.0341 45.3664 50.0692C45.3271 50.1043 45.2762 50.1243 45.2232 50.1255C44.3907 50.1255 43.5614 50.1478 42.7386 50.1732C42.7073 50.1747 42.676 50.1695 42.647 50.158C42.6179 50.1464 42.5917 50.1288 42.5702 50.1064C42.5483 50.0844 42.5319 50.0577 42.5223 50.0284C42.5128 49.9991 42.5103 49.968 42.5151 49.9376C42.7192 48.1573 42.9298 46.3579 43.1403 44.5617C43.4383 42.0139 43.7353 39.4756 44.0311 36.9469C44.035 36.9162 44.0319 36.8849 44.0221 36.8555C44.0123 36.826 43.9959 36.7991 43.9743 36.7765C43.9526 36.754 43.9261 36.7365 43.8968 36.7252C43.8674 36.7139 43.8358 36.7092 43.8044 36.7113H43.7039C43.672 36.7137 43.64 36.7089 43.6103 36.6973C43.5805 36.6857 43.5538 36.6676 43.5323 36.6444C43.5105 36.6216 43.494 36.5944 43.4839 36.5647C43.4739 36.535 43.4705 36.5035 43.474 36.4724C43.5549 35.7718 43.6392 35.0679 43.7234 34.345C44.0246 31.7271 38.8127 32.3418 38.5049 34.9406C38.411 35.673 38.3171 36.4055 38.2328 37.138C38.2276 37.1827 38.2083 37.2246 38.1774 37.2577C38.1466 37.2909 38.1059 37.3137 38.0612 37.3228L37.7372 37.396C37.6935 37.4055 37.6539 37.428 37.6238 37.4605C37.5936 37.493 37.5744 37.5339 37.5688 37.5775C37.2449 40.103 36.9501 42.6508 36.6326 45.1955C36.4059 46.998 36.1921 48.8006 35.9848 50.5841C35.9789 50.6305 35.9576 50.6737 35.9242 50.7071C35.8909 50.7405 35.8473 50.7622 35.8001 50.7688C35.1976 50.8548 34.5984 50.9535 34.0153 51.0554C33.9816 51.0608 33.9471 51.0585 33.9145 51.0485C33.8819 51.0386 33.8521 51.0213 33.8274 50.9981C33.8023 50.9754 33.7832 50.947 33.7719 50.9153C33.7606 50.8836 33.7574 50.8497 33.7627 50.8166C33.9797 49.0777 34.2 47.3388 34.4105 45.5776C34.7193 43.0999 35.027 40.6222 35.3337 38.1444C35.3373 38.1118 35.3334 38.0788 35.3222 38.0479C35.311 38.017 35.2927 37.989 35.2689 37.9661C35.245 37.9417 35.2153 37.9237 35.1825 37.9137C35.1496 37.9037 35.1147 37.902 35.081 37.9087H35.0227C34.9895 37.9139 34.9556 37.9114 34.9235 37.9014C34.8915 37.8915 34.8623 37.8744 34.8381 37.8514C34.8132 37.8292 34.7943 37.8013 34.7829 37.7702C34.7716 37.7391 34.7683 37.7057 34.7733 37.6731C34.8575 36.9852 34.9385 36.3004 35.026 35.6125C35.3499 33.0392 31.0158 34.2463 30.6886 36.775C30.5979 37.5138 30.504 38.2304 30.41 38.9661C30.4063 39.0058 30.3908 39.0435 30.3655 39.0747C30.3401 39.1058 30.3061 39.129 30.2675 39.1412L29.8658 39.2846C29.8281 39.2982 29.7948 39.3217 29.7697 39.3526C29.7446 39.3835 29.7285 39.4205 29.7233 39.4597C29.3994 41.947 29.0754 44.4502 28.7515 46.9343C28.5183 48.7465 28.2786 50.5586 28.0454 52.3707C28.041 52.4107 28.0249 52.4485 27.999 52.4796C27.9731 52.5107 27.9386 52.5338 27.8996 52.5459C27.5368 52.6669 27.1837 52.8007 26.8339 52.9344C26.7989 52.9491 26.7606 52.9541 26.723 52.9491C26.6853 52.944 26.6498 52.9291 26.6201 52.9058C26.5899 52.8829 26.5665 52.8526 26.5523 52.8179C26.538 52.7831 26.5335 52.7453 26.5391 52.7083C26.7691 50.9694 26.9926 49.2051 27.2258 47.4566C27.5498 44.9502 27.8737 42.4247 28.1976 39.9183L27.8964 40.0362C27.8614 40.0491 27.8237 40.053 27.7868 40.0474C27.7499 40.0418 27.7151 40.027 27.6858 40.0043C27.6559 39.982 27.6326 39.9522 27.6184 39.918C27.6042 39.8839 27.5995 39.8466 27.6048 39.81C27.6858 39.1731 27.7668 38.5361 27.8575 37.8992C28.1814 35.3928 24.7899 36.7654 24.4465 39.2209C24.3623 39.9374 24.2651 40.6317 24.168 41.3451C24.1622 41.3837 24.1459 41.4201 24.1208 41.4504C24.0957 41.4807 24.0628 41.5037 24.0254 41.5171C23.8861 41.5648 23.7469 41.619 23.6076 41.6763C23.5729 41.691 23.5427 41.7142 23.52 41.7438C23.4973 41.7734 23.4828 41.8083 23.478 41.8451C23.1541 44.2432 22.8301 46.6605 22.5062 49.0809L21.6673 55.5841C21.6638 55.6124 21.6546 55.6397 21.6401 55.6643C21.6256 55.6889 21.6062 55.7104 21.583 55.7275C20.9198 56.2034 20.3008 56.7363 19.7334 57.3198C19.6986 57.3558 19.6779 57.4027 19.675 57.4523C19.672 57.5018 19.687 57.5508 19.7172 57.5905C19.746 57.6311 19.7885 57.6603 19.837 57.6731C19.8856 57.686 19.9373 57.6815 19.9828 57.6606ZM53.4088 26.3226C55.8083 26.4519 58.1997 26.6995 60.574 27.0646C60.603 27.0699 60.6327 27.0689 60.6612 27.0617C60.6897 27.0546 60.7163 27.0415 60.7392 27.0232C60.7628 27.0058 60.7824 26.9839 60.7969 26.9586C60.8114 26.9334 60.8204 26.9056 60.8234 26.8767C60.8882 26.2398 60.9465 25.6347 61.0146 25.0137C61.1506 23.7398 61.3871 21.4022 61.5199 20.1251C62.0544 14.9435 54.5101 14.1632 53.9432 19.3416C53.804 20.6155 53.5481 22.9499 53.4055 24.227C53.3375 24.864 53.2727 25.4691 53.2015 26.0869C53.1973 26.1159 53.1995 26.1454 53.2078 26.1735C53.2161 26.2015 53.2304 26.2276 53.2497 26.2498C53.2689 26.2721 53.2928 26.2901 53.3197 26.3026C53.3465 26.3152 53.3758 26.322 53.4055 26.3226H53.4088ZM80.8486 10.3192C74.668 6.67903 67.1303 4.4083 59.4694 3.63122C51.8086 2.85413 43.9437 3.51656 37.1412 5.81596C37.0939 5.83011 37.0431 5.8282 36.997 5.81052C36.9509 5.79284 36.9122 5.76043 36.8872 5.7185C36.8621 5.67658 36.8521 5.62758 36.8589 5.5794C36.8656 5.53121 36.8886 5.48666 36.9242 5.4529C41.6438 1.31271 50.8562 -0.0535474 59.7577 0.857293C68.6592 1.76813 77.3955 4.99748 81.1368 10.0103C81.1681 10.0487 81.1852 10.0964 81.1852 10.1456C81.1852 10.1948 81.1681 10.2426 81.1368 10.281C81.1026 10.3219 81.0538 10.3486 81.0003 10.3557C80.9469 10.3628 80.8926 10.3498 80.8486 10.3192ZM83.2294 110.072C73.4566 105.569 61.3158 102.566 49.0196 101.295C36.7233 100.024 24.1971 100.48 13.7116 102.887C13.6643 102.899 13.6144 102.894 13.5702 102.874C13.526 102.853 13.4902 102.819 13.4687 102.776C13.4456 102.734 13.4381 102.685 13.4476 102.638C13.457 102.591 13.4828 102.548 13.5205 102.518C14.1178 102.027 14.7698 101.605 15.4641 101.26C15.4944 101.244 15.5203 101.22 15.5395 101.192C15.5587 101.164 15.5706 101.131 15.5742 101.097C15.869 98.9223 16.1573 96.7439 16.4553 94.5433C16.7792 92.091 17.1031 89.661 17.4271 87.2183C17.4319 87.1739 17.4513 87.1322 17.4822 87.0995C17.5132 87.0668 17.554 87.0448 17.5987 87.0368L17.968 86.9635C18.0125 86.9551 18.0531 86.9329 18.084 86.9003C18.1148 86.8677 18.1343 86.8262 18.1397 86.782C18.2369 86.0718 18.3276 85.3616 18.428 84.6514C18.7519 82.1705 22.2082 81.3934 21.8746 83.9221C21.7839 84.5813 21.7061 85.2406 21.6187 85.903C21.6136 85.9369 21.6171 85.9716 21.629 86.0038C21.6408 86.036 21.6607 86.0649 21.6867 86.0877C21.7117 86.1112 21.7423 86.1282 21.7757 86.1371C21.809 86.146 21.8442 86.1465 21.8778 86.1387H21.9361C21.9698 86.1308 22.0049 86.1314 22.0383 86.1403C22.0716 86.1492 22.1022 86.1661 22.1272 86.1896C22.1532 86.2125 22.1731 86.2413 22.1849 86.2736C22.1968 86.3058 22.2004 86.3404 22.1952 86.3744C21.8713 88.8043 21.5636 91.2534 21.2429 93.6834C21.0032 95.5029 20.7657 97.3225 20.5303 99.142C20.525 99.1767 20.5288 99.2122 20.5412 99.245C20.5537 99.2779 20.5744 99.3071 20.6015 99.3299C20.6281 99.3529 20.66 99.3693 20.6944 99.3776C20.7288 99.3859 20.7647 99.386 20.7991 99.3777C21.1554 99.2917 21.5247 99.2121 21.907 99.1261C21.9504 99.1172 21.9899 99.0953 22.0201 99.0634C22.0503 99.0314 22.0696 98.991 22.0754 98.9478C22.3183 97.0942 22.5516 95.2407 22.7913 93.3904C23.1152 90.9126 23.4391 88.4126 23.7631 85.9126C23.7677 85.8686 23.7866 85.8272 23.8169 85.7946C23.8472 85.7619 23.8874 85.7396 23.9315 85.731L24.2878 85.6578C24.3326 85.6487 24.3733 85.6259 24.4041 85.5928C24.4349 85.5596 24.4543 85.5177 24.4595 85.4731C24.5534 84.7438 24.6506 84.0336 24.7446 83.3011C25.0685 80.7533 29.4933 80.0972 29.1791 82.6641L28.9167 84.7438C28.9119 84.7762 28.915 84.8092 28.9257 84.8402C28.9364 84.8712 28.9544 84.8993 28.9783 84.9221C29 84.9457 29.0274 84.9636 29.0579 84.9742C29.0885 84.9848 29.1212 84.9877 29.1532 84.9826H29.2633C29.2957 84.9783 29.3286 84.9815 29.3595 84.9918C29.3905 85.0022 29.4185 85.0195 29.4414 85.0424C29.4644 85.0652 29.4816 85.093 29.4917 85.1236C29.5018 85.1541 29.5046 85.1865 29.4998 85.2183C29.1953 87.7279 28.8843 90.212 28.5734 92.6993C28.3574 94.4679 28.1415 96.2365 27.9255 98.0051C27.9221 98.0367 27.9258 98.0687 27.9363 98.0988C27.9469 98.1289 27.9641 98.1563 27.9867 98.1791C28.0093 98.2019 28.0367 98.2196 28.067 98.2308C28.0973 98.242 28.1297 98.2465 28.162 98.2439C28.7677 98.1802 29.3864 98.1357 30.0116 98.0911C30.0621 98.0877 30.1098 98.0671 30.1465 98.0328C30.1832 97.9985 30.2065 97.9526 30.2124 97.9032C30.4327 96.1261 30.6497 94.3267 30.8603 92.5273C31.1734 89.9795 31.4865 87.4391 31.7997 84.9062C31.8058 84.8584 31.8279 84.8141 31.8625 84.78C31.8971 84.746 31.9422 84.7243 31.9908 84.7183L32.3147 84.6864C32.3643 84.6822 32.4108 84.6612 32.4463 84.6269C32.4818 84.5926 32.504 84.5472 32.5091 84.4985C32.5933 83.7724 32.6807 83.0431 32.7747 82.2979C33.0986 79.6991 38.4693 79.4316 38.168 82.059C38.0741 82.7851 37.9899 83.4953 37.9057 84.2183C37.9025 84.2481 37.9057 84.2783 37.9152 84.3069C37.9247 84.3354 37.9402 84.3616 37.9607 84.3839C37.981 84.4072 38.0064 84.4256 38.0351 84.4378C38.0637 84.4499 38.0948 84.4555 38.1259 84.4539H38.2782C38.3095 84.4527 38.3407 84.458 38.3697 84.4695C38.3988 84.4811 38.425 84.4986 38.4466 84.5208C38.4686 84.5434 38.485 84.5707 38.4945 84.6005C38.5041 84.6303 38.5065 84.6619 38.5017 84.6928C38.2004 87.2406 37.8992 89.7884 37.6141 92.298C37.4003 94.0974 37.193 95.8809 36.9663 97.6611C36.9618 97.6908 36.9641 97.7211 36.9731 97.7497C36.982 97.7784 36.9974 97.8047 37.0181 97.8267C37.0379 97.8491 37.0623 97.8672 37.0896 97.8798C37.1169 97.8924 37.1466 97.8993 37.1768 97.9C38.0385 97.9 38.9034 97.9223 39.7682 97.9541C39.823 97.9553 39.8762 97.9364 39.9175 97.901C39.9589 97.8657 39.9853 97.8165 39.9918 97.7631C40.1991 95.9477 40.4129 94.1292 40.6202 92.2916C40.9117 89.7438 41.2065 87.1769 41.498 84.5973C41.5036 84.5452 41.5284 84.4969 41.5679 84.4617C41.6073 84.4264 41.6585 84.4067 41.7118 84.4062H41.9774C42.0311 84.4058 42.0827 84.3861 42.1227 84.351C42.1626 84.3158 42.1881 84.2675 42.1944 84.2151C42.2787 83.473 42.3597 82.731 42.4439 82.0081C42.7484 79.3647 49.0487 79.7437 48.7604 82.3902C48.6827 83.1036 48.6049 83.8361 48.5272 84.5686C48.5236 84.5975 48.5261 84.6268 48.5344 84.6547C48.5428 84.6827 48.5569 84.7086 48.5758 84.731C48.5955 84.7527 48.6194 84.7704 48.6461 84.783C48.6728 84.7956 48.7017 84.8028 48.7313 84.8043H48.9159C48.9454 84.8052 48.9744 84.8126 49.0007 84.8258C49.027 84.839 49.0501 84.8577 49.0682 84.8807C49.0876 84.9023 49.1022 84.9275 49.1112 84.955C49.1201 84.9824 49.1231 85.0113 49.12 85.0399C48.8382 87.61 48.5628 90.1642 48.281 92.7343C48.0867 94.5687 47.8923 96.3809 47.698 98.193C47.6916 98.2491 47.7081 98.3055 47.744 98.3497C47.7798 98.3939 47.832 98.4223 47.8891 98.4287L50.7623 98.7248C50.7904 98.7281 50.819 98.7259 50.8462 98.7182C50.8735 98.7106 50.8989 98.6977 50.921 98.6803C50.9432 98.6621 50.9616 98.6399 50.9749 98.6147C50.9882 98.5896 50.9964 98.562 50.9988 98.5338C51.1866 96.7216 51.3745 94.9095 51.5689 93.0751C51.8377 90.5018 52.1098 87.9508 52.3852 85.3775C52.3868 85.3487 52.3948 85.3206 52.4089 85.2953C52.4229 85.27 52.4424 85.248 52.4661 85.231C52.489 85.2128 52.5156 85.1997 52.5441 85.1926C52.5727 85.1854 52.6024 85.1844 52.6313 85.1896L52.8095 85.2183C52.8387 85.2221 52.8683 85.2201 52.8967 85.2124C52.9251 85.2048 52.9516 85.1916 52.9747 85.1737C52.9985 85.1566 53.0184 85.1347 53.0329 85.1094C53.0474 85.0841 53.0563 85.0561 53.0589 85.0272C53.1367 84.2979 53.2112 83.5813 53.2922 82.8488C53.5643 80.2023 59.816 81.1195 59.5504 83.766C59.4759 84.5113 59.4079 85.2374 59.3301 85.9763C59.3248 86.0285 59.3389 86.0809 59.3699 86.1237C59.4009 86.1664 59.4466 86.1967 59.4986 86.2087L59.7577 86.2629C59.8101 86.273 59.8567 86.3023 59.888 86.3449C59.9193 86.3874 59.9329 86.4401 59.9262 86.4922C59.6735 89.075 59.4144 91.6356 59.1649 94.1993C58.9835 96.0401 58.8054 97.8618 58.624 99.6803C58.6191 99.7335 58.6347 99.7866 58.6677 99.829C58.7007 99.8715 58.7486 99.9002 58.8021 99.9096C59.6541 100.059 60.5028 100.228 61.3514 100.387C61.3812 100.394 61.4119 100.394 61.4416 100.387C61.4713 100.38 61.4991 100.367 61.5231 100.349C61.5476 100.332 61.5681 100.309 61.5832 100.283C61.5983 100.258 61.6076 100.229 61.6106 100.199C61.7855 98.4159 61.9572 96.6293 62.1321 94.8235C62.375 92.298 62.6148 89.7279 62.8674 87.2056C62.871 87.1758 62.8809 87.147 62.8965 87.1212C62.9121 87.0954 62.9331 87.0732 62.9581 87.0559C62.9819 87.0372 63.0099 87.0243 63.0397 87.0183C63.0695 87.0122 63.1004 87.0131 63.1298 87.0209L63.2756 87.0495C63.3055 87.0566 63.3368 87.0572 63.367 87.0511C63.3972 87.0451 63.4257 87.0326 63.4505 87.0145C63.4754 86.9967 63.4961 86.9738 63.5112 86.9475C63.5263 86.9211 63.5354 86.8918 63.5379 86.8616C63.6092 86.1387 63.6772 85.4285 63.7485 84.6992C63.9979 82.0718 69.2034 83.4253 68.9702 86.0559C68.8989 86.7863 68.8331 87.5166 68.7726 88.247C68.7673 88.2945 68.779 88.3424 68.8055 88.3825C68.8321 88.4225 68.872 88.4523 68.9184 88.4667L69.2066 88.5591C69.2536 88.5741 69.2939 88.6043 69.321 88.6449C69.348 88.6854 69.3603 88.7338 69.3557 88.782C69.1224 91.3298 68.8914 93.8776 68.6625 96.4255C68.4908 98.228 68.3385 100.034 68.1701 101.817C68.1652 101.866 68.1781 101.916 68.2066 101.957C68.235 101.997 68.2771 102.027 68.3256 102.04C68.9313 102.215 69.5273 102.387 70.1104 102.569C70.1415 102.58 70.1748 102.583 70.2075 102.579C70.2403 102.574 70.2714 102.562 70.2983 102.543C70.3257 102.527 70.3485 102.504 70.3649 102.477C70.3813 102.45 70.3906 102.419 70.3922 102.387C70.5509 100.633 70.7161 98.8586 70.8716 97.0815C71.0951 94.5687 71.3154 92.0719 71.5195 89.5559C71.5217 89.5238 71.5314 89.4927 71.5478 89.4649C71.5643 89.437 71.587 89.4133 71.6142 89.3954C71.6414 89.3776 71.6724 89.3661 71.7049 89.3619C71.7373 89.3577 71.7703 89.3609 71.8013 89.3712L71.9082 89.4062C71.9393 89.4173 71.9726 89.4207 72.0053 89.4163C72.038 89.4118 72.0692 89.3997 72.0961 89.3808C72.1235 89.364 72.1466 89.3412 72.1635 89.3141C72.1803 89.287 72.1905 89.2564 72.1932 89.2247C72.2645 88.5273 72.3261 87.8298 72.3844 87.1323C72.6144 84.5495 76.8092 86.0941 76.5954 88.6546C76.5306 89.3903 76.4691 90.1037 76.4043 90.8394C76.4005 90.8838 76.411 90.9283 76.4342 90.9665C76.4575 91.0048 76.4923 91.035 76.5339 91.0528L76.874 91.1993C76.9162 91.2162 76.9516 91.2462 76.975 91.2847C76.9983 91.3232 77.0084 91.3681 77.0035 91.4126C76.7865 93.9222 76.5727 96.4318 76.3557 98.9223C76.197 100.779 76.0318 102.639 75.8828 104.499C75.878 104.543 75.888 104.588 75.9114 104.627C75.9347 104.665 75.9702 104.695 76.0123 104.712C76.3589 104.862 76.7055 105.031 77.0359 105.184C77.0674 105.2 77.1024 105.209 77.138 105.209C77.1736 105.209 77.2086 105.2 77.24 105.184C77.2714 105.167 77.298 105.143 77.3173 105.113C77.3365 105.084 77.3478 105.05 77.3502 105.015C77.5056 103.187 77.6579 101.359 77.8069 99.5306C78.0142 97.0911 78.2086 94.6484 78.4191 92.1897C78.4213 92.1555 78.4323 92.1224 78.451 92.0935C78.4697 92.0645 78.4955 92.0406 78.526 92.0241C78.5565 92.0085 78.5904 92.0003 78.6248 92.0003C78.6592 92.0003 78.6931 92.0085 78.7236 92.0241L78.7819 92.0496C78.8124 92.0652 78.8463 92.0734 78.8807 92.0734C78.9151 92.0734 78.949 92.0652 78.9795 92.0496C79.0097 92.0319 79.0352 92.0073 79.0538 91.978C79.0724 91.9486 79.0836 91.9153 79.0864 91.8808C79.1415 91.2184 79.1933 90.5528 79.2516 89.8871C79.4589 87.3393 82.669 88.7916 82.4682 91.3075C82.4066 92.0209 82.3516 92.7375 82.2997 93.4509C82.2952 93.495 82.305 93.5394 82.3277 93.5777C82.3504 93.6161 82.3848 93.6463 82.4261 93.6643L82.7694 93.8108C82.8107 93.828 82.8455 93.8576 82.8687 93.8953C82.892 93.933 82.9026 93.977 82.899 94.021C82.7079 96.4669 82.5135 98.9127 82.3127 101.378C82.1378 103.591 81.9661 105.779 81.7847 107.967C81.7819 108.001 81.7875 108.036 81.801 108.067C81.8145 108.099 81.8356 108.127 81.8624 108.149C82.4584 108.631 83.0012 109.173 83.4821 109.766C83.5089 109.804 83.5225 109.85 83.5208 109.896C83.519 109.942 83.5021 109.987 83.4725 110.022C83.4429 110.058 83.4023 110.084 83.3567 110.095C83.3111 110.106 83.263 110.103 83.2197 110.085L83.2294 110.072ZM77.9073 179.054C65.8152 176.54 53.5972 174.652 41.3037 173.398C29.0172 172.111 16.6705 171.461 4.31453 171.449C4.26719 171.448 4.2215 171.431 4.18442 171.402C4.14734 171.374 4.12092 171.333 4.10918 171.288C4.09743 171.243 4.10101 171.196 4.11937 171.153C4.13774 171.11 4.16987 171.074 4.21087 171.051C4.81595 170.736 5.45774 170.496 6.12204 170.334C6.16326 170.323 6.20022 170.3 6.22841 170.268C6.2566 170.236 6.27479 170.197 6.28076 170.156C6.58093 167.901 6.88326 165.645 7.18775 163.388C7.51168 160.923 7.83561 158.48 8.17573 156.019C8.18203 155.967 8.20721 155.92 8.24656 155.885C8.28592 155.85 8.33674 155.831 8.38952 155.831C8.49318 155.831 8.59683 155.831 8.71345 155.831C8.76424 155.829 8.81269 155.809 8.85009 155.775C8.88749 155.741 8.9114 155.696 8.91752 155.646C9.0147 154.942 9.1054 154.242 9.20257 153.538C9.5265 151.012 13.0897 150.878 12.7658 153.429C12.6848 154.13 12.5973 154.815 12.5034 155.512C12.4986 155.543 12.5007 155.574 12.5095 155.603C12.5183 155.633 12.5336 155.66 12.5543 155.683C12.575 155.706 12.6006 155.725 12.6293 155.737C12.658 155.749 12.6891 155.755 12.7204 155.754H12.8921C12.9237 155.753 12.9553 155.758 12.9845 155.77C13.0136 155.783 13.0396 155.801 13.0605 155.824C13.0819 155.847 13.0979 155.873 13.1074 155.903C13.1169 155.932 13.1197 155.963 13.1156 155.993C12.7982 158.458 12.4742 160.923 12.1438 163.388C11.8847 165.333 11.6288 167.279 11.3761 169.226C11.3721 169.258 11.3755 169.29 11.3862 169.32C11.3969 169.351 11.4145 169.378 11.4377 169.401C11.4599 169.424 11.4872 169.442 11.5176 169.453C11.5479 169.464 11.5804 169.468 11.6126 169.465C11.9948 169.426 12.39 169.401 12.7884 169.375C12.8387 169.373 12.8863 169.353 12.9231 169.319C12.9598 169.285 12.9832 169.24 12.9893 169.191C13.2355 167.259 13.4849 165.327 13.7375 163.395C14.0615 160.885 14.3854 158.394 14.7093 155.885C14.7171 155.834 14.7432 155.787 14.783 155.753C14.8228 155.719 14.8737 155.7 14.9263 155.7H15.2244C15.2772 155.701 15.3284 155.682 15.3684 155.648C15.4083 155.614 15.4343 155.567 15.4414 155.515C15.5386 154.796 15.6325 154.073 15.7232 153.353C16.0471 150.805 20.6501 150.78 20.3262 153.353C20.242 154.076 20.1545 154.783 20.0638 155.487C20.0602 155.517 20.063 155.547 20.072 155.575C20.0811 155.604 20.0962 155.631 20.1164 155.653C20.1365 155.676 20.1613 155.694 20.1891 155.706C20.2169 155.719 20.2471 155.725 20.2776 155.726H20.472C20.5025 155.726 20.5325 155.733 20.5602 155.746C20.5879 155.758 20.6127 155.777 20.633 155.799C20.6534 155.821 20.6688 155.848 20.6784 155.876C20.6881 155.904 20.6917 155.935 20.689 155.964C20.3651 158.484 20.0671 161 19.7528 163.493C19.5229 165.315 19.2961 167.133 19.0726 168.936C19.0692 168.966 19.0723 168.997 19.0818 169.026C19.0913 169.055 19.1069 169.082 19.1277 169.105C19.1482 169.128 19.1737 169.146 19.2023 169.158C19.2308 169.17 19.2618 169.176 19.2929 169.175C19.9407 169.175 20.5886 169.175 21.2623 169.175C21.3157 169.175 21.3673 169.156 21.4073 169.122C21.4474 169.087 21.473 169.039 21.4794 168.987C21.7029 167.194 21.9296 165.398 22.1499 163.573C22.4544 161.044 22.7686 158.493 23.0763 155.964C23.0828 155.911 23.1099 155.861 23.152 155.826C23.1941 155.792 23.2481 155.774 23.3031 155.777H23.5881C23.6417 155.778 23.6937 155.759 23.7339 155.724C23.7741 155.689 23.7995 155.641 23.8052 155.589C23.8991 154.85 23.9833 154.127 24.0773 153.407C24.385 150.808 30.0375 151.009 29.7265 153.627C29.6423 154.337 29.5516 155.066 29.4674 155.78C29.4632 155.809 29.4653 155.838 29.4737 155.866C29.4821 155.894 29.4965 155.92 29.516 155.942C29.5341 155.965 29.5571 155.984 29.5834 155.997C29.6097 156.01 29.6387 156.018 29.6682 156.019H29.8917C29.9213 156.02 29.9502 156.027 29.9765 156.04C30.0029 156.053 30.0259 156.072 30.044 156.095C30.063 156.117 30.0772 156.142 30.0855 156.17C30.0939 156.197 30.0963 156.226 30.0926 156.254C29.7989 158.802 29.5009 161.35 29.1985 163.898C28.988 165.656 28.7936 167.42 28.5863 169.159C28.5821 169.188 28.5843 169.217 28.5926 169.245C28.601 169.273 28.6154 169.299 28.6349 169.321C28.653 169.344 28.676 169.363 28.7023 169.376C28.7287 169.389 28.7576 169.397 28.7871 169.398C29.7039 169.452 30.6238 169.49 31.5502 169.563C31.6066 169.567 31.6623 169.549 31.7057 169.514C31.7491 169.478 31.7769 169.427 31.7835 169.372C31.9843 167.627 32.1884 165.869 32.386 164.089C32.671 161.541 32.9723 158.955 33.267 156.401C33.2735 156.347 33.3004 156.297 33.3425 156.262C33.3845 156.226 33.4385 156.208 33.4938 156.21H33.7756C33.8307 156.211 33.8844 156.192 33.9262 156.157C33.9681 156.122 33.9952 156.072 34.0024 156.019C34.0769 155.296 34.1578 154.557 34.2518 153.818C34.5466 151.197 41.2162 151.748 40.9279 154.372C40.848 155.105 40.7692 155.839 40.6914 156.576C40.6881 156.604 40.6907 156.633 40.699 156.66C40.7074 156.688 40.7213 156.713 40.74 156.735C40.7597 156.757 40.7836 156.775 40.8103 156.787C40.837 156.8 40.8659 156.807 40.8955 156.808H41.1125C41.1421 156.809 41.171 156.817 41.1973 156.83C41.2237 156.843 41.2467 156.862 41.2648 156.885C41.2842 156.906 41.2989 156.932 41.3078 156.959C41.3167 156.987 41.3197 157.015 41.3166 157.044C41.0413 159.617 40.7659 162.191 40.4841 164.738C40.2898 166.503 40.1019 168.242 39.914 169.993C39.9091 170.051 39.9264 170.107 39.9626 170.153C40.0003 170.196 40.0537 170.224 40.1116 170.229C41.1309 170.314 42.1502 170.42 43.1695 170.547C43.1981 170.551 43.2272 170.549 43.255 170.541C43.2828 170.534 43.3088 170.521 43.3314 170.503C43.3545 170.485 43.3736 170.463 43.3876 170.438C43.4015 170.413 43.41 170.385 43.4124 170.356C43.597 168.614 43.7784 166.853 43.9663 165.102C44.2384 162.554 44.5073 159.977 44.7826 157.407C44.7846 157.378 44.7929 157.351 44.8069 157.325C44.8209 157.3 44.8402 157.278 44.8636 157.261C44.8901 157.252 44.9181 157.249 44.9459 157.251C44.9737 157.253 45.0008 157.261 45.0256 157.273L45.2426 157.308C45.2718 157.312 45.3015 157.311 45.3299 157.303C45.3583 157.295 45.3848 157.282 45.4078 157.264C45.4316 157.247 45.4515 157.225 45.466 157.2C45.4805 157.174 45.4894 157.146 45.492 157.117L45.7252 154.917C46.0006 152.292 52.6378 153.114 52.3722 155.738C52.3009 156.477 52.2297 157.219 52.1519 157.942C52.1471 157.996 52.163 158.05 52.1966 158.093C52.2302 158.136 52.279 158.165 52.3333 158.175L52.6119 158.219C52.6658 158.228 52.7142 158.256 52.7473 158.299C52.7805 158.342 52.7957 158.395 52.7901 158.449C52.5342 160.996 52.2815 163.592 52.0288 166.152C51.8539 167.923 51.6725 169.694 51.5009 171.442C51.4961 171.497 51.513 171.552 51.5479 171.595C51.5828 171.638 51.6332 171.667 51.6887 171.675C52.6119 171.796 53.5221 171.946 54.4259 172.079C54.4551 172.084 54.485 172.083 54.5135 172.075C54.542 172.067 54.5685 172.053 54.5911 172.035C54.6149 172.018 54.6348 171.996 54.6493 171.97C54.6638 171.945 54.6727 171.917 54.6753 171.888C54.8405 170.143 55.0154 168.385 55.1871 166.614C55.4333 164.066 55.6784 161.519 55.9224 158.971C55.924 158.942 55.9321 158.913 55.9461 158.887C55.96 158.861 55.9796 158.839 56.0034 158.821C56.0262 158.803 56.0528 158.79 56.0813 158.782C56.1099 158.775 56.1397 158.774 56.1686 158.78L56.3857 158.812C56.4153 158.816 56.4457 158.815 56.4748 158.807C56.5038 158.8 56.5309 158.786 56.5541 158.767C56.5775 158.75 56.5968 158.728 56.6108 158.702C56.6248 158.677 56.633 158.649 56.6351 158.621C56.6999 157.904 56.7711 157.175 56.8456 156.461C57.0951 153.837 62.6601 154.796 62.4204 157.401C62.3556 158.124 62.2941 158.847 62.2228 159.586C62.2171 159.64 62.2328 159.694 62.2665 159.737C62.3002 159.78 62.3495 159.809 62.4042 159.818L62.6763 159.859C62.7304 159.868 62.7792 159.896 62.8128 159.939C62.8465 159.982 62.8625 160.035 62.8577 160.089C62.6245 162.637 62.388 165.184 62.1548 167.732C61.9928 169.554 61.8308 171.356 61.6656 173.146C61.6614 173.199 61.6768 173.251 61.709 173.293C61.7412 173.336 61.788 173.365 61.8406 173.376C62.4884 173.5 63.1363 173.637 63.7841 173.777C63.8141 173.785 63.8454 173.786 63.8758 173.779C63.9061 173.773 63.9346 173.76 63.959 173.742C63.9844 173.724 64.0055 173.702 64.0207 173.675C64.0358 173.649 64.0447 173.619 64.0465 173.589C64.2117 171.78 64.3704 169.952 64.5324 168.127C64.7527 165.621 64.9794 163.095 65.2094 160.57C65.212 160.54 65.2211 160.511 65.2362 160.485C65.2513 160.459 65.272 160.437 65.2969 160.42C65.3215 160.402 65.3499 160.389 65.3801 160.382C65.4103 160.375 65.4415 160.375 65.4718 160.382L65.6629 160.42C65.6929 160.426 65.7238 160.426 65.7536 160.419C65.7835 160.412 65.8115 160.4 65.836 160.381C65.8605 160.363 65.8808 160.34 65.8956 160.314C65.9104 160.288 65.9194 160.259 65.922 160.229L66.1067 158.111C66.3367 155.506 70.8328 156.468 70.6222 159.031C70.5574 159.754 70.4959 160.48 70.4376 161.203C70.4333 161.255 70.4484 161.307 70.48 161.348C70.5116 161.39 70.5575 161.419 70.6092 161.43L70.9073 161.5C70.9566 161.512 70.9999 161.541 71.0291 161.582C71.0583 161.623 71.0714 161.673 71.066 161.723C70.8457 164.226 70.6481 166.732 70.4181 169.254C70.2626 171.197 70.0942 173.14 69.9322 175.079C69.9268 175.129 69.9399 175.179 69.9691 175.22C69.9983 175.261 70.0416 175.29 70.091 175.302C70.4732 175.407 70.8522 175.516 71.2215 175.621C71.2527 175.629 71.2854 175.631 71.3174 175.626C71.3493 175.621 71.3797 175.609 71.4065 175.591C71.4333 175.573 71.4559 175.55 71.4726 175.522C71.4893 175.495 71.4998 175.465 71.5033 175.433C71.6653 173.477 71.8283 171.522 71.9924 169.567C72.1997 167.092 72.4006 164.614 72.6111 162.14C72.6142 162.109 72.6239 162.079 72.6395 162.052C72.6551 162.025 72.6764 162.002 72.7018 161.984C72.7279 161.966 72.7575 161.953 72.7887 161.947C72.82 161.941 72.8522 161.942 72.8832 161.949L73.0484 161.99C73.0786 161.997 73.11 161.997 73.1402 161.99C73.1704 161.984 73.1988 161.97 73.2233 161.952C73.2497 161.935 73.2715 161.912 73.2867 161.884C73.3019 161.857 73.3102 161.827 73.3108 161.796C73.3691 161.095 73.4274 160.407 73.4792 159.703C73.6963 157.156 77.1526 157.996 76.942 160.538C76.8902 161.242 76.8286 161.945 76.7638 162.649C76.7582 162.7 76.771 162.751 76.8001 162.793C76.8292 162.835 76.8727 162.865 76.9226 162.879L77.2465 162.952C77.2982 162.962 77.3442 162.991 77.3758 163.033C77.4074 163.075 77.4225 163.126 77.4182 163.178C77.2141 165.652 77.0262 168.111 76.8254 170.589L76.2812 177.395C76.2779 177.436 76.2873 177.478 76.308 177.514C76.3288 177.55 76.36 177.58 76.3978 177.599C77.0086 177.898 77.5834 178.263 78.1114 178.688C78.1465 178.719 78.1702 178.761 78.1789 178.808C78.1876 178.854 78.1808 178.901 78.1597 178.943C78.1385 178.985 78.104 179.019 78.0614 179.041C78.0188 179.062 77.9704 179.069 77.9235 179.06L77.9073 179.054ZM79.6857 155.974C68.6527 152.901 56.3014 150.649 43.8724 149.362C31.4433 148.076 18.8621 147.77 7.44366 148.512C7.39545 148.517 7.34702 148.505 7.30631 148.48C7.2656 148.454 7.23503 148.415 7.21959 148.37C7.20416 148.325 7.20478 148.276 7.22136 148.231C7.23794 148.186 7.26949 148.148 7.31085 148.124C7.9116 147.748 8.55663 147.445 9.23173 147.222C9.26943 147.21 9.30276 147.187 9.32795 147.156C9.35313 147.126 9.36917 147.089 9.37426 147.05C9.67227 144.821 9.97352 142.592 10.2748 140.362C10.6052 137.914 10.9291 135.466 11.2465 133.018C11.2523 132.97 11.2749 132.926 11.3103 132.892C11.3457 132.858 11.3918 132.838 11.4409 132.834L11.7648 132.799C11.8139 132.794 11.8601 132.774 11.8955 132.74C11.9309 132.707 11.9534 132.662 11.9592 132.614C12.0499 131.91 12.1471 131.206 12.241 130.502C12.5649 127.977 16.0892 127.658 15.7556 130.209C15.6681 130.888 15.5742 131.582 15.4867 132.264C15.4823 132.295 15.485 132.326 15.4946 132.356C15.5042 132.386 15.5204 132.413 15.5422 132.436C15.5639 132.459 15.5906 132.477 15.6202 132.488C15.6498 132.5 15.6817 132.505 15.7135 132.502H15.8593C15.8914 132.499 15.9239 132.503 15.9543 132.514C15.9846 132.525 16.012 132.543 16.0342 132.566C16.0559 132.59 16.0723 132.617 16.0823 132.648C16.0924 132.678 16.0958 132.71 16.0925 132.741C15.7686 135.203 15.4446 137.665 15.1207 140.104C14.8713 142.015 14.6219 143.926 14.3757 145.818C14.3709 145.85 14.3739 145.883 14.3846 145.914C14.3953 145.945 14.4133 145.973 14.4372 145.996C14.4611 146.02 14.4902 146.037 14.5223 146.048C14.5543 146.058 14.5884 146.061 14.6219 146.057C14.9944 146.003 15.3734 145.958 15.7686 145.92C15.8168 145.914 15.8619 145.893 15.8966 145.86C15.9312 145.826 15.9534 145.782 15.9597 145.735C16.2091 143.843 16.452 141.929 16.7015 140.018C17.0254 137.525 17.3493 135.031 17.6732 132.537C17.6784 132.489 17.7008 132.444 17.7363 132.41C17.7718 132.377 17.8183 132.356 17.8676 132.353L18.1915 132.318C18.2406 132.314 18.2868 132.293 18.3222 132.259C18.3576 132.226 18.3801 132.181 18.3859 132.133C18.4766 131.426 18.577 130.703 18.6677 129.977C18.9916 127.429 23.5266 127.193 23.2027 129.789C23.1152 130.493 23.031 131.197 22.9435 131.9C22.9399 131.93 22.9426 131.96 22.9516 131.989C22.9605 132.017 22.9754 132.044 22.9953 132.066C23.0154 132.089 23.0402 132.107 23.0682 132.12C23.0961 132.133 23.1265 132.139 23.1573 132.139H23.3355C23.3663 132.139 23.3969 132.145 23.4249 132.158C23.4529 132.171 23.4777 132.189 23.4974 132.213C23.5187 132.234 23.5347 132.26 23.5442 132.289C23.5537 132.318 23.5566 132.348 23.5525 132.378C23.2286 134.875 22.9241 137.388 22.6196 139.885C22.3896 141.681 22.1693 143.477 21.9458 145.273C21.941 145.304 21.9434 145.336 21.953 145.366C21.9625 145.395 21.9789 145.423 22.0009 145.445C22.0225 145.467 22.0487 145.485 22.0778 145.497C22.1068 145.508 22.138 145.513 22.1693 145.512C22.8172 145.49 23.4391 145.48 24.0935 145.474C24.1464 145.474 24.1976 145.455 24.2371 145.42C24.2766 145.386 24.3016 145.338 24.3072 145.286C24.5308 143.49 24.7478 141.694 24.9551 139.872C25.2661 137.337 25.5803 134.803 25.8977 132.27C25.9033 132.218 25.9283 132.17 25.9678 132.135C26.0073 132.101 26.0585 132.082 26.1115 132.082H26.3998C26.4506 132.08 26.4991 132.06 26.5365 132.027C26.5739 131.993 26.5978 131.947 26.6039 131.897C26.6946 131.171 26.782 130.445 26.8727 129.719C27.1967 127.101 32.7488 127.152 32.4378 129.773C32.3536 130.502 32.2758 131.213 32.1884 131.939C32.1842 131.968 32.1863 131.997 32.1947 132.025C32.2031 132.053 32.2175 132.079 32.237 132.101C32.256 132.124 32.2797 132.142 32.3064 132.156C32.3332 132.169 32.3625 132.176 32.3924 132.178H32.5933C32.6227 132.179 32.6515 132.187 32.6779 132.199C32.7043 132.212 32.7277 132.23 32.7468 132.252C32.7659 132.274 32.7802 132.3 32.7889 132.328C32.7976 132.355 32.8005 132.384 32.7974 132.413C32.5037 134.961 32.2067 137.509 31.9066 140.057C31.6992 141.84 31.4887 143.601 31.2846 145.362C31.2808 145.392 31.2835 145.421 31.2925 145.449C31.3014 145.477 31.3164 145.503 31.3364 145.525C31.3559 145.547 31.3797 145.565 31.4065 145.577C31.4332 145.59 31.4623 145.597 31.4919 145.598C32.3892 145.633 33.2897 145.668 34.1967 145.722C34.2527 145.726 34.308 145.708 34.3509 145.672C34.3938 145.637 34.421 145.586 34.4267 145.531C34.6308 143.76 34.8316 141.967 35.0357 140.178C35.3272 137.63 35.6285 135.082 35.9265 132.496C35.9322 132.442 35.9591 132.392 36.0013 132.357C36.0436 132.322 36.0981 132.305 36.1532 132.308H36.4156C36.47 132.309 36.5228 132.29 36.5636 132.255C36.6044 132.219 36.6302 132.17 36.6359 132.117C36.7169 131.378 36.8076 130.655 36.8853 129.913C37.1898 127.292 43.7396 127.763 43.448 130.41L43.2148 132.601C43.2117 132.63 43.2146 132.659 43.2233 132.687C43.232 132.714 43.2463 132.74 43.2654 132.762C43.2845 132.784 43.3079 132.802 43.3343 132.815C43.3607 132.828 43.3895 132.835 43.4189 132.837L43.6359 132.856C43.6645 132.859 43.6922 132.867 43.7175 132.88C43.7427 132.894 43.7651 132.912 43.7831 132.934C43.8012 132.956 43.8147 132.981 43.8228 133.008C43.8309 133.035 43.8334 133.063 43.8303 133.092C43.5485 135.662 43.2666 138.216 42.9913 140.789C42.8002 142.579 42.6123 144.346 42.4147 146.114C42.4112 146.142 42.4138 146.17 42.4221 146.197C42.4305 146.224 42.4445 146.249 42.4633 146.27C42.4809 146.292 42.5029 146.311 42.528 146.324C42.553 146.338 42.5806 146.347 42.6091 146.35L45.6119 146.668C45.6404 146.671 45.6693 146.669 45.6968 146.661C45.7243 146.653 45.75 146.64 45.7723 146.622C45.7946 146.604 45.8131 146.582 45.8267 146.557C45.8403 146.532 45.8488 146.505 45.8516 146.477C46.0395 144.71 46.2144 142.942 46.4055 141.152C46.6743 138.576 46.9529 136.025 47.2283 133.451C47.2307 133.423 47.2388 133.396 47.2521 133.37C47.2655 133.345 47.2838 133.323 47.306 133.305C47.3522 133.27 47.4102 133.254 47.468 133.26C47.5392 133.26 47.6073 133.26 47.6753 133.289C47.7044 133.293 47.7341 133.291 47.7625 133.283C47.7909 133.276 47.8175 133.262 47.8405 133.244C47.8643 133.227 47.8842 133.205 47.8987 133.18C47.9132 133.155 47.9221 133.127 47.9247 133.098L48.1579 130.907C48.4333 128.283 54.9409 129.136 54.6753 131.76C54.6041 132.502 54.5263 133.244 54.4551 133.971C54.4492 134.023 54.4636 134.076 54.4954 134.118C54.5272 134.161 54.5741 134.19 54.6267 134.2C54.7174 134.219 54.8114 134.235 54.9053 134.248C54.9597 134.257 55.0085 134.286 55.0421 134.329C55.0757 134.372 55.0916 134.426 55.0867 134.48C54.8243 137.06 54.5684 139.614 54.319 142.171C54.1408 143.967 53.9627 145.76 53.791 147.538C53.7854 147.591 53.8011 147.645 53.8349 147.688C53.8687 147.731 53.918 147.759 53.9724 147.767C54.8697 147.901 55.7605 148.05 56.6383 148.2C56.6678 148.205 56.6981 148.204 56.7271 148.197C56.7562 148.19 56.7834 148.177 56.8072 148.159C56.8309 148.141 56.8506 148.118 56.865 148.092C56.8794 148.067 56.8883 148.038 56.891 148.009C57.0627 146.248 57.2441 144.483 57.4125 142.697C57.6565 140.149 57.9005 137.601 58.1446 135.053C58.1473 135.024 58.1561 134.996 58.1705 134.97C58.185 134.944 58.2047 134.921 58.2284 134.903C58.2521 134.886 58.2794 134.873 58.3084 134.866C58.3375 134.858 58.3677 134.857 58.3972 134.862L58.6045 134.894C58.6338 134.899 58.6637 134.897 58.6924 134.89C58.7211 134.882 58.7479 134.869 58.7713 134.852C58.7946 134.834 58.814 134.811 58.8283 134.786C58.8425 134.76 58.8512 134.732 58.854 134.703C58.922 133.977 58.9868 133.264 59.058 132.534C59.3139 129.907 64.7591 130.993 64.5194 133.617C64.4417 134.343 64.3769 135.072 64.3154 135.799C64.3105 135.849 64.3238 135.899 64.3528 135.94C64.3818 135.981 64.4248 136.011 64.4741 136.025L64.7624 136.092C64.8147 136.102 64.8611 136.132 64.8928 136.174C64.9245 136.216 64.9392 136.269 64.9341 136.321C64.7008 138.869 64.4698 141.41 64.2409 143.945C64.0757 145.77 63.9169 147.573 63.7453 149.359C63.7407 149.411 63.7552 149.463 63.7861 149.505C63.8171 149.547 63.8623 149.577 63.9137 149.589C64.5615 149.729 65.1802 149.869 65.7957 150.019C65.8259 150.027 65.8577 150.029 65.8886 150.023C65.9195 150.018 65.9487 150.005 65.9739 149.987C66.0006 149.97 66.0229 149.947 66.0387 149.92C66.0545 149.892 66.0633 149.862 66.0646 149.831C66.2287 148.028 66.3917 146.223 66.5537 144.417C66.774 141.913 66.9942 139.388 67.221 136.885C67.2235 136.854 67.2326 136.825 67.2477 136.799C67.2628 136.772 67.2835 136.75 67.3084 136.732C67.3329 136.713 67.3613 136.7 67.3916 136.693C67.4218 136.687 67.4531 136.687 67.4834 136.694L67.6583 136.729C67.6878 136.735 67.7183 136.735 67.7479 136.729C67.7774 136.723 67.8054 136.711 67.83 136.694C67.855 136.675 67.8757 136.652 67.8908 136.625C67.9059 136.598 67.9149 136.568 67.9174 136.537L68.1021 134.42C68.3418 131.814 72.7342 132.974 72.5172 135.534C72.4621 136.264 72.3908 136.99 72.3293 137.7C72.3241 137.748 72.3361 137.797 72.3632 137.838C72.3904 137.878 72.4311 137.908 72.4783 137.923L72.8022 138.022C72.8494 138.036 72.8901 138.067 72.9177 138.107C72.9454 138.147 72.9583 138.196 72.9545 138.244C72.7407 140.748 72.5334 143.254 72.3066 145.757C72.1447 147.668 71.9827 149.601 71.8207 151.49C71.8163 151.538 71.8286 151.586 71.8558 151.626C71.8829 151.666 71.9231 151.695 71.9697 151.71C72.3487 151.831 72.7115 151.952 73.0711 152.082C73.1027 152.093 73.1363 152.097 73.1695 152.093C73.2027 152.089 73.2345 152.077 73.2626 152.06C73.2907 152.042 73.3143 152.018 73.3316 151.99C73.349 151.962 73.3596 151.93 73.3626 151.898C73.5213 149.987 73.6865 148.076 73.842 146.165C74.0429 143.716 74.2469 141.241 74.4575 138.77C74.4601 138.738 74.4698 138.707 74.4861 138.68C74.5023 138.652 74.5247 138.629 74.5514 138.611C74.5778 138.592 74.6082 138.58 74.6403 138.575C74.6723 138.57 74.7052 138.572 74.7361 138.582L74.8656 138.62C74.8967 138.629 74.9293 138.631 74.9612 138.626C74.9931 138.621 75.0235 138.609 75.0503 138.592C75.0771 138.574 75.0993 138.55 75.1151 138.523C75.1309 138.495 75.1397 138.464 75.141 138.432C75.1993 137.748 75.2543 137.05 75.3191 136.369C75.52 133.821 78.9018 134.834 78.6944 137.375C78.6394 138.082 78.5875 138.789 78.526 139.496C78.5216 139.545 78.5343 139.593 78.562 139.634C78.5897 139.675 78.6307 139.705 78.6782 139.719L79.0022 139.821C79.0488 139.836 79.0891 139.865 79.1166 139.905C79.1442 139.945 79.1575 139.993 79.1544 140.041C78.9503 142.503 78.7592 144.964 78.5649 147.426C78.3867 149.675 78.2053 151.923 78.0239 154.152C78.0192 154.191 78.0262 154.231 78.044 154.266C78.0619 154.301 78.0898 154.33 78.1243 154.35C78.7358 154.711 79.3041 155.138 79.8185 155.624C79.8528 155.657 79.8746 155.701 79.8805 155.749C79.8863 155.796 79.8759 155.844 79.8509 155.885C79.8325 155.911 79.8079 155.933 79.7792 155.949C79.7504 155.964 79.7184 155.973 79.6857 155.974ZM59.4435 20.5391C59.4435 21.8735 59.7415 22.3735 60.2533 23.5073C60.7943 24.7016 54.5393 24.7079 55.0705 23.5073C55.5823 22.3735 55.8803 21.8767 55.8803 20.5391C55.8933 17.6505 59.4435 17.6505 59.4435 20.5391ZM44.7956 9.01345C44.7081 9.76824 44.6142 10.523 44.5235 11.2778C44.5195 11.3112 44.5235 11.345 44.5354 11.3766C44.5472 11.4081 44.5664 11.4365 44.5915 11.4593C44.6155 11.4824 44.6449 11.4994 44.677 11.5088C44.7092 11.5182 44.7432 11.5198 44.7761 11.5135L44.9316 11.488C44.9646 11.4833 44.9982 11.4863 45.0297 11.4968C45.0613 11.5073 45.0898 11.525 45.113 11.5485C45.1382 11.5705 45.1573 11.5984 45.1686 11.6296C45.1799 11.6607 45.1831 11.6942 45.1778 11.7269C44.8539 14.4339 44.53 17.141 44.206 19.8767C43.9577 21.9998 43.705 24.123 43.448 26.2462C43.444 26.278 43.4475 26.3104 43.4581 26.3408C43.4688 26.3711 43.4864 26.3987 43.5096 26.4213C43.5318 26.4444 43.5592 26.4622 43.5895 26.4733C43.6198 26.4843 43.6523 26.4883 43.6845 26.485C44.6563 26.3927 45.6281 26.3353 46.5998 26.278C46.6508 26.2759 46.6992 26.2557 46.7362 26.2211C46.7731 26.1866 46.796 26.14 46.8007 26.0901C47.0533 23.8608 47.3092 21.6315 47.5716 19.4021C47.8955 16.625 48.2195 13.8702 48.5434 11.1218C48.5491 11.0674 48.5758 11.0173 48.618 10.9818C48.6602 10.9462 48.7147 10.9279 48.7701 10.9307C48.8706 10.9307 48.9677 10.9307 49.0682 10.9307C49.1217 10.9318 49.1737 10.9131 49.2139 10.8783C49.2541 10.8435 49.2795 10.7951 49.2852 10.7428C49.3791 9.93385 49.4731 9.1504 49.5702 8.35739C49.8942 5.5357 56.7841 5.63443 56.4731 8.4816C56.3954 9.25868 56.3047 10.0517 56.2205 10.8288C56.2173 10.8579 56.2203 10.8873 56.2292 10.9153C56.2381 10.9432 56.2528 10.9691 56.2723 10.9912C56.2917 11.0141 56.316 11.0325 56.3434 11.0451C56.3708 11.0578 56.4007 11.0644 56.431 11.0644C57.9286 11.1083 59.4207 11.2627 60.8947 11.5262C60.9239 11.5319 60.9541 11.5315 60.9831 11.5249C61.0121 11.5183 61.0394 11.5057 61.0631 11.488C61.0868 11.47 61.1064 11.4474 61.1209 11.4217C61.1354 11.396 61.1444 11.3676 61.1474 11.3383C61.2316 10.5612 61.3158 9.76506 61.4 8.99116C61.6948 6.12488 68.4551 7.45292 68.183 10.2651C68.0988 11.0517 68.0211 11.8574 67.9433 12.6504C67.9377 12.7043 67.9535 12.7582 67.9873 12.8009C68.021 12.8436 68.0703 12.8718 68.1247 12.8797L68.4098 12.9243C68.4645 12.933 68.5138 12.9619 68.5475 13.0051C68.5812 13.0484 68.5969 13.1026 68.5912 13.1568C68.3277 15.9169 68.0578 18.6771 67.7814 21.4372C67.5579 23.6888 67.3408 25.9404 67.1335 28.1698C67.128 28.2199 67.141 28.2703 67.1701 28.3118C67.1992 28.3534 67.2426 28.3832 67.2922 28.3959C68.2349 28.6507 69.1678 28.9054 70.0845 29.1921C70.1153 29.2016 70.1478 29.2042 70.1797 29.1998C70.2117 29.1954 70.2422 29.1841 70.2691 29.1666C70.2968 29.1493 70.32 29.1259 70.3369 29.0983C70.3538 29.0706 70.3638 29.0395 70.3663 29.0074C70.5639 26.8736 70.7712 24.7398 70.9753 22.606C71.2377 19.8671 71.4968 17.1505 71.7592 14.4371C71.7612 14.404 71.7715 14.372 71.789 14.3437C71.8065 14.3154 71.8307 14.2917 71.8596 14.2747C71.8879 14.2575 71.9198 14.2469 71.9529 14.2436C71.986 14.2402 72.0195 14.2443 72.0507 14.2556L72.1868 14.3097C72.2182 14.3221 72.2521 14.3272 72.2859 14.3244C72.3196 14.3216 72.3522 14.3112 72.3811 14.2938C72.4104 14.2769 72.4352 14.2534 72.4532 14.2251C72.4713 14.1968 72.4821 14.1646 72.4848 14.1314C72.556 13.3734 72.6241 12.6154 72.6986 11.8574C72.9577 9.05167 78.5584 11.2842 78.3155 14.0868C78.2442 14.8861 78.1762 15.6791 78.0984 16.4658C78.0933 16.5116 78.1039 16.5578 78.1286 16.5971C78.1532 16.6363 78.1905 16.6663 78.2345 16.6823L78.6199 16.8384C78.6639 16.8544 78.7012 16.8845 78.7258 16.9237C78.7505 16.9629 78.7611 17.0091 78.756 17.055C78.513 19.7652 78.2669 22.4977 78.0272 25.2302C77.8263 27.4596 77.632 29.7176 77.4344 31.9373C77.4309 31.9801 77.4405 32.0229 77.4618 32.0603C77.4832 32.0977 77.5153 32.1281 77.5542 32.1475C82.5297 34.6603 86.5237 37.8451 88.6455 41.6986C88.6707 41.743 88.6787 41.7949 88.668 41.8447C88.6573 41.8945 88.6285 41.9388 88.5872 41.9693C88.5479 42.0023 88.4979 42.0204 88.4462 42.0204C88.3946 42.0204 88.3446 42.0023 88.3053 41.9693C80.7611 34.8737 68.8698 30.4883 56.7258 29.2303C44.5818 27.9723 32.0167 29.8354 23.1508 35.2367C23.1072 35.2642 23.0549 35.2751 23.0036 35.2675C22.9524 35.2599 22.9057 35.2343 22.8723 35.1953C22.8387 35.1567 22.8203 35.1076 22.8203 35.0568C22.8203 35.006 22.8387 34.9569 22.8723 34.9183C25.7487 31.5743 30.3355 29.2462 35.7678 27.8513C35.8102 27.8407 35.8485 27.8176 35.8774 27.7852C35.9063 27.7528 35.9245 27.7126 35.9297 27.6698C36.2018 25.4404 36.4772 23.2111 36.759 20.9818C37.1002 18.2599 37.4392 15.5443 37.7761 12.8352C37.7815 12.7901 37.8013 12.7479 37.8328 12.7147C37.8643 12.6814 37.9057 12.6589 37.951 12.6504L38.3656 12.5804C38.4115 12.5717 38.4532 12.5488 38.4847 12.5149C38.5163 12.4811 38.5358 12.4381 38.5406 12.3925C38.6345 11.5963 38.7317 10.8192 38.8321 10.023C39.1949 7.27139 45.1357 6.21405 44.7956 9.01345Z" fill="white"/>
</g>
<defs>
<clipPath id="clip0_2561_66243">
<rect width="89" height="217" fill="white"/>
</clipPath>
</defs>
</svg>
