<svg width="101" height="100" viewBox="0 0 101 100" fill="none" xmlns="http://www.w3.org/2000/svg">
<path d="M91.7543 70.6629C90.8506 66.7643 89.585 62.9035 86.8028 59.7461C84.5532 57.1953 83.794 54.1422 84.4757 50.7684C84.6407 49.9501 84.7122 49.1094 84.8613 48.2884C85.5159 44.693 85.7028 43.3487 86.6129 40.3725C88.156 40.5917 89.4857 40.8785 90.8292 40.9528C94.5833 41.168 97.6883 40.1326 99.477 36.439C100.255 34.8319 100.301 34.4135 99.1319 33.1503C97.6191 31.5162 96.1628 29.8325 94.671 28.1793C93.7576 27.164 93.4789 25.9946 93.7761 24.6824C93.9641 23.8661 94.287 23.0711 94.3859 22.2478C94.6576 19.9929 94.6393 17.6333 93.2889 15.7895C91.8436 13.8205 90.4335 11.5655 87.5926 11.1978C87.1966 11.1475 86.7584 10.9415 86.4691 10.6668C84.0614 8.38545 80.8566 7.63598 78.0167 6.18593C75.5956 4.94809 73.1604 4.24272 70.3698 4.91227C68.3257 5.40257 66.0982 5.45804 64.2702 4.22709C60.8906 1.94979 56.9698 1.61932 53.1826 0.737697C50.7551 0.17148 48.9279 1.13336 47.8217 3.02631C46.6446 5.04177 45.4647 7.29448 45.2072 9.54795C44.9003 12.2217 43.5882 13.9332 41.7376 15.4513C40.2309 16.6863 38.5629 17.7298 36.9921 18.8925C35.769 19.7974 34.5569 20.7269 33.8885 22.2163C34.8399 24.8055 37.6905 25.5107 38.8751 27.3963C37.5413 30.8632 36.3121 34.1114 35.0425 37.3408C34.1267 39.6679 32.4817 41.3331 30.1666 42.2536C28.1003 43.0759 26.0171 43.8712 23.8925 44.5178C18.0585 46.2839 12.5854 48.5634 8.96919 53.8656C8.50556 54.5485 7.82157 55.0787 7.24479 55.6841C3.04856 60.0958 0.321918 65.1035 0.831228 71.4345C0.876348 71.9898 0.81356 72.5512 0.797312 73.1067C0.638208 79.2282 2.26519 84.9815 4.48169 90.6006C4.78276 91.3667 5.21021 92.1405 5.76224 92.741C8.28606 95.4994 10.3401 98.7886 14.3914 100.231C14.5551 103.328 15.4615 105.866 17.5371 107.665C22.4083 111.888 27.6208 115.596 33.9423 117.439C35.6726 117.941 37.376 118.593 39.0135 119.346C45.8652 122.509 52.9854 122.957 60.2872 121.518C61.9405 121.194 63.6237 120.633 64.6064 119.176C65.4878 117.867 66.7572 117.559 68.0873 117.11C72.7495 115.54 77.191 113.562 80.5353 109.745C80.9905 109.225 81.5422 108.774 82.0984 108.355C85.0356 106.145 87.4575 103.389 89.4852 100.411C92.5896 95.8546 94.7876 90.8138 94.1149 85.1111C93.5421 80.2639 92.8569 75.4075 91.7543 70.6629ZM92.3679 29.5198C93.3485 30.8469 94.5395 32.0167 95.6107 33.2765C97.4072 35.3942 96.9688 37.4896 94.4869 38.649C92.6606 39.5023 90.8156 39.8377 88.8916 38.883C87.1506 38.0191 86.0757 36.7068 86.6111 34.9347C87.2245 32.9067 86.9044 31.2344 86.1067 29.4227C85.8823 28.9176 86.2962 28.1338 86.4062 27.5293C89.0547 26.7335 90.8772 27.5096 92.3679 29.5198ZM76.8542 33.5438C76.4647 34.7422 75.6433 35.4169 74.4894 35.6641C73.4096 35.8956 72.2979 36.0773 71.196 36.1096C69.1043 36.1662 67.235 35.733 66.8683 33.4914C64.7458 32.8314 62.909 32.2609 61.0383 31.6808C60.5441 27.9567 60.188 24.5548 63.383 22.073C69.6988 23.2227 81.7184 26.5905 84.1153 27.9178C83.9153 29.8359 83.3137 31.8685 84.357 33.8735C84.7584 34.6441 83.9133 35.8851 83.0368 36.2254C81.5756 36.7936 80.0982 37.0321 78.5777 36.0726C78.5393 34.5973 78.5002 33.1591 78.4629 31.7251C76.9417 31.7765 77.0844 32.8391 76.8542 33.5438ZM51.7033 3.46764C54.9126 2.59486 57.7685 3.29526 60.6201 4.55572C61.6387 5.00547 62.5803 5.61969 63.5932 6.08426C65.7941 7.09782 68.0843 7.63164 70.5078 7.04898C72.9478 6.45902 75.0427 7.21729 77.333 8.12228C81.1124 9.61712 84.4454 11.9003 88.1242 13.5505C90.8881 14.7909 92.6504 18.1925 92.4359 21.0686C92.2977 22.9322 91.3342 23.8349 89.2046 23.928C89.1244 23.2162 89.1372 22.4483 88.9256 21.7506C88.7819 21.2834 88.3811 20.6968 87.9705 20.5695C87.5658 20.4445 86.9377 20.7407 86.5325 21.0241C86.2291 21.2376 86.1599 21.7625 85.9117 22.0892C84.5491 23.8698 82.8884 24.9298 80.5195 24.2908C75.6828 22.9782 70.8398 21.6904 66.0065 20.3688C65.766 20.3036 65.5836 20.0257 65.149 19.6508C65.3507 19.0203 65.7252 18.2859 65.7807 17.5311C65.8227 16.9174 65.6599 15.9866 65.2541 15.7317C64.8256 15.4648 63.9293 15.6885 63.3676 15.9627C62.6435 16.3139 62.0462 16.9285 61.3802 17.4383C59.8588 16.853 58.3883 16.4098 57.0287 15.7403C53.931 14.2081 53.629 13.6834 53.1186 9.93946C51.7922 9.51091 51.6682 10.9306 50.7524 11.5145C50.3877 11.3742 49.8456 11.261 49.4147 10.9828C47.2994 9.61408 47.1662 9.09301 47.9338 6.903C48.5796 5.04742 49.6877 4.01657 51.7033 3.46764ZM60.3878 22.6638C58.9517 24.8656 57.4687 27.0391 55.9671 29.1987C54.1199 31.8586 51.8755 32.2412 49.2031 30.3381C47.6405 29.2229 46.1283 28.0385 44.184 26.5789C46.2682 22.7812 48.1973 19.2711 50.2532 15.5203C51.1157 15.5525 52.1868 15.2905 52.933 15.6695C55.7278 17.0953 58.9076 17.9714 61.1221 20.8082C60.8814 21.434 60.7435 22.1197 60.3878 22.6638ZM38.1086 23.8841C36.7191 23.2747 36.338 21.9467 37.3362 20.9008C37.8135 20.4035 38.3378 19.9345 38.902 19.5387C41.502 17.7098 44.3116 16.159 46.3682 13.6273C46.5633 13.3857 47.503 13.4034 47.7742 13.6541C48.0765 13.9304 48.1907 14.6689 48.0554 15.1003C47.9047 15.5803 47.45 16.0454 47.009 16.3422C45.7059 17.2162 45.4491 18.5031 45.4727 19.84C43.6616 21.2643 42.2704 22.3939 40.8371 23.4733C40.0231 24.076 39.1254 24.3298 38.1086 23.8841ZM59.1469 119.632C55.885 120.491 52.6569 120.741 49.2441 120.143C45.0848 119.414 41.0442 118.598 37.3021 116.529C36.112 115.87 34.6259 115.768 33.3167 115.295C31.7442 114.728 30.203 114.07 28.6837 113.373C28.2265 113.163 27.8898 112.693 27.5005 112.343C32.3512 112.619 36.8856 113.284 41.204 115.024C42.8556 115.686 44.7009 115.916 46.4785 116.198C50.4678 116.838 54.4722 117.367 58.4609 117.999C58.9132 118.071 59.3051 118.522 59.726 118.799C59.4477 119.213 59.3374 119.579 59.1469 119.632ZM87.7151 99.9408C84.579 104.287 80.6963 107.955 76.677 111.376C74.3038 113.394 71.1023 114.494 68.1718 115.784C66.2944 116.611 64.2985 115.887 62.5034 115.217C61.5599 114.865 60.7478 114.586 59.728 114.67C58.9334 114.736 58.1028 114.488 57.2963 114.327C54.577 113.785 51.9383 113.219 49.1182 114.249C47.1327 114.976 44.9221 114.483 42.9721 113.658C37.3737 111.29 31.3926 110.544 25.5148 109.362C23.7267 109.001 21.94 108.831 20.8356 107.021C20.5333 106.523 19.507 106.51 19.0964 106.028C18.2081 104.992 17.3805 103.86 16.7943 102.64C16.5923 102.219 17.0315 101.298 17.4367 100.838C17.7093 100.527 18.4827 100.464 18.9593 100.579C19.6188 100.741 20.2105 101.176 20.8285 101.499C23.7948 103.046 26.746 104.613 29.7278 106.128C30.4681 106.505 31.2679 106.877 32.0755 106.991C34.5981 107.345 36.9239 108.158 39.1757 109.358C39.9417 109.765 41.0459 109.682 41.9662 109.573C42.2797 109.537 42.6247 108.765 42.715 108.282C42.7582 108.064 42.226 107.491 41.9486 107.486C38.5323 107.428 35.5679 105.621 32.2728 105C30.1904 104.607 28.2156 103.156 26.4059 101.878C23.3888 99.747 19.7168 99.097 16.582 97.2543C16.193 97.0263 15.4876 97.1873 14.9798 97.3392C13.6091 97.7516 12.4397 97.3664 11.5417 96.391C9.93531 94.6461 8.40995 92.8234 6.91561 90.982C6.48608 90.4525 6.21329 89.7722 5.95807 89.1258C3.74432 83.4907 2.57635 77.686 2.50617 71.5852C2.4362 65.7671 4.43029 60.9644 8.33311 56.8109C9.28977 55.7933 10.241 54.7634 11.1356 53.6946C14.5055 49.6698 18.8906 47.4484 23.9099 46.1893C26.4719 45.5476 28.9479 44.5629 31.4711 43.7565C33.1575 43.2137 34.8563 42.7097 36.8539 42.0925C39.5482 38.5227 38.9902 33.5484 40.8054 29.2284C42.7685 28.8159 44.393 29.4783 45.9433 30.4663C47.3579 31.3645 48.7551 32.2902 50.1783 33.1748C51.3041 33.8769 52.5045 34.1549 53.7627 33.5392C54.8327 33.0146 55.8034 33.2349 56.9534 33.4492C60.0225 34.0205 62.7944 35.1073 65.3929 36.822C67.4652 38.1878 69.9254 38.1027 72.2861 38.2585C75.7459 38.4865 79.2113 38.6383 82.589 38.8142C83.5614 40.322 82.9211 41.7031 82.6351 43.0128C82.1871 45.0534 81.4645 47.0292 80.9596 49.0582C80.7321 49.9682 80.3348 51.2044 80.7333 51.8412C82.4484 54.5778 82.577 58.0488 84.797 60.4996C87.3158 63.2799 88.4721 66.7787 89.5958 70.1764C91.3976 75.6257 92.1403 81.3588 92.2084 87.0843C92.2669 91.8085 90.4971 96.0812 87.7151 99.9408Z" fill="white"/>
</svg>
