<svg width="34" height="211" viewBox="0 0 34 211" fill="none" xmlns="http://www.w3.org/2000/svg">
<path fill-rule="evenodd" clip-rule="evenodd" d="M11.1364 62.8588H13.5116V66.4916H11.1364V62.8588ZM15.4378 62.8588H17.8085V66.4916H15.4378V62.8588ZM19.7346 62.8588H22.1098V66.4916H19.7346V62.8588ZM24.036 62.8588H26.4112V66.4916H24.036V62.8588ZM6.83955 62.8588H9.19227V66.4916H6.83955V62.8588ZM15.55 32.661H17.7232V42.5126H15.55V32.661ZM19.4428 32.661H21.5935V42.5126H19.4428V32.661ZM11.6528 32.661H13.8034V42.5126H11.6528V32.661ZM16.6231 71.3265C18.1834 71.3247 19.7091 71.7801 21.0074 72.6349C22.3057 73.4898 23.3182 74.7059 23.917 76.1293C24.5157 77.5526 24.6737 79.1195 24.3711 80.6316C24.0684 82.1437 23.3187 83.5332 22.2167 84.6243C21.1147 85.7155 19.7099 86.4593 18.1799 86.7618C16.65 87.0642 15.0636 86.9117 13.6215 86.3234C12.1793 85.7352 10.9461 84.7377 10.0778 83.457C9.20946 82.1764 8.74506 80.6701 8.74328 79.1287C8.74328 77.0633 9.57319 75.0824 11.0507 73.6211C12.5282 72.1598 14.5324 71.3377 16.6231 71.3353V71.3265ZM11.1364 101.351H13.5116V116.876H11.1364V101.351ZM15.4378 101.351H17.8085V116.876H15.4378V101.351ZM19.7346 101.351H22.1098V116.876H19.7346V101.351ZM24.036 101.351H26.4112V116.876H24.036V101.351ZM6.83955 101.351H9.19227V116.876H6.83955V101.351ZM11.1364 92.409H13.5116V96.0418H11.1364V92.409ZM15.4378 92.409H17.8085V96.0418H15.4378V92.409ZM19.7346 92.409H22.1098V96.0418H19.7346V92.409ZM24.036 92.409H26.4112V96.0418H24.036V92.409ZM6.83955 92.409H9.19227V96.0418H6.83955V92.409ZM11.1364 123.458H13.5116V139.005H11.1364V123.458ZM15.4378 123.458H17.8085V139.005H15.4378V123.458ZM19.7346 123.458H22.1098V139.005H19.7346V123.458ZM24.036 123.458H26.4112V139.005H24.036V123.458ZM6.83955 123.458H9.19227V139.005H6.83955V123.458ZM11.1364 145.557H13.5116V161.104H11.1364V145.557ZM15.4378 145.557H17.8085V161.104H15.4378V145.557ZM19.7346 145.557H22.1098V161.104H19.7346V145.557ZM24.036 145.557H26.4112V161.104H24.036V145.557ZM6.83955 145.557H9.19227V161.104H6.83955V145.557ZM11.1364 167.66H13.5116V183.206H11.1364V167.66ZM15.4378 167.66H17.8085V183.206H15.4378V167.66ZM19.7346 167.66H22.1098V183.206H19.7346V167.66ZM24.036 167.66H26.4112V183.206H24.036V167.66ZM6.83955 167.66H9.19227V183.206H6.83955V167.66ZM11.1364 189.758H13.5116V205.305H11.1364V189.758ZM15.4378 189.758H17.8085V205.305H15.4378V189.758ZM19.7346 189.758H22.1098V205.305H19.7346V189.758ZM24.036 189.758H26.4112V205.305H24.036V189.758ZM6.83955 189.758H9.19227V205.305H6.83955V189.758ZM17.0137 74.254V78.4323H22.8956V79.8207H15.6129V74.254H17.0137ZM0.212402 66.9928H2.58758V49.6007H3.63822V55.4425L9.05758 44.8457V24.6503H10.0903V29.2367L16.0798 9.71995V0.316406H17.1305V9.71551L23.1201 29.2323V24.6503H24.1752V44.8457L29.59 55.4425V49.6007H30.6452V66.9928H33.0338V99.9452H30.6631V210.672H2.58758V99.9452H0.212402V66.9928Z" fill="#ACDDF7"/>
</svg>
