<svg width="415" height="548" viewBox="0 0 415 548" fill="none" xmlns="http://www.w3.org/2000/svg">
<path d="M71.4687 212.034C72.1861 219.078 77.6207 224.293 83.6074 223.683C89.5941 223.073 93.8657 216.87 93.1484 209.826C92.4311 202.783 91.4599 197.113 85.4732 197.723C79.4866 198.333 70.7514 204.991 71.4687 212.034Z" fill="white"/>
<path d="M58.3845 208.429C64.8095 208.825 72.6477 207.012 75.0984 209.731C77.549 212.451 78.0503 219.739 76.9699 221.782C74.294 224.427 61.6482 225.682 61.6482 225.682" fill="white"/>
<path d="M59.0904 208.685C53.1221 211.097 50.0121 214.019 48.5499 217.375C47.0876 220.731 47.4109 223.906 51.0058 225.744C54.3821 227.405 61.4636 226.082 61.4636 226.082" fill="white"/>
<path d="M59.0904 208.685C53.1221 211.097 50.0121 214.019 48.5499 217.375C47.0876 220.731 47.4109 223.906 51.0058 225.744C54.3821 227.405 61.4636 226.082 61.4636 226.082" stroke="#1D1D1B" stroke-width="1.49563" stroke-miterlimit="10" stroke-linecap="round" stroke-linejoin="round"/>
<path d="M263.631 89.4334C264.596 85.1257 265.779 80.9962 267.18 77.045L268.505 74.3042C268.505 74.3042 279.115 82.0434 301.392 78.3715C323.668 74.6995 327.502 55.2664 320.93 41.9043C314.357 28.5422 297.406 25.4579 297.406 25.4579C297.406 25.4579 292.07 4.55327 260.931 1.91152C227.57 -0.904756 221.369 14.961 221.369 14.961C221.369 14.961 203.828 4.11916 179.975 13.9651C156.122 23.811 165.567 45.7003 176.887 50.5609C188.206 55.4216 202.474 55.7726 202.474 55.7726C202.474 55.7726 191.948 72.4796 188.274 81.6736C184.6 90.8675 263.631 89.4334 263.631 89.4334Z" fill="white"/>
<path d="M176.907 50.7595C169.976 47.6568 163.589 38.0844 165.457 28.8739C168.817 32.3402 172.731 35.3492 177.14 37.3056C187.427 41.8705 199.172 41.0752 208.567 34.9067C208.567 34.9067 212.562 38.7093 224.768 40.4728C231.517 41.79 238.481 41.2812 245.045 38.8087C249.242 44.5951 254.549 49.4668 260.905 52.8284C270.876 58.2273 293.807 64.9122 307.659 55.2829C314.259 51.2031 317.897 43.6165 316.91 35.8994C318.501 37.7419 319.894 39.6046 320.909 41.7061C327.482 55.0681 323.846 74.4811 301.57 78.153C279.293 81.8249 268.027 73.5512 268.027 73.5512C268.027 73.5512 267.257 75.8345 265.799 81.1948C264.773 84.9073 263.631 89.4335 263.631 89.4335C263.631 89.4335 256.031 89.6061 245.594 89.4665C244.817 87.7415 244.615 85.7576 245.028 83.9115C246.722 76.9237 248.36 61.5227 248.36 61.5227C246.454 60.5142 244.725 59.2871 243.175 57.8414C240.989 56.0595 239.337 53.6219 238.281 51.1236C238.281 51.1236 234.592 52.3011 223.956 52.1816C218.143 52.1724 212.248 51.3696 206.669 49.7328L204.615 55.1536L202.315 56.1897L202.295 55.9913C202.295 55.9913 188.048 55.8387 176.907 50.7595Z" fill="#E6F2FC"/>
<path d="M294.843 67.2123C294.843 67.2123 281.777 72.7525 264.122 64.7285C246.467 56.7046 242.817 46.4525 242.817 46.4525" stroke="#1D1D1B" stroke-width="1.49563" stroke-linecap="round" stroke-linejoin="round"/>
<path d="M215.949 24.7336C215.949 24.7336 216.375 19.0776 224.656 11.8198" stroke="#1D1D1B" stroke-width="1.49563" stroke-linecap="round" stroke-linejoin="round"/>
<path d="M263.631 89.4326C263.631 89.4326 265.207 83.2586 266.451 79.7243C267.062 77.858 267.872 75.9715 268.703 74.2833C268.703 74.2833 279.313 82.0225 301.59 78.3505C323.867 74.6786 327.502 55.2657 320.93 41.9036C314.357 28.5415 297.406 25.4572 297.406 25.4572C297.406 25.4572 292.049 4.35416 260.931 1.9108C233.445 -0.301082 221.368 14.9603 221.368 14.9603C221.368 14.9603 203.827 4.11844 179.974 13.9644C156.121 23.8103 165.567 45.6996 176.886 50.5602C188.206 55.4209 202.473 55.7718 202.473 55.7718C202.473 55.7718 191.947 72.4789 188.273 81.6728C184.599 90.8668 263.631 89.4326 263.631 89.4326Z" stroke="#1D1D1B" stroke-width="1.49563" stroke-miterlimit="10"/>
<path fill-rule="evenodd" clip-rule="evenodd" d="M145.099 224.582C142.301 224.667 135.508 220.949 129.489 216.951C121.522 211.549 112.741 206.029 112.741 206.029C112.741 206.029 108.358 218.101 103.766 224.181C99.1733 230.262 97.0112 230.682 97.0112 230.682C105.604 242.235 115.643 252.237 127.148 260.888C138.831 269.319 146.337 272.163 155.799 270.598C166.452 268.912 172.556 254.058 173.184 250.386C173.812 246.714 176.23 201.567 176.34 196.745C176.451 191.923 176.107 188.55 176.107 188.55L168.561 185.31C168.581 185.508 151.468 224.134 145.099 224.582Z" fill="#E9E9E9"/>
<path d="M157.115 208.725C163.028 197.9 168.561 185.31 168.561 185.31L178.508 188.506C177.164 191.048 176.455 193.927 176.341 196.745C176.324 198.551 175.942 206.607 175.284 215.895C172.9 214.133 170.139 212.611 167.418 211.484C164.103 210.419 160.589 209.374 157.115 208.725Z" fill="#004E96"/>
<path d="M142.658 224.228C143.492 224.544 144.306 224.661 145.099 224.58C146.29 224.459 147.934 222.889 149.894 220.484C154.262 222.044 158.452 223.822 162.484 226.017C166.715 228.192 170.589 230.804 174.483 233.615C173.943 242.089 173.46 249.153 173.184 250.384C172.556 254.056 166.452 268.91 155.799 270.596C148.896 271.7 143.139 270.282 135.71 266.228C139.21 259.257 141.677 251.99 143.112 244.427C144.23 237.698 143.94 230.912 142.658 224.228Z" fill="#004E96"/>
<path d="M103.765 224.181C108.357 218.101 112.74 206.028 112.74 206.028C112.74 206.028 121.521 211.548 129.488 216.951C129.976 223.716 128.242 230.307 124.82 236.068C121.932 241.173 117.356 245.447 112.003 247.997C106.458 242.749 101.446 236.845 97.0103 230.682C96.8119 230.702 99.1522 230.063 103.765 224.181Z" fill="#004E96"/>
<path d="M140.989 223.597C143.074 224.387 145.317 224.76 147.738 224.914C149.147 224.971 150.337 224.85 151.706 224.51" stroke="#1D1D1B" stroke-width="1.49563" stroke-linecap="round" stroke-linejoin="round"/>
<path d="M145.099 224.582C142.301 224.666 135.508 220.948 129.488 216.951C121.521 211.548 112.741 206.028 112.741 206.028C112.741 206.028 108.358 218.101 103.765 224.181C99.1729 230.261 97.0108 230.682 97.0108 230.682C105.604 242.235 115.643 252.237 127.148 260.887C138.831 269.319 146.337 272.163 155.799 270.598C166.451 268.911 172.556 254.058 173.184 250.386C173.812 246.713 177.262 201.862 177.372 197.04C177.288 194.243 178.017 191.563 179.362 189.02L168.957 185.269C168.759 185.289 151.467 224.133 145.099 224.582Z" stroke="#1D1D1B" stroke-width="1.49563" stroke-miterlimit="10"/>
<path d="M353.202 394.215C357.651 396.568 361.209 400.014 363.637 404.177C366.604 409.688 368.619 415.696 369.84 421.786C370.026 425.576 369.835 429.604 369.008 433.296C363.238 435.688 357.23 437.703 350.962 439.143C344.654 440.187 332.354 441.439 323.54 439.531C314.726 437.622 306.508 435.653 297.448 429.359C289.7 424.135 268.832 406.215 268.832 406.215C268.832 406.215 258.854 396.808 261.458 388.926C264.063 381.043 269.655 378.87 273.768 381.859C277.881 384.848 287.152 387.311 297.167 395.111C301.3 398.298 311.863 401.632 317.142 402.297C323.871 403.416 330.636 402.927 337.062 401.07C342.694 399.294 348.067 396.943 353.202 394.215Z" fill="#E9E9E9"/>
<path d="M366.821 419.687C367.306 424.449 367.414 429.449 367.106 434.291C370.973 432.895 374.779 430.904 378.128 428.358C382.983 424.857 393.106 416.008 396.071 409.693C399.036 403.377 401.725 398.293 398.321 392.425C395.594 387.291 390.606 383.59 384.671 382.39C380.343 381.227 375.562 381.514 371.517 383.128C365.885 384.905 359.268 390.79 355.838 392.543C353.935 393.538 352.23 394.514 350.546 395.687C354.359 397.704 357.857 400.555 360.601 403.884C363.864 408.363 366.037 413.954 366.821 419.687Z" fill="white"/>
<path d="M352.629 394.475C352.629 394.475 361.988 401.74 365.554 409.195C369.378 417.224 368.258 433.775 368.258 433.775C362.905 436.325 357.074 438.121 351.163 439.124C343.426 439.912 330.587 439.816 330.587 439.816C330.587 439.816 337.909 429.048 337.579 421.866C336.679 407.124 329.031 402.892 329.031 402.892C333.198 402.467 337.324 401.646 341.19 400.25C345.017 398.457 348.843 396.665 352.629 394.475Z" fill="#004E96"/>
<path d="M313.69 401.847C315.365 406.487 315.652 411.268 314.946 416.151C313.633 424.904 305.295 433.571 305.295 433.571C300.012 430.902 294.688 427.836 289.721 424.333C284.734 420.631 279.905 416.513 275.472 412.354C279.635 409.925 283.101 406.566 285.494 402.513C289.885 394.449 288.546 389.173 288.546 389.173C292.679 392.361 296.97 395.131 301.439 397.682C305.233 399.501 309.382 400.882 313.69 401.847Z" fill="#004E96"/>
<path d="M271.246 380.714C270.137 381.628 283.8 387.854 288.05 390.227C292.301 392.601 304.778 400.952 313.968 402.621C322.762 404.332 324.806 404.725 331.114 403.681C337.997 402.379 344.759 399.886 351.023 396.442C358.615 392.261 363.43 388.363 368.585 385.834C373.739 383.304 383.672 378.484 392.278 386.227C398.896 392.168 399.32 396.334 398.911 400.184C397.456 407.549 393.718 414.143 388.19 418.916C380.901 426.072 372.062 431.783 362.623 435.551C352.966 439.14 342.253 440.231 329.949 439.48C320.245 438.664 310.755 436.023 302.075 431.495C297.825 429.121 273.143 409.185 270.856 406.411C268.569 403.637 266.249 404.475 267.662 406.536C269.075 408.597 292.902 428.019 296.318 430.076C306.37 436.269 317.609 440.336 329.159 441.565C336.662 442.405 355.509 440.485 363.797 437.236C372.085 433.986 385.444 425.409 389.542 420.382C393.64 415.354 400.59 406.829 400.34 400.44C400.252 395.638 400.006 391.253 394.083 386.244C390.327 382.818 380.514 377.002 367.986 383.89C355.458 390.779 351.853 394.754 346.877 397.065C341.326 399.635 335.495 401.431 329.584 402.434C321.887 403.619 309.875 399.831 304.037 397.619C298.596 395.367 296.111 392.614 287.371 387.49C278.631 382.367 272.157 379.819 271.246 380.714Z" fill="#1D1D1B"/>
<path fill-rule="evenodd" clip-rule="evenodd" d="M190.325 509.224C190.325 509.224 190.105 475.571 189.859 471.186C189.12 458.031 186.038 421.864 185.21 413.73C184.563 407.381 179.952 381.792 179.524 375.622C179.096 369.451 194.514 369.284 203.745 371.351C229.174 376.98 230.799 387.037 233.053 393.422C234.729 398.062 232.609 410.706 231.975 422.196C231.284 435.096 231.627 460.117 231.82 467.915C232.013 475.712 231.322 510.26 231.322 510.26C224.856 511.72 218.131 512.606 211.345 512.896C193.012 513.961 190.325 509.224 190.325 509.224Z" fill="#E9E9E9"/>
<path fill-rule="evenodd" clip-rule="evenodd" d="M231.164 510.678C232.836 513.314 233.754 516.427 233.482 519.662C233.809 524.841 231.934 530.043 228.091 533.642C224.11 537.856 219.194 540.762 213.76 542.518C208.545 544.452 203.051 545.613 197.476 545.98C194.877 546.045 192.257 545.91 189.597 545.38C186.621 545.683 183.386 545.411 180.309 544.722C175.188 543.64 174.055 542.352 171.667 538.586C169.797 535.97 168.858 532.658 169.547 529.582C170.094 525.116 175.023 518.4 178.214 516.271C181.404 514.142 190.126 509.245 190.126 509.245C194.774 511.578 199.717 512.878 204.976 513.345C213.211 513.508 231.164 510.678 231.164 510.678Z" fill="white"/>
<path fill-rule="evenodd" clip-rule="evenodd" d="M189.867 475.195C189.867 475.195 190.521 485.552 190.374 491.981C190.227 498.41 190.285 508.828 190.285 508.828C195.609 511.894 201.783 513.47 207.973 513.24C215.751 512.849 223.468 511.863 231.124 510.281C231.124 510.281 231.929 494.564 232.019 489.544C232.093 486.329 232.528 474.859 232.528 474.859C227.73 476.951 222.434 478.092 217.276 478.617C212.316 479.122 207.296 479.032 202.413 478.327C197.968 477.978 193.858 476.993 189.867 475.195Z" fill="#004E96"/>
<path fill-rule="evenodd" clip-rule="evenodd" d="M233.697 409.592C233.697 409.592 225.311 413.854 207.732 414.442C199.735 414.655 191.776 413.26 184.428 410C184.428 410 186.195 421.446 186.465 428.033C186.654 433.827 188.563 446.662 188.563 446.662C195.591 448.752 202.737 450.029 209.98 450.294C217.462 450.935 224.96 449.77 231.88 446.86C231.88 446.86 231.834 432.633 232.025 428.605C232.589 422.333 233.697 409.592 233.697 409.592Z" fill="#004E96"/>
<path fill-rule="evenodd" clip-rule="evenodd" d="M179.322 373.638C177.695 373.403 179.576 382.031 180.619 388.339C182.423 398.178 186.265 437.876 187.033 445.415C188.205 456.922 188.826 470.89 189.14 479.878C189.511 487.457 188.956 509.563 188.956 509.563C188.956 509.563 194.522 515.01 208.49 514.389C215.276 514.099 222.22 513.392 228.904 512.11C229.301 512.069 231.601 511.033 231.561 510.636C231.614 507.223 232.224 493.531 232.589 487.28C232.854 480.036 232.467 452.614 232.772 445.768C233.077 438.922 234.943 396.236 235.198 394.807C235.454 393.378 233.073 393.62 233.097 395.823C233.121 398.025 231.627 416.819 231.399 422.455C231.172 428.091 230.224 452.241 230.356 459.444C230.488 466.647 230.852 491.866 230.567 498.911C230.299 504.15 230.209 509.171 229.318 510.264C228.427 511.357 211.9 512.438 207.316 512.705C202.733 512.971 191.498 510.908 191.138 509.341C190.778 507.774 191.249 482.871 190.894 473.486C190.624 466.898 185.566 413.292 184.798 405.753C184.03 398.214 183.193 374.246 179.322 373.638Z" fill="#1D1D1B"/>
<path fill-rule="evenodd" clip-rule="evenodd" d="M177.006 518.197C174.074 520.901 172.017 524.318 170.992 528.03C170.558 529.678 170.011 534.143 170.804 534.063C171.598 533.982 172.72 529.257 175.057 526.614C176.462 524.667 178.701 523.035 181.042 522.396C183.046 522.393 178.049 524.505 176.308 527.088C174.704 529.055 173.736 531.359 173.185 533.82C173.01 536.043 172.419 538.108 174.03 540.149C176.058 542.347 179.017 543.85 182.074 544.341C184.495 544.495 186.896 544.451 189.297 544.407C188.876 542.245 188.832 539.844 189.205 537.601C189.675 534.346 190.98 531.407 192.919 528.804C194.325 526.856 197.277 524.351 199.281 524.347C200.69 524.404 197.835 525.898 196.369 527.25C194.903 528.602 190.906 534.621 190.517 538.67C190.245 541.905 190.248 543.909 192.313 544.5C194.378 545.092 205.885 543.92 211.318 542.164C216.752 540.408 224.206 536.842 227.057 533.345C229.908 529.847 232.598 524.763 232.671 521.548C232.745 518.333 232.001 512.997 231.325 512.264C230.649 511.531 229.673 509.826 230.625 509.328C231.577 508.831 232.609 509.126 233.228 511.268C234.543 514.342 234.887 517.714 234.615 520.949C233.772 526.447 231.499 531.69 227.697 535.685C223.06 539.364 217.727 542.113 212.095 543.889C206.463 545.665 200.75 546.648 194.957 546.837C193.131 546.622 191.503 546.387 189.637 545.775C187.851 545.957 186.066 546.139 184.438 545.904C179.815 545.773 175.248 544.234 173.677 542.59C172.564 541.501 172.006 539.954 171.844 538.367C171.844 538.367 168.569 537.698 168.991 530.038C169.162 525.811 170.94 521.621 173.832 518.52C176.764 515.816 179.716 513.311 183.105 511.161C186.672 508.794 189.786 507.875 190.421 508.211C191.057 508.547 192.089 508.843 191.316 509.122C185.963 511.672 181.246 514.558 177.006 518.197Z" fill="#1D1D1B"/>
<path d="M212.268 388.122C211.397 389.414 224.085 393.934 226.806 395.061C230.935 396.244 235.044 397.228 239.312 397.796C240.125 397.913 239.587 396.565 238.535 396.071C237.482 395.577 228.231 393.312 224.499 392.088C220.766 390.865 213.139 386.831 212.268 388.122Z" fill="#1D1D1B"/>
<path fill-rule="evenodd" clip-rule="evenodd" d="M315.165 502.923C315.165 502.923 306.596 471.925 305.358 467.641C301.644 454.79 294.197 419.066 293.368 410.932C292.722 404.584 287.76 371.614 287.134 365.464C286.508 359.314 273.566 368.048 264.404 370.585C240.207 377.058 238.699 387.836 237.758 394.346C237.053 399.229 245.398 416.219 248.356 427.543C251.633 440.038 260.211 465.223 261.793 472.88C263.374 480.536 273.4 515.997 273.4 515.997C273.4 515.997 280.23 518.108 293.976 515.304C309.467 511.923 315.165 502.923 315.165 502.923Z" fill="#E9E9E9"/>
<path fill-rule="evenodd" clip-rule="evenodd" d="M273.598 515.976C274.083 520.737 275.143 525.239 276.6 529.701C279.21 535.649 283.744 540.8 289.107 544.263C295.524 548.22 303.136 544.237 303.136 544.237C303.136 544.237 308.792 544.664 313.177 544.417C320.181 544.305 324.915 539.614 329.216 536.57C333.516 533.526 335.327 525.725 333.171 518.327C331.933 514.043 327.439 509.289 324.598 506.973C321.796 505.053 318.797 503.154 315.659 501.87C311.601 507.294 306.191 511.253 299.806 513.507C287.631 517.954 273.598 515.976 273.598 515.976Z" fill="white"/>
<path fill-rule="evenodd" clip-rule="evenodd" d="M305.077 466.867C305.077 466.867 307.674 476.625 309.313 482.872C310.952 489.12 315.322 502.506 315.322 502.506C310.511 508.408 304.109 512.468 296.711 514.624C289.136 516.999 280.941 517.232 273.18 515.818C273.18 515.818 268.887 501.221 267.588 496.343L262.373 476.628C267.673 477.492 272.871 477.363 278.009 476.639C282.969 476.134 287.848 474.836 292.448 472.763C297.108 471.287 301.113 469.275 305.077 466.867Z" fill="#004E96"/>
<path fill-rule="evenodd" clip-rule="evenodd" d="M242.031 408.743C251.517 409.381 261.08 408.807 270.502 406.846C278.178 405.463 285.454 402.116 291.557 397.084C291.557 397.084 293.425 409.522 294.488 416.029C295.471 421.742 297.878 435.528 297.878 435.528C291.455 439.389 284.556 442.497 277.337 444.435C269.939 446.592 262.003 447.4 254.343 446.978C254.343 446.978 249.694 432.818 248.715 429.109C247.097 423.06 242.031 408.743 242.031 408.743Z" fill="#004E96"/>
<path fill-rule="evenodd" clip-rule="evenodd" d="M288.735 373.318C290.201 371.966 291.623 389.862 292.468 396.19C293.875 406.07 297.914 433.921 299.455 441.181C302.076 453.142 305.851 466.588 308.149 475.374C310.326 482.97 316.513 502.385 316.513 502.385C311.426 509.518 303.915 514.492 295.266 516.175C283.622 517.962 277.788 517.755 274.909 517.045C273.678 516.77 272.585 515.879 271.849 514.551C270.91 511.239 266.977 498.209 265.557 492.14C263.838 485.099 256.107 456.42 254.209 449.598C252.311 442.775 237.647 399.168 237.307 397.799C237.028 397.026 236.729 396.054 237.344 396.192C238.356 396.289 239.231 397.002 239.55 398.172C240.368 400.294 245.778 417.984 247.752 423.596C249.687 428.811 255.934 448.821 257.852 455.842C260.008 463.239 267.205 492.574 269.123 499.594C270.62 504.453 272.861 514.648 273.934 515.341C275.007 516.033 285.565 517.363 296.631 513.831C304.405 511.436 313.937 504.652 313.974 503.044C314.011 501.437 306.707 478.929 303.992 469.985C298.401 450.509 292.739 414.604 291.575 407.106C290.41 399.607 286.714 375.128 288.735 373.318Z" fill="#1D1D1B"/>
<path fill-rule="evenodd" clip-rule="evenodd" d="M272.302 513.102C272.975 511.831 274.29 514.904 274.613 518.078C275.657 524.386 278.068 530.355 281.63 535.805C285.37 541.037 291.43 545.431 298.512 544.108C305.593 542.785 304.732 538.263 304.15 534.514C303.567 530.764 299.37 524.978 300.143 524.699C300.917 524.42 303.463 527.768 304.758 530.643C306.251 533.498 306.773 536.652 306.282 539.709C306.007 540.939 305.533 542.19 304.423 543.105C307.897 543.754 311.508 543.787 314.881 543.443C318.432 542.881 321.683 541.347 324.02 538.704C325.425 536.757 325.774 532.311 324.775 528.404C324.512 525.825 323.258 523.347 321.448 521.326C319.619 519.107 316.7 518.001 317.692 517.9C318.684 517.799 323.271 519.537 325.403 524.732C326.799 528.599 327.203 532.567 326.814 536.615C329.073 535.182 330.875 533.195 332.062 531.07C333.148 527.952 333.618 524.697 333.076 521.345C332.255 517.219 330.244 513.214 327.52 510.084C324.836 507.351 321.597 505.075 318.221 503.414C316.136 502.624 313.933 502.648 314.865 501.952C315.796 501.256 316.391 501.195 318.715 502.361C322.27 503.804 325.508 506.08 328.172 508.615C331.552 512.279 333.603 516.681 334.307 521.62C335.189 526.341 334.066 531.066 331.474 535.138C330.109 537.482 327.672 539.134 325.153 539.992C322.4 542.477 318.99 544.428 315.46 545.188C311.135 546.03 306.73 546.077 302.463 545.51C299.726 546.189 296.969 546.671 294.171 546.755C288.912 546.288 284.224 543.559 281.2 539.457C278.177 535.355 275.906 530.775 274.409 525.916C273.39 521.811 271.63 514.373 272.302 513.102Z" fill="#1D1D1B"/>
<path fill-rule="evenodd" clip-rule="evenodd" d="M242.96 396.221C236.571 396.471 226.288 393.91 209.941 384.951C205.472 382.4 183.568 383.829 180.16 375.957C174.122 361.939 169.412 347.185 166.269 332.07C162.985 315.567 160.101 301.028 161.924 277.59C162.853 265.067 166.299 239.861 168.921 230.172C171.68 219.869 174.3 198.355 179.362 189.019C187.272 174.182 219.735 174.083 239.262 174.901C257.777 175.621 267.847 191.834 272.748 202.56C278.507 215.805 276.208 250.315 277.586 265.81C278.6 277.734 281.662 292.055 283.705 302.27C285.347 310.522 289.623 326.924 293.102 341.403C294.983 350.031 295.297 359.019 294.202 367.951C293.014 379.898 249.349 395.971 242.96 396.221Z" fill="#E9E9E9"/>
<path fill-rule="evenodd" clip-rule="evenodd" d="M287.922 320.083C287.922 320.083 282.59 322.831 262.26 327.908C245.481 332.423 224.455 336.569 204.916 339.561C181.23 343.176 168.509 342.267 168.509 342.267C168.509 342.267 170.823 349.247 171.981 352.738C174.494 359.698 177.706 369.594 177.626 368.8C197.788 369.954 217.947 369.103 237.924 366.467C257.285 363.694 276.404 358.539 294.487 351.085C294.487 351.085 292.821 340.631 290.904 333.61C289.305 327.759 287.922 320.083 287.922 320.083Z" fill="#004E96"/>
<path fill-rule="evenodd" clip-rule="evenodd" d="M277.771 269.599C277.771 269.599 265.488 269.046 239.875 271.455C221.404 273.135 207.934 274.708 191.01 275.83C174.086 276.952 161.45 278.84 161.45 278.84C161.45 278.84 161.084 285.092 161.297 293.088C161.628 300.27 162.096 306.837 162.096 306.837C171.78 307.455 181.582 307.258 191.324 306.467C209.596 304.806 221.022 302.841 246.473 298.845C258.117 297.058 269.722 294.874 281.026 291.718C281.026 291.718 279.979 283.406 278.96 279.3C278.438 276.146 278.095 272.774 277.771 269.599Z" fill="#004E96"/>
<path fill-rule="evenodd" clip-rule="evenodd" d="M277.303 219.736C277.303 219.736 257.635 217.529 248.942 216.811C237.015 215.821 224.752 215.466 212.787 216.083C198.641 216.923 184.754 218.337 170.749 220.565C170.359 224.614 169.573 228.703 168.39 232.832C167.247 237.359 166.522 242.043 165.974 246.508C165.974 246.508 171.287 243.562 202.454 240.588C218.346 239.17 240.492 240.122 245.691 239.993C256.485 239.696 267.242 241.006 277.566 243.963C277.566 243.963 276.515 233.647 276.565 228.23C276.658 225.213 277.303 219.736 277.303 219.736Z" fill="#004E96"/>
<path d="M178.354 190.926C176.292 192.339 174.663 201.926 172.966 206.91C171.426 211.476 170.664 217.768 168.93 224.359C166.92 232.181 164.548 248.258 163.51 255.78C160.595 278.327 160.193 286.185 160.584 293.963C161.431 312.118 164.261 330.07 169.035 347.424C170.593 352.878 173.883 361.563 176.594 368.503C178.788 374.293 180.285 379.152 181.216 378.456C182.147 377.76 174.669 357.474 171.177 346.805C166.545 330.84 163.677 314.495 162.774 297.749C162.16 287.789 162.912 275.485 165.182 258.416C166.317 249.882 168.417 237.039 171.173 224.732C172.315 220.206 172.98 214.926 175.346 206.667C176.866 201.902 180.415 189.514 178.354 190.926Z" fill="#1D1D1B"/>
<path d="M267.887 192.232C271.587 197.066 277.062 207.534 277.408 222.733C277.825 244.539 277.406 254.203 277.611 258.191C278.289 270.751 282.193 289.396 284.114 298.421C287.977 316.669 290.602 330.634 292.16 336.088C293.717 341.542 296.93 373.086 297.685 384.435C297.745 385.03 294.884 382.515 294.977 379.499C295.279 370.648 290.896 339.423 290.155 336.091C287.955 326.293 283.335 306.518 281.952 298.841C280.209 289.598 277.147 275.277 276.348 261.527C275.899 255.158 275.681 233.332 275.76 222.299C275.859 211.465 272.367 200.796 265.863 192.037C263.078 188.311 249.841 176.43 253.735 179.241C258.921 182.922 263.77 187.239 267.887 192.232Z" fill="#1D1D1B"/>
<path d="M210.336 384.911C208.85 386.065 220.449 391.699 225.631 393.376C229.145 394.421 240.104 397.715 242.108 397.711C243.1 397.61 242.878 395.428 241.032 395.015C234.939 394.232 228.963 392.636 223.344 390.602C218.558 388.885 211.822 383.758 210.336 384.911Z" fill="#1D1D1B"/>
<path d="M157.363 73.3956C156.61 73.8732 156.832 76.0555 156.937 79.0516C157.041 82.0477 157.045 84.0518 157.288 86.4325C157.591 89.4084 157.796 93.3964 158.237 95.7569C158.719 98.5142 159.382 103.057 161.252 105.673C163.599 109.042 171.719 100.197 171.93 96.3669C171.886 93.966 170.85 91.6661 169.239 89.6252C168.324 88.5157 167.369 87.0094 165.697 84.3733C164.026 81.7373 163.309 80.6075 161.16 77.2183C159.011 73.8291 158.136 73.1164 157.363 73.3956Z" fill="#F4ACBB"/>
<path d="M179.403 81.1743C177.755 80.7408 174.023 79.5173 170.707 78.4519C168.225 77.7024 165.922 76.7343 163.598 75.5678C162.327 74.8955 159.983 73.5306 159.448 74.1864C158.914 74.8422 160.901 76.6442 162.136 78.9239C163.629 81.7786 165.301 84.4146 167.349 86.8118C168.96 88.8527 171.072 93.8493 172.996 93.052C174.919 92.2548 179.596 88.9722 180.564 86.6686C181.572 84.7619 181.051 81.6078 179.403 81.1743Z" fill="#004E96"/>
<path d="M180.695 82.0444C179.067 81.8092 177.221 81.3959 175.574 80.9624C172.675 80.0549 169.975 79.1272 167.254 78.0011C163.918 76.7373 161.534 74.9756 161.177 75.4128C160.821 75.85 162.213 77.7127 164.342 80.9035C166.471 84.0943 167.904 86.3538 169.535 88.5931C170.45 89.7026 171.167 90.8323 171.883 91.9621C172.401 93.112 171.867 93.7678 170.733 92.4801C169.6 91.1924 169.041 89.6456 167.868 87.9611C166.694 86.2766 163.472 82.1949 162.476 80.2918C161.262 78.2105 159.869 76.3478 158.121 74.9223C157.347 75.2016 157.755 81.1735 157.957 83.1574C158.159 85.1413 158.49 92.3238 159.072 96.0731C159.375 99.049 160.075 101.984 161.37 104.859C162.086 105.989 161.552 106.645 160.916 106.309C160.281 105.972 159.763 104.823 158.784 101.114C158.064 97.9798 157.522 94.6274 157.198 91.4531C156.956 89.0724 156.568 83.2989 156.346 81.1166C156.124 78.9342 155.975 73.5373 157.125 73.0193C157.878 72.5416 159.149 73.214 160.838 74.0443C162.506 74.6762 165.226 75.8023 167.113 76.6124L173.784 79.1401C177.497 80.1652 180.732 80.437 181.566 80.753C182.4 81.069 181.509 82.1619 180.695 82.0444Z" fill="#1D1D1B"/>
<path d="M272.731 105.946C274.792 104.533 277.071 103.299 279.391 102.461C281.671 101.227 286.943 97.8836 289.778 96.1918L298.261 90.918C298.261 90.918 297.948 93.7561 297.515 95.4038C296.429 98.5211 295.344 101.638 293.841 104.598C292.873 106.901 291.411 110.257 290.046 112.601C288.207 116.196 286.129 119.415 283.853 122.653C282.764 123.766 280.999 124.147 279.549 123.693C276.809 122.368 274.384 120.21 272.911 117.554C272.073 115.234 271.632 112.873 271.39 110.492C271.823 108.845 272.078 107.416 272.731 105.946Z" fill="#F4ACBB"/>
<path d="M274.593 104.553C276.476 103.359 281.472 101.247 283.732 99.8137C285.991 98.3809 292.79 94.2809 294.118 93.5443C295.446 92.8076 296.576 92.0912 297.487 91.1967C297.645 90.7797 297.584 90.1845 296.572 90.0871C295.56 89.9898 292.147 89.9365 287.762 90.1826C283.377 90.4287 277.106 89.8647 273.316 90.0502C269.527 90.2357 267.523 90.2394 265.935 90.401C264.348 90.5627 262.473 95.7649 263.849 99.4333C265.224 103.102 267.273 105.499 269.099 105.714C271.143 106.107 273.107 105.707 274.593 104.553Z" fill="#004E96"/>
<path d="M265.319 90.2634C264.983 90.8989 266.213 91.1745 267.999 90.9927C270.578 90.73 277.979 90.5776 280.182 90.5537C282.384 90.5298 296.571 90.0872 296.611 90.484C294.194 92.3338 291.578 94.2038 288.922 95.677C283.293 99.4575 272.725 103.941 272.231 104.994C271.737 106.047 272.968 106.322 273.543 106.063C274.871 105.326 276.001 104.61 277.349 104.072C278.697 103.534 290.61 96.5073 291.918 95.5723C294.931 93.6619 296.931 91.6541 297.348 91.8121C297.765 91.9701 297.311 93.4195 296.76 95.881C296.209 98.3425 294.824 100.488 294.034 102.573C293.244 104.658 288.777 113.933 287.549 115.661C286.322 117.39 284.978 119.932 284.107 121.224C283.236 122.515 282.503 123.191 282.564 123.786C282.625 124.381 282.823 124.361 283.774 123.863C284.726 123.365 287.553 117.665 288.622 116.354C291.016 112.302 293.191 108.071 294.949 103.683C295.561 101.816 297.752 95.78 298.007 94.3508C298.481 93.0998 298.538 91.6909 298.417 90.5005C297.146 89.8282 295.717 89.5729 294.308 89.5159C292.7 89.4792 287.304 89.6279 284.089 89.5544C280.874 89.4809 273.85 89.3945 271.846 89.3982C269.841 89.4019 267.461 89.6443 266.667 89.7251C265.874 89.806 265.655 89.6278 265.319 90.2634Z" fill="#1D1D1B"/>
<path fill-rule="evenodd" clip-rule="evenodd" d="M180.853 81.6277C180.853 81.6277 178.318 84.2913 175.366 86.7969C172.455 89.6992 169.98 92.958 167.506 96.2167L162.816 103.309L156.523 112.369C156.523 112.369 151.201 121.129 149.261 123.732C147.321 126.335 144.279 133.861 142.934 136.404C141.294 139.978 140.05 143.513 139.244 147.403C138.713 150.063 139.692 153.772 140.724 154.068C141.757 154.364 144.073 151.522 144.073 151.522C144.073 151.522 145.607 154.773 146.364 156.3C148.375 160.304 150.784 164.269 153.568 167.994C158.142 173.542 163.073 178.652 168.736 183.086C173.505 186.61 186.112 190.337 192.444 191.496C202.249 193.304 216.177 192.286 227.704 191.313C236.255 190.642 253.807 185.848 262.573 183.352C265.489 182.453 262.09 190.417 263.815 189.639C267.463 188.065 270.634 185.738 273.149 182.876C274.258 181.961 280.26 175.938 280.26 175.938C280.26 175.938 281.444 183.635 282.137 182.562C284.134 178.55 285.912 174.36 287.293 170.21L289.266 163.996L292.609 169.268C292.609 169.268 292.942 166.628 293.157 164.802C293.251 161.786 293.126 158.591 292.823 155.616C292.6 153.433 291.012 141.769 289.558 139.311C288.105 136.853 283.978 125.848 283.181 123.924C282.383 122.001 274.722 109.752 272.172 104.399C271.156 102.298 274.229 100.982 271.862 97.4151C270.17 94.5807 268.32 92.1632 265.895 90.0048C263.729 88.4213 253.082 82.2895 248.455 80.1549C240.512 76.9549 232.095 75.0058 223.601 74.2673C215.722 73.6665 207.746 74.078 200.049 75.2628C193.365 76.5449 186.959 78.6004 180.853 81.6277Z" fill="#004E96"/>
<path fill-rule="evenodd" clip-rule="evenodd" d="M181.311 82.1825C186.267 79.6733 191.701 77.9172 197.195 76.7563C206.022 74.8551 215.188 74.3224 224.277 75.0003C231.958 75.6213 239.739 77.2342 246.868 80.3166C255.269 84.0714 266.175 90.7782 266.81 91.1144C268.041 91.3899 267.066 89.6852 264.94 88.4985C262.378 86.9555 255.188 83.2778 249.051 80.0944C242.318 76.9715 235.29 74.881 227.966 73.8228C212.605 72.581 207.427 72.9079 197.629 75.1085C191.936 76.2896 186.324 78.2643 181.17 80.7938C179.643 81.5506 180.359 82.6803 181.311 82.1825Z" fill="#1D1D1B"/>
<path fill-rule="evenodd" clip-rule="evenodd" d="M166.91 96.2775C166.432 95.5244 165.087 98.0667 164.456 99.7347C163.824 101.403 160.3 106.171 158.401 109.171C156.996 111.118 151.475 119.899 149.932 122.461C147.182 126.951 144.849 131.598 142.933 136.404C141.69 139.938 139.969 142.719 139.757 146.549C139.506 149.983 140.367 154.505 141.12 154.028C142.428 153.093 143.716 151.959 144.805 150.846C144.805 150.846 147.254 155.207 148.229 156.912C149.205 158.616 158.619 174.295 167.161 179.438C175.703 184.582 200.803 194.854 216.14 193.894C226.099 193.28 236.157 191.655 245.676 188.681C251.308 186.904 256.981 185.525 262.694 184.542C264.281 184.38 261.793 191.449 263.34 190.891C269.588 189.252 279.23 177.646 279.865 177.982C280.501 178.319 280.751 184.708 281.366 184.845C282.378 184.943 285.206 179.243 286.49 176.105C287.733 172.571 289.686 166.158 289.686 166.158C289.686 166.158 291.718 170.361 293.106 170.22C294.495 170.078 293.579 157.142 293.336 154.762C292.293 148.453 290.654 142.206 289.036 136.157C286.523 129.197 283.435 122.495 279.772 116.053C276.866 111.137 273.957 104.218 272.628 104.954C271.875 105.432 275.178 110.307 276.433 112.785C277.647 114.866 281.31 121.309 282.864 124.758C284.418 128.208 286.591 133.8 288.206 137.845C289.941 143.08 291.082 148.376 291.628 153.733C291.991 157.304 292.84 165.636 291.888 166.134C290.937 166.632 290.254 161.891 289.282 162.19C288.31 162.49 288.771 165.049 286.677 170.073C284.583 175.097 283.262 179.841 282.31 180.339C281.359 180.837 281.664 173.991 281.069 174.051C280.474 174.112 278.1 178.363 272.532 182.738C270.313 184.568 267.6 187.45 264.903 188.526C263.932 188.826 265.884 182.413 263.702 182.635C258.544 183.161 247.498 186.891 244.206 188.029C234.886 190.982 225.225 192.568 215.443 192.962C200.799 192.85 175.918 182.756 168.866 178.463C158.198 172.133 150.456 159.09 148.942 156.037C146.91 151.834 145.692 147.749 144.522 148.069C143.352 148.388 141.967 150.534 141.372 150.594C140.777 150.655 140.591 146.865 141.539 144.363C142.487 141.861 144.026 137.295 145.468 133.74C147.603 129.113 149.956 124.664 152.508 120.195C155.278 115.903 159.83 109.426 161.77 106.823C165.67 101.816 167.387 97.0307 166.91 96.2775Z" fill="#1D1D1B"/>
<path d="M214.792 129.486C214.283 122.522 215.798 115.753 219.18 109.595C222.068 104.49 226.826 102.001 230.437 102.034C235.081 102.363 239.752 106.899 240.147 116.681C240.522 126.264 237.695 131.964 233.556 136.595C229.417 141.226 215.712 144.426 214.792 129.486Z" fill="#1D1D1B"/>
<path d="M221.414 137.431C218.455 135.929 216.208 133.552 215.861 128.175C215.551 121.191 217.641 114.163 221.679 108.54C225.085 104.585 228.077 102.476 232.465 104.234C238.303 106.446 239.112 114.381 238.154 122.697C237.372 128.79 235.832 133.357 232.087 135.943C228.896 138.072 225.009 139.27 221.414 137.431Z" fill="white"/>
<path d="M238.359 114.858C237.76 112.915 235.991 111.291 233.947 110.898C230.254 110.071 226.408 111.666 224.33 114.884C221.499 118.58 220.158 123.126 220.425 127.71C220.305 138.346 230.346 138.526 233.079 135.842C235.772 132.761 237.591 128.968 238.377 124.879C239.086 122 239.974 118.903 238.359 114.858Z" fill="url(#paint0_radial_2595_96557)"/>
<path d="M225.586 129.188C224.866 126.054 225.336 122.799 227.077 120.217C228.284 118.29 230.386 117.274 232.629 117.647C235.09 118.198 236.604 121.251 236.413 125.279C236.279 127.899 235.331 130.401 233.509 132.19C231.468 133.801 228.431 133.509 226.82 131.468C225.966 130.954 225.667 129.982 225.586 129.188Z" fill="#1D1D1B"/>
<path d="M234.134 116.691C232.766 117.031 231.676 118.144 231.421 119.574C231.186 121.201 231.744 122.748 233.056 123.817C234.546 124.667 236.311 124.287 237.4 123.174C239.737 120.531 237.665 115.931 234.134 116.691Z" fill="#F9FBFE"/>
<path d="M238.676 125.851C237.197 131.013 235.261 135.62 231.673 137.789C228.086 139.959 219.645 135.807 219.869 128.167C219.976 121.341 221.118 116.815 224.743 113.038C227.415 109.759 231.918 108.699 235.731 110.716C239.148 112.774 240.746 118.625 238.676 125.851ZM237.526 126.369C238.413 123.272 239.758 120.73 238.54 116.644C238.119 114.482 236.727 112.619 234.82 111.611C231.504 110.546 227.816 111.723 225.479 114.366C222.648 118.062 221.089 122.431 221.177 127.232C220.758 136.897 229.333 138.429 232.682 135.883C236.031 133.337 236.639 129.466 237.526 126.369Z" fill="black"/>
<path d="M169.981 126.433C169.095 119.708 170.194 112.781 173.159 106.465C175.946 100.368 178.898 97.8627 182.946 98.2522C187.809 98.7592 191.69 105.38 191.628 114.607C191.639 120.619 191.236 128.478 187.891 133.028C184.546 137.578 171.91 139.466 169.981 126.433Z" fill="#1D1D1B"/>
<path d="M173.326 133.709C171.298 131.51 171.056 129.129 171.122 121.906C170.933 116.113 172.331 110.157 175.218 105.052C177.81 100.98 180.167 98.5347 184.139 100.135C189.163 102.229 190.91 113.477 190.268 120.959C189.842 126.615 187.509 131.262 184.318 133.391C181.128 135.52 175.573 136.086 173.326 133.709Z" fill="white"/>
<path d="M185.718 105.787C182.483 105.515 179.47 107.425 177.947 110.186C175.732 114.02 174.808 118.724 175.67 123.247C176.47 127.174 180.126 129.608 184.053 128.808C184.45 128.767 184.649 128.747 185.025 128.508C188.337 127.569 191.387 124.052 191.039 118.675C190.413 112.525 190.819 106.67 185.718 105.787Z" fill="url(#paint1_radial_2595_96557)"/>
<path d="M179.355 120.065C179.092 117.486 180.02 114.786 181.603 112.62C183.227 110.851 184.952 110.074 186.661 111.103C188.369 112.132 188.83 114.69 188.064 118.978C187.594 122.233 187.12 123.484 185.059 124.897C182.84 126.726 179.342 123.875 179.355 120.065Z" fill="#1D1D1B"/>
<path d="M185.126 117.675C183.815 116.605 183.434 114.84 184.086 113.371C184.718 111.703 186.443 110.926 188.111 111.558C188.945 111.873 189.601 112.408 189.88 113.181C190.835 114.688 190.442 116.732 188.936 117.687C187.806 118.404 186.219 118.565 185.126 117.675Z" fill="#F9FBFE"/>
<path d="M191.934 119.586C192.059 122.78 190.755 125.72 188.337 127.569C186.693 129.14 181.555 129.864 178.616 128.559C176.272 127.195 174.819 124.737 174.735 121.939C174.051 117.198 175.352 112.255 178.381 108.538C180.281 105.539 183.969 104.361 187.305 105.625C190.244 106.929 192.478 113.116 191.934 119.586ZM190.307 119.351C190.275 113.14 190.523 107.703 186.196 106.54C183.714 105.79 179.908 107.782 178.227 110.96C175.991 114.595 175.245 119.081 176.285 123.385C177.446 128.879 181.653 128.852 184.787 128.131C187.92 127.411 190.375 123.954 190.307 119.351Z" fill="black"/>
<path fill-rule="evenodd" clip-rule="evenodd" d="M278.67 164.273C278.354 165.107 274.618 161.879 274.282 162.515C273.946 163.15 274.524 164.895 274.844 166.066C275.066 168.248 275.09 170.45 274.717 172.693C274.324 174.738 274.049 175.969 273.474 176.228C272.899 176.487 271.6 171.608 270.43 171.927C269.636 172.008 269.028 175.879 268.376 177.348C267.072 180.287 265.35 183.068 263.411 185.671C262.143 187.003 260.637 187.958 258.892 188.537C258.495 188.577 259.066 186.314 258.471 186.375C257.876 186.435 252.304 188.807 249.984 189.645C243.38 191.72 236.716 193.201 229.833 194.503C218.942 195.813 207.929 195.932 196.815 195.06C189.75 194.576 182.961 192.862 176.309 190.533C173.569 189.209 163.298 182.838 161.667 180.599C160.056 178.558 158.267 176.736 156.498 175.112C155.903 175.172 155.594 180.015 155.218 180.253C154.841 180.492 153.169 177.856 152.672 176.905C151.656 174.803 150.64 172.702 149.802 170.382C149.244 168.835 149.338 165.819 148.742 165.879C148.147 165.94 147.62 170.604 146.786 170.288C145.952 169.972 143.937 163.963 143.516 161.801C143.096 159.639 142.967 154.44 142.214 154.918C141.461 155.396 137.978 160.561 137.857 159.371C137.735 158.18 137.502 149.986 140.074 145.715C141.973 142.715 144.091 139.894 146.428 137.25C148.825 135.202 151.441 133.332 154.316 132.037C157.567 130.503 161.276 129.524 164.827 128.962C167.208 128.72 169.609 128.675 172.05 129.028C172.07 129.227 179.572 130.066 189.694 131.04C197.593 131.839 205.354 133.253 213.212 133.656C222.678 134.095 228.075 133.946 228.869 133.865C232.877 133.858 236.926 134.247 240.638 135.272C243.934 136.14 248.043 137.124 251.379 138.388C255.35 139.988 259.362 141.985 263.018 144.419C266.475 146.873 269.754 149.546 272.676 152.656C275.243 156.203 277.234 160.009 278.67 164.273Z" fill="white"/>
<path fill-rule="evenodd" clip-rule="evenodd" d="M219.523 134.617C224.819 133.476 230.414 133.307 235.912 134.15C242.621 135.071 254.333 137.887 259.738 141.746C264.268 144.893 268.619 148.259 272.615 152.061C276.63 156.062 279.94 164.946 279.406 165.601C278.871 166.257 275.69 162.572 275.175 163.426C274.661 164.281 274.997 163.645 275.539 166.997C275.919 168.763 275.725 170.787 275.311 172.633C275.096 174.459 274.209 177.556 273.019 177.677C271.828 177.799 270.509 172.721 270.173 173.357C269.837 173.992 268.083 180.385 265.924 182.81C264.539 184.955 262.717 186.745 260.457 188.177C259.328 188.894 257.643 190.068 257.028 189.93C256.412 189.792 256.984 187.529 256.984 187.529C256.984 187.529 255.279 188.504 252.603 189.779C246.792 191.774 240.743 193.392 234.634 194.416C230.309 195.257 215.511 197.566 206.6 196.669C196.875 195.655 191.895 195.962 183.041 193.657C177.085 192.259 171.426 189.828 166.438 186.127C162.325 183.138 157.075 176.857 156.679 176.898C156.282 176.938 156.309 181.145 155.556 181.622C154.803 182.1 152.893 179.087 151.699 177.205C150.205 174.35 149.044 168.856 148.291 169.333C147.538 169.811 147.918 171.576 146.728 171.697C145.538 171.819 143.583 166.405 142.944 164.065C142.005 160.753 141.998 156.744 141.184 156.627C140.787 156.667 138.693 161.691 137.661 161.396C135.993 160.764 136.946 150.444 138.566 146.671C140.583 142.857 143.236 139.38 146.544 136.437C150.092 133.871 153.878 131.681 157.943 130.265C162.028 129.047 166.591 128.582 170.879 129.348C173.777 130.256 174.672 131.167 174.117 131.624C173.562 132.082 172.012 130.636 169.769 130.263C166.514 129.793 163.141 130.136 159.809 130.877C155.525 132.115 151.521 134.126 147.994 136.891C145.042 139.396 142.547 142.457 140.47 145.675C138.87 149.646 138.083 153.735 137.912 157.962C138.171 158.537 141.258 153.412 142.29 153.708C143.322 154.004 143.447 157.198 143.39 158.607C143.333 160.016 145.194 168.446 146.405 168.523C147 168.462 147.369 164.215 148.381 164.313C149.393 164.41 150.457 170.917 151.295 173.237C151.914 175.379 153.087 177.063 154.46 178.727C155.055 178.667 154.809 174.282 155.78 173.983C157.169 173.841 158.942 177.469 162.261 180.539C167.349 185.232 173.13 188.853 179.584 191.202C186.255 193.73 191.494 193.998 198.818 195.056C206.142 196.115 218.661 195.04 224.216 194.474C231.557 193.727 238.836 192.384 245.857 190.466C249.744 189.268 253.591 187.674 257.219 185.901C257.219 185.901 258.924 184.926 259.717 184.845C260.511 184.764 259.324 186.89 259.741 187.048C262.021 185.813 264.041 184.004 265.208 181.68C266.711 178.721 268.213 175.761 269.299 172.644C269.416 171.83 269.473 170.421 270.506 170.717C271.538 171.013 272.934 174.88 273.509 174.621C274.084 174.362 274.198 171.544 274.235 169.937C274.628 167.892 274.406 165.71 273.787 163.568C273.228 162.021 272.71 160.871 274.358 161.305C276.006 161.738 277.119 162.827 277.475 162.39C277.832 161.953 273.732 155.155 271.505 152.976C268.125 149.311 264.19 146.104 260.118 143.512C253.127 139.814 245.641 137.169 237.681 135.774C231.965 134.753 226.151 134.744 220.239 135.747C218.454 135.929 218.353 134.937 219.523 134.617Z" fill="#1D1D1B"/>
<path fill-rule="evenodd" clip-rule="evenodd" d="M222.627 149.334C222.627 149.334 221.081 149.893 215.031 151.511C212.691 152.15 208.525 152.574 206.739 152.756C204.16 153.019 201.541 152.885 199.099 152.532C197.015 151.742 195.108 150.734 193.359 149.308C193.359 149.308 188.204 151.838 186.836 152.177C185.467 152.517 180.013 154.075 180.013 154.075C180.013 154.075 182.462 158.436 183.417 159.942C184.373 161.449 186.841 166.008 188.792 169.417C190.047 171.895 191.9 176.317 194.264 177.88C196.39 179.067 199.029 179.399 201.131 178.384C205.791 176.907 209.93 172.276 211.87 169.673C214.166 166.633 216.045 163.435 217.706 160.058C219.525 156.265 221.562 152.65 224.036 149.391L222.627 149.334Z" fill="#790B19"/>
<path fill-rule="evenodd" clip-rule="evenodd" d="M204.18 165.044C203.108 164.352 201.877 164.076 200.727 164.594C198.585 165.213 196.484 166.229 195.058 167.978C193.414 169.549 192.029 171.694 191.041 173.799C191.482 176.16 193.072 178.002 195.157 178.792C198.036 179.501 200.991 179 203.429 177.348C206.304 176.053 208.879 173.787 210.621 171.204C212.561 168.601 214.48 165.799 216.181 162.82C215.109 162.127 214.056 161.633 212.647 161.576C210.821 161.361 209.036 161.543 207.529 162.498C206.42 163.413 205.092 164.15 204.18 165.044Z" fill="#F191A3"/>
<path fill-rule="evenodd" clip-rule="evenodd" d="M232.067 135.744C230.136 132.533 223.643 129.787 223.643 129.787C223.643 129.787 220.068 128.147 217.765 127.179C214.21 125.737 210.477 124.513 206.765 123.488C203.907 122.977 200.87 122.685 197.874 122.79C188.311 123.363 187.877 125.011 185.339 125.67C182.164 125.994 179.031 126.714 175.937 127.83C173.281 129.304 170.863 131.153 168.665 133.181C166.862 135.169 165.498 137.513 164.748 139.995C164.019 142.675 164.5 145.432 165.734 147.712C166.949 149.793 168.936 151.595 171.24 152.563C173.981 153.888 177.057 154.577 180.212 154.055C183.167 153.553 186.103 152.854 188.799 151.777C190.346 151.219 192.071 150.442 193.577 149.486C195.107 150.734 196.816 151.762 198.484 152.394C201.779 153.261 205.391 153.295 208.921 152.534C212.869 151.932 216.578 150.952 219.513 150.253C222.845 149.512 225.583 148.833 225.583 148.833C226.753 148.513 227.862 147.598 228.356 146.546C228.948 144.481 233.998 138.955 232.067 135.744Z" fill="white"/>
<path fill-rule="evenodd" clip-rule="evenodd" d="M180.41 154.035C179.952 153.48 178.981 153.78 179.458 154.533C180.393 155.841 181.328 157.149 182.085 158.675C182.842 160.202 185.469 164.344 186.047 166.089C186.626 167.834 190.249 173.88 191.026 175.605C191.803 177.33 193.134 178.597 194.802 179.229C196.669 179.841 198.474 179.857 200.438 179.457C203.155 178.579 205.633 177.324 207.633 175.316C211.792 170.884 215.494 165.897 218.163 160.614C219.289 157.893 220.634 155.351 222.197 152.987C222.89 151.914 223.959 150.602 224.295 149.967C224.987 148.894 223.777 148.817 223.303 150.068C222.829 151.319 221.699 152.035 220.492 153.962C219.127 156.306 217.783 158.848 216.636 161.37C214.976 164.747 212.878 167.767 210.562 170.608C208.087 173.867 204.738 176.413 201.11 178.186C198.632 179.44 195.774 178.93 193.588 177.148C191.738 174.73 190.245 171.876 188.95 169.001C187.436 165.948 186.222 163.867 185.485 162.538C184.749 161.21 180.867 154.59 180.41 154.035Z" fill="#1D1D1B"/>
<path fill-rule="evenodd" clip-rule="evenodd" d="M215.805 163.058C214.753 162.564 213.72 162.268 212.489 161.993C211.06 161.737 209.87 161.858 208.522 162.397C207.193 163.133 205.886 164.068 204.796 165.181C203.687 166.096 203.038 169.57 201.609 169.315C200.18 169.059 203.29 166.137 203.428 165.521C203.505 164.311 200.569 165.011 199.399 165.33C198.051 165.868 196.723 166.605 195.613 167.52C194.01 169.487 192.604 171.434 191.418 173.56C190.883 174.216 190.247 173.879 190.762 173.025C192.107 170.483 193.868 168.099 195.848 165.892C197.314 164.54 199.258 163.942 201.043 163.76C202.035 163.659 203.068 163.954 204.08 164.052C204.477 164.011 206.08 162.044 207.449 161.704C208.599 161.186 209.967 160.846 211.376 160.903C212.984 160.94 214.433 161.394 215.923 162.244C216.38 162.799 216.222 163.216 215.805 163.058Z" fill="#1D1D1B"/>
<path fill-rule="evenodd" clip-rule="evenodd" d="M225.481 147.841C222.76 146.715 221.769 146.816 222.007 147.192C222.246 147.569 223.238 147.468 224.529 148.339C224.967 148.695 221.416 149.257 219.274 149.876C216.338 150.576 213.184 151.098 210.229 151.599C205.686 152.262 200.945 152.946 197.151 151.127C193.358 149.308 192.699 146.77 192.164 147.425C191.63 148.081 192.544 149.191 192.544 149.191C190.84 150.166 188.916 150.963 186.973 151.562C183.462 152.521 179.199 153.958 175.944 153.487C172.093 153.078 168.478 151.04 166.151 147.87C164.241 144.857 164.055 141.068 166.765 136.181C169.397 132.506 172.904 129.543 177.127 127.709C179.864 127.03 182.641 126.747 185.48 127.059C188.257 126.776 190.463 128.756 190.548 131.554C190.652 134.55 190.36 137.587 190.684 140.761C190.966 143.538 191.642 144.271 192.416 143.992C193.189 143.713 191.44 142.288 191.53 137.267C191.644 134.449 190.759 127.724 191.727 125.421C192.695 123.117 198.311 123.146 200.91 123.082C205.157 123.451 209.266 124.436 213.218 125.838C217.169 127.239 220.962 129.058 224.577 131.095C227.338 132.618 231.034 135.449 231.569 134.793C232.103 134.137 229.917 132.355 226.104 130.338C222.509 128.5 218.716 126.681 214.943 125.061C211.566 123.4 207.874 122.573 204.024 122.164C199.756 121.596 195.392 122.041 191.108 123.279C187.816 124.416 188.573 125.942 186.33 125.569C183.253 124.88 180.277 125.184 177.362 126.082C172.702 127.559 168.6 130.582 165.809 134.675C164.048 137.059 162.962 140.177 163.265 143.153C163.787 146.307 165.28 149.161 167.685 151.121C169.851 152.705 172.373 153.851 175.231 154.362C177.891 154.893 183.96 153.473 187.252 152.336C189.196 151.737 190.9 150.761 192.585 149.588C194.135 151.033 196.042 152.042 198.107 152.633C201.56 153.083 204.973 153.137 208.544 152.773C212.293 152.191 216.023 151.41 219.711 150.233L224.788 148.914C225.363 148.655 225.979 148.792 226.416 149.149C227.072 149.683 228.145 150.376 227.886 149.801C227.627 149.226 227.388 148.849 225.481 147.841Z" fill="#1D1D1B"/>
<path d="M301.409 174.986C293.305 170.199 284.864 166.047 276.067 162.333C266.177 157.728 255.772 153.977 245.25 151.039C232.485 147.729 224.902 146.096 224.902 146.096C224.902 146.096 224.307 146.156 224.287 145.958C224.267 145.76 224.445 145.541 224.842 145.501C225.238 145.46 232.623 147.114 245.586 150.404C256.307 153.321 266.711 157.072 276.601 161.677C285.378 165.193 294.038 169.523 302.142 174.31C302.361 174.488 302.401 174.885 302.025 175.124C302.065 175.521 301.648 175.363 301.409 174.986Z" fill="#1D1D1B"/>
<path d="M310.022 153.262C309.824 153.283 287.014 147.788 270.362 145.676C262.026 144.52 253.751 143.96 245.337 144.015C232.102 143.96 224.92 144.29 224.92 144.29C224.721 144.31 224.503 144.132 224.284 143.954C224.264 143.756 224.442 143.537 224.64 143.517C231.604 143.008 238.588 142.698 245.633 142.982C253.451 142.988 261.528 143.569 269.269 144.785C283.103 146.783 296.601 149.418 310.16 152.647C310.379 152.825 310.836 153.38 310.638 153.4C310.439 153.42 310.221 153.242 310.022 153.262Z" fill="#1D1D1B"/>
<path d="M223.466 141.833C223.268 141.853 223.069 141.873 223.049 141.675C223.029 141.476 223.009 141.278 223.187 141.059C223.187 141.059 233.896 137.964 244.448 135.286C253.829 132.927 263.49 131.342 273.211 130.352C295.629 128.069 307.435 127.869 307.852 128.027C308.051 128.006 308.29 128.383 308.111 128.602C307.933 128.82 307.735 128.84 307.536 128.861C307.536 128.861 295.512 128.882 273.292 131.145C263.571 132.136 254.108 133.701 244.727 136.059C234.354 138.519 223.665 141.812 223.466 141.833Z" fill="#1D1D1B"/>
<path d="M108.361 164.981C108.142 164.802 108.102 164.406 108.28 164.187C108.28 164.187 118.189 157.164 127.048 151.652C134.6 147.074 142.868 143.626 151.497 141.745C157.963 140.285 164.668 139.201 171.194 138.336C171.591 138.296 171.83 138.672 171.652 138.891C171.692 139.287 171.316 139.526 171.097 139.348C164.55 140.015 158.044 141.078 151.796 142.717C143.366 144.578 135.078 147.827 127.724 152.385C118.865 157.897 109.333 164.681 109.134 164.701C108.758 164.94 108.559 164.96 108.361 164.981Z" fill="#1D1D1B"/>
<path d="M109.088 140.652C108.89 140.672 108.671 140.494 108.671 140.494C108.651 140.296 108.631 140.097 108.829 140.077C108.829 140.077 108.829 140.077 109.028 140.057C115.81 137.762 122.851 136.043 129.932 134.721C139.633 133.532 149.435 133.336 159.338 134.131C169.261 135.125 172.241 136.826 172.439 136.806C172.638 136.786 172.856 136.964 172.678 137.182C172.5 137.401 172.322 137.62 172.103 137.441C172.103 137.441 169.124 135.74 159.2 134.746C149.496 133.931 139.714 134.326 130.211 135.494C122.713 136.659 115.89 138.556 109.088 140.652Z" fill="#1D1D1B"/>
<path d="M172.258 135.021C167.886 131.457 163 128.748 157.777 126.674C151.721 124.284 145.328 122.53 138.838 121.787C133.757 121.102 128.36 121.251 123.222 121.975C123.024 121.995 122.805 121.817 122.785 121.618C122.765 121.42 122.943 121.201 123.142 121.181C128.28 120.457 133.677 120.309 138.956 120.974C145.466 121.914 152.037 123.45 158.114 126.038C163.336 128.112 168.243 131.02 172.813 134.564C173.011 134.543 172.894 135.357 172.258 135.021Z" fill="#1D1D1B"/>
<path fill-rule="evenodd" clip-rule="evenodd" d="M194.12 186.314C195.651 187.561 197.557 188.57 199.582 188.764C201.408 188.979 205.476 189.567 205.772 188.535C206.068 187.502 202.1 187.906 200.076 187.712C197.238 187.399 193.206 185.204 194.12 186.314Z" fill="#1D1D1B"/>
<path fill-rule="evenodd" clip-rule="evenodd" d="M255.731 120.105C255.136 120.166 255.475 121.534 254.329 124.056C253.677 125.526 252.231 127.076 252.709 127.829C253.186 128.583 255.086 125.583 255.341 124.154C255.597 122.725 256.743 120.202 255.731 120.105Z" fill="#1D1D1B"/>
<path fill-rule="evenodd" clip-rule="evenodd" d="M248.752 112.598C249.149 112.557 249.63 115.315 249.512 116.128C249.536 118.331 249.163 120.574 248.79 122.817C248.179 124.683 247.133 128.197 246.461 129.468C245.789 130.739 245.473 131.573 244.837 131.237C244.202 130.901 245.607 128.954 245.883 127.723C246.158 126.492 247.146 124.387 247.56 122.541C247.953 120.497 248.346 118.452 248.541 116.428C248.796 114.999 248.157 112.658 248.752 112.598Z" fill="#1D1D1B"/>
<path fill-rule="evenodd" clip-rule="evenodd" d="M167.098 111.893C166.681 111.735 165.514 114.059 164.98 114.714C164.664 115.548 164.368 116.581 164.271 117.593C164.133 118.208 164.116 120.014 164.711 119.953C165.307 119.893 165.165 118.504 165.283 117.69C165.38 116.678 165.457 115.468 165.972 114.613C166.486 113.759 167.515 112.051 167.098 111.893Z" fill="#1D1D1B"/>
<path d="M192.229 140.202C189.828 140.246 183.015 136.33 181.262 132.9C180.028 130.621 180.36 127.981 181.964 126.014C184.24 122.775 187.848 120.804 195.31 121.247C199.516 121.219 203.37 123.633 205.54 127.221C206.555 129.322 206.223 131.962 204.599 133.731C201.59 137.645 194.431 140.178 192.229 140.202Z" fill="#1D1D1B"/>
<path d="M197.621 126.223C197.722 127.215 195.146 129.482 192.11 129.19C189.073 128.898 187.92 127.412 187.997 126.201C188.252 124.772 189.738 123.619 192.913 123.295C195.909 123.191 197.678 124.815 197.621 126.223Z" fill="white"/>
<path d="M229.311 83.1072C228.638 84.3783 230.091 86.8362 231.86 88.4601C233.431 90.1042 235.159 91.3313 237.265 92.3196C238.933 92.9515 240.799 93.5632 242.245 92.0128C243.69 90.4625 241.78 87.4498 239.513 84.8744C237.943 83.2303 236.016 82.0234 233.752 81.4521C231.53 81.2776 230.181 81.8158 229.311 83.1072Z" fill="#1D1D1B"/>
<path d="M179.402 90.9958C180.871 91.648 182.677 91.6645 184.203 90.9077C185.75 90.3493 187.256 89.3941 188.743 88.2405C189.832 87.1273 191.476 85.5567 190.719 84.0302C189.962 82.5037 187.104 81.993 183.832 83.3284C181.69 83.9475 179.828 85.3399 178.819 87.2466C177.831 89.3518 178.527 90.2831 179.402 90.9958Z" fill="#1D1D1B"/>
<path d="M195.45 89.1611L208.09 89.2769C208.09 89.2769 203.566 78.3121 204.688 73.5875C206.637 65.1705 215.657 71.0672 217.507 73.4847C219.356 75.9021 227.013 74.3206 227.013 74.3206C227.013 74.3206 226.734 73.5472 227.783 72.0372C229.305 69.2763 230.391 66.159 231.08 63.0821C232.243 58.7542 233.308 55.4385 228.795 50.486C221.14 42.2454 208.816 41.2956 209.533 42.4253C210.249 43.5551 216.188 46.7588 220.312 55.7599C223.918 63.6111 224.05 70.8138 223.078 71.1132C222.106 71.4126 222.314 65.5784 214.145 58.192C206.612 51.1417 200.102 50.2011 192.98 51.1269C187.842 51.8506 180.132 56.8453 180.132 56.8453L186.896 66.1789C189.471 63.9121 192.544 62.5969 195.877 61.8566C201.213 61.1127 203.695 61.8622 204.35 62.3967C205.006 62.9313 202.901 61.943 199.236 65.323C196.543 68.4035 194.943 72.375 194.752 76.4035C193.986 80.6909 194.431 85.0555 195.45 89.1611Z" fill="#1D1D1B"/>
<path fill-rule="evenodd" clip-rule="evenodd" d="M174.662 190.1C168.831 213.545 164.231 237.265 161.477 261.399C157.122 299.327 150.941 392.163 157.226 410.566C163.51 428.968 266.052 426.142 287.756 412.907C341.311 379.79 285.529 290.659 285.529 290.659C285.529 290.659 266.152 285.416 255.91 261.604C245.667 237.791 249.786 189.665 249.786 189.665L241.696 192.894C240.772 197.599 240.265 202.461 239.956 207.303C239.534 214.963 239.333 224.806 239.333 224.806C239.333 224.806 225.227 226.042 203.777 226.022C184.529 225.977 176.509 223.988 176.509 223.988C177.033 217.32 177.953 210.611 179.27 203.862C180.806 197.291 181.791 193.182 181.791 193.182L174.662 190.1Z" fill="white"/>
<path d="M272.263 67.9077C269.987 71.1463 268.148 74.7412 266.924 78.4739" stroke="#1D1D1B" stroke-width="1.49563" stroke-miterlimit="10"/>
<path d="M295.573 21.2339C296.848 23.9104 297.746 26.8256 298.029 29.6031C298.17 30.9918 298.292 32.1822 298.036 33.6113" stroke="#1D1D1B" stroke-width="1.49563" stroke-linecap="round" stroke-linejoin="round"/>
<path d="M161.14 262.035C164.092 237.881 168.651 213.763 174.681 190.298L183.854 193.774C183.854 193.774 182.712 198.3 180.978 204.891C179.64 211.441 178.74 218.348 178.216 225.017C178.216 225.017 184.192 226.613 203.44 226.657C224.89 226.677 236.02 225.744 236.02 225.744C236.02 225.744 236.22 215.902 236.643 208.242C236.951 203.4 237.458 198.537 238.382 193.833L249.448 190.3C249.448 190.3 245.33 238.427 255.572 262.239C265.815 286.052 286.224 291.59 286.224 291.59C286.224 291.59 293.153 282.867 299.718 292.221C317.564 317.865 337.772 398.191 287.419 413.542C263.125 421.028 163.172 429.604 156.888 411.201C150.604 392.799 156.586 299.983 161.14 262.035ZM167.574 405.904C168.678 412.807 183.427 415.915 198.212 417.416C212.998 418.917 243.776 419.992 265.79 413.741C287.804 407.49 298.835 395.742 299.532 375.025C300.338 349.486 288.178 318.653 288.178 318.653L272.112 300.645L258.28 288.824C251.042 280.741 245.667 271.266 242.613 260.953C239.999 253.001 238.377 244.948 237.33 236.636C224.414 237.751 211.219 238.092 198.34 237.6C181.016 236.758 176.53 236.013 176.53 236.013C176.53 236.013 171.6 252.551 167.738 311.074C163.86 371.404 166.271 399.02 167.574 405.904Z" fill="#FCC513"/>
<path d="M174.66 190.1C168.83 213.545 164.23 237.265 161.476 261.399C157.12 299.327 150.94 392.163 157.224 410.566C163.508 428.968 264.339 423.109 287.755 412.907C342.041 388.937 313.421 320.491 299.775 290.812C293.381 277.231 285.527 290.659 285.527 290.659C285.527 290.659 266.151 285.416 256.107 261.583C246.063 237.751 249.785 189.665 249.785 189.665L238.719 193.197C238.719 193.197 237.523 201.136 237.08 208.598C236.637 216.06 236.356 225.109 236.356 225.109C236.356 225.109 225.226 226.042 203.776 226.021C184.528 225.977 178.553 224.381 178.553 224.381C178.553 224.381 179.761 212.632 181.314 204.255C181.942 200.583 182.789 197.089 183.834 193.575L174.66 190.1Z" stroke="#1D1D1B" stroke-width="1.49563" stroke-miterlimit="10"/>
<path d="M247.511 192.903C247.511 192.903 243.184 225.215 249.164 250.465C255.082 275.118 264.478 280.776 264.478 280.776" stroke="#F3941F" stroke-width="1.49563" stroke-linecap="round" stroke-linejoin="round" stroke-dasharray="1.99 1.99"/>
<path d="M176.571 193.113C170.092 220.032 165.678 247.542 163.288 275.247C158.061 336.114 157.181 364.868 157.181 364.868" stroke="#F3941F" stroke-width="1.49563" stroke-linecap="round" stroke-linejoin="round" stroke-dasharray="1.99 1.99"/>
<path d="M293.933 394.838C293.933 394.838 316.519 386.323 306.948 339.591C303.684 323.286 294.073 297.806 286.601 291.351C279.784 285.43 276.837 301.766 267.68 296.485C258.284 290.827 257.722 287.276 257.722 287.276C257.722 287.276 257.771 303.508 261.01 349.081C264.248 394.654 264.623 404.237 268.987 403.793C273.352 403.348 293.933 394.838 293.933 394.838Z" fill="#E6F2FC"/>
<path d="M234.834 249.518C236.307 252.174 250.941 387.992 248.208 390.675C245.474 393.359 236.829 397.046 236.344 392.284C235.86 387.523 234.813 335.914 233.055 297.005C231.297 258.097 232.425 245.554 234.834 249.518Z" fill="#E6F2FC"/>
<path fill-rule="evenodd" clip-rule="evenodd" d="M258.808 284.159C256.374 287.814 254.576 291.806 253.214 296.154C252.153 301.474 250.361 309.474 254.307 318.694C258.253 327.913 263.463 333.797 270.43 335.292C277.398 336.788 284.24 335.089 286.95 330.202C288.513 327.838 289.004 324.781 288.105 321.866C289.871 321.486 291.337 320.134 291.75 318.288C291.985 316.66 292.002 314.855 291.423 313.109C292.869 311.559 293.659 309.474 293.436 307.292C292.995 304.931 291.761 302.652 290.15 300.611C290.15 300.611 285.058 293.913 281.224 291.698C276.735 288.948 271.909 286.833 267.104 284.917C264.622 284.168 261.784 283.856 258.808 284.159Z" fill="white"/>
<path fill-rule="evenodd" clip-rule="evenodd" d="M260.255 282.611C259.38 281.898 257.955 283.647 256.432 286.408C254.909 289.169 251.527 295.326 251.182 301.776C250.836 308.225 251.527 316.974 255.368 323.198C259.209 329.422 263.046 333.641 267.832 335.359C272.815 337.056 278.411 336.887 283.387 334.576C286.023 332.905 288.182 330.48 289.069 327.383C289.482 325.537 289.697 323.711 289.495 321.727C291.042 321.169 292.289 319.638 292.723 317.991C292.958 316.363 292.796 314.776 292.238 313.229C293.882 311.659 294.652 309.375 294.211 307.015C293.948 304.436 292.714 302.156 290.746 300.552C289.435 299.483 287.471 299.884 288.345 300.596C289.22 301.309 292.159 302.613 292.502 305.986C292.765 308.565 292.254 311.423 291.659 311.484C291.064 311.545 289.51 308.095 286.235 307.426C284.19 307.033 281.967 306.859 279.765 306.882C278.773 306.983 277.546 308.712 278.538 308.611C279.53 308.51 283.477 307.907 285.582 308.896C287.886 309.864 289.675 311.686 290.136 314.245C290.419 317.023 290.265 319.444 288.916 319.982C287.568 320.52 288.297 317.84 285.099 315.961C282.755 314.596 280.274 313.846 277.476 313.931C275.909 314.291 275.115 314.372 275.196 315.165C275.277 315.959 276.071 315.878 277.876 315.895C279.682 315.911 283.532 316.321 284.666 317.608C286.872 319.589 287.811 322.901 286.903 325.799C285.522 329.949 283.938 332.115 281.44 333.171C277.176 334.608 272.375 334.696 268.026 333.335C263.638 331.577 257.931 324.741 256.158 321.113C253.111 314.809 251.986 307.707 252.887 300.8C253.945 293.476 255.901 289.067 257.148 287.537C260.91 283.145 260.255 282.611 260.255 282.611Z" fill="#1D1D1B"/>
<path fill-rule="evenodd" clip-rule="evenodd" d="M270.206 321.286C270.943 322.614 274.171 318.878 275.794 317.109C277.378 314.943 278.743 312.599 279.492 310.117C280.084 308.052 280.753 304.777 280.056 303.846C279.36 302.914 278.826 303.57 278.789 305.178C278.655 307.797 277.905 310.279 276.917 312.384C275.73 314.509 274.325 316.456 272.681 318.027C271.632 319.537 269.668 319.937 270.206 321.286Z" fill="#1D1D1B"/>
<path fill-rule="evenodd" clip-rule="evenodd" d="M283.6 255.978C283.008 258.043 271.204 270.069 268.847 272.514C265.599 276.052 259.403 284.1 259.403 284.1C261.852 288.461 264.677 292.583 267.879 296.467C271.417 299.714 275.51 302.505 279.76 304.878C279.76 304.878 298.852 295.517 303.112 292.076C309.571 286.608 315.592 280.783 321.177 274.602C324.898 269.813 327.944 264.291 329.957 258.473C331.339 254.323 329.401 247.104 326.774 242.962C322.613 235.568 317.125 228.911 310.546 223.367C299.119 213.506 286.319 201.981 281.352 198.478C276.385 194.975 271.434 189.666 265.956 189.021C247.3 186.912 252.289 202.44 254.519 206.623C257.288 212.154 250.416 219.469 251.812 223.335C253.547 228.571 265.469 237.379 270.299 241.497C275.128 245.616 284.248 252.505 283.6 255.978Z" fill="#E9E9E9"/>
<path fill-rule="evenodd" clip-rule="evenodd" d="M292.011 299.22L304.754 290.505C298.083 287.978 291.864 284.001 286.537 278.931C282.344 275.148 278.506 270.929 275.066 266.669L267.538 273.449L259.321 283.306C259.321 283.306 260.085 288.841 267.679 296.486C271.059 300.151 275.391 303.318 279.998 305.254L292.011 299.22Z" fill="#004E96"/>
<path fill-rule="evenodd" clip-rule="evenodd" d="M280.157 249.713C280.157 249.713 285.28 240.973 290.135 237.472C298.716 231.186 301.352 229.514 309.17 229.52C317.385 229.485 317.644 230.06 317.644 230.06C317.644 230.06 326.852 241.75 328.965 246.747C333.788 258.683 322.583 272.653 322.583 272.653C322.583 272.653 319.354 264.563 303.313 260.585C294.896 258.635 286.167 259.524 278.296 262.932C278.296 262.932 283.981 257.743 283.439 254.39C283.039 252.426 281.865 250.742 280.157 249.713Z" fill="#004E96"/>
<path fill-rule="evenodd" clip-rule="evenodd" d="M250.588 227.068L268.509 239.675C269.91 235.724 271.927 231.91 274.402 228.651C277.925 223.883 282.323 219.827 287.437 216.901C291.442 214.889 295.725 213.651 300.11 213.405L281.052 197.506C275.416 197.278 269.942 198.637 265.006 201.345C253.312 208.549 249.812 215.521 249.812 215.521L250.588 227.068Z" fill="#004E96"/>
<path fill-rule="evenodd" clip-rule="evenodd" d="M270.182 189.191C276.182 192.99 282.023 197.206 287.31 201.879C296.094 209.404 307.919 219.224 313.266 224.492C319.706 230.652 329.988 243.035 330.618 251.189C331.49 261.724 329.214 264.963 321.791 274.739C315.753 282.37 308.8 288.891 300.734 294.322C292.708 300.151 281.269 305.926 280.039 305.651C275.512 304.508 268.635 297.993 265.712 294.883C263.227 292.129 257.378 283.905 258.646 282.573C262.189 278.003 265.951 273.611 270.13 269.376C274.151 265.559 282.174 257.727 282.765 255.662C283.219 254.212 279.462 250.786 277.892 249.142C274.095 245.32 270.14 241.914 265.808 238.747C256.906 232.036 249.874 227.942 249.595 227.168C249.316 226.395 249.017 225.423 250.705 226.254C255.81 229.141 260.757 232.446 265.327 235.99C270.334 239.89 280.908 249.236 280.272 248.9C281.604 250.167 282.758 251.654 283.932 253.338C284.389 253.893 284.442 250.48 285.098 251.014C286.231 252.302 285.62 254.168 284.611 256.075C281.902 260.961 281.286 260.824 276.176 265.754C274.175 267.762 270.195 271.976 266.372 275.773C263.995 278.019 261.857 280.642 260.354 283.602C259.625 286.282 276.168 305.043 280.412 303.408C286.161 300.818 291.652 297.653 297.102 294.091C300.451 291.545 312.182 282.733 316.657 277.467C320.042 273.313 327.052 265.383 328.467 257.622C330.295 248.015 326.077 242.03 319.155 233.113C315.059 228.319 310.388 223.783 305.558 219.665C301.364 215.883 298.126 213.607 291.965 208.221C284.909 201.923 282.764 200.538 278.392 196.975C273.801 193.233 268.854 189.928 263.591 187.457C258.608 185.76 264.381 185.372 270.182 189.191Z" fill="#1D1D1B"/>
<path opacity="0.18" d="M268.2 189.393C257.477 196.298 245.561 201.32 233.184 203.784C213.328 207.61 186.968 202.677 182.858 201.693C176.267 199.959 170.349 196.953 164.904 192.697L168.067 186.362C168.067 186.362 176.297 194.343 204.099 195.721C231.703 197.119 251.989 189.641 258.232 185.998C259.561 185.262 257.386 189.492 257.386 189.492L262.479 186.368L268.2 189.393Z" fill="#1D1D1B"/>
<path d="M77.1121 222.284C77.1121 222.284 77.7827 209.187 79.6784 204.183C81.5742 199.179 84.6676 198.062 87.21 199.407C89.7523 200.751 90.95 204.639 91.0547 207.635C91.1594 210.631 89.001 213.055 89.001 213.055C89.001 213.055 85.7863 212.982 81.8625 215.787C77.7201 218.414 77.9461 222.6 77.1121 222.284C76.2781 221.968 69.0148 221.505 65.0304 223.715C61.046 225.925 56.7291 230.775 55.3881 235.321C54.2455 239.847 58.9371 244.581 64.1926 243.044C68.0796 241.846 80.312 235.99 80.312 235.99C88.1668 234.388 94.9489 232.094 97.01 230.681C99.071 229.268 103.432 226.82 107.523 217.784C112.286 207.477 112.542 206.048 112.542 206.048C112.542 206.048 112.648 199.221 109.127 194.168C105.585 188.916 104.975 180.96 103.915 176.458C102.856 171.955 98.3789 165.396 92.5686 167.391C86.7583 169.385 84.5264 175.025 83.8007 179.709C83.0751 184.393 88.1708 193.095 88.1708 193.095C88.1708 193.095 80.3288 190.887 71.8953 190.744C63.4619 190.6 55.4086 192.222 50.9136 197.29C46.4185 202.359 49.6607 206.639 51.9844 207.805C54.3082 208.972 58.9116 208.904 58.9116 208.904C65.3373 207.047 71.6491 208.007 72.5235 208.72" fill="white"/>
<path d="M77.1121 222.284C77.1121 222.284 77.7827 209.187 79.6784 204.183C81.5742 199.179 84.6676 198.062 87.21 199.407C89.7523 200.751 90.95 204.639 91.0547 207.635C91.1594 210.631 89.001 213.055 89.001 213.055C89.001 213.055 85.7863 212.982 81.8625 215.787C77.7201 218.414 77.9461 222.6 77.1121 222.284ZM77.1121 222.284C76.2781 221.968 69.0148 221.505 65.0304 223.715C61.046 225.925 56.7291 230.775 55.3881 235.321C54.2455 239.847 58.9371 244.581 64.1926 243.044C68.0796 241.846 80.312 235.99 80.312 235.99C88.1668 234.388 94.9489 232.094 97.01 230.681C99.071 229.268 103.432 226.82 107.523 217.784C112.286 207.477 112.542 206.048 112.542 206.048C112.542 206.048 112.648 199.221 109.127 194.168C105.585 188.916 104.975 180.96 103.915 176.458C102.856 171.955 98.3789 165.396 92.5686 167.391C86.7583 169.385 84.5264 175.025 83.8007 179.709C83.0751 184.393 88.1708 193.095 88.1708 193.095C88.1708 193.095 80.3288 190.887 71.8953 190.744C63.4619 190.6 55.4086 192.222 50.9136 197.29C46.4185 202.359 49.6607 206.639 51.9844 207.805C54.3082 208.972 58.9116 208.904 58.9116 208.904C65.3373 207.047 71.6491 208.007 72.5235 208.72" stroke="#1D1D1B" stroke-width="1.49563" stroke-miterlimit="10" stroke-linecap="round" stroke-linejoin="round"/>
<path d="M75.248 200.024C74.3002 202.526 72.9959 205.465 72.7038 208.501C72.3143 212.55 72.8966 216.299 72.8966 216.299" stroke="#1D1D1B" stroke-width="1.49563" stroke-miterlimit="10" stroke-linecap="round" stroke-linejoin="round"/>
<defs>
<radialGradient id="paint0_radial_2595_96557" cx="0" cy="0" r="1" gradientUnits="userSpaceOnUse" gradientTransform="translate(229.88 124.041) rotate(174.185) scale(11.6003)">
<stop stop-color="#ABC80E"/>
<stop offset="0.36" stop-color="#ABC80E"/>
<stop offset="0.4" stop-color="#ABC80E"/>
<stop offset="1" stop-color="#006D28"/>
</radialGradient>
<radialGradient id="paint1_radial_2595_96557" cx="0" cy="0" r="1" gradientUnits="userSpaceOnUse" gradientTransform="translate(182.973 117.472) rotate(174.185) scale(9.89671)">
<stop stop-color="#ABC80E"/>
<stop offset="0.36" stop-color="#ABC80E"/>
<stop offset="0.4" stop-color="#ABC80E"/>
<stop offset="1" stop-color="#006D28"/>
</radialGradient>
</defs>
</svg>
