<svg width="115" height="286" viewBox="0 0 115 286" fill="none" xmlns="http://www.w3.org/2000/svg">
<g clip-path="url(#clip0_3212_28909)">
<path fill-rule="evenodd" clip-rule="evenodd" d="M75.7186 240.775C75.5143 243.009 75.3017 245.243 75.1099 247.478C75.1039 247.549 75.1251 247.619 75.1692 247.675C75.2134 247.731 75.2772 247.768 75.3476 247.778L77.1235 248.041C77.1939 248.051 77.2576 248.088 77.3018 248.144C77.346 248.199 77.3672 248.27 77.3611 248.341C76.6885 255.87 76.0146 263.396 75.3392 270.919L74.0886 284.835C74.0736 285.004 73.9977 285.161 73.875 285.279C73.7523 285.396 73.5912 285.465 73.4216 285.472C65.7093 285.772 57.8928 285.939 50.0764 285.977C49.9785 285.976 49.8818 285.955 49.7925 285.915C49.7032 285.875 49.6231 285.817 49.5573 285.745C49.4915 285.672 49.4414 285.587 49.4102 285.494C49.379 285.401 49.3674 285.303 49.376 285.206C49.968 279.514 50.5572 273.816 51.1436 268.113C51.9273 260.518 52.7152 252.921 53.5073 245.323C53.511 245.286 53.5221 245.25 53.54 245.218C53.5579 245.186 53.5823 245.158 53.6115 245.135C53.6395 245.111 53.6721 245.094 53.7074 245.084C53.7426 245.074 53.7795 245.071 53.8158 245.077L55.5708 245.26C55.6073 245.264 55.6442 245.261 55.6794 245.25C55.7146 245.24 55.7473 245.223 55.7757 245.199C55.8041 245.176 55.8275 245.147 55.8446 245.115C55.8616 245.082 55.872 245.047 55.8751 245.01C56.1086 242.784 56.3379 240.529 56.5713 238.302C57.3592 230.611 76.4189 233.15 75.7269 240.804L75.7186 240.775ZM28.1694 235.772C27.9026 237.998 27.6399 240.228 27.369 242.442C27.3606 242.513 27.3252 242.578 27.2701 242.624C27.215 242.67 27.1444 242.693 27.073 242.688L25.2804 242.567C25.2089 242.562 25.1384 242.585 25.0833 242.631C25.0282 242.677 24.9928 242.742 24.9844 242.813C24.0673 250.317 23.1793 257.821 22.2705 265.325C21.4868 271.778 20.7086 278.228 19.936 284.676C19.9223 284.772 19.9298 284.87 19.9579 284.963C19.986 285.056 20.034 285.141 20.0986 285.214C20.1596 285.289 20.2364 285.35 20.3237 285.391C20.4109 285.433 20.5063 285.455 20.603 285.456C28.3069 285.756 36.1151 285.923 43.9482 285.96C44.1212 285.961 44.2884 285.897 44.4171 285.782C44.5458 285.666 44.6268 285.507 44.6444 285.335L46.5245 267.634C47.3333 260.039 48.1407 252.443 48.9466 244.847C48.9512 244.811 48.9485 244.774 48.9385 244.739C48.9285 244.704 48.9116 244.671 48.8886 244.643C48.8656 244.614 48.8371 244.591 48.8048 244.574C48.7725 244.557 48.7371 244.546 48.7007 244.543L46.9456 244.36C46.8718 244.351 46.8045 244.313 46.758 244.255C46.7344 244.228 46.7169 244.195 46.7069 244.16C46.6968 244.124 46.6943 244.087 46.6996 244.051C46.9414 241.821 47.1874 239.57 47.4208 237.348C48.2504 229.64 29.0782 228.16 28.1694 235.776V235.772ZM21.1575 235.393C20.8865 237.606 20.6197 239.791 20.3237 241.979C20.3191 242.017 20.3222 242.056 20.333 242.092C20.3437 242.129 20.3619 242.163 20.3862 242.192C20.4107 242.222 20.4412 242.246 20.4757 242.263C20.5101 242.28 20.5478 242.29 20.5863 242.292L21.5577 242.363C21.5962 242.365 21.6339 242.374 21.6683 242.392C21.7028 242.409 21.7333 242.433 21.7578 242.463C21.7821 242.492 21.8003 242.526 21.811 242.563C21.8218 242.599 21.8249 242.638 21.8203 242.676C20.9323 250.125 20.011 257.629 19.1106 265.087C18.3143 271.594 17.5098 278.139 16.7135 284.655C16.6926 284.83 16.6062 284.991 16.4715 285.105C16.3369 285.218 16.1642 285.277 15.9882 285.268C10.8077 285.032 5.69541 284.733 0.65117 284.372C0.555747 284.367 0.462443 284.342 0.377574 284.298C0.292706 284.254 0.218252 284.193 0.159253 284.117C0.0959776 284.045 0.0490646 283.96 0.0217235 283.868C-0.00561767 283.776 -0.0127418 283.679 0.000838586 283.584C0.863778 277.006 1.74339 270.406 2.6105 263.828C3.57349 256.512 4.54482 249.237 5.50364 241.904C5.51293 241.834 5.54799 241.77 5.60196 241.725C5.65593 241.679 5.72493 241.656 5.79546 241.658C6.15397 241.658 6.50832 241.692 6.87101 241.696C6.93965 241.696 7.00607 241.672 7.05759 241.626C7.10911 241.581 7.14212 241.518 7.15032 241.45C7.42546 239.303 7.72144 237.135 7.98407 234.963C8.98042 227.53 22.0954 227.839 21.1575 235.397V235.393ZM95.6079 244.147C95.4245 246.332 95.2535 248.516 95.0868 250.671C95.0813 250.739 95.1007 250.807 95.1414 250.861C95.182 250.915 95.2412 250.953 95.3077 250.967C95.6621 251.038 96.0206 251.101 96.3833 251.159C96.4517 251.171 96.5133 251.208 96.5563 251.263C96.5994 251.317 96.6209 251.386 96.6167 251.455C96.0331 258.817 95.4537 266.146 94.8784 273.508C94.6004 276.899 94.335 280.296 94.0821 283.701C94.0695 283.867 93.9973 284.024 93.8786 284.142C93.7599 284.26 93.6028 284.331 93.436 284.343C88.3876 284.705 83.2474 285.005 78.0531 285.243C77.9534 285.248 77.8538 285.232 77.7609 285.195C77.6681 285.159 77.5842 285.102 77.515 285.03C77.4458 284.958 77.3929 284.872 77.3599 284.778C77.3269 284.684 77.3145 284.584 77.3236 284.484C77.7071 280.09 78.0948 275.688 78.4825 271.307C79.1495 263.803 79.7998 256.299 80.4585 248.824C80.4602 248.786 80.4705 248.749 80.4885 248.715C80.5065 248.681 80.5319 248.651 80.5627 248.629C80.5927 248.604 80.6275 248.586 80.6649 248.576C80.7022 248.566 80.7413 248.564 80.7795 248.57L81.7675 248.733C81.8057 248.739 81.8448 248.737 81.8822 248.727C81.9196 248.717 81.9544 248.699 81.9843 248.674C82.0149 248.651 82.0401 248.622 82.0581 248.588C82.0761 248.554 82.0865 248.517 82.0885 248.478C82.2761 246.257 82.4679 244.064 82.6596 241.867C83.3266 234.305 96.1915 236.693 95.6079 244.168V244.147ZM104.871 173.695C91.4516 168.767 75.6894 165.357 59.7813 163.689C43.8732 162.022 27.7316 162.08 13.6078 164.106C13.5467 164.117 13.4838 164.107 13.4298 164.076C13.3758 164.046 13.3341 163.997 13.3118 163.94C13.2873 163.883 13.2826 163.819 13.2984 163.76C13.3143 163.7 13.3499 163.647 13.3993 163.61C14.1723 163.04 15.0124 162.567 15.9006 162.201C15.9452 162.182 15.984 162.152 16.0133 162.113C16.0425 162.074 16.0612 162.028 16.0674 161.98C16.4467 159.104 16.8386 156.202 17.2179 153.301C17.6348 150.124 18.0517 146.918 18.4686 143.713C18.476 143.651 18.5045 143.593 18.5493 143.55C18.5941 143.507 18.6525 143.48 18.7145 143.475L19.1314 143.417C19.1913 143.407 19.2465 143.378 19.2886 143.335C19.3307 143.291 19.3575 143.235 19.3649 143.175C19.4816 142.249 19.6067 141.32 19.7359 140.394C20.1528 137.118 24.6426 136.43 24.2132 139.74C24.0923 140.611 23.9881 141.511 23.8713 142.391C23.865 142.434 23.8692 142.479 23.8837 142.52C23.8983 142.562 23.9226 142.599 23.9547 142.629C23.9858 142.659 24.0235 142.681 24.0647 142.694C24.1059 142.707 24.1496 142.71 24.1923 142.704H24.3091C24.3517 142.697 24.3952 142.7 24.4364 142.713C24.4775 142.726 24.5151 142.748 24.5462 142.778C24.5773 142.808 24.601 142.845 24.6156 142.885C24.6301 142.926 24.6351 142.969 24.6301 143.012C24.2132 146.201 23.7963 149.42 23.4086 152.6C23.0918 155.048 22.7666 157.499 22.4623 159.925C22.4555 159.968 22.4596 160.013 22.4742 160.054C22.4887 160.096 22.5133 160.133 22.5457 160.163C22.5774 160.193 22.6159 160.215 22.658 160.227C22.7 160.24 22.7444 160.242 22.7875 160.233C23.2627 160.15 23.7504 160.058 24.2465 159.979C24.3066 159.972 24.3625 159.944 24.4049 159.901C24.4473 159.858 24.4738 159.802 24.48 159.742C24.7968 157.29 25.097 154.843 25.4138 152.363C25.8307 149.097 26.2475 145.833 26.6644 142.57C26.6717 142.508 26.7001 142.45 26.7448 142.406C26.7896 142.362 26.848 142.335 26.9104 142.329C27.0563 142.329 27.198 142.295 27.3273 142.27C27.3871 142.261 27.4423 142.232 27.4844 142.188C27.5265 142.145 27.5533 142.089 27.5607 142.028C27.6774 141.099 27.7942 140.144 27.9151 139.189C28.3319 135.854 34.1182 135.3 33.693 138.668C33.5805 139.585 33.4721 140.503 33.3595 141.42C33.3542 141.46 33.3578 141.501 33.37 141.54C33.3822 141.579 33.4028 141.615 33.4304 141.645C33.4581 141.675 33.4925 141.699 33.5307 141.714C33.569 141.729 33.6103 141.736 33.6513 141.732H33.8431C33.8835 141.73 33.9239 141.736 33.9614 141.752C33.9989 141.767 34.0326 141.79 34.0599 141.82C34.0881 141.85 34.1093 141.885 34.1215 141.924C34.1338 141.963 34.137 142.005 34.1307 142.045C33.7139 145.309 33.3178 148.594 32.9343 151.858C32.6383 154.205 32.3548 156.527 32.0755 158.845C32.0684 158.886 32.0715 158.928 32.0846 158.967C32.0977 159.007 32.1204 159.042 32.1506 159.07C32.1783 159.101 32.2126 159.125 32.2509 159.14C32.2892 159.155 32.3304 159.161 32.3715 159.158C33.1719 159.104 33.9807 159.066 34.8061 159.033C34.8726 159.03 34.9359 159.004 34.9849 158.959C35.0338 158.914 35.065 158.853 35.0729 158.787C35.3564 156.436 35.6315 154.08 35.9066 151.729C36.3235 148.394 36.7029 145.088 37.1073 141.77C37.1159 141.704 37.1474 141.644 37.1961 141.599C37.2449 141.554 37.3078 141.527 37.3741 141.524H37.7451C37.8116 141.521 37.8749 141.495 37.9239 141.45C37.9728 141.405 38.004 141.344 38.0119 141.278C38.1286 140.311 38.2412 139.36 38.3579 138.414C38.7748 135.016 45.8117 134.866 45.4198 138.293C45.2989 139.244 45.1947 140.173 45.0863 141.12C45.0799 141.158 45.0826 141.198 45.0942 141.236C45.1057 141.273 45.1259 141.308 45.153 141.336C45.1784 141.367 45.2103 141.391 45.2464 141.408C45.2825 141.424 45.3218 141.433 45.3615 141.432H45.5741C45.6135 141.431 45.6527 141.438 45.6887 141.454C45.7248 141.47 45.7569 141.494 45.7825 141.524C45.8089 141.553 45.8289 141.587 45.8411 141.625C45.8533 141.662 45.8575 141.702 45.8534 141.741C45.4726 145.076 45.0905 148.402 44.707 151.721C44.4402 154.051 44.1775 156.382 43.9024 158.712C43.8977 158.751 43.9013 158.79 43.9129 158.828C43.9246 158.866 43.944 158.9 43.97 158.93C43.996 158.959 44.0279 158.983 44.0636 158.999C44.0994 159.016 44.1382 159.024 44.1775 159.025C45.3031 159.045 46.4412 159.087 47.5918 159.133C47.6622 159.134 47.7307 159.11 47.7839 159.063C47.8371 159.017 47.8711 158.953 47.8794 158.883C48.142 156.536 48.4005 154.189 48.6715 151.796C49.055 148.419 49.426 145.067 49.8096 141.72C49.8159 141.652 49.8477 141.588 49.8988 141.543C49.9498 141.497 50.0162 141.473 50.0847 141.474H50.4349C50.5039 141.473 50.5704 141.448 50.6218 141.402C50.6732 141.356 50.7061 141.292 50.7142 141.224C50.8226 140.257 50.9226 139.306 51.0352 138.335C51.427 134.904 59.7021 135.446 59.3186 138.91C59.2185 139.869 59.1143 140.832 59.0184 141.77C59.0125 141.844 59.0351 141.917 59.0817 141.974C59.1283 142.032 59.1952 142.069 59.2685 142.078L59.527 142.099C59.565 142.101 59.6023 142.111 59.6367 142.127C59.671 142.144 59.7018 142.167 59.7271 142.195C59.7512 142.224 59.7691 142.257 59.7799 142.293C59.7906 142.329 59.7939 142.366 59.7896 142.404C59.4353 145.768 59.0809 149.132 58.7224 152.463C58.4723 154.835 58.2222 157.207 57.9679 159.55C57.9633 159.587 57.9665 159.625 57.9773 159.661C57.9881 159.696 58.0061 159.73 58.0304 159.758C58.053 159.787 58.0813 159.811 58.1136 159.828C58.1459 159.845 58.1815 159.856 58.218 159.858L61.9991 160.275C62.0363 160.28 62.074 160.277 62.1099 160.266C62.1457 160.255 62.179 160.237 62.2075 160.213C62.2643 160.166 62.3003 160.098 62.3076 160.025C62.5452 157.678 62.7995 155.306 63.0455 152.938C63.3873 149.603 63.7292 146.239 64.0793 142.879C64.0827 142.841 64.0941 142.804 64.1128 142.771C64.1315 142.738 64.157 142.709 64.1877 142.687C64.2173 142.663 64.2515 142.646 64.288 142.636C64.3246 142.626 64.3628 142.623 64.4003 142.629L64.6588 142.666C64.696 142.671 64.7336 142.667 64.7695 142.656C64.8053 142.646 64.8386 142.628 64.8672 142.604C64.8957 142.581 64.9192 142.552 64.9364 142.52C64.9536 142.488 64.9641 142.452 64.9673 142.416C65.0673 141.478 65.1674 140.515 65.2591 139.552C65.6218 136.092 73.8301 137.28 73.4925 140.715C73.3966 141.691 73.2965 142.637 73.2048 143.608C73.1982 143.677 73.2171 143.745 73.2579 143.801C73.2987 143.856 73.3584 143.894 73.4258 143.908L73.7676 143.984C73.8345 143.998 73.8937 144.037 73.9343 144.092C73.975 144.147 73.9942 144.215 73.9885 144.284C73.6634 147.619 73.3424 150.991 73.0172 154.372C72.7754 156.753 72.5461 159.104 72.321 161.459C72.3127 161.529 72.3319 161.6 72.3748 161.656C72.4176 161.712 72.4805 161.749 72.5503 161.759C73.6801 161.955 74.7973 162.151 75.9145 162.364C75.9521 162.372 75.9911 162.372 76.0287 162.364C76.0662 162.355 76.1013 162.338 76.1313 162.314C76.1637 162.292 76.1906 162.263 76.2101 162.229C76.2296 162.195 76.2412 162.157 76.2439 162.118C76.469 159.783 76.6913 157.447 76.9109 155.11C77.2277 151.775 77.5362 148.44 77.8572 145.105C77.8596 145.065 77.8709 145.027 77.8904 144.992C77.9099 144.957 77.937 144.928 77.9697 144.905C78.0014 144.882 78.0373 144.867 78.0754 144.859C78.1134 144.851 78.1527 144.851 78.1907 144.859L78.4116 144.905C78.4498 144.912 78.4891 144.911 78.527 144.902C78.5648 144.894 78.6005 144.877 78.6318 144.854C78.6631 144.831 78.6893 144.802 78.7088 144.768C78.7283 144.735 78.7406 144.697 78.7451 144.659C78.8368 143.708 78.9244 142.779 79.0161 141.828C79.3371 138.389 86.1948 139.998 85.8779 143.408C85.7987 144.359 85.707 145.309 85.6236 146.285C85.6176 146.351 85.6352 146.417 85.6734 146.471C85.7116 146.525 85.7679 146.564 85.8321 146.581L86.1906 146.672C86.2548 146.689 86.3111 146.728 86.3493 146.782C86.3875 146.836 86.4051 146.902 86.399 146.968C86.1211 150.303 85.8237 153.638 85.5069 156.973C85.2985 159.336 85.0859 161.698 84.8691 164.06C84.863 164.126 84.8807 164.193 84.9189 164.247C84.9571 164.301 85.0133 164.34 85.0775 164.356C85.8863 164.561 86.67 164.773 87.4371 164.986C87.4764 164.996 87.5176 164.998 87.5578 164.992C87.598 164.985 87.6364 164.971 87.6705 164.948C87.7049 164.925 87.7337 164.894 87.7546 164.858C87.7755 164.822 87.7881 164.782 87.7914 164.74C88.004 162.414 88.2083 160.088 88.4209 157.732C88.7002 154.456 88.9837 151.154 89.2797 147.881C89.2812 147.84 89.2927 147.8 89.313 147.765C89.3333 147.729 89.3619 147.699 89.3964 147.677C89.4297 147.653 89.468 147.637 89.5084 147.63C89.5488 147.623 89.5903 147.624 89.6299 147.635L89.8049 147.681C89.8442 147.693 89.8855 147.696 89.926 147.689C89.9664 147.683 90.0048 147.667 90.0384 147.644C90.0711 147.62 90.0985 147.589 90.1186 147.554C90.1387 147.519 90.1512 147.48 90.1551 147.439C90.2413 146.517 90.3219 145.595 90.3969 144.676C90.6929 141.295 96.2332 143.033 95.9539 146.385C95.8622 147.344 95.7788 148.302 95.7079 149.24C95.7031 149.3 95.7175 149.359 95.749 149.409C95.7806 149.46 95.8276 149.498 95.883 149.52C96.0206 149.574 96.1582 149.62 96.2999 149.666C96.3607 149.685 96.413 149.724 96.448 149.777C96.483 149.83 96.4984 149.894 96.4917 149.957L95.6579 159.792C95.4537 162.293 95.241 164.744 95.0451 167.2C95.0396 167.261 95.0546 167.323 95.0878 167.375C95.121 167.427 95.1705 167.466 95.2285 167.487C95.6913 167.662 96.1457 167.837 96.5876 168.021C96.6257 168.042 96.6688 168.054 96.7126 168.054C96.7565 168.054 96.7995 168.042 96.8377 168.021C96.8768 167.999 96.9098 167.968 96.9338 167.93C96.9578 167.892 96.972 167.849 96.9753 167.804C97.1795 165.374 97.3921 162.918 97.5922 160.459C97.8507 157.253 98.1092 154.047 98.3718 150.816C98.3755 150.773 98.3891 150.732 98.4115 150.695C98.4338 150.659 98.4643 150.628 98.5006 150.605C98.5369 150.582 98.578 150.567 98.6208 150.563C98.6635 150.558 98.7067 150.564 98.747 150.579L98.8679 150.624C98.9086 150.64 98.9525 150.646 98.9959 150.642C99.0394 150.637 99.0812 150.623 99.118 150.599C99.1548 150.576 99.1853 150.544 99.2071 150.506C99.2289 150.469 99.2412 150.426 99.2431 150.383C99.3056 149.499 99.389 148.598 99.4557 147.719C99.735 144.384 103.966 145.997 103.7 149.29C103.633 150.221 103.563 151.151 103.491 152.079C103.485 152.14 103.5 152.202 103.533 152.253C103.567 152.305 103.616 152.343 103.675 152.363L104.091 152.521C104.149 152.541 104.198 152.58 104.232 152.632C104.265 152.683 104.28 152.744 104.275 152.805C104.025 156.031 103.766 159.254 103.508 162.447C103.291 165.365 103.053 168.283 102.828 171.177C102.824 171.225 102.834 171.274 102.855 171.318C102.876 171.362 102.909 171.399 102.949 171.427C103.74 171.969 104.462 172.604 105.1 173.319C105.142 173.365 105.168 173.424 105.172 173.486C105.177 173.548 105.16 173.61 105.124 173.662C105.089 173.713 105.037 173.751 104.978 173.769C104.918 173.787 104.854 173.784 104.796 173.761L104.871 173.695ZM109.34 113.831C97.6673 106.91 82.1344 102.446 66.4013 100.791C50.6683 99.1357 34.5351 100.303 21.6786 104.634C21.6181 104.655 21.5525 104.654 21.4925 104.632C21.4326 104.61 21.382 104.568 21.3492 104.513C21.3157 104.459 21.3019 104.395 21.3103 104.332C21.3186 104.269 21.3486 104.211 21.3951 104.167C22.1454 103.459 22.9652 102.827 23.8422 102.283C23.8763 102.261 23.9053 102.232 23.9269 102.197C23.9485 102.162 23.9622 102.123 23.9672 102.083C24.3424 99.2608 24.7176 96.4343 25.0886 93.5787C25.5055 90.3896 25.9224 87.2296 26.3393 84.0405C26.3453 83.9864 26.3677 83.9355 26.4034 83.8945C26.4392 83.8535 26.4866 83.8245 26.5394 83.8112L27.0271 83.6778C27.0807 83.664 27.1288 83.6343 27.1653 83.5926C27.2017 83.551 27.2248 83.4993 27.2314 83.4444C27.3564 82.5106 27.4732 81.5767 27.5899 80.6679C28.0068 77.4205 32.434 76.0448 31.9963 79.3214C31.8921 80.176 31.7754 81.0473 31.6711 81.9061C31.6649 81.9522 31.6708 81.9992 31.6884 82.0424C31.706 82.0855 31.7345 82.1233 31.7712 82.152C31.8065 82.1831 31.8495 82.2042 31.8957 82.213C31.9419 82.2218 31.9896 82.218 32.0338 82.2021C32.0785 82.1877 32.126 82.1848 32.1721 82.1937C32.2182 82.2026 32.2613 82.2229 32.2974 82.2528C32.3335 82.2827 32.3616 82.3212 32.3789 82.3648C32.3962 82.4084 32.4023 82.4557 32.3965 82.5022C31.9796 85.6663 31.5878 88.8304 31.1751 91.9945C30.8749 94.3374 30.5706 96.6844 30.2788 99.0023C30.2717 99.0487 30.2768 99.0962 30.2936 99.14C30.3104 99.1839 30.3384 99.2226 30.3747 99.2524C30.4106 99.2824 30.4533 99.3031 30.4992 99.3125C30.545 99.322 30.5924 99.32 30.6373 99.3066C31.0917 99.1649 31.5669 99.0273 32.0422 98.8897C32.0951 98.876 32.1423 98.8462 32.1775 98.8043C32.2126 98.7625 32.2338 98.7107 32.2381 98.6563C32.541 96.2606 32.8467 93.8622 33.1552 91.4609C33.5721 88.2135 33.989 84.9326 34.4059 81.681C34.4113 81.628 34.4325 81.5778 34.4666 81.5369C34.5008 81.4961 34.5464 81.4664 34.5976 81.4517C34.7561 81.4016 34.9186 81.3516 35.0854 81.3099C35.1403 81.2979 35.19 81.2689 35.2274 81.227C35.2649 81.1851 35.2881 81.1324 35.2938 81.0765L35.6523 78.225C36.0692 74.89 41.7096 73.6977 41.2969 77.0661C41.1802 77.9721 41.069 78.8768 40.9634 79.78C40.9583 79.8228 40.9633 79.8662 40.9778 79.9068C40.9924 79.9474 41.0161 79.9841 41.0472 80.014C41.0783 80.0439 41.1159 80.0661 41.1571 80.0791C41.1982 80.092 41.2418 80.0952 41.2844 80.0885H41.3761C41.4188 80.0811 41.4627 80.084 41.504 80.0971C41.5454 80.1101 41.583 80.1329 41.6137 80.1635C41.646 80.1934 41.6707 80.2305 41.686 80.2718C41.7012 80.3131 41.7064 80.3574 41.7013 80.4011C41.3094 83.6486 40.905 86.9253 40.5048 90.1728C40.213 92.4823 39.9462 94.7585 39.6711 97.0471C39.6663 97.0897 39.6713 97.1328 39.6856 97.1732C39.6999 97.2136 39.7232 97.2502 39.7537 97.2803C39.7842 97.3103 39.8211 97.3331 39.8616 97.3469C39.9022 97.3607 39.9454 97.3651 39.9879 97.3598C40.7466 97.2556 41.5262 97.168 42.3224 97.0888C42.3857 97.0818 42.4447 97.0538 42.4901 97.0092C42.5355 96.9646 42.5645 96.906 42.5725 96.8428C42.8477 94.5125 43.1353 92.153 43.4063 89.7976C43.8065 86.4626 44.2053 83.1373 44.6027 79.8217C44.6099 79.7589 44.6381 79.7004 44.6828 79.6557C44.7274 79.6111 44.7859 79.5829 44.8487 79.5757C44.9821 79.5757 45.1155 79.5424 45.2656 79.5174C45.3255 79.5079 45.3806 79.4791 45.4227 79.4355C45.4649 79.3919 45.4916 79.3357 45.499 79.2756C45.6158 78.3209 45.7366 77.3663 45.8367 76.4074C46.2536 73.0099 53.0695 72.4221 52.6693 75.878C52.561 76.7993 52.4567 77.7206 52.3484 78.6628C52.3423 78.7035 52.346 78.7452 52.359 78.7843C52.372 78.8234 52.3941 78.8589 52.4234 78.8879C52.4507 78.9177 52.4843 78.9411 52.5219 78.9562C52.5594 78.9714 52.5998 78.9779 52.6402 78.9754H52.8027C52.8431 78.9729 52.8835 78.9795 52.9211 78.9946C52.9586 79.0098 52.9922 79.0331 53.0195 79.063C53.0485 79.0913 53.0704 79.1261 53.0834 79.1645C53.0964 79.2029 53.1003 79.2438 53.0946 79.2839C52.7055 82.6189 52.3206 85.9415 51.9398 89.2515C51.673 91.6069 51.3979 93.9622 51.1311 96.2884C51.1276 96.3282 51.1325 96.3683 51.1453 96.4062C51.1582 96.444 51.1789 96.4788 51.2059 96.5082C51.233 96.5376 51.2659 96.561 51.3025 96.577C51.3392 96.593 51.3787 96.6012 51.4187 96.6011C52.5068 96.5719 53.5906 96.6011 54.687 96.6011C54.757 96.6025 54.825 96.5776 54.8775 96.5312C54.93 96.4849 54.9632 96.4206 54.9705 96.3509C55.2373 93.9706 55.5041 91.561 55.7751 89.1556C56.1503 85.7747 56.5296 82.423 56.9132 79.0713C56.9201 79.0056 56.9505 78.9446 56.9987 78.8994C57.0469 78.8543 57.1098 78.828 57.1758 78.8253H57.5218C57.5887 78.8219 57.6521 78.7948 57.701 78.7491C57.7498 78.7033 57.7808 78.6417 57.7886 78.5752C57.8928 77.6039 58.0012 76.6534 58.1138 75.6779C58.4973 72.2178 66.4514 72.6389 66.1012 76.0739C66.0011 77.0286 65.8886 77.9874 65.7885 78.9421C65.7839 78.9799 65.7871 79.0183 65.7978 79.0548C65.8086 79.0914 65.8267 79.1254 65.8511 79.1547C65.8764 79.1831 65.9071 79.2062 65.9415 79.2227C65.9758 79.2391 66.0131 79.2486 66.0512 79.2506H66.2763C66.3137 79.2537 66.3501 79.2646 66.3831 79.2825C66.4161 79.3004 66.4451 79.3251 66.468 79.3548C66.4922 79.3825 66.5102 79.4151 66.521 79.4503C66.5318 79.4855 66.535 79.5225 66.5306 79.559C66.1679 82.8941 65.8052 86.2708 65.4509 89.6392C65.2007 92.0376 64.945 94.4361 64.6838 96.8345C64.679 96.8717 64.6821 96.9095 64.6928 96.9454C64.7036 96.9813 64.7218 97.0146 64.7463 97.043C64.7692 97.0725 64.7981 97.0967 64.8312 97.114C64.8643 97.1313 64.9008 97.1412 64.9381 97.143C66.1429 97.2472 67.3435 97.3765 68.5441 97.5224C68.5808 97.527 68.6181 97.5243 68.6538 97.5144C68.6894 97.5046 68.7228 97.4877 68.7519 97.4648C68.781 97.4419 68.8052 97.4135 68.8232 97.3811C68.8412 97.3488 68.8526 97.3132 68.8568 97.2764C69.1069 94.8752 69.3556 92.474 69.603 90.0727C69.949 86.7044 70.2992 83.336 70.6535 79.9926C70.6557 79.956 70.6657 79.9202 70.683 79.8878C70.7003 79.8555 70.7243 79.8272 70.7536 79.805C70.7822 79.781 70.8155 79.763 70.8513 79.7523C70.8872 79.7415 70.9248 79.7382 70.962 79.7425L71.1913 79.7758C71.2284 79.7817 71.2663 79.7799 71.3027 79.7705C71.3391 79.7612 71.3732 79.7444 71.4029 79.7214C71.4326 79.6983 71.4572 79.6694 71.4753 79.6365C71.4934 79.6036 71.5046 79.5673 71.5081 79.5299C71.6082 78.571 71.7082 77.6164 71.7999 76.6868C72.1501 73.2225 80.0291 74.4648 79.6873 77.9374C79.5914 78.9171 79.5039 79.8675 79.408 80.8555C79.4019 80.9216 79.4196 80.9876 79.4578 81.0419C79.4959 81.0961 79.5522 81.135 79.6164 81.1515L79.9457 81.2391C80.0092 81.2564 80.0645 81.2957 80.1019 81.3498C80.1392 81.404 80.1563 81.4696 80.15 81.535C79.829 84.8951 79.4997 88.2802 79.1704 91.636C78.9452 94.0456 78.6993 96.4593 78.47 98.8439C78.4643 98.9122 78.4836 98.9802 78.5242 99.0354C78.5648 99.0905 78.6241 99.1292 78.6909 99.144C79.7623 99.3566 80.8295 99.5609 81.8884 99.8277C81.9274 99.8377 81.968 99.8391 82.0076 99.8319C82.0472 99.8247 82.0847 99.8091 82.1177 99.786C82.1504 99.7621 82.1778 99.7316 82.1979 99.6964C82.218 99.6612 82.2305 99.6221 82.2344 99.5817C82.4512 97.2472 82.6721 94.8919 82.8973 92.5323C83.2141 89.1973 83.5392 85.8623 83.8477 82.5272C83.8517 82.4864 83.8645 82.4469 83.8854 82.4116C83.9063 82.3763 83.9347 82.346 83.9686 82.323C84.0018 82.2986 84.0402 82.2825 84.0808 82.2759C84.1214 82.2694 84.163 82.2727 84.2021 82.2854L84.348 82.323C84.3865 82.3347 84.4272 82.3374 84.467 82.3309C84.5068 82.3244 84.5445 82.3089 84.5773 82.2854C84.6112 82.2624 84.6396 82.2321 84.6605 82.1968C84.6814 82.1615 84.6943 82.122 84.6982 82.0812C84.7899 81.1348 84.8774 80.2135 84.965 79.2922C85.2943 75.853 91.8435 77.8165 91.535 81.2266C91.4558 82.1854 91.3641 83.1442 91.2765 84.1239C91.2713 84.1869 91.2874 84.2499 91.3221 84.3028C91.3569 84.3557 91.4083 84.3954 91.4683 84.4157L91.831 84.5366C91.891 84.5554 91.9428 84.5942 91.9777 84.6465C92.0126 84.6989 92.0285 84.7616 92.0227 84.8242C91.7184 88.1593 91.4099 91.4943 91.1181 94.8293C90.9097 97.193 90.7012 99.5567 90.4928 101.895C90.4861 101.959 90.5015 102.022 90.5364 102.076C90.5714 102.129 90.6238 102.168 90.6846 102.187C91.4433 102.433 92.1853 102.679 92.9149 102.942C92.9552 102.956 92.9983 102.961 93.0408 102.956C93.0833 102.95 93.1241 102.936 93.1599 102.912C93.1958 102.889 93.2258 102.858 93.2476 102.821C93.2695 102.784 93.2825 102.743 93.2859 102.7C93.4902 100.411 93.7028 98.1143 93.8987 95.8007C94.1822 92.5407 94.4698 89.2557 94.7325 85.9915C94.7358 85.9484 94.7492 85.9067 94.7717 85.8697C94.7941 85.8328 94.825 85.8017 94.8617 85.7789C94.8989 85.7563 94.9406 85.7424 94.9839 85.7381C95.0272 85.7337 95.0709 85.7391 95.1118 85.7539L95.2035 85.7914C95.2441 85.8081 95.2881 85.8146 95.3317 85.8102C95.3753 85.8058 95.4172 85.7908 95.4537 85.7664C95.4906 85.7438 95.5216 85.7128 95.5441 85.6758C95.5666 85.6388 95.5799 85.5969 95.5829 85.5538C95.6621 84.6491 95.7371 83.7403 95.8163 82.8315C96.0998 79.4507 101.378 81.7852 101.094 85.1369C101.023 86.104 100.944 87.042 100.861 88.005C100.855 88.0606 100.867 88.1164 100.895 88.1649C100.922 88.2134 100.964 88.2522 101.015 88.276C101.165 88.351 101.311 88.4344 101.461 88.5178C101.509 88.543 101.548 88.5817 101.574 88.6292C101.6 88.6766 101.611 88.7307 101.607 88.7846C101.332 92.0487 101.044 95.3421 100.773 98.6062C100.581 101.016 100.381 103.424 100.173 105.831C100.167 105.886 100.178 105.941 100.205 105.99C100.232 106.038 100.273 106.077 100.323 106.102C100.765 106.331 101.194 106.552 101.603 106.785C101.644 106.809 101.691 106.821 101.738 106.821C101.786 106.821 101.832 106.809 101.874 106.785C101.916 106.764 101.951 106.732 101.977 106.693C102.003 106.653 102.017 106.607 102.02 106.56C102.22 104.238 102.411 101.887 102.607 99.5359C102.87 96.3551 103.12 93.1785 103.387 89.9977C103.391 89.9516 103.406 89.9071 103.431 89.8685C103.457 89.8299 103.492 89.7983 103.533 89.7768C103.574 89.7534 103.621 89.7411 103.668 89.7411C103.716 89.7411 103.762 89.7534 103.804 89.7768C103.845 89.8001 103.892 89.8124 103.939 89.8124C103.987 89.8124 104.033 89.8001 104.075 89.7768C104.117 89.7555 104.152 89.7234 104.178 89.6839C104.204 89.6443 104.218 89.5987 104.221 89.5516C104.291 88.6929 104.362 87.8133 104.433 86.9586C104.708 83.6653 108.727 85.929 108.464 89.1931C108.398 90.1061 108.31 91.0441 108.248 91.9862C108.243 92.0402 108.254 92.0944 108.28 92.142C108.306 92.1896 108.345 92.2282 108.394 92.253L108.856 92.4865C108.906 92.5113 108.946 92.5505 108.973 92.5988C109 92.6472 109.011 92.7024 109.006 92.7574C108.76 95.9632 108.506 99.1399 108.256 102.346C108.027 105.214 107.806 108.057 107.589 110.896C107.584 110.937 107.589 110.978 107.604 111.016C107.618 111.055 107.642 111.089 107.672 111.117C108.412 111.833 109.082 112.617 109.673 113.46C109.729 113.509 109.762 113.579 109.766 113.653C109.77 113.728 109.744 113.8 109.694 113.856C109.644 113.911 109.575 113.944 109.501 113.948C109.426 113.952 109.353 113.926 109.298 113.877L109.34 113.831ZM25.7181 75.1276C37.8951 69.4581 54.0159 67.678 69.6989 69.3247C85.3819 70.9713 100.781 76.0656 111.52 84.1405C111.572 84.1787 111.636 84.1975 111.701 84.1937C111.766 84.1898 111.827 84.1637 111.875 84.1197C111.923 84.0765 111.954 84.0178 111.963 83.9537C111.972 83.8897 111.959 83.8245 111.925 83.7695C111.365 82.8771 110.734 82.0322 110.036 81.2432C110.011 81.215 109.992 81.1819 109.981 81.146C109.969 81.1102 109.965 81.0723 109.969 81.0348C110.186 78.2209 110.411 75.3736 110.632 72.5305C110.882 69.3497 111.124 66.1647 111.374 63.0089C111.378 62.9596 111.369 62.9101 111.348 62.8654C111.327 62.8208 111.294 62.7825 111.253 62.7546L110.766 62.4378C110.721 62.4119 110.685 62.3738 110.661 62.328C110.638 62.2822 110.628 62.2307 110.632 62.1794C110.707 61.2414 110.791 60.3242 110.861 59.3821C111.12 56.1429 107.205 53.4791 106.939 56.7724C106.855 57.7729 106.772 58.7734 106.697 59.774L106.338 59.5363C106.297 59.5118 106.249 59.4988 106.201 59.4988C106.152 59.4988 106.105 59.5118 106.063 59.5363C106.019 59.5561 105.982 59.5876 105.955 59.6273C105.927 59.667 105.912 59.7134 105.909 59.7615C105.646 62.9006 105.388 66.0688 105.129 69.2038C104.938 71.5216 104.758 73.8145 104.567 76.1073C104.563 76.155 104.546 76.2008 104.519 76.2403C104.492 76.2798 104.455 76.3115 104.412 76.3324C104.371 76.357 104.323 76.3699 104.275 76.3699C104.226 76.3699 104.179 76.357 104.137 76.3324C103.72 76.0739 103.303 75.8071 102.887 75.5528C102.841 75.5272 102.803 75.4886 102.779 75.442C102.754 75.3954 102.744 75.3426 102.749 75.2902C102.949 72.9057 103.146 70.5225 103.341 68.1407C103.612 64.8724 103.9 61.6041 104.175 58.3316C104.179 58.2822 104.171 58.2325 104.149 58.1878C104.128 58.143 104.095 58.1048 104.054 58.0773L103.562 57.7396C103.522 57.7115 103.489 57.6731 103.469 57.6284C103.448 57.5837 103.44 57.5342 103.445 57.4853C103.524 56.539 103.608 55.5927 103.691 54.6172C103.97 51.2821 98.8429 48.5891 98.5469 51.97C98.4719 52.8704 98.3926 53.7667 98.3176 54.6672C98.3149 54.7109 98.3013 54.7533 98.278 54.7905C98.2547 54.8276 98.2224 54.8583 98.1842 54.8798C98.145 54.9003 98.1013 54.9109 98.0571 54.9109C98.0128 54.9109 97.9692 54.9003 97.9299 54.8798L97.8716 54.8548C97.833 54.8343 97.7901 54.8237 97.7465 54.8237C97.7029 54.8237 97.6599 54.8343 97.6214 54.8548C97.5831 54.8775 97.5506 54.909 97.5267 54.9467C97.5028 54.9844 97.4881 55.0272 97.4838 55.0716C97.192 58.3288 96.9058 61.586 96.6251 64.8432C96.4208 67.1569 96.2082 69.4289 96.0164 71.7301C96.0137 71.7738 96.0001 71.8162 95.9768 71.8533C95.9535 71.8905 95.9212 71.9212 95.883 71.9427C95.8445 71.9631 95.8016 71.9738 95.758 71.9738C95.7144 71.9738 95.6714 71.9631 95.6329 71.9427C94.9242 71.655 94.2072 71.3715 93.4651 71.1089C93.4067 71.0886 93.3568 71.0491 93.3235 70.9969C93.2902 70.9447 93.2755 70.8829 93.2817 70.8213C93.4985 68.4826 93.6986 66.1147 93.9154 63.7343C94.2155 60.3993 94.5198 57.0642 94.82 53.7292C94.8258 53.6715 94.8132 53.6133 94.784 53.5632C94.7548 53.513 94.7105 53.4734 94.6574 53.4499L94.2405 53.2665C94.1867 53.2424 94.1417 53.2022 94.1118 53.1514C94.082 53.1006 94.0687 53.0417 94.0738 52.983C94.1655 52.02 94.2572 51.057 94.3447 50.0648C94.6532 46.6548 88.2542 44.4995 87.9248 47.9346C87.8373 48.8559 87.7456 49.798 87.6663 50.7235C87.6624 50.7643 87.6496 50.8038 87.6287 50.8391C87.6078 50.8744 87.5794 50.9047 87.5455 50.9278C87.5121 50.9517 87.4738 50.9679 87.4334 50.9751C87.3931 50.9823 87.3516 50.9804 87.312 50.9695L87.1828 50.9319C87.1436 50.9202 87.1022 50.9174 87.0617 50.9239C87.0213 50.9304 86.9829 50.946 86.9493 50.9695C86.9154 50.9925 86.887 51.0228 86.8661 51.0581C86.8452 51.0934 86.8323 51.1329 86.8284 51.1737C86.5158 54.5088 86.1906 57.8438 85.8779 61.133C85.6584 63.4925 85.436 65.8548 85.2109 68.2199C85.2084 68.2601 85.1965 68.2991 85.1762 68.3338C85.156 68.3685 85.1279 68.3981 85.0942 68.42C85.0621 68.4449 85.0247 68.4619 84.9849 68.4699C84.9452 68.4778 84.9041 68.4765 84.8649 68.4659C83.8352 68.2074 82.7805 67.974 81.7425 67.7364C81.6759 67.7214 81.6172 67.6826 81.5772 67.6274C81.5373 67.5721 81.519 67.5041 81.5257 67.4362C81.7675 65.0225 82.0051 62.6046 82.2386 60.1617C82.5638 56.8016 82.8917 53.4416 83.2224 50.0815C83.2287 50.016 83.2116 49.9504 83.1743 49.8963C83.1369 49.8421 83.0816 49.8029 83.0181 49.7855L82.6888 49.6938C82.6261 49.6756 82.5718 49.6361 82.5352 49.582C82.4987 49.5279 82.4822 49.4628 82.4887 49.3978C82.5804 48.4432 82.6763 47.4635 82.768 46.4797C83.1099 43.0446 75.4101 41.7314 75.0474 45.1665C74.9474 46.1212 74.8557 47.08 74.7556 48.0346C74.7531 48.0727 74.742 48.1097 74.7232 48.1429C74.7045 48.1761 74.6785 48.2046 74.6472 48.2264C74.6179 48.2505 74.5837 48.2678 74.5469 48.2772C74.5102 48.2865 74.4718 48.2877 74.4346 48.2806L74.2345 48.2514C74.1969 48.2439 74.1581 48.2445 74.1207 48.2532C74.0834 48.2618 74.0483 48.2782 74.0177 48.3014C73.9873 48.325 73.962 48.3546 73.9434 48.3883C73.9247 48.4219 73.9131 48.4591 73.9093 48.4974C73.5675 51.8616 73.2173 55.2216 72.8713 58.5567C72.6212 60.9829 72.3627 63.4133 72.1209 65.8145C72.1171 65.8518 72.1059 65.8879 72.088 65.9209C72.0701 65.9538 72.0459 65.9828 72.0167 66.0063C71.9573 66.0518 71.8827 66.0727 71.8083 66.0647C70.6354 65.9202 69.464 65.7965 68.294 65.6936C68.2569 65.6905 68.2207 65.68 68.1877 65.6627C68.1547 65.6454 68.1255 65.6217 68.1018 65.593C68.0781 65.5642 68.0604 65.531 68.0498 65.4953C68.0391 65.4597 68.0357 65.4222 68.0397 65.3852C68.2898 62.9839 68.5524 60.5577 68.8109 58.1273C69.1694 54.7923 69.5154 51.4322 69.8781 48.0722C69.883 48.034 69.8795 47.9953 69.868 47.9586C69.8565 47.9219 69.8372 47.8881 69.8114 47.8596C69.7867 47.8304 69.7561 47.8067 69.7216 47.7902C69.6871 47.7737 69.6495 47.7646 69.6113 47.7637H69.4154C69.3772 47.761 69.3399 47.7508 69.3057 47.7336C69.2715 47.7164 69.2411 47.6925 69.2163 47.6634C69.1914 47.6343 69.1726 47.6005 69.161 47.564C69.1494 47.5276 69.1452 47.4891 69.1486 47.451C69.257 46.4964 69.357 45.5417 69.4571 44.5871C69.8323 41.1228 62.0158 40.8351 61.6322 44.2702C61.5197 45.2457 61.4113 46.2004 61.3071 47.1884C61.3012 47.2541 61.2718 47.3156 61.2244 47.3615C61.1769 47.4074 61.1145 47.4348 61.0486 47.4385H60.7026C60.6367 47.4422 60.5743 47.4696 60.5268 47.5155C60.4794 47.5614 60.45 47.6229 60.4441 47.6886C60.069 51.0445 59.6896 54.4004 59.3102 57.7854C59.0323 60.195 58.7544 62.6046 58.4765 65.0141C58.4685 65.082 58.4362 65.1447 58.3856 65.1906C58.3351 65.2366 58.2696 65.2627 58.2013 65.2643C57.13 65.2643 56.0627 65.2934 55.0039 65.3268C54.9636 65.3287 54.9233 65.3219 54.8859 65.3068C54.8485 65.2917 54.8148 65.2686 54.7871 65.2392C54.7589 65.2105 54.7378 65.1755 54.7255 65.1372C54.7132 65.0988 54.71 65.0581 54.7162 65.0183C54.9789 62.6879 55.2498 60.3326 55.5208 57.9814C55.9043 54.6463 56.2865 51.3238 56.6672 48.0138C56.6722 47.9735 56.6683 47.9326 56.6556 47.8941C56.643 47.8555 56.622 47.8202 56.5941 47.7907C56.5662 47.7612 56.5321 47.7383 56.4943 47.7235C56.4565 47.7088 56.4159 47.7025 56.3754 47.7053H56.2462C56.2051 47.7085 56.1639 47.7022 56.1256 47.687C56.0873 47.6719 56.053 47.6482 56.0252 47.6178C55.9972 47.5879 55.976 47.5523 55.963 47.5134C55.9501 47.4746 55.9457 47.4334 55.9502 47.3926C56.0544 46.4755 56.1628 45.5542 56.2712 44.6079C56.6589 41.1811 49.9513 41.9857 49.5553 45.3875C49.4344 46.3463 49.3135 47.3051 49.2051 48.2639C49.1984 48.3224 49.1734 48.3772 49.1338 48.4206C49.0941 48.464 49.0417 48.4938 48.9841 48.5057L48.5673 48.6016C48.511 48.614 48.46 48.6435 48.4212 48.6861C48.3824 48.7286 48.3577 48.7821 48.3505 48.8392C47.9336 52.1451 47.5542 55.4801 47.1457 58.811C46.8539 61.1705 46.5787 63.53 46.3119 65.8646C46.3043 65.9253 46.2769 65.9819 46.234 66.0256C46.1911 66.0693 46.135 66.0977 46.0743 66.1064C45.2989 66.2189 44.5277 66.3481 43.7773 66.4815C43.734 66.4886 43.6895 66.4855 43.6476 66.4725C43.6056 66.4595 43.5673 66.4369 43.5355 66.4065C43.5031 66.3768 43.4786 66.3396 43.464 66.2982C43.4495 66.2567 43.4454 66.2123 43.4522 66.1689C43.7315 63.8927 44.0149 61.6166 44.2859 59.3112C44.6833 56.0679 45.0794 52.8246 45.474 49.5813C45.4787 49.5386 45.4736 49.4954 45.4592 49.4549C45.4448 49.4145 45.4213 49.3779 45.3906 49.3478C45.3599 49.3159 45.3217 49.2924 45.2794 49.2792C45.2371 49.2661 45.1922 49.2639 45.1488 49.2728H45.0738C45.0311 49.2795 44.9874 49.2762 44.9462 49.2632C44.9049 49.2502 44.8673 49.2278 44.8362 49.1977C44.8041 49.1687 44.7798 49.1322 44.7652 49.0915C44.7507 49.0507 44.7464 49.007 44.7528 48.9643C44.8612 48.0638 44.9654 47.1675 45.078 46.2671C45.4949 42.8987 39.917 44.4787 39.496 47.7887C39.3792 48.7558 39.2583 49.6938 39.1374 50.6568C39.1327 50.7088 39.1127 50.7582 39.0801 50.799C39.0475 50.8397 39.0037 50.87 38.954 50.8861L38.4371 51.0737C38.3885 51.0915 38.3457 51.1223 38.3134 51.1627C38.281 51.2031 38.2604 51.2517 38.2537 51.303C37.8368 54.5588 37.4199 57.8355 37.003 61.0871C36.7029 63.4592 36.3944 65.8312 36.0942 68.2033C36.0886 68.2556 36.0679 68.3051 36.0345 68.3458C36.0012 68.3865 35.9568 68.4167 35.9066 68.4325C35.4397 68.591 34.9853 68.766 34.5351 68.9411C34.4901 68.9603 34.4408 68.9669 34.3924 68.9603C34.3439 68.9537 34.2982 68.9341 34.26 68.9036C34.2212 68.8737 34.191 68.834 34.1727 68.7886C34.1544 68.7431 34.1485 68.6936 34.1557 68.6451C34.4517 66.369 34.7394 64.0595 35.0395 61.7708C35.4564 58.49 35.8733 55.1841 36.2902 51.9033L35.9025 52.0575C35.8575 52.0745 35.809 52.0795 35.7615 52.0722C35.7141 52.0649 35.6693 52.0455 35.6315 52.0158C35.593 51.9866 35.5631 51.9476 35.5448 51.9029C35.5264 51.8582 35.5204 51.8094 35.5273 51.7615C35.6315 50.9278 35.7357 50.094 35.8524 49.2603C36.2693 45.9794 31.9046 47.7762 31.4627 50.9903C31.3543 51.9283 31.2293 52.8371 31.1042 53.7709C31.0968 53.8215 31.0758 53.8691 31.0435 53.9087C31.0112 53.9484 30.9688 53.9785 30.9208 53.996C30.7415 54.0585 30.5622 54.1294 30.383 54.2045C30.3384 54.2236 30.2996 54.2541 30.2703 54.2928C30.2411 54.3316 30.2224 54.3773 30.2162 54.4254C29.7994 57.5645 29.3825 60.7286 28.9656 63.8969L27.8859 72.4096C27.8815 72.4465 27.8696 72.4822 27.8509 72.5145C27.8323 72.5467 27.8073 72.5749 27.7775 72.5972C26.9239 73.2201 26.1273 73.9177 25.3971 74.6816C25.3524 74.7287 25.3257 74.7901 25.3219 74.8549C25.3181 74.9198 25.3374 74.9839 25.3763 75.0359C25.4134 75.089 25.468 75.1273 25.5305 75.144C25.593 75.1608 25.6594 75.155 25.7181 75.1276ZM68.7359 34.1067C71.824 34.2759 74.9016 34.6001 77.9572 35.078C77.9945 35.0849 78.0328 35.0836 78.0695 35.0742C78.1062 35.0648 78.1404 35.0477 78.1698 35.0238C78.2001 35.0011 78.2254 34.9723 78.2441 34.9393C78.2627 34.9063 78.2744 34.8698 78.2782 34.8321C78.3616 33.9983 78.4366 33.2062 78.5242 32.3933C78.6993 30.7258 79.0036 27.6659 79.1745 25.9942C79.8624 19.2116 70.1533 18.1903 69.4237 24.9687C69.2445 26.6362 68.9151 29.692 68.7317 31.3636C68.6441 32.1974 68.5608 32.9895 68.4691 33.7982C68.4638 33.8361 68.4665 33.8747 68.4772 33.9115C68.4879 33.9482 68.5063 33.9823 68.5311 34.0115C68.5559 34.0406 68.5866 34.0642 68.6212 34.0806C68.6558 34.097 68.6934 34.1059 68.7317 34.1067H68.7359ZM104.05 13.1585C96.0956 8.3936 86.3949 5.42126 76.5357 4.40407C66.6765 3.38689 56.5547 4.25399 47.8002 7.26386C47.7393 7.28239 47.6739 7.27988 47.6146 7.25674C47.5553 7.2336 47.5055 7.19117 47.4733 7.13629C47.441 7.08141 47.4282 7.01727 47.4368 6.95421C47.4455 6.89114 47.4751 6.83281 47.5209 6.78862C53.5948 1.36919 65.4509 -0.419221 76.9067 0.773053C88.3625 1.96533 99.6058 6.19248 104.421 12.7542C104.461 12.8044 104.483 12.8669 104.483 12.9313C104.483 12.9957 104.461 13.0582 104.421 13.1085C104.377 13.1621 104.314 13.1971 104.245 13.2064C104.176 13.2156 104.106 13.1985 104.05 13.1585ZM107.114 143.733C94.5365 137.839 78.9119 133.908 63.0872 132.244C47.2624 130.581 31.1417 131.177 17.6473 134.329C17.5864 134.344 17.5222 134.337 17.4653 134.311C17.4084 134.284 17.3623 134.239 17.3347 134.183C17.305 134.127 17.2954 134.064 17.3075 134.002C17.3197 133.94 17.3529 133.885 17.4014 133.845C18.17 133.203 19.0092 132.651 19.9026 132.198C19.9417 132.177 19.975 132.147 19.9997 132.11C20.0244 132.072 20.0397 132.03 20.0444 131.986C20.4237 129.138 20.7948 126.287 21.1783 123.406C21.5952 120.196 22.0121 117.016 22.4289 113.818C22.4352 113.76 22.4601 113.705 22.4999 113.663C22.5397 113.62 22.5923 113.591 22.6499 113.581L23.1251 113.485C23.1824 113.474 23.2346 113.445 23.2744 113.402C23.3141 113.359 23.3392 113.305 23.3461 113.247C23.4711 112.317 23.5879 111.388 23.7171 110.458C24.134 107.211 28.5821 106.193 28.1527 109.503C28.036 110.366 27.9359 111.229 27.8234 112.096C27.8168 112.141 27.8213 112.186 27.8366 112.228C27.8519 112.271 27.8774 112.308 27.9109 112.338C27.9431 112.369 27.9824 112.391 28.0254 112.403C28.0684 112.415 28.1135 112.415 28.1569 112.405H28.2319C28.2752 112.395 28.3204 112.395 28.3634 112.407C28.4063 112.419 28.4457 112.441 28.4778 112.472C28.5113 112.502 28.5369 112.539 28.5521 112.581C28.5674 112.624 28.572 112.669 28.5654 112.713C28.1485 115.894 27.7525 119.1 27.3398 122.281C27.0313 124.663 26.7256 127.044 26.4226 129.426C26.4158 129.472 26.4207 129.518 26.4367 129.561C26.4528 129.604 26.4795 129.642 26.5144 129.672C26.5486 129.702 26.5896 129.724 26.6338 129.734C26.6781 129.745 26.7244 129.745 26.7686 129.735C27.2272 129.622 27.7025 129.518 28.1944 129.405C28.2503 129.394 28.3011 129.365 28.34 129.323C28.3788 129.281 28.4037 129.228 28.4112 129.172C28.7238 126.746 29.024 124.319 29.3325 121.897C29.7493 118.654 30.1662 115.381 30.5831 112.109C30.5891 112.051 30.6134 111.997 30.6524 111.955C30.6914 111.912 30.7431 111.883 30.7999 111.871L31.2584 111.775C31.316 111.764 31.3684 111.734 31.4081 111.69C31.4477 111.647 31.4727 111.592 31.4794 111.534C31.6003 110.579 31.7253 109.649 31.8462 108.691C32.2631 105.356 37.9577 104.497 37.5533 107.857L37.2156 110.579C37.2094 110.621 37.2134 110.665 37.2272 110.705C37.2409 110.746 37.2641 110.783 37.2948 110.812C37.3228 110.843 37.358 110.867 37.3973 110.881C37.4367 110.894 37.4788 110.898 37.52 110.892H37.6617C37.7034 110.886 37.7458 110.89 37.7855 110.904C37.8253 110.917 37.8614 110.94 37.8909 110.97C37.9204 111 37.9426 111.036 37.9556 111.076C37.9687 111.116 37.9722 111.159 37.966 111.2C37.5742 114.485 37.174 117.737 36.7737 120.993C36.4958 123.308 36.2179 125.623 35.94 127.938C35.9356 127.979 35.9403 128.021 35.9539 128.061C35.9676 128.1 35.9897 128.136 36.0187 128.166C36.0478 128.196 36.0831 128.219 36.1221 128.233C36.161 128.248 36.2028 128.254 36.2443 128.251C37.0239 128.167 37.8201 128.109 38.6247 128.05C38.6897 128.046 38.7511 128.019 38.7983 127.974C38.8455 127.929 38.8755 127.869 38.8832 127.804C39.1666 125.478 39.4459 123.123 39.7169 120.768C40.1199 117.433 40.5229 114.107 40.9259 110.792C40.9337 110.729 40.9621 110.671 41.0067 110.626C41.0512 110.582 41.1093 110.554 41.1718 110.546L41.5887 110.504C41.6525 110.498 41.7124 110.471 41.758 110.426C41.8037 110.381 41.8323 110.322 41.8388 110.258C41.9472 109.308 42.0598 108.353 42.1807 107.377C42.5975 103.976 49.5094 103.625 49.1217 107.065C49.0008 108.015 48.8924 108.945 48.784 109.891C48.7799 109.93 48.7841 109.97 48.7963 110.007C48.8085 110.044 48.8285 110.079 48.8549 110.108C48.881 110.138 48.9137 110.163 48.9506 110.178C48.9874 110.194 49.0274 110.202 49.0675 110.2H49.2634C49.3037 110.198 49.3439 110.205 49.3813 110.22C49.4187 110.235 49.4524 110.258 49.4802 110.287C49.5085 110.317 49.5296 110.352 49.5419 110.391C49.5542 110.431 49.5573 110.472 49.5511 110.512C49.1634 113.847 48.7757 117.182 48.4088 120.467C48.1337 122.823 47.8669 125.157 47.5751 127.488C47.5693 127.526 47.5723 127.566 47.5838 127.604C47.5954 127.641 47.6152 127.676 47.6418 127.704C47.6673 127.734 47.6986 127.757 47.7338 127.774C47.769 127.79 47.8072 127.799 47.8461 127.8C48.955 127.8 50.068 127.829 51.1811 127.871C51.2515 127.873 51.32 127.848 51.3732 127.802C51.4264 127.755 51.4605 127.691 51.4687 127.621C51.7355 125.245 52.0107 122.864 52.2775 120.459C52.6527 117.124 53.032 113.764 53.4072 110.387C53.4144 110.319 53.4464 110.256 53.4971 110.21C53.5479 110.164 53.6138 110.138 53.6824 110.137H54.0242C54.0932 110.137 54.1597 110.111 54.2111 110.065C54.2625 110.019 54.2954 109.956 54.3035 109.887C54.4119 108.916 54.5161 107.944 54.6245 106.998C55.0164 103.538 63.1247 104.034 62.7537 107.498C62.6536 108.432 62.5536 109.391 62.4535 110.35C62.4489 110.388 62.452 110.426 62.4628 110.463C62.4735 110.499 62.4917 110.533 62.516 110.562C62.5414 110.591 62.5721 110.614 62.6065 110.63C62.6408 110.647 62.6781 110.656 62.7161 110.658H62.9538C62.9918 110.659 63.029 110.669 63.0629 110.686C63.0968 110.704 63.1264 110.728 63.1497 110.758C63.1747 110.786 63.1935 110.82 63.205 110.855C63.2165 110.891 63.2204 110.929 63.2164 110.967C62.8537 114.331 62.4994 117.674 62.1367 121.039C61.8865 123.44 61.6364 125.812 61.3863 128.184C61.3781 128.257 61.3994 128.331 61.4455 128.389C61.4916 128.447 61.5588 128.484 61.6322 128.492L65.33 128.88C65.3662 128.884 65.4029 128.881 65.438 128.871C65.473 128.861 65.5058 128.844 65.5342 128.822C65.5628 128.798 65.5864 128.769 65.6036 128.736C65.6208 128.703 65.6312 128.667 65.6343 128.63C65.8761 126.258 66.1179 123.886 66.368 121.485C66.714 118.116 67.0642 114.777 67.4185 111.409C67.4206 111.371 67.431 111.334 67.449 111.301C67.467 111.268 67.4922 111.239 67.5228 111.217C67.5522 111.193 67.5864 111.176 67.6231 111.166C67.6598 111.157 67.6981 111.156 67.7354 111.163L67.9646 111.2C68.0022 111.205 68.0403 111.203 68.0769 111.192C68.1134 111.182 68.1475 111.165 68.1772 111.142C68.2079 111.119 68.2335 111.091 68.2522 111.058C68.2709 111.025 68.2823 110.988 68.2856 110.95C68.3857 109.995 68.4816 109.057 68.5858 108.099C68.936 104.634 76.9817 105.835 76.6399 109.299C76.544 110.275 76.4565 111.225 76.3564 112.192C76.3495 112.261 76.3677 112.329 76.4076 112.385C76.4474 112.441 76.5063 112.481 76.5732 112.497L76.9067 112.568C76.9742 112.581 77.0341 112.619 77.0743 112.675C77.1146 112.731 77.1322 112.799 77.1235 112.868C76.7983 116.249 76.4648 119.6 76.1438 122.956C75.9104 125.366 75.6811 127.75 75.4476 130.131C75.4413 130.2 75.4614 130.27 75.5038 130.325C75.5463 130.381 75.608 130.419 75.6769 130.431C76.7733 130.627 77.8655 130.848 78.9577 131.056C78.996 131.064 79.0356 131.064 79.0738 131.056C79.112 131.047 79.1478 131.03 79.1787 131.006C79.2103 130.983 79.2366 130.954 79.256 130.92C79.2754 130.886 79.2874 130.849 79.2912 130.81C79.5164 128.476 79.7373 126.137 79.9624 123.773C80.2751 120.467 80.5836 117.103 80.9087 113.801C80.9133 113.762 80.9261 113.725 80.9462 113.691C80.9663 113.657 80.9933 113.628 81.0255 113.606C81.0561 113.581 81.0921 113.564 81.1305 113.556C81.1689 113.548 81.2086 113.549 81.2464 113.56L81.434 113.597C81.4726 113.607 81.5128 113.607 81.5517 113.599C81.5906 113.591 81.6273 113.575 81.6591 113.551C81.6912 113.528 81.7178 113.498 81.7373 113.464C81.7567 113.429 81.7684 113.391 81.7717 113.351C81.8634 112.405 81.9509 111.475 82.0426 110.521C82.3636 107.081 89.0629 108.853 88.7627 112.297C88.671 113.253 88.5863 114.209 88.5084 115.165C88.5017 115.227 88.5167 115.29 88.5509 115.342C88.5851 115.394 88.6364 115.433 88.696 115.452L89.0671 115.573C89.1274 115.593 89.1793 115.632 89.2142 115.685C89.249 115.739 89.2648 115.802 89.2588 115.865C88.9587 119.2 88.6613 122.535 88.3667 125.87C88.1458 128.23 87.9498 130.593 87.733 132.928C87.7268 132.992 87.7434 133.057 87.78 133.11C87.8166 133.164 87.8708 133.202 87.9332 133.22C88.7127 133.449 89.4798 133.674 90.2302 133.912C90.2701 133.926 90.313 133.931 90.3552 133.925C90.3973 133.919 90.4374 133.903 90.4719 133.878C90.5072 133.857 90.5366 133.827 90.5577 133.791C90.5788 133.756 90.5908 133.715 90.5928 133.674C90.7971 131.377 91.0097 129.055 91.2098 126.729C91.4975 123.44 91.7809 120.171 92.0436 116.878C92.0465 116.836 92.0589 116.795 92.0801 116.759C92.1012 116.722 92.1304 116.691 92.1655 116.668C92.2005 116.645 92.2404 116.63 92.2822 116.624C92.3239 116.619 92.3664 116.623 92.4063 116.636L92.5438 116.682C92.5838 116.697 92.6267 116.701 92.6688 116.695C92.711 116.689 92.751 116.673 92.7856 116.649C92.821 116.627 92.8507 116.597 92.8724 116.561C92.8941 116.526 92.9072 116.486 92.9107 116.445C93.0024 115.532 93.0816 114.619 93.1566 113.706C93.4526 110.325 98.8512 112.347 98.5761 115.698C98.4927 116.661 98.4135 117.595 98.3301 118.558C98.3253 118.616 98.3387 118.674 98.3686 118.725C98.3985 118.775 98.4434 118.814 98.4969 118.837L98.9346 119.029C98.9889 119.051 99.0345 119.091 99.0645 119.141C99.0946 119.191 99.1075 119.25 99.1013 119.308C98.822 122.593 98.5469 125.878 98.2676 129.138C98.0633 131.569 97.8507 134.003 97.6589 136.438C97.6528 136.496 97.6657 136.555 97.6957 136.605C97.7258 136.656 97.7714 136.695 97.8257 136.717C98.2718 136.913 98.7178 137.134 99.143 137.334C99.1835 137.356 99.2285 137.367 99.2743 137.367C99.3201 137.367 99.3652 137.356 99.4057 137.334C99.4461 137.313 99.4803 137.281 99.5051 137.242C99.5299 137.204 99.5444 137.159 99.5474 137.113C99.7475 134.72 99.9434 132.328 100.135 129.935C100.402 126.741 100.652 123.544 100.923 120.326C100.926 120.281 100.94 120.238 100.964 120.2C100.988 120.162 101.021 120.131 101.061 120.109C101.1 120.088 101.144 120.078 101.188 120.078C101.232 120.078 101.276 120.088 101.315 120.109L101.39 120.142C101.429 120.163 101.473 120.173 101.517 120.173C101.561 120.173 101.605 120.163 101.644 120.142C101.683 120.119 101.716 120.087 101.74 120.048C101.764 120.01 101.778 119.966 101.782 119.921C101.853 119.054 101.919 118.183 101.994 117.312C102.261 113.977 106.393 115.878 106.134 119.171C106.055 120.105 105.984 121.043 105.917 121.976C105.911 122.034 105.924 122.092 105.953 122.143C105.982 122.193 106.027 122.232 106.08 122.256L106.522 122.448C106.575 122.47 106.62 122.509 106.65 122.558C106.68 122.608 106.693 122.665 106.689 122.723C106.443 125.924 106.192 129.126 105.934 132.353C105.709 135.25 105.488 138.114 105.254 140.978C105.251 141.023 105.258 141.068 105.275 141.109C105.293 141.15 105.32 141.187 105.355 141.215C106.121 141.847 106.82 142.556 107.439 143.333C107.473 143.383 107.491 143.442 107.489 143.503C107.486 143.563 107.465 143.621 107.427 143.668C107.389 143.715 107.336 143.749 107.278 143.764C107.219 143.778 107.157 143.774 107.101 143.75L107.114 143.733ZM100.264 234.029C84.7024 230.739 68.9783 228.267 53.1571 226.626C37.345 224.942 21.4552 224.09 5.55367 224.074C5.49274 224.073 5.43394 224.052 5.38622 224.014C5.33851 223.976 5.3045 223.923 5.28939 223.864C5.27427 223.805 5.27888 223.743 5.30251 223.687C5.32614 223.631 5.3675 223.584 5.42027 223.553C6.19898 223.142 7.02493 222.827 7.87985 222.615C7.9329 222.6 7.98048 222.57 8.01676 222.529C8.05303 222.488 8.07644 222.436 8.08412 222.382C8.47043 219.43 8.85952 216.477 9.25139 213.523C9.66827 210.297 10.0851 207.099 10.5229 203.877C10.531 203.809 10.5634 203.747 10.614 203.702C10.6647 203.656 10.7301 203.631 10.798 203.631C10.9314 203.631 11.0648 203.631 11.2149 203.631C11.2803 203.628 11.3426 203.602 11.3907 203.558C11.4389 203.514 11.4696 203.454 11.4775 203.389C11.6026 202.468 11.7193 201.55 11.8444 200.629C12.2613 197.323 16.8469 197.148 16.43 200.487C16.3258 201.404 16.2133 202.301 16.0924 203.214C16.0863 203.254 16.089 203.294 16.1003 203.333C16.1116 203.372 16.1313 203.407 16.1579 203.437C16.1846 203.468 16.2175 203.492 16.2545 203.508C16.2914 203.524 16.3314 203.532 16.3717 203.531H16.5926C16.6333 203.529 16.674 203.536 16.7115 203.552C16.749 203.568 16.7825 203.592 16.8094 203.622C16.8368 203.652 16.8574 203.687 16.8697 203.725C16.8819 203.763 16.8856 203.803 16.8803 203.843C16.4717 207.07 16.0549 210.297 15.6296 213.523C15.2961 216.069 14.9668 218.616 14.6416 221.165C14.6364 221.206 14.6409 221.249 14.6546 221.288C14.6683 221.328 14.691 221.364 14.7208 221.394C14.7494 221.424 14.7846 221.447 14.8237 221.462C14.8627 221.476 14.9045 221.482 14.946 221.477C15.4379 221.427 15.9465 221.394 16.4592 221.36C16.5239 221.357 16.5852 221.331 16.6325 221.287C16.6798 221.242 16.7099 221.183 16.7177 221.119C17.0345 218.59 17.3555 216.061 17.6807 213.531C18.0976 210.246 18.5144 206.986 18.9313 203.701C18.9413 203.634 18.9749 203.573 19.0262 203.529C19.0774 203.484 19.1429 203.46 19.2106 203.46H19.5942C19.6622 203.46 19.7281 203.436 19.7795 203.392C19.8309 203.347 19.8643 203.285 19.8735 203.218C19.9985 202.276 20.1194 201.329 20.2362 200.387C20.653 197.052 26.5769 197.019 26.16 200.387C26.0516 201.334 25.9391 202.259 25.8223 203.18C25.8176 203.219 25.8212 203.259 25.8329 203.297C25.8445 203.334 25.864 203.369 25.89 203.398C25.9159 203.428 25.9478 203.451 25.9836 203.468C26.0194 203.484 26.0582 203.493 26.0975 203.493H26.3476C26.3869 203.494 26.4255 203.503 26.4612 203.52C26.4968 203.536 26.5287 203.56 26.5549 203.589C26.581 203.618 26.6009 203.653 26.6133 203.69C26.6257 203.727 26.6303 203.767 26.6269 203.806C26.21 207.103 25.8265 210.397 25.4221 213.661C25.1261 216.045 24.8343 218.426 24.5467 220.785C24.5422 220.825 24.5463 220.865 24.5585 220.903C24.5707 220.941 24.5908 220.976 24.6175 221.006C24.644 221.036 24.6768 221.06 24.7136 221.076C24.7503 221.092 24.7901 221.099 24.8302 221.098C25.6639 221.098 26.4977 221.098 27.3648 221.098C27.4334 221.098 27.4999 221.074 27.5514 221.028C27.6029 220.983 27.6359 220.92 27.6441 220.852C27.9317 218.505 28.2236 216.154 28.507 213.765C28.8989 210.455 29.3033 207.116 29.6993 203.806C29.7077 203.735 29.7425 203.671 29.7967 203.625C29.8508 203.579 29.9204 203.556 29.9911 203.56H30.358C30.4269 203.561 30.4938 203.537 30.5455 203.491C30.5972 203.446 30.63 203.382 30.6373 203.314C30.7582 202.347 30.8666 201.4 30.9875 200.458C31.3835 197.056 38.658 197.319 38.2578 200.746C38.1494 201.675 38.0327 202.63 37.9243 203.564C37.9189 203.602 37.9217 203.64 37.9325 203.677C37.9433 203.714 37.9618 203.748 37.9869 203.777C38.0102 203.807 38.0398 203.831 38.0737 203.848C38.1075 203.866 38.1448 203.875 38.1828 203.877H38.4704C38.5084 203.878 38.5457 203.887 38.5796 203.905C38.6135 203.922 38.6431 203.947 38.6664 203.977C38.6909 204.005 38.7091 204.038 38.7199 204.074C38.7306 204.11 38.7337 204.148 38.7289 204.185C38.3509 207.52 37.9674 210.855 37.5783 214.19C37.3074 216.491 37.0572 218.801 36.7904 221.077C36.785 221.115 36.7878 221.153 36.7986 221.19C36.8094 221.227 36.8279 221.261 36.853 221.29C36.8762 221.32 36.9059 221.344 36.9397 221.362C36.9736 221.379 37.0109 221.388 37.0489 221.39C38.2287 221.461 39.4126 221.511 40.6049 221.606C40.6774 221.611 40.7491 221.588 40.8049 221.541C40.8608 221.495 40.8966 221.429 40.905 221.356C41.1635 219.072 41.4261 216.771 41.6804 214.44C42.0473 211.105 42.435 207.72 42.8143 204.377C42.8227 204.306 42.8573 204.241 42.9114 204.195C42.9654 204.148 43.035 204.124 43.1061 204.127H43.4688C43.5397 204.128 43.6088 204.104 43.6626 204.058C43.7165 204.011 43.7514 203.947 43.7606 203.877C43.8565 202.93 43.9607 201.963 44.0816 200.996C44.461 197.565 53.0445 198.286 52.6735 201.721C52.5707 202.68 52.4692 203.642 52.3692 204.606C52.3649 204.643 52.3682 204.681 52.379 204.717C52.3897 204.753 52.4077 204.786 52.4317 204.815C52.4571 204.843 52.4878 204.866 52.5222 204.883C52.5565 204.899 52.5938 204.908 52.6318 204.91H52.9111C52.9491 204.912 52.9864 204.921 53.0203 204.939C53.0541 204.956 53.0838 204.98 53.1071 205.01C53.1321 205.039 53.1509 205.072 53.1624 205.108C53.1739 205.144 53.1778 205.181 53.1738 205.219C52.8194 208.587 52.4651 211.956 52.1024 215.291C51.8523 217.6 51.6105 219.876 51.3687 222.169C51.3623 222.244 51.3847 222.319 51.4312 222.378C51.4797 222.435 51.5485 222.471 51.623 222.478C52.9348 222.589 54.2465 222.728 55.5583 222.895C55.5952 222.899 55.6326 222.896 55.6684 222.886C55.7042 222.876 55.7376 222.859 55.7668 222.836C55.7965 222.813 55.8211 222.784 55.839 222.751C55.857 222.718 55.8679 222.682 55.871 222.644C56.1086 220.364 56.342 218.059 56.5838 215.766C56.934 212.431 57.28 209.058 57.6344 205.694C57.637 205.657 57.6476 205.62 57.6656 205.587C57.6836 205.554 57.7085 205.525 57.7386 205.502C57.7727 205.491 57.8087 205.487 57.8445 205.489C57.8803 205.492 57.9152 205.502 57.947 205.519L58.2263 205.565C58.2639 205.57 58.3021 205.568 58.3386 205.558C58.3752 205.548 58.4093 205.53 58.4389 205.507C58.4696 205.484 58.4952 205.455 58.5139 205.422C58.5326 205.389 58.544 205.353 58.5473 205.315L58.8475 202.434C59.2018 198.999 67.7437 200.075 67.4018 203.51C67.3101 204.477 67.2184 205.448 67.1184 206.395C67.1121 206.465 67.1326 206.536 67.1758 206.592C67.2191 206.649 67.2819 206.687 67.3518 206.699L67.7103 206.757C67.7796 206.769 67.842 206.806 67.8846 206.862C67.9273 206.918 67.9469 206.988 67.9396 207.057C67.6103 210.392 67.2851 213.79 66.96 217.142C66.7348 219.46 66.5014 221.777 66.2804 224.066C66.2744 224.138 66.296 224.21 66.341 224.266C66.3859 224.323 66.4508 224.36 66.5222 224.37C67.7104 224.529 68.8818 224.725 70.0449 224.9C70.0824 224.906 70.1209 224.904 70.1576 224.894C70.1943 224.884 70.2284 224.866 70.2575 224.841C70.2882 224.819 70.3137 224.79 70.3324 224.757C70.3511 224.724 70.3625 224.688 70.3659 224.65C70.5785 222.365 70.8036 220.064 71.0245 217.746C71.3414 214.411 71.6568 211.076 71.9708 207.741C71.9729 207.703 71.9832 207.665 72.0013 207.632C72.0193 207.598 72.0444 207.568 72.0751 207.545C72.1044 207.521 72.1386 207.504 72.1753 207.494C72.2121 207.485 72.2504 207.484 72.2877 207.491L72.567 207.533C72.6052 207.539 72.6443 207.537 72.6817 207.527C72.7191 207.517 72.7539 207.499 72.7838 207.474C72.8139 207.452 72.8388 207.423 72.8567 207.39C72.8747 207.357 72.8854 207.32 72.888 207.282C72.9714 206.344 73.0631 205.39 73.159 204.456C73.48 201.021 80.6419 202.276 80.3334 205.686C80.2501 206.632 80.1709 207.578 80.0791 208.546C80.0719 208.617 80.092 208.688 80.1354 208.744C80.1788 208.801 80.2422 208.839 80.3126 208.85L80.6628 208.904C80.7324 208.915 80.7952 208.953 80.8385 209.008C80.8818 209.064 80.9024 209.134 80.8962 209.204C80.5961 212.539 80.2918 215.874 79.9916 219.209C79.7832 221.594 79.5747 223.953 79.3621 226.296C79.3566 226.365 79.3765 226.434 79.4179 226.489C79.4594 226.544 79.5196 226.582 79.5872 226.596C80.421 226.759 81.2547 226.938 82.0885 227.122C82.127 227.132 82.1674 227.133 82.2064 227.125C82.2455 227.117 82.2822 227.1 82.3136 227.076C82.3463 227.053 82.3734 227.023 82.3929 226.989C82.4124 226.954 82.4238 226.915 82.4262 226.876C82.6388 224.508 82.8431 222.115 83.0515 219.726C83.335 216.445 83.6268 213.14 83.9228 209.834C83.9261 209.795 83.9378 209.757 83.9573 209.723C83.9767 209.689 84.0034 209.66 84.0353 209.638C84.067 209.614 84.1035 209.597 84.1424 209.588C84.1813 209.579 84.2215 209.579 84.2604 209.588L84.5064 209.638C84.545 209.646 84.5848 209.645 84.6232 209.636C84.6616 209.628 84.6977 209.611 84.7292 209.587C84.7607 209.564 84.7868 209.534 84.8059 209.499C84.825 209.465 84.8366 209.427 84.8399 209.388L85.0775 206.615C85.3735 203.205 91.1598 204.464 90.8888 207.82C90.8055 208.767 90.7262 209.717 90.6512 210.663C90.6457 210.731 90.6651 210.799 90.7058 210.853C90.7464 210.908 90.8056 210.945 90.8721 210.959L91.2557 211.051C91.3192 211.067 91.3749 211.105 91.4125 211.159C91.4501 211.212 91.4669 211.278 91.4599 211.343C91.1765 214.62 90.9222 217.9 90.6262 221.202C90.4261 223.745 90.2093 226.288 90.0009 228.827C89.9939 228.892 90.0108 228.957 90.0483 229.011C90.0859 229.065 90.1416 229.103 90.2051 229.119C90.6971 229.256 91.1848 229.398 91.66 229.535C91.7002 229.547 91.7423 229.549 91.7835 229.542C91.8246 229.535 91.8637 229.52 91.8982 229.496C91.9327 229.473 91.9617 229.442 91.9832 229.407C92.0047 229.371 92.0182 229.331 92.0227 229.29C92.2312 226.73 92.441 224.17 92.6522 221.611C92.919 218.371 93.1775 215.128 93.4485 211.889C93.4524 211.849 93.4649 211.81 93.485 211.774C93.5051 211.739 93.5324 211.709 93.5652 211.685C93.5987 211.661 93.6368 211.645 93.677 211.637C93.7173 211.629 93.7587 211.63 93.7986 211.639L94.0112 211.693C94.0501 211.702 94.0905 211.702 94.1294 211.693C94.1683 211.685 94.2048 211.667 94.2364 211.643C94.2703 211.621 94.2983 211.59 94.3179 211.555C94.3375 211.519 94.3482 211.479 94.3489 211.439C94.424 210.522 94.499 209.621 94.5657 208.7C94.845 205.365 99.2931 206.465 99.0221 209.792C98.9554 210.713 98.8762 211.635 98.7928 212.556C98.7855 212.622 98.8021 212.689 98.8396 212.744C98.877 212.799 98.9329 212.839 98.9971 212.856L99.414 212.952C99.4805 212.966 99.5397 213.004 99.5804 213.058C99.6211 213.113 99.6405 213.18 99.6349 213.248C99.3723 216.487 99.1305 219.705 98.8721 222.949L98.1717 231.857C98.1675 231.912 98.1795 231.966 98.2062 232.014C98.2329 232.061 98.2732 232.1 98.3218 232.124C99.1078 232.516 99.8475 232.994 100.527 233.55C100.572 233.592 100.603 233.647 100.614 233.707C100.625 233.767 100.616 233.83 100.589 233.885C100.562 233.94 100.518 233.984 100.463 234.012C100.408 234.04 100.346 234.049 100.285 234.038L100.264 234.029ZM102.553 203.818C88.3542 199.795 72.4586 196.848 56.4629 195.164C40.4673 193.48 24.2757 193.079 9.58072 194.051C9.51868 194.057 9.45636 194.042 9.40397 194.008C9.35158 193.974 9.31223 193.924 9.29236 193.865C9.2725 193.806 9.2733 193.741 9.29464 193.683C9.31597 193.624 9.35658 193.575 9.4098 193.542C10.183 193.05 11.0131 192.654 11.8819 192.362C11.9304 192.346 11.9733 192.316 12.0057 192.276C12.0381 192.236 12.0588 192.188 12.0653 192.137C12.4488 189.219 12.8365 186.301 13.2242 183.383C13.6495 180.178 14.0663 176.974 14.4749 173.77C14.4823 173.707 14.5113 173.648 14.5569 173.604C14.6025 173.56 14.6618 173.533 14.725 173.528L15.1419 173.482C15.2051 173.477 15.2644 173.45 15.31 173.406C15.3556 173.362 15.3846 173.303 15.392 173.24C15.5087 172.319 15.6338 171.398 15.7547 170.476C16.1716 167.17 20.7072 166.753 20.2778 170.093C20.1653 170.981 20.0444 171.889 19.9318 172.782C19.9261 172.822 19.9296 172.864 19.9419 172.903C19.9543 172.942 19.9752 172.978 20.0032 173.007C20.0311 173.037 20.0654 173.061 20.1036 173.076C20.1417 173.091 20.1828 173.097 20.2236 173.094H20.4112C20.4526 173.09 20.4945 173.095 20.5335 173.11C20.5726 173.124 20.6078 173.147 20.6364 173.178C20.6643 173.208 20.6854 173.245 20.6983 173.284C20.7112 173.324 20.7157 173.366 20.7114 173.407C20.2945 176.629 19.8776 179.852 19.4608 183.045C19.1398 185.546 18.8188 188.048 18.5019 190.524C18.4957 190.566 18.4997 190.61 18.5135 190.65C18.5272 190.691 18.5504 190.728 18.5811 190.757C18.6118 190.788 18.6493 190.811 18.6906 190.825C18.7318 190.839 18.7757 190.843 18.8188 190.837C19.2982 190.766 19.7859 190.707 20.2945 190.657C20.3567 190.65 20.4147 190.623 20.4593 190.579C20.5039 190.535 20.5325 190.478 20.5405 190.416C20.8615 187.939 21.1741 185.434 21.4951 182.933C21.912 179.668 22.3289 176.404 22.7458 173.14C22.7525 173.077 22.7812 173.018 22.8269 172.974C22.8726 172.93 22.9325 172.903 22.9959 172.898L23.4128 172.852C23.4759 172.847 23.5353 172.82 23.5809 172.776C23.6265 172.732 23.6554 172.674 23.6629 172.611C23.7796 171.685 23.9089 170.739 24.0256 169.788C24.4425 166.453 30.2788 166.145 29.8619 169.542C29.7493 170.464 29.6409 171.385 29.5284 172.306C29.5237 172.345 29.5273 172.384 29.5387 172.422C29.5502 172.459 29.5694 172.494 29.5951 172.523C29.6209 172.553 29.6529 172.577 29.6888 172.594C29.7248 172.61 29.7639 172.619 29.8035 172.619H30.0328C30.0725 172.618 30.1118 172.627 30.1479 172.643C30.1839 172.66 30.2158 172.684 30.2413 172.715C30.2686 172.743 30.2892 172.778 30.3014 172.815C30.3137 172.853 30.3174 172.892 30.3121 172.932C29.8952 176.2 29.5034 179.489 29.1115 182.757C28.8155 185.109 28.532 187.46 28.2444 189.811C28.2382 189.852 28.2413 189.893 28.2536 189.932C28.2659 189.971 28.287 190.007 28.3153 190.036C28.3431 190.065 28.3768 190.088 28.4142 190.103C28.4516 190.118 28.4918 190.125 28.532 190.124C29.3658 190.095 30.1662 190.082 31.0083 190.074C31.0765 190.074 31.1424 190.049 31.1932 190.004C31.2441 189.958 31.2762 189.896 31.2834 189.828C31.5711 187.477 31.8504 185.125 32.1172 182.741C32.5174 179.422 32.9218 176.105 33.3303 172.79C33.3376 172.722 33.3697 172.659 33.4205 172.614C33.4714 172.568 33.5373 172.544 33.6055 172.544H33.9765C34.0419 172.541 34.1042 172.516 34.1523 172.471C34.2005 172.427 34.2312 172.367 34.2391 172.302C34.3558 171.352 34.4684 170.401 34.5851 169.451C35.002 166.024 42.1473 166.091 41.7471 169.522C41.6387 170.476 41.5387 171.406 41.4261 172.356C41.4207 172.394 41.4235 172.433 41.4343 172.469C41.4451 172.506 41.4636 172.54 41.4886 172.569C41.5131 172.599 41.5436 172.623 41.5781 172.64C41.6125 172.657 41.6502 172.667 41.6888 172.669H41.9472C41.9851 172.671 42.0221 172.681 42.0561 172.698C42.09 172.714 42.1202 172.738 42.1448 172.767C42.1694 172.796 42.1878 172.829 42.199 172.865C42.2102 172.902 42.2139 172.94 42.2099 172.977C41.8319 176.313 41.4497 179.648 41.0634 182.983C40.7966 185.317 40.5257 187.622 40.263 189.928C40.2582 189.966 40.2616 190.005 40.2731 190.041C40.2846 190.078 40.3039 190.112 40.3297 190.14C40.3548 190.169 40.3854 190.193 40.4198 190.209C40.4543 190.226 40.4917 190.235 40.5298 190.236C41.6846 190.282 42.8435 190.328 44.0108 190.399C44.0829 190.404 44.154 190.38 44.2092 190.333C44.2644 190.287 44.2994 190.221 44.3068 190.149C44.5694 187.831 44.8279 185.484 45.0905 183.141C45.4657 179.806 45.8534 176.471 46.2369 173.086C46.2443 173.015 46.2788 172.95 46.3332 172.904C46.3876 172.858 46.4577 172.835 46.5287 172.84H46.8664C46.9364 172.841 47.0044 172.816 47.0569 172.77C47.1094 172.724 47.1426 172.659 47.1499 172.59C47.2541 171.623 47.3708 170.676 47.4709 169.705C47.8627 166.274 56.292 166.891 55.9168 170.355L55.6167 173.223C55.6127 173.261 55.6164 173.299 55.6275 173.335C55.6387 173.372 55.6572 173.405 55.6817 173.434C55.7063 173.463 55.7365 173.487 55.7705 173.503C55.8044 173.52 55.8415 173.53 55.8793 173.532L56.1586 173.557C56.1954 173.561 56.2311 173.571 56.2636 173.589C56.2961 173.607 56.3248 173.63 56.3481 173.659C56.3713 173.688 56.3887 173.721 56.3991 173.756C56.4095 173.792 56.4128 173.829 56.4088 173.865C56.0461 177.23 55.6834 180.573 55.329 183.941C55.0831 186.284 54.8413 188.598 54.587 190.912C54.5825 190.948 54.5858 190.985 54.5965 191.02C54.6073 191.056 54.6254 191.088 54.6495 191.116C54.6722 191.145 54.7005 191.169 54.7327 191.187C54.765 191.205 54.8005 191.216 54.8371 191.22L58.7016 191.637C58.7383 191.641 58.7755 191.638 58.8109 191.627C58.8463 191.617 58.8793 191.6 58.908 191.576C58.9367 191.553 58.9605 191.524 58.978 191.492C58.9955 191.459 59.0064 191.424 59.0101 191.387C59.2519 189.073 59.477 186.76 59.7229 184.417C60.0689 181.044 60.4275 177.705 60.7818 174.337C60.7849 174.3 60.7953 174.263 60.8125 174.231C60.8297 174.198 60.8533 174.168 60.8819 174.145C60.9413 174.099 61.0159 174.078 61.0903 174.086C61.182 174.086 61.2696 174.086 61.3571 174.124C61.3946 174.129 61.4329 174.127 61.4694 174.117C61.506 174.107 61.5401 174.089 61.5697 174.066C61.6004 174.043 61.6259 174.014 61.6446 173.981C61.6633 173.948 61.6747 173.912 61.6781 173.874L61.9783 171.006C62.3326 167.571 70.7077 168.688 70.3659 172.123C70.2741 173.094 70.1741 174.066 70.0824 175.016C70.0748 175.085 70.0934 175.154 70.1343 175.209C70.1752 175.265 70.2356 175.303 70.3033 175.316C70.4201 175.341 70.541 175.362 70.6618 175.379C70.7318 175.391 70.7946 175.429 70.8379 175.485C70.8811 175.542 70.9016 175.612 70.8953 175.683C70.5576 179.06 70.2283 182.403 69.9073 185.751C69.678 188.102 69.4487 190.449 69.2278 192.775C69.2206 192.846 69.2408 192.916 69.2843 192.972C69.3278 193.028 69.3912 193.065 69.4612 193.075C70.616 193.25 71.7624 193.446 72.8922 193.642C72.9301 193.649 72.969 193.647 73.0064 193.638C73.0438 193.629 73.0789 193.612 73.1094 193.588C73.14 193.565 73.1653 193.535 73.1839 193.501C73.2025 193.468 73.2138 193.43 73.2173 193.392C73.4383 191.087 73.6717 188.777 73.8885 186.439C74.2025 183.103 74.5166 179.768 74.8306 176.433C74.8341 176.395 74.8455 176.358 74.8641 176.324C74.8826 176.29 74.908 176.261 74.9385 176.237C74.9691 176.214 75.0041 176.197 75.0415 176.188C75.0789 176.178 75.1178 176.177 75.1558 176.183L75.4226 176.225C75.4603 176.231 75.4987 176.229 75.5357 176.219C75.5725 176.21 75.6071 176.193 75.6372 176.169C75.6672 176.146 75.6922 176.117 75.7105 176.083C75.7288 176.05 75.7401 176.013 75.7436 175.975C75.8312 175.024 75.9145 174.091 76.0062 173.136C76.3356 169.697 83.3433 171.118 83.0348 174.553C82.9348 175.504 82.8514 176.458 82.7722 177.409C82.7659 177.474 82.783 177.54 82.8204 177.594C82.8577 177.648 82.913 177.688 82.9765 177.705L83.3475 177.792C83.4148 177.806 83.4746 177.845 83.5153 177.9C83.5561 177.956 83.575 178.024 83.5684 178.093C83.2683 181.428 82.9709 184.754 82.6763 188.073C82.4637 190.461 82.2594 192.821 82.0385 195.16C82.0326 195.227 82.0513 195.295 82.0911 195.35C82.1309 195.405 82.1891 195.444 82.2553 195.46C83.089 195.643 83.8853 195.827 84.6773 196.023C84.7162 196.034 84.7571 196.036 84.7968 196.029C84.8366 196.021 84.8742 196.005 84.9066 195.981C84.9411 195.959 84.9697 195.929 84.99 195.893C85.0103 195.857 85.0218 195.818 85.0233 195.777C85.2346 193.417 85.4444 191.055 85.6528 188.69C85.9363 185.413 86.2198 182.107 86.5116 178.83C86.5148 178.791 86.5266 178.753 86.546 178.718C86.5654 178.684 86.5921 178.654 86.6241 178.63C86.6557 178.606 86.6922 178.589 86.7311 178.58C86.77 178.572 86.8104 178.572 86.8493 178.58L87.0744 178.626C87.1124 178.634 87.1516 178.634 87.1897 178.627C87.2277 178.619 87.2637 178.603 87.2953 178.58C87.3275 178.556 87.3542 178.526 87.3736 178.49C87.393 178.455 87.4047 178.416 87.4079 178.376L87.6455 175.604C87.954 172.194 93.6069 173.711 93.3276 177.063C93.2567 178.018 93.165 178.968 93.0858 179.898C93.079 179.961 93.0945 180.025 93.1294 180.078C93.1644 180.131 93.2168 180.171 93.2775 180.189L93.6944 180.319C93.7551 180.338 93.8075 180.378 93.8431 180.431C93.8786 180.484 93.8953 180.547 93.8904 180.611C93.6152 183.887 93.3484 187.168 93.0566 190.445C92.8482 192.946 92.6397 195.476 92.4313 197.949C92.4255 198.011 92.4414 198.074 92.4763 198.126C92.5112 198.179 92.563 198.217 92.623 198.236C93.1108 198.395 93.5777 198.553 94.0404 198.724C94.0811 198.738 94.1244 198.743 94.1671 198.738C94.2098 198.732 94.2508 198.718 94.2869 198.694C94.3231 198.671 94.3534 198.64 94.3757 198.603C94.398 198.566 94.4117 198.525 94.4156 198.482C94.6199 195.981 94.8325 193.48 95.0326 190.978C95.2911 187.773 95.5537 184.533 95.8247 181.298C95.828 181.257 95.8406 181.217 95.8615 181.18C95.8824 181.144 95.9111 181.113 95.9456 181.09C95.9795 181.066 96.0186 181.049 96.0599 181.043C96.1012 181.036 96.1434 181.04 96.1832 181.052L96.3499 181.102C96.3899 181.114 96.4319 181.117 96.4729 181.11C96.514 181.104 96.5531 181.088 96.5876 181.065C96.6221 181.042 96.6507 181.011 96.671 180.975C96.6913 180.939 96.7027 180.898 96.7043 180.857C96.7793 179.96 96.8502 179.047 96.9336 178.155C97.192 174.82 101.544 176.146 101.277 179.472C101.207 180.398 101.14 181.323 101.061 182.249C101.055 182.313 101.071 182.376 101.107 182.429C101.143 182.483 101.195 182.522 101.257 182.541L101.673 182.674C101.733 182.693 101.785 182.732 101.821 182.784C101.856 182.836 101.873 182.899 101.869 182.962C101.607 186.184 101.361 189.407 101.111 192.629C100.881 195.572 100.648 198.516 100.415 201.434C100.408 201.485 100.417 201.536 100.44 201.582C100.463 201.628 100.499 201.666 100.544 201.692C101.331 202.164 102.062 202.724 102.724 203.36C102.768 203.404 102.796 203.461 102.804 203.523C102.811 203.585 102.798 203.648 102.766 203.701C102.742 203.736 102.71 203.765 102.673 203.785C102.636 203.806 102.595 203.817 102.553 203.818ZM76.5023 26.5362C76.5023 28.2829 76.8858 28.9374 77.5445 30.4215C78.2407 31.9848 70.1908 31.9931 70.8745 30.4215C71.5331 28.9374 71.9167 28.2871 71.9167 26.5362C71.9333 22.7551 76.5023 22.7551 76.5023 26.5362ZM57.6511 11.4493C57.5385 12.4373 57.4176 13.4253 57.3009 14.4133C57.2957 14.457 57.301 14.5013 57.3162 14.5426C57.3314 14.5839 57.3561 14.621 57.3884 14.651C57.4193 14.6811 57.4571 14.7033 57.4985 14.7157C57.5399 14.728 57.5837 14.7301 57.626 14.7218L57.8261 14.6885C57.8685 14.6823 57.9118 14.6862 57.9524 14.7C57.993 14.7138 58.0297 14.737 58.0596 14.7677C58.0919 14.7965 58.1165 14.833 58.1311 14.8738C58.1457 14.9146 58.1497 14.9584 58.143 15.0011C57.7261 18.5446 57.3092 22.0881 56.8923 25.6691C56.5727 28.4483 56.2476 31.2275 55.9168 34.0067C55.9116 34.0484 55.9161 34.0908 55.9298 34.1305C55.9435 34.1702 55.9662 34.2063 55.996 34.2359C56.0246 34.2662 56.0598 34.2895 56.0989 34.3039C56.1379 34.3184 56.1798 34.3236 56.2212 34.3193C57.4718 34.1984 58.7224 34.1234 59.9731 34.0483C60.0386 34.0456 60.101 34.0191 60.1485 33.9739C60.196 33.9287 60.2255 33.8677 60.2315 33.8024C60.5567 30.8842 60.886 27.9661 61.2237 25.0479C61.6406 21.4127 62.0575 17.8067 62.4743 14.2091C62.4817 14.1379 62.5161 14.0724 62.5704 14.0258C62.6247 13.9793 62.6947 13.9554 62.7662 13.9589C62.8954 13.9589 63.0205 13.9589 63.1497 13.9589C63.2186 13.9604 63.2855 13.9359 63.3372 13.8904C63.389 13.8448 63.4217 13.7815 63.429 13.713C63.5499 12.6541 63.6708 11.6286 63.7958 10.5906C64.2127 6.89701 73.0798 7.02624 72.6795 10.7531C72.5795 11.7703 72.4628 12.8084 72.3544 13.8255C72.3503 13.8637 72.3541 13.9022 72.3656 13.9388C72.3771 13.9754 72.396 14.0092 72.4211 14.0381C72.4461 14.0681 72.4773 14.0922 72.5126 14.1087C72.5479 14.1253 72.5864 14.1339 72.6254 14.134C74.5526 14.1915 76.4729 14.3935 78.3699 14.7385C78.4076 14.746 78.4463 14.7454 78.4837 14.7368C78.5211 14.7281 78.5562 14.7117 78.5867 14.6885C78.6171 14.6649 78.6424 14.6354 78.6611 14.6017C78.6797 14.568 78.6913 14.5309 78.6951 14.4925C78.8035 13.4754 78.9119 12.4332 79.0203 11.4201C79.3996 7.66823 88.0999 9.40662 87.7497 13.0877C87.6413 14.1174 87.5413 15.1721 87.4412 16.2101C87.434 16.2805 87.4543 16.3511 87.4978 16.407C87.5413 16.4629 87.6046 16.4999 87.6747 16.5102L88.0415 16.5686C88.1119 16.5799 88.1754 16.6178 88.2188 16.6744C88.2622 16.7309 88.2823 16.802 88.275 16.8729C87.9359 20.4859 87.5885 24.0988 87.2328 27.7118C86.9451 30.6591 86.6658 33.6065 86.399 36.5246C86.3919 36.5902 86.4086 36.6563 86.4461 36.7106C86.4836 36.7649 86.5394 36.804 86.6033 36.8206C87.8164 37.1541 89.017 37.4876 90.1968 37.8628C90.2364 37.8752 90.2783 37.8787 90.3194 37.8729C90.3605 37.8672 90.3998 37.8523 90.4344 37.8294C90.4701 37.8068 90.4999 37.7762 90.5216 37.74C90.5434 37.7038 90.5563 37.6631 90.5595 37.621C90.8138 34.8279 91.0806 32.0348 91.3432 29.2417C91.6809 25.6566 92.0144 22.1006 92.3521 18.5488C92.3547 18.5055 92.3679 18.4635 92.3904 18.4265C92.4129 18.3894 92.4441 18.3584 92.4813 18.3362C92.5177 18.3137 92.5588 18.2998 92.6014 18.2954C92.644 18.2911 92.687 18.2965 92.7273 18.3112L92.9024 18.382C92.9428 18.3983 92.9865 18.4049 93.0299 18.4013C93.0733 18.3977 93.1153 18.3839 93.1525 18.3612C93.1902 18.3391 93.222 18.3083 93.2453 18.2713C93.2685 18.2342 93.2824 18.1921 93.2859 18.1486C93.3776 17.1564 93.4651 16.1642 93.561 15.1721C93.8945 11.4994 101.102 14.4217 100.79 18.0902C100.698 19.1366 100.61 20.1746 100.51 21.2043C100.504 21.2643 100.518 21.3248 100.549 21.3761C100.581 21.4275 100.629 21.4668 100.685 21.4878L101.182 21.692C101.238 21.7131 101.286 21.7523 101.318 21.8037C101.35 21.8551 101.363 21.9155 101.357 21.9755C101.044 25.5232 100.727 29.1 100.419 32.6768C100.16 35.595 99.9101 38.5506 99.6558 41.4563C99.6514 41.5123 99.6637 41.5683 99.6911 41.6173C99.7186 41.6663 99.76 41.706 99.81 41.7314C106.213 45.0206 111.353 49.1894 114.084 54.2336C114.116 54.2918 114.127 54.3597 114.113 54.4249C114.099 54.4901 114.062 54.548 114.009 54.588C113.958 54.6311 113.894 54.6549 113.828 54.6549C113.761 54.6549 113.697 54.6311 113.646 54.588C103.937 45.2999 88.6335 39.5595 73.0047 37.9128C57.3759 36.2661 41.2052 38.7049 29.7952 45.7752C29.739 45.8111 29.6717 45.8254 29.6057 45.8155C29.5398 45.8055 29.4797 45.7719 29.4367 45.721C29.3935 45.6704 29.3698 45.6061 29.3698 45.5396C29.3698 45.4731 29.3935 45.4088 29.4367 45.3583C33.1386 40.981 39.0416 37.9337 46.0326 36.1077C46.0873 36.0938 46.1365 36.0637 46.1737 36.0212C46.2109 35.9788 46.2344 35.9261 46.2411 35.8701C46.5912 32.952 46.9456 30.0338 47.3083 27.1156C47.7474 23.5527 48.1837 19.9981 48.6173 16.4519C48.6242 16.3929 48.6498 16.3376 48.6903 16.2941C48.7307 16.2507 48.784 16.2212 48.8424 16.2101L49.376 16.1184C49.435 16.107 49.4887 16.077 49.5293 16.0327C49.5698 15.9884 49.595 15.9322 49.6011 15.8724C49.722 14.8302 49.8471 13.813 49.9763 12.7708C50.4432 9.169 58.0888 7.78496 57.6511 11.4493Z" fill="#369447"/>
</g>
<defs>
<clipPath id="clip0_3212_28909">
<rect width="114.539" height="285.584" fill="white" transform="translate(0 0.415527)"/>
</clipPath>
</defs>
</svg>
