<svg width="222" height="23" viewBox="0 0 222 23" fill="none" xmlns="http://www.w3.org/2000/svg">
<mask id="path-1-outside-1_2561_66405" maskUnits="userSpaceOnUse" x="0" y="0.259766" width="222" height="23" fill="black">
<rect fill="white" y="0.259766" width="222" height="23"/>
<path d="M1.024 3.11977C1.084 2.03977 1.664 1.43977 2.764 1.31977C3.884 1.19977 4.734 1.35977 5.314 1.79977C5.914 2.23977 6.094 3.56977 5.854 5.78977C5.734 6.90977 5.724 7.79977 5.824 8.45977C5.924 9.09977 6.104 9.52977 6.364 9.74977C6.864 10.1698 7.394 10.2798 7.954 10.0798C8.254 9.97977 8.534 9.79977 8.794 9.53977C9.074 9.27977 9.244 8.90977 9.304 8.42977C9.344 7.94977 9.334 7.42977 9.274 6.86977C9.214 6.30977 9.134 5.68977 9.034 5.00977C8.934 4.14977 8.904 3.47977 8.944 2.99977C9.004 2.49977 9.244 2.11977 9.664 1.85977C10.064 1.59977 10.494 1.44977 10.954 1.40977C11.434 1.36977 11.894 1.42977 12.334 1.58977C12.774 1.76977 13.074 2.08977 13.234 2.54977C13.414 2.98977 13.494 3.43977 13.474 3.89977C13.454 4.37977 13.384 5.25977 13.264 6.53977C13.144 7.81977 13.014 9.51977 12.874 11.6398C12.834 12.4798 12.874 13.3598 12.994 14.2798C13.114 15.1798 13.304 16.1598 13.564 17.2198C13.844 18.3598 13.954 19.2498 13.894 19.8898C13.834 20.5298 13.534 20.9598 12.994 21.1798C12.454 21.4198 11.894 21.5298 11.314 21.5098C10.754 21.4698 10.264 21.3498 9.844 21.1498C9.084 20.7498 8.854 19.6798 9.154 17.9398C9.454 16.1398 9.454 14.9298 9.154 14.3098C8.994 13.9898 8.744 13.7698 8.404 13.6498C8.064 13.5298 7.714 13.4698 7.354 13.4698C7.014 13.4698 6.704 13.5198 6.424 13.6198C6.164 13.6998 5.954 13.9098 5.794 14.2498C5.634 14.5698 5.524 15.0798 5.464 15.7798C5.424 16.4598 5.484 17.1798 5.644 17.9398C5.804 18.7398 5.834 19.4198 5.734 19.9798C5.634 20.5198 5.404 20.8998 5.044 21.1198C4.684 21.3598 4.274 21.4998 3.814 21.5398C3.354 21.5598 2.894 21.5298 2.434 21.4498C2.134 21.3898 1.884 21.2698 1.684 21.0898C1.484 20.9098 1.334 20.6898 1.234 20.4298C1.134 20.1498 1.074 19.8398 1.054 19.4998C1.054 19.1598 1.104 18.8198 1.204 18.4798C1.384 17.7798 1.494 17.1298 1.534 16.5298C1.574 15.9098 1.644 15.2798 1.744 14.6398C1.824 13.9998 1.864 13.1798 1.864 12.1798C1.884 11.1598 1.764 9.98977 1.504 8.66977C1.264 7.34977 1.114 6.22977 1.054 5.30977C0.994 4.38977 0.984 3.65977 1.024 3.11977Z"/>
<path d="M27.1057 3.14977C27.7457 3.86977 28.2457 4.65977 28.6057 5.51977C28.9857 6.35977 29.2457 7.23977 29.3857 8.15977C29.5457 9.07977 29.6157 10.0198 29.5957 10.9798C29.5957 11.9198 29.5357 12.8398 29.4157 13.7398C29.3157 14.4998 29.1957 15.1698 29.0557 15.7498C28.9357 16.3098 28.7857 16.8298 28.6057 17.3098C28.4257 17.7698 28.2157 18.1898 27.9757 18.5698C27.7357 18.9298 27.4557 19.2798 27.1357 19.6198C26.8157 19.9598 26.5057 20.2598 26.2057 20.5198C25.9057 20.7598 25.5857 20.9598 25.2457 21.1198C24.9257 21.2598 24.5657 21.3698 24.1657 21.4498C23.7857 21.5098 23.3357 21.5398 22.8157 21.5398C22.2557 21.5398 21.7657 21.4798 21.3457 21.3598C20.9257 21.2198 20.5457 21.0398 20.2057 20.8198C19.8857 20.5798 19.5857 20.2998 19.3057 19.9798C19.0257 19.6598 18.7457 19.2998 18.4657 18.8998C17.8457 18.0198 17.3657 17.0498 17.0257 15.9898C16.7057 14.9298 16.5057 13.8498 16.4257 12.7498C16.3657 11.6298 16.4157 10.5198 16.5757 9.41977C16.7357 8.29977 16.9957 7.24977 17.3557 6.26977C17.5957 5.60977 17.9157 4.95977 18.3157 4.31977C18.7357 3.67977 19.2257 3.11977 19.7857 2.63977C20.3457 2.15977 20.9657 1.79977 21.6457 1.55977C22.3457 1.29977 23.0957 1.21977 23.8957 1.31977C25.0557 1.45977 26.1257 2.06977 27.1057 3.14977ZM24.6157 15.1498C24.9557 14.8098 25.1957 14.2398 25.3357 13.4398C25.4757 12.6398 25.5457 11.5698 25.5457 10.2298C25.5457 8.96977 25.3457 8.05977 24.9457 7.49977C24.5657 6.93977 24.1057 6.60977 23.5657 6.50977C22.5057 6.30977 21.6857 7.02977 21.1057 8.66977C20.8257 9.50977 20.6557 10.2898 20.5957 11.0098C20.5557 11.7098 20.5857 12.3998 20.6857 13.0798C20.8457 14.4598 21.3857 15.3398 22.3057 15.7198C22.7257 15.8998 23.1257 15.9398 23.5057 15.8398C23.8857 15.7198 24.2557 15.4898 24.6157 15.1498Z"/>
<path d="M32.6166 11.8198C32.6966 9.63977 32.6866 7.83977 32.5866 6.41977C32.4866 4.99977 32.4166 4.04977 32.3766 3.56977C32.3366 3.10977 32.3966 2.73977 32.5566 2.45977C32.7166 2.15977 32.9366 1.89977 33.2166 1.67977C33.4966 1.45977 33.8966 1.32977 34.4166 1.28977C34.9366 1.24977 35.3966 1.28977 35.7966 1.40977C36.2566 1.56977 36.7166 2.06977 37.1766 2.90977C37.6566 3.74977 38.1266 4.76977 38.5866 5.96977C39.5266 8.34977 40.5466 8.33977 41.6466 5.93977C42.1866 4.73977 42.6866 3.72977 43.1466 2.90977C43.6066 2.06977 44.0266 1.58977 44.4066 1.46977C44.5866 1.40977 44.8166 1.35977 45.0966 1.31977C45.3766 1.27977 45.6566 1.26977 45.9366 1.28977C46.2366 1.30977 46.5166 1.34977 46.7766 1.40977C47.0366 1.46977 47.2466 1.55977 47.4066 1.67977C47.7066 1.91977 47.8966 2.25977 47.9766 2.69977C48.0766 3.11977 48.1066 3.63977 48.0666 4.25977C48.0466 4.57977 48.0266 4.99977 48.0066 5.51977C47.9866 6.03977 47.9666 6.61977 47.9466 7.25977C47.9266 7.89977 47.9066 8.58977 47.8866 9.32977C47.8866 10.0698 47.8866 10.8098 47.8866 11.5498C47.8866 12.2698 47.8866 12.8798 47.8866 13.3798C47.9066 13.8798 47.9266 14.3398 47.9466 14.7598C47.9666 15.1798 47.9866 15.6098 48.0066 16.0498C48.0466 16.4698 48.0966 16.9698 48.1566 17.5498C48.2166 18.0898 48.2366 18.5998 48.2166 19.0798C48.2166 19.5598 48.1266 19.9798 47.9466 20.3398C47.7666 20.6998 47.4766 20.9898 47.0766 21.2098C46.6966 21.4098 46.1566 21.5098 45.4566 21.5098C44.8966 21.5098 44.4566 21.4198 44.1366 21.2398C43.8366 21.0598 43.6166 20.8198 43.4766 20.5198C43.3366 20.1998 43.2566 19.8298 43.2366 19.4098C43.2366 18.9698 43.2566 18.5098 43.2966 18.0298C43.4366 16.5498 43.5466 15.2998 43.6266 14.2798C43.7266 13.2398 43.8066 12.2798 43.8666 11.3998C43.9066 10.6998 43.8866 10.1998 43.8066 9.89977C43.7266 9.59977 43.5966 9.46977 43.4166 9.50977C43.2366 9.54977 43.0066 9.74977 42.7266 10.1098C42.4666 10.4698 42.1866 10.9698 41.8866 11.6098C40.6466 14.1698 39.4866 14.1598 38.4066 11.5798C37.8666 10.2998 37.4366 9.61977 37.1166 9.53977C36.8166 9.43977 36.6966 9.95977 36.7566 11.0998C36.7966 12.2198 36.8366 13.2698 36.8766 14.2498C36.9166 15.2098 37.0266 16.2998 37.2066 17.5198C37.3666 18.7798 37.3066 19.7298 37.0266 20.3698C36.7666 20.9898 36.1766 21.3498 35.2566 21.4498C34.5366 21.5298 33.9666 21.4998 33.5466 21.3598C33.1266 21.2198 32.8066 21.0098 32.5866 20.7298C32.3666 20.4498 32.2266 20.1298 32.1666 19.7698C32.1266 19.3898 32.1266 18.9998 32.1666 18.5998C32.1866 18.2398 32.2166 17.8498 32.2566 17.4298C32.2966 17.0098 32.3266 16.5398 32.3466 16.0198C32.3866 15.4798 32.4266 14.8698 32.4666 14.1898C32.5066 13.5098 32.5566 12.7198 32.6166 11.8198Z"/>
<path d="M59.1874 16.7998C59.7674 16.6598 60.3274 16.5898 60.8674 16.5898C61.4074 16.5698 61.8974 16.6098 62.3374 16.7098C62.7974 16.8098 63.1774 16.9598 63.4774 17.1598C63.7774 17.3598 63.9774 17.5998 64.0774 17.8798C64.2574 18.4398 64.3274 18.9098 64.2874 19.2898C64.2674 19.6498 64.1674 20.0598 63.9874 20.5198C63.7874 20.9798 63.3474 21.2898 62.6674 21.4498C62.0074 21.5898 61.1474 21.5898 60.0874 21.4498C59.1874 21.3298 58.2674 21.3198 57.3274 21.4198C56.3874 21.4998 55.3774 21.5398 54.2974 21.5398C53.1774 21.5398 52.3974 21.3798 51.9574 21.0598C51.5374 20.7398 51.3174 20.2298 51.2974 19.5298C51.2774 19.0298 51.2774 18.6198 51.2974 18.2998C51.3374 17.9798 51.3874 17.6998 51.4474 17.4598C51.5274 17.2198 51.6174 16.9798 51.7174 16.7398C51.8174 16.4998 51.9174 16.1998 52.0174 15.8398C52.1774 15.2598 52.2574 14.6798 52.2574 14.0998C52.2774 13.5198 52.3074 12.8498 52.3474 12.0898C52.3674 11.7298 52.3874 11.4198 52.4074 11.1598C52.4274 10.8798 52.4374 10.6298 52.4374 10.4098C52.4574 10.1698 52.4574 9.92977 52.4374 9.68977C52.4374 9.42977 52.4274 9.12977 52.4074 8.78977C52.3674 8.34977 52.3274 7.98977 52.2874 7.70977C52.2474 7.42977 52.2074 7.18977 52.1674 6.98977C52.1274 6.76977 52.0774 6.57977 52.0174 6.41977C51.9574 6.25977 51.8974 6.07977 51.8374 5.87977C51.7374 5.47977 51.6374 5.12977 51.5374 4.82977C51.4374 4.50977 51.3874 4.05977 51.3874 3.47977C51.3674 2.89977 51.5574 2.42977 51.9574 2.06977C52.3774 1.70977 52.9774 1.47977 53.7574 1.37977C54.5374 1.25977 55.3074 1.22977 56.0674 1.28977C56.8274 1.32977 57.6474 1.36977 58.5274 1.40977C58.9674 1.40977 59.4274 1.39977 59.9074 1.37977C60.4074 1.33977 60.8674 1.31977 61.2874 1.31977C61.7274 1.31977 62.1074 1.36977 62.4274 1.46977C62.7474 1.54977 62.9574 1.70977 63.0574 1.94977C63.2374 2.34977 63.3474 2.84977 63.3874 3.44977C63.4474 4.02977 63.3574 4.60977 63.1174 5.18977C63.0174 5.40977 62.8274 5.57977 62.5474 5.69977C62.2674 5.81977 61.9274 5.88977 61.5274 5.90977C61.1274 5.90977 60.6874 5.87977 60.2074 5.81977C59.7274 5.73977 59.2374 5.61977 58.7374 5.45977C57.7574 5.15977 57.0874 5.13977 56.7274 5.39977C56.3874 5.65977 56.2374 6.21977 56.2774 7.07977C56.3174 7.91977 56.4474 8.49977 56.6674 8.81977C56.8874 9.13977 57.2874 9.29977 57.8674 9.29977C58.1674 9.29977 58.5174 9.30977 58.9174 9.32977C59.3174 9.32977 59.7074 9.34977 60.0874 9.38977C60.4674 9.42977 60.7974 9.49977 61.0774 9.59977C61.3774 9.69977 61.5574 9.84977 61.6174 10.0498C61.7174 10.3298 61.7774 10.6498 61.7974 11.0098C61.8174 11.3498 61.7774 11.7198 61.6774 12.1198C61.5574 12.5198 61.1574 12.8298 60.4774 13.0498C59.8174 13.2698 59.0274 13.2998 58.1074 13.1398C57.6274 13.0598 57.2474 13.1898 56.9674 13.5298C56.7074 13.8698 56.4974 14.4498 56.3374 15.2698C56.1774 16.0898 56.3174 16.6298 56.7574 16.8898C57.1974 17.1298 58.0074 17.0998 59.1874 16.7998Z"/>
<path d="M78.9106 6.14977C79.5706 8.16977 80.2306 11.2198 80.8906 15.2998C81.0506 16.2998 81.1706 17.1898 81.2506 17.9698C81.3306 18.7498 81.3306 19.4098 81.2506 19.9498C81.1906 20.4698 81.0106 20.8698 80.7106 21.1498C80.4306 21.4098 79.9906 21.5398 79.3906 21.5398C79.1306 21.5398 78.7906 21.5298 78.3706 21.5098C77.9506 21.4898 77.6506 21.4598 77.4706 21.4198C77.1706 21.3398 76.9506 21.2198 76.8106 21.0598C76.6706 20.8998 76.5806 20.6998 76.5406 20.4598C76.5006 20.1998 76.4806 19.9198 76.4806 19.6198C76.5006 19.2998 76.5106 18.9498 76.5106 18.5698C76.5106 17.8698 76.4506 17.3298 76.3306 16.9498C76.2106 16.5698 75.8706 16.3398 75.3106 16.2598C75.2506 16.2598 75.1106 16.2598 74.8906 16.2598C74.6706 16.2398 74.4306 16.2298 74.1706 16.2298C73.9106 16.2298 73.6606 16.2398 73.4206 16.2598C73.2006 16.2598 73.0506 16.2598 72.9706 16.2598C72.3306 16.3398 71.9106 16.6598 71.7106 17.2198C71.5306 17.7598 71.4406 18.4898 71.4406 19.4098C71.4406 19.8898 71.3906 20.2798 71.2906 20.5798C71.2106 20.8598 71.0406 21.0798 70.7806 21.2398C70.5206 21.3798 70.1406 21.4598 69.6406 21.4798C69.1406 21.4998 68.4906 21.4798 67.6906 21.4198C67.1506 21.3398 66.8206 21.0298 66.7006 20.4898C66.6006 19.9498 66.6906 19.2598 66.9706 18.4198C67.5106 16.7598 67.6506 15.7098 67.3906 15.2698C67.1106 14.8098 67.0306 14.2798 67.1506 13.6798C67.2706 13.0598 67.5006 12.5798 67.8406 12.2398C68.0206 12.0798 68.2006 11.8798 68.3806 11.6398C68.5606 11.3998 68.7306 11.0198 68.8906 10.4998C69.0506 9.97977 69.2406 9.32977 69.4606 8.54977C69.6806 7.76977 69.9306 6.92977 70.2106 6.02977C70.3506 5.54977 70.4906 5.12977 70.6306 4.76977C70.7706 4.38977 70.9106 4.03977 71.0506 3.71977C71.2106 3.39977 71.3906 3.09977 71.5906 2.81977C71.8106 2.53977 72.0706 2.24977 72.3706 1.94977C72.5306 1.78977 72.7406 1.65977 73.0006 1.55977C73.2806 1.43977 73.5606 1.35977 73.8406 1.31977C74.1406 1.27977 74.4306 1.25977 74.7106 1.25977C75.0106 1.25977 75.2606 1.27977 75.4606 1.31977C75.6806 1.35977 75.8806 1.40977 76.0606 1.46977C76.2406 1.50977 76.4406 1.62977 76.6606 1.82977C76.9606 2.06977 77.2106 2.33977 77.4106 2.63977C77.6306 2.91977 77.8206 3.23977 77.9806 3.59977C78.1406 3.93977 78.2906 4.32977 78.4306 4.76977C78.5906 5.18977 78.7506 5.64977 78.9106 6.14977ZM74.9206 12.6898C75.2206 12.6298 75.4506 12.5498 75.6106 12.4498C75.7906 12.3298 75.9206 12.1798 76.0006 11.9998C76.0806 11.7998 76.1106 11.5498 76.0906 11.2498C76.0906 10.9298 76.0806 10.5498 76.0606 10.1098C76.0206 9.22977 75.9206 8.51977 75.7606 7.97977C75.6206 7.41977 75.4406 6.89977 75.2206 6.41977C75.1606 6.29977 75.0606 6.18977 74.9206 6.08977C74.8006 5.96977 74.6506 5.90977 74.4706 5.90977C74.3106 5.90977 74.1806 5.93977 74.0806 5.99977C74.0006 6.03977 73.8806 6.13977 73.7206 6.29977C73.4806 6.55977 73.2706 7.00977 73.0906 7.64977C72.9306 8.28977 72.7706 9.06977 72.6106 9.98977C72.4706 10.7898 72.4306 11.3898 72.4906 11.7898C72.5706 12.1898 72.7806 12.4798 73.1206 12.6598C73.1806 12.6798 73.2906 12.6998 73.4506 12.7198C73.6106 12.7198 73.7906 12.7198 73.9906 12.7198C74.1906 12.7198 74.3706 12.7198 74.5306 12.7198C74.7106 12.7198 74.8406 12.7098 74.9206 12.6898Z"/>
<path d="M128.204 15.2698C128.524 14.7898 128.874 14.4898 129.254 14.3698C129.654 14.2498 130.034 14.2498 130.394 14.3698C130.754 14.4698 131.074 14.6698 131.354 14.9698C131.654 15.2498 131.884 15.5598 132.044 15.8998C132.284 16.4598 132.334 17.0298 132.194 17.6098C132.074 18.1898 131.824 18.7298 131.444 19.2298C131.204 19.5098 130.894 19.7998 130.514 20.0998C130.154 20.3798 129.814 20.5998 129.494 20.7598C128.194 21.4598 126.874 21.6998 125.534 21.4798C124.194 21.2398 123.014 20.6198 121.994 19.6198C121.034 18.6798 120.324 17.4098 119.864 15.8098C119.404 14.1898 119.174 12.4098 119.174 10.4698C119.234 8.76977 119.494 7.31977 119.954 6.11977C120.414 4.89977 121.004 3.92977 121.724 3.20977C122.424 2.50977 123.134 2.01977 123.854 1.73977C124.594 1.43977 125.414 1.28977 126.314 1.28977C127.314 1.28977 128.084 1.40977 128.624 1.64977C129.184 1.86977 129.654 2.12977 130.034 2.42977C130.394 2.72977 130.774 3.13977 131.174 3.65977C131.574 4.17977 131.854 4.76977 132.014 5.42977C132.074 5.66977 132.124 5.94977 132.164 6.26977C132.224 6.56977 132.234 6.86977 132.194 7.16977C132.174 7.46977 132.074 7.74977 131.894 8.00977C131.734 8.26977 131.464 8.46977 131.084 8.60977C130.764 8.72977 130.424 8.79977 130.064 8.81977C129.724 8.81977 129.404 8.76977 129.104 8.66977C128.804 8.56977 128.554 8.40977 128.354 8.18977C128.154 7.96977 128.034 7.67977 127.994 7.31977C127.914 6.57977 127.644 6.08977 127.184 5.84977C126.724 5.60977 126.204 5.61977 125.624 5.87977C125.084 6.11977 124.654 6.47977 124.334 6.95977C124.034 7.41977 123.804 7.92977 123.644 8.48977C123.504 9.02977 123.424 9.58977 123.404 10.1698C123.384 10.7498 123.394 11.2798 123.434 11.7598C123.514 12.7198 123.674 13.5798 123.914 14.3398C124.154 15.0998 124.534 15.6598 125.054 16.0198C125.594 16.3798 126.144 16.5098 126.704 16.4098C127.284 16.2898 127.784 15.9098 128.204 15.2698Z"/>
<path d="M145.549 3.14977C146.189 3.86977 146.689 4.65977 147.049 5.51977C147.429 6.35977 147.689 7.23977 147.829 8.15977C147.989 9.07977 148.059 10.0198 148.039 10.9798C148.039 11.9198 147.979 12.8398 147.859 13.7398C147.759 14.4998 147.639 15.1698 147.499 15.7498C147.379 16.3098 147.229 16.8298 147.049 17.3098C146.869 17.7698 146.659 18.1898 146.419 18.5698C146.179 18.9298 145.899 19.2798 145.579 19.6198C145.259 19.9598 144.949 20.2598 144.649 20.5198C144.349 20.7598 144.029 20.9598 143.689 21.1198C143.369 21.2598 143.009 21.3698 142.609 21.4498C142.229 21.5098 141.779 21.5398 141.259 21.5398C140.699 21.5398 140.209 21.4798 139.789 21.3598C139.369 21.2198 138.989 21.0398 138.649 20.8198C138.329 20.5798 138.029 20.2998 137.749 19.9798C137.469 19.6598 137.189 19.2998 136.909 18.8998C136.289 18.0198 135.809 17.0498 135.469 15.9898C135.149 14.9298 134.949 13.8498 134.869 12.7498C134.809 11.6298 134.859 10.5198 135.019 9.41977C135.179 8.29977 135.439 7.24977 135.799 6.26977C136.039 5.60977 136.359 4.95977 136.759 4.31977C137.179 3.67977 137.669 3.11977 138.229 2.63977C138.789 2.15977 139.409 1.79977 140.089 1.55977C140.789 1.29977 141.539 1.21977 142.339 1.31977C143.499 1.45977 144.569 2.06977 145.549 3.14977ZM143.059 15.1498C143.399 14.8098 143.639 14.2398 143.779 13.4398C143.919 12.6398 143.989 11.5698 143.989 10.2298C143.989 8.96977 143.789 8.05977 143.389 7.49977C143.009 6.93977 142.549 6.60977 142.009 6.50977C140.949 6.30977 140.129 7.02977 139.549 8.66977C139.269 9.50977 139.099 10.2898 139.039 11.0098C138.999 11.7098 139.029 12.3998 139.129 13.0798C139.289 14.4598 139.829 15.3398 140.749 15.7198C141.169 15.8998 141.569 15.9398 141.949 15.8398C142.329 15.7198 142.699 15.4898 143.059 15.1498Z"/>
<path d="M160.93 3.14977C161.57 3.86977 162.07 4.65977 162.43 5.51977C162.81 6.35977 163.07 7.23977 163.21 8.15977C163.37 9.07977 163.44 10.0198 163.42 10.9798C163.42 11.9198 163.36 12.8398 163.24 13.7398C163.14 14.4998 163.02 15.1698 162.88 15.7498C162.76 16.3098 162.61 16.8298 162.43 17.3098C162.25 17.7698 162.04 18.1898 161.8 18.5698C161.56 18.9298 161.28 19.2798 160.96 19.6198C160.64 19.9598 160.33 20.2598 160.03 20.5198C159.73 20.7598 159.41 20.9598 159.07 21.1198C158.75 21.2598 158.39 21.3698 157.99 21.4498C157.61 21.5098 157.16 21.5398 156.64 21.5398C156.08 21.5398 155.59 21.4798 155.17 21.3598C154.75 21.2198 154.37 21.0398 154.03 20.8198C153.71 20.5798 153.41 20.2998 153.13 19.9798C152.85 19.6598 152.57 19.2998 152.29 18.8998C151.67 18.0198 151.19 17.0498 150.85 15.9898C150.53 14.9298 150.33 13.8498 150.25 12.7498C150.19 11.6298 150.24 10.5198 150.4 9.41977C150.56 8.29977 150.82 7.24977 151.18 6.26977C151.42 5.60977 151.74 4.95977 152.14 4.31977C152.56 3.67977 153.05 3.11977 153.61 2.63977C154.17 2.15977 154.79 1.79977 155.47 1.55977C156.17 1.29977 156.92 1.21977 157.72 1.31977C158.88 1.45977 159.95 2.06977 160.93 3.14977ZM158.44 15.1498C158.78 14.8098 159.02 14.2398 159.16 13.4398C159.3 12.6398 159.37 11.5698 159.37 10.2298C159.37 8.96977 159.17 8.05977 158.77 7.49977C158.39 6.93977 157.93 6.60977 157.39 6.50977C156.33 6.30977 155.51 7.02977 154.93 8.66977C154.65 9.50977 154.48 10.2898 154.42 11.0098C154.38 11.7098 154.41 12.3998 154.51 13.0798C154.67 14.4598 155.21 15.3398 156.13 15.7198C156.55 15.8998 156.95 15.9398 157.33 15.8398C157.71 15.7198 158.08 15.4898 158.44 15.1498Z"/>
<path d="M178.261 17.0098C178.381 17.4498 178.481 17.8698 178.561 18.2698C178.661 18.6498 178.711 18.9998 178.711 19.3198C178.731 19.6398 178.681 19.9298 178.561 20.1898C178.461 20.4498 178.261 20.6798 177.961 20.8798C177.361 21.2798 176.821 21.4798 176.341 21.4798C175.881 21.4598 175.511 21.3998 175.231 21.2998C175.011 21.2198 174.811 21.0798 174.631 20.8798C174.471 20.6598 174.331 20.4098 174.211 20.1298C174.111 19.8498 174.031 19.5598 173.971 19.2598C173.911 18.9398 173.871 18.6398 173.851 18.3598C173.811 17.7598 173.741 17.1898 173.641 16.6498C173.541 16.1098 173.401 15.6298 173.221 15.2098C173.041 14.7898 172.821 14.4498 172.561 14.1898C172.301 13.9098 172.011 13.7398 171.691 13.6798C171.391 13.6198 171.161 13.6598 171.001 13.7998C170.861 13.9398 170.741 14.0898 170.641 14.2498C170.461 14.6098 170.361 15.0798 170.341 15.6598C170.341 16.2398 170.351 16.8498 170.371 17.4898C170.391 18.1098 170.391 18.7198 170.371 19.3198C170.351 19.9198 170.221 20.4298 169.981 20.8498C169.821 21.1298 169.581 21.3198 169.261 21.4198C168.941 21.4998 168.481 21.5398 167.881 21.5398C167.321 21.5198 166.871 21.4398 166.531 21.2998C166.211 21.1598 165.971 20.8798 165.811 20.4598C165.751 20.2798 165.711 20.0498 165.691 19.7698C165.691 19.4698 165.701 19.1498 165.721 18.8098C165.761 18.4498 165.801 18.0898 165.841 17.7298C165.901 17.3498 165.951 16.9898 165.991 16.6498C166.031 16.1298 166.071 15.7098 166.111 15.3898C166.171 15.0498 166.221 14.6698 166.261 14.2498C166.301 12.2498 166.261 10.4898 166.141 8.96977C166.041 7.42977 165.951 6.18977 165.871 5.24977C165.791 4.30977 165.781 3.55977 165.841 2.99977C165.921 2.43977 166.041 2.03977 166.201 1.79977C166.281 1.65977 166.421 1.55977 166.621 1.49977C166.821 1.41977 167.041 1.36977 167.281 1.34977C167.541 1.30977 167.801 1.28977 168.061 1.28977C168.341 1.28977 168.601 1.28977 168.841 1.28977C169.321 1.30977 169.661 1.40977 169.861 1.58977C170.081 1.76977 170.221 2.07977 170.281 2.51977C170.321 2.89977 170.341 3.34977 170.341 3.86977C170.361 4.36977 170.341 4.94977 170.281 5.60977C170.261 5.76977 170.251 5.95977 170.251 6.17977C170.251 6.39977 170.251 6.61977 170.251 6.83977C170.251 7.05977 170.251 7.26977 170.251 7.46977C170.271 7.64977 170.291 7.79977 170.311 7.91977C170.371 8.01977 170.431 8.08977 170.491 8.12977C170.571 8.14977 170.691 8.08977 170.851 7.94977C171.011 7.78977 171.181 7.58977 171.361 7.34977C171.561 7.08977 171.751 6.81977 171.931 6.53977C172.131 6.23977 172.291 5.94977 172.411 5.66977C172.651 5.14977 172.911 4.59977 173.191 4.01977C173.471 3.41977 173.741 2.91977 174.001 2.51977C174.261 2.13977 174.511 1.87977 174.751 1.73977C174.991 1.57977 175.311 1.46977 175.711 1.40977C175.991 1.34977 176.381 1.35977 176.881 1.43977C177.381 1.51977 177.851 1.79977 178.291 2.27977C178.551 2.55977 178.681 2.84977 178.681 3.14977C178.701 3.44977 178.631 3.75977 178.471 4.07977C178.311 4.39977 178.091 4.72977 177.811 5.06977C177.531 5.38977 177.241 5.72977 176.941 6.08977C176.701 6.36977 176.411 6.68977 176.071 7.04977C175.731 7.38977 175.401 7.73977 175.081 8.09977C174.761 8.45977 174.481 8.79977 174.241 9.11977C174.001 9.43977 173.871 9.70977 173.851 9.92977C173.831 10.1698 173.881 10.3498 174.001 10.4698C174.141 10.5898 174.341 10.7398 174.601 10.9198C174.861 11.0998 175.171 11.3498 175.531 11.6698C175.911 11.9898 176.331 12.4798 176.791 13.1398C177.291 13.8198 177.631 14.5098 177.811 15.2098C177.991 15.8898 178.141 16.4898 178.261 17.0098Z"/>
<path d="M181.912 19.6198C181.952 19.3198 182.042 19.0298 182.182 18.7498C182.322 18.4698 182.502 18.2498 182.722 18.0898C183.102 17.8298 183.592 17.7898 184.192 17.9698C184.792 18.1498 185.132 18.5398 185.212 19.1398C185.312 19.6598 185.262 20.1498 185.062 20.6098C184.882 21.0498 184.502 21.3198 183.922 21.4198C183.282 21.5198 182.762 21.4198 182.362 21.1198C181.962 20.7998 181.812 20.2998 181.912 19.6198Z"/>
<path d="M102.325 19.3925C102.325 20.99 103.615 21.4944 104.54 21.4944H109.416C113.497 21.8733 115.483 19.8614 116.404 16.0577C117.079 13.2716 117.067 10.323 116.373 7.54179C115.456 3.87245 113.504 1.78065 109.136 1.53977H104.483C103.222 1.53977 102.325 2.40858 102.325 3.69779C102.755 10.0833 102.725 13.4923 102.325 19.3925ZM106.529 5.40739H109.08C112.554 5.99963 112.34 8.66977 112.629 11.6012C112.5 14.9998 112 16.4998 109.36 17.6268H106.529C106.825 13.255 106.853 10.6301 106.529 5.40739Z"/>
<path d="M84.6157 4.26977C84.6757 4.68977 84.7357 5.48977 84.7957 6.66977C84.8357 7.84977 84.9057 9.51977 85.0057 11.6798C85.0657 12.8398 85.0557 13.9698 84.9757 15.0698C84.8957 16.1498 84.7957 17.2598 84.6757 18.3998C84.5957 19.0998 84.5957 19.6698 84.6757 20.1098C84.7557 20.5298 84.8957 20.8698 85.0957 21.1298C85.2957 21.3898 85.5557 21.5698 85.8757 21.6698C86.1957 21.7698 86.5657 21.8198 86.9857 21.8198C87.8457 21.8398 88.4657 21.7298 88.8457 21.4898C89.2257 21.2498 89.4557 20.7498 89.5357 19.9898C89.6157 19.3498 89.6457 18.4498 89.6257 17.2898C89.6057 16.1098 89.4557 14.6598 89.1757 12.9398C88.5757 9.49977 88.6957 8.62977 89.5357 10.3298C89.9357 11.1898 90.3457 12.1198 90.7657 13.1198C91.1657 14.1198 91.5857 15.1998 92.0257 16.3598C92.8257 18.6598 93.4357 20.1298 93.8557 20.7698C94.0757 21.0898 94.3657 21.3498 94.7257 21.5498C95.0857 21.7298 95.6457 21.7998 96.4057 21.7598C97.6657 21.7198 98.4157 21.4398 98.6557 20.9198C98.7957 20.6598 98.8957 20.2598 98.9557 19.7198C98.9957 19.1798 98.9957 18.5298 98.9557 17.7698C98.9157 17.0098 98.8557 16.1598 98.7757 15.2198C98.6757 14.2598 98.6057 13.1998 98.5657 12.0398C98.5257 10.8798 98.5257 9.68977 98.5657 8.46977C98.6057 7.22977 98.6857 5.94977 98.8057 4.62977C98.8657 3.96977 98.8757 3.43977 98.8357 3.03977C98.7957 2.63977 98.6957 2.32977 98.5357 2.10977C98.3757 1.86977 98.1557 1.71977 97.8757 1.65977C97.5757 1.57977 97.2057 1.53977 96.7657 1.53977C95.9257 1.53977 95.3057 1.70977 94.9057 2.04977C94.4857 2.38977 94.2457 3.00977 94.1857 3.90977C94.1057 4.82977 94.1257 5.88977 94.2457 7.08977C94.3657 8.26977 94.5857 9.72977 94.9057 11.4698C95.2457 13.2498 95.3457 14.2898 95.2057 14.5898C95.0457 14.8698 94.6357 14.2798 93.9757 12.8198C93.3357 11.3598 92.7457 10.0598 92.2057 8.91977C91.6457 7.77977 91.1457 6.77977 90.7057 5.91977C90.2657 5.07977 89.8857 4.38977 89.5657 3.84977C89.2457 3.28977 88.9757 2.87977 88.7557 2.61977C88.5357 2.35977 88.3057 2.14977 88.0657 1.98977C87.8257 1.80977 87.5057 1.67977 87.1057 1.59977C86.6857 1.53977 86.2757 1.52977 85.8757 1.56977C85.4557 1.60977 85.1457 1.73977 84.9457 1.95977C84.7457 2.15977 84.6357 2.48977 84.6157 2.94977C84.5757 3.38977 84.5757 3.82977 84.6157 4.26977Z"/>
<path d="M188.686 19.3068C188.686 20.69 189.571 21.4646 190.761 21.4646C191.951 21.4646 192.602 21.0035 192.836 19.3068C193.069 17.6101 193.382 16.2857 192.836 13.3038H192.891C194.907 16.6556 196.187 18.3603 199.032 20.7453C199.475 21.2709 200.139 21.4646 200.637 21.4646C201.854 21.4646 202.712 20.4134 202.712 19.3345C202.712 18.9472 202.546 18.5322 202.158 18.1173C200.035 16.3499 199.065 15.2055 197.456 13.0825C199.914 12.4607 201.983 10.4698 202.158 7.85403C202.096 3.33309 199.872 1.40448 195.685 1.60203C194.192 1.38576 193.138 1.37976 190.816 1.60203C189.433 1.60203 188.686 2.43194 188.686 3.7598C189.033 10.5235 189.275 14.4112 188.686 19.3068ZM192.836 5.41962H195.685C197.207 5.41962 198.258 6.2772 198.258 7.85403C198.258 9.4032 197.207 10.3161 195.685 10.3161H192.836C193.042 8.48186 193.083 7.42234 192.836 5.41962Z"/>
<path d="M203.892 13.4698C203.736 18.3916 207.484 21.9088 212.302 21.6306C216.915 21.3796 220.742 17.8097 220.684 13.4698C220.303 9.57642 220.366 7.34029 220.684 3.59382C220.684 2.21063 219.799 1.43605 218.609 1.43605C217.42 1.43605 216.534 2.21063 216.534 3.59382C216.346 7.39741 216.258 9.52779 216.534 13.2485C216.534 15.6829 214.819 17.813 212.302 17.813C209.691 18.0404 208.065 15.9949 208.042 13.2485C207.774 9.39431 207.805 7.2906 208.042 3.59382C208.042 2.21063 207.156 1.43605 205.967 1.43605C204.777 1.43605 203.892 2.21063 203.892 3.59382C203.7 7.48574 203.684 9.65628 203.892 13.4698Z"/>
</mask>
<path d="M1.024 3.11977C1.084 2.03977 1.664 1.43977 2.764 1.31977C3.884 1.19977 4.734 1.35977 5.314 1.79977C5.914 2.23977 6.094 3.56977 5.854 5.78977C5.734 6.90977 5.724 7.79977 5.824 8.45977C5.924 9.09977 6.104 9.52977 6.364 9.74977C6.864 10.1698 7.394 10.2798 7.954 10.0798C8.254 9.97977 8.534 9.79977 8.794 9.53977C9.074 9.27977 9.244 8.90977 9.304 8.42977C9.344 7.94977 9.334 7.42977 9.274 6.86977C9.214 6.30977 9.134 5.68977 9.034 5.00977C8.934 4.14977 8.904 3.47977 8.944 2.99977C9.004 2.49977 9.244 2.11977 9.664 1.85977C10.064 1.59977 10.494 1.44977 10.954 1.40977C11.434 1.36977 11.894 1.42977 12.334 1.58977C12.774 1.76977 13.074 2.08977 13.234 2.54977C13.414 2.98977 13.494 3.43977 13.474 3.89977C13.454 4.37977 13.384 5.25977 13.264 6.53977C13.144 7.81977 13.014 9.51977 12.874 11.6398C12.834 12.4798 12.874 13.3598 12.994 14.2798C13.114 15.1798 13.304 16.1598 13.564 17.2198C13.844 18.3598 13.954 19.2498 13.894 19.8898C13.834 20.5298 13.534 20.9598 12.994 21.1798C12.454 21.4198 11.894 21.5298 11.314 21.5098C10.754 21.4698 10.264 21.3498 9.844 21.1498C9.084 20.7498 8.854 19.6798 9.154 17.9398C9.454 16.1398 9.454 14.9298 9.154 14.3098C8.994 13.9898 8.744 13.7698 8.404 13.6498C8.064 13.5298 7.714 13.4698 7.354 13.4698C7.014 13.4698 6.704 13.5198 6.424 13.6198C6.164 13.6998 5.954 13.9098 5.794 14.2498C5.634 14.5698 5.524 15.0798 5.464 15.7798C5.424 16.4598 5.484 17.1798 5.644 17.9398C5.804 18.7398 5.834 19.4198 5.734 19.9798C5.634 20.5198 5.404 20.8998 5.044 21.1198C4.684 21.3598 4.274 21.4998 3.814 21.5398C3.354 21.5598 2.894 21.5298 2.434 21.4498C2.134 21.3898 1.884 21.2698 1.684 21.0898C1.484 20.9098 1.334 20.6898 1.234 20.4298C1.134 20.1498 1.074 19.8398 1.054 19.4998C1.054 19.1598 1.104 18.8198 1.204 18.4798C1.384 17.7798 1.494 17.1298 1.534 16.5298C1.574 15.9098 1.644 15.2798 1.744 14.6398C1.824 13.9998 1.864 13.1798 1.864 12.1798C1.884 11.1598 1.764 9.98977 1.504 8.66977C1.264 7.34977 1.114 6.22977 1.054 5.30977C0.994 4.38977 0.984 3.65977 1.024 3.11977Z" fill="#FFB620"/>
<path d="M27.1057 3.14977C27.7457 3.86977 28.2457 4.65977 28.6057 5.51977C28.9857 6.35977 29.2457 7.23977 29.3857 8.15977C29.5457 9.07977 29.6157 10.0198 29.5957 10.9798C29.5957 11.9198 29.5357 12.8398 29.4157 13.7398C29.3157 14.4998 29.1957 15.1698 29.0557 15.7498C28.9357 16.3098 28.7857 16.8298 28.6057 17.3098C28.4257 17.7698 28.2157 18.1898 27.9757 18.5698C27.7357 18.9298 27.4557 19.2798 27.1357 19.6198C26.8157 19.9598 26.5057 20.2598 26.2057 20.5198C25.9057 20.7598 25.5857 20.9598 25.2457 21.1198C24.9257 21.2598 24.5657 21.3698 24.1657 21.4498C23.7857 21.5098 23.3357 21.5398 22.8157 21.5398C22.2557 21.5398 21.7657 21.4798 21.3457 21.3598C20.9257 21.2198 20.5457 21.0398 20.2057 20.8198C19.8857 20.5798 19.5857 20.2998 19.3057 19.9798C19.0257 19.6598 18.7457 19.2998 18.4657 18.8998C17.8457 18.0198 17.3657 17.0498 17.0257 15.9898C16.7057 14.9298 16.5057 13.8498 16.4257 12.7498C16.3657 11.6298 16.4157 10.5198 16.5757 9.41977C16.7357 8.29977 16.9957 7.24977 17.3557 6.26977C17.5957 5.60977 17.9157 4.95977 18.3157 4.31977C18.7357 3.67977 19.2257 3.11977 19.7857 2.63977C20.3457 2.15977 20.9657 1.79977 21.6457 1.55977C22.3457 1.29977 23.0957 1.21977 23.8957 1.31977C25.0557 1.45977 26.1257 2.06977 27.1057 3.14977ZM24.6157 15.1498C24.9557 14.8098 25.1957 14.2398 25.3357 13.4398C25.4757 12.6398 25.5457 11.5698 25.5457 10.2298C25.5457 8.96977 25.3457 8.05977 24.9457 7.49977C24.5657 6.93977 24.1057 6.60977 23.5657 6.50977C22.5057 6.30977 21.6857 7.02977 21.1057 8.66977C20.8257 9.50977 20.6557 10.2898 20.5957 11.0098C20.5557 11.7098 20.5857 12.3998 20.6857 13.0798C20.8457 14.4598 21.3857 15.3398 22.3057 15.7198C22.7257 15.8998 23.1257 15.9398 23.5057 15.8398C23.8857 15.7198 24.2557 15.4898 24.6157 15.1498Z" fill="#FFB620"/>
<path d="M32.6166 11.8198C32.6966 9.63977 32.6866 7.83977 32.5866 6.41977C32.4866 4.99977 32.4166 4.04977 32.3766 3.56977C32.3366 3.10977 32.3966 2.73977 32.5566 2.45977C32.7166 2.15977 32.9366 1.89977 33.2166 1.67977C33.4966 1.45977 33.8966 1.32977 34.4166 1.28977C34.9366 1.24977 35.3966 1.28977 35.7966 1.40977C36.2566 1.56977 36.7166 2.06977 37.1766 2.90977C37.6566 3.74977 38.1266 4.76977 38.5866 5.96977C39.5266 8.34977 40.5466 8.33977 41.6466 5.93977C42.1866 4.73977 42.6866 3.72977 43.1466 2.90977C43.6066 2.06977 44.0266 1.58977 44.4066 1.46977C44.5866 1.40977 44.8166 1.35977 45.0966 1.31977C45.3766 1.27977 45.6566 1.26977 45.9366 1.28977C46.2366 1.30977 46.5166 1.34977 46.7766 1.40977C47.0366 1.46977 47.2466 1.55977 47.4066 1.67977C47.7066 1.91977 47.8966 2.25977 47.9766 2.69977C48.0766 3.11977 48.1066 3.63977 48.0666 4.25977C48.0466 4.57977 48.0266 4.99977 48.0066 5.51977C47.9866 6.03977 47.9666 6.61977 47.9466 7.25977C47.9266 7.89977 47.9066 8.58977 47.8866 9.32977C47.8866 10.0698 47.8866 10.8098 47.8866 11.5498C47.8866 12.2698 47.8866 12.8798 47.8866 13.3798C47.9066 13.8798 47.9266 14.3398 47.9466 14.7598C47.9666 15.1798 47.9866 15.6098 48.0066 16.0498C48.0466 16.4698 48.0966 16.9698 48.1566 17.5498C48.2166 18.0898 48.2366 18.5998 48.2166 19.0798C48.2166 19.5598 48.1266 19.9798 47.9466 20.3398C47.7666 20.6998 47.4766 20.9898 47.0766 21.2098C46.6966 21.4098 46.1566 21.5098 45.4566 21.5098C44.8966 21.5098 44.4566 21.4198 44.1366 21.2398C43.8366 21.0598 43.6166 20.8198 43.4766 20.5198C43.3366 20.1998 43.2566 19.8298 43.2366 19.4098C43.2366 18.9698 43.2566 18.5098 43.2966 18.0298C43.4366 16.5498 43.5466 15.2998 43.6266 14.2798C43.7266 13.2398 43.8066 12.2798 43.8666 11.3998C43.9066 10.6998 43.8866 10.1998 43.8066 9.89977C43.7266 9.59977 43.5966 9.46977 43.4166 9.50977C43.2366 9.54977 43.0066 9.74977 42.7266 10.1098C42.4666 10.4698 42.1866 10.9698 41.8866 11.6098C40.6466 14.1698 39.4866 14.1598 38.4066 11.5798C37.8666 10.2998 37.4366 9.61977 37.1166 9.53977C36.8166 9.43977 36.6966 9.95977 36.7566 11.0998C36.7966 12.2198 36.8366 13.2698 36.8766 14.2498C36.9166 15.2098 37.0266 16.2998 37.2066 17.5198C37.3666 18.7798 37.3066 19.7298 37.0266 20.3698C36.7666 20.9898 36.1766 21.3498 35.2566 21.4498C34.5366 21.5298 33.9666 21.4998 33.5466 21.3598C33.1266 21.2198 32.8066 21.0098 32.5866 20.7298C32.3666 20.4498 32.2266 20.1298 32.1666 19.7698C32.1266 19.3898 32.1266 18.9998 32.1666 18.5998C32.1866 18.2398 32.2166 17.8498 32.2566 17.4298C32.2966 17.0098 32.3266 16.5398 32.3466 16.0198C32.3866 15.4798 32.4266 14.8698 32.4666 14.1898C32.5066 13.5098 32.5566 12.7198 32.6166 11.8198Z" fill="#FFB620"/>
<path d="M59.1874 16.7998C59.7674 16.6598 60.3274 16.5898 60.8674 16.5898C61.4074 16.5698 61.8974 16.6098 62.3374 16.7098C62.7974 16.8098 63.1774 16.9598 63.4774 17.1598C63.7774 17.3598 63.9774 17.5998 64.0774 17.8798C64.2574 18.4398 64.3274 18.9098 64.2874 19.2898C64.2674 19.6498 64.1674 20.0598 63.9874 20.5198C63.7874 20.9798 63.3474 21.2898 62.6674 21.4498C62.0074 21.5898 61.1474 21.5898 60.0874 21.4498C59.1874 21.3298 58.2674 21.3198 57.3274 21.4198C56.3874 21.4998 55.3774 21.5398 54.2974 21.5398C53.1774 21.5398 52.3974 21.3798 51.9574 21.0598C51.5374 20.7398 51.3174 20.2298 51.2974 19.5298C51.2774 19.0298 51.2774 18.6198 51.2974 18.2998C51.3374 17.9798 51.3874 17.6998 51.4474 17.4598C51.5274 17.2198 51.6174 16.9798 51.7174 16.7398C51.8174 16.4998 51.9174 16.1998 52.0174 15.8398C52.1774 15.2598 52.2574 14.6798 52.2574 14.0998C52.2774 13.5198 52.3074 12.8498 52.3474 12.0898C52.3674 11.7298 52.3874 11.4198 52.4074 11.1598C52.4274 10.8798 52.4374 10.6298 52.4374 10.4098C52.4574 10.1698 52.4574 9.92977 52.4374 9.68977C52.4374 9.42977 52.4274 9.12977 52.4074 8.78977C52.3674 8.34977 52.3274 7.98977 52.2874 7.70977C52.2474 7.42977 52.2074 7.18977 52.1674 6.98977C52.1274 6.76977 52.0774 6.57977 52.0174 6.41977C51.9574 6.25977 51.8974 6.07977 51.8374 5.87977C51.7374 5.47977 51.6374 5.12977 51.5374 4.82977C51.4374 4.50977 51.3874 4.05977 51.3874 3.47977C51.3674 2.89977 51.5574 2.42977 51.9574 2.06977C52.3774 1.70977 52.9774 1.47977 53.7574 1.37977C54.5374 1.25977 55.3074 1.22977 56.0674 1.28977C56.8274 1.32977 57.6474 1.36977 58.5274 1.40977C58.9674 1.40977 59.4274 1.39977 59.9074 1.37977C60.4074 1.33977 60.8674 1.31977 61.2874 1.31977C61.7274 1.31977 62.1074 1.36977 62.4274 1.46977C62.7474 1.54977 62.9574 1.70977 63.0574 1.94977C63.2374 2.34977 63.3474 2.84977 63.3874 3.44977C63.4474 4.02977 63.3574 4.60977 63.1174 5.18977C63.0174 5.40977 62.8274 5.57977 62.5474 5.69977C62.2674 5.81977 61.9274 5.88977 61.5274 5.90977C61.1274 5.90977 60.6874 5.87977 60.2074 5.81977C59.7274 5.73977 59.2374 5.61977 58.7374 5.45977C57.7574 5.15977 57.0874 5.13977 56.7274 5.39977C56.3874 5.65977 56.2374 6.21977 56.2774 7.07977C56.3174 7.91977 56.4474 8.49977 56.6674 8.81977C56.8874 9.13977 57.2874 9.29977 57.8674 9.29977C58.1674 9.29977 58.5174 9.30977 58.9174 9.32977C59.3174 9.32977 59.7074 9.34977 60.0874 9.38977C60.4674 9.42977 60.7974 9.49977 61.0774 9.59977C61.3774 9.69977 61.5574 9.84977 61.6174 10.0498C61.7174 10.3298 61.7774 10.6498 61.7974 11.0098C61.8174 11.3498 61.7774 11.7198 61.6774 12.1198C61.5574 12.5198 61.1574 12.8298 60.4774 13.0498C59.8174 13.2698 59.0274 13.2998 58.1074 13.1398C57.6274 13.0598 57.2474 13.1898 56.9674 13.5298C56.7074 13.8698 56.4974 14.4498 56.3374 15.2698C56.1774 16.0898 56.3174 16.6298 56.7574 16.8898C57.1974 17.1298 58.0074 17.0998 59.1874 16.7998Z" fill="#FFB620"/>
<path d="M78.9106 6.14977C79.5706 8.16977 80.2306 11.2198 80.8906 15.2998C81.0506 16.2998 81.1706 17.1898 81.2506 17.9698C81.3306 18.7498 81.3306 19.4098 81.2506 19.9498C81.1906 20.4698 81.0106 20.8698 80.7106 21.1498C80.4306 21.4098 79.9906 21.5398 79.3906 21.5398C79.1306 21.5398 78.7906 21.5298 78.3706 21.5098C77.9506 21.4898 77.6506 21.4598 77.4706 21.4198C77.1706 21.3398 76.9506 21.2198 76.8106 21.0598C76.6706 20.8998 76.5806 20.6998 76.5406 20.4598C76.5006 20.1998 76.4806 19.9198 76.4806 19.6198C76.5006 19.2998 76.5106 18.9498 76.5106 18.5698C76.5106 17.8698 76.4506 17.3298 76.3306 16.9498C76.2106 16.5698 75.8706 16.3398 75.3106 16.2598C75.2506 16.2598 75.1106 16.2598 74.8906 16.2598C74.6706 16.2398 74.4306 16.2298 74.1706 16.2298C73.9106 16.2298 73.6606 16.2398 73.4206 16.2598C73.2006 16.2598 73.0506 16.2598 72.9706 16.2598C72.3306 16.3398 71.9106 16.6598 71.7106 17.2198C71.5306 17.7598 71.4406 18.4898 71.4406 19.4098C71.4406 19.8898 71.3906 20.2798 71.2906 20.5798C71.2106 20.8598 71.0406 21.0798 70.7806 21.2398C70.5206 21.3798 70.1406 21.4598 69.6406 21.4798C69.1406 21.4998 68.4906 21.4798 67.6906 21.4198C67.1506 21.3398 66.8206 21.0298 66.7006 20.4898C66.6006 19.9498 66.6906 19.2598 66.9706 18.4198C67.5106 16.7598 67.6506 15.7098 67.3906 15.2698C67.1106 14.8098 67.0306 14.2798 67.1506 13.6798C67.2706 13.0598 67.5006 12.5798 67.8406 12.2398C68.0206 12.0798 68.2006 11.8798 68.3806 11.6398C68.5606 11.3998 68.7306 11.0198 68.8906 10.4998C69.0506 9.97977 69.2406 9.32977 69.4606 8.54977C69.6806 7.76977 69.9306 6.92977 70.2106 6.02977C70.3506 5.54977 70.4906 5.12977 70.6306 4.76977C70.7706 4.38977 70.9106 4.03977 71.0506 3.71977C71.2106 3.39977 71.3906 3.09977 71.5906 2.81977C71.8106 2.53977 72.0706 2.24977 72.3706 1.94977C72.5306 1.78977 72.7406 1.65977 73.0006 1.55977C73.2806 1.43977 73.5606 1.35977 73.8406 1.31977C74.1406 1.27977 74.4306 1.25977 74.7106 1.25977C75.0106 1.25977 75.2606 1.27977 75.4606 1.31977C75.6806 1.35977 75.8806 1.40977 76.0606 1.46977C76.2406 1.50977 76.4406 1.62977 76.6606 1.82977C76.9606 2.06977 77.2106 2.33977 77.4106 2.63977C77.6306 2.91977 77.8206 3.23977 77.9806 3.59977C78.1406 3.93977 78.2906 4.32977 78.4306 4.76977C78.5906 5.18977 78.7506 5.64977 78.9106 6.14977ZM74.9206 12.6898C75.2206 12.6298 75.4506 12.5498 75.6106 12.4498C75.7906 12.3298 75.9206 12.1798 76.0006 11.9998C76.0806 11.7998 76.1106 11.5498 76.0906 11.2498C76.0906 10.9298 76.0806 10.5498 76.0606 10.1098C76.0206 9.22977 75.9206 8.51977 75.7606 7.97977C75.6206 7.41977 75.4406 6.89977 75.2206 6.41977C75.1606 6.29977 75.0606 6.18977 74.9206 6.08977C74.8006 5.96977 74.6506 5.90977 74.4706 5.90977C74.3106 5.90977 74.1806 5.93977 74.0806 5.99977C74.0006 6.03977 73.8806 6.13977 73.7206 6.29977C73.4806 6.55977 73.2706 7.00977 73.0906 7.64977C72.9306 8.28977 72.7706 9.06977 72.6106 9.98977C72.4706 10.7898 72.4306 11.3898 72.4906 11.7898C72.5706 12.1898 72.7806 12.4798 73.1206 12.6598C73.1806 12.6798 73.2906 12.6998 73.4506 12.7198C73.6106 12.7198 73.7906 12.7198 73.9906 12.7198C74.1906 12.7198 74.3706 12.7198 74.5306 12.7198C74.7106 12.7198 74.8406 12.7098 74.9206 12.6898Z" fill="#FFB620"/>
<path d="M128.204 15.2698C128.524 14.7898 128.874 14.4898 129.254 14.3698C129.654 14.2498 130.034 14.2498 130.394 14.3698C130.754 14.4698 131.074 14.6698 131.354 14.9698C131.654 15.2498 131.884 15.5598 132.044 15.8998C132.284 16.4598 132.334 17.0298 132.194 17.6098C132.074 18.1898 131.824 18.7298 131.444 19.2298C131.204 19.5098 130.894 19.7998 130.514 20.0998C130.154 20.3798 129.814 20.5998 129.494 20.7598C128.194 21.4598 126.874 21.6998 125.534 21.4798C124.194 21.2398 123.014 20.6198 121.994 19.6198C121.034 18.6798 120.324 17.4098 119.864 15.8098C119.404 14.1898 119.174 12.4098 119.174 10.4698C119.234 8.76977 119.494 7.31977 119.954 6.11977C120.414 4.89977 121.004 3.92977 121.724 3.20977C122.424 2.50977 123.134 2.01977 123.854 1.73977C124.594 1.43977 125.414 1.28977 126.314 1.28977C127.314 1.28977 128.084 1.40977 128.624 1.64977C129.184 1.86977 129.654 2.12977 130.034 2.42977C130.394 2.72977 130.774 3.13977 131.174 3.65977C131.574 4.17977 131.854 4.76977 132.014 5.42977C132.074 5.66977 132.124 5.94977 132.164 6.26977C132.224 6.56977 132.234 6.86977 132.194 7.16977C132.174 7.46977 132.074 7.74977 131.894 8.00977C131.734 8.26977 131.464 8.46977 131.084 8.60977C130.764 8.72977 130.424 8.79977 130.064 8.81977C129.724 8.81977 129.404 8.76977 129.104 8.66977C128.804 8.56977 128.554 8.40977 128.354 8.18977C128.154 7.96977 128.034 7.67977 127.994 7.31977C127.914 6.57977 127.644 6.08977 127.184 5.84977C126.724 5.60977 126.204 5.61977 125.624 5.87977C125.084 6.11977 124.654 6.47977 124.334 6.95977C124.034 7.41977 123.804 7.92977 123.644 8.48977C123.504 9.02977 123.424 9.58977 123.404 10.1698C123.384 10.7498 123.394 11.2798 123.434 11.7598C123.514 12.7198 123.674 13.5798 123.914 14.3398C124.154 15.0998 124.534 15.6598 125.054 16.0198C125.594 16.3798 126.144 16.5098 126.704 16.4098C127.284 16.2898 127.784 15.9098 128.204 15.2698Z" fill="#FFB620"/>
<path d="M145.549 3.14977C146.189 3.86977 146.689 4.65977 147.049 5.51977C147.429 6.35977 147.689 7.23977 147.829 8.15977C147.989 9.07977 148.059 10.0198 148.039 10.9798C148.039 11.9198 147.979 12.8398 147.859 13.7398C147.759 14.4998 147.639 15.1698 147.499 15.7498C147.379 16.3098 147.229 16.8298 147.049 17.3098C146.869 17.7698 146.659 18.1898 146.419 18.5698C146.179 18.9298 145.899 19.2798 145.579 19.6198C145.259 19.9598 144.949 20.2598 144.649 20.5198C144.349 20.7598 144.029 20.9598 143.689 21.1198C143.369 21.2598 143.009 21.3698 142.609 21.4498C142.229 21.5098 141.779 21.5398 141.259 21.5398C140.699 21.5398 140.209 21.4798 139.789 21.3598C139.369 21.2198 138.989 21.0398 138.649 20.8198C138.329 20.5798 138.029 20.2998 137.749 19.9798C137.469 19.6598 137.189 19.2998 136.909 18.8998C136.289 18.0198 135.809 17.0498 135.469 15.9898C135.149 14.9298 134.949 13.8498 134.869 12.7498C134.809 11.6298 134.859 10.5198 135.019 9.41977C135.179 8.29977 135.439 7.24977 135.799 6.26977C136.039 5.60977 136.359 4.95977 136.759 4.31977C137.179 3.67977 137.669 3.11977 138.229 2.63977C138.789 2.15977 139.409 1.79977 140.089 1.55977C140.789 1.29977 141.539 1.21977 142.339 1.31977C143.499 1.45977 144.569 2.06977 145.549 3.14977ZM143.059 15.1498C143.399 14.8098 143.639 14.2398 143.779 13.4398C143.919 12.6398 143.989 11.5698 143.989 10.2298C143.989 8.96977 143.789 8.05977 143.389 7.49977C143.009 6.93977 142.549 6.60977 142.009 6.50977C140.949 6.30977 140.129 7.02977 139.549 8.66977C139.269 9.50977 139.099 10.2898 139.039 11.0098C138.999 11.7098 139.029 12.3998 139.129 13.0798C139.289 14.4598 139.829 15.3398 140.749 15.7198C141.169 15.8998 141.569 15.9398 141.949 15.8398C142.329 15.7198 142.699 15.4898 143.059 15.1498Z" fill="#FFB620"/>
<path d="M160.93 3.14977C161.57 3.86977 162.07 4.65977 162.43 5.51977C162.81 6.35977 163.07 7.23977 163.21 8.15977C163.37 9.07977 163.44 10.0198 163.42 10.9798C163.42 11.9198 163.36 12.8398 163.24 13.7398C163.14 14.4998 163.02 15.1698 162.88 15.7498C162.76 16.3098 162.61 16.8298 162.43 17.3098C162.25 17.7698 162.04 18.1898 161.8 18.5698C161.56 18.9298 161.28 19.2798 160.96 19.6198C160.64 19.9598 160.33 20.2598 160.03 20.5198C159.73 20.7598 159.41 20.9598 159.07 21.1198C158.75 21.2598 158.39 21.3698 157.99 21.4498C157.61 21.5098 157.16 21.5398 156.64 21.5398C156.08 21.5398 155.59 21.4798 155.17 21.3598C154.75 21.2198 154.37 21.0398 154.03 20.8198C153.71 20.5798 153.41 20.2998 153.13 19.9798C152.85 19.6598 152.57 19.2998 152.29 18.8998C151.67 18.0198 151.19 17.0498 150.85 15.9898C150.53 14.9298 150.33 13.8498 150.25 12.7498C150.19 11.6298 150.24 10.5198 150.4 9.41977C150.56 8.29977 150.82 7.24977 151.18 6.26977C151.42 5.60977 151.74 4.95977 152.14 4.31977C152.56 3.67977 153.05 3.11977 153.61 2.63977C154.17 2.15977 154.79 1.79977 155.47 1.55977C156.17 1.29977 156.92 1.21977 157.72 1.31977C158.88 1.45977 159.95 2.06977 160.93 3.14977ZM158.44 15.1498C158.78 14.8098 159.02 14.2398 159.16 13.4398C159.3 12.6398 159.37 11.5698 159.37 10.2298C159.37 8.96977 159.17 8.05977 158.77 7.49977C158.39 6.93977 157.93 6.60977 157.39 6.50977C156.33 6.30977 155.51 7.02977 154.93 8.66977C154.65 9.50977 154.48 10.2898 154.42 11.0098C154.38 11.7098 154.41 12.3998 154.51 13.0798C154.67 14.4598 155.21 15.3398 156.13 15.7198C156.55 15.8998 156.95 15.9398 157.33 15.8398C157.71 15.7198 158.08 15.4898 158.44 15.1498Z" fill="#FFB620"/>
<path d="M178.261 17.0098C178.381 17.4498 178.481 17.8698 178.561 18.2698C178.661 18.6498 178.711 18.9998 178.711 19.3198C178.731 19.6398 178.681 19.9298 178.561 20.1898C178.461 20.4498 178.261 20.6798 177.961 20.8798C177.361 21.2798 176.821 21.4798 176.341 21.4798C175.881 21.4598 175.511 21.3998 175.231 21.2998C175.011 21.2198 174.811 21.0798 174.631 20.8798C174.471 20.6598 174.331 20.4098 174.211 20.1298C174.111 19.8498 174.031 19.5598 173.971 19.2598C173.911 18.9398 173.871 18.6398 173.851 18.3598C173.811 17.7598 173.741 17.1898 173.641 16.6498C173.541 16.1098 173.401 15.6298 173.221 15.2098C173.041 14.7898 172.821 14.4498 172.561 14.1898C172.301 13.9098 172.011 13.7398 171.691 13.6798C171.391 13.6198 171.161 13.6598 171.001 13.7998C170.861 13.9398 170.741 14.0898 170.641 14.2498C170.461 14.6098 170.361 15.0798 170.341 15.6598C170.341 16.2398 170.351 16.8498 170.371 17.4898C170.391 18.1098 170.391 18.7198 170.371 19.3198C170.351 19.9198 170.221 20.4298 169.981 20.8498C169.821 21.1298 169.581 21.3198 169.261 21.4198C168.941 21.4998 168.481 21.5398 167.881 21.5398C167.321 21.5198 166.871 21.4398 166.531 21.2998C166.211 21.1598 165.971 20.8798 165.811 20.4598C165.751 20.2798 165.711 20.0498 165.691 19.7698C165.691 19.4698 165.701 19.1498 165.721 18.8098C165.761 18.4498 165.801 18.0898 165.841 17.7298C165.901 17.3498 165.951 16.9898 165.991 16.6498C166.031 16.1298 166.071 15.7098 166.111 15.3898C166.171 15.0498 166.221 14.6698 166.261 14.2498C166.301 12.2498 166.261 10.4898 166.141 8.96977C166.041 7.42977 165.951 6.18977 165.871 5.24977C165.791 4.30977 165.781 3.55977 165.841 2.99977C165.921 2.43977 166.041 2.03977 166.201 1.79977C166.281 1.65977 166.421 1.55977 166.621 1.49977C166.821 1.41977 167.041 1.36977 167.281 1.34977C167.541 1.30977 167.801 1.28977 168.061 1.28977C168.341 1.28977 168.601 1.28977 168.841 1.28977C169.321 1.30977 169.661 1.40977 169.861 1.58977C170.081 1.76977 170.221 2.07977 170.281 2.51977C170.321 2.89977 170.341 3.34977 170.341 3.86977C170.361 4.36977 170.341 4.94977 170.281 5.60977C170.261 5.76977 170.251 5.95977 170.251 6.17977C170.251 6.39977 170.251 6.61977 170.251 6.83977C170.251 7.05977 170.251 7.26977 170.251 7.46977C170.271 7.64977 170.291 7.79977 170.311 7.91977C170.371 8.01977 170.431 8.08977 170.491 8.12977C170.571 8.14977 170.691 8.08977 170.851 7.94977C171.011 7.78977 171.181 7.58977 171.361 7.34977C171.561 7.08977 171.751 6.81977 171.931 6.53977C172.131 6.23977 172.291 5.94977 172.411 5.66977C172.651 5.14977 172.911 4.59977 173.191 4.01977C173.471 3.41977 173.741 2.91977 174.001 2.51977C174.261 2.13977 174.511 1.87977 174.751 1.73977C174.991 1.57977 175.311 1.46977 175.711 1.40977C175.991 1.34977 176.381 1.35977 176.881 1.43977C177.381 1.51977 177.851 1.79977 178.291 2.27977C178.551 2.55977 178.681 2.84977 178.681 3.14977C178.701 3.44977 178.631 3.75977 178.471 4.07977C178.311 4.39977 178.091 4.72977 177.811 5.06977C177.531 5.38977 177.241 5.72977 176.941 6.08977C176.701 6.36977 176.411 6.68977 176.071 7.04977C175.731 7.38977 175.401 7.73977 175.081 8.09977C174.761 8.45977 174.481 8.79977 174.241 9.11977C174.001 9.43977 173.871 9.70977 173.851 9.92977C173.831 10.1698 173.881 10.3498 174.001 10.4698C174.141 10.5898 174.341 10.7398 174.601 10.9198C174.861 11.0998 175.171 11.3498 175.531 11.6698C175.911 11.9898 176.331 12.4798 176.791 13.1398C177.291 13.8198 177.631 14.5098 177.811 15.2098C177.991 15.8898 178.141 16.4898 178.261 17.0098Z" fill="#FFB620"/>
<path d="M181.912 19.6198C181.952 19.3198 182.042 19.0298 182.182 18.7498C182.322 18.4698 182.502 18.2498 182.722 18.0898C183.102 17.8298 183.592 17.7898 184.192 17.9698C184.792 18.1498 185.132 18.5398 185.212 19.1398C185.312 19.6598 185.262 20.1498 185.062 20.6098C184.882 21.0498 184.502 21.3198 183.922 21.4198C183.282 21.5198 182.762 21.4198 182.362 21.1198C181.962 20.7998 181.812 20.2998 181.912 19.6198Z" fill="#FFB620"/>
<path d="M102.325 19.3925C102.325 20.99 103.615 21.4944 104.54 21.4944H109.416C113.497 21.8733 115.483 19.8614 116.404 16.0577C117.079 13.2716 117.067 10.323 116.373 7.54179C115.456 3.87245 113.504 1.78065 109.136 1.53977H104.483C103.222 1.53977 102.325 2.40858 102.325 3.69779C102.755 10.0833 102.725 13.4923 102.325 19.3925ZM106.529 5.40739H109.08C112.554 5.99963 112.34 8.66977 112.629 11.6012C112.5 14.9998 112 16.4998 109.36 17.6268H106.529C106.825 13.255 106.853 10.6301 106.529 5.40739Z" fill="#FFB620"/>
<path d="M84.6157 4.26977C84.6757 4.68977 84.7357 5.48977 84.7957 6.66977C84.8357 7.84977 84.9057 9.51977 85.0057 11.6798C85.0657 12.8398 85.0557 13.9698 84.9757 15.0698C84.8957 16.1498 84.7957 17.2598 84.6757 18.3998C84.5957 19.0998 84.5957 19.6698 84.6757 20.1098C84.7557 20.5298 84.8957 20.8698 85.0957 21.1298C85.2957 21.3898 85.5557 21.5698 85.8757 21.6698C86.1957 21.7698 86.5657 21.8198 86.9857 21.8198C87.8457 21.8398 88.4657 21.7298 88.8457 21.4898C89.2257 21.2498 89.4557 20.7498 89.5357 19.9898C89.6157 19.3498 89.6457 18.4498 89.6257 17.2898C89.6057 16.1098 89.4557 14.6598 89.1757 12.9398C88.5757 9.49977 88.6957 8.62977 89.5357 10.3298C89.9357 11.1898 90.3457 12.1198 90.7657 13.1198C91.1657 14.1198 91.5857 15.1998 92.0257 16.3598C92.8257 18.6598 93.4357 20.1298 93.8557 20.7698C94.0757 21.0898 94.3657 21.3498 94.7257 21.5498C95.0857 21.7298 95.6457 21.7998 96.4057 21.7598C97.6657 21.7198 98.4157 21.4398 98.6557 20.9198C98.7957 20.6598 98.8957 20.2598 98.9557 19.7198C98.9957 19.1798 98.9957 18.5298 98.9557 17.7698C98.9157 17.0098 98.8557 16.1598 98.7757 15.2198C98.6757 14.2598 98.6057 13.1998 98.5657 12.0398C98.5257 10.8798 98.5257 9.68977 98.5657 8.46977C98.6057 7.22977 98.6857 5.94977 98.8057 4.62977C98.8657 3.96977 98.8757 3.43977 98.8357 3.03977C98.7957 2.63977 98.6957 2.32977 98.5357 2.10977C98.3757 1.86977 98.1557 1.71977 97.8757 1.65977C97.5757 1.57977 97.2057 1.53977 96.7657 1.53977C95.9257 1.53977 95.3057 1.70977 94.9057 2.04977C94.4857 2.38977 94.2457 3.00977 94.1857 3.90977C94.1057 4.82977 94.1257 5.88977 94.2457 7.08977C94.3657 8.26977 94.5857 9.72977 94.9057 11.4698C95.2457 13.2498 95.3457 14.2898 95.2057 14.5898C95.0457 14.8698 94.6357 14.2798 93.9757 12.8198C93.3357 11.3598 92.7457 10.0598 92.2057 8.91977C91.6457 7.77977 91.1457 6.77977 90.7057 5.91977C90.2657 5.07977 89.8857 4.38977 89.5657 3.84977C89.2457 3.28977 88.9757 2.87977 88.7557 2.61977C88.5357 2.35977 88.3057 2.14977 88.0657 1.98977C87.8257 1.80977 87.5057 1.67977 87.1057 1.59977C86.6857 1.53977 86.2757 1.52977 85.8757 1.56977C85.4557 1.60977 85.1457 1.73977 84.9457 1.95977C84.7457 2.15977 84.6357 2.48977 84.6157 2.94977C84.5757 3.38977 84.5757 3.82977 84.6157 4.26977Z" fill="#FFB620"/>
<path d="M188.686 19.3068C188.686 20.69 189.571 21.4646 190.761 21.4646C191.951 21.4646 192.602 21.0035 192.836 19.3068C193.069 17.6101 193.382 16.2857 192.836 13.3038H192.891C194.907 16.6556 196.187 18.3603 199.032 20.7453C199.475 21.2709 200.139 21.4646 200.637 21.4646C201.854 21.4646 202.712 20.4134 202.712 19.3345C202.712 18.9472 202.546 18.5322 202.158 18.1173C200.035 16.3499 199.065 15.2055 197.456 13.0825C199.914 12.4607 201.983 10.4698 202.158 7.85403C202.096 3.33309 199.872 1.40448 195.685 1.60203C194.192 1.38576 193.138 1.37976 190.816 1.60203C189.433 1.60203 188.686 2.43194 188.686 3.7598C189.033 10.5235 189.275 14.4112 188.686 19.3068ZM192.836 5.41962H195.685C197.207 5.41962 198.258 6.2772 198.258 7.85403C198.258 9.4032 197.207 10.3161 195.685 10.3161H192.836C193.042 8.48186 193.083 7.42234 192.836 5.41962Z" fill="#FFB620"/>
<path d="M203.892 13.4698C203.736 18.3916 207.484 21.9088 212.302 21.6306C216.915 21.3796 220.742 17.8097 220.684 13.4698C220.303 9.57642 220.366 7.34029 220.684 3.59382C220.684 2.21063 219.799 1.43605 218.609 1.43605C217.42 1.43605 216.534 2.21063 216.534 3.59382C216.346 7.39741 216.258 9.52779 216.534 13.2485C216.534 15.6829 214.819 17.813 212.302 17.813C209.691 18.0404 208.065 15.9949 208.042 13.2485C207.774 9.39431 207.805 7.2906 208.042 3.59382C208.042 2.21063 207.156 1.43605 205.967 1.43605C204.777 1.43605 203.892 2.21063 203.892 3.59382C203.7 7.48574 203.684 9.65628 203.892 13.4698Z" fill="#FFB620"/>
<path d="M1.024 3.11977C1.084 2.03977 1.664 1.43977 2.764 1.31977C3.884 1.19977 4.734 1.35977 5.314 1.79977C5.914 2.23977 6.094 3.56977 5.854 5.78977C5.734 6.90977 5.724 7.79977 5.824 8.45977C5.924 9.09977 6.104 9.52977 6.364 9.74977C6.864 10.1698 7.394 10.2798 7.954 10.0798C8.254 9.97977 8.534 9.79977 8.794 9.53977C9.074 9.27977 9.244 8.90977 9.304 8.42977C9.344 7.94977 9.334 7.42977 9.274 6.86977C9.214 6.30977 9.134 5.68977 9.034 5.00977C8.934 4.14977 8.904 3.47977 8.944 2.99977C9.004 2.49977 9.244 2.11977 9.664 1.85977C10.064 1.59977 10.494 1.44977 10.954 1.40977C11.434 1.36977 11.894 1.42977 12.334 1.58977C12.774 1.76977 13.074 2.08977 13.234 2.54977C13.414 2.98977 13.494 3.43977 13.474 3.89977C13.454 4.37977 13.384 5.25977 13.264 6.53977C13.144 7.81977 13.014 9.51977 12.874 11.6398C12.834 12.4798 12.874 13.3598 12.994 14.2798C13.114 15.1798 13.304 16.1598 13.564 17.2198C13.844 18.3598 13.954 19.2498 13.894 19.8898C13.834 20.5298 13.534 20.9598 12.994 21.1798C12.454 21.4198 11.894 21.5298 11.314 21.5098C10.754 21.4698 10.264 21.3498 9.844 21.1498C9.084 20.7498 8.854 19.6798 9.154 17.9398C9.454 16.1398 9.454 14.9298 9.154 14.3098C8.994 13.9898 8.744 13.7698 8.404 13.6498C8.064 13.5298 7.714 13.4698 7.354 13.4698C7.014 13.4698 6.704 13.5198 6.424 13.6198C6.164 13.6998 5.954 13.9098 5.794 14.2498C5.634 14.5698 5.524 15.0798 5.464 15.7798C5.424 16.4598 5.484 17.1798 5.644 17.9398C5.804 18.7398 5.834 19.4198 5.734 19.9798C5.634 20.5198 5.404 20.8998 5.044 21.1198C4.684 21.3598 4.274 21.4998 3.814 21.5398C3.354 21.5598 2.894 21.5298 2.434 21.4498C2.134 21.3898 1.884 21.2698 1.684 21.0898C1.484 20.9098 1.334 20.6898 1.234 20.4298C1.134 20.1498 1.074 19.8398 1.054 19.4998C1.054 19.1598 1.104 18.8198 1.204 18.4798C1.384 17.7798 1.494 17.1298 1.534 16.5298C1.574 15.9098 1.644 15.2798 1.744 14.6398C1.824 13.9998 1.864 13.1798 1.864 12.1798C1.884 11.1598 1.764 9.98977 1.504 8.66977C1.264 7.34977 1.114 6.22977 1.054 5.30977C0.994 4.38977 0.984 3.65977 1.024 3.11977Z" stroke="white" stroke-width="1.84425" mask="url(#path-1-outside-1_2561_66405)"/>
<path d="M27.1057 3.14977C27.7457 3.86977 28.2457 4.65977 28.6057 5.51977C28.9857 6.35977 29.2457 7.23977 29.3857 8.15977C29.5457 9.07977 29.6157 10.0198 29.5957 10.9798C29.5957 11.9198 29.5357 12.8398 29.4157 13.7398C29.3157 14.4998 29.1957 15.1698 29.0557 15.7498C28.9357 16.3098 28.7857 16.8298 28.6057 17.3098C28.4257 17.7698 28.2157 18.1898 27.9757 18.5698C27.7357 18.9298 27.4557 19.2798 27.1357 19.6198C26.8157 19.9598 26.5057 20.2598 26.2057 20.5198C25.9057 20.7598 25.5857 20.9598 25.2457 21.1198C24.9257 21.2598 24.5657 21.3698 24.1657 21.4498C23.7857 21.5098 23.3357 21.5398 22.8157 21.5398C22.2557 21.5398 21.7657 21.4798 21.3457 21.3598C20.9257 21.2198 20.5457 21.0398 20.2057 20.8198C19.8857 20.5798 19.5857 20.2998 19.3057 19.9798C19.0257 19.6598 18.7457 19.2998 18.4657 18.8998C17.8457 18.0198 17.3657 17.0498 17.0257 15.9898C16.7057 14.9298 16.5057 13.8498 16.4257 12.7498C16.3657 11.6298 16.4157 10.5198 16.5757 9.41977C16.7357 8.29977 16.9957 7.24977 17.3557 6.26977C17.5957 5.60977 17.9157 4.95977 18.3157 4.31977C18.7357 3.67977 19.2257 3.11977 19.7857 2.63977C20.3457 2.15977 20.9657 1.79977 21.6457 1.55977C22.3457 1.29977 23.0957 1.21977 23.8957 1.31977C25.0557 1.45977 26.1257 2.06977 27.1057 3.14977ZM24.6157 15.1498C24.9557 14.8098 25.1957 14.2398 25.3357 13.4398C25.4757 12.6398 25.5457 11.5698 25.5457 10.2298C25.5457 8.96977 25.3457 8.05977 24.9457 7.49977C24.5657 6.93977 24.1057 6.60977 23.5657 6.50977C22.5057 6.30977 21.6857 7.02977 21.1057 8.66977C20.8257 9.50977 20.6557 10.2898 20.5957 11.0098C20.5557 11.7098 20.5857 12.3998 20.6857 13.0798C20.8457 14.4598 21.3857 15.3398 22.3057 15.7198C22.7257 15.8998 23.1257 15.9398 23.5057 15.8398C23.8857 15.7198 24.2557 15.4898 24.6157 15.1498Z" stroke="white" stroke-width="1.84425" mask="url(#path-1-outside-1_2561_66405)"/>
<path d="M32.6166 11.8198C32.6966 9.63977 32.6866 7.83977 32.5866 6.41977C32.4866 4.99977 32.4166 4.04977 32.3766 3.56977C32.3366 3.10977 32.3966 2.73977 32.5566 2.45977C32.7166 2.15977 32.9366 1.89977 33.2166 1.67977C33.4966 1.45977 33.8966 1.32977 34.4166 1.28977C34.9366 1.24977 35.3966 1.28977 35.7966 1.40977C36.2566 1.56977 36.7166 2.06977 37.1766 2.90977C37.6566 3.74977 38.1266 4.76977 38.5866 5.96977C39.5266 8.34977 40.5466 8.33977 41.6466 5.93977C42.1866 4.73977 42.6866 3.72977 43.1466 2.90977C43.6066 2.06977 44.0266 1.58977 44.4066 1.46977C44.5866 1.40977 44.8166 1.35977 45.0966 1.31977C45.3766 1.27977 45.6566 1.26977 45.9366 1.28977C46.2366 1.30977 46.5166 1.34977 46.7766 1.40977C47.0366 1.46977 47.2466 1.55977 47.4066 1.67977C47.7066 1.91977 47.8966 2.25977 47.9766 2.69977C48.0766 3.11977 48.1066 3.63977 48.0666 4.25977C48.0466 4.57977 48.0266 4.99977 48.0066 5.51977C47.9866 6.03977 47.9666 6.61977 47.9466 7.25977C47.9266 7.89977 47.9066 8.58977 47.8866 9.32977C47.8866 10.0698 47.8866 10.8098 47.8866 11.5498C47.8866 12.2698 47.8866 12.8798 47.8866 13.3798C47.9066 13.8798 47.9266 14.3398 47.9466 14.7598C47.9666 15.1798 47.9866 15.6098 48.0066 16.0498C48.0466 16.4698 48.0966 16.9698 48.1566 17.5498C48.2166 18.0898 48.2366 18.5998 48.2166 19.0798C48.2166 19.5598 48.1266 19.9798 47.9466 20.3398C47.7666 20.6998 47.4766 20.9898 47.0766 21.2098C46.6966 21.4098 46.1566 21.5098 45.4566 21.5098C44.8966 21.5098 44.4566 21.4198 44.1366 21.2398C43.8366 21.0598 43.6166 20.8198 43.4766 20.5198C43.3366 20.1998 43.2566 19.8298 43.2366 19.4098C43.2366 18.9698 43.2566 18.5098 43.2966 18.0298C43.4366 16.5498 43.5466 15.2998 43.6266 14.2798C43.7266 13.2398 43.8066 12.2798 43.8666 11.3998C43.9066 10.6998 43.8866 10.1998 43.8066 9.89977C43.7266 9.59977 43.5966 9.46977 43.4166 9.50977C43.2366 9.54977 43.0066 9.74977 42.7266 10.1098C42.4666 10.4698 42.1866 10.9698 41.8866 11.6098C40.6466 14.1698 39.4866 14.1598 38.4066 11.5798C37.8666 10.2998 37.4366 9.61977 37.1166 9.53977C36.8166 9.43977 36.6966 9.95977 36.7566 11.0998C36.7966 12.2198 36.8366 13.2698 36.8766 14.2498C36.9166 15.2098 37.0266 16.2998 37.2066 17.5198C37.3666 18.7798 37.3066 19.7298 37.0266 20.3698C36.7666 20.9898 36.1766 21.3498 35.2566 21.4498C34.5366 21.5298 33.9666 21.4998 33.5466 21.3598C33.1266 21.2198 32.8066 21.0098 32.5866 20.7298C32.3666 20.4498 32.2266 20.1298 32.1666 19.7698C32.1266 19.3898 32.1266 18.9998 32.1666 18.5998C32.1866 18.2398 32.2166 17.8498 32.2566 17.4298C32.2966 17.0098 32.3266 16.5398 32.3466 16.0198C32.3866 15.4798 32.4266 14.8698 32.4666 14.1898C32.5066 13.5098 32.5566 12.7198 32.6166 11.8198Z" stroke="white" stroke-width="1.84425" mask="url(#path-1-outside-1_2561_66405)"/>
<path d="M59.1874 16.7998C59.7674 16.6598 60.3274 16.5898 60.8674 16.5898C61.4074 16.5698 61.8974 16.6098 62.3374 16.7098C62.7974 16.8098 63.1774 16.9598 63.4774 17.1598C63.7774 17.3598 63.9774 17.5998 64.0774 17.8798C64.2574 18.4398 64.3274 18.9098 64.2874 19.2898C64.2674 19.6498 64.1674 20.0598 63.9874 20.5198C63.7874 20.9798 63.3474 21.2898 62.6674 21.4498C62.0074 21.5898 61.1474 21.5898 60.0874 21.4498C59.1874 21.3298 58.2674 21.3198 57.3274 21.4198C56.3874 21.4998 55.3774 21.5398 54.2974 21.5398C53.1774 21.5398 52.3974 21.3798 51.9574 21.0598C51.5374 20.7398 51.3174 20.2298 51.2974 19.5298C51.2774 19.0298 51.2774 18.6198 51.2974 18.2998C51.3374 17.9798 51.3874 17.6998 51.4474 17.4598C51.5274 17.2198 51.6174 16.9798 51.7174 16.7398C51.8174 16.4998 51.9174 16.1998 52.0174 15.8398C52.1774 15.2598 52.2574 14.6798 52.2574 14.0998C52.2774 13.5198 52.3074 12.8498 52.3474 12.0898C52.3674 11.7298 52.3874 11.4198 52.4074 11.1598C52.4274 10.8798 52.4374 10.6298 52.4374 10.4098C52.4574 10.1698 52.4574 9.92977 52.4374 9.68977C52.4374 9.42977 52.4274 9.12977 52.4074 8.78977C52.3674 8.34977 52.3274 7.98977 52.2874 7.70977C52.2474 7.42977 52.2074 7.18977 52.1674 6.98977C52.1274 6.76977 52.0774 6.57977 52.0174 6.41977C51.9574 6.25977 51.8974 6.07977 51.8374 5.87977C51.7374 5.47977 51.6374 5.12977 51.5374 4.82977C51.4374 4.50977 51.3874 4.05977 51.3874 3.47977C51.3674 2.89977 51.5574 2.42977 51.9574 2.06977C52.3774 1.70977 52.9774 1.47977 53.7574 1.37977C54.5374 1.25977 55.3074 1.22977 56.0674 1.28977C56.8274 1.32977 57.6474 1.36977 58.5274 1.40977C58.9674 1.40977 59.4274 1.39977 59.9074 1.37977C60.4074 1.33977 60.8674 1.31977 61.2874 1.31977C61.7274 1.31977 62.1074 1.36977 62.4274 1.46977C62.7474 1.54977 62.9574 1.70977 63.0574 1.94977C63.2374 2.34977 63.3474 2.84977 63.3874 3.44977C63.4474 4.02977 63.3574 4.60977 63.1174 5.18977C63.0174 5.40977 62.8274 5.57977 62.5474 5.69977C62.2674 5.81977 61.9274 5.88977 61.5274 5.90977C61.1274 5.90977 60.6874 5.87977 60.2074 5.81977C59.7274 5.73977 59.2374 5.61977 58.7374 5.45977C57.7574 5.15977 57.0874 5.13977 56.7274 5.39977C56.3874 5.65977 56.2374 6.21977 56.2774 7.07977C56.3174 7.91977 56.4474 8.49977 56.6674 8.81977C56.8874 9.13977 57.2874 9.29977 57.8674 9.29977C58.1674 9.29977 58.5174 9.30977 58.9174 9.32977C59.3174 9.32977 59.7074 9.34977 60.0874 9.38977C60.4674 9.42977 60.7974 9.49977 61.0774 9.59977C61.3774 9.69977 61.5574 9.84977 61.6174 10.0498C61.7174 10.3298 61.7774 10.6498 61.7974 11.0098C61.8174 11.3498 61.7774 11.7198 61.6774 12.1198C61.5574 12.5198 61.1574 12.8298 60.4774 13.0498C59.8174 13.2698 59.0274 13.2998 58.1074 13.1398C57.6274 13.0598 57.2474 13.1898 56.9674 13.5298C56.7074 13.8698 56.4974 14.4498 56.3374 15.2698C56.1774 16.0898 56.3174 16.6298 56.7574 16.8898C57.1974 17.1298 58.0074 17.0998 59.1874 16.7998Z" stroke="white" stroke-width="1.84425" mask="url(#path-1-outside-1_2561_66405)"/>
<path d="M78.9106 6.14977C79.5706 8.16977 80.2306 11.2198 80.8906 15.2998C81.0506 16.2998 81.1706 17.1898 81.2506 17.9698C81.3306 18.7498 81.3306 19.4098 81.2506 19.9498C81.1906 20.4698 81.0106 20.8698 80.7106 21.1498C80.4306 21.4098 79.9906 21.5398 79.3906 21.5398C79.1306 21.5398 78.7906 21.5298 78.3706 21.5098C77.9506 21.4898 77.6506 21.4598 77.4706 21.4198C77.1706 21.3398 76.9506 21.2198 76.8106 21.0598C76.6706 20.8998 76.5806 20.6998 76.5406 20.4598C76.5006 20.1998 76.4806 19.9198 76.4806 19.6198C76.5006 19.2998 76.5106 18.9498 76.5106 18.5698C76.5106 17.8698 76.4506 17.3298 76.3306 16.9498C76.2106 16.5698 75.8706 16.3398 75.3106 16.2598C75.2506 16.2598 75.1106 16.2598 74.8906 16.2598C74.6706 16.2398 74.4306 16.2298 74.1706 16.2298C73.9106 16.2298 73.6606 16.2398 73.4206 16.2598C73.2006 16.2598 73.0506 16.2598 72.9706 16.2598C72.3306 16.3398 71.9106 16.6598 71.7106 17.2198C71.5306 17.7598 71.4406 18.4898 71.4406 19.4098C71.4406 19.8898 71.3906 20.2798 71.2906 20.5798C71.2106 20.8598 71.0406 21.0798 70.7806 21.2398C70.5206 21.3798 70.1406 21.4598 69.6406 21.4798C69.1406 21.4998 68.4906 21.4798 67.6906 21.4198C67.1506 21.3398 66.8206 21.0298 66.7006 20.4898C66.6006 19.9498 66.6906 19.2598 66.9706 18.4198C67.5106 16.7598 67.6506 15.7098 67.3906 15.2698C67.1106 14.8098 67.0306 14.2798 67.1506 13.6798C67.2706 13.0598 67.5006 12.5798 67.8406 12.2398C68.0206 12.0798 68.2006 11.8798 68.3806 11.6398C68.5606 11.3998 68.7306 11.0198 68.8906 10.4998C69.0506 9.97977 69.2406 9.32977 69.4606 8.54977C69.6806 7.76977 69.9306 6.92977 70.2106 6.02977C70.3506 5.54977 70.4906 5.12977 70.6306 4.76977C70.7706 4.38977 70.9106 4.03977 71.0506 3.71977C71.2106 3.39977 71.3906 3.09977 71.5906 2.81977C71.8106 2.53977 72.0706 2.24977 72.3706 1.94977C72.5306 1.78977 72.7406 1.65977 73.0006 1.55977C73.2806 1.43977 73.5606 1.35977 73.8406 1.31977C74.1406 1.27977 74.4306 1.25977 74.7106 1.25977C75.0106 1.25977 75.2606 1.27977 75.4606 1.31977C75.6806 1.35977 75.8806 1.40977 76.0606 1.46977C76.2406 1.50977 76.4406 1.62977 76.6606 1.82977C76.9606 2.06977 77.2106 2.33977 77.4106 2.63977C77.6306 2.91977 77.8206 3.23977 77.9806 3.59977C78.1406 3.93977 78.2906 4.32977 78.4306 4.76977C78.5906 5.18977 78.7506 5.64977 78.9106 6.14977ZM74.9206 12.6898C75.2206 12.6298 75.4506 12.5498 75.6106 12.4498C75.7906 12.3298 75.9206 12.1798 76.0006 11.9998C76.0806 11.7998 76.1106 11.5498 76.0906 11.2498C76.0906 10.9298 76.0806 10.5498 76.0606 10.1098C76.0206 9.22977 75.9206 8.51977 75.7606 7.97977C75.6206 7.41977 75.4406 6.89977 75.2206 6.41977C75.1606 6.29977 75.0606 6.18977 74.9206 6.08977C74.8006 5.96977 74.6506 5.90977 74.4706 5.90977C74.3106 5.90977 74.1806 5.93977 74.0806 5.99977C74.0006 6.03977 73.8806 6.13977 73.7206 6.29977C73.4806 6.55977 73.2706 7.00977 73.0906 7.64977C72.9306 8.28977 72.7706 9.06977 72.6106 9.98977C72.4706 10.7898 72.4306 11.3898 72.4906 11.7898C72.5706 12.1898 72.7806 12.4798 73.1206 12.6598C73.1806 12.6798 73.2906 12.6998 73.4506 12.7198C73.6106 12.7198 73.7906 12.7198 73.9906 12.7198C74.1906 12.7198 74.3706 12.7198 74.5306 12.7198C74.7106 12.7198 74.8406 12.7098 74.9206 12.6898Z" stroke="white" stroke-width="1.84425" mask="url(#path-1-outside-1_2561_66405)"/>
<path d="M128.204 15.2698C128.524 14.7898 128.874 14.4898 129.254 14.3698C129.654 14.2498 130.034 14.2498 130.394 14.3698C130.754 14.4698 131.074 14.6698 131.354 14.9698C131.654 15.2498 131.884 15.5598 132.044 15.8998C132.284 16.4598 132.334 17.0298 132.194 17.6098C132.074 18.1898 131.824 18.7298 131.444 19.2298C131.204 19.5098 130.894 19.7998 130.514 20.0998C130.154 20.3798 129.814 20.5998 129.494 20.7598C128.194 21.4598 126.874 21.6998 125.534 21.4798C124.194 21.2398 123.014 20.6198 121.994 19.6198C121.034 18.6798 120.324 17.4098 119.864 15.8098C119.404 14.1898 119.174 12.4098 119.174 10.4698C119.234 8.76977 119.494 7.31977 119.954 6.11977C120.414 4.89977 121.004 3.92977 121.724 3.20977C122.424 2.50977 123.134 2.01977 123.854 1.73977C124.594 1.43977 125.414 1.28977 126.314 1.28977C127.314 1.28977 128.084 1.40977 128.624 1.64977C129.184 1.86977 129.654 2.12977 130.034 2.42977C130.394 2.72977 130.774 3.13977 131.174 3.65977C131.574 4.17977 131.854 4.76977 132.014 5.42977C132.074 5.66977 132.124 5.94977 132.164 6.26977C132.224 6.56977 132.234 6.86977 132.194 7.16977C132.174 7.46977 132.074 7.74977 131.894 8.00977C131.734 8.26977 131.464 8.46977 131.084 8.60977C130.764 8.72977 130.424 8.79977 130.064 8.81977C129.724 8.81977 129.404 8.76977 129.104 8.66977C128.804 8.56977 128.554 8.40977 128.354 8.18977C128.154 7.96977 128.034 7.67977 127.994 7.31977C127.914 6.57977 127.644 6.08977 127.184 5.84977C126.724 5.60977 126.204 5.61977 125.624 5.87977C125.084 6.11977 124.654 6.47977 124.334 6.95977C124.034 7.41977 123.804 7.92977 123.644 8.48977C123.504 9.02977 123.424 9.58977 123.404 10.1698C123.384 10.7498 123.394 11.2798 123.434 11.7598C123.514 12.7198 123.674 13.5798 123.914 14.3398C124.154 15.0998 124.534 15.6598 125.054 16.0198C125.594 16.3798 126.144 16.5098 126.704 16.4098C127.284 16.2898 127.784 15.9098 128.204 15.2698Z" stroke="white" stroke-width="1.84425" mask="url(#path-1-outside-1_2561_66405)"/>
<path d="M145.549 3.14977C146.189 3.86977 146.689 4.65977 147.049 5.51977C147.429 6.35977 147.689 7.23977 147.829 8.15977C147.989 9.07977 148.059 10.0198 148.039 10.9798C148.039 11.9198 147.979 12.8398 147.859 13.7398C147.759 14.4998 147.639 15.1698 147.499 15.7498C147.379 16.3098 147.229 16.8298 147.049 17.3098C146.869 17.7698 146.659 18.1898 146.419 18.5698C146.179 18.9298 145.899 19.2798 145.579 19.6198C145.259 19.9598 144.949 20.2598 144.649 20.5198C144.349 20.7598 144.029 20.9598 143.689 21.1198C143.369 21.2598 143.009 21.3698 142.609 21.4498C142.229 21.5098 141.779 21.5398 141.259 21.5398C140.699 21.5398 140.209 21.4798 139.789 21.3598C139.369 21.2198 138.989 21.0398 138.649 20.8198C138.329 20.5798 138.029 20.2998 137.749 19.9798C137.469 19.6598 137.189 19.2998 136.909 18.8998C136.289 18.0198 135.809 17.0498 135.469 15.9898C135.149 14.9298 134.949 13.8498 134.869 12.7498C134.809 11.6298 134.859 10.5198 135.019 9.41977C135.179 8.29977 135.439 7.24977 135.799 6.26977C136.039 5.60977 136.359 4.95977 136.759 4.31977C137.179 3.67977 137.669 3.11977 138.229 2.63977C138.789 2.15977 139.409 1.79977 140.089 1.55977C140.789 1.29977 141.539 1.21977 142.339 1.31977C143.499 1.45977 144.569 2.06977 145.549 3.14977ZM143.059 15.1498C143.399 14.8098 143.639 14.2398 143.779 13.4398C143.919 12.6398 143.989 11.5698 143.989 10.2298C143.989 8.96977 143.789 8.05977 143.389 7.49977C143.009 6.93977 142.549 6.60977 142.009 6.50977C140.949 6.30977 140.129 7.02977 139.549 8.66977C139.269 9.50977 139.099 10.2898 139.039 11.0098C138.999 11.7098 139.029 12.3998 139.129 13.0798C139.289 14.4598 139.829 15.3398 140.749 15.7198C141.169 15.8998 141.569 15.9398 141.949 15.8398C142.329 15.7198 142.699 15.4898 143.059 15.1498Z" stroke="white" stroke-width="1.84425" mask="url(#path-1-outside-1_2561_66405)"/>
<path d="M160.93 3.14977C161.57 3.86977 162.07 4.65977 162.43 5.51977C162.81 6.35977 163.07 7.23977 163.21 8.15977C163.37 9.07977 163.44 10.0198 163.42 10.9798C163.42 11.9198 163.36 12.8398 163.24 13.7398C163.14 14.4998 163.02 15.1698 162.88 15.7498C162.76 16.3098 162.61 16.8298 162.43 17.3098C162.25 17.7698 162.04 18.1898 161.8 18.5698C161.56 18.9298 161.28 19.2798 160.96 19.6198C160.64 19.9598 160.33 20.2598 160.03 20.5198C159.73 20.7598 159.41 20.9598 159.07 21.1198C158.75 21.2598 158.39 21.3698 157.99 21.4498C157.61 21.5098 157.16 21.5398 156.64 21.5398C156.08 21.5398 155.59 21.4798 155.17 21.3598C154.75 21.2198 154.37 21.0398 154.03 20.8198C153.71 20.5798 153.41 20.2998 153.13 19.9798C152.85 19.6598 152.57 19.2998 152.29 18.8998C151.67 18.0198 151.19 17.0498 150.85 15.9898C150.53 14.9298 150.33 13.8498 150.25 12.7498C150.19 11.6298 150.24 10.5198 150.4 9.41977C150.56 8.29977 150.82 7.24977 151.18 6.26977C151.42 5.60977 151.74 4.95977 152.14 4.31977C152.56 3.67977 153.05 3.11977 153.61 2.63977C154.17 2.15977 154.79 1.79977 155.47 1.55977C156.17 1.29977 156.92 1.21977 157.72 1.31977C158.88 1.45977 159.95 2.06977 160.93 3.14977ZM158.44 15.1498C158.78 14.8098 159.02 14.2398 159.16 13.4398C159.3 12.6398 159.37 11.5698 159.37 10.2298C159.37 8.96977 159.17 8.05977 158.77 7.49977C158.39 6.93977 157.93 6.60977 157.39 6.50977C156.33 6.30977 155.51 7.02977 154.93 8.66977C154.65 9.50977 154.48 10.2898 154.42 11.0098C154.38 11.7098 154.41 12.3998 154.51 13.0798C154.67 14.4598 155.21 15.3398 156.13 15.7198C156.55 15.8998 156.95 15.9398 157.33 15.8398C157.71 15.7198 158.08 15.4898 158.44 15.1498Z" stroke="white" stroke-width="1.84425" mask="url(#path-1-outside-1_2561_66405)"/>
<path d="M178.261 17.0098C178.381 17.4498 178.481 17.8698 178.561 18.2698C178.661 18.6498 178.711 18.9998 178.711 19.3198C178.731 19.6398 178.681 19.9298 178.561 20.1898C178.461 20.4498 178.261 20.6798 177.961 20.8798C177.361 21.2798 176.821 21.4798 176.341 21.4798C175.881 21.4598 175.511 21.3998 175.231 21.2998C175.011 21.2198 174.811 21.0798 174.631 20.8798C174.471 20.6598 174.331 20.4098 174.211 20.1298C174.111 19.8498 174.031 19.5598 173.971 19.2598C173.911 18.9398 173.871 18.6398 173.851 18.3598C173.811 17.7598 173.741 17.1898 173.641 16.6498C173.541 16.1098 173.401 15.6298 173.221 15.2098C173.041 14.7898 172.821 14.4498 172.561 14.1898C172.301 13.9098 172.011 13.7398 171.691 13.6798C171.391 13.6198 171.161 13.6598 171.001 13.7998C170.861 13.9398 170.741 14.0898 170.641 14.2498C170.461 14.6098 170.361 15.0798 170.341 15.6598C170.341 16.2398 170.351 16.8498 170.371 17.4898C170.391 18.1098 170.391 18.7198 170.371 19.3198C170.351 19.9198 170.221 20.4298 169.981 20.8498C169.821 21.1298 169.581 21.3198 169.261 21.4198C168.941 21.4998 168.481 21.5398 167.881 21.5398C167.321 21.5198 166.871 21.4398 166.531 21.2998C166.211 21.1598 165.971 20.8798 165.811 20.4598C165.751 20.2798 165.711 20.0498 165.691 19.7698C165.691 19.4698 165.701 19.1498 165.721 18.8098C165.761 18.4498 165.801 18.0898 165.841 17.7298C165.901 17.3498 165.951 16.9898 165.991 16.6498C166.031 16.1298 166.071 15.7098 166.111 15.3898C166.171 15.0498 166.221 14.6698 166.261 14.2498C166.301 12.2498 166.261 10.4898 166.141 8.96977C166.041 7.42977 165.951 6.18977 165.871 5.24977C165.791 4.30977 165.781 3.55977 165.841 2.99977C165.921 2.43977 166.041 2.03977 166.201 1.79977C166.281 1.65977 166.421 1.55977 166.621 1.49977C166.821 1.41977 167.041 1.36977 167.281 1.34977C167.541 1.30977 167.801 1.28977 168.061 1.28977C168.341 1.28977 168.601 1.28977 168.841 1.28977C169.321 1.30977 169.661 1.40977 169.861 1.58977C170.081 1.76977 170.221 2.07977 170.281 2.51977C170.321 2.89977 170.341 3.34977 170.341 3.86977C170.361 4.36977 170.341 4.94977 170.281 5.60977C170.261 5.76977 170.251 5.95977 170.251 6.17977C170.251 6.39977 170.251 6.61977 170.251 6.83977C170.251 7.05977 170.251 7.26977 170.251 7.46977C170.271 7.64977 170.291 7.79977 170.311 7.91977C170.371 8.01977 170.431 8.08977 170.491 8.12977C170.571 8.14977 170.691 8.08977 170.851 7.94977C171.011 7.78977 171.181 7.58977 171.361 7.34977C171.561 7.08977 171.751 6.81977 171.931 6.53977C172.131 6.23977 172.291 5.94977 172.411 5.66977C172.651 5.14977 172.911 4.59977 173.191 4.01977C173.471 3.41977 173.741 2.91977 174.001 2.51977C174.261 2.13977 174.511 1.87977 174.751 1.73977C174.991 1.57977 175.311 1.46977 175.711 1.40977C175.991 1.34977 176.381 1.35977 176.881 1.43977C177.381 1.51977 177.851 1.79977 178.291 2.27977C178.551 2.55977 178.681 2.84977 178.681 3.14977C178.701 3.44977 178.631 3.75977 178.471 4.07977C178.311 4.39977 178.091 4.72977 177.811 5.06977C177.531 5.38977 177.241 5.72977 176.941 6.08977C176.701 6.36977 176.411 6.68977 176.071 7.04977C175.731 7.38977 175.401 7.73977 175.081 8.09977C174.761 8.45977 174.481 8.79977 174.241 9.11977C174.001 9.43977 173.871 9.70977 173.851 9.92977C173.831 10.1698 173.881 10.3498 174.001 10.4698C174.141 10.5898 174.341 10.7398 174.601 10.9198C174.861 11.0998 175.171 11.3498 175.531 11.6698C175.911 11.9898 176.331 12.4798 176.791 13.1398C177.291 13.8198 177.631 14.5098 177.811 15.2098C177.991 15.8898 178.141 16.4898 178.261 17.0098Z" stroke="white" stroke-width="1.84425" mask="url(#path-1-outside-1_2561_66405)"/>
<path d="M181.912 19.6198C181.952 19.3198 182.042 19.0298 182.182 18.7498C182.322 18.4698 182.502 18.2498 182.722 18.0898C183.102 17.8298 183.592 17.7898 184.192 17.9698C184.792 18.1498 185.132 18.5398 185.212 19.1398C185.312 19.6598 185.262 20.1498 185.062 20.6098C184.882 21.0498 184.502 21.3198 183.922 21.4198C183.282 21.5198 182.762 21.4198 182.362 21.1198C181.962 20.7998 181.812 20.2998 181.912 19.6198Z" stroke="white" stroke-width="1.84425" mask="url(#path-1-outside-1_2561_66405)"/>
<path d="M102.325 19.3925C102.325 20.99 103.615 21.4944 104.54 21.4944H109.416C113.497 21.8733 115.483 19.8614 116.404 16.0577C117.079 13.2716 117.067 10.323 116.373 7.54179C115.456 3.87245 113.504 1.78065 109.136 1.53977H104.483C103.222 1.53977 102.325 2.40858 102.325 3.69779C102.755 10.0833 102.725 13.4923 102.325 19.3925ZM106.529 5.40739H109.08C112.554 5.99963 112.34 8.66977 112.629 11.6012C112.5 14.9998 112 16.4998 109.36 17.6268H106.529C106.825 13.255 106.853 10.6301 106.529 5.40739Z" stroke="white" stroke-width="1.84425" mask="url(#path-1-outside-1_2561_66405)"/>
<path d="M84.6157 4.26977C84.6757 4.68977 84.7357 5.48977 84.7957 6.66977C84.8357 7.84977 84.9057 9.51977 85.0057 11.6798C85.0657 12.8398 85.0557 13.9698 84.9757 15.0698C84.8957 16.1498 84.7957 17.2598 84.6757 18.3998C84.5957 19.0998 84.5957 19.6698 84.6757 20.1098C84.7557 20.5298 84.8957 20.8698 85.0957 21.1298C85.2957 21.3898 85.5557 21.5698 85.8757 21.6698C86.1957 21.7698 86.5657 21.8198 86.9857 21.8198C87.8457 21.8398 88.4657 21.7298 88.8457 21.4898C89.2257 21.2498 89.4557 20.7498 89.5357 19.9898C89.6157 19.3498 89.6457 18.4498 89.6257 17.2898C89.6057 16.1098 89.4557 14.6598 89.1757 12.9398C88.5757 9.49977 88.6957 8.62977 89.5357 10.3298C89.9357 11.1898 90.3457 12.1198 90.7657 13.1198C91.1657 14.1198 91.5857 15.1998 92.0257 16.3598C92.8257 18.6598 93.4357 20.1298 93.8557 20.7698C94.0757 21.0898 94.3657 21.3498 94.7257 21.5498C95.0857 21.7298 95.6457 21.7998 96.4057 21.7598C97.6657 21.7198 98.4157 21.4398 98.6557 20.9198C98.7957 20.6598 98.8957 20.2598 98.9557 19.7198C98.9957 19.1798 98.9957 18.5298 98.9557 17.7698C98.9157 17.0098 98.8557 16.1598 98.7757 15.2198C98.6757 14.2598 98.6057 13.1998 98.5657 12.0398C98.5257 10.8798 98.5257 9.68977 98.5657 8.46977C98.6057 7.22977 98.6857 5.94977 98.8057 4.62977C98.8657 3.96977 98.8757 3.43977 98.8357 3.03977C98.7957 2.63977 98.6957 2.32977 98.5357 2.10977C98.3757 1.86977 98.1557 1.71977 97.8757 1.65977C97.5757 1.57977 97.2057 1.53977 96.7657 1.53977C95.9257 1.53977 95.3057 1.70977 94.9057 2.04977C94.4857 2.38977 94.2457 3.00977 94.1857 3.90977C94.1057 4.82977 94.1257 5.88977 94.2457 7.08977C94.3657 8.26977 94.5857 9.72977 94.9057 11.4698C95.2457 13.2498 95.3457 14.2898 95.2057 14.5898C95.0457 14.8698 94.6357 14.2798 93.9757 12.8198C93.3357 11.3598 92.7457 10.0598 92.2057 8.91977C91.6457 7.77977 91.1457 6.77977 90.7057 5.91977C90.2657 5.07977 89.8857 4.38977 89.5657 3.84977C89.2457 3.28977 88.9757 2.87977 88.7557 2.61977C88.5357 2.35977 88.3057 2.14977 88.0657 1.98977C87.8257 1.80977 87.5057 1.67977 87.1057 1.59977C86.6857 1.53977 86.2757 1.52977 85.8757 1.56977C85.4557 1.60977 85.1457 1.73977 84.9457 1.95977C84.7457 2.15977 84.6357 2.48977 84.6157 2.94977C84.5757 3.38977 84.5757 3.82977 84.6157 4.26977Z" stroke="white" stroke-width="1.84425" mask="url(#path-1-outside-1_2561_66405)"/>
<path d="M188.686 19.3068C188.686 20.69 189.571 21.4646 190.761 21.4646C191.951 21.4646 192.602 21.0035 192.836 19.3068C193.069 17.6101 193.382 16.2857 192.836 13.3038H192.891C194.907 16.6556 196.187 18.3603 199.032 20.7453C199.475 21.2709 200.139 21.4646 200.637 21.4646C201.854 21.4646 202.712 20.4134 202.712 19.3345C202.712 18.9472 202.546 18.5322 202.158 18.1173C200.035 16.3499 199.065 15.2055 197.456 13.0825C199.914 12.4607 201.983 10.4698 202.158 7.85403C202.096 3.33309 199.872 1.40448 195.685 1.60203C194.192 1.38576 193.138 1.37976 190.816 1.60203C189.433 1.60203 188.686 2.43194 188.686 3.7598C189.033 10.5235 189.275 14.4112 188.686 19.3068ZM192.836 5.41962H195.685C197.207 5.41962 198.258 6.2772 198.258 7.85403C198.258 9.4032 197.207 10.3161 195.685 10.3161H192.836C193.042 8.48186 193.083 7.42234 192.836 5.41962Z" stroke="white" stroke-width="1.84425" mask="url(#path-1-outside-1_2561_66405)"/>
<path d="M203.892 13.4698C203.736 18.3916 207.484 21.9088 212.302 21.6306C216.915 21.3796 220.742 17.8097 220.684 13.4698C220.303 9.57642 220.366 7.34029 220.684 3.59382C220.684 2.21063 219.799 1.43605 218.609 1.43605C217.42 1.43605 216.534 2.21063 216.534 3.59382C216.346 7.39741 216.258 9.52779 216.534 13.2485C216.534 15.6829 214.819 17.813 212.302 17.813C209.691 18.0404 208.065 15.9949 208.042 13.2485C207.774 9.39431 207.805 7.2906 208.042 3.59382C208.042 2.21063 207.156 1.43605 205.967 1.43605C204.777 1.43605 203.892 2.21063 203.892 3.59382C203.7 7.48574 203.684 9.65628 203.892 13.4698Z" stroke="white" stroke-width="1.84425" mask="url(#path-1-outside-1_2561_66405)"/>
</svg>
