<svg width="33" height="22" viewBox="0 0 33 22" fill="none" xmlns="http://www.w3.org/2000/svg">
<path d="M4.61383 21.1673C4.25576 21.1673 3.87714 21.135 3.48678 21.0705C2.87337 20.9677 2.41258 20.639 2.15136 20.1166C1.92243 19.6617 1.81971 19.2067 1.84319 18.7577C1.86373 18.3879 1.91069 17.9065 1.98994 17.3313C2.06331 16.7795 2.13376 16.1132 2.19833 15.3501C2.2629 14.5988 2.29517 13.7359 2.29517 12.782C2.29517 11.8369 2.23061 10.7891 2.10147 9.66209C2.0457 9.17194 1.96939 8.59668 1.87841 7.95391C1.78449 7.2906 1.7023 6.62436 1.6348 5.96985C1.56729 5.31241 1.52327 4.69606 1.50565 4.14134C1.48511 3.52499 1.53209 3.06419 1.64949 2.73547C1.76689 2.40382 1.99287 2.06629 2.31572 1.7317C2.67966 1.35602 3.22558 1.13883 3.97988 1.06839C4.16185 1.05665 4.32034 1.05078 4.47002 1.05078C5.59413 1.05078 6.3807 1.34428 6.80921 1.92248L6.82976 1.95183C7.03815 2.27761 7.17902 2.67971 7.24653 3.14638C7.30816 3.56902 7.32871 4.02688 7.30817 4.51115C7.29056 4.96314 7.26121 5.44449 7.22306 5.9405C7.1849 6.42478 7.15848 6.89438 7.13793 7.33463C7.09978 8.24155 7.08217 9.22771 7.08217 10.2667C7.08217 11.3028 7.09098 12.3975 7.11153 13.5216C7.11153 14.1438 7.12032 14.634 7.13793 14.9862C7.15554 15.3325 7.17903 15.6319 7.20545 15.8726C7.23186 16.1132 7.26121 16.3304 7.28762 16.5241C7.31697 16.7237 7.34926 16.9644 7.38742 17.2491L7.39036 17.2843C7.40797 17.5631 7.43144 17.8772 7.46079 18.2235C7.49308 18.6051 7.48721 18.9719 7.44318 19.3153C7.39916 19.6881 7.29937 20.0197 7.14968 20.3103C6.95597 20.683 6.62137 20.9266 6.18699 21.0147C5.74087 21.0969 5.30649 21.1468 4.88091 21.1644C4.79286 21.1673 4.70482 21.1673 4.61383 21.1673Z" fill="#FFB620"/>
<path d="M4.46706 1.56924C5.42387 1.56924 6.06664 1.78937 6.39536 2.23256C6.56559 2.49671 6.67711 2.82543 6.73288 3.22165C6.78864 3.61788 6.80919 4.04052 6.78864 4.49251C6.77103 4.9445 6.74169 5.4141 6.70353 5.90425C6.66538 6.39439 6.63604 6.864 6.61843 7.31599C6.58027 8.23758 6.56266 9.22374 6.56266 10.2686C6.56266 11.3135 6.57146 12.4024 6.592 13.5294C6.592 14.1516 6.60082 14.6447 6.62136 15.0116C6.63897 15.3784 6.66245 15.6837 6.6918 15.9302C6.72115 16.1738 6.74756 16.3969 6.77691 16.5935C6.80626 16.7902 6.83855 17.0309 6.87671 17.3126C6.89432 17.5944 6.91779 17.9114 6.94714 18.2577C6.97649 18.607 6.97063 18.9357 6.93247 19.2468C6.89432 19.5579 6.81507 19.8309 6.6918 20.0657C6.56853 20.3005 6.36601 20.4472 6.08425 20.503C5.67042 20.5793 5.25951 20.6262 4.85448 20.6438C4.77524 20.6468 4.69305 20.6497 4.61087 20.6497C4.27922 20.6497 3.93289 20.6204 3.56895 20.5587C3.11696 20.4824 2.79704 20.2564 2.6092 19.8807C2.42136 19.5051 2.33624 19.1382 2.35385 18.7801C2.37146 18.422 2.41844 17.9613 2.49475 17.3948C2.57106 16.8313 2.64149 16.1621 2.70606 15.3902C2.77063 14.6183 2.80586 13.7466 2.80586 12.778C2.80586 11.8095 2.73834 10.7499 2.6092 9.59942C2.55343 9.10927 2.47713 8.53695 2.38321 7.87657C2.28929 7.21913 2.21005 6.56462 2.14254 5.91305C2.07504 5.26442 2.03395 4.66568 2.01634 4.11976C1.99873 3.57385 2.03393 3.16882 2.13079 2.90467C2.22471 2.64052 2.40668 2.36757 2.68257 2.08581C2.95553 1.80405 3.40165 1.63382 4.02387 1.57805C4.17943 1.57218 4.32618 1.56924 4.46706 1.56924ZM4.46706 0.541992C4.30564 0.541992 4.13541 0.547863 3.95931 0.559603H3.94462H3.92995C3.05825 0.638848 2.38908 0.914739 1.94296 1.37847C1.56435 1.77176 1.30899 2.15918 1.16224 2.56715C1.02136 2.96044 0.965606 3.46819 0.989086 4.16085C1.00963 4.72731 1.05364 5.35247 1.12115 6.02165C1.18865 6.68202 1.27084 7.35708 1.3677 8.02626C1.45868 8.67196 1.53499 9.24135 1.59076 9.72269C1.71696 10.8292 1.78152 11.8564 1.78152 12.781C1.78152 13.7172 1.74925 14.5684 1.68762 15.3051C1.62305 16.0594 1.55261 16.7168 1.48217 17.2627C1.40292 17.8585 1.35302 18.3399 1.33248 18.7273C1.30313 19.2615 1.42639 19.8074 1.69348 20.3415C2.031 21.0166 2.62094 21.4422 3.40459 21.5713C3.82136 21.6417 4.22639 21.674 4.61381 21.674C4.71067 21.674 4.80752 21.6711 4.90437 21.6682C5.35343 21.6476 5.8113 21.5948 6.26916 21.5126L6.27796 21.5097L6.28677 21.5067C6.87083 21.3893 7.33749 21.0459 7.60165 20.5353C7.78068 20.1919 7.89808 19.7986 7.95091 19.3671C7.99787 18.9885 8.00374 18.5864 7.96852 18.1726C7.94211 17.8292 7.91863 17.521 7.89808 17.2422L7.89515 17.207L7.88927 17.1717C7.85112 16.887 7.81884 16.6434 7.78949 16.4439C7.76307 16.2531 7.73665 16.0418 7.7073 15.807C7.68089 15.578 7.66035 15.2904 7.64274 14.9558C7.62513 14.6095 7.61632 14.1311 7.61632 13.5235V13.5147V13.5059C7.59871 12.3877 7.58697 11.2959 7.58697 10.2598C7.58697 9.22961 7.60458 8.24932 7.64274 7.35121C7.66035 6.91976 7.68676 6.45603 7.72491 5.97469C7.76307 5.46987 7.79243 4.98266 7.81298 4.52773C7.83352 4.01117 7.81296 3.52102 7.74546 3.06903C7.66915 2.52899 7.50186 2.05939 7.25532 1.67197L7.23771 1.64262L7.21716 1.61621C6.69179 0.902999 5.76433 0.541992 4.46706 0.541992Z" fill="white"/>
<path d="M17.1577 21.1341C16.8202 21.1341 16.4885 21.096 16.1745 21.0197C15.8106 20.9316 15.4965 20.8054 15.2441 20.644C14.5954 20.2272 14.0642 19.6872 13.6592 19.0444C13.26 18.4134 12.9225 17.571 12.6231 16.4763C12.3326 15.1497 12.089 13.9991 11.8806 13.0012C11.6751 12.0151 11.4785 11.1052 11.2906 10.301C11.1057 9.50858 10.9061 8.76603 10.6948 8.09391C10.4864 7.42766 10.2311 6.75848 9.93761 6.10104C9.67346 5.55513 9.46507 5.06498 9.32712 4.65995C9.17744 4.22264 9.09819 3.84402 9.08939 3.50943C9.07765 3.12788 9.16863 2.77274 9.3594 2.45283C9.52963 2.1652 9.78498 1.88637 10.1137 1.62516C10.3779 1.4109 10.6948 1.25535 11.0529 1.17317C11.3699 1.09979 11.6986 1.06163 12.0303 1.06163C12.3472 1.06163 12.6525 1.08218 12.9372 1.12327C13.2189 1.16436 13.4449 1.20252 13.6269 1.24361C13.9938 1.32285 14.3049 1.49895 14.5456 1.76897C14.754 2.00084 14.9242 2.27379 15.0474 2.58197C15.1648 2.87253 15.2529 3.19538 15.3057 3.54465C15.3556 3.86457 15.3879 4.17861 15.4085 4.47798C15.4466 5.26163 15.5053 6.05995 15.5904 6.86121C15.6755 7.66833 15.7607 8.41676 15.8428 9.11236L16.0688 10.9614C16.1334 11.4926 16.1862 11.8889 16.2244 12.1501C16.3359 13.0394 16.468 13.7878 16.6235 14.3836C16.7967 15.0557 16.9669 15.3874 17.0814 15.5488C17.1401 15.6163 17.1871 15.6604 17.2223 15.6897C17.2516 15.6545 17.2898 15.5987 17.3367 15.5195C17.3896 15.4226 17.4835 15.1996 17.5745 14.7916C17.6537 14.4335 17.7271 14.0197 17.7946 13.5618C17.8592 13.1069 17.9091 12.6285 17.9472 12.1413C17.9854 11.6306 18.0118 11.1786 18.0323 10.7589C18.0705 9.80208 18.1057 8.78657 18.1439 7.71236C18.1791 6.67924 18.0969 5.53458 17.8973 4.31069C17.7212 3.27169 17.8944 2.44402 18.4139 1.85409C18.9187 1.27883 19.7611 1 20.9879 1H21.1229C21.8537 1.02348 22.4172 1.17023 22.8487 1.44906C23.3007 1.74256 23.6177 2.18281 23.7938 2.761C23.9522 3.27756 24.011 3.92327 23.9699 4.67756C23.9317 5.39077 23.8348 6.24192 23.6822 7.21634C23.5883 7.80334 23.4621 8.49307 23.3124 9.26791C23.1598 10.0516 22.9778 10.8763 22.7694 11.7216C22.5611 12.5786 22.3351 13.4474 22.1032 14.3044C21.8655 15.179 21.6043 16.0096 21.3284 16.7727C21.0495 17.5417 20.756 18.2344 20.4567 18.8331C20.1367 19.4729 19.8139 19.9513 19.4705 20.2947C19.1682 20.597 18.816 20.8142 18.4198 20.9434C18.0529 21.0608 17.6713 21.1253 17.2869 21.1371C17.2428 21.1341 17.1988 21.1341 17.1577 21.1341Z" fill="#FFB620"/>
<path d="M20.9822 1.51066C21.0233 1.51066 21.0673 1.51066 21.1114 1.51066C21.7336 1.52827 22.2178 1.65154 22.5671 1.87753C22.9164 2.10353 23.16 2.44692 23.3009 2.90772C23.4417 3.36851 23.4946 3.94671 23.4564 4.64524C23.4183 5.34084 23.3243 6.17144 23.1747 7.13119C23.0807 7.71526 22.9575 8.39325 22.8078 9.16515C22.6552 9.93706 22.479 10.7471 22.2707 11.5953C22.0623 12.4436 21.8422 13.3006 21.6074 14.1664C21.3726 15.0322 21.1172 15.8423 20.8443 16.5966C20.5713 17.3509 20.2895 18.0171 19.996 18.6012C19.7025 19.1853 19.4061 19.6284 19.1067 19.9278C18.8631 20.1714 18.5784 20.3475 18.2585 20.4502C17.9386 20.553 17.6099 20.6087 17.2694 20.6205C17.2313 20.6205 17.196 20.6234 17.1579 20.6234C16.8585 20.6234 16.5709 20.5911 16.295 20.5236C15.9839 20.4473 15.7256 20.3446 15.5172 20.2125C14.9332 19.8368 14.4577 19.3555 14.0908 18.7714C13.7239 18.1874 13.3981 17.3773 13.1164 16.3412C12.8346 15.041 12.5881 13.8934 12.3826 12.8955C12.1742 11.8976 11.9776 10.9937 11.7898 10.1836C11.6019 9.37354 11.3994 8.62511 11.1822 7.93832C10.965 7.25153 10.7067 6.56767 10.4044 5.88968C10.1403 5.34377 9.94365 4.87711 9.81158 4.49262C9.6795 4.1052 9.60905 3.77355 9.60025 3.48885C9.59144 3.20709 9.65601 2.94881 9.79689 2.71107C9.93777 2.47627 10.1491 2.24441 10.4338 2.01841C10.6422 1.84818 10.8858 1.73078 11.1676 1.66621C11.4493 1.59871 11.7369 1.56642 12.0275 1.56642C12.3181 1.56642 12.5969 1.58403 12.861 1.62219C13.1252 1.66034 13.3424 1.6985 13.5097 1.73665C13.7738 1.79242 13.991 1.91569 14.1583 2.10353C14.3286 2.29137 14.4636 2.51443 14.5692 2.76684C14.6719 3.02218 14.7483 3.30394 14.7952 3.61505C14.8422 3.92617 14.8745 4.2226 14.895 4.50436C14.9332 5.29388 14.9948 6.09513 15.0799 6.9052C15.165 7.71526 15.2501 8.46662 15.3353 9.16515C15.4204 9.86075 15.4937 10.4771 15.5612 11.0142C15.6258 11.5513 15.6787 11.9505 15.7168 12.2146C15.8283 13.1186 15.9663 13.8817 16.1277 14.5039C16.2862 15.1261 16.4711 15.5781 16.6795 15.8599C16.8849 16.1035 17.0757 16.2326 17.243 16.2415C17.2489 16.2415 17.2518 16.2415 17.2577 16.2415C17.422 16.2415 17.5981 16.0859 17.7801 15.7748C17.8916 15.5664 17.9914 15.2758 18.0765 14.9002C18.1617 14.5245 18.235 14.0989 18.3025 13.6293C18.3671 13.1597 18.4199 12.6725 18.4581 12.1735C18.4963 11.6746 18.5227 11.2079 18.5432 10.7765C18.5814 9.81672 18.6195 8.79828 18.6548 7.727C18.6929 6.65279 18.6078 5.48465 18.3994 4.22554C18.2497 3.33916 18.3818 2.66118 18.7956 2.19158C19.1948 1.73665 19.9227 1.51066 20.9822 1.51066ZM20.9822 0.483404C19.5998 0.483404 18.6313 0.82093 18.0237 1.51066C17.3956 2.22093 17.1814 3.19241 17.3868 4.39577C17.5805 5.57857 17.6627 6.68801 17.6275 7.68884C17.5893 8.76012 17.5512 9.77563 17.516 10.7354C17.4984 11.1433 17.469 11.6041 17.4338 12.0972C17.3986 12.5756 17.3487 13.0423 17.2841 13.4855C17.2401 13.7907 17.1931 14.0754 17.1432 14.3337C17.1344 14.3073 17.1285 14.2779 17.1197 14.2486C16.97 13.6733 16.8409 12.9454 16.7352 12.0884V12.0796V12.0708C16.6971 11.8125 16.6472 11.4163 16.5826 10.8909C16.5269 10.4301 16.4623 9.91064 16.3919 9.33245L16.3566 9.04188C16.2745 8.35509 16.1893 7.60079 16.1042 6.79954C16.0221 6.01002 15.9604 5.22344 15.9252 4.4574V4.4486V4.43979C15.9046 4.13162 15.8694 3.8029 15.8166 3.46537C15.7579 3.07501 15.6581 2.71107 15.526 2.38529C15.3763 2.01841 15.1768 1.69556 14.9273 1.41967C14.6103 1.06747 14.2082 0.83854 13.7298 0.735815C13.5449 0.694725 13.3072 0.653635 13.0107 0.60961C12.7025 0.565585 12.3738 0.542104 12.0334 0.542104C11.6636 0.542104 11.2937 0.583194 10.9386 0.668309C10.5042 0.768099 10.1168 0.95594 9.78809 1.22596C9.42122 1.51946 9.12478 1.84525 8.92226 2.18571C8.67866 2.59367 8.56126 3.04273 8.57887 3.52407C8.59061 3.91149 8.67866 4.33707 8.84595 4.82428C8.98977 5.24985 9.19816 5.74 9.47992 6.32113C9.76168 6.95803 10.0082 7.60373 10.2078 8.24649C10.4162 8.90687 10.6128 9.63769 10.7948 10.4155C10.9826 11.2255 11.1793 12.1295 11.3818 13.1039C11.5873 14.096 11.8279 15.2259 12.1185 16.5584L12.1244 16.5848L12.1302 16.6113C12.4413 17.7559 12.8024 18.6423 13.225 19.3173C13.6711 20.0247 14.2552 20.6175 14.9625 21.0725C15.2707 21.2691 15.6346 21.4159 16.0543 21.5186C16.4095 21.6037 16.7822 21.6477 17.1608 21.6477C17.2078 21.6477 17.2547 21.6477 17.3017 21.6448C17.7361 21.6331 18.1646 21.5597 18.5784 21.4247C19.0539 21.2691 19.4765 21.0108 19.8376 20.6498C20.222 20.2653 20.5742 19.7458 20.9206 19.0561C21.2287 18.4368 21.531 17.7266 21.8157 16.94C22.0975 16.1622 22.3617 15.3169 22.6023 14.4306C22.8371 13.5677 23.0631 12.693 23.2715 11.836C23.4799 10.9849 23.6648 10.1513 23.8174 9.35886C23.97 8.57815 24.0933 7.88255 24.1902 7.29262C24.3457 6.30058 24.4455 5.42889 24.4837 4.69807C24.5277 3.87334 24.4631 3.18654 24.2841 2.60541C24.0698 1.90982 23.6824 1.37271 23.1277 1.01171C22.6141 0.68005 21.9654 0.503949 21.1466 0.480469C21.0791 0.483404 21.0321 0.483404 20.9822 0.483404Z" fill="white"/>
<path d="M28.8658 21.1224C28.5077 21.1224 28.1291 21.0901 27.7417 21.0255C27.1283 20.9228 26.6675 20.5941 26.4062 20.0717C26.1773 19.6167 26.0746 19.1589 26.0981 18.7128C26.1186 18.3429 26.1656 17.8645 26.2448 17.2863C26.3182 16.7346 26.3886 16.0683 26.4532 15.3052C26.5178 14.5509 26.5501 13.6851 26.5501 12.7371C26.5501 11.7949 26.4855 10.7442 26.3564 9.61717C26.3006 9.13876 26.2243 8.5635 26.1333 7.90899C26.0394 7.24862 25.9572 6.58237 25.8897 5.92493C25.8222 5.26455 25.7781 4.65114 25.7605 4.09642C25.74 3.48007 25.787 3.01927 25.9044 2.69055C26.0218 2.3589 26.2448 2.02137 26.5677 1.68678C26.9257 1.31403 27.4863 1.09097 28.2318 1.02347C28.4138 1.01173 28.5723 1.00586 28.722 1.00586C29.8461 1.00586 30.6356 1.29936 31.0641 1.87756L31.0846 1.90691C31.293 2.23269 31.4339 2.63185 31.5014 3.09852C31.563 3.52116 31.5836 3.97902 31.5631 4.4633C31.5454 4.90942 31.5161 5.39076 31.4779 5.89264C31.4398 6.37986 31.4134 6.84946 31.3958 7.28677C31.3576 8.19075 31.34 9.17692 31.34 10.2188C31.34 11.2549 31.3488 12.3497 31.3693 13.4738C31.3693 14.096 31.3781 14.5861 31.3958 14.9383C31.4134 15.2905 31.4368 15.587 31.4633 15.8247C31.4897 16.0654 31.519 16.2826 31.5454 16.4763C31.5748 16.6759 31.6071 16.9165 31.6452 17.2012L31.6482 17.2364C31.6658 17.5153 31.6892 17.8293 31.7186 18.1727C31.7479 18.5543 31.745 18.9211 31.701 19.2645C31.657 19.6373 31.5572 19.9719 31.4075 20.2595C31.2138 20.6322 30.8792 20.8759 30.4448 20.9639C29.9987 21.0431 29.5643 21.093 29.1387 21.1136C29.0448 21.1195 28.9568 21.1224 28.8658 21.1224Z" fill="#FFB620"/>
<path d="M28.722 1.52237C29.6788 1.52237 30.3215 1.7425 30.6503 2.18568C30.8205 2.44983 30.932 2.77855 30.9878 3.17478C31.0435 3.571 31.0641 3.99365 31.0435 4.44564C31.0259 4.89763 30.9966 5.36723 30.9584 5.85737C30.9203 6.34752 30.8909 6.81712 30.8733 7.26911C30.8352 8.1907 30.8176 9.17687 30.8176 10.2217C30.8176 11.2666 30.8264 12.3555 30.8469 13.4825C30.8469 14.1047 30.8557 14.5978 30.8762 14.9647C30.8939 15.3316 30.9173 15.6368 30.9467 15.8834C30.976 16.127 31.0025 16.35 31.0318 16.5467C31.0612 16.7433 31.0934 16.984 31.1316 17.2657C31.1492 17.5475 31.1727 17.8645 31.202 18.2108C31.2314 18.5601 31.2255 18.8888 31.1874 19.1999C31.1492 19.511 31.07 19.784 30.9467 20.0188C30.8234 20.2536 30.6209 20.4003 30.3392 20.4561C29.9253 20.5324 29.5144 20.5794 29.1094 20.597C29.0301 20.5999 28.948 20.6028 28.8658 20.6028C28.5341 20.6028 28.1878 20.5735 27.8238 20.5119C27.3719 20.4355 27.0519 20.2096 26.8641 19.8339C26.6763 19.4582 26.5911 19.0913 26.6088 18.7332C26.6264 18.3752 26.6733 17.9144 26.7496 17.3479C26.8259 16.7844 26.8964 16.1152 26.961 15.3433C27.0255 14.5714 27.0607 13.6997 27.0607 12.7312C27.0607 11.7626 26.9932 10.7031 26.8641 9.55255C26.8083 9.0624 26.732 8.49007 26.6381 7.8297C26.5442 7.17226 26.4649 6.51775 26.3974 5.86618C26.3299 5.21754 26.2888 4.6188 26.2712 4.07289C26.2536 3.52698 26.2888 3.12195 26.3857 2.8578C26.4796 2.59365 26.6616 2.32069 26.9375 2.03893C27.2104 1.75717 27.6566 1.58694 28.2788 1.53118C28.4314 1.52824 28.5811 1.52237 28.722 1.52237ZM28.722 0.495117C28.5605 0.495117 28.3874 0.500988 28.2142 0.512728H28.1995H28.1848C27.3132 0.591973 26.644 0.867864 26.1978 1.33159C25.8251 1.71902 25.561 2.11818 25.4171 2.52027C25.2763 2.91356 25.2205 3.42132 25.244 4.11398C25.2645 4.68044 25.3085 5.30559 25.376 5.97477C25.4436 6.63515 25.5257 7.3102 25.6197 7.97938C25.7106 8.62508 25.787 9.19448 25.8427 9.67582C25.9689 10.7823 26.0335 11.8096 26.0335 12.7341C26.0335 13.6704 26.0012 14.5215 25.9396 15.2582C25.875 16.0125 25.8046 16.6699 25.7341 17.2158C25.6549 17.8117 25.605 18.293 25.5844 18.6804C25.5551 19.2146 25.6784 19.7605 25.9454 20.2947C26.283 20.9697 26.8729 21.3953 27.6566 21.5274C28.0733 21.5978 28.4784 21.6301 28.8658 21.6301C28.9626 21.6301 29.0595 21.6272 29.1563 21.6242C29.6025 21.6037 30.0633 21.5509 30.5211 21.4687L30.5299 21.4657L30.5387 21.4628C31.1228 21.3454 31.5895 21.002 31.8536 20.4913C32.0326 20.1479 32.15 19.7546 32.2029 19.3232C32.2498 18.9446 32.2557 18.5425 32.2205 18.1286C32.1941 17.7852 32.1706 17.4771 32.15 17.1982L32.1471 17.163L32.1412 17.1278C32.1031 16.8431 32.0708 16.5995 32.0415 16.3999C32.015 16.2091 31.9886 15.9978 31.9593 15.763C31.9328 15.5341 31.9123 15.2465 31.8947 14.9119C31.8771 14.5655 31.8683 14.0842 31.8683 13.4796V13.4708V13.462C31.8507 12.3437 31.8389 11.2519 31.8389 10.2159C31.8389 9.18567 31.8565 8.20538 31.8947 7.30727C31.9123 6.87582 31.9387 6.41209 31.9769 5.93368C32.015 5.42886 32.0444 4.94165 32.0649 4.48379C32.0855 3.96723 32.0649 3.47708 31.9974 3.02509C31.9211 2.48505 31.7538 2.01545 31.5073 1.62803L31.4897 1.59868L31.4691 1.57227C30.9438 0.859058 30.0163 0.495117 28.722 0.495117Z" fill="white"/>
</svg>
