<svg width="272" height="84" viewBox="0 0 272 84" fill="none" xmlns="http://www.w3.org/2000/svg">
<g clip-path="url(#clip0_2903_23912)">
<path d="M136.519 4.1958C90.4569 4.1958 48.7175 9.65655 8.84899 35.6962C7.59827 36.5519 6.55587 37.6778 5.79883 38.9906C5.04179 40.3034 4.58948 41.7695 4.47533 43.2806C4.39865 43.9082 4.44863 44.5448 4.62233 45.1528C4.79603 45.7607 5.08991 46.3276 5.48658 46.82L30.3381 74.9328C30.9136 75.5548 31.6145 76.0478 32.3946 76.379C33.1747 76.7102 34.0161 76.8721 34.8634 76.8541C36.5572 76.8541 39.5657 77.7895 41.0826 76.8541C73.569 57.8426 115.662 56.0982 136.519 56.0982C171.256 56.0982 197.725 60.3708 231.754 77.9412C233.177 78.8654 234.795 79.4453 236.481 79.6351C237.335 79.6518 238.182 79.4869 238.966 79.1513C239.751 78.8157 240.455 78.317 241.032 77.6884L254.962 61.8371L265.681 49.6262C266.079 49.1248 266.374 48.5491 266.547 47.9328C266.721 47.3165 266.77 46.6718 266.693 46.0363C266.563 44.5291 266.104 43.0688 265.348 41.7583C264.592 40.4479 263.558 39.3192 262.319 38.4519C223.31 11.6791 182.38 4.1958 136.519 4.1958Z" fill="#0160AE"/>
<path d="M79.333 20.2242C73.6953 21.7663 73.7458 30.185 75.1616 36.6064C76.9818 44.924 81.3808 50.233 86.614 49.0195C87.7578 48.5402 88.7613 47.7785 89.5306 46.8058C90.3 45.8331 90.81 44.6811 91.0129 43.4577C91.4602 41.1618 91.4602 38.8012 91.0129 36.5053C91.0129 36.2272 90.3556 36.0755 89.7489 36.1514L87.7769 36.4042C87.6277 36.4277 87.485 36.4821 87.3579 36.5638C87.2309 36.6456 87.1222 36.7529 87.039 36.879C86.9557 37.0051 86.8997 37.1471 86.8744 37.2961C86.8491 37.445 86.8551 37.5976 86.8921 37.7441C87.0438 38.5531 86.8921 43.0026 85.0213 43.2048C82.4932 43.5335 80.5718 36.3283 80.4201 35.6205C79.7951 33.0661 79.5397 30.4354 79.6616 27.8086C79.6693 27.3617 79.8286 26.9306 80.1134 26.5861C80.3982 26.2416 80.7916 26.0041 81.2291 25.9125C82.5437 25.7102 83.6308 28.9715 83.9595 30.008C84.0471 30.3128 84.24 30.5766 84.5039 30.7525C84.7678 30.9284 85.0855 31.005 85.4005 30.9687H86.0831C86.6898 30.9687 87.6252 30.6653 88.1561 30.5137C88.4367 30.4105 88.6668 30.2032 88.7987 29.9349C88.9305 29.6666 88.9539 29.3578 88.864 29.0726C87.3977 22.7523 82.7965 19.3141 79.333 20.2242Z" fill="white"/>
<path d="M103.173 19.6687C104.134 18.6575 103.628 17.1406 103.173 15.5985C102.996 15.017 102.591 14.5619 102.035 14.6631C100.67 14.9412 96.7515 15.4721 95.4116 15.7502C94.7348 15.8817 94.0511 15.9746 93.3638 16.0282C92.0745 16.0282 90.1278 16.3822 88.8385 16.458C88.6972 16.4755 88.5612 16.5225 88.4394 16.5961C88.3176 16.6697 88.2127 16.7682 88.1316 16.8852C88.0505 17.0021 87.9949 17.1348 87.9686 17.2747C87.9423 17.4145 87.9458 17.5584 87.9789 17.6968C88.2064 19.4159 88.4592 21.1603 88.6868 22.9047C88.6868 23.5115 89.1924 23.9666 89.6222 23.8654L92.1503 23.4357H92.6559C92.9512 23.4198 93.2418 23.5147 93.4709 23.7017C93.7 23.8887 93.8511 24.1544 93.8947 24.4469C94.7543 29.9582 96.17 39.7673 96.979 45.3039C97.0141 45.5795 97.1445 45.8341 97.3477 46.0234C97.5509 46.2128 97.8141 46.325 98.0914 46.3405C98.597 46.3405 100.62 45.9613 100.973 45.9613C101.112 45.9647 101.25 45.9365 101.376 45.8787C101.502 45.8209 101.613 45.7351 101.701 45.6277C101.788 45.5204 101.851 45.3945 101.882 45.2595C101.914 45.1245 101.914 44.9841 101.884 44.8489C100.847 38.5791 99.1785 28.3655 98.0156 22.0957C97.9821 21.9602 97.9786 21.819 98.0052 21.682C98.0319 21.545 98.088 21.4154 98.1699 21.3023C98.2517 21.1893 98.3571 21.0953 98.4789 21.0272C98.6007 20.959 98.7359 20.9181 98.8751 20.9075C100.38 20.7529 101.849 20.3514 103.223 19.7193" fill="white"/>
<path d="M33.3463 35.9996C30.4137 37.112 26.2676 38.5277 25.0035 38.8564C24.87 38.9001 24.7473 38.9718 24.6437 39.0668C24.5402 39.1618 24.4581 39.2778 24.4031 39.4071C24.348 39.5364 24.3212 39.6759 24.3245 39.8164C24.3278 39.9569 24.361 40.095 24.422 40.2216C26.2423 44.4435 32.0064 61.2303 33.1441 64.0618C33.2579 64.3538 33.4761 64.593 33.7564 64.7331C34.0367 64.8733 34.3591 64.9043 34.6609 64.8202C35.6216 64.5169 36.1778 64.0618 37.1891 63.7584C37.3301 63.7201 37.4612 63.6517 37.5733 63.5578C37.6854 63.4639 37.7758 63.3469 37.8382 63.2147C37.9007 63.0826 37.9338 62.9384 37.9352 62.7922C37.9366 62.646 37.9063 62.5013 37.8464 62.368C36.1272 58.4494 31.8294 45.6318 31.2732 44.3171C31.2125 44.1871 31.1802 44.0457 31.1784 43.9022C31.1766 43.7587 31.2053 43.6165 31.2627 43.4849C31.3201 43.3534 31.4048 43.2356 31.5113 43.1393C31.6177 43.0431 31.7434 42.9706 31.88 42.9267C32.7396 42.6739 34.0795 42.4716 34.939 42.1935C35.2378 42.1135 35.5553 42.1435 35.8338 42.2781C36.1122 42.4127 36.333 42.6429 36.4559 42.9267C38.8323 48.4885 41.5122 53.8987 43.8633 59.5112C43.9209 59.649 44.0057 59.7739 44.1126 59.8782C44.2196 59.9826 44.3464 60.0644 44.4856 60.1186C44.6248 60.1729 44.7736 60.1986 44.9229 60.1941C45.0723 60.1896 45.2192 60.1551 45.3549 60.0926C46.0628 59.764 47.3016 59.3089 47.883 58.9803C48.1561 58.8438 48.3661 58.6076 48.4697 58.3205C48.5732 58.0334 48.5623 57.7174 48.4392 57.4381C46.9982 54.1768 42.5487 43.9632 40.0206 38.4519C39.4245 37.2543 38.3963 36.3273 37.1435 35.8581C35.8907 35.3889 34.5066 35.4124 33.2705 35.9238" fill="white"/>
<path d="M56.681 36.9104C55.9791 35.0411 54.7275 33.4281 53.091 32.284C52.2381 31.7366 51.2555 31.4249 50.2431 31.3805C49.2306 31.3361 48.2245 31.5606 47.3269 32.0311L42.9785 33.8767C42.7236 33.9976 42.5257 34.2129 42.4266 34.4771C42.3276 34.7413 42.3351 35.0337 42.4476 35.2924L46.8466 46.6943C47.0488 47.2505 47.4028 48.1859 47.605 48.7673L50.5629 56.9079C50.6058 57.0469 50.6763 57.1759 50.77 57.2872C50.8637 57.3986 50.9788 57.4899 51.1084 57.556C51.2381 57.622 51.3797 57.6613 51.5248 57.6715C51.67 57.6818 51.8157 57.6629 51.9534 57.6158C52.5096 57.4135 53.4703 57.1607 54.0517 57.009L54.6332 56.8573C54.7684 56.8269 54.8954 56.7675 55.0055 56.6833C55.1156 56.5991 55.2062 56.4921 55.271 56.3697C55.3359 56.2472 55.3734 56.1121 55.3812 55.9737C55.3889 55.8354 55.3666 55.6969 55.3158 55.568C54.5068 53.4191 53.6725 51.2702 52.7877 49.1213C52.7315 48.9943 52.7027 48.8569 52.7033 48.718C52.7039 48.5792 52.7338 48.442 52.7911 48.3155C52.8484 48.189 52.9317 48.076 53.0357 47.984C53.1397 47.8919 53.2619 47.8229 53.3944 47.7814L54.4057 47.478C57.4647 46.5426 59.4619 42.8515 56.7568 36.9104H56.681ZM52.8635 39.1352C53.268 40.5256 53.5461 42.4723 50.9674 43.1549C50.6958 43.2433 50.4003 43.2212 50.1449 43.0935C49.8894 42.9658 49.6945 42.7426 49.6022 42.4723C49.1219 41.2335 48.6668 39.9442 48.1865 38.7054C48.0791 38.4607 48.0635 38.1855 48.1424 37.9301C48.2213 37.6748 48.3895 37.4564 48.6163 37.3149C49.029 37.1123 49.4609 36.9514 49.9056 36.8346C51.018 36.5312 52.282 37.2644 52.8635 39.1352Z" fill="white"/>
<path d="M63.2037 25.8624C61.8375 26.2941 60.6291 27.1192 59.7297 28.2345C58.8302 29.3497 58.2799 30.7056 58.1474 32.1322C57.9145 34.9741 58.1972 37.8347 58.9817 40.5761C61.3329 50.6886 66.3133 53.3431 70.2824 52.0538C71.2935 51.7031 72.1819 51.0681 72.8411 50.2251C73.5003 49.382 73.9022 48.3667 73.9988 47.3009C74.8259 43.5471 74.6073 39.6384 73.3668 36.0002C71.1167 28.2641 67.2487 24.6236 63.052 25.8877L63.2037 25.8624ZM67.9566 35.8232C68.6139 38.1997 69.5999 41.7643 67.9566 43.2054C66.3133 44.6464 64.6953 41.9666 63.7093 38.1491C63.1531 35.9244 61.8891 30.5647 64.1391 30.2866C65.656 30.0844 66.8695 32.2333 67.8807 35.8738" fill="white"/>
<path d="M194.918 24.1692C194.956 24.0329 194.965 23.8905 194.946 23.7505C194.926 23.6106 194.878 23.4761 194.805 23.3553C194.731 23.2346 194.634 23.1301 194.519 23.0483C194.404 22.9666 194.273 22.9092 194.135 22.8798C191.834 22.5512 191.05 23.1074 190.873 24.2703C190.14 28.9726 188.775 36.1778 188.067 40.8801C188.019 41.1725 187.867 41.4378 187.64 41.628C187.413 41.8182 187.125 41.9206 186.828 41.9166H185.084C184.95 41.9049 184.82 41.8652 184.703 41.8001C184.585 41.735 184.482 41.646 184.401 41.5387C184.32 41.4315 184.263 41.3085 184.232 41.1776C184.202 41.0468 184.199 40.9109 184.224 40.779C184.502 39.3126 186.904 26.8743 187.663 23.2591C187.701 23.1306 187.71 22.9953 187.689 22.8629C187.669 22.7305 187.619 22.6043 187.544 22.4932C187.47 22.3821 187.371 22.289 187.256 22.2203C187.141 22.1517 187.012 22.1093 186.879 22.0961C186.146 22.0961 185.817 22.0961 185.084 21.8939C184.8 21.9006 184.527 22.0048 184.311 22.1889C184.094 22.373 183.948 22.6259 183.896 22.9051C183.491 25.4332 180.634 38.0739 180.331 39.6919C180.311 39.8276 180.262 39.9576 180.188 40.0734C180.114 40.1893 180.017 40.2884 179.903 40.3646C179.789 40.4408 179.66 40.4922 179.525 40.5157C179.389 40.5391 179.251 40.5341 179.118 40.5009L177.525 40.0458C177.248 39.948 177.016 39.7532 176.872 39.4976C176.728 39.2419 176.682 38.9427 176.741 38.6553C176.741 38.2256 176.893 37.7958 176.994 37.366C177.095 36.9362 179.168 26.8996 180.331 21.818C180.559 20.7815 179.75 19.6691 177.07 19.2899C176.788 19.274 176.51 19.3635 176.29 19.5411C176.071 19.7186 175.925 19.9715 175.882 20.2506C175.3 23.1326 171.761 38.9082 170.825 43.0037C170.745 43.3122 170.739 43.6353 170.807 43.9466C170.876 44.2579 171.017 44.5486 171.219 44.7951C171.421 45.0415 171.678 45.2367 171.97 45.3648C172.262 45.4928 172.58 45.5501 172.898 45.5318L179.118 46.265C179.831 46.3374 180.54 46.4471 181.241 46.5937C184.123 47.1751 187.081 47.8072 190.014 48.3381C190.152 48.3671 190.295 48.3668 190.434 48.3371C190.572 48.3073 190.703 48.2489 190.817 48.1655C190.932 48.0821 191.027 47.9756 191.098 47.8529C191.169 47.7302 191.213 47.594 191.227 47.4532C191.834 43.206 194.337 27.026 194.817 24.3967" fill="white"/>
<path d="M226.773 45.1012C226.975 44.4692 227.279 43.4326 227.456 42.8006C228.492 39.3876 229.554 35.9494 230.565 32.6881C230.616 32.5558 230.637 32.414 230.628 32.2726C230.619 32.1312 230.58 31.9935 230.512 31.8687C230.445 31.7439 230.352 31.6351 230.239 31.5497C230.126 31.4642 229.996 31.4041 229.858 31.3735L227.329 30.9943C227.022 30.9654 226.714 31.0459 226.459 31.2216C226.205 31.3973 226.021 31.6569 225.939 31.955C225.206 34.4831 224.447 37.0112 223.689 39.5393C223.616 39.8395 223.432 40.1007 223.174 40.2698C222.916 40.4389 222.602 40.5031 222.298 40.4495L219.517 39.7921C219.376 39.7508 219.244 39.6795 219.132 39.5832C219.02 39.4868 218.93 39.3676 218.867 39.2335C218.805 39.0994 218.772 38.9536 218.771 38.8057C218.77 38.6579 218.8 38.5115 218.86 38.3764C219.517 36.4045 220.478 33.0168 221.388 30.2358C221.995 28.4409 218.026 27.7077 217.824 28.365C216.281 33.0926 214.689 38.9326 213.197 43.6602C213.02 44.2922 212.666 45.3287 212.439 45.9608C211.554 48.4889 210.669 51.1687 209.759 53.7221C209.702 53.863 209.674 54.0139 209.676 54.1658C209.679 54.3177 209.712 54.4676 209.773 54.6066C209.834 54.7456 209.923 54.871 210.033 54.9753C210.144 55.0795 210.274 55.1606 210.416 55.2137L212.944 56.0227C213.243 56.1033 213.56 56.067 213.833 55.9214C214.105 55.7758 214.312 55.5317 214.411 55.239C215.447 52.3822 216.484 49.5002 217.495 46.6434C217.598 46.3479 217.801 46.0977 218.068 45.9361C218.336 45.7745 218.652 45.7117 218.961 45.7585L220.984 46.2136C221.267 46.3064 221.503 46.5068 221.64 46.7716C221.777 47.0363 221.805 47.3444 221.717 47.6293C221.414 48.8176 221.085 50.0058 220.782 51.194C220.605 51.826 220.175 52.8373 220.048 53.4946C219.92 53.8734 219.884 54.2772 219.943 54.6728C220.001 55.0684 220.152 55.4444 220.384 55.7701C220.616 56.0959 220.922 56.3619 221.277 56.5464C221.632 56.731 222.025 56.8288 222.425 56.8317C222.75 56.8117 223.059 56.68 223.298 56.4589C223.538 56.2379 223.694 55.9409 223.739 55.6182C224.751 52.1294 225.787 48.59 226.773 45.0759" fill="white"/>
<path d="M238.301 60.396C241.268 57.5259 243.46 53.9513 244.672 50.0054C247.529 41.9154 246.492 36.5558 242.144 35.3423C240.657 35.0248 239.111 35.1261 237.679 35.6349C236.246 36.1437 234.982 37.0401 234.029 38.2243C232.073 40.5902 230.558 43.2874 229.554 46.1879C225.307 56.5785 228.012 61.6095 232.082 62.6207C233.208 62.8343 234.37 62.7403 235.447 62.3488C236.523 61.9573 237.475 61.2827 238.2 60.396H238.301ZM234.105 56.6797C232.032 57.0842 232.057 53.8229 233.599 49.8284C234.484 47.5278 236.709 42.0924 238.655 43.0278C240.071 43.6851 239.793 46.2638 238.402 50.056C237.492 52.5841 236.152 56.2499 233.978 56.6797" fill="white"/>
<path d="M110.935 16.8873C109.591 17.1348 108.352 17.7767 107.375 18.7313C106.398 19.6858 105.727 20.9097 105.449 22.2469C104.833 25.0105 104.722 27.8625 105.12 30.6656C105.98 41.1068 110.328 44.4692 114.272 43.8624C116.32 43.5338 117.482 42.2191 118.418 39.7921C119.685 36.1914 119.99 32.3221 119.303 28.5673C118.216 20.5531 115.055 16.3817 110.935 16.8873ZM114.221 27.4802C114.525 30.0083 114.98 33.5982 113.336 34.7359C111.693 35.8735 110.404 32.9915 109.999 29.0223C109.772 26.747 109.291 21.2863 111.44 21.4379C112.907 21.4379 113.766 23.7891 114.221 27.556" fill="white"/>
<path d="M210.442 41.2339C210.568 40.5766 210.821 39.5401 210.998 38.8827C212.035 34.8125 213.122 30.7169 214.158 26.6466C214.217 26.3626 214.169 26.0671 214.025 25.8156C213.881 25.5642 213.649 25.3742 213.375 25.2814L211.302 24.8011C210.974 24.7489 210.638 24.7872 210.331 24.912C210.023 25.0368 209.756 25.2432 209.557 25.509C207.408 28.5427 205.259 31.5765 203.06 34.5849C202.584 35.2337 202.145 35.909 201.745 36.6074C201.391 37.2142 201.012 37.8209 200.683 38.4277C200.355 39.0344 200.203 38.9333 200.405 38.3013C201.467 34.7619 202.933 29.7309 203.919 26.141C204.905 22.5511 202.352 22.9808 201.391 22.6775H201.214C201.068 22.6402 200.916 22.6331 200.767 22.6566C200.618 22.6801 200.475 22.7337 200.347 22.8141C200.219 22.8945 200.109 23.0001 200.024 23.1244C199.938 23.2486 199.879 23.389 199.849 23.537C199.065 26.1916 198.332 28.8966 197.599 31.5512L196.942 33.8518C195.577 38.4782 194.262 43.1806 192.922 47.807C192.877 47.9532 192.863 48.1073 192.881 48.2593C192.899 48.4113 192.949 48.5577 193.028 48.689C193.107 48.8203 193.212 48.9334 193.338 49.021C193.463 49.1087 193.606 49.1688 193.756 49.1975L195.829 49.6526C196.178 49.699 196.532 49.656 196.86 49.5278C197.187 49.3995 197.476 49.1902 197.7 48.9194C199.546 46.3913 201.467 43.8632 203.338 41.335L204.703 39.3631L206.321 36.835C206.7 36.2788 206.852 36.3546 206.7 37.0119C205.815 40.6272 204.349 45.6581 203.641 49.3239C202.933 52.9897 205.891 52.3829 206.726 52.5599C207.04 52.6126 207.362 52.5421 207.626 52.3632C207.89 52.1843 208.074 51.9107 208.141 51.5992C208.875 48.1862 209.684 44.7227 210.442 41.335" fill="white"/>
<path d="M132.879 28.1871C132.702 28.1871 132.651 27.732 132.879 27.6815C135.407 26.6955 135.129 22.9792 135.129 22.9792C135.129 22.9792 135.407 17.1898 135.508 15.2431C135.508 14.1307 130.199 14.2824 130.704 18.024C130.942 20.1744 130.788 22.3501 130.249 24.4455C130.04 24.9421 129.688 25.3656 129.238 25.6625C128.788 25.9594 128.26 26.1165 127.721 26.114C127.721 26.114 127.721 22.7264 127.595 19.7685C127.479 18.4893 126.866 17.3066 125.887 16.4746C124.909 15.6426 123.643 15.2276 122.362 15.319C122.216 15.3315 122.075 15.3731 121.946 15.4414C121.817 15.5097 121.703 15.6033 121.611 15.7165C121.519 15.8298 121.451 15.9604 121.41 16.1005C121.37 16.2407 121.358 16.3876 121.376 16.5325C121.679 20.5775 122.033 24.6983 122.362 28.7686C122.362 29.4259 122.362 30.4877 122.362 31.145C122.362 34.6591 122.362 38.1985 122.488 41.6873C122.482 41.836 122.51 41.984 122.568 42.1209C122.627 42.2577 122.715 42.38 122.826 42.479C122.937 42.578 123.068 42.6513 123.211 42.6936C123.354 42.7359 123.504 42.7462 123.651 42.7238C124.536 42.5721 127.291 42.5721 127.468 39.2856C127.671 35.5187 127.721 30.8669 127.721 30.8669C127.721 30.8669 130.451 30.5383 130.856 32.3332C131.134 33.6731 131.185 36.5299 131.488 38.1732C131.943 40.7013 132.449 42.2182 134.446 42.3952C135.409 42.5475 136.39 42.5475 137.353 42.3952C137.96 41.7631 136.747 36.8586 136.671 34.8108C136.665 33.4805 136.309 32.1751 135.639 31.0258C134.968 29.8765 134.008 28.9237 132.853 28.263" fill="white"/>
<path d="M149.387 29.0484C149.344 29.0277 149.308 28.9954 149.283 28.9552C149.258 28.9149 149.244 28.8684 149.244 28.8209C149.244 28.7734 149.258 28.7269 149.283 28.6866C149.308 28.6464 149.344 28.6141 149.387 28.5934C150.409 27.7905 151.2 26.7312 151.679 25.5233C152.159 24.3155 152.31 23.0021 152.117 21.7169C151.687 17.6972 149.513 15.3207 145.569 15.6241C144.154 15.6241 142.738 15.9022 141.297 15.9275C141.016 15.9464 140.742 16.0215 140.492 16.1483C140.241 16.2751 140.018 16.451 139.836 16.6656C139.655 16.8802 139.518 17.1291 139.435 17.3975C139.351 17.6659 139.322 17.9483 139.35 18.2281C139.679 23.2843 139.552 28.3406 139.578 33.3968C139.578 34.0288 139.578 35.0654 139.578 35.6974C139.578 37.1637 139.578 38.6806 139.401 40.1469C139.224 41.6132 139.653 42.675 141.246 42.675C142.839 42.675 144.811 42.9279 146.555 43.029C149.083 43.2059 153.912 43.029 153.558 35.8491C153.646 34.4437 153.294 33.0457 152.551 31.8496C151.808 30.6534 150.711 29.7185 149.412 29.1748L149.387 29.0484ZM143.8 25.2815C143.8 23.8911 143.8 22.5006 143.8 21.1101C143.782 20.8289 143.867 20.5508 144.039 20.3276C144.211 20.1043 144.459 19.9512 144.735 19.8966C145.214 19.8458 145.697 19.8458 146.176 19.8966C147.364 19.8966 148.375 21.1607 148.249 23.1832C148.249 24.6748 147.769 26.672 144.963 26.4192C144.669 26.4007 144.393 26.2741 144.188 26.064C143.982 25.8539 143.862 25.5751 143.85 25.2815H143.8ZM145.215 38.6553C144.927 38.6235 144.662 38.4827 144.474 38.2619C144.286 38.041 144.189 37.7567 144.204 37.4671C144.204 36.0766 144.204 34.6862 144.204 33.2957C144.199 33.0229 144.29 32.757 144.461 32.5444C144.632 32.3318 144.872 32.1861 145.139 32.1328C145.593 32.0844 146.051 32.0844 146.505 32.1328C147.642 32.2844 148.552 33.4727 148.35 35.4952C148.224 36.9868 147.718 38.9587 145.089 38.6048" fill="white"/>
<path d="M166.856 18.3796C166.401 16.9386 162.128 16.8375 161.496 18.1015C157.982 25.2654 155.643 32.9479 154.569 40.8547C154.241 43.3828 154.569 43.6609 155.631 43.6609C156.333 43.6822 157.034 43.7412 157.73 43.8379C158.041 43.847 158.347 43.7491 158.595 43.5606C158.843 43.372 159.02 43.104 159.095 42.8013C159.398 41.6131 159.575 40.2732 159.878 39.1355C159.928 38.8431 160.085 38.5797 160.319 38.3973C160.553 38.2148 160.847 38.1265 161.142 38.1496L162.887 38.3518C163.215 38.3882 163.524 38.524 163.772 38.7409C164.021 38.9578 164.197 39.2454 164.277 39.5653C164.277 40.7535 164.075 42.0935 164.277 43.2817C164.299 43.5946 164.43 43.8899 164.647 44.1163C164.864 44.3427 165.154 44.4857 165.466 44.5205L167.994 44.748C168.6 44.748 168.904 44.3182 169.005 43.6862C170.308 35.2182 169.624 26.5633 167.008 18.4049L166.856 18.3796ZM161.951 32.7394C161.816 32.7124 161.688 32.6587 161.574 32.5815C161.46 32.5043 161.362 32.4051 161.287 32.2898C161.212 32.1744 161.16 32.0452 161.135 31.9097C161.11 31.7742 161.113 31.6351 161.142 31.5006C161.262 30.1886 161.516 28.8924 161.901 27.6326C162.28 26.3685 162.988 24.8516 163.418 23.5623C163.569 23.1325 164.252 22.905 164.404 23.8404C164.545 24.5232 164.63 25.2166 164.657 25.9134C164.893 27.9967 164.893 30.1 164.657 32.1832C164.657 32.7899 163.848 33.068 161.901 32.7394" fill="white"/>
<path d="M185.135 60.067L182.936 59.3591C182.63 59.2614 182.353 59.0906 182.128 58.8615C181.903 58.6325 181.738 58.352 181.646 58.0445L180.989 55.845C180.883 55.4927 180.68 55.1772 180.403 54.9341C180.127 54.6911 179.788 54.5302 179.425 54.4697C179.062 54.4092 178.69 54.4515 178.349 54.5918C178.009 54.7321 177.715 54.9648 177.5 55.2636L176.16 57.1091C175.973 57.3699 175.727 57.5819 175.441 57.7271C175.154 57.8723 174.838 57.9465 174.517 57.9434H172.216C171.85 57.9386 171.49 58.036 171.176 58.2245C170.862 58.413 170.606 58.6853 170.438 59.0107C170.27 59.3362 170.196 59.702 170.225 60.0672C170.253 60.4324 170.382 60.7825 170.598 61.0782L171.963 62.9238C172.152 63.1829 172.274 63.4846 172.318 63.8022C172.362 64.1197 172.327 64.4433 172.216 64.744L171.458 66.9182C171.329 67.2711 171.304 67.6533 171.385 68.02C171.466 68.3866 171.651 68.7225 171.916 68.9881C172.182 69.2536 172.518 69.4378 172.884 69.519C173.251 69.6002 173.633 69.575 173.986 69.4463L176.185 68.7385C176.485 68.6376 176.804 68.6101 177.117 68.6585C177.429 68.7069 177.725 68.8297 177.98 69.0166L179.826 70.4323C180.118 70.653 180.466 70.7879 180.831 70.822C181.195 70.856 181.562 70.7879 181.89 70.6251C182.218 70.4624 182.495 70.2115 182.688 69.9006C182.882 69.5897 182.985 69.2311 182.986 68.8649V66.5643C182.992 66.246 183.073 65.9335 183.222 65.6524C183.372 65.3712 183.585 65.1293 183.846 64.9463L185.716 63.6569C186.046 63.4513 186.308 63.1529 186.468 62.7992C186.629 62.4454 186.681 62.0521 186.619 61.6687C186.557 61.2852 186.383 60.9286 186.119 60.6436C185.855 60.3587 185.513 60.1581 185.135 60.067Z" fill="#FFB620"/>
<path d="M161.8 54.5816L160.283 50.84C160.153 50.54 159.943 50.2808 159.677 50.0898C159.412 49.8988 159.099 49.7829 158.773 49.7545C158.447 49.726 158.12 49.786 157.825 49.9281C157.53 50.0701 157.279 50.2891 157.098 50.5619L155.05 54.0254C154.903 54.2832 154.694 54.5009 154.443 54.6596C154.192 54.8182 153.905 54.9129 153.609 54.9355L149.615 55.2136C149.273 55.2352 148.945 55.3525 148.667 55.5521C148.389 55.7517 148.174 56.0255 148.044 56.3421C147.915 56.6588 147.877 57.0055 147.936 57.3425C147.995 57.6794 148.147 57.993 148.376 58.2474L151.03 61.2306C151.227 61.4511 151.368 61.715 151.443 62.0006C151.517 62.2862 151.523 62.5855 151.46 62.8738L150.474 66.7672C150.394 67.1005 150.409 67.4495 150.516 67.7751C150.624 68.1007 150.819 68.3899 151.082 68.6104C151.344 68.8309 151.663 68.9739 152.002 69.0234C152.342 69.0729 152.688 69.027 153.002 68.8908L156.744 67.3233C157.01 67.2006 157.303 67.1477 157.595 67.1698C157.887 67.192 158.168 67.2883 158.413 67.4498L161.851 69.5734C162.139 69.7548 162.472 69.8517 162.813 69.853C163.154 69.8544 163.488 69.7602 163.777 69.5811C164.067 69.402 164.301 69.1452 164.452 68.84C164.603 68.5347 164.665 68.1932 164.632 67.8543L164.227 63.8598C164.198 63.5669 164.24 63.2713 164.35 62.9983C164.46 62.7253 164.635 62.4831 164.859 62.2924L167.944 59.7642C168.208 59.5462 168.405 59.2579 168.513 58.9325C168.621 58.6072 168.635 58.258 168.553 57.9252C168.471 57.5924 168.297 57.2895 168.05 57.0513C167.804 56.8131 167.495 56.6493 167.16 56.5788L163.165 55.6181C162.87 55.5729 162.59 55.4544 162.351 55.2733C162.113 55.0923 161.923 54.8545 161.8 54.5816Z" fill="#FFB620"/>
<path d="M145.544 57.7927L141.575 61.7113C141.375 61.8989 141.226 62.1342 141.142 62.3951C141.058 62.656 141.042 62.9339 141.094 63.2029L142.03 68.7648C142.102 69.0874 142.077 69.4243 141.957 69.7326C141.838 70.0408 141.629 70.3067 141.358 70.4963C141.088 70.6859 140.766 70.7908 140.436 70.7976C140.105 70.8044 139.78 70.7128 139.502 70.5344L134.445 68.0063C134.203 67.8821 133.934 67.8173 133.662 67.8173C133.389 67.8173 133.121 67.8821 132.878 68.0063L127.822 70.5344C127.542 70.7004 127.22 70.7821 126.894 70.7698C126.569 70.7574 126.254 70.6515 125.987 70.4648C125.72 70.2781 125.513 70.0184 125.39 69.7169C125.267 69.4154 125.234 69.0848 125.294 68.7648L126.406 63.2029C126.459 62.9339 126.442 62.656 126.358 62.3951C126.274 62.1342 126.126 61.8989 125.926 61.7113L121.881 57.7927C121.656 57.572 121.498 57.2933 121.423 56.9877C121.349 56.6821 121.361 56.3618 121.458 56.0626C121.555 55.7634 121.733 55.4971 121.973 55.2937C122.213 55.0902 122.505 54.9576 122.816 54.9106L128.428 54.1016C128.697 54.0537 128.951 53.9443 129.17 53.782C129.389 53.6198 129.568 53.409 129.693 53.1662L132.221 48.11C132.361 47.8276 132.577 47.5901 132.845 47.424C133.113 47.2579 133.422 47.1699 133.738 47.1699C134.053 47.1699 134.362 47.2579 134.63 47.424C134.898 47.5901 135.114 47.8276 135.254 48.11L137.783 53.1662C137.907 53.409 138.086 53.6198 138.305 53.782C138.524 53.9443 138.778 54.0537 139.047 54.1016L144.659 54.9106C144.966 54.9651 145.252 55.1032 145.485 55.3098C145.719 55.5163 145.891 55.7833 145.982 56.0813C146.074 56.3792 146.081 56.6967 146.004 56.9987C145.927 57.3006 145.767 57.5754 145.544 57.7927Z" fill="#FFB620"/>
<path d="M81.3299 63.5566L83.2007 64.846C83.4612 65.029 83.6749 65.2709 83.8242 65.5521C83.9736 65.8332 84.0545 66.1457 84.0603 66.464V68.7646C84.0615 69.1308 84.1646 69.4894 84.3581 69.8003C84.5517 70.1113 84.8279 70.3621 85.156 70.5248C85.4841 70.6876 85.851 70.7557 86.2156 70.7217C86.5803 70.6876 86.9282 70.5527 87.2205 70.332L89.066 68.9163C89.321 68.7294 89.6172 68.6066 89.9295 68.5582C90.2419 68.5098 90.5614 68.5373 90.861 68.6382L93.0604 69.346C93.4133 69.4747 93.7955 69.4999 94.1622 69.4187C94.5289 69.3375 94.8647 69.1533 95.1303 68.8878C95.3958 68.6222 95.58 68.2864 95.6612 67.9197C95.7424 67.553 95.7172 67.1708 95.5886 66.8179L94.8301 64.6437C94.7191 64.343 94.6841 64.0194 94.7282 63.7019C94.7723 63.3843 94.8942 63.0826 95.0829 62.8235L96.4481 60.978C96.6642 60.6822 96.7935 60.3321 96.8218 59.9669C96.85 59.6017 96.776 59.2359 96.608 58.9104C96.44 58.585 96.1847 58.3127 95.8707 58.1242C95.5567 57.9357 95.1963 57.8383 94.8301 57.8431H92.5295C92.2087 57.8462 91.8919 57.772 91.6059 57.6268C91.3199 57.4816 91.073 57.2696 90.8862 57.0088L89.521 55.1633C89.3099 54.8628 89.018 54.6282 88.6791 54.4865C88.3403 54.3449 87.9683 54.302 87.6061 54.3628C87.2439 54.4236 86.9063 54.5856 86.6323 54.8302C86.3582 55.0747 86.159 55.3918 86.0575 55.7447L85.4002 57.9442C85.3047 58.2497 85.138 58.5282 84.9138 58.7568C84.6897 58.9853 84.4145 59.1574 84.1109 59.2588L81.9114 59.9667C81.5337 60.0578 81.1914 60.2584 80.9274 60.5434C80.6633 60.8283 80.4893 61.1849 80.4272 61.5684C80.3651 61.9518 80.4177 62.3451 80.5782 62.6989C80.7388 63.0526 81.0003 63.351 81.3299 63.5566Z" fill="#FFB620"/>
<path d="M103.805 56.1494L99.8612 57.0089C99.5314 57.0829 99.2287 57.2473 98.9871 57.4836C98.7454 57.7199 98.5743 58.0188 98.493 58.3469C98.4116 58.6749 98.4232 59.0191 98.5264 59.341C98.6297 59.6628 98.8205 59.9496 99.0775 60.1691L102.137 62.6972C102.367 62.8838 102.548 63.1247 102.662 63.3982C102.777 63.6717 102.822 63.9694 102.794 64.2646L102.389 68.2591C102.356 68.598 102.418 68.9395 102.569 69.2448C102.72 69.5501 102.954 69.8068 103.244 69.9859C103.533 70.165 103.867 70.2592 104.208 70.2578C104.549 70.2565 104.882 70.1596 105.17 69.9782L108.71 67.9051C108.958 67.7541 109.239 67.6639 109.529 67.642C109.819 67.62 110.11 67.6669 110.378 67.7787L114.095 69.3967C114.406 69.5524 114.756 69.614 115.102 69.5741C115.448 69.5342 115.775 69.3946 116.043 69.1721C116.311 68.9497 116.508 68.6541 116.611 68.3214C116.714 67.9887 116.718 67.6333 116.623 67.2984L115.662 63.4051C115.599 63.1185 115.603 62.8214 115.674 62.5365C115.744 62.2517 115.878 61.9867 116.066 61.7618L118.746 58.7533C118.975 58.499 119.127 58.1854 119.186 57.8484C119.245 57.5114 119.207 57.1648 119.078 56.8481C118.949 56.5314 118.733 56.2576 118.455 56.058C118.177 55.8584 117.849 55.7411 117.508 55.7196L113.513 55.4415C113.22 55.4195 112.936 55.3277 112.685 55.1738C112.435 55.0199 112.224 54.8083 112.072 54.5566L110.024 51.0931C109.854 50.7985 109.604 50.5576 109.303 50.398C109.002 50.2383 108.662 50.1663 108.323 50.19C107.983 50.2137 107.657 50.3322 107.381 50.5321C107.105 50.7319 106.891 51.0051 106.763 51.3206L105.246 55.0623C105.117 55.3503 104.917 55.601 104.665 55.7911C104.413 55.9812 104.117 56.1044 103.805 56.1494Z" fill="#FFB620"/>
<path d="M141.803 55.9471L137.657 55.3403C137.453 55.3153 137.258 55.2398 137.09 55.1206C136.922 55.0014 136.787 54.8423 136.696 54.6577L134.825 50.8908C134.719 50.6838 134.558 50.51 134.36 50.3887C134.161 50.2673 133.933 50.2031 133.7 50.2031C133.468 50.2031 133.239 50.2673 133.041 50.3887C132.842 50.51 132.681 50.6838 132.575 50.8908L130.73 54.6577C130.632 54.8372 130.495 54.992 130.328 55.1103C130.162 55.2286 129.971 55.3073 129.769 55.3403L125.598 55.9471C125.367 55.9794 125.15 56.0761 124.972 56.226C124.794 56.376 124.661 56.5731 124.59 56.7948C124.519 57.0165 124.512 57.2538 124.569 57.4795C124.626 57.7051 124.746 57.9101 124.915 58.0707L127.923 61.0033C128.071 61.144 128.181 61.3197 128.243 61.5142C128.305 61.7086 128.317 61.9155 128.277 62.1157L127.57 66.2365C127.53 66.4677 127.555 66.7054 127.643 66.923C127.731 67.1405 127.877 67.3294 128.066 67.4684C128.255 67.6075 128.479 67.6912 128.713 67.7103C128.946 67.7294 129.181 67.683 129.39 67.5765L133.131 65.7309C133.313 65.6435 133.512 65.5982 133.713 65.5982C133.914 65.5982 134.113 65.6435 134.294 65.7309L138.036 67.7029C138.245 67.8095 138.479 67.8558 138.713 67.8367C138.947 67.8176 139.171 67.7339 139.36 67.5948C139.549 67.4558 139.695 67.2669 139.783 67.0494C139.87 66.8318 139.896 66.5941 139.856 66.363L139.047 62.1157C139.008 61.9155 139.02 61.7086 139.082 61.5142C139.144 61.3197 139.253 61.144 139.401 61.0033L142.511 58.1465C142.705 57.9893 142.847 57.7769 142.918 57.5373C142.99 57.2977 142.987 57.0422 142.91 56.8043C142.834 56.5663 142.687 56.3571 142.489 56.2041C142.292 56.0511 142.052 55.9615 141.803 55.9471Z" fill="#FFB620"/>
<path d="M164.329 57.5392L161.623 56.9325C161.424 56.8926 161.237 56.8051 161.079 56.6774C160.92 56.5498 160.795 56.3858 160.713 56.1993L159.677 53.6712C159.585 53.4562 159.436 53.2707 159.246 53.1353C159.056 52.9999 158.831 52.9199 158.598 52.9042C158.365 52.8885 158.132 52.9377 157.926 53.0463C157.719 53.1549 157.546 53.3187 157.427 53.5195L156.011 55.896C155.907 56.0704 155.763 56.2182 155.592 56.3278C155.421 56.4375 155.227 56.506 155.025 56.528L152.269 56.705C152.034 56.7213 151.808 56.8032 151.617 56.9413C151.425 57.0795 151.277 57.2685 151.187 57.4868C151.098 57.7052 151.071 57.9442 151.11 58.1769C151.15 58.4095 151.254 58.6265 151.41 58.8033L153.255 60.8764C153.39 61.0245 153.486 61.2036 153.534 61.3976C153.583 61.5917 153.582 61.7948 153.533 61.9888L152.876 64.6938C152.826 64.9197 152.839 65.155 152.913 65.3741C152.988 65.5932 153.121 65.7877 153.298 65.9363C153.476 66.085 153.69 66.1821 153.919 66.2171C154.148 66.2521 154.382 66.2237 154.595 66.1349L157.123 65.0225C157.305 64.9351 157.504 64.8898 157.705 64.8898C157.906 64.8898 158.105 64.9351 158.286 65.0225L160.638 66.4888C160.837 66.6116 161.067 66.6765 161.301 66.6762C161.536 66.6759 161.765 66.6105 161.965 66.4872C162.164 66.3639 162.325 66.1877 162.43 65.9782C162.535 65.7686 162.58 65.534 162.559 65.3006L162.281 62.5702C162.26 62.3655 162.291 62.1589 162.371 61.9691C162.45 61.7793 162.576 61.6123 162.736 61.4831L164.834 59.7134C165.007 59.5627 165.136 59.3677 165.206 59.1495C165.277 58.9312 165.287 58.6979 165.235 58.4744C165.183 58.251 165.071 58.046 164.911 57.8812C164.752 57.7165 164.55 57.5983 164.329 57.5392Z" fill="#FFB620"/>
<path d="M182.455 60.9526L181.039 60.4976C180.843 60.4417 180.665 60.3352 180.523 60.1887C180.381 60.0423 180.28 59.8611 180.23 59.6633L179.8 58.1464C179.728 57.9246 179.597 57.727 179.419 57.5755C179.242 57.4239 179.027 57.3243 178.796 57.2877C178.566 57.251 178.33 57.2788 178.115 57.3679C177.899 57.457 177.713 57.6039 177.576 57.7925L176.716 58.9807C176.595 59.1463 176.434 59.2793 176.249 59.3675C176.064 59.4558 175.859 59.4966 175.654 59.4863H174.188C173.955 59.4851 173.727 59.548 173.528 59.6683C173.328 59.7886 173.166 59.9616 173.059 60.1681C172.952 60.3746 172.904 60.6067 172.92 60.8388C172.936 61.0709 173.016 61.294 173.151 61.4835L174.011 62.6718C174.137 62.8297 174.219 63.0177 174.25 63.2171C174.281 63.4166 174.26 63.6207 174.188 63.8094L173.708 65.1999C173.632 65.4204 173.619 65.6576 173.67 65.8851C173.72 66.1127 173.833 66.3218 173.995 66.4892C174.158 66.6567 174.363 66.776 174.589 66.834C174.815 66.892 175.052 66.8864 175.275 66.8179L176.691 66.3628C176.881 66.3021 177.083 66.2865 177.28 66.3173C177.478 66.348 177.665 66.4241 177.828 66.5398L179.017 67.4499C179.204 67.5908 179.428 67.6765 179.661 67.6976C179.895 67.7187 180.13 67.6743 180.34 67.5693C180.55 67.4643 180.727 67.3029 180.85 67.1032C180.974 66.9035 181.039 66.6734 181.039 66.4387V64.9723C181.034 64.7689 181.079 64.5674 181.172 64.3862C181.265 64.2051 181.402 64.0502 181.57 63.9358L182.784 63.2027C182.98 63.0693 183.134 62.8834 183.23 62.6662C183.325 62.4491 183.358 62.2095 183.323 61.9748C183.289 61.7401 183.189 61.5198 183.036 61.339C182.882 61.1583 182.681 61.0244 182.455 60.9526Z" fill="#FFB620"/>
<path d="M114.777 57.1349L112.022 56.9326C111.819 56.9239 111.622 56.8636 111.45 56.7574C111.277 56.6512 111.135 56.5027 111.036 56.3259L109.62 53.7977C109.498 53.5978 109.324 53.4355 109.116 53.3289C108.907 53.2222 108.674 53.1755 108.44 53.1938C108.207 53.2122 107.984 53.2949 107.795 53.4328C107.606 53.5706 107.458 53.7582 107.37 53.9747L106.333 56.5028C106.248 56.6895 106.122 56.8546 105.965 56.9859C105.807 57.1172 105.622 57.2113 105.423 57.2613L102.718 58.1461C102.489 58.1935 102.277 58.3051 102.109 58.4678C101.94 58.6305 101.821 58.8378 101.765 59.0654C101.71 59.2931 101.72 59.5318 101.795 59.7539C101.869 59.976 102.005 60.1724 102.187 60.3203L104.285 62.09C104.441 62.2233 104.563 62.391 104.642 62.5797C104.721 62.7684 104.754 62.973 104.741 63.1771L104.462 65.7305C104.442 65.9639 104.486 66.1985 104.591 66.4081C104.696 66.6176 104.857 66.7938 105.057 66.9171C105.256 67.0404 105.486 67.1058 105.72 67.1061C105.954 67.1064 106.184 67.0415 106.384 66.9187L108.735 65.4524C108.913 65.3527 109.113 65.3004 109.316 65.3004C109.52 65.3004 109.72 65.3527 109.898 65.4524L112.426 66.5395C112.639 66.6386 112.877 66.6749 113.11 66.644C113.343 66.6132 113.563 66.5165 113.744 66.3653C113.924 66.2141 114.057 66.0147 114.129 65.7903C114.2 65.5659 114.205 65.326 114.145 65.0985L113.488 62.4187C113.437 62.2208 113.435 62.0134 113.484 61.8149C113.532 61.6164 113.629 61.433 113.766 61.281L115.611 59.2079C115.76 59.0324 115.857 58.8197 115.894 58.5928C115.93 58.3659 115.904 58.1334 115.819 57.9202C115.733 57.707 115.59 57.5212 115.407 57.3828C115.223 57.2445 115.006 57.1587 114.777 57.1349Z" fill="#FFB620"/>
<path d="M92.7823 59.5625H91.316C91.111 59.5728 90.9066 59.532 90.7213 59.4437C90.5359 59.3555 90.3754 59.2225 90.2542 59.0569L89.3946 57.8686C89.2575 57.6801 89.0708 57.5332 88.8554 57.4441C88.6399 57.355 88.404 57.3272 88.1738 57.3638C87.9435 57.4005 87.7279 57.5001 87.5507 57.6516C87.3735 57.8032 87.2417 58.0008 87.1699 58.2226L86.7401 59.6383C86.6902 59.8361 86.5893 60.0173 86.4473 60.1638C86.3053 60.3102 86.1273 60.4167 85.9311 60.4726L84.5153 60.9277C84.2953 61.0025 84.1001 61.1366 83.9513 61.3151C83.8025 61.4937 83.7057 61.7098 83.6718 61.9397C83.6378 62.1697 83.6679 62.4045 83.7587 62.6185C83.8496 62.8324 83.9976 63.0172 84.1867 63.1524L85.4002 63.9867C85.5638 64.1057 85.6971 64.2615 85.7893 64.4416C85.8816 64.6217 85.9301 64.8209 85.9311 65.0232V66.4895C85.9311 66.7243 85.9964 66.9544 86.1199 67.1541C86.2433 67.3538 86.4199 67.5152 86.6298 67.6202C86.8398 67.7251 87.0749 67.7696 87.3087 67.7485C87.5425 67.7274 87.7658 67.6417 87.9536 67.5008L89.1165 66.5907C89.2841 66.4747 89.476 66.3984 89.6775 66.3678C89.8791 66.3371 90.0849 66.3528 90.2795 66.4137L91.6952 66.8688C91.9181 66.9373 92.1555 66.9429 92.3813 66.8849C92.6072 66.8269 92.8125 66.7076 92.9748 66.5401C93.137 66.3726 93.2497 66.1636 93.3005 65.936C93.3513 65.7085 93.3382 65.4713 93.2626 65.2508L92.7823 63.8603C92.7105 63.6716 92.6891 63.4675 92.7201 63.268C92.7511 63.0686 92.8336 62.8806 92.9593 62.7226L93.8188 61.5344C93.9468 61.3451 94.0211 61.1245 94.0337 60.8963C94.0464 60.6681 93.9968 60.4407 93.8905 60.2384C93.7841 60.036 93.6249 59.8663 93.4298 59.7473C93.2346 59.6283 93.0109 59.5644 92.7823 59.5625Z" fill="#FFB620"/>
<path d="M270.511 42.6748C270.267 41.9064 269.954 41.1618 269.576 40.45C269.2 39.7371 268.76 39.0601 268.261 38.4275C267.788 37.8352 267.272 37.2776 266.719 36.7589L266.416 36.4556C265.863 35.9489 265.281 35.4761 264.671 35.0398C229.454 10.7951 189.914 0 136.52 0C94.6042 0 49.8311 3.89331 6.54954 32.183C4.72526 33.311 3.18553 34.8444 2.04994 36.664C0.914346 38.4835 0.213455 40.5404 0.00169844 42.6748C-0.0664797 44.0218 0.135487 45.3688 0.59571 46.6366C1.05593 47.9044 1.76511 49.0673 2.68151 50.0569L27.1032 77.8663C28.3115 79.1769 29.7715 80.2307 31.396 80.9647C33.0205 81.6988 34.7762 82.0981 36.5584 82.1388C38.7942 82.1987 41.0071 81.6759 42.9798 80.6219C43.6371 80.2933 44.4209 79.8129 45.0782 79.4337C54.8628 74.0987 65.2748 70.0052 76.073 67.2481L74.2527 62.1919C63.5741 64.9307 53.2555 68.919 43.5107 74.0741C42.8029 74.4533 42.1203 74.9084 41.3871 75.2623C39.7615 76.2576 37.835 76.6429 35.9516 76.3494C34.1549 76.1367 32.4725 75.3575 31.1482 74.1246L7.73776 47.5793C6.53075 46.3421 5.82003 44.7048 5.74054 42.9781C5.74054 42.9781 5.74054 42.8012 5.74054 42.7C5.72688 42.4305 5.72688 42.1605 5.74054 41.891C5.74054 41.6129 5.74054 41.3601 5.94279 41.082C5.94279 40.8292 6.11976 40.5764 6.22089 40.3236C6.22089 40.0961 6.44842 39.8685 6.57482 39.641V39.464C6.69519 39.2685 6.83042 39.0826 6.97932 38.9079C7.15766 38.7402 7.36273 38.6035 7.58608 38.5033L7.96529 38.0483L8.39507 37.6691L8.72373 37.3657C9.00183 37.1382 9.3052 36.9359 9.60858 36.7337C51.626 9.22766 95.4384 5.43547 136.52 5.43547C188.752 5.43547 227.331 15.9272 261.612 39.464C261.966 39.6916 262.269 39.9444 262.573 40.1719C262.821 40.3866 263.057 40.6145 263.281 40.8545C263.521 41.0976 263.74 41.3597 263.938 41.6382C264.139 41.9094 264.316 42.1969 264.469 42.4978C265.019 43.4678 265.299 44.5681 265.278 45.6832C265.233 47.0922 264.717 48.4454 263.812 49.526C260.474 53.2929 257.163 57.1104 253.851 60.852C249.224 66.1358 244.573 71.4448 239.921 76.7033C239.462 77.202 238.902 77.5975 238.279 77.8633C237.656 78.1292 236.983 78.2595 236.306 78.2455C235.034 78.1108 233.813 77.6777 232.741 76.9814L232.159 76.678C219.921 70.2237 207.031 65.088 193.707 61.3576L191.886 66.4139C205.044 70.1257 217.765 75.2363 229.834 81.6585L230.39 81.9618C232.225 83.1045 234.323 83.7573 236.483 83.8579C237.915 83.8624 239.331 83.5628 240.639 82.9788C241.946 82.3947 243.115 81.5397 244.067 80.4702L257.997 64.5936L268.666 52.4333C269.495 51.4531 270.123 50.3188 270.514 49.0954C270.904 47.872 271.049 46.5836 270.941 45.304C270.9 44.4139 270.756 43.5316 270.511 42.6748Z" fill="#FFB620"/>
</g>
<defs>
<clipPath id="clip0_2903_23912">
<rect width="271.091" height="84" fill="white"/>
</clipPath>
</defs>
</svg>
