<svg width="32" height="32" viewBox="0 0 32 32" fill="none" xmlns="http://www.w3.org/2000/svg">
<path d="M-3.34325e-08 26.159C-3.72052e-08 25.6802 0.0256788 25.1738 0.0770357 24.6557C0.15874 23.8354 0.420193 23.2191 0.835717 22.8698C1.19755 22.5636 1.56172 22.4263 1.91654 22.4577C2.21068 22.4851 2.59119 22.5479 3.05106 22.6539C3.48993 22.752 4.01984 22.8462 4.62679 22.9326C5.22673 23.0189 5.91538 23.0621 6.66939 23.0621C7.41873 23.0621 8.25445 22.9758 9.15086 22.8031C9.53137 22.7285 9.98891 22.6264 10.5095 22.5048C11.0347 22.3792 11.5646 22.2692 12.0875 22.179C12.6128 22.0887 13.1007 22.0298 13.5419 22.0063C14.0321 21.9788 14.3986 22.0416 14.6601 22.1986C14.9238 22.3556 15.1923 22.6539 15.4584 23.0857C15.7549 23.5645 15.9323 24.3142 15.986 25.3112C15.9953 25.5546 16 25.7665 16 25.9667C16 27.47 15.7666 28.5259 15.3067 29.099L15.2833 29.1264C15.0242 29.4051 14.7067 29.5935 14.3356 29.6838C13.9994 29.7662 13.6352 29.7937 13.2501 29.7662C12.8952 29.7427 12.5124 29.7034 12.1132 29.6524C11.7257 29.6014 11.3522 29.566 11.0044 29.5425C10.2854 29.4915 9.50102 29.4679 8.67231 29.4679C7.84826 29.4679 6.97753 29.4797 6.08345 29.5072C5.58856 29.5072 5.19872 29.5189 4.91859 29.5425C4.63846 29.566 4.40269 29.5974 4.2136 29.6328C4.02218 29.6681 3.84943 29.7074 3.69536 29.7427C3.53662 29.7819 3.3452 29.8251 3.11876 29.8761L3.09075 29.8801C2.86898 29.9036 2.6192 29.935 2.34608 29.9743C2.0426 30.0135 1.7508 30.0096 1.47768 29.9507C1.18121 29.8918 0.915087 29.7584 0.686315 29.5582C0.389846 29.2991 0.19609 28.8517 0.126058 28.2708C0.0630291 27.6741 0.0233437 27.0932 0.00700289 26.5241C0.00233409 26.3985 -3.24738e-08 26.2807 -3.34325e-08 26.159Z" fill="white"/>
<path d="M1 26.1193C1 25.7601 1.02247 25.3804 1.06741 24.9918C1.1389 24.3765 1.36767 23.9143 1.73125 23.6523C2.04786 23.4227 2.3665 23.3197 2.67698 23.3432C2.93434 23.3638 3.26729 23.411 3.66968 23.4904C4.05369 23.564 4.51736 23.6347 5.04844 23.6994C5.57339 23.7642 6.17596 23.7966 6.83572 23.7966C7.49139 23.7966 8.22264 23.7318 9.007 23.6023C9.33995 23.5464 9.7403 23.4698 10.1958 23.3786C10.6554 23.2844 11.1191 23.2019 11.5766 23.1342C12.0362 23.0665 12.4631 23.0224 12.8491 23.0047C13.2781 22.9841 13.5988 23.0312 13.8275 23.1489C14.0584 23.2667 14.2933 23.4904 14.5261 23.8143C14.7855 24.1734 14.9408 24.7357 14.9877 25.4834C14.9959 25.6659 15 25.8249 15 25.975C15 27.1025 14.7957 27.8944 14.3933 28.3242L14.3729 28.3448C14.1462 28.5538 13.8684 28.6951 13.5436 28.7628C13.2495 28.8247 12.9308 28.8453 12.5938 28.8247C12.2833 28.807 11.9484 28.7776 11.5991 28.7393C11.26 28.701 10.9332 28.6745 10.6288 28.6569C9.99971 28.6186 9.31339 28.6009 8.58827 28.6009C7.86723 28.6009 7.10534 28.6098 6.32302 28.6304C5.88999 28.6304 5.54888 28.6392 5.30376 28.6569C5.05865 28.6745 4.85235 28.6981 4.6869 28.7246C4.51941 28.7511 4.36825 28.7805 4.23344 28.807C4.09454 28.8365 3.92705 28.8688 3.72892 28.9071L3.70441 28.91C3.51036 28.9277 3.2918 28.9513 3.05282 28.9807C2.78728 29.0101 2.53195 29.0072 2.29297 28.963C2.03356 28.9189 1.8007 28.8188 1.60053 28.6686C1.34111 28.4743 1.17158 28.1388 1.1103 27.7031C1.05515 27.2556 1.02043 26.8199 1.00613 26.3931C1.00204 26.2989 1 26.2105 1 26.1193Z" fill="#FFB620"/>
<path d="M3.27671e-08 16.159C2.89943e-08 15.6802 0.0513581 15.1738 0.154072 14.6557C0.31748 13.8354 0.840385 13.2191 1.67143 12.8698C2.3951 12.5636 3.12343 12.4263 3.83309 12.4577C4.42136 12.4851 5.18237 12.5479 6.10213 12.6539C6.97986 12.752 8.03968 12.8462 9.25357 12.9326C10.4535 13.0189 11.8308 13.0621 13.3388 13.0621C14.8375 13.0621 16.5089 12.9758 18.3017 12.8031C19.0627 12.7285 19.9778 12.6264 21.019 12.5048C22.0694 12.3792 23.1293 12.2692 24.1751 12.179C25.2256 12.0887 26.2013 12.0298 27.0837 12.0063C28.0642 11.9788 28.7972 12.0416 29.3201 12.1986C29.8477 12.3556 30.3846 12.6539 30.9168 13.0857C31.5098 13.5645 31.8646 14.3142 31.972 15.3112C31.9907 15.5546 32 15.7665 32 15.9667C32 17.47 31.5331 18.5259 30.6134 19.099L30.5667 19.1264C30.0484 19.4051 29.4135 19.5935 28.6711 19.6838C27.9988 19.7662 27.2705 19.7937 26.5001 19.7662C25.7905 19.7427 25.0248 19.7034 24.2264 19.6524C23.4514 19.6014 22.7044 19.566 22.0088 19.5425C20.5708 19.4915 19.002 19.4679 17.3446 19.4679C15.6965 19.4679 13.9551 19.4797 12.1669 19.5072C11.1771 19.5072 10.3974 19.5189 9.83718 19.5425C9.27692 19.566 8.80537 19.5974 8.4272 19.6328C8.04435 19.6681 7.69886 19.7074 7.39072 19.7427C7.07324 19.7819 6.6904 19.8251 6.23753 19.8761L6.1815 19.8801C5.73796 19.9036 5.2384 19.935 4.69215 19.9743C4.08521 20.0135 3.50161 20.0096 2.95535 19.9507C2.36242 19.8918 1.83017 19.7584 1.37263 19.5582C0.779691 19.2991 0.392179 18.8517 0.252115 18.2708C0.126058 17.6741 0.0466873 17.0932 0.0140057 16.5241C0.00466808 16.3985 3.37257e-08 16.2807 3.27671e-08 16.159Z" fill="white"/>
<path d="M1 16.1193C1 15.7601 1.04815 15.3804 1.14444 14.9918C1.29764 14.3765 1.78786 13.9143 2.56697 13.6523C3.2454 13.4227 3.92822 13.3197 4.59352 13.3432C5.14502 13.3638 5.85848 13.411 6.72075 13.4904C7.54362 13.564 8.5372 13.6347 9.67523 13.6994C10.8001 13.7642 12.0913 13.7966 13.5051 13.7966C14.9101 13.7966 16.4771 13.7318 18.1579 13.6023C18.8713 13.5464 19.7292 13.4698 20.7053 13.3786C21.6901 13.2844 22.6837 13.2019 23.6641 13.1342C24.649 13.0665 25.5638 13.0224 26.391 13.0047C27.3102 12.9841 27.9974 13.0312 28.4876 13.1489C28.9822 13.2667 29.4856 13.4904 29.9845 13.8143C30.5404 14.1734 30.8731 14.7357 30.9737 15.4834C30.9912 15.6659 31 15.8249 31 15.975C31 17.1025 30.5623 17.8944 29.7 18.3242L29.6563 18.3448C29.1704 18.5538 28.5751 18.6951 27.8792 18.7628C27.2489 18.8247 26.5661 18.8453 25.8439 18.8247C25.1786 18.807 24.4608 18.7776 23.7123 18.7393C22.9857 18.701 22.2854 18.6745 21.6332 18.6569C20.2851 18.6186 18.8144 18.6009 17.2606 18.6009C15.7155 18.6009 14.0829 18.6098 12.4065 18.6304C11.4786 18.6304 10.7476 18.6392 10.2224 18.6569C9.69711 18.6745 9.25503 18.6981 8.9005 18.7246C8.54158 18.7511 8.21768 18.7805 7.9288 18.807C7.63117 18.8365 7.27225 18.8688 6.84768 18.9071L6.79516 18.91C6.37934 18.9277 5.911 18.9513 5.39889 18.9807C4.82988 19.0101 4.28275 19.0072 3.77065 18.963C3.21477 18.9189 2.71579 18.8188 2.28684 18.6686C1.73096 18.4743 1.36767 18.1388 1.23636 17.7031C1.11818 17.2556 1.04377 16.8199 1.01313 16.3931C1.00438 16.2989 1 16.2105 1 16.1193Z" fill="#FFB620"/>
<path d="M4.44131e-07 6.15904C4.40358e-07 5.68018 0.0385187 5.17383 0.115554 4.65572C0.23811 3.83537 0.63029 3.21913 1.25358 2.86979C1.79632 2.56363 2.34257 2.42626 2.87482 2.45766C3.31602 2.48513 3.88678 2.54793 4.5766 2.65391C5.2349 2.75204 6.02976 2.84623 6.94018 2.93258C7.84009 3.01893 8.87307 3.06212 10.0041 3.06212C11.1281 3.06212 12.3817 2.97577 13.7263 2.80307C14.2971 2.72849 14.9834 2.62644 15.7642 2.50476C16.5521 2.37915 17.347 2.26924 18.1313 2.17896C18.9192 2.08869 19.651 2.02981 20.3128 2.00626C21.0481 1.97878 21.5979 2.04158 21.9901 2.19859C22.3858 2.35559 22.7884 2.6539 23.1876 3.08567C23.6323 3.56453 23.8985 4.31422 23.979 5.3112C23.993 5.55456 24 5.76654 24 5.96672C24 7.47004 23.6498 8.52589 22.96 9.09896L22.925 9.12644C22.5363 9.40512 22.0601 9.59352 21.5034 9.6838C20.9991 9.76622 20.4529 9.79371 19.8751 9.76623C19.3429 9.74268 18.7686 9.70344 18.1698 9.65241C17.5886 9.60139 17.0283 9.56605 16.5066 9.5425C15.4281 9.49147 14.2515 9.46792 13.0085 9.46792C11.7724 9.46792 10.4663 9.47969 9.12518 9.50716C8.38284 9.50716 7.79807 9.51895 7.37788 9.5425C6.95769 9.56605 6.60403 9.59744 6.3204 9.63277C6.03327 9.66809 5.77415 9.70736 5.54304 9.74268C5.30493 9.78193 5.0178 9.8251 4.67814 9.87612L4.63612 9.88005C4.30347 9.9036 3.9288 9.935 3.51911 9.97425C3.06391 10.0135 2.6262 10.0096 2.21652 9.9507C1.77181 9.89183 1.37263 9.75837 1.02947 9.55819C0.584769 9.29913 0.294136 8.85168 0.189087 8.27076C0.0945441 7.67414 0.0350161 7.09322 0.0105048 6.52408C0.00350162 6.39847 4.45089e-07 6.28072 4.44131e-07 6.15904Z" fill="white"/>
<path d="M0.999999 6.11928C0.999999 5.76013 1.03531 5.38037 1.10592 4.99179C1.21827 4.37652 1.57776 3.91434 2.14911 3.65234C2.64663 3.42272 3.14736 3.31969 3.63525 3.34324C4.03968 3.36385 4.56288 3.41095 5.19521 3.49043C5.79866 3.56403 6.52728 3.63467 7.36183 3.69944C8.18675 3.7642 9.13364 3.79659 10.1704 3.79659C11.2008 3.79659 12.3499 3.73183 13.5824 3.6023C14.1056 3.54637 14.7348 3.46983 15.4505 3.37857C16.1727 3.28436 16.9014 3.20193 17.6204 3.13422C18.3426 3.06652 19.0134 3.02236 19.6201 3.00469C20.2941 2.98409 20.7981 3.03119 21.1576 3.14894C21.5203 3.26669 21.8894 3.49043 22.2553 3.81425C22.663 4.1734 22.9069 4.73567 22.9807 5.4834C22.9936 5.66592 23 5.8249 23 5.97504C23 7.10253 22.679 7.89442 22.0467 8.32422L22.0146 8.34483C21.6583 8.55384 21.2218 8.69514 20.7114 8.76285C20.2492 8.82467 19.7485 8.84528 19.2189 8.82467C18.731 8.80701 18.2046 8.77758 17.6557 8.73931C17.1228 8.70104 16.6093 8.67454 16.131 8.65687C15.1424 8.6186 14.0639 8.60094 12.9244 8.60094C11.7914 8.60094 10.5941 8.60976 9.36475 8.63037C8.68427 8.63037 8.14823 8.63921 7.76306 8.65687C7.37788 8.67454 7.05369 8.69808 6.7937 8.72458C6.53049 8.75107 6.29297 8.78052 6.08112 8.80701C5.86285 8.83645 5.59965 8.86882 5.2883 8.90709L5.24978 8.91004C4.94485 8.9277 4.6014 8.95125 4.22585 8.98069C3.80858 9.01013 3.40735 9.00718 3.03181 8.96303C2.62416 8.91887 2.25824 8.81878 1.94368 8.66864C1.53604 8.47435 1.26962 8.13876 1.17333 7.70307C1.08666 7.25561 1.0321 6.81992 1.00963 6.39306C1.00321 6.29886 0.999999 6.21054 0.999999 6.11928Z" fill="#FFB620"/>
</svg>
