<svg width="32" height="32" viewBox="0 0 32 32" fill="none" xmlns="http://www.w3.org/2000/svg">
<path d="M25.9809 27.4161C26.3296 27.2083 26.6367 26.9715 26.8938 26.7144C26.9592 26.649 27.0192 26.5826 27.0803 26.5088C27.3635 26.1807 27.6211 25.8144 27.8551 25.4076C28.071 24.9996 28.0457 24.4938 27.7785 23.9483C27.5724 23.5272 27.2793 23.0907 26.9045 22.6527C26.5618 22.2467 26.1639 21.8447 25.7268 21.4498C25.3314 21.0965 24.9721 20.7709 24.6555 20.4796L24.615 20.4433C24.2772 20.1603 23.9917 19.9211 23.753 19.7246C23.5228 19.5324 23.265 19.3167 22.9836 19.0733C22.7054 18.8331 22.3654 18.5267 21.9688 18.1554C21.5722 17.7841 21.0315 17.256 20.3531 16.5777C20.1137 16.344 19.8759 16.1112 19.6397 15.8796C20.4484 15.0811 21.2276 14.3262 21.9669 13.6269C22.4563 13.1627 22.9873 12.6697 23.5458 12.166C24.1204 11.6462 24.6663 11.1425 25.1653 10.6688C25.708 10.1556 26.1924 9.64163 26.6089 9.13659C27.0692 8.57934 27.4032 8.04299 27.6087 7.53815L27.626 7.4914C27.9486 6.55329 27.7016 5.6663 26.8943 4.859C26.7868 4.7515 26.6665 4.64407 26.5231 4.52618C25.9141 4.06439 25.2683 3.90498 24.6048 4.0542C24.0081 4.18712 23.4799 4.3949 23.0341 4.67217C22.5914 4.94623 22.0553 5.41488 21.3981 6.10159C20.8059 6.71901 20.1688 7.41939 19.4973 8.18783C18.829 8.95307 18.1617 9.73845 17.5092 10.5259C16.9572 11.1891 16.4602 11.7821 16.0275 12.2903C15.1742 11.4281 14.3692 10.5983 13.6269 9.81349C13.1627 9.32407 12.6697 8.79312 12.166 8.23455C11.6462 7.65998 11.1425 7.11413 10.6688 6.61511C10.1556 6.07239 9.64163 5.58798 9.13659 5.17147C8.57934 4.71118 8.04299 4.37717 7.53815 4.17165L7.4914 4.15441C6.55329 3.83179 5.6663 4.07881 4.859 4.88611C4.7515 4.99361 4.64407 5.11385 4.52618 5.25733C4.06439 5.86632 3.90498 6.5121 4.0542 7.17563C4.18712 7.77227 4.3949 8.30045 4.67216 8.74634C4.94623 9.18904 5.41488 9.72513 6.1016 10.3823C6.71901 10.9745 7.41939 11.6116 8.18783 12.2831C8.95307 12.9514 9.73845 13.6187 10.5259 14.2712C11.3048 14.9194 11.9867 15.4918 12.5484 15.9733C12.5684 15.9906 12.5885 16.0078 12.6085 16.0251C12.5872 16.0464 12.566 16.0677 12.5448 16.0889C11.5113 17.1224 10.5441 18.0432 9.67539 18.8192C8.79707 19.6047 8.02013 20.2805 7.36587 20.8294C6.67859 21.4028 6.12329 21.8907 5.70536 22.2791C5.20213 22.7486 4.77673 23.3216 4.44517 23.9819C4.0632 24.7391 4.03575 25.4284 4.36429 25.9809C4.57213 26.3296 4.80885 26.6367 5.066 26.8938C5.13135 26.9592 5.19778 27.0192 5.27163 27.0803C5.59966 27.3635 5.96602 27.6211 6.37281 27.8551C6.78077 28.071 7.28664 28.0457 7.83213 27.7785C8.25322 27.5724 8.68966 27.2793 9.12766 26.9045C9.53365 26.5618 9.93574 26.1639 10.3306 25.7268C10.6839 25.3314 11.0095 24.9721 11.3008 24.6555L11.3371 24.615C11.6201 24.2772 11.8593 23.9917 12.0558 23.753C12.248 23.5228 12.4637 23.265 12.7071 22.9836C12.9473 22.7054 13.2536 22.3654 13.625 21.9688C13.9963 21.5722 14.5243 21.0315 15.2027 20.3531C15.5352 20.0125 15.8659 19.6749 16.1942 19.3411C17.185 20.335 18.0696 21.2659 18.8192 22.105C19.6047 22.9833 20.2805 23.7603 20.8294 24.4145C21.4028 25.1018 21.8907 25.6571 22.2791 26.075C22.7486 26.5783 23.3216 27.0037 23.9819 27.3352C24.7391 27.7172 25.4284 27.7446 25.9809 27.4161Z" fill="white"/>
<path d="M25.654 26.6107C25.8864 26.4722 26.0911 26.3144 26.2626 26.1429C26.3061 26.0994 26.3461 26.0551 26.3868 26.0058C26.5757 25.7872 26.7474 25.5429 26.9034 25.2717C27.0474 24.9998 27.0305 24.6625 26.8523 24.2988C26.7149 24.0181 26.5195 23.7272 26.2697 23.4352C26.0412 23.1645 25.7759 22.8964 25.4846 22.6332C25.2209 22.3976 24.9814 22.1806 24.7703 21.9864L24.7433 21.9622C24.5181 21.7736 24.3278 21.6141 24.1687 21.4831C24.0152 21.3549 23.8433 21.2111 23.6557 21.0489C23.4703 20.8887 23.2436 20.6845 22.9792 20.4369C22.7148 20.1894 22.3543 19.8374 21.9021 19.3851C21.7425 19.2293 18.5839 16.0741 18.4265 15.9197C18.9656 15.3874 22.4851 11.8841 22.9779 11.4179C23.3042 11.1085 23.6582 10.7798 24.0306 10.444C24.4136 10.0975 24.7775 9.76167 25.1102 9.44585C25.472 9.10371 25.7949 8.76109 26.0726 8.42439C26.3795 8.05289 26.6021 7.69533 26.7392 7.35877L26.7507 7.3276C26.9657 6.70219 26.8011 6.11087 26.2629 5.57267C26.1912 5.501 26.111 5.42938 26.0154 5.35079C25.6094 5.04292 25.1789 4.93665 24.7365 5.03613C24.3387 5.12474 23.9866 5.26327 23.6894 5.44811C23.3942 5.63082 23.0368 5.94325 22.5987 6.40106C22.204 6.81267 21.7792 7.27959 21.3315 7.79189C20.886 8.30205 20.4411 8.82563 20.0061 9.35057C19.6381 9.79275 16.3068 13.1881 16.0183 13.5269C15.4495 12.9521 11.9128 9.39888 11.4179 8.87566C11.1085 8.54938 10.7798 8.19541 10.444 7.82303C10.0975 7.43999 9.76167 7.07609 9.44585 6.74341C9.10371 6.38159 8.76109 6.05865 8.42439 5.78098C8.05289 5.47412 7.69533 5.25145 7.35877 5.11443L7.3276 5.10294C6.70219 4.88786 6.11087 5.05254 5.57267 5.59074C5.501 5.66241 5.42938 5.74256 5.35079 5.83822C5.04292 6.24421 4.93665 6.67473 5.03613 7.11709C5.12474 7.51485 5.26327 7.86697 5.44811 8.16423C5.63082 8.45936 5.94325 8.81675 6.40106 9.25489C6.81267 9.64964 7.27959 10.0744 7.79188 10.5221C8.30205 10.9676 8.82563 11.4125 9.35057 11.8475C9.86984 12.2796 13.3245 15.6612 13.6989 15.9822C13.7123 15.9937 13.7257 16.0052 13.739 16.0167C13.7248 16.0309 13.7107 16.0451 13.6965 16.0592C13.0075 16.7483 9.36275 20.3621 8.7836 20.8794C8.19805 21.4032 7.68009 21.8537 7.24391 22.2196C6.78573 22.6019 6.41553 22.9271 6.13691 23.1861C5.80142 23.4991 5.51782 23.881 5.29678 24.3213C5.04213 24.8261 5.02383 25.2856 5.24286 25.654C5.38142 25.8864 5.53923 26.0911 5.71067 26.2626C5.75423 26.3061 5.79852 26.3461 5.84775 26.3868C6.06644 26.5757 6.31068 26.7474 6.58187 26.9034C6.85384 27.0474 7.19109 27.0305 7.55476 26.8523C7.83548 26.7149 8.12644 26.5195 8.41844 26.2697C8.6891 26.0412 8.95716 25.7759 9.22042 25.4846C9.45596 25.2209 9.67297 24.9814 9.86719 24.7703L9.89139 24.7433C10.08 24.5181 10.2395 24.3278 10.3705 24.1687C10.4987 24.0152 10.6425 23.8433 10.8047 23.6557C10.9649 23.4703 11.1691 23.2436 11.4167 22.9792C11.6642 22.7148 12.0162 22.3543 12.4685 21.9021C12.6901 21.675 15.9106 18.45 16.1294 18.2274C19.79 21.89 20.3797 22.5106 20.8794 23.07C21.4032 23.6556 21.8537 24.1735 22.2196 24.6097C22.6019 25.0679 22.9271 25.4381 23.1861 25.7167C23.4991 26.0522 23.881 26.3358 24.3213 26.5568C24.8261 26.8115 25.2856 26.8298 25.654 26.6107Z" fill="#FFB620"/>
</svg>
