<svg width="24" height="24" viewBox="0 0 24 24" fill="none" xmlns="http://www.w3.org/2000/svg">
<path d="M22.5 15C22.5 14.1716 21.8284 13.5 21 13.5C20.1716 13.5 19.5 14.1716 19.5 15H22.5ZM3 19H1.5H3ZM4.5 15C4.5 14.1716 3.82843 13.5 3 13.5C2.17157 13.5 1.5 14.1716 1.5 15H4.5ZM15.9393 10.0607C16.5251 10.6464 17.4749 10.6464 18.0607 10.0607C18.6464 9.47487 18.6464 8.52513 18.0607 7.93934L15.9393 10.0607ZM12 4L13.0607 2.93934C12.4749 2.35355 11.5251 2.35355 10.9393 2.93934L12 4ZM5.93934 7.93934C5.35355 8.52513 5.35355 9.47487 5.93934 10.0607C6.52513 10.6464 7.47487 10.6464 8.06066 10.0607L5.93934 7.93934ZM10.5 16C10.5 16.8284 11.1716 17.5 12 17.5C12.8284 17.5 13.5 16.8284 13.5 16H10.5ZM19.5 15V19H22.5V15H19.5ZM19.5 19C19.5 19.1326 19.4473 19.2598 19.3536 19.3536L21.4749 21.4749C22.1313 20.8185 22.5 19.9283 22.5 19H19.5ZM19.3536 19.3536C19.2598 19.4473 19.1326 19.5 19 19.5V22.5C19.9283 22.5 20.8185 22.1313 21.4749 21.4749L19.3536 19.3536ZM19 19.5H5V22.5H19V19.5ZM5 19.5C4.86739 19.5 4.74022 19.4473 4.64645 19.3536L2.52513 21.4749C3.1815 22.1313 4.07174 22.5 5 22.5V19.5ZM4.64645 19.3536C4.55268 19.2598 4.5 19.1326 4.5 19H1.5C1.5 19.9283 1.86875 20.8185 2.52513 21.4749L4.64645 19.3536ZM4.5 19V15H1.5V19H4.5ZM18.0607 7.93934L13.0607 2.93934L10.9393 5.06066L15.9393 10.0607L18.0607 7.93934ZM10.9393 2.93934L5.93934 7.93934L8.06066 10.0607L13.0607 5.06066L10.9393 2.93934ZM10.5 4V16H13.5V4H10.5Z" fill="#0078BF" fill-opacity="0.3"/>
</svg>
