<svg width="267" height="40" viewBox="0 0 267 40" fill="none" xmlns="http://www.w3.org/2000/svg">
<g clip-path="url(#clip0_2573_83592)">
<path d="M43.6141 21.3224C43.4941 15.576 41.1105 10.1092 36.9816 6.11058C32.8527 2.112 27.3124 -0.0951001 21.565 -0.0308626C15.8176 0.0333748 10.328 2.36375 6.28948 6.45362C2.25101 10.5435 -0.00976473 16.0622 -0.0013192 21.8099H8.7232C8.65982 26.4364 10.4369 30.8986 13.6635 34.2148C16.8901 37.5311 21.302 39.4297 25.9285 39.4931C30.555 39.5565 35.0172 37.7794 38.3334 34.5528C41.6497 31.3262 43.5483 26.9143 43.6117 22.2878C43.6117 22.1277 43.6117 21.9628 43.6117 21.8099C43.6117 21.657 43.6189 21.4825 43.6141 21.3224ZM26.1698 30.5344C24.444 30.5358 22.7565 30.0254 21.3208 29.0676C19.8851 28.1098 18.7658 26.7477 18.1043 25.1536C17.4429 23.5595 17.2691 21.8051 17.6049 20.1122C17.9407 18.4194 18.7711 16.8642 19.991 15.6433C21.2108 14.4224 22.7654 13.5908 24.458 13.2536C26.1505 12.9163 27.9051 13.0887 29.4997 13.7488C31.0943 14.409 32.4574 15.5272 33.4163 16.9621C34.3753 18.397 34.8872 20.0841 34.8872 21.8099C34.8865 24.1219 33.9685 26.3393 32.3345 27.975C30.7005 29.6108 28.4843 30.5313 26.1722 30.5344H26.1698ZM167.772 8.12454C160.17 8.12454 153.988 14.2587 153.988 21.8004C153.988 29.4663 160.044 35.4738 167.772 35.4738C175.5 35.4738 181.553 29.4663 181.553 21.8004C181.553 14.2683 175.371 8.12454 167.772 8.12454ZM167.772 29.7387C163.709 29.7387 160.756 26.1136 160.756 21.8004C160.756 17.4871 163.707 13.8596 167.772 13.8596C171.739 13.8596 174.733 17.5564 174.733 21.8004C174.733 26.1232 171.813 29.7482 167.772 29.7482V29.7387ZM107.209 8.71L107.176 11.7496L106.605 11.0709C105.307 9.52247 102.817 8.12454 99.1441 8.12454C92.372 8.12454 86.8639 14.2611 86.8639 21.8004C86.8639 29.3396 92.372 35.4738 99.1441 35.4738C102.817 35.4738 105.307 34.083 106.605 32.525L107.176 31.8439L107.209 34.8835H113.9V8.71956L107.209 8.71ZM107.606 21.8051C107.606 26.2833 104.86 29.7435 100.697 29.7435C96.5347 29.7435 93.6313 26.2857 93.6313 21.8147C93.6313 17.327 96.5395 13.8596 100.697 13.8596C104.855 13.8596 107.606 17.3222 107.606 21.8004V21.8051ZM232.325 8.71L232.294 11.7496L231.723 11.0709C230.423 9.52247 227.933 8.12454 224.26 8.12454C217.49 8.12454 211.982 14.2659 211.982 21.8051C211.982 29.3444 217.478 35.4786 224.26 35.4786C227.933 35.4786 230.423 34.0878 231.723 32.5298L232.294 31.8487L232.325 34.8883H239.016V8.71956L232.325 8.71ZM232.724 21.8051C232.724 26.2833 229.978 29.7435 225.816 29.7435C221.653 29.7435 218.747 26.2857 218.747 21.8147C218.747 17.327 221.653 13.8596 225.818 13.8596C229.983 13.8596 232.724 17.327 232.724 21.8051ZM70.4926 13.8596C66.3633 13.8596 63.479 17.2911 63.479 21.8004C63.479 26.3096 66.3585 29.7482 70.4926 29.7482C73.4055 29.7482 75.5848 28.0229 76.8083 25.2868H83.5853C81.9293 31.6814 77.064 35.4833 70.4926 35.4833C62.6355 35.4833 56.7116 29.6049 56.7116 21.8099C56.7116 14.015 62.6307 8.12454 70.4926 8.12454C77.064 8.12454 81.9293 11.9288 83.5853 18.3235H76.8036C75.5801 15.5969 73.4007 13.8596 70.4926 13.8596ZM134.563 20.216L143.56 8.72434H149.31V34.8883H142.595V18.8109L134.616 29.0863L126.584 18.8181V34.8883H119.869V8.72434H125.621L134.563 20.216ZM199.441 21.6068L212.106 34.8931H203.54L192.903 23.5878V34.8883H186.191V8.72434H192.903V20.216L202.426 8.72434H210.333L199.441 21.6068ZM251.473 14.3567H243.573V8.72434H266.086V14.3567H258.186V34.8883H251.473V14.3567Z" fill="#FF335F"/>
</g>
<defs>
<clipPath id="clip0_2573_83592">
<rect width="266.087" height="40" fill="white"/>
</clipPath>
</defs>
</svg>
