<svg width="228" height="181" viewBox="0 0 228 181" fill="none" xmlns="http://www.w3.org/2000/svg">
<g clip-path="url(#clip0_2595_71846)">
<path d="M4.82795 62.8067C3.0647 51.674 2.18307 46.1076 3.89694 41.4887C4.98354 38.056 7.25635 35.2506 10.1433 32.8914C13.7834 30.1411 19.3497 29.2595 30.4825 27.4963L173.617 4.82592C184.75 3.06267 190.317 2.18104 194.935 3.89491C198.368 4.98151 201.173 7.25432 203.533 10.1412C206.283 13.7813 207.165 19.3477 208.928 30.4804L222.782 117.952C224.545 129.085 225.427 134.651 223.713 139.27C222.626 142.702 220.354 145.508 217.467 147.867C213.827 150.617 208.26 151.499 197.127 153.262L53.9925 175.933C42.8597 177.696 37.2934 178.577 32.6745 176.864C29.2418 175.777 26.4364 173.504 24.0772 170.617C21.3269 166.977 20.4453 161.411 18.6821 150.278L4.82795 62.8067Z" fill="#E31C40"/>
<path d="M130.839 122.461L138.364 103.064L117.689 106.339L130.839 122.461Z" fill="white"/>
<path d="M105.395 126.489L112.92 107.093L92.2451 110.367L105.395 126.489Z" fill="white"/>
<path d="M115.432 107.513L128.582 123.635L107.907 126.91L115.432 107.513Z" fill="white"/>
<path d="M140.303 98.1377L147.827 78.741L127.152 82.0156L140.303 98.1377Z" fill="white"/>
<path d="M125.283 83.9418L138.434 100.064L117.759 103.338L125.283 83.9418Z" fill="white"/>
<path d="M88.8808 106.283L75.7305 90.1611L96.4055 86.8865L88.8808 106.283Z" fill="white"/>
<path d="M98.7765 88.1381L91.2518 107.535L111.927 104.26L98.7765 88.1381Z" fill="white"/>
<path d="M66.6227 97.8519L47.2261 90.3271L50.5007 111.002L66.6227 97.8519Z" fill="white"/>
<path d="M70.8634 124.626L51.4668 117.102L54.7414 137.777L70.8634 124.626Z" fill="white"/>
<path d="M51.0045 114.185L67.1265 101.035L70.4011 121.71L51.0045 114.185Z" fill="white"/>
<path d="M62.383 71.0814L42.9863 63.5566L46.2609 84.2317L62.383 71.0814Z" fill="white"/>
<path d="M178.746 80.095L159.35 72.5703L162.624 93.2454L178.746 80.095Z" fill="white"/>
<path d="M182.986 106.867L163.589 99.3428L166.864 120.018L182.986 106.867Z" fill="white"/>
<path d="M163.128 96.4244L179.25 83.2741L182.524 103.949L163.128 96.4244Z" fill="white"/>
<path d="M174.506 53.3226L155.109 45.7979L158.383 66.4729L174.506 53.3226Z" fill="white"/>
</g>
<defs>
<clipPath id="clip0_2595_71846">
<rect width="206.644" height="150.287" fill="white" transform="translate(0 32.3262) rotate(-9)"/>
</clipPath>
</defs>
</svg>
