<svg width="396" height="90" viewBox="0 0 396 90" fill="none" xmlns="http://www.w3.org/2000/svg">
<g clip-path="url(#clip0_2567_73810)">
<path fill-rule="evenodd" clip-rule="evenodd" d="M101.187 65.1005V28.4839H130.913V65.1005H123.652V35.4828H108.446V65.1005H101.187ZM152.153 44.0003H148.032C144.599 44.0003 142.881 45.2258 142.881 47.6233C142.881 49.9728 144.551 51.1467 147.887 51.1467C149.36 51.1467 150.78 51.0509 152.153 50.8058V44.0003ZM158.875 38.4203V65.0986H152.153V55.842C150.851 56.0794 149.472 56.3915 147.807 56.4394L142.244 65.0986H134.689L141.334 55.4973C137.849 54.0286 136.015 51.4913 136.015 47.5256C136.015 42.0911 139.986 38.4203 147.837 38.4203H158.875ZM204.3 40.6722C206.358 42.679 207.388 45.4211 207.388 48.9943V65.0986H200.474V50.2658C200.474 46.2043 198.316 44.0501 195.125 44.0501C191.64 44.0501 189.239 46.5471 189.239 50.463V65.1005H182.322V50.3175C182.322 46.3518 180.212 44.0501 176.926 44.0501C173.543 44.0501 171.09 46.5471 171.09 50.5128V65.1005H164.173V38.4203H170.942V42.2386C172.463 39.4486 175.601 37.639 179.084 37.6869C182.42 37.6869 185.511 39.303 186.934 42.386C188.896 39.4486 192.525 37.6869 196.498 37.6869C199.689 37.6869 202.287 38.6635 204.3 40.6741V40.6722ZM261.547 57.2169C262.92 55.7481 263.608 53.9386 263.608 51.7862C263.608 49.6301 262.92 47.8205 261.547 46.3498C260.174 44.883 258.407 44.1477 256.201 44.1477C254.043 44.1477 252.275 44.883 250.904 46.3498C249.53 47.8205 248.842 49.6301 248.842 51.7862C248.842 53.9386 249.531 55.7501 250.904 57.2188C252.277 58.6875 254.043 59.4209 256.201 59.4209C258.407 59.4209 260.174 58.6875 261.547 57.2188V57.2169ZM266.846 41.7981C269.347 44.4905 270.574 47.8205 270.574 51.7364C270.574 55.6524 269.299 58.9805 266.796 61.6747C264.295 64.3652 261.157 65.7343 257.377 65.7343C254.093 65.7343 251.06 64.302 248.99 61.7667V76.0652H242.073V38.4203H248.94V41.9207C251.136 39.1862 254.043 37.7367 257.427 37.7367C261.205 37.7367 264.343 39.1058 266.846 41.7981ZM287.4 59.373C289.509 59.373 291.226 58.6377 292.647 57.169C294.072 55.6524 294.807 53.8409 294.807 51.7364C294.807 49.6301 294.072 47.8205 292.649 46.3518C291.226 44.883 289.509 44.1496 287.4 44.1496C285.29 44.1496 283.525 44.883 282.102 46.3518C280.681 47.8205 279.994 49.632 279.994 51.7364C279.994 53.8409 280.681 55.6524 282.102 57.169C283.525 58.6377 285.29 59.3711 287.4 59.3711V59.373ZM277.098 41.7981C279.798 39.056 283.232 37.6869 287.4 37.6869C291.569 37.6869 295.002 39.056 297.702 41.7981C300.399 44.4905 301.724 47.8205 301.724 51.7364C301.724 55.7003 300.399 59.0303 297.702 61.7226C295.002 64.413 291.569 65.786 287.4 65.786C283.232 65.786 279.798 64.413 277.098 61.7226C274.4 59.0303 273.077 55.7022 273.077 51.7364C273.077 47.8205 274.4 44.4905 277.098 41.7981ZM321.198 38.4203H328.117V65.1005H321.198V56.1196C319.174 57.2743 316.982 57.8545 315.262 57.8545C312.076 57.8545 309.72 57.2667 307.61 55.8477C305.504 54.3311 304.326 51.4913 304.326 47.3781V38.4203H311.193V46.8898C311.193 50.0226 312.811 51.589 316.049 51.589C317.864 51.589 319.412 51.3362 321.2 50.622V38.4203H321.198ZM350.977 65.1005L340.332 52.7801V65.1005H333.415V38.3801H340.332V48.9656L350.044 38.4203H358.776L346.856 50.7771L359.464 65.1005H350.977Z" fill="#EB2316"/>
<path fill-rule="evenodd" clip-rule="evenodd" d="M377.688 46.3015C376.265 44.783 374.498 44.0496 372.34 44.0496C370.134 44.0496 368.366 44.783 366.944 46.3015C365.571 47.82 364.883 49.6296 364.883 51.734C364.883 53.8883 365.571 55.6998 366.993 57.2183C368.416 58.7349 370.182 59.4683 372.34 59.4683C374.498 59.4683 376.265 58.7349 377.688 57.2183C379.109 55.6998 379.846 53.8883 379.846 51.734C379.846 49.6296 379.109 47.82 377.688 46.3015ZM379.748 38.4198H386.32V65.0981H379.748V61.5747C377.451 64.3551 374.597 65.7357 371.212 65.7357C367.386 65.7357 364.198 64.4145 361.695 61.7221C359.194 59.0298 357.968 55.6519 357.968 51.6383C357.968 47.6227 359.244 44.2947 361.745 41.7C364.247 39.0574 367.436 37.7362 371.212 37.7362C374.548 37.7362 377.491 39.2489 379.748 41.9183V38.4198ZM226.523 31.7138C226.523 29.414 228.338 27.7002 230.691 27.7002C232.997 27.7002 234.764 29.5117 234.764 31.7138C234.764 34.1132 232.997 35.8749 230.691 35.8749C228.338 35.8749 226.523 34.1132 226.523 31.7138ZM217.988 49.0436H231.576C230.938 45.5662 228.435 43.4636 224.904 43.4636C221.419 43.4636 218.821 45.5662 217.988 49.0417V49.0436ZM219.998 27.7002C222.304 27.7002 224.119 29.5117 224.119 31.7138C224.119 34.1132 222.354 35.8749 219.998 35.8749C217.643 35.8749 215.878 34.1132 215.878 31.7138C215.878 29.5117 217.693 27.7002 219.998 27.7002ZM238.05 54.1832H217.988C218.968 57.9517 221.569 59.8608 225.787 59.8608C228.681 59.8608 231.903 58.7789 234.347 56.8449L237.131 61.2166C233.755 64.3704 229.908 65.6859 225.492 65.6859C220.782 65.6859 217.201 64.3168 214.7 61.6245C212.199 58.9321 210.972 55.6021 210.972 51.7359C210.972 47.6725 212.247 44.3445 214.847 41.7019C217.448 39.0574 220.784 37.7342 224.904 37.7342C228.78 37.7342 232.016 38.9579 234.517 41.3572C237.02 43.7566 238.295 46.987 238.295 51.1462C238.295 52.0768 238.2 53.107 238.05 54.1832Z" fill="#EB2316"/>
<path fill-rule="evenodd" clip-rule="evenodd" d="M45.0862 0C20.2251 0 0 20.2251 0 45.0862C0 69.9472 20.2251 90.1723 45.0862 90.1723C69.9453 90.1723 90.1723 69.9472 90.1723 45.0862C90.1723 20.2251 69.9453 0 45.0862 0Z" fill="white"/>
<path fill-rule="evenodd" clip-rule="evenodd" d="M67.839 12.748C64.3979 21.5738 56.5641 23.4102 45.2164 23.4102C43.9986 23.4102 42.7922 23.391 41.6279 23.3738C40.502 23.3585 39.4373 23.3412 38.3937 23.3412C37.4669 23.3412 36.5324 23.3527 35.6113 23.3929C37.2007 19.4904 39.7379 16.8383 43.3494 15.2297C48.3837 12.9893 54.9288 12.9663 60.7041 12.9491C63.2203 12.9395 65.6292 12.93 67.839 12.748Z" fill="#008F32"/>
<path fill-rule="evenodd" clip-rule="evenodd" d="M71.3741 15.5793C66.2843 26.6665 54.9404 27.7772 45.2166 27.7772C43.0815 27.7772 41.0364 27.7255 39.1426 27.714L36.6934 37.2923C49.236 27.0668 65.8228 37.2042 64.0496 52.6344C62.8547 63.0265 55.446 69.8225 47.6083 71.7757C39.0698 73.9051 29.6102 70.7187 25.3687 62.0174C24.9187 61.0982 24.1355 59.2561 23.8368 58.2719L32.8406 55.9587C32.9996 56.4776 33.2696 56.9793 33.553 57.437C39.5811 67.1589 51.7962 62.297 53.1749 52.2112C54.5785 41.9512 40.1824 36.4861 33.6219 48.4772L25.6368 45.0744L25.4989 45.0131L29.3498 29.5542C29.5872 28.4551 30.3877 25.3855 30.5255 24.8819C34.8781 8.87718 48.9583 8.62441 60.2523 8.58229C55.5819 6.63867 50.4615 5.5625 45.0864 5.5625C23.2566 5.5625 5.56299 23.2561 5.56299 45.0859C5.56299 66.9157 23.2566 84.6093 45.0864 84.6093C66.9162 84.6093 84.6098 66.9157 84.6098 45.0859C84.6098 33.3514 79.4932 22.8176 71.3741 15.5793Z" fill="#EB2316"/>
</g>
<defs>
<clipPath id="clip0_2567_73810">
<rect width="396" height="90" fill="white"/>
</clipPath>
</defs>
</svg>
