<svg width="78" height="78" viewBox="0 0 78 78" fill="none" xmlns="http://www.w3.org/2000/svg">
<path fill-rule="evenodd" clip-rule="evenodd" d="M25.6813 13.564L26.5186 6.23236L27.6908 4.06618L31.8774 10.3981C31.8774 10.3981 35.7293 11.5645 35.7293 11.0646C35.8968 10.5647 36.9016 4.89934 36.9016 4.89934L39.9159 1.7334C39.9159 1.7334 44.2701 5.56585 44.7726 6.56562C45.2749 7.56538 47.4519 12.231 47.2846 13.564C47.2846 14.7304 46.9496 15.7302 47.4519 15.5635C47.9544 15.3969 51.806 10.898 51.806 10.898L57.6675 8.89842L61.6867 8.73177L58.6724 17.0632C58.6724 17.0632 58.6722 20.0625 59.0072 20.0625C59.3422 20.0625 63.6964 18.7295 63.6964 18.7295L68.0505 19.5626C68.0505 19.5626 64.0312 23.7283 63.6964 24.2281C63.3613 24.7281 61.8542 28.8937 61.8542 29.3937C61.8542 29.7269 61.8542 31.06 61.8542 31.06C61.8542 31.06 65.8733 31.06 66.2083 31.5599C66.5432 32.0597 67.3805 33.0595 68.0505 33.5595C68.5528 34.0593 73.9118 36.7253 73.9118 36.7253L74.5816 37.5585C74.5816 37.5585 69.5577 43.5571 69.3902 43.7237C69.2226 43.8904 65.371 45.5567 64.0312 45.7232C62.6915 45.8899 60.1795 46.2232 60.1795 46.2232L62.189 48.5559L64.0312 52.8883L64.7012 57.5538L64.1987 58.7203C64.1987 58.7203 61.3517 59.0536 60.347 58.5536C59.3422 58.0538 56.1602 55.8876 56.1602 55.8876L55.1555 62.5527L53.1459 67.5515L49.294 69.2178C49.294 69.2178 49.4615 66.5517 48.6242 65.552C47.6194 64.5522 46.2797 62.3861 44.9399 61.8862C43.6002 61.3864 42.0931 60.8864 41.9256 60.2199C41.7581 59.5534 41.5906 57.5538 41.5906 57.5538C39.9159 55.2211 37.9064 54.8878 35.8968 54.7211C34.3896 54.5545 33.2173 54.0548 31.7101 55.721L28.3608 59.5534C28.3608 59.5534 29.0306 65.2187 29.0306 66.2185C29.1981 67.2182 29.7004 69.7177 29.7004 69.7177L26.6859 68.0515C26.6859 68.0515 24.3414 66.7184 24.0066 65.552C23.6716 64.3857 21.997 60.7199 21.997 60.0533C21.997 59.3868 21.3271 56.0543 21.3271 56.0543C21.3271 56.0543 19.3175 55.3878 18.8151 55.3878C18.4801 55.3878 15.6332 56.3875 15.2982 56.5541C14.9633 56.7208 13.1212 58.7203 13.1212 57.8871C13.1212 57.0541 13.2887 55.3878 13.4561 55.0545C13.791 54.5545 14.4609 51.5552 14.4609 51.5552C14.4609 51.5552 15.2982 49.889 13.9585 49.889C12.6188 49.889 10.4417 49.389 10.1068 49.0557C9.77182 48.8892 7.25982 47.3895 6.25502 47.2229C5.25022 47.2229 1.7334 46.8897 1.7334 46.8897C1.7334 46.8897 2.90568 43.8904 3.07315 43.5571C3.24061 43.2239 4.91527 40.8911 5.25022 40.7244C5.58516 40.5578 10.4417 38.3916 10.4417 38.3916L11.614 37.7251C11.614 37.7251 8.4321 35.8923 7.76221 35.7255C7.09235 35.559 5.41769 34.7258 5.08274 34.226C4.74781 33.726 3.74301 32.0597 3.74301 32.0597V31.06L10.2742 31.2267C10.2742 31.2267 9.77182 30.0602 9.60436 30.0602C9.43689 29.8935 7.09235 28.5604 6.92488 28.2272C6.75742 28.0607 4.91527 26.3944 4.91527 26.3944L3.07315 22.0621L2.73821 20.3958L7.9297 21.2288C8.09717 21.2288 11.614 21.5621 11.9489 21.5621C12.2838 21.5621 14.126 21.3956 14.2934 21.3956C14.2934 21.3956 13.4561 16.8966 12.7862 15.8968C12.1164 14.7304 10.9441 13.0641 10.9441 12.8975C10.7766 12.5642 8.93449 11.5645 12.1164 11.5645C15.2982 11.5645 20.1548 11.7311 20.6571 11.7311C21.1596 11.7311 23.5041 13.0641 23.5041 13.2307L25.6813 13.564Z" fill="#F3C644"/>
<path fill-rule="evenodd" clip-rule="evenodd" d="M39.3547 47.1557C41.1969 42.4901 46.221 36.4915 49.5704 38.8243C49.0678 39.9908 44.5462 45.8227 41.3644 48.4887C39.0199 50.4884 38.015 50.4884 39.3547 47.1557ZM46.8909 61.8191C49.7377 62.6521 50.4077 65.8181 50.4077 68.4842C54.9291 66.6512 55.934 60.1528 55.0967 53.9875C57.1063 56.8203 58.781 57.9866 63.3026 58.3198C63.6375 55.3205 63.3026 52.9877 62.1303 50.8217C60.6231 48.1554 59.4508 47.4889 58.6135 46.9891C56.7713 45.9894 57.7761 45.3229 59.2833 45.4894C60.6231 45.6561 62.8001 46.1559 66.652 44.3231C69.164 43.1566 72.3458 40.324 73.3506 37.9913C66.1496 36.1583 66.8195 30.1597 60.4556 34.3255C60.4556 28.3269 60.7907 24.8276 66.1496 21.1618C62.1303 19.1622 58.446 23.4946 57.9437 23.8278C55.934 15.9963 58.6135 13.6635 59.7858 10.3309C52.9197 10.8308 50.0727 12.6637 48.5655 18.829C46.7234 17.3293 46.5559 17.6626 43.374 17.1627C44.8812 13.8301 45.7185 13.1636 43.7089 9.16455C42.7042 6.33186 41.8669 7.165 40.1922 3.66582C35.168 8.33141 38.8524 12.3305 36.5079 14.1634C32.8236 16.8294 29.1392 7.83153 28.1344 6.83175C26.7948 9.99769 26.6272 15.3298 29.8093 17.496C28.3019 17.9958 27.2971 18.829 26.2924 19.4955C25.2876 18.3291 24.7851 16.1629 21.1009 14.4966C18.0865 13.1636 15.7419 12.8304 13.2299 13.9968C15.5745 14.9965 14.7371 19.662 18.4214 24.3276C12.3926 22.3281 11.3878 25.3276 4.35415 22.6613C4.52162 25.6608 6.6987 26.9938 8.54082 28.3269C9.37817 28.8267 12.3926 30.3264 13.5648 30.9929C14.4022 31.4927 15.2395 32.3259 13.7323 32.8257C11.5552 33.4922 5.35895 32.6592 5.02402 32.6592C5.86135 34.492 7.36856 35.6585 9.7131 36.4915C13.3974 37.8245 15.7419 34.8252 15.2395 39.6575C14.5697 40.1573 4.35415 41.6571 4.18669 46.4892C5.52642 46.1559 6.86616 46.3226 8.37336 46.4892C11.2203 47.3224 10.7179 48.1554 12.0576 49.3219C13.3974 50.3217 16.2443 49.9884 18.0865 50.3217C17.7515 51.1549 14.9046 53.6542 14.7371 56.8203C16.4118 54.4875 19.4262 54.3208 23.4454 55.6538C23.2779 60.6526 24.2828 65.8181 29.3067 68.3175C28.4694 65.1516 27.7996 57.82 30.9814 55.6538C28.3019 54.654 26.4597 52.9877 24.6178 50.9882L26.9623 43.1566C37.5127 42.8234 45.0487 33.3257 43.2065 26.9938C41.8669 22.6613 36.6754 18.829 26.4597 24.9943C23.2779 26.9938 23.6129 30.1597 28.1344 27.6604C46.221 19.4955 39.3547 38.3245 28.4694 39.1576C28.6369 38.6578 30.1441 34.992 30.3116 34.492C32.3212 29.6599 30.3116 25.4941 26.6272 32.3259C24.6178 36.1583 21.9383 43.1566 20.9334 47.1557C19.2587 44.3231 18.4214 40.9906 18.5889 37.3247C18.9238 26.8271 27.6321 18.4957 38.1826 18.829C48.5655 19.1622 56.9388 27.9936 56.604 38.491C56.4365 42.9901 55.4317 47.9889 51.7473 50.3217C50.4077 51.1549 49.9052 50.6549 50.91 48.3222C51.9148 44.8229 53.9245 40.6573 54.9292 37.3247C55.7667 34.1587 53.2545 33.6589 51.5798 35.6585C40.6945 30.6597 31.4839 50.4884 36.1729 53.6542C39.0199 55.4872 43.2065 51.1549 45.886 48.1554C46.5559 47.3224 47.2257 46.6559 47.7282 46.1559C47.5607 46.6559 47.2257 47.4889 46.8909 48.3222C46.0535 50.8217 45.551 53.9875 48.9003 53.1545C46.8909 54.654 44.5462 55.8205 42.0342 56.487C44.3789 58.3198 44.5462 60.9859 46.8909 61.8191ZM31.3164 71.4835C30.6466 66.8179 30.8139 62.3189 31.8187 59.4863C32.9911 56.3203 39.0199 55.154 40.6945 58.9863C42.8715 64.1519 47.5607 63.3186 48.063 68.1509C48.2305 70.4837 47.0584 73.483 49.9052 71.65C55.0967 68.8174 57.2738 65.8181 57.1063 58.3198C58.9485 59.6528 61.9628 60.6526 64.8098 60.8193C65.9821 55.4872 66.1496 52.8212 62.8001 47.8222C68.1591 47.8222 74.6904 43.3233 77.0349 36.4915C70.1688 34.3255 72.3458 34.8252 67.1543 30.3264C65.8146 29.1599 63.1351 30.1597 63.3026 29.4932C63.6375 27.8269 64.3075 27.3271 70.0013 19.8288C66.987 18.1625 64.14 17.1627 61.1255 18.829C59.7858 14.6633 62.6328 11.664 64.3075 7.99816C54.7618 7.83153 53.9245 7.49828 48.733 12.6637C47.0584 4.16571 42.7042 4.83222 40.0247 0C38.015 0 33.9959 6.83175 34.3307 9.16455C30.9814 8.8313 29.9766 3.83245 27.7996 3.16594C26.2924 4.83222 24.7851 9.49781 24.9526 12.3305C23.9478 11.664 23.2779 11.1641 21.7708 10.9975C18.2539 9.99769 11.2203 9.99769 8.37336 11.1641C9.04322 13.9968 11.7227 15.8297 12.56 21.1618C5.02402 20.9951 4.52162 19.4955 1.84214 19.1622C1.84214 27.1604 5.35895 28.9934 9.04322 30.9929C6.6987 31.1594 4.85655 31.1594 3.18187 30.9929C2.34454 36.8248 7.53603 37.158 8.37336 38.3245C5.02402 38.991 0.167467 44.8229 0 49.6552C1.0048 49.4885 3.01441 47.4889 6.6987 49.3219C9.21069 50.8217 9.88057 52.3212 13.7323 52.3212C12.7275 55.6538 11.2203 58.4865 12.895 62.4856C13.7323 61.8191 15.5745 55.154 20.7659 57.82C20.5984 61.9856 21.6033 64.6517 23.4454 66.8179C25.1201 68.6507 28.4694 71.1502 31.3164 71.4835ZM13.7323 45.8227C15.2395 44.8229 17.7515 44.8229 18.7563 46.6559C18.0865 48.4887 13.8998 48.3222 13.7323 45.8227ZM52.7522 21.8283C51.7473 18.9956 51.9148 16.9961 52.5847 15.8297C53.757 13.4969 56.604 14.33 55.5992 16.9961C55.2642 17.496 53.0872 21.3283 52.7522 21.8283ZM52.5847 63.1521C49.9052 62.8189 50.0727 56.487 50.2402 54.3208C51.0775 55.154 52.4172 56.6535 53.0872 58.4865C53.757 59.9861 53.9245 61.6524 52.5847 63.1521Z" fill="#DB7643"/>
</svg>
