<svg width="78" height="78" viewBox="0 0 78 78" fill="none" xmlns="http://www.w3.org/2000/svg">
<g clip-path="url(#clip0_3112_28974)">
<path d="M48.7888 24.5334L38.6835 34.6911L28.5607 24.5334C25.8816 21.8316 24.3784 18.1807 24.3784 14.3758C24.3784 10.5709 25.8816 6.92 28.5607 4.21814C29.8842 2.88169 31.4595 1.8208 33.1955 1.09679C34.9315 0.372778 36.7938 0 38.6748 0C40.5557 0 42.418 0.372778 44.154 1.09679C45.89 1.8208 47.4653 2.88169 48.7888 4.21814C51.4764 6.91553 52.9854 10.5681 52.9854 14.3758C52.9854 18.1835 51.4764 21.836 48.7888 24.5334Z" fill="#59B224"/>
<path d="M28.5084 53.0883L38.6312 42.9307L48.7888 53.0883C51.4764 55.7857 52.9854 59.4382 52.9854 63.2459C52.9854 67.0537 51.4764 70.7062 48.7888 73.4036C47.4653 74.74 45.89 75.8009 44.154 76.5249C42.418 77.2489 40.5557 77.6217 38.6748 77.6217C36.7938 77.6217 34.9315 77.2489 33.1955 76.5249C31.4595 75.8009 29.8842 74.74 28.5607 73.4036C25.8816 70.7017 24.3784 67.0509 24.3784 63.2459C24.3784 59.441 25.8816 55.7902 28.5607 53.0883" fill="#113A13"/>
<path d="M52.83 48.9771L42.7246 38.8021L52.83 28.6444C54.1547 27.3101 55.7304 26.251 57.4662 25.5283C59.2021 24.8057 61.0638 24.4336 62.9441 24.4336C64.8243 24.4336 66.686 24.8057 68.4219 25.5283C70.1577 26.251 71.7334 27.3101 73.0581 28.6444C75.7467 31.3448 77.2562 35.0002 77.2562 38.8108C77.2562 42.6213 75.7467 46.2768 73.0581 48.9771C71.7334 50.3115 70.1577 51.3705 68.4219 52.0932C66.686 52.8159 64.8243 53.1879 62.9441 53.1879C61.0638 53.1879 59.2021 52.8159 57.4662 52.0932C55.7304 51.3705 54.1547 50.3115 52.83 48.9771Z" fill="#257524"/>
<path d="M24.3976 28.6429L34.5204 38.818L24.3976 48.9756C23.0743 50.3095 21.5001 51.3681 19.7657 52.0906C18.0313 52.813 16.171 53.185 14.2922 53.185C12.4133 53.185 10.5531 52.813 8.81868 52.0906C7.08429 51.3681 5.51007 50.3095 4.18682 48.9756C1.49822 46.2753 -0.0112305 42.6199 -0.0112305 38.8093C-0.0112305 34.9987 1.49822 31.3433 4.18682 28.6429C5.51007 27.3091 7.08429 26.2505 8.81868 25.528C10.5531 24.8055 12.4133 24.4336 14.2922 24.4336C16.171 24.4336 18.0313 24.8055 19.7657 25.528C21.5001 26.2505 23.0743 27.3091 24.3976 28.6429Z" fill="#99D255"/>
</g>
<defs>
<clipPath id="clip0_3112_28974">
<rect width="78" height="78" fill="white"/>
</clipPath>
</defs>
</svg>
