<svg width="78" height="78" viewBox="0 0 78 78" fill="none" xmlns="http://www.w3.org/2000/svg">
<path d="M77.9971 41.6551C77.7824 31.3788 73.5199 21.6026 66.1363 14.4519C58.7527 7.30129 48.8448 3.35436 38.5669 3.46924C28.2889 3.58411 18.4718 7.7515 11.2498 15.0654C4.02786 22.3793 -0.0150609 32.2483 4.21635e-05 42.5269H15.602C15.4887 50.8004 18.6666 58.7801 24.4368 64.7105C30.2069 70.6409 38.0965 74.0363 46.3701 74.1496C54.6436 74.263 62.6233 71.085 68.5537 65.3149C74.4841 59.5447 77.8794 51.6551 77.9928 43.3816C77.9928 43.0952 77.9928 42.8004 77.9928 42.5269C77.9928 42.2534 78.0056 41.9414 77.9971 41.6551ZM46.8017 58.1289C43.7154 58.1314 40.6976 57.2185 38.1302 55.5057C35.5628 53.7929 33.561 51.3571 32.3782 48.5064C31.1954 45.6557 30.8846 42.5183 31.4851 39.491C32.0857 36.4636 33.5706 33.6824 35.7521 31.4992C37.9335 29.3159 40.7135 27.8287 43.7403 27.2257C46.7672 26.6226 49.9049 26.9308 52.7565 28.1113C55.6081 29.2918 58.0456 31.2916 59.7605 33.8576C61.4755 36.4236 62.3908 39.4406 62.3908 42.5269C62.3897 46.6615 60.7479 50.6267 57.8259 53.5519C54.9039 56.4771 50.9405 58.1232 46.8059 58.1289H46.8017Z" fill="#FF335F"/>
</svg>
