<svg width="390" height="43" viewBox="0 0 390 43" fill="none" xmlns="http://www.w3.org/2000/svg">
<g clip-path="url(#clip0_2573_83596)">
<path d="M26.8965 13.5248L21.3256 19.1246L15.7451 13.5248C14.2681 12.0353 13.4395 10.0227 13.4395 7.92511C13.4395 5.82752 14.2681 3.81487 15.7451 2.32538C16.4747 1.58862 17.3431 1.00377 18.3002 0.60464C19.2572 0.205506 20.2838 0 21.3208 0C22.3577 0 23.3843 0.205506 24.3414 0.60464C25.2984 1.00377 26.1668 1.58862 26.8965 2.32538C28.3781 3.81241 29.21 5.82598 29.21 7.92511C29.21 10.0242 28.3781 12.0378 26.8965 13.5248Z" fill="#59B224"/>
<path d="M15.7162 29.2667L21.2968 23.667L26.8965 29.2667C28.3781 30.7537 29.21 32.7673 29.21 34.8664C29.21 36.9656 28.3781 38.9791 26.8965 40.4662C26.1668 41.2029 25.2984 41.7878 24.3414 42.1869C23.3843 42.586 22.3577 42.7915 21.3208 42.7915C20.2838 42.7915 19.2572 42.586 18.3002 42.1869C17.3431 41.7878 16.4747 41.2029 15.7451 40.4662C14.2681 38.9767 13.4395 36.964 13.4395 34.8664C13.4395 32.7689 14.2681 30.7562 15.7451 29.2667" fill="#113A13"/>
<path d="M29.1246 27.0001L23.5537 21.3908L29.1246 15.7911C29.8549 15.0555 30.7236 14.4716 31.6805 14.0732C32.6375 13.6748 33.6638 13.4697 34.7003 13.4697C35.7369 13.4697 36.7632 13.6748 37.7201 14.0732C38.6771 14.4716 39.5457 15.0555 40.276 15.7911C41.7582 17.2797 42.5904 19.2949 42.5904 21.3956C42.5904 23.4963 41.7582 25.5115 40.276 27.0001C39.5457 27.7357 38.6771 28.3196 37.7201 28.718C36.7632 29.1164 35.7369 29.3215 34.7003 29.3215C33.6638 29.3215 32.6375 29.1164 31.6805 28.718C30.7236 28.3196 29.8549 27.7357 29.1246 27.0001Z" fill="#257524"/>
<path d="M13.4498 15.7903L19.0303 21.3996L13.4498 26.9993C12.7203 27.7346 11.8525 28.3183 10.8963 28.7165C9.94018 29.1148 8.91465 29.3199 7.87887 29.3199C6.8431 29.3199 5.81757 29.1148 4.86143 28.7165C3.90528 28.3183 3.03745 27.7346 2.30796 26.9993C0.825787 25.5107 -0.00634766 23.4955 -0.00634766 21.3948C-0.00634766 19.2941 0.825787 17.2789 2.30796 15.7903C3.03745 15.055 3.90528 14.4713 4.86143 14.0731C5.81757 13.6748 6.8431 13.4697 7.87887 13.4697C8.91465 13.4697 9.94018 13.6748 10.8963 14.0731C11.8525 14.4713 12.7203 15.055 13.4498 15.7903Z" fill="#99D255"/>
<path d="M325.594 13.188H302.552V19.6618H310.716V39.3232H317.43V19.6618H325.594V13.188Z" fill="#113A13"/>
<path d="M103.554 33.9334C104.661 33.9764 105.764 33.7629 106.775 33.3098C107.786 32.8566 108.679 32.1759 109.384 31.3208L114.792 34.4616C112.352 38.0059 108.453 40.0517 103.458 40.0517C94.7174 40.0517 89.2041 34.039 89.2041 26.2493C89.2041 18.4597 94.7654 12.4854 102.93 12.4854C110.614 12.4854 116.089 18.6037 116.089 26.2878C116.087 27.2154 116.003 28.1411 115.839 29.054H96.2254C97.1859 32.5118 100.019 33.9718 103.554 33.9718V33.9334ZM109.384 23.8289C109.133 22.3156 108.339 20.9456 107.151 19.9751C105.963 19.0046 104.463 18.5 102.93 18.5557C101.346 18.4485 99.7777 18.9262 98.5225 19.8981C97.2674 20.87 96.4124 22.2686 96.1197 23.8289H109.384Z" fill="#113A13"/>
<path d="M148.621 26.2509C148.621 34.0406 142.858 40.0533 135.923 40.0533C134.314 40.1314 132.71 39.8233 131.245 39.155C129.779 38.4866 128.495 37.4773 127.499 36.2113V49.7736H120.776V13.1881H127.499V16.2713C128.494 15.0042 129.778 13.994 131.244 13.3255C132.709 12.657 134.314 12.3497 135.923 12.4293C142.896 12.4293 148.621 18.4421 148.621 26.2317V26.2509ZM141.897 26.2317C141.897 24.3212 141.138 22.4889 139.787 21.1379C138.436 19.7869 136.604 19.028 134.694 19.028C132.783 19.028 130.951 19.7869 129.6 21.1379C128.249 22.4889 127.49 24.3212 127.49 26.2317C127.49 28.1423 128.249 29.9746 129.6 31.3255C130.951 32.6765 132.783 33.4355 134.694 33.4355C136.604 33.4355 138.436 32.6765 139.787 31.3255C141.138 29.9746 141.897 28.1423 141.897 26.2317Z" fill="#113A13"/>
<path d="M166.371 33.9334C167.477 33.9756 168.578 33.7618 169.587 33.3086C170.597 32.8554 171.488 32.1751 172.192 31.3208L177.599 34.4616C175.16 38.0059 171.26 40.0517 166.266 40.0517C157.525 40.0517 152.012 34.039 152.012 26.2493C152.012 18.4597 157.573 12.4854 165.747 12.4854C173.431 12.4854 178.906 18.6037 178.906 26.2878C178.901 27.2157 178.814 28.1414 178.646 29.054H159.033C159.993 32.5118 162.875 33.9718 166.371 33.9718V33.9334ZM172.192 23.8289C171.943 22.3164 171.151 20.9465 169.965 19.9759C168.778 19.0052 167.279 18.5003 165.747 18.5557C164.162 18.4482 162.593 18.9255 161.336 19.8973C160.079 20.8691 159.222 22.2678 158.927 23.8289H172.192Z" fill="#113A13"/>
<path d="M240.666 26.2514C240.666 34.0411 234.903 40.0538 227.978 40.0538C226.367 40.1334 224.761 39.8261 223.294 39.1577C221.827 38.4892 220.541 37.4791 219.544 36.2118V49.7741H212.821V13.1886H219.544V16.2718C220.54 15.0033 221.826 13.9922 223.293 13.3237C224.76 12.6551 226.367 12.3486 227.978 12.4298C234.941 12.4298 240.666 18.4425 240.666 26.2322V26.2514ZM233.942 26.2322C233.993 25.2549 233.844 24.2775 233.505 23.3596C233.165 22.4417 232.643 21.6023 231.969 20.8927C231.295 20.1831 230.484 19.6181 229.585 19.2319C228.685 18.8458 227.717 18.6467 226.738 18.6467C225.76 18.6467 224.791 18.8458 223.892 19.2319C222.993 19.6181 222.182 20.1831 221.508 20.8927C220.834 21.6023 220.312 22.4417 219.972 23.3596C219.633 24.2775 219.484 25.2549 219.535 26.2322C219.484 27.2095 219.633 28.1868 219.972 29.1048C220.312 30.0227 220.834 30.862 221.508 31.5716C222.182 32.2812 222.993 32.8463 223.892 33.2324C224.791 33.6185 225.76 33.8177 226.738 33.8177C227.717 33.8177 228.685 33.6185 229.585 33.2324C230.484 32.8463 231.295 32.2812 231.969 31.5716C232.643 30.862 233.165 30.0227 233.505 29.1048C233.844 28.1868 233.993 27.2095 233.942 26.2322Z" fill="#113A13"/>
<path d="M258.376 33.9344C259.483 33.9767 260.585 33.7629 261.597 33.3098C262.608 32.8567 263.501 32.1764 264.206 31.3219L269.614 34.4531C267.174 38.0069 263.265 40.0528 258.27 40.0528C249.53 40.0528 244.017 34.0401 244.017 26.2504C244.017 18.4607 249.626 12.4864 257.79 12.4864C265.474 12.4864 270.949 18.6048 270.949 26.2888C270.947 27.2165 270.864 28.1421 270.699 29.0551H251.086C252.046 32.5033 254.88 33.9728 258.415 33.9728L258.376 33.9344ZM249.002 6.94433C249.009 6.0074 249.383 5.11068 250.044 4.44636C250.705 3.78205 251.599 3.403 252.536 3.39047C253.469 3.40313 254.358 3.78374 255.011 4.4494C255.664 5.11506 256.028 6.01182 256.023 6.94433C256.025 7.40381 255.937 7.85926 255.763 8.2845C255.589 8.70973 255.332 9.09637 255.008 9.42217C254.684 9.74797 254.299 10.0065 253.875 10.1829C253.451 10.3593 252.996 10.4502 252.536 10.4502C251.604 10.4502 250.709 10.0817 250.047 9.42509C249.385 8.76844 249.009 7.87677 249.002 6.94433ZM264.245 23.8299C263.994 22.3167 263.2 20.9467 262.012 19.9762C260.824 19.0056 259.323 18.5011 257.79 18.5568C256.206 18.4496 254.638 18.9272 253.383 19.8992C252.128 20.8711 251.273 22.2697 250.98 23.8299H264.245ZM258.885 6.90591C258.893 5.96898 259.267 5.07226 259.928 4.40794C260.588 3.74363 261.483 3.36458 262.42 3.35205C263.352 3.36471 264.242 3.74532 264.895 4.41098C265.548 5.07664 265.912 5.9734 265.906 6.90591C265.909 7.36539 265.821 7.82084 265.647 8.24608C265.472 8.67131 265.216 9.05795 264.892 9.38375C264.568 9.70955 264.183 9.96809 263.759 10.1445C263.334 10.3209 262.879 10.4117 262.42 10.4117C261.487 10.4118 260.593 10.0433 259.931 9.38667C259.269 8.73002 258.893 7.83835 258.885 6.90591Z" fill="#113A13"/>
<path d="M274.089 26.2508C274.046 24.4348 274.371 22.6288 275.045 20.9418C275.719 19.2549 276.728 17.722 278.01 16.4357C279.293 15.1494 280.823 14.1363 282.508 13.4576C284.193 12.7789 285.998 12.4487 287.814 12.4869C290.185 12.4468 292.521 13.0511 294.575 14.2353C296.628 15.4194 298.322 17.139 299.475 19.2104L293.712 22.6105C293.155 21.5259 292.301 20.6216 291.25 20.0028C290.199 19.3839 288.995 19.0758 287.776 19.1143C286.839 19.0949 285.909 19.2681 285.042 19.6232C284.175 19.9783 283.39 20.5078 282.736 21.1787C282.082 21.8497 281.573 22.6478 281.241 23.5236C280.908 24.3994 280.759 25.3342 280.803 26.27C280.763 27.2026 280.915 28.1334 281.25 29.0048C281.584 29.8762 282.094 30.6696 282.748 31.336C283.402 32.0023 284.185 32.5273 285.05 32.8785C285.915 33.2297 286.843 33.3996 287.776 33.3778C288.998 33.4335 290.211 33.1384 291.271 32.5275C292.332 31.9165 293.195 31.0151 293.76 29.9296L299.58 33.2721C298.413 35.3578 296.705 37.0903 294.636 38.287C292.567 39.4838 290.214 40.1006 287.824 40.0725C286.004 40.1108 284.196 39.7794 282.508 39.0984C280.821 38.4173 279.289 37.4008 278.006 36.1103C276.722 34.8199 275.714 33.2824 275.043 31.5909C274.371 29.8995 274.05 28.0893 274.098 26.27" fill="#113A13"/>
<path d="M327.792 26.2516C327.743 24.4141 328.063 22.5855 328.733 20.8737C329.403 19.1619 330.408 17.6016 331.691 16.2848C332.973 14.968 334.506 13.9214 336.2 13.2068C337.894 12.4922 339.713 12.124 341.551 12.124C343.389 12.124 345.209 12.4922 346.902 13.2068C348.596 13.9214 350.129 14.968 351.411 16.2848C352.694 17.6016 353.7 19.1619 354.369 20.8737C355.039 22.5855 355.359 24.4141 355.31 26.2516C355.359 28.089 355.039 29.9176 354.369 31.6294C353.7 33.3412 352.694 34.9016 351.411 36.2183C350.129 37.5351 348.596 38.5817 346.902 39.2963C345.209 40.011 343.389 40.3791 341.551 40.3791C339.713 40.3791 337.894 40.011 336.2 39.2963C334.506 38.5817 332.973 37.5351 331.691 36.2183C330.408 34.9016 329.403 33.3412 328.733 31.6294C328.063 29.9176 327.743 28.089 327.792 26.2516ZM348.596 26.2516C348.596 24.3818 347.854 22.5886 346.531 21.2664C345.209 19.9443 343.416 19.2015 341.546 19.2015C339.677 19.2015 337.883 19.9443 336.561 21.2664C335.239 22.5886 334.496 24.3818 334.496 26.2516C334.496 28.1214 335.239 29.9146 336.561 31.2367C337.883 32.5589 339.677 33.3017 341.546 33.3017C343.416 33.3017 345.209 32.5589 346.531 31.2367C347.854 29.9146 348.596 28.1214 348.596 26.2516Z" fill="#113A13"/>
<path d="M200.631 39.3232H208.43L198.48 26.0971L208.123 13.188H200.112L192.601 23.7919H190.306V13.188H183.592V39.3232H190.306V29.0171H193.12L200.631 39.3232Z" fill="#113A13"/>
<path d="M376.328 39.3232H384.136L374.176 26.0971L383.819 13.188H375.809L368.298 23.7919H366.012V13.188H359.298V39.3232H366.012V29.0171H368.816L376.328 39.3232Z" fill="#113A13"/>
<path d="M84.795 39.3228H77.6104V10.1044H64.7685V39.3228H57.584V3.35205H84.795V39.3228Z" fill="#113A13"/>
</g>
<defs>
<clipPath id="clip0_2573_83596">
<rect width="389.15" height="43" fill="white"/>
</clipPath>
</defs>
</svg>
